<svg width="1129" height="225" viewBox="0 0 1129 225" fill="none" xmlns="http://www.w3.org/2000/svg">
<path d="M172.102 149.223L214.358 223.544H129.001L86.2988 149.223H172.102Z" fill="url(#paint0_linear_247_970)"/>
<path d="M214.335 223.557L256.967 149.235L171.633 0.556641H86.2988L214.335 223.557Z" fill="#232323"/>
<path d="M43.6335 74.8594H128.968L43.669 223.538L0.966797 149.217L43.6335 74.8594Z" fill="#232323"/>
<path d="M465.883 71.5932L463.761 94.5226C454.665 76.7221 433.745 67.0676 411.308 67.0676C369.164 67.0676 340.967 97.5396 340.967 144.304C340.967 190.766 366.435 224.557 411.005 224.557C435.261 224.557 453.149 212.79 462.548 197.403L464.974 220.635H499.538V71.5932H465.883ZM461.942 146.114C461.942 172.965 445.266 191.369 419.495 191.369C393.723 191.369 377.957 172.664 377.957 146.114C377.957 119.564 394.026 100.557 419.798 100.557C445.569 100.557 461.942 119.262 461.942 146.114Z" fill="#232323"/>
<path d="M562.475 220.635V180.508L584.305 157.88L623.417 220.635H665.865L610.077 130.727L667.077 71.5932H620.688L562.475 134.046V0.556641H525.788V220.635H562.475Z" fill="#232323"/>
<path d="M790.084 71.5932L787.962 94.5226C778.866 76.7221 757.945 67.0676 735.509 67.0676C693.365 67.0676 665.168 97.5396 665.168 144.304C665.168 190.766 690.636 224.557 735.206 224.557C759.461 224.557 777.35 212.79 786.749 197.403L789.175 220.635H823.739V71.5932H790.084ZM786.143 146.114C786.143 172.965 769.467 191.369 743.695 191.369C717.924 191.369 702.157 172.664 702.157 146.114C702.157 119.564 718.227 100.557 743.998 100.557C769.77 100.557 786.143 119.262 786.143 146.114Z" fill="#232323"/>
<path d="M842.457 175.379C842.457 204.644 866.106 224.557 903.399 224.557C940.389 224.557 966.161 205.851 966.161 175.681C966.161 152.751 953.427 141.287 928.261 135.554L901.277 129.218C888.543 126.201 881.872 120.771 881.872 112.323C881.872 101.16 890.362 94.5226 904.915 94.5226C919.165 94.5226 927.655 102.669 927.958 115.34H963.129C962.826 86.3766 940.086 67.0676 906.431 67.0676C871.867 67.0676 847.005 84.5664 847.005 113.832C847.005 137.666 860.042 150.338 887.027 156.372L914.011 162.708C927.352 165.725 931.293 171.155 931.293 178.698C931.293 189.559 921.894 196.498 904.612 196.498C887.633 196.498 877.931 188.352 877.628 175.379H842.457Z" fill="#232323"/>
<path d="M1023.76 220.635V139.175C1023.76 116.849 1037.4 100.557 1060.75 100.557C1079.55 100.557 1091.98 112.625 1091.98 137.666V220.635H1128.97V128.917C1128.97 90.2988 1109.56 67.0676 1072.57 67.0676C1051.05 67.0676 1033.46 76.4204 1024.06 90.9022V0.556641H986.768V220.635H1023.76Z" fill="#232323"/>
<defs>
<linearGradient id="paint0_linear_247_970" x1="141.79" y1="186.267" x2="214.512" y2="223.622" gradientUnits="userSpaceOnUse">
<stop stop-color="#232323"/>
<stop offset="0.0251852" stop-color="#232323" stop-opacity="0.998415"/>
<stop offset="0.0529101" stop-color="#232323" stop-opacity="0.992997"/>
<stop offset="0.083956" stop-color="#222222" stop-opacity="0.982748"/>
<stop offset="0.119105" stop-color="#222222" stop-opacity="0.966671"/>
<stop offset="0.159137" stop-color="#212121" stop-opacity="0.943769"/>
<stop offset="0.204835" stop-color="#202020" stop-opacity="0.913044"/>
<stop offset="0.25698" stop-color="#1E1E1E" stop-opacity="0.873501"/>
<stop offset="0.316353" stop-color="#1C1C1C" stop-opacity="0.82414"/>
<stop offset="0.383736" stop-color="#1A1A1A" stop-opacity="0.763967"/>
<stop offset="0.45991" stop-color="#171717" stop-opacity="0.691982"/>
<stop offset="0.545657" stop-color="#131313" stop-opacity="0.60719"/>
<stop offset="0.641758" stop-color="#0F0F0F" stop-opacity="0.508593"/>
<stop offset="0.748995" stop-color="#0B0B0B" stop-opacity="0.395193"/>
<stop offset="0.868148" stop-color="#060606" stop-opacity="0.265995"/>
<stop offset="1" stop-opacity="0.12"/>
</linearGradient>
</defs>
</svg>
