<svg width="1129" height="225" viewBox="0 0 1129 225" fill="none" xmlns="http://www.w3.org/2000/svg">
<path d="M465.883 71.9818L463.761 94.9113C454.665 77.1108 433.745 67.4563 411.308 67.4563C369.164 67.4563 340.967 97.9283 340.967 144.692C340.967 191.155 366.435 224.945 411.005 224.945C435.261 224.945 453.149 213.179 462.548 197.792L464.974 221.023H499.538V71.9818H465.883ZM461.942 146.503C461.942 173.354 445.266 191.758 419.495 191.758C393.723 191.758 377.957 173.052 377.957 146.503C377.957 119.953 394.026 100.945 419.798 100.945C445.569 100.945 461.942 119.651 461.942 146.503Z" fill="white"/>
<path d="M562.475 221.023V180.897L584.305 158.269L623.417 221.023H665.865L610.077 131.116L667.077 71.9818H620.688L562.475 134.434V0.945312H525.788V221.023H562.475Z" fill="white"/>
<path d="M790.084 71.9818L787.962 94.9113C778.866 77.1108 757.945 67.4563 735.509 67.4563C693.365 67.4563 665.168 97.9283 665.168 144.692C665.168 191.155 690.636 224.945 735.206 224.945C759.461 224.945 777.35 213.179 786.749 197.792L789.175 221.023H823.739V71.9818H790.084ZM786.143 146.503C786.143 173.354 769.467 191.758 743.695 191.758C717.924 191.758 702.157 173.052 702.157 146.503C702.157 119.953 718.227 100.945 743.998 100.945C769.77 100.945 786.143 119.651 786.143 146.503Z" fill="white"/>
<path d="M842.457 175.768C842.457 205.033 866.106 224.945 903.399 224.945C940.389 224.945 966.161 206.24 966.161 176.069C966.161 153.14 953.427 141.675 928.261 135.943L901.277 129.607C888.543 126.59 881.872 121.159 881.872 112.712C881.872 101.549 890.362 94.9113 904.915 94.9113C919.165 94.9113 927.655 103.057 927.958 115.729H963.129C962.826 86.7653 940.086 67.4563 906.431 67.4563C871.867 67.4563 847.005 84.9551 847.005 114.22C847.005 138.055 860.042 150.726 887.027 156.76L914.011 163.096C927.352 166.113 931.293 171.544 931.293 179.086C931.293 189.948 921.894 196.887 904.612 196.887C887.633 196.887 877.931 188.741 877.628 175.768H842.457Z" fill="white"/>
<path d="M1023.76 221.023V139.563C1023.76 117.237 1037.4 100.945 1060.75 100.945C1079.55 100.945 1091.98 113.013 1091.98 138.055V221.023H1128.97V129.305C1128.97 90.6874 1109.56 67.4563 1072.57 67.4563C1051.05 67.4563 1033.46 76.8091 1024.06 91.2908V0.945312H986.768V221.023H1023.76Z" fill="white"/>
<path d="M172.102 149.611L214.358 223.933H129.001L86.2988 149.611H172.102Z" fill="url(#paint0_linear_247_985)"/>
<path d="M214.335 223.945L256.966 149.624L171.633 0.945312H86.2988L214.335 223.945Z" fill="white"/>
<path d="M43.6334 75.2461H128.967L43.6689 223.925L0.966797 149.603L43.6334 75.2461Z" fill="white"/>
<defs>
<linearGradient id="paint0_linear_247_985" x1="126.925" y1="168.093" x2="214.208" y2="224.078" gradientUnits="userSpaceOnUse">
<stop stop-color="white"/>
<stop offset="0.0621083" stop-color="white" stop-opacity="0.995806"/>
<stop offset="0.123386" stop-color="white" stop-opacity="0.983153"/>
<stop offset="0.184176" stop-color="white" stop-opacity="0.961934"/>
<stop offset="0.244819" stop-color="white" stop-opacity="0.932041"/>
<stop offset="0.305657" stop-color="white" stop-opacity="0.893366"/>
<stop offset="0.367033" stop-color="white" stop-opacity="0.845802"/>
<stop offset="0.429288" stop-color="white" stop-opacity="0.789242"/>
<stop offset="0.492764" stop-color="white" stop-opacity="0.723578"/>
<stop offset="0.557802" stop-color="white" stop-opacity="0.648703"/>
<stop offset="0.624746" stop-color="white" stop-opacity="0.56451"/>
<stop offset="0.693936" stop-color="white" stop-opacity="0.47089"/>
<stop offset="0.765714" stop-color="white" stop-opacity="0.367736"/>
<stop offset="0.840423" stop-color="white" stop-opacity="0.254942"/>
<stop offset="0.918405" stop-color="white" stop-opacity="0.132399"/>
<stop offset="1" stop-color="white" stop-opacity="0"/>
</linearGradient>
</defs>
</svg>
