<svg width="1129" height="224" viewBox="0 0 1129 224" fill="none" xmlns="http://www.w3.org/2000/svg">
<path d="M464.987 71.0365L462.865 93.966C453.769 76.1655 432.848 66.511 410.412 66.511C368.268 66.511 340.07 96.983 340.07 143.747C340.07 190.209 365.539 224 410.109 224C434.364 224 452.253 212.234 461.652 196.847L464.077 220.078H498.642V71.0365H464.987ZM461.045 145.557C461.045 172.409 444.37 190.813 418.598 190.813C392.826 190.813 377.06 172.107 377.06 145.557C377.06 119.007 393.13 100 418.901 100C444.673 100 461.045 118.706 461.045 145.557Z" fill="#232323"/>
<path d="M561.578 220.078V179.951L583.408 157.324L622.521 220.078H664.968L609.18 130.17L666.181 71.0365H619.792L561.578 133.489V0H524.892V220.078H561.578Z" fill="#232323"/>
<path d="M789.188 71.0365L787.065 93.966C777.969 76.1655 757.049 66.511 734.612 66.511C692.468 66.511 664.271 96.983 664.271 143.747C664.271 190.209 689.739 224 734.309 224C758.565 224 776.453 212.234 785.853 196.847L788.278 220.078H822.842V71.0365H789.188ZM785.246 145.557C785.246 172.409 768.57 190.813 742.799 190.813C717.027 190.813 701.261 172.107 701.261 145.557C701.261 119.007 717.33 100 743.102 100C768.874 100 785.246 118.706 785.246 145.557Z" fill="#232323"/>
<path d="M841.56 174.822C841.56 204.088 865.21 224 902.503 224C939.493 224 965.264 205.294 965.264 175.124C965.264 152.195 952.53 140.73 927.365 134.998L900.38 128.662C887.646 125.645 880.976 120.214 880.976 111.766C880.976 100.603 889.465 93.966 904.019 93.966C918.269 93.966 926.758 102.112 927.062 114.783H962.232C961.929 85.82 939.189 66.511 905.535 66.511C870.97 66.511 846.108 84.0098 846.108 113.275C846.108 137.11 859.146 149.781 886.13 155.815L913.115 162.151C926.455 165.168 930.397 170.599 930.397 178.141C930.397 189.002 920.998 195.942 903.716 195.942C886.737 195.942 877.034 187.796 876.731 174.822H841.56Z" fill="#232323"/>
<path d="M1022.86 220.078V138.618C1022.86 116.292 1036.51 100 1059.85 100C1078.65 100 1091.08 112.068 1091.08 137.11V220.078H1128.07V128.36C1128.07 89.7421 1108.67 66.511 1071.68 66.511C1050.15 66.511 1032.56 75.8638 1023.16 90.3455V0H985.872V220.078H1022.86Z" fill="#232323"/>
<path d="M171.135 148.666L213.391 222.988H128.034L85.332 148.666H171.135Z" fill="url(#paint0_linear_232_2)"/>
<path d="M213.368 223L256 148.679L170.666 0H85.332L213.368 223Z" fill="#FA5757"/>
<path d="M42.6666 74.3027H128.001L42.7021 222.981L0 148.66L42.6666 74.3027Z" fill="#FA5757"/>
<defs>
<linearGradient id="paint0_linear_232_2" x1="133.826" y1="171.34" x2="213.247" y2="223.121" gradientUnits="userSpaceOnUse">
<stop stop-color="#FA5757"/>
<stop offset="0.0240912" stop-color="#FA5757" stop-opacity="0.99831"/>
<stop offset="0.045037" stop-color="#FA5757" stop-opacity="0.992615"/>
<stop offset="0.064967" stop-color="#FA5757" stop-opacity="0.981977"/>
<stop offset="0.0860106" stop-color="#FA5757" stop-opacity="0.96546"/>
<stop offset="0.110297" stop-color="#FA5757" stop-opacity="0.942125"/>
<stop offset="0.139956" stop-color="#FA5757" stop-opacity="0.911036"/>
<stop offset="0.177117" stop-color="#FA5757" stop-opacity="0.871255"/>
<stop offset="0.223909" stop-color="#FA5757" stop-opacity="0.821844"/>
<stop offset="0.282462" stop-color="#FA5757" stop-opacity="0.761867"/>
<stop offset="0.354904" stop-color="#FA5757" stop-opacity="0.690386"/>
<stop offset="0.443367" stop-color="#FA5757" stop-opacity="0.606463"/>
<stop offset="0.549978" stop-color="#FA5757" stop-opacity="0.509162"/>
<stop offset="0.676868" stop-color="#FA5757" stop-opacity="0.397545"/>
<stop offset="0.826165" stop-color="#FA5757" stop-opacity="0.270674"/>
<stop offset="1" stop-color="#FA5757" stop-opacity="0.127613"/>
</linearGradient>
</defs>
</svg>
