<svg width="128" height="27" viewBox="0 0 128 27" fill="none" xmlns="http://www.w3.org/2000/svg">
<path d="M20.055 17.4218L25.0069 26.1314H15.0042L10 17.4218H20.055Z" fill="url(#paint0_linear_576_1551)"/>
<path d="M25.0042 26.1328L30.0001 17.4233L20.0001 0H10L25.0042 26.1328Z" fill="#FA5757"/>
<path d="M5 8.70721H15.0001L5.00416 26.1305L0 17.4209L5 8.70721Z" fill="#FA5757"/>
<path d="M50.1436 8.63027L49.8948 11.3191C48.8286 9.23172 46.3761 8.09957 43.7459 8.09957C38.8055 8.09957 35.5 11.6729 35.5 17.1568C35.5 22.6053 38.4856 26.5678 43.7104 26.5678C46.5538 26.5678 48.6508 25.188 49.7527 23.3836L50.037 26.1079H54.0889V8.63027H50.1436ZM49.6816 17.3691C49.6816 20.5179 47.7267 22.676 44.7056 22.676C41.6844 22.676 39.8362 20.4825 39.8362 17.3691C39.8362 14.2556 41.72 12.0267 44.7411 12.0267C47.7623 12.0267 49.6816 14.2203 49.6816 17.3691Z" fill="white"/>
<path d="M61.4668 26.1079V21.4023L64.0259 18.7489L68.6109 26.1079H73.5869L67.047 15.5647L73.729 8.63027H68.291L61.4668 15.9539V0.300049H57.1661V26.1079H61.4668Z" fill="white"/>
<path d="M88.1488 8.63027L87.9 11.3191C86.8337 9.23172 84.3813 8.09957 81.7511 8.09957C76.8106 8.09957 73.5052 11.6729 73.5052 17.1568C73.5052 22.6053 76.4908 26.5678 81.7155 26.5678C84.559 26.5678 86.656 25.188 87.7578 23.3836L88.0422 26.1079H92.0941V8.63027H88.1488ZM87.6867 17.3691C87.6867 20.5179 85.7319 22.676 82.7107 22.676C79.6896 22.676 77.8414 20.4825 77.8414 17.3691C77.8414 14.2556 79.7251 12.0267 82.7463 12.0267C85.7674 12.0267 87.6867 14.2203 87.6867 17.3691Z" fill="white"/>
<path d="M94.2883 20.8009C94.2883 24.2327 97.0606 26.5678 101.432 26.5678C105.769 26.5678 108.79 24.3742 108.79 20.8363C108.79 18.1474 107.297 16.803 104.347 16.1308L101.184 15.3878C99.6908 15.034 98.9089 14.3972 98.9089 13.4065C98.9089 12.0975 99.9041 11.3191 101.61 11.3191C103.281 11.3191 104.276 12.2744 104.311 13.7603H108.434C108.399 10.3639 105.733 8.09957 101.788 8.09957C97.736 8.09957 94.8214 10.1516 94.8214 13.5834C94.8214 16.3784 96.3498 17.8644 99.5131 18.572L102.676 19.3149C104.24 19.6687 104.702 20.3056 104.702 21.1901C104.702 22.4637 103.601 23.2775 101.575 23.2775C99.5842 23.2775 98.4468 22.3222 98.4113 20.8009H94.2883Z" fill="white"/>
<path d="M115.542 26.1079V16.5553C115.542 13.9372 117.141 12.0267 119.878 12.0267C122.082 12.0267 123.539 13.4419 123.539 16.3784V26.1079H127.875V15.3524C127.875 10.8238 125.6 8.09957 121.264 8.09957C118.741 8.09957 116.679 9.19634 115.577 10.8946V0.300049H111.206V26.1079H115.542Z" fill="white"/>
<defs>
<linearGradient id="paint0_linear_576_1551" x1="15.6829" y1="20.079" x2="24.99" y2="26.147" gradientUnits="userSpaceOnUse">
<stop stop-color="#FA5757"/>
<stop offset="0.0240912" stop-color="#FA5757" stop-opacity="0.99831"/>
<stop offset="0.045037" stop-color="#FA5757" stop-opacity="0.992615"/>
<stop offset="0.064967" stop-color="#FA5757" stop-opacity="0.981977"/>
<stop offset="0.0860106" stop-color="#FA5757" stop-opacity="0.96546"/>
<stop offset="0.110297" stop-color="#FA5757" stop-opacity="0.942125"/>
<stop offset="0.139956" stop-color="#FA5757" stop-opacity="0.911036"/>
<stop offset="0.177117" stop-color="#FA5757" stop-opacity="0.871255"/>
<stop offset="0.223909" stop-color="#FA5757" stop-opacity="0.821844"/>
<stop offset="0.282462" stop-color="#FA5757" stop-opacity="0.761867"/>
<stop offset="0.354904" stop-color="#FA5757" stop-opacity="0.690386"/>
<stop offset="0.443367" stop-color="#FA5757" stop-opacity="0.606463"/>
<stop offset="0.549978" stop-color="#FA5757" stop-opacity="0.509162"/>
<stop offset="0.676868" stop-color="#FA5757" stop-opacity="0.397545"/>
<stop offset="0.826165" stop-color="#FA5757" stop-opacity="0.270674"/>
<stop offset="1" stop-color="#FA5757" stop-opacity="0.127613"/>
</linearGradient>
</defs>
</svg>
