<svg width="384" height="200" viewBox="0 0 384 200" fill="none" xmlns="http://www.w3.org/2000/svg">
<rect width="383.333" height="200" rx="6" fill="#F8F8F8"/>
<rect x="113.546" y="27.5704" width="125.825" height="116.271" fill="white" stroke="#C7C7C7" stroke-width="0.760417"/>
<rect x="118.923" y="33.0562" width="115.077" height="105.523" fill="white" stroke="#D9D9D9" stroke-width="0.760417"/>
<path d="M162.948 57.8144C159.461 58.0975 152.902 56.3991 151.584 58.0699C150.113 59.9339 150.548 65.2362 150.458 65.4709L149.823 55.2668L154.884 55.9641L162.948 57.8213V57.8144Z" fill="#231F20"/>
<path d="M188.057 70.0691C188.637 70.1382 189.203 70.2555 189.762 70.3798C189.963 70.4281 190.177 70.435 190.37 70.4903C191.074 70.6767 191.73 70.9666 192.407 71.16C192.704 71.2635 193.014 71.2842 193.311 71.3809C193.698 71.4706 194.077 71.5604 194.45 71.7882C194.568 71.8573 194.547 71.9056 194.423 71.9953C194.305 72.0713 194.077 72.2853 193.836 72.3474C193.622 72.3751 193.408 72.3958 193.194 72.4096C193.09 72.4096 192.98 72.4303 192.876 72.4234L192.572 72.3681C192.165 72.2922 191.765 72.1817 191.378 72.0368C190.909 71.8642 190.405 71.8434 189.928 71.7261C189.403 71.6087 188.879 71.5052 188.354 71.4361C188.03 71.4016 187.698 71.3533 187.374 71.3533C186.877 71.3326 186.373 71.3256 185.876 71.4085C185.489 71.4499 185.137 71.6432 184.764 71.733C184.681 71.7537 184.605 71.7882 184.522 71.802C184.212 71.8573 184.094 71.7813 183.956 71.4775C183.922 71.4085 183.887 71.3395 183.866 71.2704C183.784 71.0357 183.866 70.8079 184.087 70.656C184.723 70.1589 185.517 70.076 186.297 69.9932C186.884 69.9587 187.477 69.9725 188.064 70.0277V70.0622L188.057 70.0691Z" fill="#231F20"/>
<path d="M183.873 61.8187C183.942 62.5298 183.997 63.2409 184.032 63.9451C184.046 64.2006 184.087 64.456 184.094 64.7184C184.115 65.6297 184.094 66.5341 184.059 67.4385C184.046 67.839 184.059 68.2394 184.08 68.6329C184.046 69.1438 184.101 69.6547 183.859 70.1587C183.797 70.3175 183.763 70.2968 183.659 70.1587C183.576 70.062 183.493 69.9585 183.431 69.8825C183.321 69.7652 183.245 69.634 183.224 69.489L183.086 68.7227C183.058 68.4672 183.072 68.2118 183.065 67.9563C183.065 67.4454 183.079 66.9346 183.114 66.4168C183.155 65.7954 183.045 65.1602 182.996 64.5389C182.934 63.8485 182.872 63.165 182.775 62.4746C182.72 62.0535 182.651 61.6323 182.582 61.2112C182.465 60.576 182.361 59.9339 182.182 59.3126C182.043 58.8293 181.829 58.3806 181.65 57.918C181.609 57.8144 181.553 57.7178 181.519 57.6142C181.408 57.2207 181.519 57.055 181.747 56.8962C181.802 56.8617 181.857 56.8134 181.912 56.7857C182.092 56.6891 182.32 56.7995 182.534 57.0481C183.045 57.8351 183.286 58.7603 183.514 59.6923C183.68 60.3827 183.797 61.0938 183.908 61.8049H183.88L183.873 61.8187Z" fill="#231F20"/>
<path d="M149.313 82.0818C149.292 82.2682 149.299 82.4546 149.292 82.6549C149.292 82.7239 149.333 82.7791 149.333 82.8551C149.326 83.1105 149.32 83.3798 149.375 83.6283C149.402 83.7388 149.458 83.8354 149.485 83.939C149.54 84.0702 149.61 84.1875 149.582 84.3808C149.568 84.443 149.43 84.5327 149.257 84.6087C149.085 84.6846 148.843 84.7537 148.733 84.7122C148.567 84.6294 148.374 84.5465 148.27 84.4085C148.194 84.2566 148.146 84.0909 148.146 83.9045C148.146 83.6835 147.987 83.5317 147.918 83.3384C147.842 83.1243 147.808 82.9034 147.78 82.6756C147.766 82.5375 147.745 82.3994 147.732 82.2682C147.704 82.0611 147.704 81.854 147.642 81.6607C147.594 81.5088 147.442 81.3776 147.386 81.2188C147.373 81.1843 147.345 81.1567 147.338 81.1153C147.311 80.9841 147.462 80.9289 147.849 80.8736L148.118 80.8391C148.415 80.8046 148.677 80.8391 148.822 80.9013C148.988 81.0048 149.147 81.1015 149.216 81.205C149.278 81.3155 149.299 81.426 149.32 81.5433C149.347 81.7159 149.333 81.8954 149.354 82.0749L149.313 82.0887V82.0818Z" fill="#231F20"/>
<path d="M164.321 105.231C157.714 104.609 150.464 103.429 148.048 100.867C144.948 97.5743 145.369 88.3506 145.369 88.3506L144.665 93.3629C144.665 93.3629 145.569 102.904 148.055 103.746C150.533 104.589 160.033 105.735 160.033 105.735L164.328 105.238L164.321 105.231Z" fill="#231F20"/>
<path d="M166.261 105.48C168.54 105.569 170.825 105.618 173.11 105.618C173.945 105.618 174.781 105.556 175.616 105.556C178.564 105.556 181.512 105.514 184.46 105.48C185.772 105.459 187.084 105.383 188.382 105.307C190.052 105.224 191.723 104.955 193.415 105.342C193.939 105.48 193.87 105.59 193.442 105.894C193.007 106.218 192.227 106.75 191.274 106.86C187.885 107.109 184.481 107.364 181.036 107.282C178.972 107.233 176.831 107.42 174.726 107.454C172.406 107.496 170.086 107.496 167.76 107.454C166.33 107.433 164.901 107.385 163.472 107.323C161.304 107.233 159.13 107.061 156.976 106.833C155.298 106.653 153.641 106.529 151.943 106.087C151.57 106.004 151.197 105.873 150.824 105.735C150.479 105.597 150.196 105.411 149.968 105.279C149.74 105.128 149.574 104.941 149.457 104.789C149.34 104.644 149.278 104.485 149.257 104.327C149.236 104.168 149.257 104.03 149.312 103.885C149.36 103.754 149.395 103.616 149.471 103.519C149.595 103.36 149.823 103.332 150.065 103.374C150.286 103.422 150.61 103.498 150.962 103.671C152.108 104.126 153.517 104.389 154.953 104.603C156.396 104.81 157.901 104.962 159.42 105.086C161.677 105.259 163.969 105.383 166.268 105.438V105.487L166.261 105.48Z" fill="#231F20"/>
<path d="M187.74 118.742C187.74 118.742 191.855 119.232 193.788 117.196C195.197 115.711 196.191 110.651 196.191 110.651L196.522 115.856L194.389 119.881H189.729L187.74 118.742Z" fill="#231F20"/>
<path d="M151.225 108.421C151.307 109.215 151.39 110.009 151.446 110.809C151.466 111.099 151.521 111.389 151.535 111.679C151.563 112.715 151.549 113.751 151.515 114.786C151.494 115.242 151.535 115.704 151.528 116.153C151.508 116.733 151.639 117.327 151.28 117.893C151.19 118.072 151.038 118.038 150.81 117.872C150.693 117.789 150.555 117.679 150.41 117.548C150.341 117.479 150.258 117.41 150.21 117.334C150.175 117.258 150.148 117.182 150.141 117.099C150.003 115.953 150.023 114.834 150.12 113.668C150.182 112.97 150.023 112.259 149.954 111.555L149.726 109.208C149.678 108.724 149.623 108.241 149.554 107.758C149.45 107.026 149.374 106.287 149.243 105.562C149.14 104.996 148.96 104.458 148.829 103.905C148.794 103.781 148.767 103.664 148.753 103.54C148.732 103.305 148.725 103.153 148.788 103.036C148.877 102.911 148.974 102.835 149.105 102.766C149.16 102.732 149.216 102.697 149.264 102.677C149.347 102.642 149.43 102.663 149.547 102.732C149.657 102.801 149.837 102.904 149.892 103.07C150.369 104.009 150.61 105.031 150.866 106.073C151.031 106.847 151.128 107.641 151.252 108.434H151.211L151.225 108.421Z" fill="#231F20"/>
<path d="M160.96 104.575C166.151 105.003 171.378 105.21 176.604 105.238C178.509 105.252 180.415 105.176 182.32 105.141C185.676 105.072 189.031 104.934 192.352 104.603C194.002 104.423 195.666 104.216 197.233 103.822C197.62 103.726 198.006 103.608 198.358 103.477C198.703 103.346 199.056 103.174 199.221 103.015C199.387 102.815 199.594 102.518 199.739 102.152C199.912 101.813 200.036 101.42 200.174 101.04C201.058 98.2717 201.5 95.2754 201.845 92.3619C202.052 90.484 202.19 88.5786 202.183 86.7214C202.183 86.2588 202.162 85.7963 202.114 85.3889C202.086 85.0299 201.921 84.595 201.769 84.2014C201.437 83.4075 200.92 82.6826 200.326 81.9715C199.566 81.1016 199.787 81.0325 200.768 81.4813C201.244 81.716 201.948 82.0819 202.618 82.8068C202.949 83.1658 203.281 83.6077 203.529 84.1324C203.592 84.2636 203.64 84.4017 203.702 84.5397C203.743 84.6985 203.785 84.8711 203.826 85.0368L203.881 85.2923L203.902 85.5132C203.916 85.6651 203.93 85.8101 203.944 85.9619C204.033 88.0469 203.861 89.9939 203.674 91.9684C203.467 93.936 203.184 95.8967 202.798 97.8506C202.597 98.8309 202.39 99.8044 202.1 100.785C201.796 101.779 201.548 102.725 200.823 103.829C200.692 104.078 200.305 104.451 200.036 104.61C199.746 104.796 199.477 104.927 199.207 105.038C198.676 105.252 198.165 105.403 197.661 105.528C196.646 105.776 195.652 105.928 194.658 106.059C189.908 106.625 185.013 106.936 180.18 107.04C174.871 107.129 169.569 107.012 164.273 106.715C161.015 106.529 157.756 106.253 154.504 105.852C153.269 105.7 152.04 105.521 150.804 105.272C150.189 105.148 149.568 105.01 148.954 104.837C148.339 104.658 147.718 104.471 147.09 104.119C146.931 104.037 146.772 103.919 146.613 103.795C146.53 103.719 146.447 103.65 146.378 103.574L146.206 103.332C145.95 103.001 145.84 102.69 145.702 102.38C145.453 101.758 145.274 101.144 145.122 100.529C144.825 99.3004 144.59 98.0784 144.418 96.8495C144.142 94.944 143.948 93.0454 143.845 91.1399C143.769 89.2275 143.72 87.3289 144.1 85.3268C144.266 84.4431 144.59 83.5179 145.094 82.7447C146.04 81.2949 146.951 80.6183 147.6 80.211C148.263 79.8105 148.74 79.7415 149.168 79.7898C149.361 79.8105 149.596 79.8174 149.727 79.8727C149.948 79.9693 149.817 80.2317 149.458 80.6666C149.105 81.1016 148.484 81.6539 147.808 82.434C147.304 83.0071 146.876 83.6284 146.572 84.2843C146.268 84.9333 146.123 85.596 146.033 86.3969C145.847 87.9641 145.868 89.6556 145.95 91.347C146.04 93.0385 146.22 94.7507 146.475 96.4491C146.737 98.1267 147.069 99.8596 147.594 101.309C147.635 101.454 147.697 101.551 147.745 101.662C147.794 101.758 147.849 101.917 147.89 101.965C147.911 101.986 147.925 102.014 147.946 102.034L147.966 102.076V102.096C147.966 102.096 148.063 102.041 147.814 102.276C148.091 102.034 147.966 102.145 148.001 102.124L148.084 102.179C148.381 102.359 148.96 102.594 149.513 102.766C150.666 103.125 151.929 103.388 153.2 103.615C155.747 104.078 158.364 104.326 160.98 104.527V104.575H160.96Z" fill="#231F20"/>
<path d="M163.065 55.9778C164.887 55.9778 166.731 55.8743 168.574 55.7086C169.251 55.6534 169.913 55.5429 170.59 55.4808C172.972 55.2736 175.368 55.0182 177.784 54.8249C178.861 54.7558 179.938 54.604 181.022 54.6109C181.719 54.6109 182.43 54.6109 183.141 54.7282C183.846 54.8594 184.55 55.1632 185.144 55.5912C185.51 55.8743 185.365 55.9364 184.964 55.9502C184.571 55.9295 183.887 56.0952 183.183 56.1781C182.562 56.1643 181.913 56.1781 181.257 56.2402C180.601 56.3092 179.938 56.3645 179.261 56.399C177.894 56.5095 176.527 56.6199 175.147 56.7304C173.476 56.8408 171.771 57.2068 170.058 57.4139C168.181 57.6486 166.282 57.7798 164.377 57.8557C163.203 57.9041 162.029 57.8972 160.855 57.8695C159.074 57.8212 157.286 57.6348 155.533 57.3586C154.172 57.1377 152.812 56.9444 151.466 56.5578C151.169 56.4749 150.879 56.3852 150.589 56.2816C150.044 56.0952 149.719 55.8881 149.526 55.6672C149.333 55.4601 149.278 55.2322 149.284 54.963C149.284 54.8387 149.271 54.7213 149.284 54.6178C149.34 54.3002 149.927 54.1345 150.672 54.3209C152.881 54.9284 155.187 55.4531 157.604 55.6948C159.392 55.8881 161.221 55.964 163.058 55.9226V55.9709L163.065 55.9778Z" fill="#231F20"/>
<path d="M195.908 62.2745C196.571 63.0063 197.192 63.7657 197.793 64.5597C198.097 64.9532 198.387 65.3743 198.67 65.8093L198.884 66.1683L198.987 66.3478C199.022 66.4168 199.07 66.5204 199.105 66.6032C199.291 67.0037 199.284 67.197 199.36 67.48C199.505 68.2395 199.623 68.9575 199.664 69.6824C199.774 72.2162 199.609 74.674 199.464 77.1387C199.409 78.2295 199.36 79.3272 199.305 80.4112C199.236 81.7989 199.291 83.2073 198.787 84.5604C198.628 84.9816 198.497 84.9125 198.249 84.5259C197.993 84.1393 197.538 83.4351 197.51 82.6411C197.538 81.2327 197.565 79.8243 197.62 78.4228C197.703 77.0213 197.807 75.6129 197.917 74.2045C198.055 72.5199 197.917 70.7525 197.738 69.0956C197.717 68.8608 197.683 68.6468 197.648 68.4259C197.62 68.1981 197.579 67.984 197.524 67.7838L197.489 67.625L197.469 67.5491V67.5077L197.455 67.4869C197.538 67.4593 197.275 67.5422 197.634 67.4317H197.614L197.517 67.4593C197.427 67.48 197.448 67.4731 197.448 67.4731L197.434 67.4455L197.413 67.4041L197.379 67.3213C197.261 67.1418 197.172 66.9692 197.034 66.7896C196.523 66.0509 195.901 65.3329 195.287 64.6287C194.514 63.7657 193.713 62.9234 192.871 62.1226C191.586 60.9213 190.24 59.7614 188.776 58.8087C187.651 58.0492 186.415 57.5453 185.2 57.062C184.931 56.9722 184.655 56.8963 184.386 56.7927C183.895 56.5856 183.564 56.4959 183.364 56.3025C183.164 56.1161 183.081 55.8952 183.046 55.5983C183.032 55.4603 182.991 55.3222 182.998 55.191C182.998 54.7768 183.55 54.5282 184.434 54.6732C187.03 55.191 189.405 56.627 191.538 58.2356C193.126 59.4507 194.576 60.8108 195.957 62.2468L195.922 62.2883L195.908 62.2745Z" fill="#231F20"/>
<path d="M173.455 117.175C176.251 117.265 179.047 117.423 181.83 117.624C182.845 117.693 183.866 117.72 184.881 117.81C186.407 117.948 187.926 118.1 189.445 118.266L191.716 118.521L192.848 118.645L193.332 118.694C193.408 118.694 193.511 118.742 193.566 118.666C193.67 118.597 193.711 118.535 193.87 118.342C193.994 118.148 194.126 117.962 194.236 117.741C194.913 116.436 195.306 114.883 195.603 113.378C195.976 111.424 196.086 109.442 196.494 107.468C196.652 106.846 196.756 106.922 197.046 107.461C197.184 107.73 197.44 108.124 197.55 108.6C197.674 109.076 197.771 109.643 197.75 110.243C197.695 111.921 197.398 113.564 197.011 115.214C196.804 116.036 196.57 116.857 196.231 117.679C196.148 117.886 196.059 118.086 195.948 118.293C195.845 118.5 195.748 118.701 195.61 118.908C195.479 119.115 195.368 119.315 195.182 119.529C195.099 119.619 194.975 119.812 194.837 119.916L194.402 120.282C194.029 120.385 193.656 120.509 193.235 120.447C192.938 120.42 192.759 120.392 192.524 120.364L191.191 120.185C188.727 119.84 186.145 119.729 183.611 119.564C180.829 119.37 178.039 119.218 175.25 119.129C173.531 119.073 171.819 119.039 170.1 119.046C167.504 119.053 164.887 119.101 162.319 119.322C160.324 119.488 158.377 119.812 156.437 120.164C156.009 120.247 155.595 120.33 155.16 120.413C154.359 120.544 153.834 120.613 153.441 120.572C153.047 120.509 152.805 120.351 152.585 120.137C152.488 120.04 152.364 119.957 152.301 119.874C152.198 119.729 152.301 119.564 152.557 119.329C152.819 119.087 153.254 118.846 153.848 118.701C157.355 117.796 161.152 117.396 164.95 117.223C167.773 117.092 170.611 117.092 173.434 117.14V117.189L173.455 117.175Z" fill="#231F20"/>
<path d="M160.758 63.2273C161.711 63.2411 162.671 63.2273 163.651 63.2135C164.003 63.2066 164.362 63.1513 164.721 63.1513C165.985 63.172 167.269 63.1858 168.546 63.393C169.112 63.4551 169.678 63.5587 170.238 63.6277C170.597 63.7105 170.963 63.7451 171.308 63.8555C171.653 63.9936 171.964 64.2422 172.26 64.47C172.44 64.6219 172.405 64.6288 172.185 64.7116C172.074 64.753 171.915 64.8152 171.722 64.9118C171.529 65.0154 171.322 65.0982 171.128 65.0982C171.045 65.0982 170.949 65.119 170.866 65.1259L170.61 65.0982L170.113 65.043C169.782 65.0016 169.437 65.0016 169.105 64.9671C168.774 64.9256 168.422 64.9395 168.084 64.9049C167.745 64.8773 167.393 64.829 167.041 64.7807C166.199 64.6564 165.315 64.8014 164.438 64.8428L161.511 64.974C160.903 64.9947 160.296 65.0085 159.681 65.0085C158.756 65.0154 157.817 64.9325 156.892 64.8911C156.533 64.8566 156.167 64.8428 155.808 64.8428C155.442 64.829 155.077 64.7876 154.711 64.753C154.545 64.7392 154.386 64.7323 154.227 64.684C153.634 64.5252 153.489 64.3457 153.537 63.8624C153.551 63.752 153.551 63.6415 153.571 63.531C153.654 63.172 153.979 62.958 154.372 62.9718C155.553 63.0132 156.706 63.1513 157.949 63.1789C158.404 63.1997 158.874 63.1927 159.336 63.2066C159.806 63.1927 160.275 63.2066 160.758 63.1928V63.2342V63.2273Z" fill="#231F20"/>
<path d="M162.202 69.2818C162.907 69.3025 163.618 69.3163 164.336 69.3094C164.598 69.3094 164.854 69.261 165.116 69.268C166.048 69.3163 166.987 69.3646 167.912 69.4198C168.326 69.4405 168.74 69.4405 169.155 69.4336C169.686 69.4129 170.218 69.4613 170.736 69.6339C170.895 69.6891 170.853 69.8824 170.701 70.0895C170.549 70.2966 170.28 70.5383 169.99 70.5797C169.472 70.6764 168.961 70.6418 168.437 70.6626C167.919 70.6626 167.394 70.6556 166.863 70.6142C166.227 70.559 165.572 70.704 164.916 70.7247C164.198 70.7454 163.473 70.7592 162.741 70.7661H161.395C160.711 70.7661 160.028 70.7109 159.344 70.7109C158.813 70.6971 158.288 70.7799 157.749 70.7592C157.632 70.7592 157.515 70.7661 157.397 70.7523C156.962 70.6902 156.838 70.5659 156.824 70.1724C156.824 70.0826 156.81 69.9929 156.817 69.9031C156.838 69.6062 157.052 69.3922 157.356 69.337C158.267 69.1644 159.165 69.1989 160.097 69.2196C160.787 69.2334 161.491 69.261 162.196 69.2541V69.2887L162.202 69.2818Z" fill="#231F20"/>
<path d="M185.324 66.5551C185.255 67.3146 185.165 68.074 185.062 68.8196L185.021 69.1027V69.1717L185.007 69.1855V69.2131L184.958 69.3236C184.938 69.4065 184.903 69.5031 184.889 69.6067C184.882 69.6481 184.91 69.6481 184.931 69.6343L185 69.6136C185.048 69.5998 185.096 69.5791 185.138 69.5722C185.172 69.5652 185.207 69.5583 185.241 69.5583C185.269 69.5583 185.304 69.5583 185.324 69.5583L185.704 69.51C185.953 69.4755 186.208 69.4479 186.457 69.4341C186.961 69.3857 187.458 69.3788 187.955 69.365C188.949 69.365 189.943 69.4134 190.923 69.5652C191.793 69.6826 192.663 69.8069 193.519 69.9726C194.603 70.2142 195.722 70.5801 196.564 71.3948C196.826 71.6502 196.757 71.6571 196.419 71.7124C196.246 71.74 196.005 71.8021 195.735 71.8574C195.597 71.8919 195.452 71.9195 195.301 71.9471C195.225 71.9609 195.156 71.9609 195.073 71.9885L194.852 71.9747C194.334 71.9126 193.809 71.8919 193.291 71.8574C192.787 71.7676 192.277 71.7055 191.759 71.6433C190.723 71.5398 189.688 71.4293 188.638 71.3258C188.031 71.2705 187.409 71.2912 186.795 71.3672C186.484 71.4017 186.18 71.45 185.877 71.5122C185.78 71.526 185.442 71.5881 185.186 71.664L184.378 71.8643L184.102 71.9195C183.874 71.9057 183.688 71.8505 183.481 71.8228L183.177 71.7745C183.067 71.7193 183.039 71.6088 182.991 71.526C182.908 71.3465 182.846 71.1324 182.825 70.8701C182.804 70.6077 182.832 70.304 182.873 70.0002L183.205 67.4043C183.301 66.5068 183.384 65.6024 183.412 64.698C183.46 63.331 183.467 61.9502 183.301 60.597C183.177 59.5476 182.88 58.5465 182.618 57.5386C182.57 57.3176 182.507 57.1036 182.466 56.8758C182.39 56.4546 182.362 56.1716 182.418 55.9575C182.487 55.7366 182.597 55.5916 182.777 55.4467C182.86 55.3845 182.936 55.3017 183.011 55.2602C183.143 55.1843 183.295 55.2119 183.467 55.3293C183.64 55.4536 183.854 55.6607 183.992 55.9645C184.213 56.4132 184.427 56.8758 184.613 57.3521C184.765 57.8354 184.889 58.3325 184.993 58.8365C185.2 59.8445 185.324 60.8801 185.4 61.9226C185.504 63.4691 185.462 65.0224 185.366 66.562H185.317L185.324 66.5551Z" fill="#231F20"/>
<path d="M150.583 66.4653C150.466 68.0049 150.342 69.5307 150.273 71.0564C150.245 71.6157 150.273 72.168 150.252 72.7272C150.162 74.6879 150.149 76.6417 150.231 78.6094C150.266 79.4793 150.349 80.3492 150.48 81.2052C150.659 82.303 150.811 83.4007 150.639 84.5606C150.583 84.9196 150.487 84.892 150.224 84.6365C150.052 84.4639 149.865 84.2775 149.693 84.1049C149.493 83.8771 149.32 83.6009 149.196 83.2902C149.106 83.0141 148.947 82.7379 148.913 82.4549L148.782 81.5919C148.706 81.0188 148.609 80.4389 148.567 79.859C148.519 79.279 148.471 78.6991 148.457 78.1123C148.457 77.5254 148.478 76.9386 148.498 76.3518C148.574 74.9503 148.464 73.5004 148.498 72.0782C148.554 70.5179 148.637 68.9576 148.747 67.4042C148.809 66.4515 148.878 65.4987 148.927 64.546C149.009 63.1031 149.078 61.667 149.044 60.2379C149.009 59.1333 148.83 58.0563 148.692 56.9793C148.664 56.7445 148.637 56.5098 148.609 56.2682C148.574 55.8263 148.574 55.5294 148.65 55.3085C148.733 55.0945 148.864 54.9564 149.051 54.839C149.134 54.7838 149.216 54.7148 149.299 54.6802C149.437 54.6181 149.575 54.6802 149.727 54.8252C149.872 54.9771 150.038 55.2188 150.128 55.5501C150.273 56.0403 150.418 56.5374 150.521 57.0483C150.597 57.5592 150.68 58.077 150.715 58.6017C150.811 59.6511 150.832 60.7074 150.825 61.7706C150.804 63.3378 150.715 64.9119 150.632 66.4584H150.59L150.583 66.4653Z" fill="#231F20"/>
<path d="M168.071 84.443C170.798 84.7261 173.518 85.0092 176.238 85.237C177.232 85.3198 178.226 85.3475 179.221 85.4234C182.721 85.6996 186.221 85.9274 189.721 85.9412C191.275 85.9481 192.835 85.8929 194.368 85.7686C195.355 85.6927 196.335 85.5684 197.316 85.4579C198.296 85.3682 199.277 85.2853 200.291 85.3336C200.623 85.4234 200.768 85.4717 200.768 85.5201C200.768 85.5684 200.63 85.6305 200.402 85.8514C200.174 86.0724 199.836 86.3002 199.415 86.5764C198.993 86.8249 198.476 87.032 197.903 87.1839C195.852 87.5291 193.781 87.6948 191.717 87.7776C189.652 87.8605 187.588 87.75 185.524 87.5981C183.059 87.4048 180.491 87.3841 177.978 87.2046C175.216 87.0113 172.462 86.749 169.707 86.4866C168.015 86.3209 166.324 86.1621 164.632 85.9964C162.071 85.7617 159.503 85.5062 156.955 85.3889C154.981 85.2991 153.034 85.3544 151.115 85.4786C150.693 85.4993 150.286 85.5684 149.858 85.5891C148.305 85.7341 147.863 85.6927 147.414 85.2853C147.31 85.1887 147.186 85.1058 147.11 85.0092C146.986 84.8435 147.055 84.6502 147.331 84.4361C147.607 84.2152 148.07 84.015 148.691 83.87C150.507 83.5179 152.357 83.4351 154.214 83.4351C156.072 83.4351 157.936 83.5455 159.8 83.6698C162.561 83.8631 165.323 84.1462 168.078 84.3878V84.4361L168.071 84.443Z" fill="#231F20"/>
<path d="M196.881 52.1529C196.984 52.2634 196.874 52.4153 196.646 52.5879C196.577 52.6431 196.335 52.7122 196.287 52.6845C196.197 52.6293 196.108 52.581 196.032 52.5188C195.99 52.4843 195.604 51.8077 195.452 51.5868C195.307 51.3728 195.203 51.145 195.113 50.9102L194.616 49.4742C194.582 49.3706 194.561 49.2533 194.554 49.1428C194.54 48.7493 194.43 48.3765 194.285 48.0175C194.257 47.9553 194.25 47.8932 194.174 47.8518C194.057 47.7827 193.733 46.7817 193.733 46.6436C193.74 46.2915 193.712 45.9532 193.698 45.608C193.698 45.5597 193.657 45.5182 193.719 45.4561C193.85 45.318 193.795 45.2214 193.774 45.1247C193.746 44.9797 193.733 44.8347 193.753 44.6829C193.76 44.6069 193.836 44.5172 193.898 44.4274C193.947 44.3515 194.202 44.3169 194.23 44.3308C194.326 44.3722 194.423 44.2893 194.52 44.2617C194.554 44.2479 194.596 44.2341 194.623 44.2341C194.692 44.2203 195.355 44.8969 195.362 44.9866C195.362 44.9935 195.472 45.2835 195.59 45.5804C195.707 45.8772 195.825 46.1948 195.859 46.257C195.894 46.3191 195.873 46.4019 195.866 46.4779C195.866 46.5124 196.232 47.403 196.232 47.4444C196.266 47.6446 196.37 47.8172 196.287 48.0451C196.273 48.0934 196.287 48.1279 196.301 48.1624C196.404 48.4869 196.439 48.8321 196.494 49.1704C196.522 49.343 196.584 49.5087 196.625 49.6744C196.632 49.702 196.625 49.7435 196.625 49.7711C196.625 49.8125 196.618 49.8539 196.625 49.8953C196.75 50.2889 196.763 50.7169 196.895 51.1104C196.922 51.2002 196.888 51.6835 196.929 51.787C196.95 51.8423 196.819 52.0977 196.86 52.1391L196.881 52.1529Z" fill="#231F20"/>
<path d="M203.418 56.0814C203.349 56.2194 203.149 56.1987 202.921 56.1504C202.845 56.1366 202.7 56.0054 202.707 55.9502C202.707 55.8397 202.707 55.7293 202.721 55.6188C202.707 55.5429 203.094 54.7282 203.232 54.4382C203.37 54.169 203.556 53.9411 203.75 53.7271C204.136 53.2784 204.592 52.8917 205.062 52.5258C205.165 52.443 205.282 52.3808 205.407 52.3325C205.842 52.1737 206.221 51.939 206.587 51.6766C206.649 51.6352 206.718 51.6076 206.753 51.5109C206.794 51.3383 207.892 50.7653 208.065 50.7515C208.479 50.7032 208.873 50.6341 209.273 50.6065C209.328 50.6065 209.376 50.5582 209.452 50.6203C209.625 50.7722 209.729 50.7032 209.846 50.6756C210.005 50.641 210.177 50.6272 210.35 50.648C210.44 50.6549 210.543 50.7446 210.64 50.8136C210.73 50.8758 210.764 51.1727 210.75 51.2072C210.702 51.3176 210.799 51.435 210.833 51.5524C210.847 51.5938 210.861 51.6421 210.868 51.6766C210.868 51.7526 210.191 52.4637 210.108 52.4913C210.081 52.4913 208.983 53.0436 208.879 53.1334C208.824 53.1817 208.734 53.1679 208.658 53.1679C208.617 53.161 207.802 53.7133 207.775 53.7271C207.581 53.7962 207.443 53.9549 207.188 53.9135C207.14 53.9066 207.105 53.9342 207.071 53.9549C206.781 54.1552 206.456 54.2863 206.139 54.452C205.98 54.5349 205.849 54.6592 205.697 54.7627C205.669 54.7834 205.628 54.7834 205.6 54.7903C205.559 54.8041 205.517 54.8179 205.483 54.8387C205.144 55.101 204.737 55.2874 204.447 55.605C204.371 55.6671 203.881 55.8535 203.805 55.9433C203.757 55.9916 203.453 55.9985 203.432 56.0607L203.418 56.0814Z" fill="#231F20"/>
<path d="M185.965 114.731C185.571 114.689 185.177 114.62 184.784 114.551C184.639 114.531 184.494 114.531 184.356 114.503C183.852 114.399 183.355 114.296 182.865 114.172C182.644 114.116 182.423 114.075 182.209 114.034C181.926 113.985 181.65 113.937 181.38 113.826C181.297 113.792 181.318 113.723 181.408 113.647C181.498 113.571 181.65 113.481 181.808 113.474C182.388 113.467 182.961 113.391 183.521 113.55C183.859 113.633 184.218 113.599 184.563 113.619C184.943 113.64 185.329 113.668 185.716 113.688C185.951 113.702 186.192 113.723 186.427 113.723C186.786 113.73 187.152 113.751 187.504 113.709C187.78 113.681 188.05 113.578 188.312 113.502C188.374 113.488 188.429 113.461 188.484 113.447C188.705 113.405 188.781 113.474 188.864 113.778C188.885 113.847 188.906 113.916 188.919 113.985C188.968 114.227 188.892 114.427 188.726 114.51C188.243 114.752 187.704 114.8 187.166 114.807C186.765 114.807 186.365 114.779 185.965 114.758V114.731Z" fill="#231F20"/>
<rect x="217.761" y="119.196" width="52.7389" height="52.7389" fill="white" stroke="#E5E5E5"/>
<rect x="222.037" y="123.473" width="44.1853" height="44.1853" fill="#FF414C"/>
<path d="M247.638 148.119L251.304 153.485H251.345L251.866 154.418H244.634L241.017 148.119H247.638Z" fill="white"/>
<path d="M251.864 154.419L255.476 148.12L248.246 135.52H241.017L251.864 154.419Z" fill="white"/>
<path d="M237.402 141.817H244.631L237.405 154.417L233.787 148.118L237.402 141.817Z" fill="white"/>
<rect x="0.5" y="0.5" width="382.333" height="199" rx="5.5" stroke="black" stroke-opacity="0.1"/>
</svg>
