<svg width="384" height="200" viewBox="0 0 384 200" fill="none" xmlns="http://www.w3.org/2000/svg">
<rect x="0.333008" width="383.333" height="200" rx="6" fill="#F8F8F8"/>
<rect x="119.38" y="32.8897" width="145.24" height="134.221" fill="white" stroke="#C7C7C7" stroke-width="0.760417"/>
<rect x="125.582" y="39.2169" width="132.843" height="121.824" fill="#FFEAEB" stroke="#D9D9D9" stroke-width="0.760417"/>
<path d="M227.65 81.8364C227.253 80.2518 226.445 78.8 225.308 77.6275C224.171 76.455 222.744 75.6034 221.172 75.1587C215.43 73.7563 192.458 73.7563 192.458 73.7563C192.458 73.7563 169.487 73.7563 163.744 75.2922C162.172 75.7369 160.745 76.5885 159.608 77.761C158.471 78.9335 157.663 80.3854 157.266 81.97C156.215 87.7982 155.701 93.7105 155.73 99.6326C155.693 105.599 156.207 111.557 157.266 117.429C157.704 118.964 158.529 120.361 159.664 121.484C160.799 122.607 162.204 123.418 163.744 123.84C169.487 125.375 192.458 125.375 192.458 125.375C192.458 125.375 215.43 125.375 221.172 123.84C222.744 123.395 224.171 122.543 225.308 121.371C226.445 120.198 227.253 118.746 227.65 117.162C228.693 111.377 229.207 105.51 229.186 99.6326C229.223 93.6659 228.709 87.7085 227.65 81.8364Z" fill="black"/>
<path d="M184.945 108.572C184.945 109.455 185.898 110.009 186.665 109.573L202.384 100.633C203.16 100.192 203.16 99.0735 202.384 98.6321L186.665 89.6928C185.898 89.2564 184.945 89.8106 184.945 90.6934V108.572Z" fill="#EFEFEF"/>
<rect x="0.833008" y="0.5" width="382.333" height="199" rx="5.5" stroke="black" stroke-opacity="0.1"/>
</svg>
