<svg width="384" height="200" viewBox="0 0 384 200" fill="none" xmlns="http://www.w3.org/2000/svg">
<rect x="0.666992" width="383.333" height="200" rx="6" fill="#F8F8F8"/>
<rect x="173.932" y="48.4158" width="115.818" height="116.11" fill="white" stroke="#C7C7C7" stroke-width="0.5"/>
<rect x="178.381" y="62.6953" width="106.916" height="97.0715" fill="white" stroke="#D9D9D9" stroke-width="0.5"/>
<rect x="178.381" y="52.5791" width="106.916" height="4.55706" fill="white" stroke="#D9D9D9" stroke-width="0.5"/>
<rect x="147.737" y="44.1802" width="115.818" height="116.11" fill="white" stroke="#C7C7C7" stroke-width="0.5"/>
<rect x="152.187" y="58.4597" width="106.916" height="97.0715" fill="white" stroke="#D9D9D9" stroke-width="0.5"/>
<rect x="152.187" y="48.3435" width="106.916" height="4.55706" fill="white" stroke="#D9D9D9" stroke-width="0.5"/>
<rect x="121.544" y="39.9446" width="115.818" height="116.11" fill="white" stroke="#C7C7C7" stroke-width="0.5"/>
<rect x="125.993" y="54.2239" width="106.916" height="97.0715" fill="white" stroke="#D9D9D9" stroke-width="0.5"/>
<rect x="125.993" y="44.1079" width="106.916" height="4.55706" fill="white" stroke="#D9D9D9" stroke-width="0.5"/>
<rect x="93.7881" y="35.6541" width="115.818" height="116.11" fill="white" stroke="#C7C7C7" stroke-width="0.5"/>
<rect x="98.2373" y="49.9336" width="106.916" height="97.0715" fill="white" stroke="#D9D9D9" stroke-width="0.5"/>
<g style="mix-blend-mode:multiply">
<path d="M156.579 103.042L163.463 111.75L164.319 113.816H151.969L145.791 103.042L156.579 103.042Z" fill="black"/>
<path d="M164.316 113.818L170.484 103.043L158.138 81.4888H145.791L164.316 113.818Z" fill="black"/>
<path d="M139.619 92.2607H151.965L139.624 113.815L133.445 103.041L139.619 92.2607Z" fill="black"/>
<path fill-rule="evenodd" clip-rule="evenodd" d="M156.107 67.9511L156.485 65.8811L155.291 62.3726L156.319 62.5603L157.005 64.6614C157.055 64.8119 157.084 64.9317 157.116 65.0635L157.116 65.0636L157.121 65.0836C157.155 65.0381 157.183 64.998 157.211 64.9569L157.211 64.9568L157.211 64.9567L157.211 64.9566L157.211 64.9566L157.211 64.9565L157.211 64.9564L157.211 64.9563L157.212 64.9562C157.256 64.8916 157.302 64.8245 157.379 64.7296L158.756 63.0055L159.755 63.188L157.405 66.0491L157.027 68.1192L156.107 67.9511ZM147.126 68.1209L149.284 67.9831C150.385 67.9128 150.985 67.34 150.927 66.4285C150.888 65.8087 150.576 65.4039 150.003 65.2575C150.493 65.0139 150.728 64.5742 150.691 63.9836C150.634 63.094 149.957 62.588 148.907 62.6551L146.785 62.7906L147.126 68.1209ZM148.88 63.4842C149.405 63.4507 149.712 63.68 149.741 64.1394C149.772 64.6133 149.504 64.9013 148.994 64.9339L147.864 65.006L147.771 63.555L148.88 63.4842ZM149.103 65.7177C149.62 65.6846 149.936 65.9207 149.965 66.3728C149.995 66.8541 149.72 67.1279 149.195 67.1614L148.006 67.2373L147.914 65.7936L149.103 65.7177ZM137.612 68.6886C138.34 70.081 137.898 71.5399 136.525 72.2571L134.822 73.1469L132.349 68.4127L134.007 67.5466C135.406 66.8159 136.875 67.2768 137.612 68.6886ZM136.738 69.1453C136.214 68.1415 135.306 67.8406 134.328 68.3514L133.577 68.7439L135.252 71.9496L136.048 71.5335C136.994 71.0396 137.252 70.1297 136.738 69.1453ZM131.766 75.8554L131.19 75.214L129.418 76.8057L128.47 75.7512L130.058 74.3255L129.506 73.7112L127.919 75.137L127.001 74.1151L128.773 72.5233L128.197 71.8819L125.729 74.0987L129.298 78.0721L131.766 75.8554ZM123.653 82.6396L125.304 83.7591L124.779 84.5332L120.358 81.5355L121.502 79.8483C122.183 78.8444 123.089 78.6023 123.959 79.1928C124.552 79.5947 124.787 80.1599 124.646 80.8235L127.03 81.2131L126.456 82.0598L124.296 81.6902L123.653 82.6396ZM122.192 80.3158L121.572 81.229L122.969 82.1762L123.588 81.2631C123.921 80.7732 123.857 80.3066 123.41 80.0032C122.968 79.7038 122.524 79.8259 122.192 80.3158ZM123.372 88.2504L122.562 87.9532L121.741 90.1893L120.411 89.7009L121.146 87.698L120.371 87.4135L119.636 89.4163L118.346 88.943L119.167 86.7069L118.358 86.4098L117.214 89.5238L122.229 91.3644L123.372 88.2504ZM121.323 99.6805L121.257 100.599L115.815 101.805L115.885 100.836L118.759 100.193C119.056 100.133 119.361 100.075 119.833 100.028C119.365 99.9064 119.094 99.8064 118.795 99.6897L116.042 98.6498L116.115 97.6222L118.988 97.0004C119.293 96.9344 119.605 96.8762 120.063 96.8211C119.574 96.6836 119.295 96.5903 119.032 96.4908L116.273 95.4285L116.341 94.4811L121.552 96.4811L121.487 97.3848L117.529 98.2437L121.323 99.6805ZM119.449 105.859C117.861 106.226 116.998 107.52 117.342 109.008C117.685 110.496 119.034 111.272 120.615 110.907C122.203 110.54 123.069 109.26 122.726 107.772C122.38 106.277 121.03 105.494 119.449 105.859ZM119.671 106.82C120.767 106.567 121.628 107.013 121.848 107.967C122.069 108.921 121.505 109.696 120.395 109.953C119.284 110.209 118.438 109.76 118.217 108.806C117.997 107.852 118.56 107.077 119.671 106.82ZM124.056 115.663C123.559 114.719 122.592 114.436 121.68 114.917C120.756 115.404 120.459 116.345 120.96 117.295L121.945 119.163L126.67 116.672L126.234 115.845L124.605 116.703L124.056 115.663ZM121.782 117.068C121.493 116.519 121.614 116.059 122.131 115.786C122.648 115.513 123.112 115.657 123.411 116.226L123.868 117.092L122.246 117.947L121.782 117.068ZM168.951 71.8623L170.044 71.1431L171.629 72.3545L171.221 73.5974L172.005 74.1964L173.716 68.7816L172.956 68.2003L168.179 71.272L168.951 71.8623ZM172.273 69.6832C172.402 69.5982 172.535 69.4971 172.614 69.4291C172.56 69.5233 172.504 69.6779 172.456 69.813L172.456 69.8131L172.453 69.8208L171.893 71.5634L170.744 70.6848L172.273 69.6832ZM178.967 73.0886L179.546 73.8231L177.342 75.5598L180.884 75.5218L181.567 76.3883L178.682 76.4106L177.386 79.7116L176.716 78.8623L177.683 76.417L176.246 76.4237L175.351 77.1292L174.772 76.3947L178.967 73.0886ZM179.77 83.0588L181.073 82.9539L181.88 84.7784L180.925 85.6719L181.323 86.5741L185.429 82.6505L185.042 81.7751L179.377 82.17L179.77 83.0588ZM183.73 82.7464C183.884 82.7342 184.049 82.7093 184.151 82.688C184.059 82.7446 183.935 82.8533 183.827 82.9483L183.821 82.9536L182.492 84.2121L181.907 82.8889L183.73 82.7464ZM185.147 90.5939C185.186 89.6674 185.615 89.1105 186.422 88.9702C187.343 88.8097 188.117 89.4612 188.31 90.5697C188.495 91.6351 188.023 92.4145 187.078 92.6088L186.917 91.6874C187.367 91.5868 187.577 91.2165 187.487 90.6982C187.387 90.1296 187.05 89.8101 186.611 89.8865C186.237 89.9517 186.063 90.1896 186.039 90.6463L186.003 91.5054C185.965 92.4391 185.581 92.9584 184.796 93.095C183.817 93.2655 183.051 92.6128 182.849 91.4538C182.654 90.3309 183.123 89.4926 184.062 89.3068L184.223 90.2282C183.778 90.3131 183.574 90.7194 183.677 91.3097C183.784 91.9215 184.118 92.2639 184.557 92.1874C184.909 92.126 185.087 91.9097 185.105 91.4615L185.147 90.5939ZM183.847 98.0316L186.106 98.1977L185.932 100.559L183.673 100.393L183.604 101.325L188.931 101.717L189 100.784L186.799 100.622L186.973 98.2615L189.173 98.4233L189.242 97.4906L183.915 97.0988L183.847 98.0316ZM184.597 112.84L181.28 111.018L181.723 110.211L186.405 112.783L185.958 113.596L181.434 113.97L184.751 115.792L184.308 116.599L179.627 114.027L180.07 113.221L184.597 112.84ZM175.15 120.063L175.777 120.655L177.412 118.922L178.443 119.894L176.979 121.446L177.58 122.013L179.044 120.461L180.043 121.403L178.409 123.136L179.036 123.728L181.312 121.314L177.426 117.65L175.15 120.063ZM173.893 127.244L175.202 126.389L175.673 127.111L172.271 129.331L171.8 128.609L173.109 127.755L170.662 124.003L171.445 123.492L173.893 127.244ZM165.34 127.274L164.46 127.546L164.497 131.603L162.261 128.225L161.395 128.493L161.422 134.075L162.329 133.794L162.319 130.838C162.316 130.556 162.301 130.262 162.252 129.757C162.47 130.164 162.637 130.434 162.81 130.694L164.431 133.145L165.415 132.841L165.386 129.898C165.386 129.577 165.381 129.288 165.324 128.808C165.539 129.232 165.704 129.494 165.867 129.75L167.51 132.194L168.438 131.907L165.34 127.274ZM154.215 135.223C152.688 135.224 151.621 134.092 151.62 132.463C151.619 130.841 152.685 129.7 154.22 129.699C155.747 129.699 156.8 130.831 156.8 132.46C156.801 134.082 155.742 135.222 154.215 135.223ZM154.213 130.598C153.234 130.599 152.606 131.337 152.606 132.462C152.607 133.602 153.236 134.325 154.215 134.325C155.194 134.324 155.822 133.6 155.821 132.461C155.821 131.321 155.192 130.598 154.213 130.598ZM146.988 129.421L146.466 131.346L145.359 131.046L145.007 128.883L144.019 128.616L144.426 130.997C143.753 131.08 143.294 131.485 143.107 132.176C142.832 133.192 143.355 133.97 144.526 134.287L146.493 134.82L147.891 129.665L146.988 129.421ZM145.809 133.772L144.744 133.483C144.173 133.328 143.913 132.947 144.052 132.433C144.194 131.911 144.614 131.699 145.186 131.854L146.25 132.143L145.809 133.772ZM137.746 132.211L136.932 131.752L138.311 129.308L135.049 130.688L134.088 130.146L136.748 129.03L136.695 125.484L137.636 126.016L137.671 128.645L138.997 128.093L139.558 127.1L140.372 127.56L137.746 132.211Z" fill="black"/>
</g>
<rect x="98.2373" y="39.8174" width="106.916" height="4.55706" fill="white" stroke="#D9D9D9" stroke-width="0.5"/>
<rect x="1.16699" y="0.5" width="382.333" height="199" rx="5.5" stroke="black" stroke-opacity="0.1"/>
</svg>
