<?xml version="1.0" encoding="utf-8"?>
<!-- Generator: Adobe Illustrator 26.5.0, SVG Export Plug-In . SVG Version: 6.00 Build 0)  -->
<svg version="1.1" id="Layer_1" class="landing-svg" xmlns="http://www.w3.org/2000/svg" xmlns:xlink="http://www.w3.org/1999/xlink" x="0px" y="0px"
	 viewBox="0 0 171.7 490.2" style="enable-background:new 0 0 171.7 490.2;" xml:space="preserve">
<style type="text/css">
	.st0{fill:#c74249;}
</style>
<g id="CIRCLE">
	<circle class="st0" cx="111.6" cy="60.6" r="60.1"/>
</g>
<g id="DRAW">
	<path d="M95.1,273.2c0.1,1,0,1.9,0.2,2.9c0,0.2,0,0.3,0,0.5c0.1,1,0.2,1.9,0.1,2.9c-0.3,1.2-0.4,2.4-0.3,3.6c0,0.2,0,0.4,0,0.7
		c0,0.1-0.1,0.2-0.2,0.3c-0.2,0.1-0.2-0.1-0.2-0.2c0-0.7-0.2-1.3-0.2-2c0-1-0.2-2-0.4-3c-0.1-0.3-0.1-0.7-0.1-1
		c0.1-0.7,0.1-1.4,0.1-2.1c-0.1-0.5-0.3-1-0.5-1.5c-0.1-0.2-0.2-0.3-0.1-0.5c0.2-0.4,0-0.8-0.1-1.1c-0.5-1.2-0.9-2.5-1.2-3.8
		c-0.2-0.9-0.5-1.7-0.8-2.5c-0.2-0.4-0.3-0.8-0.4-1.3c0-0.4-0.2-0.9-0.5-1.2c-0.6-0.7-1.2-1.5-1.8-2.3c-0.2-0.3-0.5-0.5-0.4-0.9
		c0-0.3-0.1-0.6-0.2-0.9c-0.1-0.4-0.2-0.8-0.3-1.3c0-0.5,0.5-0.7,0.8-1.1c0.1-0.1,0.1-0.2,0-0.4c-0.4-0.6-0.6-1.4-1.3-1.8
		c-0.4-0.5-0.9-1-1.5-1.3c-0.4-0.2-0.8-0.4-1.2-0.6c-0.4-0.2-0.8-0.4-1.2-0.4c-0.2,0-0.4-0.1-0.6-0.2c-0.4-0.2-0.8-0.3-1.3-0.4
		c-0.5,0-0.8-0.3-1.3-0.1c-0.1,0-0.3-0.1-0.5-0.1c-0.2,0-0.3,0-0.5,0c-0.2,0.1-0.5,0.4-0.7,0.3c-0.3-0.1-0.6-0.3-0.9-0.5
		c-0.1-0.1-0.3-0.1-0.4-0.1c-0.2,0.1-0.4,0.3-0.7,0.3s-0.4-0.2-0.6-0.2c0,0-0.2,0.1-0.2,0.2c0.2,0.5,0.5,1,0.9,1.4
		c0.1,0.1,0.4,0.1,0.5,0.2c0.5,0.8,1.4,1.4,1.8,2.2s0.8,1.5,1.1,2.3c0.1,0.3,0.3,0.6,0.6,0.9c0.2,0.1,0.2,0.4-0.1,0.5
		s-0.4,0.1-0.5-0.1c-0.1-0.2-0.2-0.3-0.3-0.4c-0.2-0.1-0.4-0.1-0.7,0c-0.1,0-0.2,0.3-0.1,0.5s-0.1,0.3-0.2,0.2
		c-0.2-0.1-0.4-0.2-0.5-0.4c-0.2-0.2-0.4-0.5-0.6-0.5c-1.1-0.1-1.2-1.1-1.7-1.7c-0.1-0.7-0.6-1.3-1.2-1.7c-0.1-0.1-0.2-0.3-0.2-0.4
		c0-0.4-0.1-0.8-0.3-1.1c-0.3-0.4-0.5-0.8-0.8-1.2c-0.2-0.4-0.2-0.9-0.4-1.3c-0.2-0.6-0.5-0.8-1.1-0.6c-0.3,0.1-0.7,0.1-1,0
		c-0.2,0-0.4,0-0.6,0.1c-0.2,0.1-0.5,0.1-0.8,0c-0.1-0.1-0.4-0.1-0.5,0c-0.4,0.5-0.9,0.2-1.3,0.1c-0.3-0.1-0.6-0.2-0.9-0.3
		c-0.2-0.1-0.4-0.1-0.5,0c-0.4,0.2-0.8,0.4-1.2,0.6c-0.4-0.3-0.9,0-1.3,0c-0.3,0-0.6,0.1-0.8,0.2c-0.8,0.2-1.6,0.4-2.5,0.5l-2.1,0.4
		c-0.2,0-0.3,0.2-0.3,0.4c-0.1,0.2-0.2,0.3-0.4,0.2c-0.5-0.4-1-0.1-1.2,0.3c-0.2,0.3-0.5,0.4-0.9,0.4c-0.8,0-1.4,0.6-2.1,0.9
		c-0.1,0-0.2,0.3-0.2,0.5s-0.1,0.3-0.3,0.3c-0.1,0-0.3-0.1-0.4-0.1c-0.4-0.2-0.9-0.1-1.3,0.2c-0.4,0.2-0.6,0.7-1.1,0.7
		c-0.1,0-0.3,0.3-0.2,0.4c0.1,0.7,0,1.4-0.4,1.9c-0.1,0.1-0.1,0.3,0,0.4c0.1,0.7,0.1,1.4-0.1,2.1c0,0.2-0.1,0.4,0,0.5
		c0.4,0.5,0.1,1,0,1.5c-0.1,0.6-0.1,1.2,0,1.7c0,0.2,0,0.4,0,0.5c0,0.1-0.1,0.2-0.2,0.3s-0.2,0-0.2,0s-0.3-0.2-0.4-0.4
		c-0.3-0.9-0.6-1.8-0.9-2.7c0-0.2,0-0.3,0-0.5c0.1-0.7,0.2-1.5,0.3-2.2c0.1-0.8,0.3-1.6,0.5-2.3c0.1-0.3,0.1-0.3-0.3-0.3
		s-0.9-0.1-1,0.2s-0.6,0.4-0.9,0.5c-0.5,0.1-1,0.3-1.4,0.7c-0.3,0.4-0.6,0.8-1.3,0.3c-0.3-0.2-0.8,0.1-1,0.6
		c-0.1,0.2-0.1,0.3-0.3,0.4c-0.4,0.1-0.8,0.2-1.2,0.3c-0.8,0.1-1.6,0.5-2.2,1.1c-0.4,0.4-1.1,0.5-1.3,1.1c0,0.1-0.2,0.1-0.4,0.1
		c-0.4,0-0.7,0.1-0.9,0.5c-0.3,0.5-0.8,0.6-1.3,0.8c-0.5,0.2-0.9,0.4-1.3,0.6c-0.4,0.2-0.7,0.5-0.4,1.1c0.1,0.2,0,0.5-0.1,0.6
		c-0.7,0.6-0.9,1.5-1.5,2c-0.2,0.2-0.3,0.5-0.4,0.9c-0.1,0.4-0.1,0.8-0.2,1.2s-0.5,0.7-0.3,1.1c0,0.1,0,0.3-0.1,0.4
		c-0.5,0.5-0.8,1.2-1,1.9c-0.3,0.6-0.4,1.4-0.7,2c-0.2,0.6-0.3,1.2-0.3,1.8c0,0.2-0.1,0.4-0.3,0.3s-0.4,0-0.5-0.1
		c-0.4-0.5-0.6-1.2-0.5-1.8c0.2-0.8,0.5-1.6,0.8-2.4c0.3-0.5,0.5-1.1,0.7-1.7c0-0.6,0.5-1,0.5-1.7c0-0.1,0.1-0.2,0.1-0.4
		c0.3-0.4,0.8-0.8,0.6-1.4c0.3-0.2,0.5-0.4,0.5-0.7c0-0.1,0-0.2-0.1-0.2c0,0-0.2,0-0.2,0c-0.4,0.5-1.2,0.4-1.4,1.2
		c0,0,0,0.1-0.1,0.1c-0.5,0.1-1,0.4-1.3,0.8c-0.3,0.3-0.7,0.7-1,1c-0.1,0.1-0.3,0.2-0.5,0.3c-0.1,0.1-0.4,0.2-0.4,0.3
		c-0.6,1.2-1.7,2.2-1.8,3.7c0,0.1-0.1,0.3-0.2,0.4c-0.7,0.6-0.6,1.7-1.3,2.3c-0.5,0.4-0.5,1-1.2,1.2c-0.1,0-0.2,0.3-0.2,0.5
		c0,0.6-0.3,1.1-0.8,1.5c-0.2,0.2-0.4,0.4-0.5,0.6c-0.3,0.4-0.6,0.8-0.9,1.1c-0.4,0.4-0.7,0.9-0.8,1.5c0,0.2-0.2,0.4-0.5,0.4
		s-0.6-0.2-0.5-0.5c0.1-0.5,0.3-0.9,0.6-1.4c0.3-0.4,0.8-0.8,0.7-1.4c0-0.1,0.1-0.2,0.2-0.3c0.5-0.4,0.8-0.9,1-1.5
		c0.1-0.2,0.2-0.3,0.3-0.4c0.4-0.3,0.8-0.6,1-1.1c0.6-1.2,1.3-2.4,2-3.6c0.1-0.1,0.1-0.2,0-0.4c-0.1-0.1-0.3-0.1-0.5,0c0,0,0,0,0,0
		c-0.3,0.3-0.4,0.7-0.8,0.9s-0.6,0.8-1.1,0.7c-0.8,0.7-1.8,1.2-2.3,2.2c-0.3,0.4-0.6,0.8-0.9,1.1c-0.4,0.5-0.8,1.1-1.1,1.6
		c-0.6,0.9-1.1,1.7-1.5,2.7c-0.3,0.8-0.6,1.7-0.6,2.6c0.2,0.6,0.3,1.3,0.1,2c0,0.2-0.2,0.4-0.4,0.2c-0.4-0.3-0.8-0.5-1.3-0.6
		c-0.5,0-0.8-0.4-0.9-1c-0.1-0.9-0.6-1.7-1.3-2.2c-0.4-0.2-0.8-0.6-1.3-0.4c-0.6-0.2-1.3-0.1-2,0.1c-0.4,0.1-0.8,0.1-1,0.5
		c0,0.1-0.2,0-0.4,0.1c-0.8,0.4-1.6,1-2.1,1.7c-0.1,0.1-0.1,0.2-0.2,0.3c-0.7,0.4-0.7,1.1-0.5,1.8c0.1,0.4,0.2,0.7,0.2,1
		c0.1,0.5,0.5,0.9,1,1c0.2,0,0.4,0,0.7,0.1c0.3,0,0.6,0.1,0.8,0.4c0.3,0.4,0.9,0.7,1.4,0.6c0.2,0,0.4,0,0.5,0
		c0.8-0.2,1.7-0.2,2.5-0.1c0.7,0.2,1.4-0.2,1.6-0.9c0.2-0.5,0.7-0.4,1-0.8c0,0,0.2,0,0.3,0c0.5,0.2,0.8,0.8,0.6,1.3c0,0,0,0.1,0,0.1
		c-0.2,0.4-0.5,0.8-0.9,1c-0.2,0.1-0.4,0.4-0.4,0.6c-0.2,0.9-0.3,1.8-0.2,2.7c-0.2,0.6-0.2,1.2,0.1,1.7c0.1,0.4,0.3,0.7,0.6,1
		c0.3,0.2,0.5,0.5,0.5,0.9c0,0.4,0.3,0.8,0.7,1c0.5,0.2,0.8,0.7,1.4,0.6c0.1,0,0.2,0.2,0.3,0.4c0.6,0.8,1.4,1.4,2.3,1.8
		c0.9,0.4,1.7,0.9,2.6,1.4c0.1,0.1,0.2,0.3,0.4,0.4s0.2,0.2,0.3,0.2c0.5-0.2,0.7,0.2,1.1,0.3s0.6,0.4,0.9,0.5s0.8,0.6,1.4,0.4
		c0.1,0,0.2,0,0.2,0.1c0.4,0.9,1.5,0.5,2,1.1c0.5,0,0.7,0.5,1.1,0.7c0.9,0.4,1.7,0.7,2.6,0.9c0.6,0.1,1.2,0.4,1.9,0.6s1,0.4,1.5,0.1
		c0.1,0,0.3,0,0.4,0.1c0.2,0.3,0.5,0.2,0.9,0.3s0.5,0,0.6,0.2c0.5,0.6,1.2,0.5,1.9,0.6c0.4,0,0.9,0.1,1.2,0.4c0.2,0.3,0.7,0.4,1,0.2
		c0.8-0.2,1.6-0.3,2.5-0.3c0.2,0,0.4,0,0.5,0.2c0.2,0.3,0.5,0.4,0.8,0.2c0,0,0,0,0,0c0.7-0.4,1.5-0.4,2.1,0.1
		c0.3,0.1,0.5,0.2,0.7-0.1c0.2-0.2,0.5-0.3,0.7-0.2c0.8,0.2,1.7,0.2,2.5,0c0,0,0.1,0,0.1,0c0.3,0.2,0.7,0.3,1,0.4
		c0.3,0.1,0.7-0.2,1,0c0.9,0.5,1.9,0.6,2.9,0.5c1.8,0.1,3.7-0.1,5.5,0.1c0.3,0,0.5,0,0.8,0c0.9,0,1.7,0,2.5,0.2
		c0.3,0.1,0.6,0.1,0.9,0.1c0.1,0,0.3,0.1,0.3,0.2c0.1,0.4,0.4,0.4,0.6,0.2c1-0.6,2.2-0.8,3.2-1.4c0.2-0.1,0.5-0.2,0.7-0.3
		c0.4-0.1,0.9-0.3,1.2-0.5c0.5-0.3,1-0.5,1.6-0.7c0.6-0.1,1.2-0.4,1.7-0.8c0,0,0.1-0.1,0.1-0.1c1.4-0.4,2.5-1.4,3.8-1.9
		c0.8-0.1,1.4-0.6,1.9-1.2c0.1-0.1,0.2-0.2,0.3-0.2c0.4-0.1,0.8-0.3,1.2-0.6c0.2-0.3,0.7-0.4,1-0.7c0.6-0.5,1.3-0.9,2-1.3
		c0.4-0.2,0.7-0.5,0.9-0.9c0.3-0.5,0.7-0.9,1.1-1.2c0.8-0.6,1.4-1.4,1.8-2.3c0.2-0.5,0.5-1,1-1.2c0.1,0,0.2-0.1,0.2-0.2
		c0.3-0.9,1.1-1.4,1.5-2.2c0.3-0.6,0.6-1.2,1-1.7c0.4-0.6,1-1,1.8-1.1c0.5,0,0.8-0.5,1.3-0.7c0,0,0.1,0,0.1,0
		c0.1,0.1,0.1,0.1,0.1,0.2c0,0.1,0,0.2-0.1,0.2c-0.4,0.3-0.5,0.9-0.8,1.2c-0.3,0.4-0.5,0.8-0.8,1.2c-0.2,0.4-0.5,0.9-0.8,1.2
		c-0.8,1.1-1.4,2.3-1.8,3.6c-0.1,0.3-0.2,0.6-0.5,0.8c-0.6,0.6-1.2,1.3-1.8,2c-0.5,0.5-0.6,1.3-0.2,1.9c0.3,0.5,0.5,1.1,0.6,1.8
		c0.3,1.2,0.8,2.4,1.3,3.5c0.6,1.3,1,2.6,1.5,3.9c0,0.1,0.1,0.2,0.1,0.2c0.2,0.3,0.4,0.6,0.5,0.9c0,0.3,0,0.6,0.1,0.9
		c0.1,0.7,0.5,1.4,1,1.9c0.3,0.5,0.7,1,1.1,1.5c0.3,0.5,0.5,1,0.7,1.6c0.5,0.9,1,1.7,1.6,2.5c0.3,0.4,0.5,0.9,0.4,1.4
		c-0.2,1,0,2,0.6,2.8c0.1,0.2,0,0.3,0,0.4c-0.1,0.6,0,1.3,0.3,1.8c0.4,0.5,0.6,1,0.8,1.5c0.1,0.5,0.2,1,0.3,1.6c0.2,1,0.6,2,1.3,2.9
		c0.2,0.3,0.3,0.6,0.4,1c0.1,0.6,0.2,1.2,0.3,1.8c0,0.4,0.2,0.7,0.5,0.9c0.5,0.4,0.5,1.1,1,1.4c0.1,0,0.1,0.2,0.1,0.2
		c-0.3,0.5,0,0.7,0.3,1c0.1,0.1,0.2,0.3,0.2,0.4c0,0.3,0.4,0.5,0.5,0.8s-0.1,0.6,0.1,0.7c0.4,0.4,0.4,1,0.8,1.4
		c0.1,0.2,0.2,0.5,0.3,0.7c0.1,0.4,0.2,0.8,0.4,1.1c0.1,0.2,0.1,0.4,0.2,0.6c0.1,0.4,0.3,0.8,0.4,1.1s0.8,0.7,0.9,1.3
		c0.2,0.5,0.3,1,0.6,1.5c0.1,0.5,0.5,0.9,0.6,1.3c0.1,0.5,0.3,0.9,0.4,1.4c0.2,0.5,0.4,0.9,0.6,1.3c0.2,0.3,0.3,0.6,0.3,1
		c0,0.4,0.1,0.7,0.4,0.9c0.1,0.1,0.2,0.2,0.3,0.2c0.3,0,0.2-0.2,0.1-0.4c-0.1-0.4,0.2-0.8-0.2-1.1c0-0.1,0.1-0.2,0.2-0.2
		c0.4,0,0.5-0.2,0.5-0.6c-0.2-1.1-0.2-2.3-0.2-3.4c0-0.1,0-0.2,0-0.3c-0.2-1.3-0.3-2.6-0.2-3.9c0-0.3,0-0.5-0.1-0.8
		c-0.2-1.2-0.3-2.3-0.2-3.5c0-0.6,0-1.1-0.1-1.7c-0.1-0.5,0.1-1.1,0-1.6s0-1,0-1.5c0-0.4,0-0.7,0-1.1c-0.1-0.6-0.1-1.2,0-1.9
		c0.1-0.5,0.3-1-0.2-1.4c0.1-0.3,0.1-0.7,0-1c-0.1-0.3-0.1-0.6,0-0.8c0.2-0.4,0.4-0.9,0-1.4c0-0.1,0-0.2,0-0.2
		c0.1-0.2,0.2-0.4,0.2-0.6c0-0.2-0.4-0.3-0.1-0.5c0,0,0-0.1,0-0.1c-0.2-0.7,0.8-1.2,0.2-1.9c0.1-0.7,0.2-1.3,0.3-2
		c0-0.4,0.2-0.7,0.5-0.9c0,0,0.1,0,0.1,0c0,0,0.1,0.1,0.1,0.1c0,0.4,0,0.9,0,1.3c0,0.2-0.2,0.5,0.2,0.5c0.1,0,0.2-0.2,0.2-0.4
		c0-0.4,0-0.7,0-1.1c0-0.6,0-1.2,0.1-1.7c0-0.8,0.1-1.7,0.3-2.5c-0.3-0.5,0.1-0.9,0.1-1.3s0.1-0.9,0.2-1.3c0.1-0.6,0.2-1.1,0.1-1.7
		c-0.1-0.3-0.1-0.6,0.1-0.9c0.3-0.8,0.4-1.6,0.2-2.5c0-0.4,0-0.8,0.2-1.1c0.1-0.1,0.2-0.3,0.2-0.5c-0.2-1,0.7-1.8,0.5-2.7
		s0.3-1.6,0.2-2.4c0-0.2,0.1-0.5,0.2-0.6c0.3-0.4,0-0.8,0.1-1.1s0.3-0.8,0.4-1.1s-0.2-0.6-0.1-0.8c0.5-0.6,0-1.4,0.5-2
		c0.2-0.2,0.1-0.6,0.2-0.9c0.1-0.6,0.2-1.2,0.4-1.8c0.2-0.3,0.2-0.7,0.1-1c0-0.2,0-0.3,0.1-0.5c0.2-0.5,0.4-1,0.6-1.5
		c0.2-0.5,0.3-1,0.4-1.5c0-0.6,0.3-1.2,0.7-1.7c0.1-0.1,0.2-0.1,0.3-0.1c0.2,0.2,0.4,0.5,0.6,0.7c0.2,0.2,0,0.4-0.1,0.6
		c-0.2,0.3-0.2,0.7-0.1,1c0,0.1,0,0.3,0,0.4c-0.4,0.3-0.3,0.7-0.3,1.1c0,0.4-0.1,0.8-0.2,1.2c0,0.1,0.1,0.3,0,0.4
		c-0.5,0.8-0.3,1.9-0.8,2.7c0,1-0.2,1.9-0.5,2.9c-0.1,0.3-0.1,0.5-0.1,0.8c0,0.4-0.1,0.8-0.4,1.1c-0.3,0.2-0.4,0.6-0.3,1
		c0.2,0.5,0,1.1-0.3,1.5c-0.1,0.2-0.2,0.5-0.1,0.8c0,0.2-0.2,0.4-0.2,0.6s-0.1,0.5-0.1,0.8c-0.1,0.2-0.1,0.4-0.1,0.7
		c0,0.5-0.1,1.1-0.2,1.6c-0.1,0.2,0,0.4,0,0.6c-0.1,0.5,0.1,1.1-0.3,1.5c-0.1,0.7-0.5,1.4-0.3,2.1c0,0.1,0,0.3,0,0.4
		c-0.4,0.8-0.6,1.8-0.4,2.7c0,0.4-0.1,0.9-0.2,1.3c-0.2,1.1-0.4,2.3-0.7,3.4s-0.4,2.3-0.6,3.4c-0.1,0.5-0.2,1-0.3,1.5
		c-0.2,1.3-0.4,2.6-0.4,3.9c0,0.3,0,0.5,0.1,0.8c0.1,0.4,0.1,0.9-0.1,1.3c-0.1,0.2-0.1,0.4-0.1,0.5c0.6,0.5,0.2,1,0.1,1.5
		c0.1,0.7,0,1.5-0.1,2.2c0,0.1,0,0.3,0.1,0.4c0.5,0.4,0.2,0.8,0.1,1.2c-0.1,0.3-0.1,0.5-0.1,0.8c0,0.5,0.6,0.8,0.3,1.4
		s0.3,0.9-0.1,1.3c0.4,0.5-0.2,1.2,0.2,1.8c0.1,0.1,0,0.4-0.1,0.6c-0.3,0.8-0.3,1.8-0.1,2.6c0.3,0.8-0.1,1.6,0,2.4
		c0,0.2,0,0.4,0,0.7s0,0.4,0.3,0.5c0.4,0.2,0.6,0.5,0.7,0.9c0.2,0.4,0.4,0.8,0.6,1.2c0.5,1.1,1,2.3,1.5,3.5c0.2,0.5,0.3,0.9,0.5,1.4
		c0.2,0.7,0.3,1.4,0.3,2.1c0,0.5-0.2,0.9-0.6,1.2c-0.1,0.1-0.2,0.1-0.3,0.1c-0.4,0-0.7-0.1-1.1-0.1c-0.4,0-0.9-0.3-1.1,0.1
		s0.1,0.7,0.1,1c0,0.2,0,0.4-0.1,0.7c-0.2,0.6-0.2,1.4,0,2c0.2,0.5-0.1,0.8,0.1,1.3s-0.1,0.8-0.1,1.2s0.1,0.6,0.2,0.9
		c0,0.3,0,0.5,0,0.8c0,0.2,0,0.4,0,0.7c-0.2,0.8-0.2,1.6-0.1,2.4c0,0.4,0,0.9,0,1.3c0,0.2-0.1,0.5,0,0.7c0.2,0.4,0.2,0.9,0,1.3
		c-0.3,0.5-0.3,1,0,1.5c0.2,0.2,0.2,0.4,0,0.6c-0.1,0.1-0.2,0.3-0.3,0.5c0,0.1-0.1,0.2,0,0.3c0.4,0.6-0.2,1.2,0,1.8
		c0,0.1,0,0.2,0.1,0.3c0.5,0.4,0.2,0.8,0,1.1c-0.4,0.4-0.5,1.1-0.2,1.6c0.2,0.5,0.1,1-0.2,1.4c-0.3,0.4-0.4,0.8-0.2,1.2
		c0.1,0.5-0.1,1,0.1,1.6s0.2,0.3,0.5,0.2c0.1-0.1,0.3,0,0.4,0.1c0,0.1,0.1,0.1,0,0.2c0,0.4-0.1,0.8-0.2,1.2c-0.1,1.3-0.2,2.6-0.3,4
		c-0.1,0.8-0.2,1.5-0.3,2.3c-0.3,1.9-0.3,3.7-0.1,5.6c0,0.3,0,0.5,0.3,0.6c0.7,0.2,1.1,0.9,1,1.6c0,0.7-0.2,1.4-0.8,1.8
		c-0.7,0.6-1.1,1.5-0.9,2.3c0,1.3,0.1,2.6,0.3,3.9c0.1,0.6,0.2,1.1,0.1,1.7c0,0.5,0,1.1,0,1.6c0,0.2,0,0.4,0,0.5
		c0.3,0.7,0.2,1.5-0.2,2.2c-0.1,0.3-0.2,0.6-0.2,0.9c0,0.3-0.2,0.5-0.4,0.6c-0.3,0.2-0.4,0.3-0.2,0.6c0.4,0.5,0.5,1.2,0.2,1.8
		c-0.1,0.3-0.2,0.7-0.1,1.1c0.2,1.5,0.2,3,0.2,4.4c0,0.1,0,0.2,0,0.2s0.2,0.2,0.3,0.2c0.3-0.1,0.6-0.3,0.8-0.4
		c0.3-0.2,0.7-0.2,1-0.1c0.2,0,0.4,0.2,0.5,0.4s0,0.4-0.2,0.6c-0.1,0.2-0.3,0.3-0.5,0.4c-0.5,0.3-0.9,0.6-1.4,0.8
		c-0.4,0.2-0.6,0.6-0.6,1c0,1.2-0.1,2.3-0.1,3.5s0,2.2,0,3.3c0,1.2-0.3,2.3-0.9,3.3c-0.1,0.2-0.3,0.5-0.4,0.7
		c-0.2,0.8-0.8,1.5-1.5,2c-0.2,0.1-0.3,0.3-0.4,0.5c-0.3,0.6-0.9,1.1-1.5,1.4c-0.6,0.3-1.1,0.7-1.7,1.1c-0.2,0.2-0.5,0.3-0.8,0.4
		c-1.1,0-2.1,0.2-3.2,0.3c-0.1,0-0.2,0-0.3,0c-0.8-0.3-1.5-0.7-2.2-1.2c-0.5-0.3-1.1-0.6-1.3-1.3c0,0,0-0.1-0.1-0.1
		c-0.3-0.3-0.9-0.3-1.1-0.9s-0.5-0.8-0.9-1.1c-0.1-0.1-0.2-0.3-0.2-0.5c-0.7-1-1-2.3-1.9-3.2c-0.3-0.4-0.2-0.9-0.3-1.3
		c0-0.4-0.1-0.8-0.4-1.2c-0.4-0.5-0.6-1-0.7-1.6c-0.3-1.2-0.7-2.4-1-3.6c-0.1-0.4-0.5-0.7-0.9-0.6c-0.8,0.1-1.5,0-2.2-0.3
		c-0.3-0.1-0.5-0.3-0.7-0.6c-0.3-0.4-0.5-0.8-0.8-1.2c-0.5-0.6-0.6-1.4-0.5-2.2c0-0.8,0.1-1.6,0.3-2.4c0.1-0.2,0.1-0.4,0.1-0.7
		c0.1-0.3,0.4-0.7,0.7-0.7c0.4,0.1,0.7,0.3,0.8,0.6c0,0.1,0,2.2,0,2.2c-0.3,0.7-0.1,1.4,0.4,2c0,0.4,0.2,0.8,0.5,0.9
		c0.7,0.5,1.6,0.5,2.3,0l0.3-0.2c0.2-0.1,0.4,0,0.5,0.1c0.4,0.3,0.5,0.8,0.3,1.2c-0.2,0.3-0.1,0.7,0.1,1c0.3,0.3,0.4,0.7,0.5,1.1
		c0,0,0,0.1,0,0.1c0.5,0.9,1,1.9,1.2,2.9c0.1,0.3,0.5,0.5,0.5,0.7c0,0.6,0.5,0.9,0.6,1.4s0.6,0.7,0.6,1.3c0,0.4,0.3,0.8,0.4,1.2
		c0.1,0.4,0.3,0.8,0.6,1.2c0.2,0.3,0.3,0.6,0.5,0.9c0,0.1,0,0.2,0.1,0.2c0.3,0.4,0.8,0.7,1,1.2c0.2,0.5,0.5,0.8,0.9,1.2
		c0.6,0.6,1.4,1.2,2.2,1.5c1.7,0.6,1.2,0.7,3-0.2c0.6-0.3,1.2-0.7,1.7-1.1c0.4-0.4,0.9-0.8,1.3-1.1c0.1-0.1,0.3-0.2,0.4-0.4
		c0.4-1,1.7-1.4,1.9-2.5c0.1-0.2,0.1-0.4,0.3-0.6c0.5-0.9,0.7-2,0.6-3.1c0-0.3,0-0.6,0-0.9c0.1-1.7,0.1-3.3,0.2-4.9
		c0-0.1-0.1-0.3-0.2-0.3c-0.1,0-0.3,0-0.4,0.1c-0.1,0.1-0.2,0.2-0.2,0.3c-0.1,0.1-0.1,0.2-0.2,0.2c-0.5-0.3-0.8,0-1.1,0.2
		c-0.7,0.3-1.4,0.6-2.1,0.8c-0.1,0-0.2,0.1-0.2,0.1c-0.7-0.3-1.1,0.2-1.5,0.5c-0.8,0.6-1.9,0.8-2.9,0.5c-0.2,0-0.3-0.1-0.4-0.3
		c-0.6-0.8-0.6-1,0-1.8c0.4-0.5,0.8-1,1.4-1.3c0.2-0.1,0.4-0.2,0.5-0.4c0.3-0.6,0.9-0.8,1.4-1.2c0.7-0.6,1.5-1.2,2.2-1.7
		c0,0,0-0.1,0-0.1s-0.1-0.1-0.2-0.1c-0.2,0-0.4,0-0.5,0.1c-0.7,0.3-1.3,0.6-2,0.8c-0.5,0.3-1,0.4-1.5,0.3c-0.1,0-0.2,0-0.3,0
		c-0.7,0.4-1.5,0.3-2.2,0.6s-1.1,0.2-1.6,0.4s-1,0.5-1.6,0.7c-0.5,0.1-1,0.3-1.5,0.5c0,0-0.3-0.1-0.3-0.2c-0.2-0.3-0.3-0.7-0.4-1
		c-0.2-0.7-0.2-1,0.5-1.3c0.5-0.2,0.7-0.9,1.3-0.8c0,0,0.1,0,0.1-0.1c0.1-0.9,1-1,1.6-1.2s1.3-0.8,2-1c0.2-0.1,0.3-0.2,0.4-0.3
		c0.6-0.6,1.3-1,2.1-1.3c0.2-0.1,0.4-0.2,0.5-0.3c0.1-0.1,0.1-0.1,0.2-0.2c-0.1,0-0.2-0.1-0.2-0.1c-0.4,0-0.8,0.1-1.2,0.1
		c-0.7,0-1.3,0-2,0c-0.2,0-0.3-0.1-0.5-0.2c-0.3-0.2-0.5-0.4-0.8-0.5c-0.8-0.1-1.1-0.9-1.7-1.2c-0.1-0.1-0.1-0.1-0.1-0.2
		c0-0.6,0-1.2,0-1.7c0-0.1,0.2-0.2,0.2-0.3s0.5-0.3,0.7-0.5s0.1-0.4-0.1-0.5s-0.2-0.2-0.2-0.2c0.1-0.2,0.2-0.4,0.3-0.6
		c0.2-0.3,0.5-0.5,0.5-0.9c0-0.2,0.2-0.3,0.3-0.4c1.2-1,2.3-2.1,3.6-3c0.4-0.3,0.8-0.6,1.3-0.8c0.4-0.2,0.8-0.4,1.1-0.7
		c0.2-0.1,0.4-0.2,0.6-0.3c0.5-0.3,1.1-0.5,1.5-0.8c0.9-0.4,1.7-0.9,2.3-1.6c0.5-0.1,0.7-0.7,1.3-0.7c0.1,0,0.3-0.2,0.3-0.3
		c0.1-0.8,0.2-1.7,0.3-2.5c0-0.2,0-0.2-0.2-0.2s-0.1,0.1-0.1,0.1c-0.7-0.1-1.4-0.2-2.1-0.2c-0.3,0-0.5,0.1-0.8,0.2
		c-1.4,0.8-2.9,1.6-4.3,2.4c-0.4,0.6-1.3,0.7-1.7,1.5c0,0.1-0.1,0.1-0.2,0.2c-0.9,0.3-1.7,0.8-2.4,1.4c-0.8,0.4-1.6,0.9-2.4,1.4
		c-0.8,0.6-1.7,1.1-2.7,1.5c-0.6,0.3-1.2,0.6-1.8,0.8c-0.3,0.1-0.6,0.4-1,0.2c0.2-0.3,0.4-0.6,0.6-0.8c0.5-0.4,1-0.7,1.6-1
		c0.8-0.4,1.6-0.9,2.4-1.5c0.5-0.4,1.1-0.7,1.7-1c0.5-0.3,1-0.6,1.4-1c0.1-0.1,0.2-0.2,0.3-0.3c0.6-0.2,1.2-0.6,1.7-1
		c0.5-0.4,1-0.7,1.6-0.9c0.8-0.5,1.5-1,2.3-1.6c0.3-0.2,0.5-0.3,0.8-0.4c0.7-0.3,1.5-0.6,2.2-0.9c0.4-0.1,0.7-0.5,0.7-1
		c0-0.2,0-0.4,0-0.7c-0.2-0.6-0.2-1.2-0.1-1.8c0-0.3,0-0.6,0.1-0.9c0.2-0.4,0.3-0.9,0.1-1.3c-0.1-0.2-0.1-0.4,0-0.5
		c0.2-0.5,0.2-1,0.1-1.5c0-0.1,0-0.2,0-0.3c0.2-0.7,0.3-1.4,0.1-2.1c-0.1-0.7,0-1.3,0.1-2c0-0.6,0-1.2,0-1.7c0-0.3,0.1-0.6,0.3-0.9
		c0.4-0.4,0.4-1,0.6-1.5c0-0.1,0-0.2,0-0.2c-0.6-0.4,0.1-0.8,0-1.3c-0.1-0.5-0.1-1,0-1.5c0-0.9,0.1-1.7,0.1-2.6s0.2-1.7,0.3-2.5
		c0-0.4-0.1-0.9-0.2-1.3c-0.1-0.3-0.1-0.7,0-1c0.2-0.3,0.2-0.7,0.1-1c-0.1-0.6-0.1-1.1,0-1.7c0.2-0.7,0.2-1.3,0-2
		c-0.2-0.4-0.1-0.9,0.1-1.3c0.3-0.4,0.3-0.9-0.1-1.2c-0.3-0.3-0.3-0.6-0.2-1c0.3-0.7,0.3-1.5,0.1-2.2c0-0.1,0.1-0.2,0.1-0.4
		s0.1-0.4,0-0.5c-0.3-0.4-0.3-0.9,0-1.4c0.1-0.3,0.2-0.6,0.2-0.9c0-0.5,0-1,0.1-1.5c0.2-0.8-0.1-1.6-0.7-2.2
		c-0.9-0.9-1.7-1.9-2.4-2.9c-0.2-0.3-0.4-0.5-0.6-0.7c-0.2-0.2-0.4-0.4-0.6-0.7c-0.2-0.5-0.6-1-1-1.5c-0.1-0.1-0.2-0.3-0.3-0.4
		c-0.2-0.6-0.5-1.2-1-1.6c-0.1-0.1-0.2-0.2-0.2-0.3c0-0.2,0.1-0.3,0.2-0.5c0.1-0.1,0.3-0.1,0.4,0c0.2,0.1,0.3,0.2,0.4,0.3
		c0.1,0.1,0.2,0.3,0.3,0.4c0.1,0.1,0.2,0.1,0.4,0.1s0.1-0.3,0-0.4c-0.2-0.4-0.4-0.8-0.7-1.2c-0.3-0.5-0.5-1-0.7-1.6
		c-0.1-0.2-0.2-0.4-0.3-0.6c-0.3-0.3-0.5-0.6-0.5-1c-0.1-0.3-0.3-0.5-0.3-0.8s-0.8-0.3-0.7-0.9c0-0.3-0.3-0.6-0.4-0.9
		s-0.1-0.8-0.3-1.2c-0.2-0.5-0.4-1-0.8-1.4c-0.3-0.2-0.4-0.6-0.5-0.9c0-0.7-0.2-1.5-0.8-2c-0.5-1.1-1.2-2.1-1.3-3.3
		c0-0.4-0.1-0.8-0.4-1.1c-0.3-0.3,0.1-0.8-0.2-1.1c-0.2-0.3-0.4-0.6-0.6-0.9c-0.1-0.1-0.1-0.3-0.1-0.4c0.1-1.6-0.3-3.2-1-4.6
		c-0.1-0.2-0.1-0.3-0.1-0.5c0.3-0.6-0.2-1-0.2-1.6c0-0.1-0.1-0.2-0.2-0.3c-0.3-0.2-0.7-0.3-1-0.5c-0.4,0.3-0.7-0.2-1-0.1
		c-0.1,0-0.2,0.2-0.2,0.2c0.1,0.6,0.2,1.1,0.4,1.7c0.2,0.9,0.2,1.9-0.2,2.9c-0.5,1.1-1.1,2.1-1.7,3c-0.1,0.2-0.4,0.4-0.7,0.4
		c-0.4,0-0.8,0.2-1.1,0.4c-0.2,0.1-0.4,0.1-0.6,0.1c-0.6-0.3-1.3-0.4-1.7-1.1c-0.1-0.1-0.2-0.2-0.3-0.2c-0.2-0.1-0.3-0.2-0.2-0.4
		c0.1-0.6,0.1-1.2,0-1.7c0-0.2-0.2-0.1-0.3,0c-0.3,0.1-0.4,0.1-0.4-0.2c0.2-1.4,0.8-2.7,1.7-3.7c0.1-0.1,0.1-0.1,0.1-0.2
		c0,0-0.1-0.2-0.1-0.2c-0.7,0.2-1.4,0.2-1.8,0.9c-0.1,0.2-0.4,0.2-0.6,0c-0.2-0.2-0.4-0.3-0.7-0.2c-1.3,0.3-2.6,0.6-3.9,1
		c-0.5,0.2-1,0.3-1.5,0.4c-0.5,0.1-1,0.2-1.5,0.4c-0.2,0.1-0.3,0.2-0.5,0.3c-0.1,0.1-0.2,0.2-0.3,0.2c-0.9,0-1.8,0.5-2.8,0.4
		c-0.6-0.1-1.1,0.2-1.7,0.3s-1,0.2-1.6,0.3c-1,0.3-2.1,0.5-3.2,0.4c-0.4,0-0.7,0.1-1,0.3c-0.5,0.3-1.1,0.3-1.6,0.1
		c-0.1-0.1-0.3-0.1-0.4,0c-0.5,0.6-1.1,0-1.6,0.2c-0.3,0.1-0.7,0.1-1,0.3s-0.7-0.1-1,0c-0.3,0-0.5,0.1-0.8,0.2c0,0-0.1,0.1-0.1,0.1
		c-0.5,0.2-1-0.2-1.4,0.2c-0.4,0.3-0.8,0.4-1.2,0.3c-1.1,0.1-2.1,0.3-3.1,0.6c-0.2,0.1-0.4,0.2-0.6,0.3c-0.1,0.1-0.3,0.2-0.4,0.1
		c-0.5-0.3-0.9,0.1-1.4,0.1c-0.4,0.1-0.9,0.3-1.2,0.6c-0.1,0.1-0.3,0.2-0.5,0.2c-0.7,0.1-1.3,0.5-1.6,1.1c-0.2,0.3-0.5,0.5-0.8,0.6
		c-0.5,0.2-0.9,0.4-1.3,0.7c-0.3,0.2-0.5,0.3-0.9,0.1s-0.2-0.6,0.1-1c0.3-0.4,0.7-0.7,1.1-1c0.2-0.2,0.4-0.4,0.3-0.7
		c-0.1-0.5,0.2-1.1-0.1-1.6c0.1-0.5,0.3-1,0.4-1.5c0-0.3,0-0.5,0-0.8c-0.2-0.8-0.2-1.6-0.1-2.4c0.1-0.2-0.1-0.5-0.2-0.8
		c-0.1-0.2-0.1-0.4,0.1-0.6c0.1-0.1,0.2-0.3,0.1-0.3c-0.4-0.5-0.1-1.1-0.1-1.7c-0.1-0.5-0.1-1.1,0-1.6c0.3-0.7-0.2-1.5,0.2-2.2
		c0-0.8,0-1.6,0-2.4s0.1-1.5,0.1-2.3c0-0.1,0-0.3-0.1-0.4c-0.1-0.2-0.2-0.4-0.4-0.2c-0.3,0.3-0.8,0.4-1.2,0.2
		c-1.2-0.2-2.5-0.4-3.7-0.5c-0.4,0-0.8,0.2-1.2,0.1s-0.6-0.4-1-0.6c-0.8-0.3-1.6-0.4-2.4-0.4c-0.4,0.1-0.9,0.1-1.3,0
		c-0.4-0.1-0.9,0-1.3-0.3c-0.2-0.1-0.5-0.1-0.8-0.1c-0.3,0-0.5-0.1-0.8-0.2c-0.5-0.4-1-0.6-1.6-0.7c-0.5-0.1-0.9-0.5-1.5-0.5
		c-0.1,0-0.3-0.1-0.3-0.2c-0.7-0.9-1.9-1-2.8-1.4c-0.5,0.3-0.7-0.1-1-0.3c-0.9-0.5-1.9-1-2.8-1.5c-1.2-0.5-2.4-1.1-3.5-1.8
		c-0.2-0.1-0.4-0.3-0.6-0.3c-0.6-0.1-1.2-0.5-1.6-0.9c-0.9-0.7-1.9-1.4-3-1.8c-0.3-0.1-0.5-0.4-0.6-0.6c-0.3-0.4-0.6-0.9-1-1.2
		c0-0.3-0.2-0.5-0.5-0.6c-0.4,0-0.6-0.3-0.8-0.7l-0.6-1.2c-0.7-1.4-1-3-0.7-4.5c0-0.2,0-0.4,0-0.7c0-0.2-0.3-0.4-0.5-0.4
		c-0.7,0.3-1.5,0.3-2.2-0.1c-0.3-0.1-0.7-0.1-1.1-0.1c-0.8,0.1-1.7,0-2.5-0.3c-0.6-0.1-1.2-0.5-1.6-1c-0.5-0.7-1.2-1.2-1.6-1.9
		c-0.2-0.2-0.2-0.5-0.2-0.7c0-0.6,0-1.2,0-1.8c0,0,0-0.1,0-0.1c0.3-0.8,0.6-1.7,0.9-2.5c0-0.1,0.1-0.1,0.2-0.2
		c0.4-0.1,0.6-0.4,0.9-0.5c0.7-0.5,1.5-0.9,2.3-1.3c0.3-0.1,0.6-0.2,0.9-0.4c0.5-0.3,1.1-0.4,1.6-0.4c0.7,0,1.3,0,2-0.2
		c0.2-0.1,0.5,0,0.6,0.1c0.3,0.2,0.6,0.5,0.9,0.8c0.4,0.5,1,0.6,1.6,0.3c0.2-0.1,0.3-0.2,0.5-0.3c0.1-0.1,0.1-0.1,0.1-0.2
		c-0.4-0.4-0.1-0.7,0.2-0.9c0.5-0.5,0.6-1.1,1.1-1.6c0.5-0.5,0.9-1,1.1-1.7c0.2-0.7,0.8-1.1,1.1-1.8c0-0.1,0.2-0.1,0.3-0.2
		s0.5-0.4,0.5-0.6c0-0.5,0.3-0.7,0.6-0.8c0.4-0.1,0.8-0.4,1-0.8c0.6-0.8,1.3-1.6,2.1-2.2c0.3-0.3,0.6-0.6,0.9-1
		c0.4-0.4,0.5-0.9,1.2-0.9c0.1,0,0.2-0.1,0.3-0.2c0.5-0.4,0.9-0.8,1.3-1.1c0.1-0.1,0.2-0.2,0.2-0.3c0.2-0.9,1-1.6,1.1-2.6
		c0-0.1,0.1-0.1,0.1-0.2c0.7-0.7,1.4-1.5,2.1-2.2c0.1-0.1,0.2-0.1,0.2-0.1c0.1,0,0.2,0,0.2,0.1c0,0.1,0,0.2,0,0.2
		c-0.8,0.7-1.2,1.6-1.4,2.6c0,0.2-0.2,0.4-0.3,0.6c0,0,0,0.1,0.1,0.2s0.1,0,0.1,0c0.2-0.1,0.3-0.2,0.5-0.3c0.2-0.1,0.3-0.4,0.5-0.4
		c0.9-0.2,1.3-0.9,1.8-1.5c0.2-0.2,0.3-0.4,0.6-0.4c0.1,0,0.3,0,0.4-0.1c0.5-0.7,1.3-0.8,1.9-1.2c0.5-0.3,0.9-0.7,1.4-1.1
		c0.3-0.4,0.5-0.8,1.1-0.8s0.5-0.7,1-0.8c0.4-0.1,0.8-0.3,1.2-0.5c0.3-0.1,0.6-0.3,0.5-0.7c0-0.2,0.1-0.3,0.3-0.2
		c0.4,0.2,0.8,0.1,1.1-0.2c0.1-0.1,0.2-0.1,0.2-0.1c0.7-0.6,1.5-1,2.4-1.2c0.3,0,0.6-0.2,0.8-0.5c0.3-0.5,0.8-0.9,1.4-0.8
		c0.6,0,1.2-0.2,1.5-0.7c0.2-0.2,0.5-0.4,0.8-0.4c0.5-0.1,1.2,0,1.6-0.6c0.1-0.1,0.1-0.1,0.2-0.1c0.6,0,1-0.5,1.5-0.7
		c0.5-0.2,1-0.6,1.4-1c0.1-0.1,0.3-0.2,0.5-0.2c0.9,0.1,1.5-0.4,2.2-0.8c0.1-0.1,0.2-0.2,0.3-0.3c0.4-0.4,0.9-0.5,1.4-0.3
		c0.3,0.1,0.6,0.1,0.9-0.1c0.1,0,0.2-0.1,0.2-0.1c0.6-0.4,1.3-0.7,2.1-0.9c0.7-0.1,1.4-0.3,2.1-0.5l0.8-0.2c0.1,0,0.2-0.1,0.3-0.1
		c1.1,0,2.2-0.1,3.3-0.4c0.1,0,0.3,0,0.4-0.1c0.3-0.3,0.7-0.6,1-0.1c0,0.1,0.2,0.1,0.2,0.1c0.1,0,0.2,0,0.3,0c1.2-0.5,2.6-0.5,3.8,0
		c0.6,0.2,1.3,0.3,2,0.2c0.1,0,0.3,0,0.4,0c0.7,0.2,1.4,0.3,2.1,0.4c0.3,0.1,0.6,0.1,0.8,0.4c0.1,0.1,0.2,0.2,0.3,0.2
		c0.8,0.1,1.6,0.6,2.5,0.3c0.1,0,0.3,0.1,0.5,0.2c0.3,0.2,0.7,0.3,1,0.5c0.1,0,0.3,0,0.5-0.1s0.2-0.2,0.3-0.1
		c0.5,0.4,1.1,0.6,1.8,0.4c0.6,0.3,1.3,0.4,2,0.3c0.1,0,0.2,0,0.3,0.1c1.4,0.9,3,1.2,4,2.7c0.4,0.5,0.8,1,1.2,1.4
		c0.2,0.3,0.5,0.7,0.7,1c-0.4,0.7,0.5,1.1,0.3,1.7c0,0.1,0,0.3,0.1,0.4c0.6,0.6,0.4,1.3,0.5,2c0.1,0.4,0.1,0.8,0.3,1.2
		c0.2,0.6,0.6,1.2,0.4,1.9c-0.1,0.2,0,0.4,0.1,0.5c0.4,0.7,0.6,1.5,0.5,2.3c0,0.4,0.1,0.7,0.3,1c0.4,0.4,0.6,1,0.7,1.6
		c0.1,0.9,0.4,1.7,0.9,2.5c0.1,0.2,0.1,0.3,0,0.5c-0.2,0.7,0,1.4,0.5,1.9L95.1,273.2z M56.4,313.7c-0.1,0-0.3,0-0.4,0
		c-0.3,0-0.6,0.1-0.9,0.1c0,0.4-0.1,0.7-0.1,1.1c0,0.2,0.1,0.3,0.1,0.5c0.1,0.6,0.2,1.1,0.2,1.7c0,0.8,0,1.7,0.2,2.5
		c0.2,1,0,2,0.4,3c0,0.2,0,0.4,0,0.7c-0.1,0.5-0.1,1,0.2,1.4c0.4,0.6,0.4,1.3,0.2,1.9c-0.1,0.4-0.4,0.6-1,0.5
		c-0.3,0-0.4-0.2-0.5-0.5c-0.1-0.7-0.2-1.4-0.4-2.1c-0.3-0.8-0.4-1.6-0.3-2.5c0-0.4-0.3-0.8-0.3-1.3s0.2-1,0.1-1.4
		c-0.5-0.1-0.2-0.4-0.2-0.7c0.1-0.4,0.1-0.8,0-1.2c0-0.2,0-0.4,0-0.6c0.1-0.7,0.2-1.4,0.3-2.1c0-0.3,0-0.6-0.1-0.9
		c-0.2,0.1-0.4,0.1-0.6,0.1c-0.2,0-0.3-0.1-0.5-0.1c-0.6-0.2-1.2-0.3-1.8-0.2c-0.3,0.1-0.5,0.1-0.8,0c-0.6-0.2-1.2-0.2-1.8,0
		c-0.5,0.1-0.5,0.1-0.4,0.5c0.1,0.3,0.2,0.7,0.3,1c0.1,0.3-0.2,0.6,0,1c0.1,0.4,0.1,0.8,0.1,1.2c0,0.3,0,0.6,0.2,0.9
		c0.1,0.3,0.2,0.7,0.1,1c-0.2,0.8-0.3,1.7-0.2,2.5c0.1,0.5,0.1,1.1,0,1.6c-0.2,0.6,0.1,1.1,0,1.7c0,0.3,0.1,0.8,0,1
		c-0.2,0.9-0.3,1.7-0.4,2.6c-0.2,0.7-0.1,1.4,0.3,1.9c0.1,0.2,0.2,0.2,0.4,0.2c0.6,0,1.2-0.1,1.8-0.4c0.7-0.4,1.5-0.8,2.3-1.1
		c0.2-0.1,0.4-0.2,0.6-0.1c0.3,0.1,0.7,0.1,1-0.1c0.5-0.2,0.9-0.4,1.4-0.5c1.5-0.6,3.2-0.4,4.7-0.9c0.2-0.1,0.4,0,0.7,0
		c0.8-0.2,1.7-0.2,2.5-0.3c0.5-0.1,1.1-0.1,1.6-0.1c0.2,0,0.5,0,0.7,0c0.5,0,1.1-0.1,1.6-0.1c0.6-0.1,1.1-0.1,1.7,0
		c0.4-0.6,1-0.3,1.6-0.3c0.5,0,1.1,0,1.6-0.2c1.1-0.4,2.2-0.6,3.4-0.8c0.3,0,0.7-0.1,1-0.3c0.4-0.3,0.8,0.1,1.2-0.1
		c0.4-0.3,0.8-0.5,1.3-0.5c0.6,0.1,1-0.3,1.5-0.4c0.9-0.2,1.7-0.4,2.5-0.7c0.2-0.1,0.2-0.2,0.2-0.4c-0.2-0.4-0.6-0.8-0.5-1.3
		c-0.5-0.8-0.3-1.7-0.6-2.6c-0.3-0.9-0.5-1.7-0.6-2.6c-0.2-0.6-0.2-1.2-0.4-1.8c-0.4-1.1-0.6-2.3-0.4-3.4c0-0.1,0-0.2,0-0.3
		c-0.2-0.8-0.3-1.6-0.3-2.5c0-0.4,0-0.9,0-1.3c0-0.1,0-0.2,0.1-0.2c0,0.1,0.1,0.1,0.1,0.2c0.3,0.9,0.6,1.8,0.8,2.7
		c0,0.5,0.2,1,0.4,1.4c0.3,0.6,0.5,1.3,0.5,1.9c0,0.3,0,0.6,0.1,0.9c0.2,0.6,0.3,1.2,0.3,1.8c0,0.2,0,0.3,0.1,0.5
		c0.3,1,0.5,2.1,0.6,3.1c0,0.1,0,0.2,0.1,0.3l0.7,2.9c0.1,0.3,0.3,0.5,0.6,0.4c0.5,0,1-0.4,1.6-0.3c0.1,0,0.2-0.1,0.3-0.2
		c0.2-0.4,0.5-0.4,0.9-0.3c1.2,0.1,2.5-0.3,3.7-0.2c0.8-0.3,1.6-0.3,2.3,0.1c0,0,0.1,0,0.2,0c0,0,0-0.1,0-0.1
		c-0.3-0.5-0.7-0.9-1-1.4c-0.8-1.2-1.8-2.3-2.2-3.8c0-0.1,0-0.2-0.1-0.3c-0.3-0.5-0.6-1.1-0.9-1.6c-0.2-0.6-0.8-1.1-0.8-1.8
		c0-0.1-0.1-0.2-0.1-0.2c-0.5-0.6-0.8-1.3-0.9-2.1c0-0.5-0.2-1-0.5-1.3c-0.1-0.1-0.2-0.2-0.2-0.3c0-0.7-0.2-1.3-0.5-2
		c0.2-0.8-0.3-1.5-0.3-2.2c-0.1-0.8-0.3-1.5-0.5-2.3c0-0.1-0.2-0.2-0.3-0.2c0,0-0.1,0-0.1,0c-0.2,0.1-0.4,0.2-0.5,0.4
		c-0.3,0.4-0.7,0.7-1.1,1c-0.8,0.5-1.6,1.1-2.2,1.7c-0.2,0.1-0.3,0.3-0.5,0.4c-0.3,0-0.6,0.2-0.8,0.5c-0.1,0.2-0.3,0.3-0.5,0.4
		c-0.9,0.1-1.7,0.6-2.4,1.2c-0.4,0.3-0.9,0.6-1.4,0.7c-0.5,0.1-1,0.4-1.4,0.8c-0.1,0.1-0.3,0.3-0.4,0.3c-0.9-0.1-1.5,0.6-2.2,0.8
		s-1.4,1-2.3,0.9c-0.5,0.3-1,0.6-1.6,0.7c-1.8,0.8-3.7,1.3-5.6,1.7c-0.8,0.1-1.5,0.2-2.3,0.3c-0.2,0-0.3,0-0.5-0.1
		C58.7,313.8,57.6,313.6,56.4,313.7z M109.3,409c-0.1-0.6-0.2-1.2-0.3-1.7c0-0.2-0.1-0.2-0.4-0.1s-0.4,0.6-0.5,0.9
		c-0.3,0.5-0.3,0.5-1,0.4c-0.1,0-0.3,0-0.4,0c-0.8,0.4-1.5,0.9-2.3,1.4c-1.2,0.8-2.3,1.8-3.4,2.8c-0.5,0.4-1,0.8-1.6,1.2
		c-0.8,0.8-1.7,1.4-2.7,2c0,0-0.1,0.2,0,0.2c0,0.1,0.1,0.1,0.2,0.2c0.1,0,0.2,0,0.3,0c0.9-0.2,1.8,0,2.5,0.4
		c0.5,0.3,1.1,0.5,1.6,0.6c0.5,0.3,1.1,0.3,1.7,0c0.4-0.2,0.9-0.2,1.2,0.1c0.2,0.1,0.3,0.2,0.5,0.2c0.2,0.1,0.4,0.5,0.7,0.3
		c0.2-0.2,0.4-0.3,0.5-0.6c0.1-0.2,0.3-0.5,0.3-0.7c0.4-0.9,1.2-1.5,2.1-1.8c1-0.3,1.2-0.7,1.1-1.8c0-0.2-0.1-0.4-0.1-0.7
		c-0.1-0.6-0.1-1.2,0-1.9C109.5,410.1,108.9,409.5,109.3,409z M102.3,424.9c0.4-0.1,0.7-0.1,1.1-0.2c1.1-0.2,2.1-0.6,3.1-1.1
		c0.2-0.1,0.5-0.2,0.8-0.2c0.3,0,0.6-0.1,0.9-0.3c0.2-0.1,0.4-0.2,0.6-0.2c0.5-0.1,0.7-0.3,0.6-0.8c-0.1-0.3-0.1-0.6-0.2-0.9
		c-0.1-0.2-0.3-0.3-0.5-0.1s-0.6,0.7-1,0.5s-0.6,0.4-1.1,0.3c-0.6-0.1-1.2,0.1-1.6,0.4c-0.3,0.2-0.6,0.3-1,0.5s-0.7,0.3-1,0.4
		s-0.7,0.5-1,0.5s-0.6,0.3-0.9,0.4c-0.8,0.3-1.6,0.8-2.3,1.3c-0.1,0-0.1,0.2,0,0.3s0.2,0.1,0.2,0.1c0.5-0.1,1-0.6,1.6-0.2
		c0.3-0.1,0.6-0.3,0.8-0.4C101.5,425,101.8,424.7,102.3,424.9z M109.1,425.9L109.1,425.9c0.1-0.2,0.1-0.4,0.1-0.5
		c0-0.3,0-0.7-0.1-0.8s-0.4,0.2-0.6,0.3c-0.5,0.3-1,0.6-1.4,1c-1.4,1.1-2.8,2.2-4.2,3.3c-0.2,0.2-0.4,0.4-0.6,0.7
		c-0.1,0.1-0.1,0.3,0.1,0.4c0.1,0.1,0.2,0.1,0.3,0c0.4-0.4,1.2-0.2,1.4-0.9c0,0,0.1-0.1,0.2-0.1c0.7-0.3,1.5-0.5,2.3-0.6
		c0.7-0.1,1.4-0.4,2-0.7c0.4-0.1,0.6-0.5,0.6-0.8C109.1,426.8,109.1,426.3,109.1,425.9L109.1,425.9z M90.1,326.6h0.1
		c-0.2-0.5-0.3-1-0.5-1.5c-0.1-0.3-0.4-0.4-0.7-0.3c0,0-0.1,0-0.1,0c-0.1,0.1-0.2,0.2-0.3,0.3c-0.8,0.9-1.3,2.1-1.2,3.4
		c0,0.5,0.2,1,0.5,1.5c0.1,0.1,0.3,0.1,0.5,0.1s0.2-0.2,0.3-0.2c0.5,0,0.7-0.3,0.8-0.7c0.1-0.2,0.2-0.4,0.3-0.6
		c0.1-0.2,0.2-0.3,0.2-0.5C90.1,327.5,90.1,327,90.1,326.6L90.1,326.6z M109,415.9c-0.7,0-1.4,0.4-1.8,1.1c-0.4,0.7-0.7,1.4-0.9,2.2
		c-0.2,0.4,0.4,0.9,0.8,0.9c0.4,0,0.7-0.2,0.9-0.6c0.2-0.4,0.3-0.8,0.4-1.1s0.2-0.5,0.3-0.7c0.2-0.5,0.4-1,0.5-1.5
		C109.2,416,109.1,415.9,109,415.9L109,415.9z M100.6,419.2c0.2-0.4-0.1-0.6-0.4-0.8c-0.2-0.1-0.4-0.2-0.6-0.2
		c-0.5-0.1-1-0.2-1.4-0.3c-0.5-0.1-1,0.1-1.2,0.6c0,0.1,0,0.3,0,0.4c0.6,0.3,1.1,0.8,1.8,0.8c0.5,0,1.1,0,1.6,0.1
		C100.6,419.7,100.7,419.6,100.6,419.2L100.6,419.2z M110.4,405.1c0,0,0.1,0,0.1,0c0.8-0.4,1.1-1.4,0.7-2.2c0-0.1-0.1-0.1-0.1-0.2
		c-0.1-0.2-0.3-0.3-0.5-0.3c-0.3,0-0.2,0.3-0.3,0.4c-0.2,0.4-0.2,0.9,0,1.3c0.1,0.2,0,0.5,0,0.8C110.3,404.9,110.4,405,110.4,405.1
		L110.4,405.1z M112.8,359.1L112.8,359.1c0,0.5,0,1.1,0,1.6c0,0.1,0.1,0.2,0.2,0.2c0.1,0,0.2,0,0.3-0.1c0.1-0.2,0.2-0.4,0.3-0.6
		c0.1-1-0.1-2-0.7-2.8c0,0-0.1,0-0.1,0c0,0,0,0.1,0,0.1L112.8,359.1z M111.5,355.3c0-0.4-0.1-0.8-0.2-1.3c0-0.1-0.3-0.2-0.4-0.2
		s-0.3,0.2-0.3,0.3c0,0.4,0.2,0.9,0.3,1.3c0,0.3,0.1,0.5,0.1,0.8c0.1,0.1,0.3,0.2,0.4,0.3c0.1-0.1,0.1-0.3,0.2-0.4
		C111.6,355.9,111.6,355.6,111.5,355.3L111.5,355.3z"/>
	<path d="M74.8,417.4c0-0.8,0-1.6-0.1-2.4c-0.2-0.7-0.3-1.4-0.2-2.1c-0.3-0.8-0.4-1.6-0.4-2.4c-0.1-0.6-0.2-1.2-0.1-1.8
		c0-0.2,0-0.4-0.1-0.5c-0.3-0.6,0.1-1.2,0-1.8s-0.4-1.1-0.2-1.7c0.1-0.2,0.1-0.3,0-0.5c-0.2-0.7-0.3-1.4-0.3-2.1
		c-0.1-0.9-0.1-1.8-0.2-2.7c-0.3-2.3-0.7-4.7-1-7c0-0.8,0-1.6,0-2.4c0-0.1,0-0.3,0-0.4c0-0.1-0.1-0.2-0.1-0.2c-0.1,0-0.2,0-0.2,0
		c-0.4,0.5-1.1,0.8-1.2,1.6c0,0.2-0.7,0.5-1,0.5c-0.5-0.1-0.8-0.5-0.8-1c0-0.2,0-0.4,0.1-0.5c0-0.1,0.1-0.2,0.1-0.2
		c0.6-0.3,0.8-1.1,1.2-1.5l1.6-1.5c0.1-0.1,0.1-0.1,0.1-0.2c0-0.7,0.6-1,1.1-1.2c0.4-0.2,0.7-0.4,1-0.7c0.8-1,1.8-1.7,3-2.2
		c0.2-0.1,0.3-0.4,0.2-0.6c0,0,0,0,0-0.1c-0.1-0.2-0.2-0.4-0.5-0.3c-0.4,0.1-0.8,0.3-1.2,0.5c-0.2,0.1-0.5,0.2-0.7,0.3
		c-0.8,0-1.6,0.3-2.2,0.8c-0.2,0.1-0.4,0.2-0.6,0.1c-0.7-0.3-1.3,0.1-1.9,0.3c-0.4,0.2-0.8,0.3-1.3,0.2c0,0-0.1,0-0.1,0
		c-1,0.2-2,0.2-2.9,0.1c-0.2-0.1-0.4-0.1-0.7,0c-0.4,0.2-0.8,0.2-1.1-0.1c-0.3-0.2-0.6-0.3-0.9-0.2c-0.2,0.1-0.4,0-0.3-0.3
		c0-0.2,0.2-0.4,0.3-0.6c0.1-0.1,0.3,0,0.5-0.1c1.1-0.1,2.2-0.4,3.2-0.9c0.1,0,0.2,0,0.4,0l1.7-0.4c0.5-0.1,0.9-0.3,1.4-0.4
		c0.9-0.1,1.7-0.4,2.6-0.7c0.1,0,0.3-0.1,0.4-0.1c0.4-0.3,0.8-0.5,1.3-0.5c0.5,0,0.8-0.5,1.4-0.3c0.6-0.3,1.1-0.6,1.6-0.9
		c0.2-0.2,0.6-0.3,0.8-0.2c0.4,0.2,0.9,0.1,1.2-0.3c0.6,0.3,1-0.6,1.6-0.3c0.5-0.3,0.9-0.5,1.4-0.8c0.2-0.1,0.3-0.3,0.5-0.2
		c0.5,0.3,1,0,1.6-0.1c0.3,0,0.4,0.1,0.4,0.3s-0.1,0.8-0.1,1.2c0,0.4-0.2,0.7-0.4,1c-0.3,0.3-0.5,0.7-0.8,1.1
		c-0.1,0.1-0.2,0.2-0.3,0.2c-0.3,0-0.5,0.2-0.6,0.4c-0.1,0.3-0.3,0.5-0.6,0.6c-0.4,0.1-0.7,0.3-0.9,0.7c0,0.1-0.3,0.2-0.4,0.2
		c-0.4,0-0.7,0.2-0.8,0.6c-0.1,0.3-0.3,0.5-0.6,0.4c-0.4,0-0.6,0.3-0.9,0.5c-0.9,0.7-1.8,1.3-2.7,2c-0.6,0.5-1.3,1-2,1.4
		c-0.1,0-0.1,0.2-0.1,0.3c0,0.3-0.2,0.4-0.4,0.3s-0.2,0.1-0.2,0.2c0.1,1.4,0.3,2.8,0.4,4.3c0,0.3,0,0.6,0,0.9c0,0.4,0,0.7,0.5,0.8
		c0.4,0.2,0.8,0.5,0.9,1c0.3,0.8,0.6,1.6,1,2.3c0.1,0.2,0.2,0.4,0.3,0.6c0.4,0.5,0.8,1.1,0.9,1.7c0.3,0.7,0.5,1.4,0.9,2.1
		c0.2,0.5,0.4,1.1,0.5,1.7c0.1,0.4,0.2,0.8,0.4,1.1c0.3,0.6,0.5,1.2,0.6,1.8c0.1,0.6,0.4,1.1,0.7,1.5c0.2,0.2,0.3,0.4,0.4,0.7
		c0.1,0.2,0.1,0.5,0.2,0.8c0.2,0.8,0.7,1.4,1,2.2c0.4,1.1,0.8,2.3,0.9,3.6c0.3,0.5,0.4,1.1,0.3,1.7c0,0.6,0.5,1,0.5,1.6
		c0,0.2,0.1,0.4,0,0.5c-0.3,0.5-0.1,1-0.1,1.5c0,0.7,0.2,1.3,0.5,1.9c0,0.1-0.1,0.2-0.2,0.3s-0.2,0-0.2-0.1c-0.4-0.2-1,0.3-1.2-0.1
		c-0.2-0.4-0.3-0.8-0.4-1.3c-0.3-1.3-0.4-2.7-0.3-4.1c0.1-0.3,0-0.7-0.2-1c-0.2-0.2-0.1-0.6-0.3-0.8s-0.1-0.6-0.2-0.8
		c-0.2-0.7-0.4-1.3-0.6-2c-0.3-0.7-0.6-1.3-0.8-2s-0.5-1-0.7-1.5c-0.1-0.2-0.4-0.4-0.2-0.7c0-0.1,0-0.2-0.1-0.4
		c-0.2-0.3-0.6-0.7-0.5-1s-0.4-0.6-0.5-0.9c-0.2-0.7-0.5-1.4-0.6-2.2c-0.1-0.5-0.4-0.8-0.5-1.2c-0.1-0.4-0.2-0.8-0.4-1.1
		c-0.3-0.7-0.5-1.4-0.8-2.1c-0.2-0.7-0.5-1.4-1-2c-0.1,0-0.2,0-0.2,0c-0.1,0-0.2,0.1-0.2,0.2c0.1,1.1,0.2,2.2,0.4,3.3
		c0.1,0.8,0.2,1.6,0.4,2.4c0.1,0.4,0.1,0.9-0.1,1.3c-0.1,0.2-0.1,0.3,0,0.5c0.2,0.5,0.2,1,0.2,1.6c0,0.5,0.1,1,0.2,1.5
		c-0.1,0.8,0,1.6,0.3,2.4c0,0.1,0,0.3,0,0.4c-0.1,0.3-0.1,0.6,0.1,0.9c0.1,0.2,0.1,0.3,0.1,0.5c-0.1,0.9,0.1,1.8,0.5,2.6
		c0.1,0.5,0.2,1.1,0.2,1.6c-0.1,1,0,2,0.1,2.9c0,0,0,0.1,0,0.1c-0.2,0.7-0.1,1.5,0.3,2.2c0.2,0.5,0.2,0.5-0.2,0.7s-0.5,0.6-1,0.7
		s-0.6,0.2-0.8-0.2s-0.5-0.2-0.8-0.2s-0.4,0.2-0.3,0.4s0.2,0.4,0.4,0.5s0.2,0.2,0.1,0.4c-0.2,0.3-0.4,0.6-0.5,1
		c-0.1,0.4,0.1,0.9,0,1.3s-0.4,0.6-0.5,1.1c-0.1,0.8-0.5,1.5-1,2.1c-0.5,0.6-0.9,1.3-1,2c0,0.3-0.2,0.5-0.4,0.6
		c-0.4,0.2-0.7,0.5-1.1,0.8c-0.5,0.4-0.5,0.4-1.1,0.1c-0.2-0.1-0.3-0.2-0.5-0.2c-0.2-0.1-0.4-0.1-0.5,0.1c-0.5,1.1-1.1,2.2-1.6,3.4
		c-0.1,0.2-0.2,0.3-0.3,0.4c-0.1,0.1-0.3,0.3-0.3,0.4c-0.1,0.9-0.8,1.4-1.2,2c-0.3,0.4-0.6,0.8-0.8,1.2c-0.1,0.2-0.2,0.4-0.4,0.5
		c-0.3,0.3-0.6,0.7-0.8,1.1c-0.2,0.3-0.5,0.6-0.8,0.9c-0.3,0.6-0.8,1.1-1.4,1.3c-0.1,0.1-0.2,0.2-0.3,0.3c-1.3,1.9-2.7,3.7-4.3,5.4
		c-0.1,0.2-0.4,0.3-0.4,0.5c0,0.7-0.7,0.7-1,1.1c-0.1,0.1-0.2,0.1-0.2,0.1c-0.5-0.3-0.9,0-1.2,0.3s-0.8,0-1.1,0.3c0,0-0.2,0-0.3,0
		c-0.5-0.3-1.1,0.2-1.7-0.2s-0.9-0.5-1.4-0.8c-0.4-0.3-0.8-0.7-1-1.2c-0.1-0.3-0.4-0.5-0.7-0.4c0,0,0,0-0.1,0c-0.1,0-0.3,0-0.3-0.1
		c-0.2-0.5-0.5-0.8-0.3-1.4c0.2-0.7,0-1.4-0.6-1.8c-0.6-0.4-0.3-1.1-0.8-1.5c0-0.3,0-0.6,0-0.9c-0.1-0.7-0.2-1.4-0.3-2.1
		c0,0,0-0.1-0.1-0.1c-0.2-0.2-0.5-0.4-0.5-0.6c0-0.3,0-0.5,0.1-0.8c0.1-0.6-0.5-1.1-0.2-1.7c-0.2-0.5,0-1.1-0.4-1.5
		c-0.1-0.1,0-0.3,0-0.5c0.1-1,0.1-2.1,0.2-3.1s0.4-2,0.6-3c0.1-0.4,0.2-0.8,0.4-1.2c0.1-0.1,0.3-0.2,0.4-0.2c0.5,0,0.5,0,0.7-0.2
		c0.5-0.6,1.1-1.1,1.7-1.6c0.4-0.2,0.9-0.4,1.4-0.5c0.1,0,0.1-0.1,0.1-0.2s0-0.1-0.1-0.1s-0.1-0.1-0.1-0.1c-0.6-0.3-1.2-0.6-1.7-1
		c-0.4-0.2-0.8-0.6-1-1c-0.4-0.6-0.3-1.5,0.3-1.9c0.1-0.1,0.2-0.1,0.4-0.2c0.9-0.4,1.9-0.3,2.7,0.2c0.8,0.4,1.6,0.8,2.4,1.3
		c0.2,0.1,0.5,0.2,0.7,0.3c0.3,0.1,0.6,0.3,0.8,0.4c0.1,0.1,0.4,0.3,0.3,0.4c-0.1,0.3-0.4,0.2-0.5,0.1c-1.2-0.3-2.3-0.7-3.3-1.3
		c-0.7-0.4-1.5-0.6-2.3-0.5c-0.3,0-0.6,0.5-0.4,0.7s0.4,0.7,0.6,0.8c0.8,0.4,1.5,0.8,2.4,1.2c0.3,0.1,0.7,0.1,1,0.2
		c0.8,0,1.5,0.1,2.3,0.1c0.3,0,0.5-0.1,0.6-0.4c0.2-0.7,0.5-1.2,1-1.7c0.1-0.1,0.1-0.2,0.2-0.3c0.1-0.2,0-0.4-0.2-0.4
		c-0.6-0.1-1-0.4-1.4-0.9c-0.2-0.2-0.3-0.5-0.1-0.7c0,0,0.1-0.1,0.1-0.1c0.5-0.4,1.1-0.7,1.7-1c0.4-0.1,0.8-0.3,1.1-0.6
		c0.4,0.1,0.8-0.2,1.1-0.3c1.3-0.4,2.5-0.9,3.7-1.5c0.9,0,1.7-0.9,2.7-0.6c0.6-0.3,1.2-0.4,1.9-0.5c0.1,0,0.1-0.1,0.1-0.2
		c0-0.1-0.1-0.2-0.2-0.2c-0.1-0.1-0.2-0.1-0.4-0.1c-0.2,0-0.4,0.1-0.5,0.1c-1.1-0.5-2.2-0.1-3.3-0.4c-0.6-0.2-1.3-0.3-2-0.4
		c-0.3-0.1-0.7-0.2-1-0.3l-0.9-0.2c-0.3,0-0.6-0.1-0.9-0.2c-0.8-0.3-1.5-0.4-2.3-0.5c-0.5,0-0.9-0.6-1.5-0.3l-1.4-0.5
		c-0.5-0.2-1-0.3-1.6-0.4c-0.4,0-0.9-0.2-1.2-0.4c-1-0.3-2-0.8-2.8-1.5c0,0,0-0.2,0-0.2c0,0,0.1-0.1,0.1-0.1c0,0,0.1,0,0.1,0
		c0.3,0.1,0.7,0.2,1,0.4c0.7,0.4,1.4,0.6,2.1,0.7c0.5,0.1,0.9,0.3,1.4,0.4c0.7,0.2,1.5,0.3,2.2,0.4c0.5,0,1,0.5,1.5,0.4
		c0.5,0,1.1,0.1,1.5,0.2c0.9,0.2,1.7,0.4,2.6,0.7c0.5,0.2,1,0.3,1.6,0.2c0.2,0,0.3,0,0.5,0.1l1.7,0.3c0.7,0.1,1.4,0.2,2.1,0.3
		c0.4,0,0.8,0,1.2,0c0.2,0,0.4,0,0.7,0c0.7,0.1,1.4,0.2,2.1,0.1c0.7,0,1.4,0,2.1-0.3c0.3-0.1,0.6-0.2,0.8-0.3
		c0.1-0.1,0.2-0.1,0.3-0.2c0.9-0.2,1.4,0.2,1.2,1.1c-0.1,0.3-0.2,0.5-0.5,0.5c-0.4,0-0.7,0.2-1,0.4c-0.4,0.2-0.8,0.5-1.2,0.8
		c-0.4,0.4-0.9,0.3-1.3,0.6c-0.5,0.2-1.1,0.4-1.7,0.4c-1.4,0.2-2.8,0.6-4.2,1c-0.4,0.2-1,0-1.3,0.5c-0.4,0-0.9,0.1-1.3,0.1
		s-1,0.5-1.5,0.4c-0.3,0-0.6,0.1-0.8,0.2c-0.4,0.3-0.9,0.5-1.3,0.6c-0.4,0.2-0.9,0.2-1.3,0.3c0,0-0.1,0-0.1,0.1s0.1,0.1,0.2,0.1
		c0.3,0,0.7,0,1,0.2c0.1,0.1,0.3,0.1,0.4,0.1c1.4-0.1,2.8-0.1,4.2,0.2c0.7,0,1.3,0,2,0c0.1,0,0.2,0.1,0.2,0.2c0,0,0,0.2-0.1,0.2
		l-2.9,0.7c-1.1,0.2-2.2,0.2-3.3,0.1c-0.3,0-0.5,0.1-0.6,0.4c0,0.4-0.1,0.8-0.3,1.2c-0.2,0.5-0.1,1,0.2,1.4c0.1,0.3,0.4,0.6,0.8,0.6
		l0.9,0.1c0.6,0,0.7,0.1,0.9,0.6c0.1,0.2,0.1,0.5,0.1,0.8c0.1,0.2,0,0.4-0.2,0.6c-0.3,0.2-0.6,0.5-0.9,0.8c-0.6,0.7-1.3,1.1-2.2,1.2
		c-0.1,0-0.3,0.1-0.4,0.2c-0.1,0.1-0.1,0.2-0.1,0.3c0,0,0.1,0.2,0.2,0.2c0.5,0,0.9,0,1.3,0.1c0.3,0,0.7,0.1,1,0.3
		c0.5,0.2,0.7,0.7,0.5,1.1c0,0.1-0.1,0.1-0.1,0.2c-0.3,0.5-0.6,0.9-1,1.2c-0.8,0.6-1.6,1.1-2.5,1.5c-0.3,0.1-0.7,0.3-1,0.5
		c-0.2,0.1-0.5,0.2-0.7,0.3c-0.5,0.3-1.1,0.2-1.6,0.5c-0.6,0.3-1.2,0.5-1.8,0.5c-0.6,0.1-1.1,0.2-1.7,0.3s-1,0.3-1.5,0.5
		c-0.2,0.1-0.4,0.3-0.3,0.5c0.3,0.8,0.5,1.5,0.6,2.3c0,0.1,0.1,0.2,0.2,0.3c0.3,0.3,0.4,0.6,0.3,1c0,0.5,0.1,1,0.2,1.4
		c0.1,0.2,0.2,0.3,0.4,0.3c0.3,0,0.4,0.2,0.4,0.4c0,0.2-0.1,0.4-0.1,0.5c-0.2,0.6-0.2,1.1,0.4,1.5c0.2,0.2,0.4,0.4,0.5,0.6
		c0.2,0.6,0.7,0.9,1.2,1.2c0.3,0.2,0.5,0.3,0.8,0.5c1.1,0.6,1.2,0.6,2.2-0.2c1.4-1,2.7-2.3,3.8-3.7c0.4-0.5,0.9-0.8,1.1-1.5
		c0-0.1,0.1-0.1,0.2-0.2c0.8-0.5,1.3-1.3,2.1-1.8c0.5-0.6,1-1.2,1.5-1.7c0.4-0.5,0.9-1,1.3-1.5c0.2-0.2,0.4-0.5,0.5-0.8
		c0.4-0.6,0.8-1.2,1.2-1.8l1-1.7c0.3-0.5,0.6-1,0.9-1.5c0.5-0.5,0.8-1.2,0.9-1.9c0-0.3,0.2-0.5,0.5-0.6c0.6-0.3,1.1-0.8,1.5-1.3
		c0.1-0.1,0.2-0.3,0.2-0.5c0-0.3,0.1-0.6,0.3-0.9c0.4-0.7,1.2-1.4,0.9-2.4c0-0.1,0.1-0.2,0.1-0.2c0.2-0.1,0.4-0.2,0.6-0.3
		c0.6-0.2,1-0.9,0.8-1.5c-0.1-0.3,0.1-0.6,0.3-0.8c0-0.1,0.1-0.1,0.1-0.2c-0.1,0-0.2-0.1-0.2,0c-0.4,0.1-0.8,0.1-1.2-0.1
		c-0.2-0.1-0.4,0-0.6,0.1c-0.6,0.4-1.3,0.6-1.9,0.4c-0.4-0.1-0.8-0.2-1.2,0c0,0-0.1,0-0.2-0.1c0,0,0-0.1,0-0.1
		c0.6-0.8,1.7-1.1,2.6-0.8c0.2,0.1,0.4,0,0.5-0.1c0.3-0.2,0.6-0.4,1-0.4c0.5,0,1-0.3,1.3-0.8c0.2-0.4,0.7-0.6,1.1-0.3
		c0,0,0.1,0,0.1,0c0.1,0.1,0.2,0.1,0.4,0.1c0.3,0.1,0.7-0.1,0.8-0.4c0-0.1,0-0.1,0-0.2c0.1-0.3,0.1-0.5,0.1-0.8
		C74.8,418.3,74.8,417.8,74.8,417.4z M44.8,434.5c-0.2,0.5,0.5,1.1,0.3,1.8c0,0.1,0.1,0.3,0.2,0.5c0.1,0.4,0.4,0.6,0.7,0.5
		c0.2,0,0.4-0.1,0.6-0.2c0.8-0.4,1.6-0.7,2.4-0.8c0.9-0.3,1.9-0.5,2.8-0.8c0.8-0.4,1.7-0.7,2.6-0.9c0.1,0,0.2-0.1,0.2-0.1
		c0.5-0.2,1-0.5,1.4-0.8c0.3-0.2,0.7-0.5,1-0.7c0.2-0.2,0.4-0.8,0.2-0.8c-0.2-0.1-0.4-0.2-0.6-0.2c-0.6-0.1-1.2-0.1-1.7,0
		c-0.2,0-0.4,0-0.6,0c-0.4-0.1-0.7,0-1,0.1c-0.5,0.2-0.9,0.3-1.4,0.4c-0.5,0-1,0.2-1.4,0.3c-0.4,0.2-0.9,0.3-1.4,0.3
		c-0.9,0.2-1.8,0.5-2.7,0.7c-0.2,0-0.4,0-0.5-0.1c-0.2-0.1-0.2-0.3-0.1-0.4c0,0,0,0,0,0c0.1-0.1,0.2-0.2,0.3-0.2
		c1.1-0.5,2.2-1,3.3-1.5c0.4-0.2,0.9-0.2,1.3-0.4c1.2-0.5,2.4-1,3.6-1.4c0.1,0,0.2-0.2,0.2-0.3c0-0.4,0-0.8-0.1-1.2
		c0-0.1-0.2-0.2-0.3-0.2c-0.5,0-1.1-0.1-1.5-0.4c-0.3-0.1-0.5-0.1-0.8,0c-0.5,0.1-1,0.2-1.5,0.1c-0.7,0-1.4,0.1-2.1,0.3
		c-1,0.4-2.1,0.9-3.1,1.3c-0.5,0.2-0.5,0.2-0.4,0.7c0.2,1.3-0.1,2.6,0.3,3.9C44.9,434.1,44.8,434.3,44.8,434.5z"/>
	<path d="M115.5,230.3c-0.1,1-0.9,1.8-1.9,2c-0.7,0.2-1.3,0.5-1.9,0.8c-0.1,0-0.2,0.1-0.2,0.1c-1-0.1-1.7,0.5-2.5,0.7
		c-0.3,0.1-0.5,0.1-0.8,0.2c-0.1,0-0.2,0.1-0.3,0.2c0,0.1,0,0.2,0,0.4c0,0.1,0.1,0.1,0.2,0.1c0.3,0,0.6,0,0.9,0
		c0.8-0.2,1.7-0.2,2.5-0.3c0.3,0,0.5-0.1,0.8-0.2c0.5-0.2,1.1-0.2,1.6-0.1c0.3,0.1,0.5,0.3,0.4,0.6c0,0,0,0.1,0,0.1
		c-0.1,0.4-0.5,0.8-0.9,0.9c-0.5,0.1-0.9,0.3-1.3,0.6c-0.7,0.5-1.4,0.9-2.1,1.2c-0.7,0.2-1.3,0.7-1.6,1.4c-0.1,0.1-0.2,0.2,0,0.2
		s0.5,0.3,0.6,0.2c0.8-0.2,1.6,0.2,2.4-0.1c0.3-0.1,0.6-0.1,0.9,0c0.8,0.1,1.6-0.1,2.3-0.4c0.2-0.1,0.4-0.1,0.7-0.1
		c0.3,0.1,0.6,0,0.9-0.1c0.5-0.3,0.9,0.1,1.2,0.3c0.2,0.1,0.3,0.3,0.4,0.5c0.3,0.4,0.3,0.3,0,0.6c-0.3,0.3-0.6,0.6-0.8,0.9
		c-0.1,0.1-0.1,0.3,0,0.4c0,0,0.1,0,0.1,0c0.2,0.1,0.2,0.2,0,0.4c-0.8,0.5-1.7,1-2.5,1.5c-0.6,0.3-0.9,0.9-0.9,1.5
		c0,0.4,0,0.8-0.1,1.2c0,0.4,0.2,0.8,0.1,1.1c-0.1,0.3,0,0.7,0.2,1c0.2,0.5-0.4,0.8-0.1,1.2c-0.3,0.6-0.3,1.4,0,2c0,0.1,0,0.3,0,0.4
		c-0.1,0.2,0,0.5,0.3,0.5c1,0.5,0.9,1.6,1.2,2.4c0,0.1,0,0.2,0,0.3c-0.3,1.1-0.5,2.2-0.5,3.4c-0.3,0.7-0.4,1.4-0.4,2.1
		c0,0.4,0,0.7,0,1.1c-0.1,0.4,0,0.9,0.4,1.2c0.4,0.5,0.9,0.7,1.5,0.8c1,0.1,2,0.1,3,0c0.3-0.1,0.7,0.1,1,0c0.8-0.2,1.2,0.3,1.5,0.8
		c0.5,0.8,0.8,1.7,0.9,2.6c0.1,0.9,0.3,1.9,0.6,2.7c0.1,0.3,0,0.6,0.1,0.9c0.2,1.1,0.5,2.1,1,3c0.3,0.6,0.6,1.3,0.8,2
		c0.1,0.3,0.1,0.6,0.1,0.9c0,0.1,0,0.2,0,0.2c0,0-0.1-0.1-0.2-0.1l-2.2-4.1c-0.2-1.1-0.9-2-1-3c0-0.6-0.1-1.2-0.5-1.6
		c-0.1-0.1-0.1-0.5,0-0.8c0.1-0.4,0-0.8-0.2-1.1c-0.2-0.3-0.3-0.6-0.3-0.9c-0.1-0.4-0.4-0.6-0.8-0.6c-0.1,0-0.2,0-0.3,0
		c-1.4,0.1-2.7,0-4.1-0.2c-0.4-0.1-0.8-0.2-1.1-0.4c-0.4-0.2-0.6-0.1-0.7,0.3c-0.1,0.9-0.2,1.8-0.3,2.8c0,0.5,0,1,0.1,1.4
		c0.1,0.6,0.1,1.2,0,1.7c-0.2,0.3-0.1,0.7,0.2,1c0.2,0.1,0,0.3,0,0.5c-0.1,0.5-0.1,1-0.2,1.5c0,0.2,0.1,0.4,0.2,0.6
		c0.2,0.2,0.2,0.3,0.1,0.5c-0.3,0.5-0.3,1-0.2,1.5c0.1,0.2,0.1,0.3,0,0.5c-0.1,0.2-0.1,0.4-0.1,0.6c0.1,0.2,0.1,0.5,0.1,0.8
		c-0.2,0.5,0.3,0.8,0.2,1.3c-0.1,0.4-0.2,0.9-0.2,1.3c0,0.7,0.2,1.4,0.4,2c0.3,0.8,0.3,1.6,0.2,2.4c-0.1,0.3,0,0.5,0.2,0.7
		c0.1,0.1,0.2,0.2,0.2,0.3c0.7,0.4,1.1,1.2,1.1,2c0,0.1,0.2,0.2,0.4,0.3c0.2,0.1,0.3,0.1,0.5,0.1c0.5-0.2,0.7,0.1,0.9,0.4
		s0.3,0.4,0.1,0.6c-0.1,0.2-0.4,0.3-0.7,0.3c-0.8-0.2-1.7-0.2-2.5,0c-0.2,0.1-0.4,0.1-0.5,0c-0.4-0.2-0.8-0.2-1.2,0
		c-0.1,0.1-0.3,0.1-0.4,0c-0.6-0.4-1.2,0.1-1.8-0.2s-1.2,0-1.8-0.3c-0.8,0-1.5-0.1-2.2-0.2c-0.6,0-1.2-0.3-1.7-0.7
		c-0.3-0.2-0.4-0.6-0.7-0.6s-0.5,0.3-0.8,0.5c-0.1,0.1-0.1,0.1-0.2,0.1l-2.1,0.8c-0.3,0.1-0.6,0.1-0.9,0c-0.8-0.3-1.3-1-1.5-1.8
		c0-0.2-0.1-0.4-0.1-0.6c-0.2-0.5-0.3-1,0.4-1.3c0.3-0.1,0.3-0.4,0.3-0.7s0.1-0.3,0.3-0.2c0.3,0.1,0.6,0.2,0.9,0.3
		c0.2,0,0.3,0.2,0.2,0.4c-0.1,0.2,0,0.4,0.1,0.5c0.2,0.1,0.2,0.2,0.1,0.4c-0.1,0.1-0.2,0.3-0.2,0.5c0,0.2,0.1,0.4,0.3,0.5
		c0.4,0.3,1,0.3,1.4,0c0.9-0.6,1.6-1.2,2.3-2c0.8-1,1.2-2.2,1-3.5c-0.4-0.9-0.5-1.9-1.3-2.6c-0.4-0.5-1.2-0.7-1.8-0.4
		c-0.7,0.3-1.4,0.7-2.1,1.1c-0.7,0.5-1.4,1-2,1.6c-0.6,0.7-1.3,1.4-1.9,2.1c-0.4,0.5-1,0.9-1.6,1.1c-0.1,0-0.3,0-0.4,0
		c-0.1,0-0.2-0.1-0.2-0.1c0-0.1,0.1-0.1,0.1-0.2c1.1-0.7,2.1-1.6,2.9-2.6c0.5-0.7,1-1.2,1.7-1.7c0.2-0.2,0.4-0.3,0.6-0.5
		c0.8-0.9,1.8-1.5,2.9-1.8c0.8-0.4,1.9-0.1,2.4,0.6c0.8,0.8,1.3,1.8,1.7,2.9c0.2,1,0.3,2.1,0.2,3.1c0,0.2-0.1,0.3-0.2,0.5
		c-0.4,0.5-0.8,1-1.2,1.6c-0.2,0.2-0.7,0.3-0.5,0.6s0.5,0,0.8,0c0.1,0,0.3,0,0.4,0.1c1.2,0.4,2.6,0.5,3.8,0.2c0.3,0,0.6,0,0.8,0.3
		c0.1,0.2,0.3,0.3,0.5,0.4c0.4,0.1,0.8,0.1,1.2,0.1c0.2,0,0.3-0.2,0.3-0.3c0,0,0,0,0,0c-0.1-0.2-0.2-0.4-0.2-0.6
		c-0.1-0.3-0.1-0.5-0.1-0.8c0.1-0.5,0.5-0.9,0-1.3c0,0,0.1-0.2,0.1-0.4c0.1-0.4,0.1-0.9,0-1.3c-0.2-0.5-0.2-1.1,0.1-1.6
		c0.1-0.2,0.1-0.3,0-0.5c-0.4-0.7-0.5-1.5-0.4-2.3c0-0.3,0-0.5-0.1-0.8c-0.2-0.6-0.2-1.3-0.2-2c0.1-0.2,0.1-0.4,0-0.6
		c-0.5-0.5-0.2-1.1-0.2-1.6c0.1-0.3,0.1-0.6,0-0.9c-0.2-0.5-0.3-1.1-0.2-1.7c0-1.3,0-2.7-0.1-4c0-0.3-0.1-0.5-0.2-0.8
		c-0.4-0.7-0.1-1.4-0.3-2.1c0-0.1,0-0.2,0.1-0.2c0.2-0.6,0.2-1.2,0-1.8c-0.2-0.5,0.4-1.2-0.1-1.8c-0.1-0.3-0.2-0.7-0.2-1
		c0-0.1,0-0.3,0.1-0.4c0.3-0.3,0.3-0.7,0.1-1c-0.2-0.8-0.3-1.6-0.2-2.4c0.3-0.2,0.4-0.7,0.2-1c-0.2-0.7-0.2-0.6-0.9-0.5
		c-1,0.2-2,0.4-3,0.5c-0.7-0.1-1.4-0.5-1.7-1.1c-0.1-0.4-0.2-0.8-0.3-1.2c0-0.1,0.1-0.2,0.2-0.3c0.1-0.1,0.1-0.3,0.1-0.4
		c0-0.7,0-1.3,0.1-2c0.3-0.8,0.5-1.7,0.7-2.5c0.5-0.9,0.8-1.9,1.1-2.9c0.3-0.6,0.7-1.2,1.1-1.8c0.2-0.2,0.6-0.3,0.9-0.2
		c0.3,0.2,0.4,0.4,0.5,0.8c0,0.1-0.1,0.2-0.1,0.2c-0.8,0.5-1.2,1.4-1.1,2.2c0,0.1,0,0.2,0,0.4c-0.5,1.1-0.8,2.3-0.9,3.6
		c0,0.4-0.1,0.7-0.3,1c-0.2,0.1-0.1,0.5-0.1,0.8s0,0.3,0,0.4c-0.7,0.6,0.1,1.1,0.1,1.7c0,0.2,0.9,0.3,1.1,0.1c0.8-0.5,1.6-0.8,2.5-1
		c0.3-0.1,0.5-0.3,0.4-0.6c-0.2-0.6,0.2-1.1,0.1-1.7c0-0.5,0-1.1,0.1-1.6c0-0.6,0.1-1.1,0.1-1.7c0-0.1,0-0.3,0.1-0.4
		c0.2-0.2,0.3-0.6,0.1-0.9c-0.1-0.2-0.1-0.3-0.1-0.5c0.1-0.5,0-1-0.2-1.4c-0.1-0.1-0.1-0.3,0-0.4c0,0,0,0,0.1-0.1
		c0.2-0.1,0.4-0.3,0.6-0.4c0.3-0.1,0.5-0.3,0.7-0.6c0.2-0.4,0.6-0.4,0.8-0.7s0.4-0.6,0.8-0.7c0.1,0,0.3-0.2,0.3-0.4s0.1-0.2-0.1-0.3
		c-0.9-0.1-1.8-0.1-2.7,0.2c-0.2,0.1-0.5,0.1-0.7,0c-0.6-0.3-1.3-0.2-1.9,0.2c-0.4,0.3-0.9,0.3-1.2,0c-0.2-0.1-0.5-0.2-0.8-0.1
		c-0.4,0-0.7-0.2-0.8-0.5c-0.1-0.2-0.2-0.5-0.2-0.8c-0.1-0.3,0-0.6,0.2-0.9c0.3-0.4,0.7-0.7,1.1-0.9c0.8-0.4,1.5-0.9,2.2-1.5
		c0,0,0-0.1,0-0.1c0,0-0.1,0-0.1,0c-0.5,0-1.1,0-1.6,0s-0.8,0.2-1.2,0.2c-0.5,0-1.1-0.1-1.5-0.3c-0.6-0.3-1.2-0.5-1.8-0.8l-0.8-0.4
		c-0.6-0.3-1.1-0.8-1.2-1.5c-0.1-0.4-0.3-0.8-0.6-1c-0.5-0.4-0.7-1-0.5-1.6c0.1-0.2,0.3-0.4,0.6-0.3c0,0,0.1,0,0.1,0
		c0.6,0.3,1.2,0.8,1.6,1.3c0.3,0.5,0.7,1,1,1.4c0.1,0.1,0.2,0.2,0.3,0.3c0.4,0.3,0.8,0.5,1.2,0.7c0.4,0.2,0.6-0.3,1-0.4
		c0.3-0.1,0.6-0.3,0.8-0.5c0.1,0,0.1-0.1,0.2-0.2c-0.1,0-0.1-0.1-0.2-0.1l-2.2-0.5c-0.1,0-0.2-0.1-0.3-0.2c-0.3-0.4-0.7-0.8-1.1-1.1
		c-0.3-0.3-0.5-0.6-0.7-1c-0.2-0.3-0.1-0.8,0.2-1l0.5-0.3c0.2-0.1,0.3-0.2,0.5-0.2c0.5-0.3,0.8-0.8,1-1.4c0.2-0.4-0.3-0.7-0.5-1.1
		c-0.4-0.9-0.9-1.7-1.4-2.6c-0.1-0.1-0.2-0.2-0.3-0.2c0,0-0.1,0-0.1,0.1c-0.5,0.6-1.1,1.1-1.9,1.3c-0.1,0-0.3,0-0.4,0
		c-0.2,0-0.4,0.2-0.5,0.4c-0.3,0.7-0.5,1.5-0.6,2.3c0,0.3-0.3,0.7-0.4,1c0,1.1-0.6,2-0.7,3.1c0.1,0.7-0.1,1.4-0.3,2.1
		c0.2,0.7-0.2,1.3,0,2c0,0.1,0,0.3,0,0.4c-0.2,0.7-0.2,1.5-0.2,2.3c0,0.4,0,0.9,0,1.3c-0.1,0.5-0.1,1.1,0,1.6c0,0.4,0,0.8,0,1.2
		c-0.1,1.6-0.2,3.2-0.2,4.8c0,0.4,0,0.9,0,1.3c-0.1,1.2,0.1,2.3-0.1,3.5c0,0.2,0,0.4,0,0.7c0,0.4,0,0.7,0,1.1c-0.1,0.3-0.1,0.7,0,1
		c0.1,0.2,0,0.4,0,0.6c0.1,0.5,0.1,1.1,0,1.6c-0.1,0.5-0.1,1.1-0.1,1.6c0,0.5,0,1.1-0.1,1.6c-0.1,0.5,0.1,1-0.1,1.6s0.1,1-0.2,1.4
		s0.1,0.9,0,1.3c-0.1,0.5-0.2,1-0.2,1.5c0,1.5-0.2,2.9-0.5,4.4c-0.1,0.5-0.1,1.1-0.1,1.6l-0.2,2.6c0,0.1-0.1,0.1-0.1,0.1
		c-0.1,0-0.2,0-0.2-0.1c-0.2-0.2-0.3-0.4-0.3-0.7c0-0.3-0.1-0.5-0.3-0.7l0,0c0.1-0.2,0.3-0.5,0.3-0.8c0-1.2,0-2.3,0.1-3.5
		c0-1.5,0.2-2.9,0.4-4.4c0.2-0.8,0-1.7,0.1-2.5c0-0.1-0.1-0.3-0.2-0.5s-0.1-0.4,0-0.5c0.4-0.3,0.5-0.9,0.3-1.4c0-0.2,0-0.4,0-0.5
		c0.3-1.1,0.3-2.2,0.1-3.3c0-0.1-0.1-0.2,0-0.2c0.3-0.7,0-1.4,0.1-2.1s0.1-1.3,0.2-2c0-0.3,0-0.5-0.1-0.8c0.1-1.2,0.1-2.3,0.2-3.5
		c0-0.7,0.1-1.3,0.1-2c0.1-0.9,0-1.8-0.1-2.6c0-0.5,0.1-1.1,0.2-1.6c0.1-0.3,0.1-0.5,0.1-0.8c0-0.5,0-1,0-1.4c0-1,0.2-2,0.2-2.9
		s0.3-1.9,0.2-2.9c0-0.6,0.1-1.2,0.3-1.9c0.2-0.5,0.3-1.1,0.2-1.7c0-0.1,0.1-0.2,0.1-0.4c0.2-0.5,0.4-1.1,0.5-1.6
		c0.1-0.4,0.2-0.9,0.4-1.3c0.1-0.2,0.1-0.5,0.2-0.8c0.2-0.8,0.5-1.6,1.4-1.9c0.3-0.1,0.4-0.3,0.4-0.6c0-0.5,0.4-0.8,0.9-0.8
		c0.7,0,1.4,0.1,2.1,0.3c0.4,0.2,0.7,0.4,0.9,0.8c0.3,0.4,0.2,1,0.9,1.2c0.1,0,0.2,0.4,0.2,0.6c0.3,0.6,0.7,1.3,1,1.9
		c0,0.1,0.3,0.2,0.5,0.1c1.2-0.5,2.5-0.8,3.7-0.9c0.1,0,0.2,0,0.3-0.1c0.8-0.7,1.7-0.2,2.6-0.1c0.2,0,0.3,0.2,0.5,0.3s0.1,0.4,0,0.5
		c-0.6,0.1-1,0.7-1.8,0.6c-0.2,0-0.5,0.2-0.7,0.3s-0.5,0-0.8,0.1c-0.6,0.1-1,0.7-1.6,0.7s-0.9,0.6-1.5,0.6c-0.1,0-0.2,0.2-0.2,0.3
		c-0.2,1.1,0.1,1.5,1.2,1.4c0.7-0.1,1.4-0.1,2.1-0.3c0.8-0.1,1.5,0,2.2-0.2c0.8,0,1.5,0.1,2.2,0.3L115.5,230.3z"/>
	<path d="M108.7,481.9c0,0.4-0.1,1.1-0.1,1.9c0,0.1-0.1,0.2-0.2,0.2c-0.5,0.2-1.1,0.3-1.7,0.3c-0.5,0-1.1,0-1.6,0.2
		c-0.7,0.3-1.6,0.4-2.3,0.2c-0.2,0-0.3,0-0.5,0.1c-1.2,0.9-2.4,0.5-3.7,0.3c-0.3-0.1-0.7-0.1-1-0.1c-0.3,0-0.6,0-0.9,0.2
		c-0.4,0.4-1.1,0.5-1.6,0.2c-0.8-0.4-1.8-0.4-2.6,0.1c-0.6,0.4-1.4,0.4-1.9-0.2c-0.2-0.2-0.4,0-0.6-0.1c-0.6-0.2-1.1,0.3-1.7,0.1
		s-1.2,0-1.7,0.1c-0.7,0.1-1.4,0.1-2.1,0.1c-0.5,0-1-0.3-1.6-0.4c-0.7-0.1-1.4-0.1-2.1,0c-0.6,0.1-1.1,0.4-1.7,0
		c-0.4,0.2-0.9,0.3-1.4,0.4c-0.5,0-1-0.2-1.4-0.1c-0.8,0.3-1.7,0.2-2.5-0.2c-0.2-0.1-0.6,0-0.9,0c-0.8,0.1-1.7,0.1-2.5-0.1
		c-0.3-0.1-0.8,0.1-1.2,0s-0.7-0.1-1,0.3c-0.2,0.2-0.5,0.3-0.7,0.2c-0.6-0.4-1.5-0.3-2,0.3c-0.2,0.2-0.5,0.3-0.7,0.1c0,0,0,0,0,0
		c-0.7-0.3-1.5-0.4-2.2-0.2c-0.4,0-0.7,0.1-1.1,0.2c-1.2,0-2.5,0.2-3.6,0.8c-0.2,0.1-0.4,0.1-0.6,0.1c-0.5-0.2-0.7,0-0.9,0.4
		c-0.1,0.2-0.3,0.4-0.5,0.2c-0.2-0.2-0.5-0.3-0.7-0.2c-0.3,0.2-0.6,0.4-1,0.5c-0.3,0-0.6,0-0.9,0c-1.2,0.2-2.4,0.5-3.5,1.1
		c-0.2,0.1-0.4,0.2-0.6,0.2c-1.5,0-3,0.2-4.5,0.6c-0.5,0.1-0.9,0.3-1.4,0.4c-0.2,0-0.4,0.1-0.6,0.1c-0.1,0-0.2,0-0.3-0.1
		c0,0,0-0.2,0-0.3c0.3-0.3,0.5-0.8,0.9-0.9c0.8-0.4,1.2-1.2,2.1-1.4c0.3-0.1,0.3-0.5,0-0.8s-0.8-0.4-1,0s-0.6,0.9-1,0.2
		c-0.4,0-0.7,0-1.1,0.1c-0.4,0.1-0.7,0.3-1,0.5c-0.3,0.3-0.8,0.2-1-0.1c0,0-0.1-0.1-0.1-0.1c-0.2-0.3-0.7-0.4-1-0.2
		c-0.6,0.1-1.2,0.4-1.7,0.8c-0.3,0.3-0.7,0.3-1,0.1c-0.6-0.4-1.4-0.6-2.1-0.5c-0.2,0-0.5-0.1-0.8-0.1c-1.5-0.2-3-0.2-4.4,0
		c-0.2,0-0.4-0.1-0.6-0.2c-0.3-0.3-0.8-0.3-1.1,0c0,0,0,0,0,0c-0.1,0.1-0.3,0.1-0.5,0c-0.7-0.4-1.4-1-1.7-1.8c0-0.1,0-0.2,0-0.3
		c0.1-0.4,0.6-0.6,0.4-1.2c0,0,0.1-0.2,0.2-0.2c0.6-0.2,1.2-0.5,1.8-0.7c0.5-0.1,1-0.1,1.4,0.1c0.3,0.1,0.6,0.1,0.9,0
		c1-0.3,2-0.3,3,0c0.2,0.1,0.4,0.1,0.6,0c0.9-0.3,1.9-0.5,2.8-0.8c0.2-0.1,0.4-0.2,0.6-0.2c0.6,0.2,1.3,0.2,1.9,0
		c0.6-0.1,1.2-0.1,1.8-0.1c0.4,0,0.7-0.1,1-0.4c0.2-0.3,0.4,0,0.5,0.1s0.3,0.2,0.4,0c0.1-0.5,0.3-0.7,0.8-0.4c0.1,0,0.2,0,0.3,0
		c0.5-0.3,1-0.4,1.5-0.2c0.1,0.1,0.4,0.1,0.5,0c0.5-0.6,1.2-0.2,1.8-0.2c0.3,0,0.6-0.1,0.9-0.3c0.5-0.4,1.1-0.4,1.7-0.2
		c0.2,0.1,0.5,0.1,0.8,0c0.3-0.1,0.5-0.1,0.8-0.1c0.7,0.2,1.4,0.1,2-0.2c0.6-0.3,1.4-0.3,2,0c0.6,0.3,1.4,0.3,2,0
		c0.8,0.2,1.6-0.4,2.3,0.3c0.6,0.1,1.2,0.1,1.9,0c0.6-0.1,1.3-0.1,1.9-0.1c0.4,0.1,0.8,0,1.2-0.2c0.3-0.1,0.7-0.1,1.1,0
		c0.6,0.2,1.3,0.2,1.9-0.1c0.4-0.1,0.7-0.1,1.1-0.2c0.4-0.1,0.9,0,1.2-0.3c0.5-0.4,0.8-0.7,1.3-0.1c0,0,0.3,0.1,0.3,0
		c0.4-0.6,1-0.3,1.5-0.2c0.4,0.1,0.8-0.1,1-0.3c0.3-0.2,0.6-0.2,0.9,0c0.6,0.5,1.5,0.4,2.1-0.1c0.6-0.4,1.3-0.5,1.9-0.3
		c0.9,0.2,1.9,0.2,2.9,0.1c0.7,0,1.4-0.2,2.1-0.3c0.7-0.3,1.4,0,2-0.3c0.3-0.2,0.7,0,1,0.3c0.6,0.6,0.8,0.5,1.4-0.1
		c0.3-0.2,0.4-0.4,0.8-0.1s1,0.2,1.5,0.2s1,0.3,1.3-0.2c0,0,0.1-0.1,0.2-0.1c0.9,0.5,1.9-0.5,2.7,0.2c0.1,0.1,0.4,0,0.6,0l2.5-0.2
		c0.3,0,0.5-0.1,0.8-0.2c0.5-0.2,0.7-0.1,0.9,0.3c0.1,0.1,0.2,0.2,0.3,0.3c0.5,0.1,1,0.2,1.6,0.3c0.2,0,0.4-0.1,0.5-0.2
		c0.7-0.7,1-0.8,1.6-0.2c0.3,0.3,0.7,0.5,1.1,0.5c0.6,0.1,1.2,0.2,1.8,0.6c0.3,0.2,0.7,0.3,1,0.5
		C108.7,480.6,108.7,480.6,108.7,481.9z"/>
	<path d="M109.9,165.7c-0.1,0.6-0.1,1.3-0.1,2c0,0.8,0,1.7,0.1,2.5c0,0.3,0,0.5,0,0.8c-0.1,0.4-0.2,0.8,0,1.2
		c0.1,0.2-0.1,0.2-0.1,0.3c-0.2,0.5-0.2,1.1-0.1,1.7c0.1,0.6,0.2,1.1,0.3,1.7c-0.4,0.5-0.1,1-0.2,1.5c0,0.6-0.1,1.1-0.2,1.7
		c-0.1,0.3,0.1,0.8,0,1.2c0,0.6,0,1.1,0,1.7c0.1,0.6,0.1,1.2,0,1.7c0.3,0.5-0.1,0.9,0,1.4c0.1,0.5,0.1,1,0,1.4
		c0.1,0.4,0.2,0.8,0.3,1.1c0,0.1,0.2,0.2,0,0.3c-0.4,0.2-0.3,0.5-0.2,0.8c0.2,0.6,0.3,1.2,0.2,1.8c-0.1,0.4-0.1,0.9,0,1.3
		c0.1,0.4,0.3,0.9,0.3,1.3s-0.2,0.9-0.2,1.3c0.1,0.8,0.1,1.5,0.1,2.3c0,0.1,0,0.3,0,0.4c0,0.7,0.1,1.4,0.2,2.1
		c0,0.7-0.2,1.4-0.2,2.1c0,1.1,0.1,2.1,0.3,3.2c0.1,0.5-0.3,0.9-0.2,1.4c0.2,0.5,0.2,1,0.1,1.4c-0.1,0.2,0,0.4,0,0.5
		c0.1,0.3,0.2,0.6,0.1,0.9c-0.1,1.2,0,2.5-0.1,3.7c-0.1,1.1-0.1,2.1,0.1,3.2c0.1,0.3,0.1,0.5-0.1,0.8c-0.1,0.2-0.1,0.3-0.1,0.5
		c0,0.9,0,1.9-0.3,2.8c0,0.6,0,1.1,0,1.7c0,0.4,0,0.8-0.1,1.2c-0.2,0.6-0.1,1.3,0.2,1.8c0.2,0.4,0.2,0.8,0,1.2
		c-0.2,0.6-0.7,0.8-1.2,0.3c-0.2-0.2-0.2-0.4,0.1-0.8c0.1-0.1,0.2-0.3,0.2-0.5c-0.3-0.8-0.3-1.6-0.1-2.4c0.2-1.4,0.2-2.8,0-4.1
		c-0.1-1.1,0-2.3-0.1-3.4c0-0.1,0.1-0.2,0.2-0.4c0.2-0.3,0.2-0.6,0.1-0.9c0-0.1,0-0.3,0-0.4c0-0.6,0.4-1.2,0.1-2
		c-0.1-0.6-0.2-1.2-0.1-1.8c0-0.1,0-0.2,0-0.3c0.4-1.4,0-2.8-0.1-4.2c0-0.2,0-0.4,0-0.6c0-0.2,0-0.4,0-0.5c0.1-0.5-0.5-0.7-0.3-1.2
		c0.1-0.4,0.1-0.8,0-1.2c0-0.4,0-0.9,0-1.3c0-0.4-0.2-0.8-0.2-1.2c0-0.3,0-0.5,0-0.8c0.1-0.5,0-1.1-0.2-1.6
		c-0.1-0.3-0.1-0.5-0.1-0.8c-0.1-0.5,0.5-1.1-0.1-1.7c0.1-0.5,0.1-1,0-1.6c0-0.2,0-0.4,0-0.7c0.1-0.3,0.1-0.6-0.1-0.9
		c-0.3-0.8-0.4-1.6-0.3-2.5c0-0.8-0.1-1.7-0.2-2.5c0-0.3-0.2-0.6,0.1-0.9c0,0,0-0.2,0-0.2c0-0.5-0.4-0.8-0.2-1.3
		c0.2-0.4,0.2-0.9,0-1.3c0-0.1,0-0.2,0-0.2c0.4-1.1,0.4-2.3,0.2-3.5c0.2-0.7-0.2-1.4,0-2.1s0.2-1.4,0.4-2.1c0.1-0.5,0.1-1.1,0-1.6
		c0-0.2,0-0.4,0-0.6c0.2-0.8,0.3-1.7,0.1-2.5c0,0,0-0.1,0-0.1c0.2-1.1,0.1-2.3-0.1-3.4c-0.1-0.7-0.1-1.4-0.1-2.1
		c-0.1-0.8-0.1-1.7,0.1-2.5c0.1-0.2,0-0.4-0.1-0.6c-0.2-0.4-0.3-0.9-0.2-1.4c0.1-0.8,0.1-1.7,0-2.5c-0.2-0.9-0.2-1.8-0.1-2.8
		c0-0.1,0-0.3,0-0.4c-0.2-1-0.2-2,0-3c0.1-0.4,0-0.8-0.1-1.2c-0.1-0.3-0.1-0.6,0-0.9c0.1-0.7,0.1-1.3,0-2c-0.2-1.2-0.1-2.4,0.1-3.6
		c0-0.1,0.2-0.3,0.1-0.4c-0.1-1.1,0-2.1,0.2-3.2c0-0.3,0-0.5,0-0.8c-0.1-0.3-0.1-0.5,0-0.8c0.1-0.5,0.2-1.1,0.1-1.6
		c0-0.3,0-0.6,0.1-0.9c0.2-0.3,0.2-0.6,0-0.9c-0.1-0.1,0-0.2,0-0.4c0-0.8-0.1-1-0.8-1.1c-0.7-0.2-1.4-0.1-2,0.1
		c-0.4,0.2-0.8,0.2-1.2,0c-0.5-0.2-0.8-0.7-0.6-1.3c0-0.1,0-0.1,0.1-0.2c0.4-0.6,0.2-1.2,0.6-1.8c0.3-0.5,0.5-1,0.7-1.6
		c0.2-0.6,0.5-1.2,0.8-1.8c0.7-1.3,1.4-2.5,2.2-3.8c0.2-0.3,0.2-0.6,0.1-0.9c-0.4-0.8,0-1.5,0.1-2.3c0.1-0.2,0.2-0.3,0.4-0.4
		c0.4-0.1,0.8,0,1,0.3c0.1,0.1,0.2,0.3,0.2,0.5c0.2,0.6,0.3,1.2,0.5,1.8c0.2,0.5,0.3,1,0.6,1.5c0.5,1.2,1.1,2.2,1.9,3.2
		c0.2,0.3,0.4,0.6,0.5,0.9c0.4,1.1,0.8,2.2,1.3,3.2c0,0.2,0,0.3-0.1,0.5c-0.2,0.2-0.3,0.3-0.5,0.4c-0.4,0.2-0.9,0.2-1.2,0.6
		c-0.8,0.1-1.5,0.6-2.4,0.7c-0.7,0.1-0.8,0.1-0.8,0.8c0,0.3,0,0.6,0,0.9s-0.1,0.7-0.1,1c0,0.2,0,0.4,0,0.6c0.1,0.5,0.1,1,0,1.5
		c-0.2,1.4-0.2,2.7-0.2,4.1c0,0.1,0.1,0.3,0,0.4c-0.3,0.6-0.3,1.2,0,1.8c0,1,0,2.1-0.1,3.1c0,0.3,0,0.5,0,0.8c0.1,0.6,0,1.3-0.1,1.9
		c-0.1,0.3-0.1,0.6,0.1,0.9c0.2,0.5,0.2,1.1,0.1,1.6c-0.1,0.5,0,1,0.1,1.5c0.1,0.3,0.1,0.6,0,0.9c-0.1,0.3-0.1,0.7,0,1
		c0.1,0.4,0.1,0.9,0,1.3c-0.1,0.2-0.1,0.4,0,0.7c0.2,0.6,0.2,1.1,0.1,1.7c0,0.3,0.2,0.7,0.1,1s0.3,0.7,0,1.1c-0.1,0.3-0.1,0.7,0,1
		c0.3,1,0,2,0.2,3C110.1,165.3,110,165.5,109.9,165.7z M105.6,131.8C105.5,131.8,105.5,131.8,105.6,131.8c0.7-0.2,1.5-0.4,2.2-0.5
		c0.2,0,0.4-0.2,0.5-0.4c0-0.1,0.1-0.2,0.2-0.4c0.1-0.2,0.4-0.2,0.6-0.1c0,0,0.1,0.1,0.1,0.1c0.1,0.1,0.2,0.2,0.2,0.3
		c0.1,0.2,0.3,0.3,0.6,0.2c0.8,0,1.5-0.3,2.1-0.7c0,0,0.2,0,0.3,0c0.7-0.2,0.7-0.2,0.4-0.7c-0.2-0.3-0.4-0.7-0.5-1.1
		c-0.7-1.9-1.8-3.7-3.2-5.2c-0.1-0.2-0.4-0.2-0.5-0.1c-0.1,0.1-0.2,0.1-0.2,0.3c-0.2,1-0.8,1.8-1,2.8c-0.2,0.8-0.5,1.5-0.9,2.2
		c-0.3,0.4-0.4,0.8-0.5,1.2c0,0.2-0.1,0.3-0.2,0.5c-0.2,0.4-0.5,0.7-0.7,1.1S105.1,131.7,105.6,131.8z"/>
	<path d="M65,336.5c0.8,0.1,1.6-0.1,2.3-0.4c0.6-0.1,1.3-0.3,1.9-0.6c0.2-0.2,0.7-0.1,1,0c0.5,0.1,1,0,1.4-0.3
		c0.7-0.3,1.4-0.4,2.1-0.4c0.7-0.1,1.2-0.5,1.9-0.5s1.3-0.2,2-0.3s1.3-0.5,2-0.6c0.9-0.2,1.8-0.3,2.8-0.4c0.2,0,0.4,0,0.7-0.1
		c0.5-0.2,1-0.4,1.5-0.4c0.4-0.1,0.9,0,1.3,0.3c0.4,0.2,0.7,0.4,0.6,0.9c0,0.3,0,0.5,0.1,0.8c0.3,0.7,0.3,1.4,0.2,2.1
		c0,0.2,0.1,0.4,0.2,0.6c0.3,0.5,0.4,1.1,0.5,1.6c0.3,1,0.6,1.9,1,2.9c0.1,0.2,0.1,0.4,0,0.6c-0.3,0.7-0.2,1.5,0.3,2
		c0.2,0.2,0.1,0.3,0,0.5c-0.1,0.2-0.2,0.4-0.2,0.6c0.2,1,0.4,2,0.5,3c0.1,0.5,0.2,0.5,0.7,0.2l0.4-0.2c0,0,0.1,0,0.1,0.1
		c0,0,0,0.1,0,0.1c-0.3,0.4-0.7,0.7-0.7,1.2c-0.4,0.3-0.3,0.8-0.2,1.2c0.1,0.7,0.1,1.3,0.1,2c0,0.5-0.3,1-0.8,1.1
		c-0.1,0-0.2,0-0.3-0.1c-0.2-0.4-0.3-0.8-0.4-1.1c-0.1-0.3-0.4-0.6-0.7-0.5c-0.1,0-0.2,0.1-0.3,0.1c-0.8,0.5-1.6,1.2-2.2,1.9
		c-0.1,0.2-0.4,0.4-0.6,0.4c-0.3,0.1-0.5,0.3-0.8,0.5c-0.3,0.3-0.6,0.5-1,0.7c-0.4,0.2-0.8,0.4-1.1,0.8c-0.2,0.1-0.3,0.2-0.5,0.2
		c-0.7,0.3-1.4,0.7-2,1.1c-0.5,0.3-1,0.6-1.5,0.7c-0.4,0.1-0.7,0.2-0.9,0.5c-0.3,0.4-0.7,0-1,0.2s-0.7,0-0.9,0.4
		c0,0.1-0.2,0.2-0.3,0.2c-0.7,0-1.3,0.7-2.1,0.4c-0.2,0-0.4,0.1-0.6,0.2c-0.4,0.2-0.7,0.4-1.1,0.5c-0.2,0.1-0.5,0.1-0.8,0.1
		c-1.1-0.2-2.1-0.2-3.2-0.1c-0.7,0.2-1.3,0.1-1.9-0.2c-0.7,0-1.4-0.2-2-0.7c-1.1-0.6-2.1-1.4-2.9-2.3c-0.3-0.3-0.5-0.7-0.9-0.8
		c-0.1-0.5-0.5-0.8-0.9-1.1c-0.1-0.1-0.2-0.3-0.2-0.5c-0.1-0.4-0.3-0.7-0.5-1c-0.3-0.3-0.5-0.7-0.7-1.1c-0.2-0.4-0.3-0.9-0.1-1.4
		c0.2-0.7,0.2-1.5,0-2.2c-0.1-0.6-0.1-1.1-0.1-1.7c0-0.7-0.3-1.5,0-2.2c0,0,0-0.1,0-0.1c-0.5-0.6-0.2-1.4-0.3-2
		c-0.1-0.7-0.1-1.4,0-2.1c0,0,0-0.1,0-0.1s0-0.3-0.1-0.4c-0.5-0.6-0.1-1.4-0.6-2c-0.2-0.3-0.1-0.5,0.1-0.7c0.2-0.2,0.4-0.3,0.6-0.5
		c0.1-0.1,0.2-0.1,0.2-0.1c0.6-0.1,1.1-0.3,1.6-0.6c0.6,0.1,1.1-0.4,1.7-0.3s1-0.3,1.5-0.3c0.5,0,1.1-0.1,1.6-0.2
		C63.5,336.5,64.3,336.1,65,336.5z M87.2,348.2h0.1c0-0.2,0-0.4,0-0.7c0-0.6-0.2-1.1-0.4-1.6c-0.2-0.5-0.3-1-0.4-1.6
		c0-0.6-0.4-1-0.5-1.6s-0.2-1-0.2-1.5c0-0.6-0.1-1.2-0.3-1.7c-0.1-0.2-0.2-0.4-0.1-0.6c0.2-0.4-0.3-0.7-0.3-1c0-0.3,0.1-0.7,0.2-1
		c0-0.2-0.1-0.4-0.2-0.5c-0.1-0.3-0.4-0.6-0.4-1.1s-0.6-0.7-0.4-1.2c-0.1-0.1-0.2-0.1-0.3-0.2c-0.2,0-0.4,0.1-0.6,0.2
		c-0.3,0.3-0.7,0.4-1.1,0.4c-0.2,0-0.4,0.1-0.7,0.2c-1.3,0.5-2.6,0.8-4,0.9c-0.6,0.1-1.1,0.2-1.6,0.5c-0.1,0.1-0.3,0.2-0.3,0.2
		c-0.8-0.4-1.4,0.3-2.1,0.5c-0.3,0.1-0.6,0.1-0.9,0.2s-0.6,0.1-0.9,0.2c-1,0.3-2.2,0.4-3.2,0.8c-0.5-0.2-1.1,0.4-1.6,0
		c-0.2-0.2-0.4,0.1-0.6,0.1c-0.7,0.2-1.4,0.4-2.2,0.5c-0.5,0-1.1-0.2-1.6,0.1s-1.1,0-1.7,0.2c-0.4,0.1-0.8,0.1-1.2,0.2
		c-1,0.3-2,0.5-3,0.5c-0.3,0-0.4,0.3-0.3,0.6c0.3,0.8,0.6,1.6,0.8,2.4c0.2,0.5,0.2,1.1,0.3,1.6c0.1,0.3,0.1,0.7,0,1
		c-0.1,0.3,0.2,0.7,0.1,1c-0.1,0.7-0.1,1.4,0.2,2.1c0,0.2,0,0.4,0,0.5c-0.2,0.4-0.1,0.9,0.2,1.3c0.1,0.2,0.2,0.5,0,0.7
		c-0.1,0.1-0.1,0.3,0,0.4c0.3,0.3,0.1,0.7,0.1,1s0,0.9,0,1.3c0,0.3,0.1,0.5,0.3,0.7c1.2,1.2,2.1,2.6,3.4,3.7
		c0.4,0.4,0.8,0.7,1.3,0.9c0.5,0.2,1.2,0.2,1.7,0.6c0.3,0.3,0.9,0,1.2,0.4c0.4-0.4,0.9,0,1.4-0.1l3.8-0.5c0.2,0,0.4-0.1,0.6-0.2
		c0.4-0.3,0.9-0.5,1.4-0.5c0.4-0.1,0.8-0.3,1.3-0.4s0.7-0.2,0.7-0.7c0-0.1,0.2-0.2,0.3-0.2c0.7-0.1,1.4-0.4,2-0.7
		c0.9-0.3,1.7-0.8,2.5-1.2s1.2-1,2-1.3c0.1-0.1,0.2-0.4,0.2-0.4c0.6,0.1,0.8-0.5,1.3-0.6c0.4-0.5,1-0.8,1.6-1
		c0.3-0.1,0.6-0.3,0.8-0.6c0.2-0.5,0.6-0.8,1-1c0.4-0.1,0.5-0.5,0.4-0.9C87.4,349.2,87.3,348.7,87.2,348.2z"/>
	<path d="M41.8,427.2h-0.2c-0.3,0.1-0.5,0.1-0.8-0.1c-0.1-0.1,0-0.7,0.2-1c0.1-0.2,0.3-0.3,0.5-0.4c0.5-0.2,0.7-0.7,0.6-1.2
		c0-0.4,0-0.9,0.1-1.3c0-0.3,0-0.6-0.1-0.9c-0.3-1.2-0.4-2.5-0.5-3.7c0-0.3,0-0.6,0.4-0.8c0.3-0.2,0.5-0.6,0.4-0.9
		c0-0.3,0-0.6,0-0.9c0.4-0.9,0-1.5-0.8-2c-0.3-0.2-0.7-0.5-1-0.7c-0.1-0.1-0.2-0.2-0.2-0.3c0-0.1,0-0.3,0-0.4
		c0.1-0.1,0.2-0.2,0.3-0.2c0.4,0.1,0.8,0.2,1.2,0.3s0.5,0,0.3-0.4c-0.2-0.6-0.3-1.2-0.2-1.8c0-0.3-0.1-0.7-0.2-1
		c-0.3-0.6-0.4-1.2-0.3-1.9c0-0.5,0.2-1.2-0.5-1.5c0,0-0.1-0.1-0.1-0.1c0.2-0.7-0.2-1.5,0.2-2.2c0.1-0.1,0.1-0.3,0.1-0.4
		c0-0.5-0.4-0.8-0.3-1.4c0.1-0.5,0.1-1-0.1-1.4c-0.2-0.5-0.3-0.9-0.3-1.4c-0.1-0.4,0.1-0.8-0.2-1.1s0-0.7-0.1-1
		c-0.4-1.2-0.5-2.4-0.3-3.6c-0.3-0.3,0-0.3,0.2-0.5s0.5-0.4,0.4-0.8s-0.2-0.3-0.4-0.2s-0.4,0.2-0.5,0.1c-0.5-0.2-0.9-0.6-1.1-1.1
		c-0.4-1.1-1-2-1.9-2.7c-0.4-0.3-0.7-0.8-0.6-1.3c0-0.2-0.1-0.4-0.1-0.7c0-0.1,0.1-0.2,0.2-0.2c0.9-0.2,1.8,0.3,2.2,1.1
		c0.2,0.4,0.5,0.7,0.8,1c0.1,0.1,0.1,0.1,0.2-0.1c0.1-0.5,0.2-1,0.3-1.4c0.1-0.5,0.1-1.1-0.2-1.6c-0.2-0.4-0.3-0.9-0.4-1.4
		c-0.1-0.3-0.1-0.6-0.1-0.9c0-0.3,0-0.6,0.1-0.8c0,0,0.1-0.1,0.1-0.1c0.2-0.3,0.2-0.6-0.1-0.9c-0.2-0.3-0.4,0-0.6,0
		s-0.4,0.1-0.5-0.2c-0.1-0.8-0.4-1.6-0.7-2.3c-0.1-0.3-0.2-0.6-0.2-0.9c0-0.2,0.1-0.5,0-0.7c-0.3-0.7-0.3-1.4-0.1-2.1
		c0-0.2,0-0.4-0.1-0.5c-0.4-0.6-0.2-1.5-0.9-1.9c-0.1-0.1-0.2-0.3-0.2-0.5c-0.2-0.5-0.3-1-0.3-1.6c0-0.8-0.2-1.7-0.1-2.5
		c0-0.5,0-1.1-0.2-1.6c-0.2-0.6-0.3-1.3-0.2-2c0-0.2,0-0.4,0-0.5c-0.2-0.6-0.1-1.2,0.1-1.7c0.1-0.3,0.1-0.5,0-0.8c0-0.1,0-0.3,0-0.4
		c0.4-1.2,0.4-2.6,1.1-3.7c0.1-0.2,0.2-0.4,0.2-0.6c0-0.9,0.2-1.8,0.6-2.6c0.5-1.1,0.6-2.3,1-3.5s0.6-2.6,1.1-3.8
		c0.1-0.3,0.2-0.6,0.2-0.9c0.1-0.7,0.2-1.4,0.5-2.1c0.1-0.2,0.2-0.4,0.1-0.6c-0.1-0.3,0-0.5,0.1-0.8c0.5-1.2,0.8-2.4,1-3.6
		c0-0.7,0.2-1.5,0.6-2.1c0-0.7,0.3-1.4,0.7-2c0.1-0.3,0.2-0.6,0.2-0.9c0.1-0.4,0.3-0.7,0.6-1c0.1-0.1,0.2-0.1,0.4-0.1
		c0.1,0.1,0.2,0.2,0.2,0.3c0,0.5-0.1,1-0.2,1.5s-0.1,1-0.2,1.4s-0.3,0.9-0.3,1.3c0,0.5-0.1,1-0.2,1.5c-0.4,1-0.5,2-0.8,3
		c-0.3,0.5-0.4,1.1-0.5,1.7c0.1,1.4-0.7,2.4-1,3.7c0,0.1-0.1,0.3,0,0.4c0.3,0.4,0.2,1-0.2,1.3c0,0,0,0,0,0c-0.3,0.3,0,0.7-0.3,1
		s-0.2,0.6-0.1,0.9c0,0.2,0,0.4-0.1,0.6c-0.3,0.4-0.5,0.9-0.5,1.3c-0.1,0.6-0.3,1.2-0.5,1.8c-0.2,0.6-0.4,1.2-0.6,1.8
		c-0.3,1.1-0.6,2.2-1.1,3.3c-0.2,0.5-0.4,0.9-0.8,1.3c-0.5,0.5-0.7,1.2-0.5,1.9c0.1,0.8,0.2,1.7,0.4,2.5c0.1,0.3,0.1,0.7,0,1.1
		c0,0.2-0.1,0.4-0.1,0.7c0.1,0.5,0.1,1,0.8,1.1s0.5,0.7,0.7,1.2c-0.3,0.9,0.2,1.8,0.4,2.6c0.1,0.6,0.2,1.3,0.2,1.9
		c0,0.3,0,0.5,0.1,0.8c0.2,0.4,0.4,0.8,0.5,1.2c0.1,0.4,0.3,0.7,0.1,1.1c-0.1,0.5,0.1,0.9,0.4,1.2c0.2,0.2,0.3,0.5,0.1,0.7
		c-0.2,0.3-0.2,0.7,0.1,1c0.2,0.3,0.3,0.7,0.2,1c0,0.3,0,0.7,0.1,1c0.1,0.6,0.5,1.2,0.2,1.8c0.2,0.5,0.3,1,0.2,1.6
		c0.3,0.9,0.2,1.9,0.4,2.8s0.3,1.7,0.4,2.5c0,0.3,0.2,0.6,0.4,0.8c0.1,0.1,0.2,0.3,0,0.4c0,0,0,0,0,0c-0.4,0.5-0.3,0.9,0.1,1.3
		c0.2,0.2,0.3,0.6,0.2,0.8c-0.2,0.4-0.1,0.9,0.2,1.3c0.2,0.3,0.2,0.6,0.1,0.9c0,0.6-0.4,1.2,0.2,1.7c0.1,0-0.2,0.4-0.1,0.6
		c0.4,1.1,0.1,2.3,0.5,3.4c0,0.1,0.1,0.2,0.1,0.2c-0.3,0.7,0.1,1.3,0.2,2c0,0.6,0.1,1.2,0.3,1.8c0.1,0.1,0,0.3,0.1,0.4
		c0.1,0.4-0.5,0.6-0.2,1s0.1,0.6,0.1,0.9c-0.1,0.3,0,0.6,0.3,0.8c0.2,0.1,0.1,0.3,0.1,0.5c-0.2,0.7-0.3,1.5-0.1,2.2
		c0.1,0.3,0.1,0.6,0,0.9c-0.1,0.4-0.2,0.9-0.2,1.3c0,0.1-0.1,0.2-0.2,0.3c-0.1,0-0.2-0.1-0.3-0.2s-0.1-0.2-0.2-0.2
		c-0.1,0-0.2,0-0.3,0.1c0,0.1,0,0.2,0,0.2c0.3,0.3,0.5,0.8,0.9,0.9c0.3,0.1,0.5,0.4,0.4,0.7c0,0,0,0,0,0c-0.1,0.7-0.1,1.5-0.1,2.3
		c0.1,0.8,0,1.6-0.4,2.3c-0.4,0.6-0.4,1.3-0.1,1.9c0.3,0.7,0.5,1.5,0.6,2.3c0.1,0.5,0.2,1,0.3,1.5c0,0.2,0.1,0.4,0,0.7
		c0,0.1-0.1,0.3-0.1,0.3c-0.5,0-0.7,0.4-1.1,0.7C42.8,427.3,42.3,427.4,41.8,427.2z"/>
	<path d="M24.6,352.8l-1.8,0.1c-0.1,0-0.3-0.1-0.3-0.2c0,0,0-0.1,0-0.1c0-0.2,0.1-0.4,0.2-0.7c0.1-0.1,0.2-0.2,0.3-0.2
		c0.9-0.2,1.4-0.5,1.5-1.4c0.1-0.6,0.6-1.2,0.4-1.9c0-0.1,0.1-0.2,0.2-0.4c0.3-0.5,0.5-1,0.6-1.6c0-0.3,0.1-0.7,0.2-1
		c0.2-0.3,0.4-0.5,0.6-0.7c0.3-0.4,0.6-0.8,0.2-1.3c-0.1-0.1,0-0.4,0.1-0.5c0.2-0.4,0.3-0.8,0.2-1.3c-0.1-0.4,0.1-0.8,0.4-1.1
		c0.2-0.1,0.4-0.4,0.4-0.7c-0.1-0.5,0-1.1,0.3-1.5c0.1-0.2,0.1-0.4,0-0.6c-0.2-0.3-0.2-0.6,0.1-0.8c0.2-0.1,0.3-0.5,0.2-0.7
		c-0.1-0.2,0-0.3,0.2-0.4c0.3-0.2,0.5-0.6,0.4-0.9c-0.1-0.2-0.1-0.3,0-0.5c0.3-0.6,0.4-1.2,0.4-1.8c0-0.2,0.1-0.3,0.2-0.5
		c0.3-0.5,0.6-1,0.7-1.6c0.1-0.2,0.2-0.5-0.1-0.7l0.5-0.6c-0.3-0.5,0.4-0.7,0.3-1.2c0-0.5,0.2-1,0.4-1.4c0.1-0.4,0.3-0.8,0.5-1.2
		c0.1-0.2,0.2-0.4,0.2-0.5c-0.3-0.6,0.2-1,0.5-1.4c0.1-0.1,0.2-0.2,0.2-0.3c-0.1-0.6,0.3-0.9,0.5-1.3s0.3-0.8,0.5-1.1
		c0.2-0.4,0.3-0.8,0.4-1.2c0.2-0.9,0.6-1.8,1.1-2.6c0.1-0.1,0.1-0.1,0.1-0.2c0.2-0.4,0-0.9,0.4-1.2c0.3-0.3,0.5-0.6,0.6-1
		c0.1-0.2,0.3-0.4,0.5-0.6c0.2-0.2,0.6-0.3,0.9-0.1c0.2,0.2,0.3,0.6,0.2,0.9c-0.1,0.2-0.2,0.3-0.3,0.5c-0.3,0.3-0.4,0.6-0.3,1
		c0,0.1-0.1,0.3-0.2,0.5c-0.3,1-0.6,2.1-1,3.2c0,0.1-0.3,0.2-0.4,0.3c-0.3,0.4-0.5,0.8-0.6,1.3c-0.1,0.8-0.3,1.6-0.7,2.3
		c-0.2,0.4,0,0.9-0.2,1.1s-0.3,0.8-0.5,1.2c-0.1,0.2-0.1,0.4,0,0.6c0.1,0.2,0,0.3-0.1,0.5c-0.7,0.9-0.8,2.1-1.3,3
		c0,0.6-0.2,1.1-0.4,1.6c-0.1,0.4-0.1,0.9-0.2,1.3s-0.4,0.7-0.5,1.1c0,0.2-0.1,0.4-0.2,0.6c-0.1,0.1-0.2,0.4-0.1,0.5
		c0.3,0.4,0.1,0.7-0.1,1.1c-0.1,0.3-0.3,0.6-0.3,0.9c-0.3,1-0.7,1.9-1,2.9c-0.1,0.4-0.2,0.9-0.2,1.3c0,0.5-0.4,0.9-0.2,1.5
		c0.1,0.2-0.3,0.6-0.3,0.8s-0.1,0.4-0.3,0.7c-0.2,0.2-0.3,0.5-0.4,0.8c-0.1,0.6-0.5,1-0.4,1.7c-0.6,0.8-0.7,1.9-1.6,2.4
		c-0.3,0.2-0.5,0.4-0.5,0.8c-0.2,0.7-0.5,1.3-1,1.8c-0.1,0.1-0.1,0.2,0,0.3c0,0,0.1,0.1,0.1,0.1c0.5,0.1,1.1,0.1,1.6,0.2
		c0.6,0,1.2,0.1,1.7,0.2c0.5,0.2,1.1,0.4,1.6,0.5c0.5,0,0.9,0.3,1.1,0.7c0,0,0,0.1,0,0.1c0,0-0.1,0.1-0.1,0.1c-0.4,0-0.9,0-1.3-0.1
		c-0.1,0-0.2-0.1-0.4-0.2c-0.7-0.2-1,0-1.1,0.7c-0.1,0.5-0.2,1.1-0.2,1.6c-0.1,1-0.2,2-0.4,3c0.3,0.4-0.1,0.7-0.1,1.1s0,0.8,0,1.2
		s0,0.8,0,1.2c-0.1,0.7-0.2,1.5-0.2,2.2c0,0.7,0,1.3-0.1,2s-0.1,1.2-0.1,1.7c0,0.2,0,0.4,0,0.7c0.1,0.7,0.1,1.4-0.1,2
		c0,0.3,0,0.7,0.1,1c0.3,1.3,0.3,2.5,0.3,3.8c0,0.7,0,1.4,0.1,2.1c0,0.1,0,0.2,0,0.3c-0.1,0.9-0.1,1.9,0,2.8c0,0.7,0,1.4-0.2,2.1
		c-0.1,0.8-0.3,1.7-0.5,2.5c-0.1,0.3-0.1,0.5-0.1,0.8c0.1,0.7,0.1,1.4-0.2,2c0,0.1,0,0.3,0,0.4c0.2,0.8,0.1,1.5-0.1,2.3
		c-0.1,0.3-0.1,0.6,0,0.9c0,0.1,0.1,0.2,0.3,0.2c0,0,0.1,0,0.1-0.1c0.1-0.1,0.1-0.1,0.2-0.2c0.4-0.4,0.7-0.8,1.1-1.2
		c0.4-0.3,0.9-0.6,1.3-0.8c0.1-0.1,0.2,0,0.3,0c0,0.1,0.1,0.2,0,0.2c-0.1,0.2-0.2,0.4-0.3,0.6c-0.6,0.8-1.2,1.5-1.9,2.2
		c-0.2,0.2-0.3,0.3-0.5,0.4c-0.3,0.2-0.6,0.2-0.9,0c-0.8-0.5-0.9-0.7-1-1.7s0-1.9,0-2.8c0-0.4,0-0.8,0-1.2c0-0.8,0.1-1.7,0.4-2.5
		c0.3-0.7,0.4-1.5,0.4-2.2c0-0.8,0-1.6,0-2.4c0.1-0.8,0-1.7-0.1-2.5c0-0.2-0.1-0.4-0.2-0.6c0-0.1,0-0.2,0-0.3
		c0.2-0.2,0.2-0.5,0.1-0.7c-0.3-0.6-0.4-1.3-0.3-2c-0.4-0.6-0.1-1.2-0.1-1.8s0-1.2,0.1-1.7c0-0.3,0.1-0.7-0.1-0.9s-0.2-0.5-0.1-0.7
		s-0.2-0.5,0.1-0.7c0.1-0.7,0.1-1.3,0-2c-0.1-0.2-0.2-0.4,0-0.6c0.3-0.4,0.3-0.9,0.2-1.4c0-0.3,0-0.6,0.1-0.9
		c0.1-0.4,0.1-0.9,0.1-1.3c-0.1-0.6,0.2-1.2,0.1-1.8c0.6-0.9,0.3-2,0.6-3c-0.1-0.7,0.3-1.2,0.3-1.8c0-0.6,0.2-1.2,0.4-1.7
		c0.1-0.1,0.1-0.3,0.1-0.4c0-0.2,0-0.5-0.3-0.5s-0.8-0.2-1.2-0.2c-0.4,0-0.7-0.1-1.1-0.1L24.6,352.8z"/>
	<path d="M80.8,272.6c-0.2-0.3,0.3-0.5,0.3-0.7c0-0.5,0.2-1,0-1.6c0,0,0-0.1,0-0.1c-0.2-0.6,0.1-1.3,0.7-1.6c0.5-0.4,0.8-0.3,1,0.3
		c0.2,0.4,0.3,0.8,0.4,1.2c0,0.1,0,0.3,0,0.4c-0.2,0.7-0.3,1.5-0.3,2.2c0,0.2-0.1,0.4-0.2,0.6c-0.2,0.2-0.3,0.5-0.4,0.8
		c-0.1,0.2-0.2,0.4-0.3,0.6c-0.4,0.4-0.7,0.8-0.9,1.3c-0.3,0.4-0.7,0.8-1.1,1.2c-0.3,0.3-0.6,0.6-0.9,0.8c-0.7,0.4-1.3,0.9-1.8,1.5
		c-0.1,0.2-0.4,0.4-0.7,0.3c-0.2,0-0.4,0.1-0.5,0.2c-0.4,0.3-0.9,0.5-1.3,0.6c-0.2,0-0.3,0.1-0.5,0.2c-0.7,0.5-1.6,0.9-2.4,1
		c-0.8,0.3-1.6,0.5-2.5,0.6c-0.8,0.1-1.7,0.4-2.3,0.8c-0.2,0.1-0.4,0.2-0.6,0.1c-0.9,0-1.7,0.1-2.5,0.5c-0.4,0.2-0.9,0.1-1.3,0.2
		c-0.3,0.2-0.7,0.4-1.1,0.6c-0.8,0.2-1.6,0.5-2.4,0.8c-0.5-0.1-1-0.1-1.4,0.2c-0.1,0-0.2,0.1-0.2,0c-0.4-0.5-0.6,0-0.9,0.1
		c-0.4,0.2-0.9,0.3-1.3,0.1c-0.5-0.2-1.1-0.2-1.6-0.1c-0.7,0-1.3,0-2,0c-0.8,0-1.6,0.1-2.4,0.2c-0.6,0.2-1.2,0.3-1.8,0.4
		c-0.6,0-1.2,0.1-1.8,0.1s-1.4,0-2.1,0c-0.3,0-0.6-0.1-0.9-0.2c-1-0.4-2-0.7-3.1-0.8c-0.1,0-0.2,0-0.3,0c-0.8,0.3-1.6-0.2-2.4-0.1
		c-0.2,0-0.3-0.1-0.4-0.3c-0.6-0.8-0.9-1.8-1-2.8c-0.3-0.7,0.1-1.4-0.1-2c-0.1-0.4-0.1-0.7-0.1-1.1c0-0.3,0-0.5,0-0.8
		c0.1-0.7,0.2-1.3,0.2-2c0-0.1,0-0.2-0.1-0.3c-0.2-0.1-0.2-0.4-0.1-0.6c0,0,0.1-0.1,0.1-0.1c0.2-0.2,0.6-0.3,0.9-0.2
		c0.2,0.1,0.4,0.2,0.3,0.5s-0.1,0.4-0.1,0.5c-0.2,0.5-0.2,1,0,1.4c0,0.2,0,0.4,0,0.6c0,1.2,0,2.4,0,3.6c0,0.6,0.1,1.2,0.4,1.7
		c0.1,0.3,0.5,0.6,0.8,0.6c0.5,0,1.1,0.1,1.6,0.2c0.2,0,0.4,0,0.6-0.1c0.3,0,0.6-0.1,0.8,0c0.6,0.2,1.3,0.3,2,0.2
		c0.5,0,1.1,0.1,1.6,0.2c0.3,0.1,0.7,0.1,1,0c0.3-0.1,0.7-0.1,1,0c0.2,0.1,0.4,0,0.6-0.1c0.3-0.1,0.6-0.2,0.9-0.2
		c1.3-0.3,2.5-0.2,3.8-0.5c0.4,0,0.8,0,1.2,0c0.6,0.1,1.1,0.1,1.7,0c0.5,0,1.1,0,1.6,0c0.5-0.1,1-0.2,1.5-0.3c0.2,0,0.3-0.3,0.5-0.3
		c0.8,0,1.7-0.2,2.4-0.6c0.4-0.1,0.9,0,1.2-0.4c0.1-0.1,0.3-0.2,0.5-0.1c0.9-0.1,1.8-0.4,2.7-0.8c0.3-0.2,0.7-0.2,1-0.2
		c1.1,0.2,2.2,0,3.1-0.5c0.2-0.1,0.5-0.2,0.8-0.2c0.4-0.1,0.8-0.2,1.1-0.4c0.4-0.4,0.9-0.5,1.5-0.5c0.2,0,0.4-0.1,0.5-0.2
		c0.3-0.6,0.8-0.6,1.3-0.7c0.5,0,1-0.3,1.2-0.7c0,0,0-0.1,0.1-0.1c0.5-0.4,1-0.6,1.4-0.9c0.4-0.4,0.9-0.8,1.4-1
		c0.1,0,0.2-0.1,0.2-0.1c0.2-0.6,0.9-0.9,1.3-1.3C80.5,274.2,80.8,273.5,80.8,272.6z"/>
	<path d="M29.4,379.1c0,0.3,0,0.6,0,0.9c0.2,0.7,0.1,1.4-0.1,2.1c-0.2,1.4-0.2,2.8,0.1,4.1c0,0.1,0.1,0.3,0.1,0.4
		c0,0.1,0.1,0.1,0.2,0.1c0,0,0.1,0,0.1-0.1c0.1-0.2,0.1-0.4,0.2-0.7c0.1-0.4,0.3-0.7,0.6-0.9c0.2-0.1,0.4-0.3,0.5-0.4
		c0.2-0.4,0.4-0.8,0.6-1.2s0.5-0.6,0.7-1c0.5-1,1.2-2,2-2.8c0.5-0.5,1.1-0.3,1.3,0.4c0,0.2,0,0.4-0.2,0.3s-0.5,0.1-0.6,0.4
		c-1.1,1.7-2.1,3.4-3,5.2c0,0.1-0.2,0.2-0.2,0.3s0,0.6,0.3,0.6c0.7,0,0.9,0.6,1.4,1c0,0,0,0.2,0,0.3c-0.2,0.2-0.3,0.6-0.1,0.9
		c0.2,0.3,0.3,0.8,0.2,1.1c0.4,0.7,0,1.4,0,2.1c0,0.5-0.5,0.3-0.6,0.6s-0.1,0.1-0.2,0c-0.2-0.3-0.4-0.6-0.6-0.9s-0.2-0.5-0.4-0.7
		s-0.5-0.5-0.3-1c0.1-0.2-0.1-0.4-0.2-0.6c-0.1-0.2-0.1-0.5,0-0.8c0.1-0.6,0.1-1.1,0-1.7c-0.1,0-0.1,0-0.2,0
		c-0.1,0.1-0.2,0.2-0.2,0.3c-0.1,0.2-0.2,0.4-0.4,0.5c-1,0.7-1.7,0.5-2.1-0.6c-0.2-0.6-0.4-1.2-0.5-1.8c-0.1-0.5-0.1-1-0.1-1.4
		s-0.1-1-0.1-1.5c0-0.2,0-0.4,0.1-0.5c0.1-0.4,0.1-0.9,0-1.3c-0.2-0.7,0-1.5,0.5-2.1c0.2-0.2,0.3-0.4,0.2-0.7c0-0.3,0.1-0.5,0.3-0.7
		c0.1-0.1,0.3-0.2,0.5-0.1c0.2,0.1,0.3,0.2,0.3,0.4C29.4,378.2,29.4,378.6,29.4,379.1L29.4,379.1z"/>
	<path d="M52.8,332.9c0.4,0.1,0.9,0,1.1,0.2c0.4,0.4,0.7,0.8,0.9,1.3c0.1,0.3,0.2,0.6,0.3,0.9c0.1,0.3,0.1,0.6-0.1,0.9
		c-0.3,0.6-0.6,1.1-1,1.5c-0.2,0.2-0.4,0.4-0.6,0.7c-0.6,0.8-1.4,1.3-2.3,1.6c-1,0.5-2.2,0.2-2.8-0.8l-0.1-0.1
		c-0.3-0.4-0.3-0.4-0.8,0c-0.1,0.1-0.1,0.1-0.2,0.2c0-0.1-0.1-0.1-0.1-0.2c-0.1-0.7,0-1.4,0.3-2c0.2-0.4,0.2-0.8,0.5-1.2
		c0.6-0.7,1.1-1.5,1.8-2.2c0.2-0.2,0.4-0.4,0.7-0.4C51.2,333.1,52,332.9,52.8,332.9z M50.3,339.3c0.4,0,0.9-0.2,1.2-0.5
		c0.9-0.8,2-1.5,2-3c0-0.1,0.2-0.2,0.2-0.3c0.2-0.2,0.2-0.5,0-0.8c-0.2-0.2-0.4-0.3-0.7-0.3c-1.5,0.2-2.8,1-3.7,2.2
		c-0.2,0.2-0.3,0.5-0.4,0.7C48.5,338.6,49.1,339.1,50.3,339.3L50.3,339.3z"/>
	<path d="M61.9,275.9c0,0.1,0.1,0.3,0.1,0.5c0,0.1,0,0.2-0.1,0.4c-0.3,0.3-0.6,0.6-0.9,0.8c-0.1,0.1-0.3,0.2-0.5,0.2
		c-0.7,0.2-1.4,0.3-2.1,0.4c-0.5,0.1-1,0.1-1.4,0c-0.2-0.1-0.4-0.1-0.5,0c-0.9,0.4-1.2-0.3-1.6-0.8c-0.1-0.1-0.1-0.2-0.1-0.4
		c0-0.3,0-0.5,0-0.8c0.4-1.1,0.8-2.3,1.1-3.4c0.1-0.3,0.4-0.5,0.7-0.5c0.3,0,0.6,0.3,0.4,0.5c-0.3,0.6-0.6,1.2-0.8,1.9
		c-0.3,0.6-0.4,1.3-0.3,2c0,0.3,0.3,0.6,0.6,0.6c0,0,0.1,0,0.1,0c0.9-0.2,1.8-0.3,2.6-0.2c0.2,0,0.4,0,0.5-0.1
		c0.6-0.1,1.1-0.6,1.1-1.3c0-0.2-0.1-0.5-0.3-0.7c-0.3-0.4-0.6-0.8-0.9-1.1c-0.3-0.3-0.5-0.6-0.6-1c-0.1-0.3,0-0.7,0.4-0.9
		c0.1-0.1,0.4,0,0.5,0.1c0.5,0.7,1,1.4,1.6,2.1C61.9,274.7,62,275.3,61.9,275.9z"/>
	<path d="M59.4,257.1c0-1.1,0.2-2.2,0.4-3.3c0.2-0.3,0.5-0.5,0.9-0.5c0.1,0,0.2,0.1,0.3,0.2c0.1,0.2,0.1,0.3,0,0.5
		c-0.3,0.6,0.1,1,0.1,1.5s-0.3,0.9-0.1,1.5c0.1,0.7,0.3,1.3,0.6,1.9c0.2,0.4,0.3,0.7,0.4,1.1c0.1,0.4,0.3,0.8,0.5,1.1
		c0.1,0.1,0.2,0.2,0.2,0.3c0.1,0.6,0.4,1.1,0.9,1.4c0.1,0.1,0.1,0.3,0,0.4c0,0-0.1,0.1-0.2,0.1c-0.2,0-0.3,0-0.5,0
		c-0.5-0.2-1-0.4-1.5-0.6c-0.1-0.1-0.2-0.2-0.2-0.3c-0.3-1-0.8-2.1-1.4-3c-0.1-0.1-0.2-0.3-0.2-0.5
		C59.5,258.5,59.5,257.8,59.4,257.1z"/>
	<path d="M115.6,230.4c0.3-0.4,0.4-1,0.3-1.5c-0.1-0.8,0-1.5,0.2-2.2c0-0.2,0.2-0.3,0.4-0.3c0.1,0,0.2,0.1,0.2,0.2
		c0.3,0.4,0.6,0.8,0.6,1.1c0.1,0.5,0.2,1,0.2,1.5c-0.2,1.5-0.2,3,0.1,4.5c0,0.2,0,0.4,0,0.5c-0.2,1.3-0.5,2.5-0.8,3.8
		c0,0.1-0.1,0.2-0.1,0.2c0-0.1-0.1-0.1-0.2-0.2c-0.1-0.2-0.1-0.3-0.2-0.5c0.1-0.8-0.5-1.5-0.2-2.2c0,0,0-0.1,0-0.1
		c-0.3-0.8-0.4-1.6-0.1-2.5C116.3,231.9,116.1,231,115.6,230.4L115.6,230.4z"/>
	<path d="M70.8,269.3l0.2,0.1c0.5,0.3,1,0.6,1.5,0.9c0.2,0.2,0.3,0.5,0.2,0.7c-0.1,0.5-0.5,0.8-1,0.9c-0.2,0-0.3,0.1-0.5,0.1
		c-0.6,0.1-1.1-0.3-1.2-0.9c0,0,0,0,0-0.1c0-0.3,0-0.5,0-0.8c-0.1-0.4,0.1-0.6,0.4-0.7C70.5,269.5,70.7,269.4,70.8,269.3z"/>
	<path d="M45.8,275.4c0,0.6-0.3,1.2-0.9,1.5c-0.1,0-0.3,0-0.3-0.1c-0.4-0.4-0.8-1-0.9-1.6c-0.1-0.2-0.1-0.4-0.1-0.7
		c-0.2-0.7,0-0.9,0.6-1c0.2,0,0.4,0,0.7,0c0.2,0,0.4,0,0.4,0.2C45.6,274.2,45.8,274.8,45.8,275.4z"/>
	<path d="M65.1,422.8c-0.1,0-0.3,0.1-0.4,0.1c-0.2,0-0.4-0.1-0.4-0.2c0-0.2,0-0.3,0.1-0.5c0.1-0.2,0.3-0.3,0.5-0.5
		c0.1-0.1,0.2-0.1,0.3,0c0.3,0.2,0.7,0.5,1,0.7c0.1,0,0.1,0.2,0.1,0.2c-0.1,0.1-0.2,0.2-0.3,0.2C65.6,422.8,65.3,422.8,65.1,422.8z"
		/>
</g>
</svg>
