<svg width="587" height="360" viewBox="0 0 587 360" fill="none" xmlns="http://www.w3.org/2000/svg">
<path d="M0 8C0 3.58172 3.58172 0 8 0H587V360H0V8Z" fill="#222222"/>
<path d="M134.351 135V111.608H143.663C148.271 111.608 151.087 114.008 151.087 117.912C151.087 120.504 149.935 122.36 147.727 123.288C150.191 124.088 151.439 125.944 151.439 128.664C151.439 132.664 148.655 135 143.823 135H134.351ZM143.311 115.224H138.447V121.592H143.407C145.647 121.592 146.895 120.408 146.895 118.328C146.895 116.312 145.615 115.224 143.311 115.224ZM143.663 125.048H138.447V131.384H143.663C145.967 131.384 147.247 130.264 147.247 128.152C147.247 126.168 145.935 125.048 143.663 125.048ZM164.698 119.192H168.602V135H164.986L164.698 132.888C163.738 134.392 161.69 135.416 159.578 135.416C155.93 135.416 153.786 132.952 153.786 129.08V119.192H157.69V127.704C157.69 130.712 158.874 131.928 161.05 131.928C163.514 131.928 164.698 130.488 164.698 127.48V119.192ZM173.947 116.024C172.603 116.024 171.547 114.968 171.547 113.656C171.547 112.344 172.603 111.32 173.947 111.32C175.227 111.32 176.283 112.344 176.283 113.656C176.283 114.968 175.227 116.024 173.947 116.024ZM171.995 135V119.192H175.899V135H171.995ZM183.228 135H179.356V111.192H183.228V135ZM192.059 135H188.155V122.456H185.115V119.192H188.155V114.264H192.059V119.192H195.131V122.456H192.059V135ZM210.279 135H206.375V122.456H203.335V119.192H206.375V114.264H210.279V119.192H213.351V122.456H210.279V135ZM214.054 127.064C214.054 122.136 217.606 118.744 222.502 118.744C227.398 118.744 230.95 122.136 230.95 127.064C230.95 131.992 227.398 135.384 222.502 135.384C217.606 135.384 214.054 131.992 214.054 127.064ZM217.958 127.064C217.958 129.944 219.814 131.896 222.502 131.896C225.19 131.896 227.046 129.944 227.046 127.064C227.046 124.184 225.19 122.232 222.502 122.232C219.814 122.232 217.958 124.184 217.958 127.064ZM245.294 135H241.39V119.192H244.974L245.294 121.048C246.094 119.736 247.694 118.712 249.966 118.712C252.366 118.712 254.03 119.896 254.862 121.72C255.662 119.896 257.518 118.712 259.918 118.712C263.758 118.712 265.87 121.016 265.87 124.664V135H261.998V125.688C261.998 123.416 260.782 122.232 258.926 122.232C257.038 122.232 255.598 123.448 255.598 126.04V135H251.694V125.656C251.694 123.448 250.51 122.264 248.654 122.264C246.798 122.264 245.294 123.48 245.294 126.04V135ZM273.766 135.416C270.406 135.416 268.358 133.464 268.358 130.488C268.358 127.576 270.47 125.752 274.214 125.464L278.95 125.112V124.76C278.95 122.616 277.67 121.752 275.686 121.752C273.382 121.752 272.102 122.712 272.102 124.376H268.774C268.774 120.952 271.59 118.712 275.878 118.712C280.134 118.712 282.758 121.016 282.758 125.4V135H279.334L279.046 132.664C278.374 134.296 276.23 135.416 273.766 135.416ZM275.046 132.472C277.446 132.472 278.982 131.032 278.982 128.6V127.768L275.686 128.024C273.254 128.248 272.326 129.048 272.326 130.328C272.326 131.768 273.286 132.472 275.046 132.472ZM289.858 135H285.954V119.192H289.57L289.89 121.24C290.882 119.64 292.802 118.712 294.946 118.712C298.914 118.712 300.962 121.176 300.962 125.272V135H297.058V126.2C297.058 123.544 295.746 122.264 293.73 122.264C291.33 122.264 289.858 123.928 289.858 126.488V135ZM308.861 135.416C305.501 135.416 303.453 133.464 303.453 130.488C303.453 127.576 305.565 125.752 309.309 125.464L314.045 125.112V124.76C314.045 122.616 312.765 121.752 310.781 121.752C308.477 121.752 307.197 122.712 307.197 124.376H303.869C303.869 120.952 306.685 118.712 310.973 118.712C315.229 118.712 317.853 121.016 317.853 125.4V135H314.429L314.141 132.664C313.469 134.296 311.325 135.416 308.861 135.416ZM310.141 132.472C312.541 132.472 314.077 131.032 314.077 128.6V127.768L310.781 128.024C308.349 128.248 307.421 129.048 307.421 130.328C307.421 131.768 308.381 132.472 310.141 132.472ZM320.152 126.744C320.152 122.136 323.16 118.68 327.672 118.68C330.04 118.68 331.896 119.672 332.824 121.368L333.048 119.192H336.664V134.2C336.664 139.48 333.496 142.776 328.376 142.776C323.832 142.776 320.728 140.184 320.248 135.96H324.152C324.408 138.008 325.976 139.224 328.376 139.224C331.064 139.224 332.792 137.528 332.792 134.904V132.28C331.8 133.752 329.848 134.68 327.576 134.68C323.096 134.68 320.152 131.32 320.152 126.744ZM324.088 126.648C324.088 129.304 325.784 131.288 328.344 131.288C331.032 131.288 332.696 129.4 332.696 126.648C332.696 123.96 331.064 122.104 328.344 122.104C325.752 122.104 324.088 124.056 324.088 126.648ZM347.137 135.416C342.433 135.416 339.137 131.992 339.137 127.096C339.137 122.136 342.369 118.712 347.009 118.712C351.745 118.712 354.753 121.88 354.753 126.808V127.992L342.849 128.024C343.137 130.808 344.609 132.216 347.201 132.216C349.345 132.216 350.753 131.384 351.201 129.88H354.817C354.145 133.336 351.265 135.416 347.137 135.416ZM347.041 121.912C344.737 121.912 343.329 123.16 342.945 125.528H350.881C350.881 123.352 349.377 121.912 347.041 121.912ZM367.814 135H363.558L372.006 111.608H376.198L384.646 135H380.326L378.438 129.592H369.702L367.814 135ZM373.574 118.584L370.918 126.136H377.254L374.566 118.584C374.374 117.976 374.15 117.272 374.086 116.792C373.99 117.24 373.798 117.944 373.574 118.584ZM391.035 111.608V135H386.939V111.608H391.035ZM407.694 135.416C404.334 135.416 402.286 133.464 402.286 130.488C402.286 127.576 404.398 125.752 408.142 125.464L412.878 125.112V124.76C412.878 122.616 411.598 121.752 409.614 121.752C407.31 121.752 406.03 122.712 406.03 124.376H402.702C402.702 120.952 405.518 118.712 409.806 118.712C414.062 118.712 416.686 121.016 416.686 125.4V135H413.262L412.974 132.664C412.302 134.296 410.158 135.416 407.694 135.416ZM408.974 132.472C411.374 132.472 412.91 131.032 412.91 128.6V127.768L409.614 128.024C407.182 128.248 406.254 129.048 406.254 130.328C406.254 131.768 407.214 132.472 408.974 132.472ZM423.785 135H419.881V119.192H423.497L423.817 121.24C424.809 119.64 426.729 118.712 428.873 118.712C432.841 118.712 434.889 121.176 434.889 125.272V135H430.985V126.2C430.985 123.544 429.673 122.264 427.657 122.264C425.257 122.264 423.785 123.928 423.785 126.488V135ZM444.581 135.416C440.005 135.416 437.157 132.056 437.157 127.16C437.157 122.232 440.037 118.712 444.805 118.712C447.013 118.712 448.965 119.64 449.957 121.208V111.192H453.829V135H450.245L449.989 132.536C449.029 134.36 446.981 135.416 444.581 135.416ZM445.445 131.832C448.165 131.832 449.925 129.88 449.925 127.032C449.925 124.184 448.165 122.2 445.445 122.2C442.725 122.2 441.061 124.216 441.061 127.032C441.061 129.848 442.725 131.832 445.445 131.832ZM176.259 175H172.355V159.192H175.939L176.259 161.048C177.059 159.736 178.659 158.712 180.931 158.712C183.331 158.712 184.995 159.896 185.827 161.72C186.627 159.896 188.483 158.712 190.883 158.712C194.723 158.712 196.835 161.016 196.835 164.664V175H192.963V165.688C192.963 163.416 191.747 162.232 189.891 162.232C188.003 162.232 186.563 163.448 186.563 166.04V175H182.659V165.656C182.659 163.448 181.475 162.264 179.619 162.264C177.763 162.264 176.259 163.48 176.259 166.04V175ZM204.731 175.416C201.371 175.416 199.323 173.464 199.323 170.488C199.323 167.576 201.435 165.752 205.179 165.464L209.915 165.112V164.76C209.915 162.616 208.635 161.752 206.651 161.752C204.347 161.752 203.067 162.712 203.067 164.376H199.739C199.739 160.952 202.555 158.712 206.843 158.712C211.099 158.712 213.723 161.016 213.723 165.4V175H210.299L210.011 172.664C209.339 174.296 207.195 175.416 204.731 175.416ZM206.011 172.472C208.411 172.472 209.947 171.032 209.947 168.6V167.768L206.651 168.024C204.219 168.248 203.291 169.048 203.291 170.328C203.291 171.768 204.251 172.472 206.011 172.472ZM215.99 167.064C215.99 162.168 219.222 158.712 223.894 158.712C228.214 158.712 231.158 161.112 231.574 164.92H227.67C227.222 163.128 225.91 162.2 224.054 162.2C221.558 162.2 219.894 164.088 219.894 167.064C219.894 170.04 221.43 171.896 223.926 171.896C225.878 171.896 227.254 170.936 227.67 169.208H231.606C231.126 172.888 228.054 175.416 223.926 175.416C219.126 175.416 215.99 172.088 215.99 167.064ZM237.776 175H233.872V151.192H237.808V161.24C238.8 159.704 240.656 158.712 242.928 158.712C246.832 158.712 248.88 161.176 248.88 165.272V175H244.976V166.2C244.976 163.544 243.664 162.264 241.68 162.264C239.216 162.264 237.776 163.992 237.776 166.36V175ZM254.028 156.024C252.684 156.024 251.628 154.968 251.628 153.656C251.628 152.344 252.684 151.32 254.028 151.32C255.308 151.32 256.364 152.344 256.364 153.656C256.364 154.968 255.308 156.024 254.028 156.024ZM252.076 175V159.192H255.98V175H252.076ZM263.278 175H259.374V159.192H262.99L263.31 161.24C264.302 159.64 266.222 158.712 268.366 158.712C272.334 158.712 274.382 161.176 274.382 165.272V175H270.478V166.2C270.478 163.544 269.166 162.264 267.15 162.264C264.75 162.264 263.278 163.928 263.278 166.488V175ZM284.649 175.416C279.945 175.416 276.649 171.992 276.649 167.096C276.649 162.136 279.881 158.712 284.521 158.712C289.257 158.712 292.265 161.88 292.265 166.808V167.992L280.361 168.024C280.649 170.808 282.121 172.216 284.713 172.216C286.857 172.216 288.265 171.384 288.713 169.88H292.329C291.657 173.336 288.777 175.416 284.649 175.416ZM284.553 161.912C282.249 161.912 280.841 163.16 280.457 165.528H288.393C288.393 163.352 286.889 161.912 284.553 161.912ZM306.671 175H302.799V151.192H306.671V175ZM317.198 175.416C312.494 175.416 309.198 171.992 309.198 167.096C309.198 162.136 312.43 158.712 317.07 158.712C321.806 158.712 324.814 161.88 324.814 166.808V167.992L312.91 168.024C313.198 170.808 314.67 172.216 317.262 172.216C319.406 172.216 320.814 171.384 321.262 169.88H324.878C324.206 173.336 321.326 175.416 317.198 175.416ZM317.102 161.912C314.798 161.912 313.39 163.16 313.006 165.528H320.942C320.942 163.352 319.438 161.912 317.102 161.912ZM331.846 175.416C328.486 175.416 326.438 173.464 326.438 170.488C326.438 167.576 328.55 165.752 332.294 165.464L337.03 165.112V164.76C337.03 162.616 335.75 161.752 333.766 161.752C331.462 161.752 330.182 162.712 330.182 164.376H326.854C326.854 160.952 329.67 158.712 333.958 158.712C338.214 158.712 340.838 161.016 340.838 165.4V175H337.414L337.126 172.664C336.454 174.296 334.31 175.416 331.846 175.416ZM333.126 172.472C335.526 172.472 337.062 171.032 337.062 168.6V167.768L333.766 168.024C331.334 168.248 330.406 169.048 330.406 170.328C330.406 171.768 331.366 172.472 333.126 172.472ZM353.954 159.128V162.744H352.514C349.698 162.744 347.938 164.248 347.938 167.32V175H344.034V159.224H347.714L347.938 161.528C348.61 159.96 350.114 158.904 352.226 158.904C352.77 158.904 353.314 158.968 353.954 159.128ZM359.86 175H355.956V159.192H359.572L359.892 161.24C360.884 159.64 362.804 158.712 364.948 158.712C368.916 158.712 370.964 161.176 370.964 165.272V175H367.06V166.2C367.06 163.544 365.748 162.264 363.732 162.264C361.332 162.264 359.86 163.928 359.86 166.488V175ZM376.112 156.024C374.768 156.024 373.712 154.968 373.712 153.656C373.712 152.344 374.768 151.32 376.112 151.32C377.392 151.32 378.448 152.344 378.448 153.656C378.448 154.968 377.392 156.024 376.112 156.024ZM374.16 175V159.192H378.064V175H374.16ZM385.361 175H381.457V159.192H385.073L385.393 161.24C386.385 159.64 388.305 158.712 390.449 158.712C394.417 158.712 396.465 161.176 396.465 165.272V175H392.561V166.2C392.561 163.544 391.249 162.264 389.233 162.264C386.833 162.264 385.361 163.928 385.361 166.488V175ZM398.765 166.744C398.765 162.136 401.773 158.68 406.285 158.68C408.653 158.68 410.509 159.672 411.437 161.368L411.661 159.192H415.277V174.2C415.277 179.48 412.109 182.776 406.989 182.776C402.445 182.776 399.341 180.184 398.861 175.96H402.765C403.021 178.008 404.589 179.224 406.989 179.224C409.677 179.224 411.405 177.528 411.405 174.904V172.28C410.413 173.752 408.461 174.68 406.189 174.68C401.709 174.68 398.765 171.32 398.765 166.744ZM402.701 166.648C402.701 169.304 404.397 171.288 406.957 171.288C409.645 171.288 411.309 169.4 411.309 166.648C411.309 163.96 409.677 162.104 406.957 162.104C404.365 162.104 402.701 164.056 402.701 166.648ZM134.685 215.416C130.109 215.416 127.261 212.056 127.261 207.16C127.261 202.232 130.141 198.712 134.909 198.712C137.117 198.712 139.069 199.64 140.061 201.208V191.192H143.933V215H140.349L140.093 212.536C139.133 214.36 137.085 215.416 134.685 215.416ZM135.549 211.832C138.269 211.832 140.029 209.88 140.029 207.032C140.029 204.184 138.269 202.2 135.549 202.2C132.829 202.2 131.165 204.216 131.165 207.032C131.165 209.848 132.829 211.832 135.549 211.832ZM154.434 215.416C149.73 215.416 146.434 211.992 146.434 207.096C146.434 202.136 149.666 198.712 154.306 198.712C159.042 198.712 162.05 201.88 162.05 206.808V207.992L150.146 208.024C150.434 210.808 151.906 212.216 154.498 212.216C156.642 212.216 158.05 211.384 158.498 209.88H162.114C161.442 213.336 158.562 215.416 154.434 215.416ZM154.338 201.912C152.034 201.912 150.626 203.16 150.242 205.528H158.178C158.178 203.352 156.674 201.912 154.338 201.912ZM164.534 222.328V199.192H168.15L168.406 201.592C169.366 199.768 171.446 198.712 173.846 198.712C178.294 198.712 181.238 201.944 181.238 206.904C181.238 211.832 178.55 215.416 173.846 215.416C171.478 215.416 169.43 214.488 168.438 212.888V222.328H164.534ZM168.47 207.096C168.47 209.944 170.23 211.896 172.918 211.896C175.67 211.896 177.302 209.912 177.302 207.096C177.302 204.28 175.67 202.264 172.918 202.264C170.23 202.264 168.47 204.248 168.47 207.096ZM187.643 215H183.771V191.192H187.643V215ZM190.17 207.064C190.17 202.136 193.722 198.744 198.618 198.744C203.514 198.744 207.066 202.136 207.066 207.064C207.066 211.992 203.514 215.384 198.618 215.384C193.722 215.384 190.17 211.992 190.17 207.064ZM194.074 207.064C194.074 209.944 195.93 211.896 198.618 211.896C201.306 211.896 203.162 209.944 203.162 207.064C203.162 204.184 201.306 202.232 198.618 202.232C195.93 202.232 194.074 204.184 194.074 207.064ZM207.551 222.328V219.064H209.887C211.423 219.064 212.383 218.712 213.055 216.856L213.503 215.672L207.135 199.192H211.263L215.327 210.712L219.615 199.192H223.647L215.903 218.52C214.719 221.464 213.055 222.68 210.463 222.68C209.375 222.68 208.415 222.552 207.551 222.328ZM229.128 215H225.224V199.192H228.808L229.128 201.048C229.928 199.736 231.528 198.712 233.8 198.712C236.2 198.712 237.864 199.896 238.696 201.72C239.496 199.896 241.352 198.712 243.752 198.712C247.592 198.712 249.704 201.016 249.704 204.664V215H245.832V205.688C245.832 203.416 244.616 202.232 242.76 202.232C240.872 202.232 239.432 203.448 239.432 206.04V215H235.528V205.656C235.528 203.448 234.344 202.264 232.488 202.264C230.632 202.264 229.128 203.48 229.128 206.04V215ZM259.969 215.416C255.265 215.416 251.969 211.992 251.969 207.096C251.969 202.136 255.201 198.712 259.841 198.712C264.577 198.712 267.585 201.88 267.585 206.808V207.992L255.681 208.024C255.969 210.808 257.441 212.216 260.033 212.216C262.177 212.216 263.585 211.384 264.033 209.88H267.649C266.977 213.336 264.097 215.416 259.969 215.416ZM259.873 201.912C257.569 201.912 256.161 203.16 255.777 205.528H263.713C263.713 203.352 262.209 201.912 259.873 201.912ZM273.973 215H270.069V199.192H273.685L274.005 201.24C274.997 199.64 276.917 198.712 279.061 198.712C283.029 198.712 285.077 201.176 285.077 205.272V215H281.173V206.2C281.173 203.544 279.861 202.264 277.845 202.264C275.445 202.264 273.973 203.928 273.973 206.488V215ZM293.649 215H289.745V202.456H286.705V199.192H289.745V194.264H293.649V199.192H296.721V202.456H293.649V215ZM297.292 210.2H301.004C301.036 211.576 302.06 212.44 303.852 212.44C305.676 212.44 306.668 211.704 306.668 210.552C306.668 209.752 306.252 209.176 304.844 208.856L301.996 208.184C299.148 207.544 297.772 206.2 297.772 203.672C297.772 200.568 300.396 198.712 304.044 198.712C307.596 198.712 309.996 200.76 310.028 203.832H306.316C306.284 202.488 305.388 201.624 303.884 201.624C302.348 201.624 301.452 202.328 301.452 203.512C301.452 204.408 302.156 204.984 303.5 205.304L306.348 205.976C309.004 206.584 310.348 207.8 310.348 210.232C310.348 213.432 307.628 215.416 303.724 215.416C299.788 215.416 297.292 213.304 297.292 210.2ZM324.153 215L319.033 199.192H323.097L325.177 205.976C325.529 207.224 325.849 208.6 326.137 210.072C326.425 208.536 326.713 207.544 327.225 205.976L329.401 199.192H333.369L335.481 205.976C335.673 206.616 336.313 208.984 336.505 210.04C336.761 208.856 337.273 206.968 337.561 205.976L339.673 199.192H343.801L338.329 215H334.681L332.505 208.152C331.865 206.072 331.513 204.568 331.385 203.768C331.225 204.504 330.937 205.624 330.137 208.216L327.961 215H324.153ZM347.477 196.024C346.133 196.024 345.077 194.968 345.077 193.656C345.077 192.344 346.133 191.32 347.477 191.32C348.757 191.32 349.813 192.344 349.813 193.656C349.813 194.968 348.757 196.024 347.477 196.024ZM345.525 215V199.192H349.429V215H345.525ZM358.199 215H354.295V202.456H351.255V199.192H354.295V194.264H358.199V199.192H361.271V202.456H358.199V215ZM366.962 215H363.058V191.192H366.994V201.24C367.986 199.704 369.842 198.712 372.114 198.712C376.018 198.712 378.066 201.176 378.066 205.272V215H374.162V206.2C374.162 203.544 372.85 202.264 370.866 202.264C368.402 202.264 366.962 203.992 366.962 206.36V215ZM396.319 215.416C391.615 215.416 388.319 211.992 388.319 207.096C388.319 202.136 391.551 198.712 396.191 198.712C400.927 198.712 403.935 201.88 403.935 206.808V207.992L392.031 208.024C392.319 210.808 393.791 212.216 396.383 212.216C398.527 212.216 399.935 211.384 400.383 209.88H403.999C403.327 213.336 400.447 215.416 396.319 215.416ZM396.223 201.912C393.919 201.912 392.511 203.16 392.127 205.528H400.063C400.063 203.352 398.559 201.912 396.223 201.912ZM410.967 215.416C407.607 215.416 405.559 213.464 405.559 210.488C405.559 207.576 407.671 205.752 411.415 205.464L416.151 205.112V204.76C416.151 202.616 414.871 201.752 412.887 201.752C410.583 201.752 409.303 202.712 409.303 204.376H405.975C405.975 200.952 408.791 198.712 413.079 198.712C417.335 198.712 419.959 201.016 419.959 205.4V215H416.535L416.247 212.664C415.575 214.296 413.431 215.416 410.967 215.416ZM412.247 212.472C414.647 212.472 416.183 211.032 416.183 208.6V207.768L412.887 208.024C410.455 208.248 409.527 209.048 409.527 210.328C409.527 211.768 410.487 212.472 412.247 212.472ZM421.938 210.2H425.65C425.682 211.576 426.706 212.44 428.498 212.44C430.322 212.44 431.314 211.704 431.314 210.552C431.314 209.752 430.898 209.176 429.49 208.856L426.642 208.184C423.794 207.544 422.418 206.2 422.418 203.672C422.418 200.568 425.042 198.712 428.69 198.712C432.242 198.712 434.642 200.76 434.674 203.832H430.962C430.93 202.488 430.034 201.624 428.53 201.624C426.994 201.624 426.098 202.328 426.098 203.512C426.098 204.408 426.802 204.984 428.146 205.304L430.994 205.976C433.65 206.584 434.994 207.8 434.994 210.232C434.994 213.432 432.274 215.416 428.37 215.416C424.434 215.416 421.938 213.304 421.938 210.2ZM444.399 215.416C439.695 215.416 436.399 211.992 436.399 207.096C436.399 202.136 439.631 198.712 444.271 198.712C449.007 198.712 452.015 201.88 452.015 206.808V207.992L440.111 208.024C440.399 210.808 441.871 212.216 444.463 212.216C446.607 212.216 448.015 211.384 448.463 209.88H452.079C451.407 213.336 448.527 215.416 444.399 215.416ZM444.303 201.912C441.999 201.912 440.591 203.16 440.207 205.528H448.143C448.143 203.352 446.639 201.912 444.303 201.912ZM456.154 215.384C454.746 215.384 453.562 214.232 453.562 212.856C453.562 211.448 454.746 210.296 456.154 210.296C457.562 210.296 458.746 211.448 458.746 212.856C458.746 214.232 457.562 215.384 456.154 215.384Z" fill="white"/>
</svg>
