<svg width="171" height="149" viewBox="0 0 171 149" fill="none" xmlns="http://www.w3.org/2000/svg">
<path d="M21.75 109L35.75 103.5L56.25 107L71.25 102L80.25 106V138.5L57.25 148L21.75 140V109Z" fill="#FDC4C4"/>
<path d="M43.9023 51.6043L45.4044 50.156C45.7669 49.7935 46.1846 49.4909 46.6419 49.2593L47.6553 48.7436L46.3101 47.5913L44.0413 49.9363L43.9023 51.6043Z" fill="black"/>
<path d="M66.4559 89.6893C59.3312 88.0214 61.1516 72.92 61.1516 72.92L64.5278 71.8843C64.5278 71.8843 61.9586 80.4034 63.4831 83.7618C65.0076 87.1201 66.4559 89.6893 66.4559 89.6893Z" fill="black"/>
<path d="M41.8714 57.5362C42.0059 56.7963 42.1269 56.0475 42.2435 55.2943C42.2839 55.0208 42.2884 54.7428 42.3377 54.4648C42.4946 53.4918 42.7053 52.5188 42.943 51.5548C43.0446 51.1214 43.1477 50.6909 43.2524 50.2635C43.3646 49.6967 43.5837 49.1565 43.898 48.6718C44.0012 48.5238 44.1581 48.6404 44.2702 48.8556C44.402 49.1013 44.4402 49.3864 44.3778 49.6582C44.0819 50.6715 43.9294 51.7431 43.6649 52.8372C43.55 53.514 43.4722 54.1965 43.4317 54.8818C43.351 55.6395 43.2703 56.4018 43.1717 57.164C43.1179 57.6348 43.0461 58.1101 42.9789 58.5809C42.866 59.3054 42.7164 60.0238 42.5305 60.7331C42.4252 61.334 42.2093 61.9102 41.8938 62.4324C41.8153 62.5622 41.7204 62.6813 41.6113 62.7867C41.1629 63.1812 40.9029 63.1454 40.7146 62.8763C40.6628 62.8177 40.6163 62.7547 40.5756 62.688C40.5236 62.576 40.5079 62.4506 40.5307 62.3293C40.5569 62.2184 40.6008 62.1124 40.6607 62.0154C40.8507 61.6972 40.9927 61.3528 41.0822 60.9931C41.2261 60.5683 41.3459 60.1357 41.4409 59.6973C41.5979 59.0068 41.7458 58.276 41.8579 57.5317L41.8714 57.5362Z" fill="black"/>
<path d="M33.321 45.4973C33.9214 44.2719 34.6186 43.0964 35.4059 41.982C36.1682 40.8745 36.9708 39.8163 37.8003 38.7582L38.697 37.6148L39.6386 36.4984C40.791 35.216 41.9926 33.9919 43.2256 32.8037C44.4587 31.6155 45.7679 30.5036 47.1041 29.423C48.3058 28.4903 49.5164 27.5532 50.7808 26.7327C51.5924 26.1946 52.4174 25.6656 53.2827 25.2082C53.7182 24.9776 54.1674 24.774 54.6279 24.5984C55.0805 24.4092 55.5448 24.2489 56.0178 24.1187C56.6052 23.9438 56.5828 24.159 56.1837 24.5446C55.9226 24.793 55.6439 25.0223 55.3498 25.2306C54.9624 25.5365 54.5533 25.8137 54.1257 26.0601C52.446 26.9943 50.8392 28.054 49.3191 29.2302C47.7856 30.4139 46.2701 31.6335 44.7995 32.9338C43.0293 34.5466 41.3808 36.288 39.8673 38.1439C39.4189 38.6461 39.0333 39.1662 38.6163 39.6773C38.1993 40.1885 37.8137 40.7176 37.4236 41.2601C36.6398 42.3148 35.9124 43.4104 35.2445 44.5422C34.4242 45.9155 33.8193 47.4065 33.451 48.9632C32.8752 51.3667 32.4262 53.7987 32.1059 56.2494C31.8593 58.146 31.7203 60.0157 31.5499 61.9034C31.5096 62.3204 31.4871 62.7284 31.4244 63.1454C31.2091 64.6923 31.0522 65.1721 30.7294 65.468C30.6632 65.5412 30.5895 65.6073 30.5097 65.6653C30.2855 65.7863 30.1824 65.1317 30.2093 63.9883C30.2093 62.289 30.3931 60.5583 30.559 58.7961C30.7249 57.034 30.9625 55.2495 31.236 53.4604C31.4423 52.1153 31.6844 50.8061 31.9714 49.4833C32.1194 48.8242 32.2628 48.1606 32.4825 47.4701C32.6952 46.7981 32.9513 46.1406 33.2493 45.5018L33.321 45.4973Z" fill="black"/>
<path d="M49.6868 55.1599C49.5817 54.4723 49.4319 53.7924 49.2385 53.1243C49.1622 52.8777 49.0636 52.64 48.9739 52.3934C48.689 51.515 48.3352 50.6604 47.9158 49.8377C47.7193 49.4762 47.5007 49.1273 47.2611 48.7929C46.9377 48.3831 46.6383 47.955 46.3644 47.5106C46.2881 47.3626 46.454 47.246 46.7051 47.2236C46.8506 47.2075 46.9978 47.2249 47.1354 47.2747C47.273 47.3244 47.3973 47.4051 47.4988 47.5106C48.2353 48.3599 48.8399 49.3152 49.2923 50.3443C49.5523 50.9676 49.92 51.5639 50.189 52.2006C50.487 52.9041 50.7196 53.6336 50.884 54.3797C50.9333 54.6084 50.9916 54.8281 51.032 55.0702L51.1351 55.7697C51.1934 56.1239 51.1844 56.4916 51.2113 56.8458C51.2382 57.2 51.2113 57.5722 51.2113 57.9309C51.1799 58.2133 51.1665 58.4913 51.1575 58.7783C51.125 59.0644 51.0711 59.3477 50.9961 59.6257C50.9772 59.7517 50.9395 59.8742 50.884 59.9889C50.6733 60.4373 50.5163 60.518 50.1801 60.4373C50.1041 60.4211 50.0292 60.4002 49.9559 60.3745C49.8383 60.3157 49.7436 60.2195 49.6868 60.101C49.6299 59.9824 49.6142 59.8484 49.642 59.7199C49.7317 59.3029 49.7093 58.8635 49.772 58.4599C49.772 58.2492 49.8079 58.0385 49.8393 57.8322V57.1821C49.8393 56.8592 49.8079 56.523 49.8079 56.1912C49.8079 55.8594 49.7317 55.5186 49.6689 55.1778L49.6868 55.1599Z" fill="black"/>
<path d="M80.8442 69.7725C80.8442 69.7725 81.584 96.9262 80.2568 97.9485C78.9296 98.9708 76.4814 99.2712 76.4814 99.2712C76.4814 99.2712 80.5751 89.8553 79.5259 81.8069C78.7413 75.8031 76.9881 75.7986 76.9881 75.7986L80.8442 69.7725Z" fill="black"/>
<path d="M64.797 113.659C64.7297 113.888 65.1557 113.951 65.9045 113.902C72.7288 113.426 77.8985 118.34 78.2752 125.174C78.6294 131.635 76.0333 139.567 76.0333 139.567L80.9654 136.298L81.3555 106.705L64.797 113.659Z" fill="black"/>
<path d="M145.271 49.7435C145.271 49.7435 156.768 43.5828 156.391 23.4014L168.439 33.2118C168.439 33.2118 165.224 34.1803 164.655 38.9018C164.085 43.6232 165.224 46.8022 162.767 49.7435C160.31 52.6849 155.593 51.7388 155.405 54.9492C155.216 58.1595 152.764 56.8592 152.764 56.8592L145.271 49.7435Z" fill="black"/>
<path d="M53.5295 25.0962C45.813 28.3514 40.8584 34.9964 40.8584 34.9964L41.5579 35.3326L53.5295 25.0962Z" fill="black"/>
<path d="M59.9995 58.4061L61.9231 58.989C62.1562 59.0607 62.3984 59.11 62.6315 59.1818L65.111 59.935L66.214 60.2399C66.6901 60.3549 67.16 60.4941 67.6219 60.6569C67.7654 60.7107 67.7251 60.8049 67.5816 60.8766C67.3669 60.9685 67.1307 60.9981 66.9001 60.9618C66.4113 60.8721 65.9136 60.8094 65.4249 60.7107C64.9362 60.6121 64.4609 60.4372 63.9811 60.2624C63.4117 60.0696 62.7929 59.9575 62.1876 59.814L60.2282 59.2849L59.0221 58.9576C58.4123 58.7917 57.8025 58.6168 57.1927 58.4823C56.7219 58.3747 56.2421 58.3209 55.7669 58.2402C55.6613 58.2307 55.5564 58.2142 55.453 58.1909C55.0674 58.1012 54.9598 58.016 54.9329 57.7828C54.926 57.7307 54.926 57.678 54.9329 57.6259C54.9329 57.4555 55.1257 57.3614 55.4216 57.3748C56.3108 57.45 57.1907 57.6107 58.0491 57.8546C58.7037 58.0205 59.3539 58.2088 60.004 58.3881L59.9995 58.4061Z" fill="black"/>
<path d="M35.8767 144.311C29.2721 144.494 12.458 142.598 11.4088 139.737C10.5524 137.401 20.892 136.433 20.892 136.433L21.1745 139.737L35.8767 144.311Z" fill="black"/>
<path d="M37.3923 145.006C35.5181 144.489 33.6499 143.937 31.7876 143.351C31.1106 143.132 30.4201 142.966 29.752 142.724C27.3489 141.942 25.0177 140.955 22.7842 139.773L22.4166 139.567L22.2282 139.468C22.143 139.417 22.0647 139.355 21.9951 139.284C21.7599 139.041 21.5876 138.744 21.4929 138.419C21.3181 137.866 21.2097 137.294 21.1701 136.715C21.0829 135.302 21.0695 133.884 21.1297 132.469C21.1297 132.057 21.2508 132.07 21.4525 132.429C21.7212 133.018 21.8851 133.649 21.9368 134.294C21.9996 135.011 22.0623 135.72 22.161 136.406C22.2288 137.042 22.3702 137.668 22.5825 138.271C22.6194 138.356 22.6694 138.435 22.7304 138.504L22.7887 138.531L23.0174 138.652L23.941 139.141C24.5867 139.428 25.2099 139.755 25.8735 140.038C27.4952 140.713 29.1539 141.295 30.8416 141.782C32.6978 142.356 34.5631 142.912 36.4418 143.419C37.5986 143.732 38.7554 144.042 39.9212 144.315C41.6833 144.764 43.4544 145.212 45.221 145.557C46.593 145.84 47.9561 146.006 49.3192 146.266C49.6196 146.315 49.911 146.355 50.2159 146.414C51.3324 146.624 51.6776 146.75 51.8794 147.041C51.9316 147.1 51.9768 147.165 52.0139 147.234C52.0901 147.436 51.6059 147.521 50.7629 147.467C49.5164 147.369 48.2341 147.257 46.9517 147.05C45.6694 146.844 44.3781 146.602 43.0822 146.355C41.1587 145.979 39.2486 145.503 37.352 145.01L37.3923 145.006Z" fill="black"/>
<path d="M31.4421 65.253C31.2955 65.219 31.156 65.1598 31.0296 65.0781C30.9938 65.0781 31.0296 65.0198 31.061 65.0288L31.348 65.0736C31.4063 65.0736 32.3299 65.2888 32.6438 65.3382L33.5405 65.513C34.1593 65.6341 34.7781 65.7417 35.4013 65.8358C35.5403 65.8583 35.6793 65.8852 35.8138 65.9166C36.2815 66.0234 36.7544 66.1057 37.2307 66.1632C37.3097 66.17 37.3892 66.17 37.4683 66.1632C37.5983 66.1632 38.8852 66.3201 39.0511 66.3604C39.4591 66.4456 39.8716 66.5129 40.2886 66.5802C40.3484 66.583 40.4074 66.5951 40.4635 66.616C40.5854 66.6569 40.7119 66.6825 40.8401 66.6922L41.3737 66.7774C41.4614 66.7936 41.5483 66.8146 41.6337 66.8402C41.7144 66.8626 41.6696 66.903 41.6337 66.9075C41.5979 66.912 41.6337 66.9478 41.6337 66.9658C41.6337 66.9837 41.6337 66.9658 41.6337 66.9882H41.4634L41.0867 67.0106C40.8792 67.0232 40.671 67.0232 40.4635 67.0106L39.6564 66.9523L38.7596 66.8761C38.6689 66.8662 38.579 66.8497 38.4906 66.8268L37.1948 66.6564C36.9448 66.6217 36.6975 66.5693 36.455 66.4994C36.4083 66.4843 36.3602 66.4737 36.3115 66.4681C35.8631 66.3963 35.4596 66.2932 35.0426 66.1901L34.3969 66.0376L34.2804 66.0062L34.1369 65.9659C33.6257 65.8403 33.1235 65.7013 32.6169 65.5713L31.8188 65.3292C31.7515 65.3651 31.5094 65.2664 31.4421 65.253Z" fill="black"/>
<path d="M35.5046 63.5087C35.3797 63.4842 35.2637 63.4269 35.1683 63.3428C35.1369 63.3428 35.1683 63.2755 35.1997 63.28L35.4418 63.3114C35.4911 63.3114 36.2578 63.4952 36.5224 63.5266L37.2846 63.6566L38.8405 63.8898L39.1857 63.9436C39.5803 64.0198 39.9794 64.0736 40.3784 64.114C40.4456 64.1184 40.513 64.1184 40.5802 64.114C40.6878 64.114 41.7729 64.2306 41.9253 64.253L42.9611 64.4458C43.0116 64.4493 43.0614 64.4599 43.109 64.4772C43.2088 64.5189 43.3149 64.5432 43.4229 64.5489L43.8713 64.6341C43.9446 64.6548 44.0165 64.6803 44.0865 64.7103C44.1493 64.7103 44.0865 64.7821 44.0865 64.7821C44.0865 64.7821 44.0865 64.8224 44.0865 64.8448V64.8673H43.943H43.6336L43.118 64.8404L42.4544 64.7641L41.6966 64.6879C41.6228 64.6803 41.5494 64.6683 41.4769 64.652L40.3919 64.5399C40.1836 64.5191 39.9769 64.4846 39.7731 64.4368H39.6476C39.2889 64.392 38.9346 64.3292 38.5759 64.2664L38.0289 64.1768H37.9348L37.8092 64.1454C37.3608 64.0647 36.9528 63.9615 36.5269 63.8674C36.4282 63.8674 35.9664 63.7015 35.8543 63.6701C35.7422 63.6387 35.5584 63.5176 35.5046 63.5087Z" fill="black"/>
<path d="M41.4595 61.7151C41.4073 61.7204 41.3545 61.7135 41.3055 61.6948C41.2564 61.6761 41.2124 61.6462 41.177 61.6075C41.1501 61.6075 41.177 61.5133 41.177 61.5043L41.3653 61.455C41.4057 61.455 42.0289 61.4192 42.2621 61.4192C42.4674 61.4153 42.6728 61.4273 42.8763 61.455C43.2888 61.5088 43.7014 61.5626 44.1094 61.6344C44.2002 61.65 44.29 61.671 44.3784 61.6971C44.6833 61.7868 44.9927 61.8496 45.3021 61.9079C45.3527 61.9145 45.4039 61.9145 45.4545 61.9079C45.7993 61.951 46.1408 62.017 46.4768 62.1052L47.257 62.3607C47.2971 62.3647 47.3357 62.3785 47.3691 62.4011C47.438 62.4509 47.518 62.4832 47.6022 62.4953C47.7188 62.5222 47.8309 62.5535 47.943 62.5894C47.998 62.6125 48.0506 62.6411 48.0999 62.6746C48.1448 62.706 48.0999 62.7688 48.0999 62.7733C48.0999 62.7777 48.0999 62.8226 48.0999 62.854C48.0999 62.8853 48.0999 62.854 48.0999 62.8809C47.8432 62.8987 47.5855 62.8987 47.3287 62.8809L46.2302 62.6881C46.1721 62.6764 46.1151 62.6599 46.0598 62.6387L45.2303 62.4773C45.0773 62.4452 44.9273 62.4002 44.7819 62.3428C44.7526 62.3277 44.7206 62.3186 44.6878 62.3159C44.4143 62.2621 44.1452 62.1904 43.8762 62.1276C43.7372 62.0917 43.5982 62.0738 43.4592 62.0469L43.383 62.0245H43.2888C42.9615 61.9707 42.6297 61.9079 42.2979 61.8765C42.2217 61.8765 41.8496 61.7868 41.7733 61.7868C41.6709 61.7542 41.5659 61.7302 41.4595 61.7151Z" fill="black"/>
<path d="M47.1895 59.8002C47.0729 59.8002 46.9878 59.742 46.916 59.6164C46.916 59.5761 46.916 59.4729 46.9474 59.4595C47.0151 59.4388 47.084 59.4223 47.1537 59.4102C47.194 59.4102 47.8352 59.4415 48.0504 59.464C48.2602 59.4796 48.4686 59.5111 48.6737 59.5581C49.0951 59.6433 49.5121 59.733 49.9246 59.8316C50.0164 59.8511 50.1063 59.8781 50.1936 59.9123C50.4979 60.0223 50.8096 60.1107 51.1263 60.1769C51.1766 60.1951 51.2297 60.2042 51.2832 60.2038C51.6334 60.2677 51.9792 60.3531 52.319 60.4594C52.579 60.5625 52.8436 60.6522 53.1081 60.7418C53.1485 60.7418 53.1888 60.7418 53.2202 60.7867C53.2891 60.8411 53.371 60.8766 53.4578 60.8898C53.5744 60.9257 53.691 60.9571 53.8031 60.9974C53.8602 61.0227 53.9143 61.0543 53.9645 61.0916C54.0138 61.1185 53.9645 61.1812 53.9645 61.1857C53.9645 61.1902 53.9421 61.2395 53.9421 61.2664V61.3068C53.8167 61.3146 53.6909 61.3146 53.5654 61.3068C53.4251 61.3173 53.2843 61.3173 53.144 61.3068L52.0051 61.105C51.9454 61.0918 51.887 61.0738 51.8302 61.0512L50.9738 60.8763C50.8086 60.8451 50.6486 60.7907 50.4985 60.7149C50.4681 60.6978 50.4346 60.6872 50.3999 60.6835C50.1219 60.6118 49.8529 60.5221 49.5749 60.4369C49.4359 60.3921 49.2924 60.3652 49.1534 60.3293L49.0772 60.2979C49.0473 60.2835 49.0156 60.2729 48.983 60.2666C48.6467 60.1903 48.3149 60.0872 47.9742 60.0379C47.898 60.0379 47.5258 59.9034 47.4451 59.8944C47.3644 59.8854 47.2344 59.7913 47.1895 59.8002Z" fill="black"/>
<path d="M53.6329 58.7291C53.5566 58.756 53.5073 58.6842 53.458 58.5542C53.4385 58.4945 53.4385 58.4301 53.458 58.3704C53.5007 58.3376 53.5474 58.3104 53.597 58.2897C53.7966 58.2688 53.9972 58.2598 54.1978 58.2628C54.3366 58.2619 54.475 58.2769 54.6103 58.3076C54.8883 58.3614 55.1618 58.4197 55.4309 58.4914C55.4899 58.5056 55.5471 58.5267 55.6012 58.5542C55.7903 58.6474 55.9908 58.7152 56.1976 58.756C56.231 58.7676 56.2673 58.7676 56.3007 58.756C56.5266 58.7906 56.7487 58.8461 56.9643 58.9219C57.1212 59.0115 57.2871 59.0743 57.4485 59.155C57.471 59.155 57.5024 59.155 57.5158 59.1954C57.5293 59.2357 57.61 59.2716 57.6638 59.2895C57.737 59.314 57.8088 59.3425 57.879 59.3747C57.9146 59.3999 57.9463 59.4301 57.9731 59.4644C58.0045 59.4913 57.9731 59.572 57.9731 59.5765C57.9731 59.581 57.9507 59.6393 57.9507 59.6751C57.9507 59.711 57.9507 59.702 57.9507 59.711C57.7743 59.753 57.594 59.777 57.4127 59.7828C57.4127 59.7828 56.7401 59.6751 56.6684 59.6572C56.6298 59.6474 56.5934 59.6306 56.5608 59.6079L56.0093 59.5137C55.9028 59.491 55.8021 59.4468 55.7133 59.3837C55.6926 59.3793 55.6713 59.3793 55.6506 59.3837C55.4757 59.3389 55.3053 59.2671 55.1304 59.2043C55.0452 59.173 54.9511 59.1595 54.8659 59.1326C54.7807 59.1057 54.8345 59.1326 54.8166 59.1102H54.7583C54.5508 59.0452 54.3376 59.0002 54.1216 58.9757C54.0133 58.9354 53.9025 58.9025 53.7898 58.877C53.7584 58.8143 53.6642 58.7156 53.6329 58.7291Z" fill="black"/>
<path d="M40.5086 62.5893C40.4516 62.5925 40.395 62.5778 40.3467 62.5473C40.2985 62.5167 40.261 62.4718 40.2395 62.4189C40.2171 62.383 40.2395 62.2844 40.2709 62.2754L40.4682 62.2261C40.5086 62.2261 41.1408 62.2619 41.365 62.2754C41.571 62.2913 41.7761 62.3182 41.9792 62.3561L43.2123 62.5668C43.302 62.5848 43.3916 62.6072 43.4813 62.6341C43.7852 62.7213 44.0956 62.7843 44.4094 62.8224C44.4614 62.8316 44.5145 62.8316 44.5664 62.8224C44.9144 62.8472 45.2604 62.8951 45.6021 62.9659C45.8667 63.0376 46.1357 63.0914 46.4047 63.1452C46.4434 63.1473 46.4814 63.1564 46.5168 63.1721C46.5918 63.2157 46.6768 63.2388 46.7634 63.2394C46.88 63.2394 46.9966 63.2618 47.1132 63.2842C47.173 63.298 47.2304 63.3207 47.2835 63.3515C47.3374 63.3739 47.3104 63.4501 47.2835 63.4546C47.2566 63.4591 47.2835 63.5174 47.2835 63.5488C47.2835 63.5802 47.2835 63.5712 47.2835 63.5802C47.0271 63.6413 46.7662 63.6818 46.5034 63.7012H45.9653L45.3555 63.6654C45.2944 63.6588 45.2342 63.6453 45.1762 63.625C45.1493 63.625 44.3422 63.5353 44.3153 63.5219C44.1492 63.5008 43.9865 63.4586 43.831 63.3963C43.7993 63.3846 43.7661 63.3771 43.7324 63.3739C43.4499 63.3246 43.1764 63.2484 42.8984 63.1811C42.7594 63.1452 42.6159 63.1183 42.45 63.0914C42.424 63.0845 42.3985 63.0755 42.3738 63.0645L42.2797 63.0376C41.9434 62.9704 41.6116 62.8807 41.2753 62.8359C41.1946 62.8359 40.8269 62.7103 40.7462 62.7058C40.6655 62.7014 40.5534 62.5848 40.5086 62.5893Z" fill="black"/>
<path d="M46.2614 60.7915C46.1718 60.7915 46.1224 60.7152 46.1045 60.5628C46.1045 60.509 46.1404 60.3745 46.1673 60.3655C46.2189 60.3394 46.273 60.3184 46.3287 60.3027C46.3601 60.3027 46.8129 60.3431 46.9699 60.3476C47.1213 60.3571 47.2714 60.3812 47.4182 60.4193L48.315 60.6031C48.381 60.6164 48.4455 60.6359 48.5078 60.6614C48.7216 60.7504 48.9463 60.8107 49.1759 60.8408C49.2139 60.852 49.2544 60.852 49.2925 60.8408C49.5507 60.8577 49.8055 60.909 50.0502 60.9932C50.234 61.0874 50.4269 61.1636 50.6152 61.2443C50.6421 61.2443 50.6735 61.2443 50.6914 61.2892C50.7093 61.334 50.799 61.3699 50.8618 61.3923C50.9447 61.4194 51.0256 61.4523 51.1039 61.4909C51.1441 61.5205 51.1802 61.5552 51.2115 61.5941C51.2429 61.6299 51.2115 61.7151 51.1846 61.7196C51.1577 61.7241 51.1577 61.7913 51.1532 61.8317C51.1487 61.8721 51.1532 61.8586 51.1532 61.8676C50.9613 61.9064 50.7661 61.9274 50.5703 61.9303L50.1892 61.8765C49.9964 61.8541 49.7946 61.8272 49.7408 61.8272C49.6977 61.8211 49.6565 61.8058 49.6198 61.7824L48.9965 61.6972C48.8753 61.6827 48.7589 61.6413 48.6558 61.5761C48.6335 61.5723 48.6108 61.5723 48.5885 61.5761C48.3847 61.5345 48.184 61.4791 47.9877 61.4102C47.8846 61.3788 47.7769 61.3609 47.6738 61.334H47.6245C47.6039 61.3199 47.5812 61.3093 47.5572 61.3026C47.3106 61.2488 47.073 61.1591 46.8219 61.1188C46.7636 61.1188 46.5125 60.9708 46.4453 60.9618C46.378 60.9529 46.2973 60.787 46.2614 60.7915Z" fill="black"/>
<path d="M52.0225 59.2537C51.9328 59.2537 51.8835 59.1865 51.8521 59.0789C51.8502 59.0559 51.8532 59.0329 51.861 59.0112C51.8687 58.9896 51.881 58.9698 51.8969 58.9533C51.9492 58.9492 52.0017 58.9492 52.0539 58.9533L52.6861 59.0564C52.8341 59.0789 52.982 59.1147 53.1345 59.1506L54.0312 59.3568C54.0981 59.3721 54.164 59.3916 54.2285 59.4151C54.4488 59.497 54.6752 59.5615 54.9056 59.6079C54.9441 59.6145 54.9835 59.6145 55.0221 59.6079C55.28 59.6616 55.5333 59.735 55.7799 59.8276L56.3493 60.0967C56.3762 60.0967 56.4076 60.0967 56.4256 60.1415C56.4712 60.1884 56.5284 60.2224 56.5915 60.2401C56.6743 60.276 56.7552 60.3164 56.8336 60.3612C56.8695 60.3836 56.9008 60.4195 56.9367 60.4464C56.9726 60.4733 56.9367 60.5137 56.9143 60.5137C56.8919 60.5137 56.9143 60.5495 56.8874 60.5719C56.8874 60.5719 56.7574 60.5719 56.6228 60.5361C56.4883 60.5002 56.3493 60.5002 56.3224 60.4912L55.9503 60.3926L55.5019 60.2984C55.4594 60.2902 55.4185 60.2751 55.3808 60.2536C55.3808 60.2536 54.7845 60.1415 54.7621 60.137C54.6418 60.1159 54.5253 60.0766 54.4168 60.0204C54.3959 60.009 54.3732 60.0014 54.3496 59.998C54.1433 59.9487 53.946 59.8814 53.7443 59.8187L53.4349 59.738C53.4159 59.7333 53.3978 59.7257 53.3811 59.7155C53.3583 59.7039 53.3342 59.6949 53.3093 59.6886C53.0627 59.6259 52.8206 59.5407 52.574 59.4869C52.5157 59.4869 52.2557 59.3524 52.1884 59.3344C52.1211 59.3165 52.0584 59.2537 52.0225 59.2537Z" fill="black"/>
<path d="M35.6932 64.6072C35.6088 64.5877 35.5297 64.5498 35.4615 64.4964C35.3933 64.4429 35.3377 64.3751 35.2986 64.2978C35.2717 64.2485 35.321 64.1544 35.3748 64.1588C35.4286 64.1633 35.59 64.1588 35.6932 64.1947C35.7963 64.2306 36.7244 64.5041 37.0652 64.5534L38.0337 64.7731C38.6973 64.9166 39.3788 65.0332 40.0379 65.1363C40.1859 65.1587 40.3339 65.1856 40.4863 65.2215C40.9956 65.3339 41.5104 65.4192 42.0287 65.4771C42.1152 65.486 42.2023 65.486 42.2888 65.4771C42.3605 65.4771 42.7372 65.5174 43.1407 65.5712C43.5442 65.625 43.9298 65.7192 44.0375 65.7416C44.4858 65.8761 44.9342 65.9793 45.3826 66.1362C45.4491 66.1486 45.5129 66.1729 45.5709 66.2079C45.6929 66.2816 45.8262 66.3346 45.9655 66.3649C46.1538 66.4231 46.3421 66.4904 46.5259 66.5666C46.6149 66.607 46.7017 66.6519 46.786 66.7011C46.8622 66.7415 46.786 66.7774 46.786 66.7774C46.786 66.7774 46.7546 66.8132 46.7591 66.8357C46.7636 66.8581 46.7591 66.8357 46.7591 66.8626H46.5753L46.1717 66.8132C45.8803 66.7774 45.5664 66.7549 45.5081 66.7415C45.4498 66.728 45.0598 66.6877 44.6562 66.6115C44.2527 66.5352 43.7595 66.4859 43.6877 66.4814C43.5907 66.4674 43.4948 66.4464 43.4008 66.4187L42.0063 66.2393C41.7361 66.2061 41.4692 66.1506 41.2082 66.0734C41.1553 66.0587 41.1013 66.0482 41.0468 66.042C40.5984 65.9748 40.1231 65.8806 39.6613 65.782L38.9529 65.643L38.8273 65.6071L38.6704 65.5623C38.1099 65.4457 37.5584 65.2932 37.0024 65.1453C36.8724 65.1184 36.2895 64.8718 36.1415 64.8269C36.0025 64.7955 35.7873 64.6252 35.6932 64.6072Z" fill="black"/>
<path d="M54.6501 59.5134C54.979 59.3859 55.3142 59.2751 55.6544 59.1816C55.7531 59.1816 55.7575 59.2041 55.6544 59.2579C55.4437 59.352 55.2374 59.4641 55.0177 59.5538C54.9549 59.5807 54.39 59.8049 53.7398 60.0022C53.0897 60.1995 52.3499 60.4192 51.9777 60.5178C51.2558 60.7151 50.5295 60.881 49.7986 61.0469C48.3199 61.3606 46.8579 61.7482 45.418 62.2082L44.4584 62.5176C43.3599 62.8628 42.2704 63.2439 41.1808 63.6385C41.0015 63.7058 40.8131 63.7685 40.6428 63.8448C40.3648 63.9748 37.401 65.0061 37.0019 65.1092C36.0379 65.4051 35.0649 65.6876 34.083 65.9387C33.944 65.9746 33.796 66.0194 33.666 66.0418C33.3637 66.0984 33.0644 66.1703 32.7693 66.257C32.3478 66.3602 31.9218 66.4633 31.5003 66.5485C31.2896 66.5933 31.0789 66.6247 30.8726 66.6606C30.6664 66.6964 30.7785 66.6337 30.8412 66.6157C31.0296 66.5574 30.8681 66.5799 30.8412 66.5664L31.2313 66.4543C31.46 66.3915 31.7694 66.3063 32.0877 66.2077C32.7154 66.0284 33.3701 65.8042 33.5001 65.7593L34.083 65.5755L35.3295 65.1675C36.2262 64.8626 37.1992 64.5353 37.392 64.4635C37.5848 64.3918 37.8045 64.329 38.0108 64.2662L40.9521 63.217C41.5216 63.0242 42.0865 62.818 42.6649 62.6521C42.777 62.6207 42.8936 62.5803 43.0102 62.54C43.9876 62.2052 44.9756 61.8898 45.974 61.5939C46.4851 61.4459 47.0007 61.3159 47.5164 61.1904L47.7988 61.1321L48.1531 61.0559C49.3771 60.7823 50.6057 60.5537 51.8208 60.2622C52.1033 60.1995 53.4349 59.8856 53.7488 59.7735C53.9102 59.7466 54.4976 59.5941 54.6501 59.5134Z" fill="black"/>
<path d="M52.3995 60.796C52.6643 60.6496 52.9553 60.5566 53.2559 60.5225C53.3456 60.5225 53.368 60.5897 53.2828 60.6435L52.7717 60.9439C52.673 61.0157 50.9333 61.8407 50.3235 62.0828C49.7137 62.3249 49.1533 62.5581 48.5569 62.7778C47.3508 63.2262 46.1312 63.6297 44.9027 63.9974C44.6291 64.0826 44.3556 64.1633 44.0776 64.2305C43.1316 64.4771 42.1945 64.7507 41.2618 65.0331C41.1049 65.0825 40.948 65.1273 40.8135 65.1856C40.5713 65.2797 38.0425 66.0465 37.7152 66.1361C36.8946 66.3558 36.0831 66.5845 35.267 66.8446C35.1527 66.8838 35.0359 66.9152 34.9173 66.9387C34.6606 66.9869 34.4085 67.0574 34.164 67.1495C33.8143 67.2616 33.4735 67.3826 33.1238 67.4858C32.9489 67.5396 32.7741 67.5799 32.5992 67.6247C32.4243 67.6696 32.5095 67.5978 32.5588 67.5709C32.7068 67.4947 32.5588 67.5216 32.5588 67.5127L33.5453 67.0239C34.0519 66.7908 34.59 66.5755 34.6976 66.5173L35.1818 66.3289L36.231 65.9568L37.9887 65.3784C38.1591 65.3246 38.3384 65.2797 38.5178 65.2349L41.0421 64.4592C41.5309 64.3247 42.0151 64.1633 42.5128 64.0646C42.6115 64.0646 42.7101 64.0153 42.8042 63.9884L45.3196 63.262C45.768 63.141 46.1671 62.9975 46.593 62.863L46.8262 62.8047L47.1176 62.7195C48.1175 62.3877 49.1219 62.0738 50.0993 61.6838C50.328 61.603 51.4131 61.2085 51.6687 61.0919C51.7852 61.0157 52.2785 60.8587 52.3995 60.796Z" fill="black"/>
<path d="M45.6736 60.6347C45.921 60.5177 46.1836 60.4361 46.4538 60.3926C46.53 60.3926 46.5435 60.4374 46.4538 60.4823C46.2969 60.5674 46.1444 60.6571 45.9785 60.7378C45.9292 60.7647 45.5032 60.953 45.01 61.1503C44.5168 61.3476 43.9653 61.5359 43.6649 61.6346C43.1179 61.8229 42.5664 61.9933 42.0104 62.1502L38.6655 63.1008L37.9212 63.3025C37.0693 63.5312 36.2263 63.8137 35.3923 64.1141C35.2533 64.1679 35.1099 64.2127 34.9798 64.2755C34.7691 64.3742 32.5048 65.2081 32.2044 65.3023C31.4646 65.5355 30.7247 65.7955 29.9625 65.9973C29.8564 66.03 29.7487 66.0569 29.6397 66.078C29.4045 66.1215 29.1724 66.1799 28.9447 66.2529C28.6219 66.3425 28.299 66.4232 27.9717 66.4995C27.8103 66.5353 27.6489 66.5578 27.4875 66.5847C27.326 66.6116 27.4112 66.5488 27.4606 66.5309C27.5996 66.477 27.4606 66.486 27.4606 66.4726L27.752 66.3739L28.4021 66.1497C28.8774 65.9794 29.3706 65.7865 29.4693 65.7552L30.8593 65.253L32.4331 64.6746C32.5855 64.6163 32.7469 64.567 32.9083 64.5132L35.1502 63.6792C35.5986 63.5312 36.0246 63.3653 36.4954 63.2308L36.7599 63.1501C37.5177 62.899 38.2933 62.7017 39.069 62.491L40.2483 62.1816L40.4635 62.1323L40.7325 62.074C41.6651 61.8319 42.6022 61.6256 43.5169 61.3207C43.7277 61.2624 44.741 60.9665 44.9786 60.8723C45.1042 60.8096 45.5571 60.693 45.6736 60.6347Z" fill="black"/>
<path d="M51.2516 63.0064C51.3874 62.9287 51.5447 62.8973 51.7 62.9168C51.7102 62.9183 51.7197 62.9227 51.7275 62.9295C51.7352 62.9364 51.7409 62.9453 51.7437 62.9552C51.7465 62.9651 51.7464 62.9756 51.7435 62.9855C51.7405 62.9954 51.7347 63.0042 51.7269 63.0109L51.4847 63.1678C51.4354 63.2037 50.588 63.5893 50.2965 63.7104C50.0051 63.8314 49.7316 63.9435 49.4446 64.0511C48.8617 64.2664 48.2788 64.4771 47.6915 64.6789C47.5614 64.7237 47.4269 64.7686 47.2969 64.8044C46.8485 64.9345 46.4001 65.0824 45.9518 65.2528C45.8765 65.2757 45.8031 65.3042 45.7321 65.338C45.6155 65.3963 44.4093 65.7864 44.2479 65.8536C43.8534 65.9657 43.4633 66.0913 43.0687 66.2123C43.0154 66.2349 42.9598 66.2514 42.9028 66.2616C42.7768 66.2823 42.6535 66.3169 42.5351 66.3648L42.0374 66.5352C41.9519 66.5593 41.8651 66.5788 41.7774 66.5934C41.7011 66.5934 41.7236 66.5441 41.746 66.5307C41.7684 66.5172 41.746 66.4858 41.746 66.4679L41.8939 66.3872L42.2213 66.2258C42.4679 66.1092 42.7234 65.9926 42.7773 65.9747L44.3062 65.3425C44.3869 65.3111 44.4721 65.2932 44.5573 65.2663L45.7634 64.8179C45.9966 64.7461 46.2118 64.6565 46.4674 64.6071L46.6064 64.5668C47.0054 64.4278 47.409 64.3022 47.8125 64.1767L48.4223 63.966L48.5344 63.9346L48.6734 63.8897C49.1532 63.7149 49.6374 63.5579 50.1082 63.3606C50.2158 63.3203 50.7494 63.1454 50.8705 63.0871C50.9915 63.0289 51.1933 63.0423 51.2516 63.0064Z" fill="black"/>
<path d="M49.5523 59.4689C49.7925 59.3348 50.053 59.2409 50.3236 59.1909C50.4043 59.1909 50.4267 59.2447 50.3505 59.2985C50.2742 59.3523 50.0545 59.5093 49.9021 59.6034C49.8528 59.6303 49.4537 59.8545 48.956 60.0787C48.4583 60.3029 47.9203 60.5271 47.6423 60.6437C47.0997 60.8589 46.5527 61.0517 46.0057 61.24C44.8847 61.5942 43.7862 61.9888 42.6742 62.3789C42.4276 62.4641 42.181 62.5448 41.9299 62.621C41.0735 62.8855 40.2261 63.1635 39.3832 63.4639C39.2415 63.5089 39.1023 63.5612 38.9662 63.6209C38.7509 63.724 36.4597 64.5176 36.1593 64.6208C35.415 64.8539 34.6752 65.105 33.9399 65.3606C33.8356 65.4004 33.7293 65.4348 33.6215 65.4637C33.3884 65.5172 33.1604 65.5907 32.94 65.6834L31.9984 66.0331C31.8415 66.087 31.68 66.1273 31.5231 66.1721C31.3662 66.217 31.4334 66.1273 31.4783 66.1004C31.6083 66.0287 31.4783 66.0466 31.4783 66.0287C31.4783 66.0107 31.4783 66.0287 31.4783 66.0062L31.5545 65.9659L31.7563 65.8672L32.384 65.5668C32.8324 65.3516 33.3346 65.1185 33.4332 65.0916L36.397 63.9123C36.5539 63.8496 36.7153 63.8002 36.8722 63.7509L39.141 62.8945C39.5894 62.7421 40.0378 62.5672 40.4862 62.4461C40.5758 62.4237 40.661 62.3878 40.7507 62.3565C41.5085 62.0919 42.2707 61.8543 43.033 61.6077L44.1987 61.2131L44.414 61.1548L44.683 61.0741C45.6066 60.7692 46.5437 60.5226 47.4539 60.2042C47.6647 60.137 48.6735 59.8186 48.9067 59.711C48.9874 59.6662 49.4403 59.5137 49.5523 59.4689Z" fill="black"/>
<path d="M35.1682 112.153C36.9079 112.552 38.6476 112.933 40.3963 113.274C41.0375 113.4 41.6787 113.498 42.3198 113.61C44.5617 114.059 46.8305 114.409 49.0993 114.731C50.1081 114.866 51.126 114.942 52.1303 115.023L54.0718 115.104C54.7175 115.104 55.3586 115.103 56.0088 115.162C56.4078 115.184 56.363 115.35 56.0088 115.525C55.4616 115.766 54.8716 115.896 54.2736 115.906C51.5899 115.898 48.9115 115.668 46.2655 115.22C45.4719 115.072 44.6604 114.956 43.8443 114.834L41.4051 114.444L38.7418 113.938L36.0919 113.391L32.8367 112.669C31.2001 112.297 29.559 111.889 27.9359 111.499C26.676 111.189 25.4205 110.956 24.174 110.602C23.896 110.526 23.627 110.463 23.349 110.382C22.9807 110.272 22.6258 110.122 22.2908 109.934C22.1204 109.815 21.9942 109.643 21.9321 109.445C21.9051 109.381 21.8884 109.313 21.8828 109.243C21.8828 109.149 22.0039 109.118 22.2012 109.118C22.3182 109.119 22.435 109.128 22.5509 109.145C22.7176 109.163 22.8825 109.194 23.0441 109.239L29.9043 110.898C31.644 111.319 33.3971 111.736 35.1548 112.117L35.1682 112.153Z" fill="black"/>
<path d="M71.3474 112.05C70.4327 112.418 69.5135 112.773 68.5899 113.117C68.2536 113.247 67.9218 113.395 67.5855 113.512C66.3899 113.939 65.1762 114.317 63.9447 114.646C63.4022 114.803 62.8507 114.947 62.3081 115.095C61.6139 115.316 60.8891 115.426 60.1604 115.422C59.9317 115.422 59.9542 115.278 60.1201 115.086C60.3306 114.81 60.6355 114.621 60.9764 114.556L62.0122 114.314L63.048 114.045L65.1508 113.498C66.0055 113.242 66.8465 112.943 67.6707 112.602C68.5884 112.255 69.5061 111.898 70.4238 111.53L72.1096 110.83C72.9526 110.472 73.809 110.113 74.643 109.745C75.2931 109.454 75.9074 109.127 76.5531 108.849L77.0014 108.669C77.5485 108.468 77.7413 108.454 77.8982 108.539C77.9358 108.554 77.9718 108.572 78.0058 108.593C78.0955 108.66 77.9161 108.844 77.5574 109.068L76.7369 109.571L75.876 110.019C75.2976 110.315 74.7013 110.606 74.0825 110.916C73.1858 111.319 72.289 111.705 71.3519 112.09L71.3474 112.05Z" fill="black"/>
<path d="M81.3513 128.864C81.1405 131.263 80.9029 133.653 80.6025 136.038L80.5038 136.702L80.4725 136.877C80.4725 136.966 80.4142 137.052 80.3828 137.141C80.3648 137.182 80.3422 137.222 80.3155 137.258C80.3155 137.321 80.2617 137.33 80.2348 137.37C80.1673 137.422 80.097 137.47 80.0241 137.513C79.6519 137.756 79.2798 137.993 78.8986 138.213C76.2084 139.782 73.4554 141.186 70.6575 142.517C69.4155 143.1 68.1735 143.701 66.9315 144.261C65.3461 145.015 63.7188 145.677 62.0576 146.243C61.533 146.414 61.5509 146.243 61.9276 145.934C62.5542 145.469 63.2365 145.085 63.9587 144.791C67.2229 143.396 70.4154 141.836 73.6347 140.253C75.5582 139.302 77.4997 138.186 79.347 137.029L79.6699 136.827C79.6817 136.823 79.6918 136.815 79.699 136.804C79.7062 136.794 79.7101 136.782 79.7102 136.769V136.733V136.635C79.7595 136.348 79.7999 136.047 79.8402 135.738L80.0465 133.944C80.172 132.743 80.2886 131.537 80.3917 130.335C80.5173 128.851 80.6339 127.367 80.7325 125.882C80.8805 123.641 81.015 121.399 81.0688 119.157C81.1136 117.417 81.0688 115.713 81.0329 114.001C81.0329 113.624 81.006 113.252 80.9881 112.875C80.9567 111.463 80.9881 111.014 81.1898 110.7C81.2223 110.629 81.2597 110.56 81.3019 110.494C81.4006 110.351 81.6472 110.916 81.7503 111.96C81.9723 115.159 82.0008 118.367 81.8355 121.569C81.7324 123.99 81.5575 126.421 81.3871 128.842L81.3513 128.864Z" fill="black"/>
<path d="M57.5332 136.518C57.6139 135.002 57.6856 133.482 57.7395 131.967L57.7708 130.303C57.8291 128.353 57.9053 126.398 57.9412 124.443C57.9412 123.577 57.9412 122.708 57.9412 121.847C57.9412 120.739 57.8874 119.632 57.9188 118.529C57.9188 118.183 58.0399 118.224 58.1699 118.529C58.3643 118.992 58.4795 119.485 58.5107 119.986C58.679 122.243 58.7269 124.508 58.6541 126.77C58.6138 128.115 58.6541 129.554 58.6272 130.949C58.6033 132.482 58.5645 134.016 58.5107 135.549L58.3986 138.378C58.3448 139.809 58.2416 141.243 58.1699 142.66C58.134 143.212 58.1116 143.759 58.0981 144.306L58.0085 145.947C57.9816 146.194 57.9636 146.431 57.9322 146.673C57.9009 146.915 57.874 147.086 57.8381 147.243C57.8038 147.373 57.7603 147.5 57.7081 147.624C57.6786 147.705 57.6328 147.78 57.5734 147.843C57.514 147.907 57.4424 147.957 57.3628 147.992C57.3058 148.025 57.2458 148.054 57.1835 148.077C57.0176 148.117 56.8875 147.709 56.9638 147.09C57.0579 145.149 57.161 143.131 57.2642 141.1L57.4928 136.518H57.5332Z" fill="black"/>
<path d="M66.362 104.934L64.3846 105.562C64.1425 105.638 63.9094 105.737 63.6717 105.813L61.1249 106.593C60.7483 106.714 60.3761 106.849 60.0085 106.988C59.546 107.182 59.0712 107.345 58.5871 107.476C58.2822 107.548 58.5154 106.965 59.0355 106.737C59.9825 106.343 60.9493 105.999 61.932 105.705C62.5239 105.535 63.1157 105.257 63.7255 105.064L65.6939 104.396L66.909 103.984C67.5188 103.768 68.1331 103.567 68.7339 103.333C69.1823 103.15 69.6306 102.93 70.079 102.728C70.1777 102.683 70.2718 102.634 70.3749 102.594C70.7516 102.441 70.8906 102.446 71.0475 102.594C71.0858 102.63 71.1217 102.669 71.1551 102.71C71.2493 102.849 71.1551 103.033 70.8771 103.181C70.0649 103.614 69.2174 103.977 68.3438 104.266C67.6892 104.499 66.9987 104.714 66.362 104.939V104.934Z" fill="black"/>
<path d="M48.2069 107.145L44.7544 106.414C44.3329 106.324 43.907 106.27 43.49 106.172C42.0103 105.844 40.5352 105.49 39.0645 105.141C38.4099 104.984 37.7463 104.849 37.0916 104.724C36.2446 104.582 35.4107 104.371 34.5987 104.091C34.3431 103.993 34.4283 103.8 34.6973 103.643C35.0667 103.446 35.4916 103.38 35.9034 103.455C36.7643 103.594 37.6073 103.795 38.4547 103.997C39.3021 104.199 40.1496 104.419 40.997 104.656C42.0148 104.939 43.0954 105.105 44.1356 105.32L47.615 106.015C48.328 106.149 49.0454 106.288 49.7583 106.414C50.8433 106.607 51.9329 106.804 53.018 106.948C53.8609 107.06 54.6994 107.095 55.5334 107.163C55.7172 107.163 55.901 107.163 56.0849 107.194C56.3294 107.222 56.5692 107.282 56.7978 107.373C56.927 107.44 57.0309 107.547 57.0937 107.678C57.1251 107.731 57.1521 107.787 57.1744 107.844C57.2013 107.929 57.1386 108.001 57.004 108.064C56.8158 108.153 56.6114 108.204 56.4032 108.212C54.8284 108.235 53.2553 108.097 51.7087 107.799C50.5384 107.616 49.3682 107.391 48.1979 107.172L48.2069 107.145Z" fill="black"/>
<path d="M27.649 68.6022L26.806 68.5484C26.7029 68.5484 26.5998 68.5484 26.4967 68.5484C26.1267 68.5168 25.7596 68.4584 25.3981 68.3736L24.9184 68.2704C24.7082 68.2353 24.5062 68.1624 24.322 68.0552C24.2099 67.988 24.4969 67.7324 24.7031 67.7772C25.0843 67.8624 25.4654 67.9117 25.8644 67.988C26.1112 68.0195 26.3603 68.0286 26.6087 68.0149H27.4472H27.9718C28.2364 68.0149 28.5054 68.0149 28.7699 68.0149C29.0345 68.0149 29.1824 67.988 29.3932 68.0149C29.4395 68.0125 29.4859 68.0125 29.5322 68.0149C29.7025 68.0552 29.7474 68.109 29.7519 68.257C29.7519 68.2884 29.7519 68.3242 29.7519 68.3556C29.7443 68.4096 29.7191 68.4595 29.6802 68.4977C29.6412 68.5358 29.5908 68.56 29.5366 68.5664C29.1883 68.6454 28.8293 68.6666 28.474 68.6291L27.6445 68.5933L27.649 68.6022Z" fill="black"/>
<path d="M35.751 70.5838C37.3443 70.9425 38.942 71.2848 40.5442 71.6106L42.3063 71.929C44.3688 72.3325 46.4359 72.7315 48.5118 73.0723C49.431 73.2203 50.3592 73.3413 51.2783 73.44C52.462 73.57 53.6502 73.6776 54.8205 73.8884C55.1837 73.9556 55.1164 74.1574 54.7846 74.3367C54.2815 74.5844 53.7202 74.6899 53.1615 74.6416C51.9374 74.5609 50.7268 74.395 49.5162 74.1932C48.3056 73.9915 47.1039 73.7852 45.8978 73.5297C44.4585 73.2248 42.943 73.0185 41.4678 72.7405C39.8417 72.4416 38.2201 72.1188 36.603 71.772L33.6168 71.1712L29.133 70.1444C27.9717 69.8799 26.8194 69.696 25.6715 69.3777C25.416 69.3149 25.1649 69.2566 24.9093 69.1759C24.567 69.0764 24.2419 68.9252 23.9453 68.7275C23.7851 68.6157 23.673 68.4476 23.6314 68.2567C23.619 68.1886 23.619 68.1187 23.6314 68.0505C23.6314 67.9698 23.7794 67.9563 23.9139 67.9653C24.022 67.9666 24.1299 67.9756 24.2367 67.9922C24.3876 68.0106 24.5373 68.0376 24.6851 68.0729C26.6759 68.5213 28.8281 69.0145 30.9624 69.5122C32.5631 69.8799 34.1728 70.252 35.7824 70.5928L35.751 70.5838Z" fill="black"/>
<path d="M81.1984 88.5908C81.0415 90.9314 80.8711 93.2674 80.6379 95.6124C80.5931 96.0384 80.5572 96.4643 80.4989 96.9038L80.472 97.0786C80.472 97.1638 80.4137 97.249 80.3868 97.3342C80.3731 97.3765 80.3519 97.416 80.3241 97.4508C80.3241 97.4508 80.2927 97.4508 80.3241 97.4956L80.3016 97.518L80.2523 97.5629C80.1851 97.6231 80.1114 97.6757 80.0326 97.7198L79.4856 98.0606C76.8592 99.5644 74.1462 100.912 71.361 102.096C70.1325 102.634 68.9039 103.177 67.6798 103.692C66.106 104.356 64.5412 105.037 62.8957 105.535C61.8823 105.853 62.9584 104.858 64.7609 104.123C67.9758 102.822 71.1413 101.432 74.3158 99.9617C75.2619 99.5133 76.2124 99.0649 77.1496 98.5269C77.5979 98.2668 78.0867 98.0068 78.5395 97.7288C78.7682 97.5898 78.9879 97.4597 79.2255 97.3163L79.5618 97.101L79.6605 97.0383C79.6707 97.0346 79.6797 97.028 79.6861 97.0192C79.6925 97.0104 79.696 96.9998 79.6963 96.9889C79.6963 96.9889 79.7322 96.7917 79.7457 96.6616L79.7995 96.2133L79.8891 95.3389L80.0416 93.5813C80.1357 92.4065 80.2165 91.2318 80.2927 90.057C80.3853 88.6073 80.4661 87.159 80.5348 85.7123C80.6334 83.5197 80.7276 81.3137 80.7455 79.1346C80.7455 77.4397 80.7142 75.7807 80.6469 74.1083L80.5931 73.0142C80.5527 71.6377 80.5931 71.2207 80.7859 70.8934C80.8212 70.8242 80.8601 70.7568 80.9025 70.6916C81.0011 70.5526 81.2432 71.1041 81.3508 72.1175C81.5801 75.2342 81.637 78.3611 81.5212 81.4841C81.4629 83.847 81.3374 86.2144 81.2029 88.5819L81.1984 88.5908Z" fill="black"/>
<path d="M57.3634 95.4198C57.4352 93.8594 57.5024 92.2811 57.5428 90.7297V89.0169C57.5876 87.0082 57.6549 84.9816 57.6728 82.9818C57.6728 82.085 57.6728 81.1883 57.6414 80.2915C57.6145 79.1527 57.5652 78.0138 57.5831 76.8749C57.5831 76.5162 57.6997 76.5566 57.8342 76.8525C58.0338 77.3283 58.1593 77.8318 58.2064 78.3456C58.4068 80.6759 58.4817 83.0153 58.4306 85.3537C58.3992 86.7571 58.4306 88.2188 58.4306 89.6581C58.4306 91.2364 58.4007 92.8162 58.3409 94.3975C58.311 95.3719 58.2811 96.3434 58.2512 97.3119C58.2064 98.7871 58.1122 100.262 58.0539 101.724C58.0001 102.863 57.9956 103.966 57.9329 105.114C57.9329 105.36 57.897 105.607 57.8701 105.858C57.8432 106.109 57.8163 106.306 57.7894 106.445C57.7573 106.579 57.7169 106.711 57.6683 106.84C57.6414 106.924 57.5982 107.001 57.5413 107.068C57.4843 107.135 57.4148 107.19 57.3365 107.23C57.2796 107.267 57.2196 107.298 57.1572 107.324C56.9913 107.373 56.8478 106.961 56.9106 106.315C56.9599 104.342 57.0585 102.244 57.1347 100.128C57.202 98.5584 57.2648 96.9891 57.332 95.4063L57.3634 95.4198Z" fill="black"/>
<path d="M57.6638 94.6576C57.6952 92.9941 57.7086 91.3261 57.7086 89.6626C57.7086 89.0528 57.6638 88.4475 57.6638 87.8378C57.6638 85.6945 57.6638 83.5513 57.6638 81.4035C57.6638 80.453 57.5965 79.4979 57.5607 78.5564C57.5024 77.3457 57.4261 76.1261 57.4441 74.9155C57.4441 74.5389 57.5965 74.5748 57.7804 74.8841C58.0453 75.375 58.2128 75.9124 58.2736 76.4669C58.5646 78.9389 58.7143 81.4254 58.7219 83.9145C58.7219 85.412 58.834 86.9634 58.8789 88.4924C58.9237 90.1783 58.9461 91.8597 58.9551 93.5456C58.9551 94.5813 58.9551 95.6171 58.9551 96.6528C58.9551 98.2222 58.9148 99.7915 58.9013 101.361C58.9013 102.571 58.9417 103.764 58.9013 104.979C58.9013 105.248 58.9013 105.508 58.8654 105.782C58.8539 106.145 58.7796 106.503 58.6457 106.84C58.6092 106.934 58.5525 107.019 58.4797 107.088C58.4069 107.158 58.3197 107.211 58.2242 107.244C58.1515 107.283 58.0749 107.314 57.9956 107.338C57.7759 107.382 57.5472 106.93 57.601 106.253C57.5741 104.177 57.5741 101.935 57.601 99.6884C57.601 98.0204 57.6458 96.339 57.6458 94.6621L57.6638 94.6576Z" fill="black"/>
<path d="M51.265 59.5137C48.9424 60.1115 46.6243 60.7273 44.3107 61.361L41.7908 62.0919C38.8016 62.9079 35.8304 63.7449 32.8771 64.6028C31.5633 64.9884 30.2541 65.4098 28.9672 65.8403L24.0575 67.5396C23.6091 67.7145 23.497 67.5038 23.8199 67.0913C24.0425 66.8257 24.3058 66.5972 24.6001 66.4142C24.9849 66.1545 25.4006 65.9436 25.8376 65.7865C27.5235 65.1632 29.2183 64.5983 30.9267 64.0602C32.635 63.5222 34.3523 63.0155 36.0964 62.5627C38.1814 62.0156 40.3067 61.3117 42.423 60.7019C44.7501 60.0293 47.0862 59.3881 49.4222 58.7515L53.7446 57.6081C54.8476 57.3256 55.9281 57.0521 57.0581 56.792C57.2483 56.736 57.4507 56.736 57.6409 56.792L58.0624 56.931L58.8695 57.1956L60.4478 57.7202C61.2773 57.9892 62.1023 58.2358 62.9273 58.4824L65.3844 59.2402C65.7476 59.3523 66.1018 59.4509 66.465 59.572C67.7877 60.0697 68.1823 60.3028 68.3975 60.6212C68.4529 60.6901 68.5024 60.7636 68.5455 60.8409C68.6307 61.0471 68.0164 61.0516 66.9851 60.8409C66.2184 60.7109 65.4606 60.5091 64.6984 60.3073C63.9362 60.1055 63.165 59.8903 62.3982 59.6661C60.8693 59.1864 59.3268 58.6618 57.7934 58.1551L57.3719 58.0161H57.2957L56.52 58.1999C55.9371 58.3345 55.3542 58.4869 54.7669 58.6483C53.5966 58.9398 52.4263 59.2447 51.2605 59.5451L51.265 59.5137Z" fill="black"/>
<path d="M81.9701 89.1065C81.867 91.9178 81.7818 94.6932 81.5531 97.5404C81.5531 97.5853 81.5531 97.7198 81.5172 97.8274C81.5047 97.9361 81.4853 98.044 81.4589 98.1502C81.4362 98.1965 81.4108 98.2414 81.3827 98.2847L81.3379 98.3475L81.3155 98.3744L81.3468 98.3968L81.1047 98.5896L80.2707 99.038C79.8224 99.2667 79.3426 99.4864 78.8763 99.7016C77.2218 100.441 75.5538 101.127 73.8814 101.805C72.2089 102.482 70.532 103.15 68.8461 103.773L64.3848 105.508C62.4966 106.295 60.5655 106.975 58.6007 107.544C57.9819 107.705 57.9954 107.441 58.4303 107.046C59.1363 106.465 59.9371 106.01 60.7977 105.701C64.6627 104.23 68.5008 102.67 72.4107 101.195C74.7512 100.298 77.1187 99.2218 79.4054 98.1278L79.8762 97.8991L80.2528 97.7063L80.338 97.666C80.3523 97.6395 80.3614 97.6106 80.3649 97.5808V97.4732L80.3873 97.2221C80.4411 96.5316 80.477 95.8276 80.5129 95.1282C80.5756 93.7292 80.6294 92.3213 80.6698 90.9134C80.7191 89.1827 80.7595 87.452 80.7819 85.7167C80.8133 83.0982 80.8402 80.4573 80.7819 77.8567C80.7371 75.8345 80.5936 73.8527 80.4366 71.8664C80.3963 71.418 80.3604 71.001 80.3201 70.5616C80.208 68.9295 80.2304 68.4139 80.5353 68.0238C80.5868 67.9352 80.6437 67.8498 80.7057 67.7682C80.8536 67.5844 81.2661 68.2166 81.441 69.4362C81.9105 73.1449 82.1351 76.8805 82.1136 80.6187C82.136 83.4435 82.0777 86.2772 82.0149 89.1065H81.9701Z" fill="black"/>
<path d="M57.9454 135.738C58.0112 134.121 58.0605 132.499 58.0934 130.873C58.0934 130.281 58.0934 129.689 58.0934 129.079C58.1248 126.99 58.1831 124.9 58.1965 122.802C58.1965 121.874 58.1652 120.946 58.1472 120.027C58.1113 118.843 58.0575 117.659 58.0889 116.48C58.0889 116.117 58.2459 116.148 58.4252 116.448C58.6768 116.93 58.8292 117.458 58.8736 118C59.1279 120.414 59.2342 122.841 59.1919 125.268C59.1695 126.725 59.2457 128.241 59.2547 129.729C59.2547 131.37 59.2547 133.012 59.2278 134.662C59.2278 135.67 59.1875 136.679 59.1695 137.688C59.1426 139.217 59.0619 140.755 59.0126 142.275C58.9812 143.454 59.0126 144.616 58.9453 145.799C58.9453 146.064 58.9184 146.319 58.887 146.579C58.8697 146.936 58.7861 147.285 58.6404 147.611C58.5995 147.704 58.5378 147.787 58.4601 147.853C58.3825 147.919 58.2908 147.966 58.1921 147.992C58.1168 148.025 58.0388 148.052 57.9589 148.073C57.7437 148.104 57.5419 147.656 57.5957 147.005C57.6181 144.983 57.663 142.8 57.7213 140.616C57.7706 138.988 57.8244 137.352 57.8737 135.72L57.9454 135.738Z" fill="black"/>
<path d="M20.6184 135.482C20.3897 130.133 20.2686 124.779 20.3359 119.417C20.3673 117.462 20.3852 115.502 20.5377 113.538C20.6228 112.512 20.726 111.485 20.9143 110.449C20.9636 110.189 21.0174 109.924 21.0847 109.66C21.1544 109.377 21.2443 109.1 21.3537 108.83C21.4888 108.437 21.7567 108.102 22.1115 107.884C22.2881 107.793 22.4881 107.757 22.6854 107.781C22.8849 107.828 23.0767 107.904 23.2548 108.005L23.3938 108.068L23.488 108.104L23.6808 108.176L24.0888 108.315C24.3713 108.404 24.6493 108.494 24.9407 108.57C25.5102 108.741 26.093 108.893 26.6759 109.046C27.8372 109.346 29.012 109.633 30.1822 109.911C32.5317 110.464 34.8887 110.993 37.2531 111.498C40.2259 112.139 43.2345 112.722 46.2207 113.292C50.0364 113.991 53.8745 114.673 57.6722 115.439C58.8559 115.677 58.6542 115.928 57.596 116.045C55.864 116.178 54.1222 116.089 52.4128 115.78C48.4895 115.148 44.5931 114.381 40.7012 113.57C36.8093 112.758 32.9129 111.893 29.0434 110.911L25.9854 110.131C25.4743 109.996 24.9587 109.857 24.4385 109.709L23.6539 109.472L23.2593 109.337L22.8916 109.194C22.8441 109.165 22.7928 109.144 22.7392 109.131C22.7115 109.133 22.6848 109.142 22.6614 109.157C22.6379 109.172 22.6185 109.192 22.6047 109.216C22.5723 109.261 22.5466 109.311 22.5284 109.364C22.4742 109.511 22.4278 109.66 22.3895 109.812C22.2282 110.456 22.1128 111.111 22.0442 111.772C21.8873 113.117 21.8066 114.502 21.7483 115.874C21.542 121.219 21.6586 126.6 21.8514 131.967C21.9082 133.617 21.9829 135.261 22.0756 136.899L22.1473 138.136L22.1787 138.679C22.187 138.73 22.2056 138.779 22.2333 138.823C22.2611 138.867 22.2974 138.905 22.3401 138.934C22.6395 139.162 22.9628 139.356 23.3041 139.513C23.6584 139.688 24.0305 139.849 24.4071 139.997C26.7403 140.874 29.1168 141.631 31.5274 142.266C33.9396 142.925 36.3654 143.521 38.7911 144.059C42.5574 144.911 46.2879 145.588 50.0453 146.243L52.5159 146.651C54.0583 146.938 55.0716 147.131 55.7756 147.319C56.2736 147.435 56.7513 147.625 57.1925 147.884C57.3371 147.961 57.4764 148.048 57.6095 148.144C57.744 148.27 57.4884 148.346 56.9055 148.377C56.0222 148.415 55.1374 148.379 54.2601 148.27C52.5473 148.099 50.8255 147.821 49.0903 147.543C47.3551 147.265 45.6154 146.933 43.8622 146.579C40.3604 145.871 36.8272 145.068 33.3029 144.162C30.6889 143.481 28.0794 142.759 25.4833 141.862C24.8376 141.638 24.1874 141.414 23.5418 141.122C22.8347 140.85 22.1644 140.49 21.5465 140.051C21.4978 140.016 21.4514 139.979 21.4075 139.939C21.3429 139.881 21.2815 139.819 21.2237 139.755C21.1155 139.633 21.0222 139.499 20.9457 139.356C20.907 139.283 20.8812 139.204 20.8695 139.123V139.064V139.033V138.916L20.8426 138.562L20.7843 137.549L20.6767 135.522L20.6184 135.482Z" fill="black"/>
<path d="M71.8767 111.077L68.7022 112.319C68.3166 112.472 67.9444 112.651 67.5588 112.799C66.1898 113.319 64.8163 113.823 63.4383 114.31L61.6134 114.996C61.2188 115.135 60.8422 115.305 60.4341 115.444C60.0317 115.602 59.6017 115.677 59.1697 115.664C58.8962 115.664 58.9141 115.48 59.08 115.216C59.2701 114.851 59.5901 114.571 59.9768 114.431C60.7435 114.166 61.5192 113.857 62.2994 113.57C63.0796 113.283 63.8866 113.028 64.6982 112.772C65.6667 112.476 66.6217 112.019 67.5813 111.629L70.7603 110.355L72.7152 109.566L75.67 108.355C76.4277 108.037 77.1451 107.656 77.9119 107.342C78.0822 107.275 78.2392 107.203 78.4141 107.145C79.0507 106.93 79.2839 106.934 79.4812 107.06C79.5281 107.083 79.5731 107.11 79.6157 107.14C79.7188 107.239 79.5126 107.468 79.0911 107.723L78.145 108.302L77.1451 108.817C76.4681 109.149 75.8 109.481 75.0826 109.804C74.0379 110.252 72.9752 110.7 71.9171 111.122L71.8767 111.077Z" fill="black"/>
<path d="M62.6178 72.624L61.6179 72.9468C61.4924 72.9872 61.3848 73.0544 61.2637 73.0903L59.959 73.4894C59.77 73.5509 59.5857 73.6258 59.4074 73.7136C59.1856 73.8463 58.9407 73.936 58.6856 73.9781C58.5197 73.9781 58.4569 73.2966 58.708 73.1576C59.1667 72.9126 59.6528 72.7229 60.1562 72.5926C60.4641 72.5003 60.764 72.3834 61.053 72.2429L62.0484 71.8707L62.6582 71.6421C62.9676 71.5255 63.2814 71.4179 63.5818 71.2834C63.8823 71.1488 64.0302 71.0143 64.2544 70.8933C64.3038 70.8637 64.3547 70.8368 64.4069 70.8126C64.6041 70.7318 64.6938 70.7767 64.8104 71.0054C64.8385 71.0563 64.8639 71.1087 64.8866 71.1623C64.9205 71.236 64.9313 71.3183 64.9177 71.3982C64.9041 71.4782 64.8667 71.5523 64.8104 71.6107C64.4568 71.9031 64.0526 72.128 63.6177 72.2743C63.2949 72.3998 62.9631 72.5119 62.6358 72.633L62.6178 72.624Z" fill="black"/>
<path d="M30.8239 105.642C30.1065 105.858 29.3891 106.091 28.6806 106.315C28.4206 106.4 28.1695 106.512 27.9094 106.597L25.1474 107.494C24.7394 107.629 24.3448 107.795 23.9413 107.943C23.436 108.153 22.9141 108.321 22.3809 108.445C22.2106 108.476 22.1837 108.324 22.2644 108.126C22.3723 107.872 22.5703 107.666 22.8204 107.548C23.8323 107.074 24.8821 106.685 25.959 106.387C26.6047 106.203 27.2414 105.907 27.8825 105.665L30.0168 104.898C30.4652 104.741 30.9136 104.589 31.3395 104.45C32.0076 104.226 32.6846 104.001 33.3482 103.777C33.8594 103.589 34.3526 103.383 34.8638 103.203C34.9759 103.167 35.0835 103.118 35.2 103.087C35.6484 102.957 35.7874 102.997 35.9264 103.145C35.9602 103.177 35.9917 103.211 36.0206 103.248C36.1013 103.369 35.9623 103.54 35.6798 103.696C34.8035 104.163 33.8955 104.567 32.9626 104.907C32.2587 105.167 31.5547 105.427 30.8418 105.678L30.8239 105.642Z" fill="black"/>
<path d="M82.2392 121.345C82.1944 124.757 82.0868 128.164 81.9388 131.568C81.8805 132.814 81.8536 134.056 81.7729 135.298L81.7146 136.123L81.6832 136.536V136.755C81.6876 136.813 81.6876 136.872 81.6832 136.93L81.6294 137.087C81.6294 137.136 81.5936 137.195 81.5711 137.244L81.5353 137.311C81.4994 137.311 81.5846 137.343 81.5711 137.343L81.5442 137.374C81.4707 137.459 81.3845 137.531 81.2887 137.589L80.8762 137.854C80.6385 138.002 80.4278 138.154 80.1722 138.302C79.2261 138.872 78.2666 139.419 77.3026 139.943C75.3746 140.997 73.4152 141.988 71.4423 142.943C69.6936 143.79 67.9315 144.642 66.1828 145.458C63.9302 146.573 61.5983 147.52 59.2061 148.292C58.4483 148.503 58.4752 148.202 59.0088 147.745C59.8713 147.056 60.8307 146.499 61.856 146.09C66.4743 144.136 71.0298 141.983 75.5539 139.697C76.8991 139.002 78.2442 138.248 79.5669 137.428L80.4995 136.823L80.5802 136.769C80.5824 136.737 80.5824 136.706 80.5802 136.675L80.6161 136.154C80.6565 135.374 80.6968 134.599 80.7416 133.823C80.9075 130.411 81.0196 126.985 81.0779 123.564C81.1138 121.457 81.1273 119.349 81.1003 117.246C81.1011 114.069 80.9229 110.894 80.5668 107.736C80.5264 107.431 80.4816 107.131 80.4278 106.84L80.3964 106.674C80.3964 106.633 80.3964 106.588 80.3605 106.557C80.3274 106.53 80.2913 106.508 80.2529 106.49L80.1139 106.423C79.5893 106.185 79.0109 105.974 78.4415 105.786C77.2981 105.4 76.1368 105.042 74.98 104.678L73.451 104.199C71.5499 103.575 70.9625 103.302 70.6352 102.916C70.5541 102.841 70.4832 102.755 70.4245 102.661C70.3079 102.419 71.124 102.531 72.5453 102.907C74.6482 103.472 76.7959 104.091 78.975 104.822C79.5221 105.015 80.0556 105.194 80.6385 105.463C80.8448 105.58 81.1631 105.701 81.2707 105.943L81.2976 105.988V106.01C81.2752 106.01 81.3335 106.01 81.329 106.01L81.3649 106.104C81.3911 106.167 81.4121 106.231 81.4277 106.297L81.4904 106.638C81.5442 106.929 81.5936 107.216 81.6339 107.508C81.7998 108.669 81.9254 109.83 82.0016 110.992C82.2303 114.44 82.2527 117.892 82.2392 121.336V121.345Z" fill="black"/>
<path d="M40.5353 105.113C40.5988 105.076 40.6724 105.058 40.7461 105.064C40.7509 105.066 40.755 105.07 40.7578 105.074C40.7607 105.078 40.7622 105.083 40.7622 105.089C40.7622 105.094 40.7607 105.099 40.7578 105.103C40.755 105.108 40.7509 105.111 40.7461 105.113L40.6295 105.194C40.6071 105.194 40.1811 105.423 40.0556 105.486C39.93 105.548 39.7821 105.607 39.6431 105.665L38.7912 105.992C38.7284 106.019 38.6611 106.037 38.5984 106.059C38.3784 106.127 38.1627 106.208 37.9527 106.302C37.9168 106.313 37.8833 106.331 37.8541 106.355L37.1725 106.683L36.63 106.925C36.6065 106.94 36.5808 106.952 36.5538 106.961C36.4923 106.974 36.4342 107 36.3834 107.037C36.3116 107.077 36.2399 107.127 36.1682 107.171C36.1291 107.192 36.0886 107.21 36.0471 107.225C36.0112 107.225 36.0112 107.203 36.0157 107.194C36.0202 107.185 36.0157 107.167 36.0157 107.162L36.1995 106.97C36.2982 106.875 36.4058 106.781 36.4282 106.763C36.4597 106.736 36.4926 106.711 36.5269 106.687L36.751 106.535L37.1456 106.324L37.2712 106.279C37.2712 106.279 37.8272 106.028 37.8496 106.024C37.9632 105.977 38.0801 105.94 38.1993 105.911L38.271 105.889C38.4638 105.822 38.6656 105.764 38.8629 105.701L39.1633 105.602H39.2216L39.2889 105.58C39.5265 105.499 39.7641 105.427 39.9928 105.333C40.0466 105.333 40.3112 105.23 40.3695 105.199C40.4277 105.167 40.504 105.131 40.5353 105.113Z" fill="black"/>
<path d="M42.8082 105.373C42.8735 105.346 42.9436 105.332 43.0144 105.333C43.0144 105.333 43.0413 105.355 43.0144 105.369L42.8934 105.441L42.3239 105.714C42.1899 105.776 42.0521 105.83 41.9114 105.876L41.0729 106.18L40.8846 106.239C40.6675 106.296 40.456 106.373 40.2524 106.467C40.2161 106.478 40.1824 106.496 40.1538 106.521C40.1 106.553 39.5664 106.822 39.4947 106.849C39.3186 106.922 39.1465 107.004 38.979 107.095C38.9576 107.111 38.9332 107.124 38.9073 107.131C38.8465 107.138 38.7896 107.164 38.7459 107.207C38.6795 107.256 38.6107 107.301 38.5396 107.342C38.4986 107.356 38.4566 107.368 38.4141 107.378C38.3737 107.378 38.3513 107.337 38.3558 107.324C38.3603 107.31 38.3334 107.288 38.3154 107.274C38.3611 107.191 38.4152 107.113 38.4768 107.041C38.544 106.962 38.6175 106.889 38.6966 106.822C38.9282 106.664 39.1709 106.523 39.4229 106.4C39.4614 106.381 39.502 106.366 39.544 106.355C39.544 106.355 40.1 106.118 40.1224 106.113C40.2357 106.071 40.3528 106.039 40.4721 106.019H40.5394C40.7367 105.956 40.934 105.902 41.1312 105.853L41.4316 105.768H41.4899H41.5572C41.7948 105.696 42.0325 105.638 42.2656 105.566C42.3194 105.566 42.584 105.494 42.6468 105.472C42.7033 105.444 42.7573 105.411 42.8082 105.373Z" fill="black"/>
<path d="M44.9784 105.589C45.0158 105.572 45.0563 105.563 45.0973 105.563C45.1382 105.563 45.1787 105.572 45.2161 105.589C45.243 105.589 45.252 105.647 45.2161 105.661L45.0816 105.741C45.0547 105.741 44.5973 105.925 44.4449 105.997C44.2924 106.069 44.1489 106.118 43.9965 106.172C43.6916 106.284 43.3912 106.405 43.0997 106.53C43.0343 106.56 42.9669 106.586 42.898 106.607C42.6618 106.674 42.4322 106.763 42.212 106.871C42.1729 106.886 42.1365 106.907 42.1043 106.934C42.0505 106.974 41.4632 107.27 41.3825 107.306C41.1852 107.382 40.9924 107.472 40.7996 107.566C40.7727 107.566 40.7503 107.602 40.7189 107.598C40.6506 107.605 40.5863 107.633 40.535 107.678L40.3019 107.817C40.2573 107.836 40.2106 107.85 40.1629 107.858C40.118 107.858 40.0911 107.804 40.1001 107.786C40.1091 107.768 40.0732 107.741 40.0508 107.723C40.1054 107.64 40.1669 107.562 40.2346 107.49C40.3109 107.408 40.3917 107.33 40.4767 107.257L40.8354 107.024C41.0193 106.912 41.2166 106.804 41.2569 106.781C41.2985 106.756 41.344 106.738 41.3914 106.728C41.3914 106.728 41.9788 106.427 42.0057 106.423C42.1256 106.366 42.2521 106.323 42.3823 106.297L42.4586 106.275C42.6683 106.19 42.8841 106.121 43.1042 106.069L43.436 105.965H43.4943H43.575L44.3597 105.746C44.418 105.746 44.7139 105.678 44.7812 105.656C44.8484 105.634 44.9471 105.602 44.9784 105.589Z" fill="black"/>
<path d="M47.3326 106.046C47.4 106.006 47.4791 105.99 47.5568 106.001C47.5605 106.004 47.5635 106.007 47.5656 106.011C47.5677 106.015 47.5688 106.019 47.5688 106.024C47.5688 106.028 47.5677 106.033 47.5656 106.037C47.5635 106.04 47.5605 106.044 47.5568 106.046L47.4447 106.145L46.8393 106.441C46.7004 106.513 46.5569 106.575 46.391 106.638L45.5166 107.019L45.3194 107.095C45.091 107.176 44.8679 107.27 44.6513 107.378C44.6132 107.393 44.577 107.412 44.5437 107.436C44.4899 107.472 43.9114 107.781 43.8352 107.813C43.6424 107.889 43.4496 107.979 43.2568 108.064C43.2299 108.064 43.2075 108.095 43.1761 108.095C43.1092 108.098 43.0442 108.118 42.9878 108.154C42.9077 108.196 42.8254 108.233 42.7412 108.266C42.6963 108.28 42.6494 108.288 42.6022 108.288C42.5618 108.288 42.5484 108.225 42.5574 108.212C42.5663 108.198 42.5349 108.167 42.5215 108.145V108.122C42.6592 107.981 42.8093 107.852 42.9699 107.737L43.333 107.553C43.5169 107.468 43.7052 107.378 43.7545 107.36C43.7961 107.34 43.8397 107.325 43.8845 107.315L44.4943 107.06C44.6097 107.006 44.7298 106.964 44.853 106.934C44.8785 106.93 44.9029 106.921 44.9248 106.907C45.1266 106.826 45.3373 106.759 45.5391 106.687L45.8529 106.571H45.9112L45.983 106.548C46.2296 106.454 46.4807 106.374 46.7228 106.275C46.7766 106.275 47.0546 106.163 47.1173 106.136C47.1801 106.109 47.3012 106.06 47.3326 106.046Z" fill="black"/>
<path d="M50.1355 106.557C50.1857 106.528 50.2453 106.52 50.3014 106.535C50.3014 106.535 50.3283 106.566 50.3014 106.575L50.2117 106.638C50.2117 106.638 49.8754 106.804 49.7633 106.849L49.4405 106.983L48.7903 107.234L48.6469 107.284C48.4788 107.334 48.3152 107.399 48.1581 107.477C48.1306 107.486 48.1048 107.499 48.0819 107.517C48.0416 107.544 47.6335 107.764 47.5752 107.79C47.4407 107.853 47.3062 107.921 47.1762 107.997C47.1762 107.997 47.1448 108.024 47.1224 108.028C47.0755 108.037 47.032 108.059 46.9968 108.091L46.8399 108.203C46.8105 108.22 46.7787 108.232 46.7458 108.239C46.7144 108.239 46.6964 108.207 46.7009 108.198C46.7054 108.19 46.6785 108.167 46.665 108.154C46.7442 108.027 46.8408 107.912 46.952 107.813C47.1265 107.683 47.3093 107.565 47.499 107.459C47.5311 107.443 47.564 107.43 47.5977 107.418C47.5977 107.418 48.0236 107.212 48.046 107.212C48.1315 107.172 48.222 107.143 48.3151 107.127H48.3689C48.5168 107.069 48.6738 107.028 48.8172 106.983L49.0504 106.907H49.0908H49.1446C49.3284 106.849 49.5122 106.8 49.6916 106.732C49.7364 106.732 49.9382 106.665 49.983 106.647C50.0361 106.621 50.0871 106.591 50.1355 106.557Z" fill="black"/>
<path d="M53.4438 106.647C53.4817 106.624 53.5251 106.612 53.5694 106.612C53.6137 106.612 53.6571 106.624 53.6949 106.647C53.7263 106.647 53.7443 106.732 53.7218 106.75L53.6008 106.858L52.9686 107.18C52.8243 107.26 52.6745 107.329 52.5202 107.387L51.5876 107.759L51.3723 107.831C51.1272 107.896 50.8874 107.98 50.6549 108.082C50.613 108.096 50.5737 108.118 50.5384 108.144C50.2852 108.27 50.0229 108.377 49.7537 108.463L49.1036 108.629C49.0728 108.637 49.0402 108.637 49.0094 108.629C48.9371 108.619 48.8637 108.632 48.7987 108.665C48.7073 108.693 48.6145 108.717 48.5207 108.736C48.4701 108.743 48.4188 108.743 48.3682 108.736C48.3189 108.736 48.3144 108.656 48.3234 108.642C48.3323 108.629 48.3234 108.584 48.292 108.557V108.53C48.4583 108.4 48.6353 108.285 48.8211 108.185L49.6595 107.835C49.7044 107.835 49.7537 107.813 49.7985 107.799L50.4397 107.539C50.5629 107.486 50.6926 107.45 50.8253 107.432L50.906 107.409C51.1168 107.324 51.3544 107.261 51.5607 107.194L51.888 107.077H51.9507H52.0315L52.8161 106.804C52.8744 106.781 53.1748 106.719 53.2645 106.692C53.3251 106.68 53.385 106.665 53.4438 106.647Z" fill="black"/>
<path d="M55.1836 107.49C55.2089 107.468 55.2397 107.453 55.2728 107.446C55.306 107.44 55.3402 107.443 55.3719 107.454C55.3719 107.454 55.4167 107.503 55.4033 107.517L55.3226 107.611C55.3226 107.611 54.9863 107.853 54.8742 107.929C54.7621 108.006 54.6545 108.064 54.5424 108.127C54.3137 108.248 54.094 108.369 53.8519 108.481C53.8017 108.508 53.7492 108.53 53.695 108.548C53.5086 108.61 53.3272 108.687 53.1524 108.777C53.1204 108.786 53.0911 108.803 53.0672 108.826C52.8777 108.932 52.6797 109.022 52.4754 109.095L51.9822 109.239C51.9587 109.245 51.9339 109.245 51.9104 109.239C51.8578 109.223 51.8016 109.223 51.749 109.239L51.5338 109.288C51.4951 109.292 51.4559 109.292 51.4172 109.288C51.3813 109.288 51.3813 109.234 51.3858 109.225C51.3903 109.216 51.3858 109.185 51.3858 109.167C51.3858 109.167 51.471 109.095 51.5607 109.019C51.6269 108.963 51.6973 108.912 51.7714 108.866L52.4081 108.597L52.5157 108.57L53 108.364C53.0917 108.323 53.188 108.293 53.2869 108.275C53.3061 108.279 53.3261 108.279 53.3452 108.275C53.5067 108.207 53.6725 108.153 53.834 108.091L54.0761 107.988H54.1209H54.1792C54.372 107.898 54.5648 107.822 54.7487 107.719C54.789 107.696 55.0042 107.615 55.0536 107.584C55.1029 107.553 55.1612 107.521 55.1836 107.49Z" fill="black"/>
<path d="M57.6812 107.405C57.7164 107.386 57.7557 107.376 57.7956 107.376C57.8355 107.376 57.8747 107.386 57.9099 107.405C57.919 107.415 57.9241 107.429 57.9241 107.443C57.9241 107.457 57.919 107.47 57.9099 107.481L57.7933 107.566C57.7664 107.566 57.3718 107.799 57.2463 107.893C57.1208 107.988 56.9907 108.055 56.8607 108.127C56.5962 108.279 56.3092 108.436 56.0267 108.575C55.9658 108.604 55.9029 108.627 55.8384 108.647C55.6141 108.714 55.3953 108.798 55.1838 108.898C55.1469 108.912 55.1133 108.933 55.0851 108.961C55.0358 109.005 54.4798 109.27 54.4081 109.301C54.22 109.362 54.0358 109.434 53.8566 109.517C53.8342 109.517 53.8117 109.548 53.7803 109.543C53.749 109.539 53.6593 109.575 53.6055 109.602C53.5358 109.65 53.4623 109.692 53.3858 109.727C53.3431 109.746 53.2976 109.756 53.2513 109.759C53.2109 109.759 53.1706 109.691 53.175 109.678C53.1795 109.664 53.1392 109.624 53.1167 109.602L53.0898 109.575C53.1954 109.399 53.3269 109.24 53.4799 109.104C53.4799 109.104 54.1525 108.696 54.2287 108.656C54.2698 108.636 54.3136 108.622 54.3588 108.615C54.3588 108.615 54.9192 108.346 54.9416 108.342C55.0569 108.294 55.1773 108.259 55.3003 108.239C55.3226 108.243 55.3454 108.243 55.3676 108.239C55.563 108.164 55.762 108.1 55.9639 108.046C56.0671 108.014 56.1567 107.974 56.2554 107.934H56.3137H56.3809C56.6096 107.835 56.8293 107.745 57.0759 107.633C57.1297 107.606 57.4032 107.526 57.466 107.499C57.5288 107.472 57.6498 107.423 57.6812 107.405Z" fill="black"/>
<path d="M65.2319 105.903C65.3429 105.853 65.4608 105.82 65.5816 105.804C65.6175 105.804 65.622 105.827 65.5816 105.845L65.3709 105.952L64.3755 106.401C64.1423 106.504 63.9271 106.602 63.6715 106.696L62.2412 107.284L61.9229 107.409C61.5572 107.538 61.1994 107.688 60.8512 107.858C60.7925 107.886 60.7356 107.917 60.6809 107.952C60.5867 108.01 59.663 108.503 59.542 108.566C59.2371 108.71 58.9456 108.876 58.6452 109.041C58.6069 109.07 58.5646 109.093 58.5197 109.109C58.4185 109.14 58.3241 109.19 58.2417 109.257C58.1206 109.333 58.0085 109.423 57.8785 109.494C57.8128 109.529 57.7437 109.556 57.6722 109.575C57.6095 109.602 57.5915 109.526 57.605 109.503C57.6184 109.481 57.5781 109.454 57.5557 109.432V109.409L57.6453 109.302C57.7115 109.22 57.7818 109.142 57.8561 109.068C58.022 108.907 58.2103 108.755 58.2462 108.728C58.3016 108.683 58.36 108.643 58.421 108.607L58.8066 108.36L59.4657 107.983C59.532 107.948 59.601 107.918 59.672 107.894C59.6989 107.867 60.6046 107.445 60.645 107.445C60.8356 107.363 61.0319 107.294 61.2324 107.239C61.2725 107.23 61.3116 107.216 61.3489 107.199C61.6807 107.073 62.017 106.965 62.3533 106.853L62.8644 106.679L62.9586 106.652L63.0752 106.62C63.4787 106.481 63.8867 106.356 64.2903 106.212C64.38 106.181 64.8283 106.042 64.9359 106.001C65.0436 105.961 65.1826 105.925 65.2319 105.903Z" fill="black"/>
<path d="M67.6441 106.019C67.7673 105.951 67.9073 105.92 68.0476 105.929C68.0569 105.931 68.0655 105.936 68.0724 105.943C68.0794 105.949 68.0845 105.957 68.0872 105.966C68.09 105.975 68.0902 105.985 68.088 105.994C68.0858 106.004 68.0811 106.012 68.0745 106.019C68.0043 106.078 67.931 106.134 67.8548 106.185C67.81 106.225 67.0074 106.633 66.7294 106.723C66.4514 106.813 66.1958 106.943 65.9313 107.046C65.6668 107.149 65.3888 107.252 65.1332 107.364C64.8776 107.476 64.6265 107.611 64.3575 107.732C64.2409 107.786 64.1199 107.835 63.9988 107.88C63.5848 108.035 63.1818 108.217 62.7927 108.427C62.7237 108.455 62.6588 108.493 62.5999 108.539C62.5102 108.62 61.4386 109.162 61.2951 109.225C60.9364 109.364 60.5822 109.521 60.2235 109.673C60.1766 109.704 60.1226 109.723 60.0665 109.727C59.9452 109.738 59.8283 109.778 59.7258 109.844C59.5794 109.911 59.4297 109.971 59.2774 110.023C59.1967 110.046 59.1142 110.063 59.0308 110.072C58.9546 110.072 58.959 110.01 58.977 109.992C58.9949 109.974 58.977 109.933 58.9456 109.915C58.9142 109.897 58.9456 109.915 58.9456 109.889C58.9806 109.849 59.0197 109.813 59.0622 109.781L59.3312 109.548C59.4719 109.419 59.6217 109.301 59.7796 109.194L61.174 108.427C61.2483 108.391 61.3246 108.359 61.4027 108.333L62.4743 107.777C62.6832 107.672 62.9007 107.585 63.1245 107.517C63.1694 107.505 63.213 107.488 63.2545 107.467C63.6132 107.297 63.9898 107.149 64.362 107.019L64.9449 106.795L65.057 106.772L65.1915 106.736C65.6399 106.584 66.1331 106.476 66.5859 106.328C66.6935 106.297 67.2047 106.176 67.3213 106.127C67.4307 106.097 67.5385 106.061 67.6441 106.019Z" fill="black"/>
<path d="M40.4048 105.558C40.2989 105.529 40.1988 105.482 40.1089 105.419C40.082 105.396 40.1089 105.369 40.1313 105.378L40.3466 105.414C40.3869 105.414 41.064 105.584 41.3016 105.611L41.9786 105.719L43.3596 105.934L43.6645 105.993C44.0143 106.064 44.364 106.118 44.7182 106.163C44.7778 106.169 44.838 106.169 44.8976 106.163C44.9962 106.163 45.9557 106.306 46.0768 106.338L46.9736 106.571C47.0179 106.575 47.0608 106.589 47.0991 106.611C47.1867 106.656 47.2804 106.688 47.3771 106.705C47.5071 106.737 47.6327 106.777 47.7627 106.822C47.8246 106.847 47.8846 106.877 47.9421 106.912C47.95 106.914 47.9568 106.92 47.9617 106.926C47.9665 106.933 47.9692 106.941 47.9692 106.95C47.9692 106.958 47.9665 106.966 47.9617 106.973C47.9568 106.98 47.95 106.985 47.9421 106.988C47.8793 106.988 47.9196 107.024 47.9196 107.051C47.9214 107.058 47.9214 107.066 47.9196 107.073H47.7941L47.5251 107.037L47.0767 106.979L46.4983 106.867L45.8392 106.759C45.7725 106.749 45.7066 106.734 45.6419 106.714C45.615 106.714 44.7451 106.589 44.6913 106.58C44.5067 106.557 44.3239 106.521 44.1443 106.472H44.0367C43.7183 106.423 43.4045 106.36 43.0906 106.302L42.6064 106.212L42.5212 106.19L42.4136 106.163C42.0325 106.082 41.6558 105.979 41.2837 105.88C41.194 105.88 40.7904 105.719 40.6918 105.688C40.5932 105.656 40.4542 105.571 40.4048 105.558Z" fill="black"/>
<path d="M40.4641 106.759C40.1816 106.759 39.9574 106.759 39.7377 106.759C39.6704 106.759 39.6659 106.71 39.7377 106.683C39.8957 106.628 40.0599 106.594 40.2264 106.58C40.5487 106.563 40.8719 106.581 41.1904 106.634C41.6702 106.701 42.1903 106.822 42.4504 106.876C42.966 106.988 43.4413 107.082 43.9659 107.145C45.0106 107.284 46.0553 107.45 47.1045 107.593C47.3332 107.629 47.5529 107.669 47.795 107.714C48.5842 107.867 49.3778 107.992 50.1759 108.109C50.3066 108.13 50.4383 108.145 50.5705 108.154C50.7857 108.154 52.9424 108.499 53.2204 108.557L55.2874 108.952C55.3862 108.966 55.4837 108.989 55.5788 109.019C55.785 109.085 55.9965 109.133 56.2111 109.162C56.507 109.212 56.8029 109.274 57.1078 109.342C57.2558 109.373 57.3948 109.418 57.5562 109.458C57.7176 109.499 57.6055 109.539 57.5562 109.535C57.4217 109.535 57.5248 109.575 57.5338 109.597C57.5427 109.62 57.5338 109.597 57.5338 109.62H57.2513L56.628 109.575C56.1797 109.539 55.6909 109.49 55.5968 109.476L52.7675 109.064C52.6196 109.064 52.4716 109.01 52.3191 108.979L50.1669 108.66C49.7544 108.588 49.3374 108.539 48.9339 108.436L48.6873 108.391C47.9744 108.284 47.2704 108.154 46.562 108.028L45.4724 107.853L45.2751 107.813L45.0285 107.768L43.7462 107.539C43.2978 107.472 42.8494 107.355 42.4548 107.248C42.262 107.189 41.3518 106.92 41.1097 106.894C40.8978 106.834 40.6821 106.789 40.4641 106.759Z" fill="black"/>
<path d="M48.9466 107.041C48.7962 107.003 48.6546 106.936 48.5296 106.844C48.4938 106.822 48.5296 106.799 48.561 106.813L48.848 106.884C48.9063 106.907 49.8613 107.091 50.1931 107.118C50.5249 107.144 50.8298 107.194 51.1437 107.252L53.0806 107.557C53.2241 107.579 53.3631 107.606 53.529 107.638C54.0133 107.75 54.502 107.83 54.9997 107.898C55.0817 107.907 55.1644 107.907 55.2463 107.898C55.797 107.961 56.3435 108.057 56.8829 108.185L58.1473 108.53C58.2084 108.54 58.2674 108.56 58.3222 108.588C58.4398 108.659 58.5687 108.709 58.7033 108.736C58.8857 108.783 59.0654 108.84 59.2413 108.907C59.3286 108.943 59.4126 108.986 59.4924 109.037C59.5687 109.077 59.4924 109.122 59.4924 109.122C59.4924 109.122 59.461 109.167 59.4655 109.194C59.47 109.22 59.4655 109.216 59.4655 109.22C59.4655 109.225 59.192 109.22 58.9095 109.189C58.6271 109.158 58.3267 109.153 58.2684 109.144L58.0083 109.104L57.4523 109.01L56.5242 108.866C56.433 108.85 56.3431 108.828 56.2552 108.799C56.2103 108.799 54.9728 108.606 54.91 108.579C54.6541 108.534 54.4022 108.468 54.1568 108.382C54.1072 108.365 54.0561 108.353 54.0043 108.346C53.5559 108.256 53.1344 108.144 52.704 108.041L52.0359 107.893L51.9149 107.857L51.7669 107.817C51.2378 107.7 50.7132 107.57 50.1886 107.431L49.3636 107.176C49.2605 107.167 49.0139 107.041 48.9466 107.041Z" fill="black"/>
<path d="M40.6786 107.338C40.484 107.302 40.2963 107.235 40.1226 107.14C40.0733 107.113 40.0957 107.082 40.1585 107.096C40.2212 107.109 40.4051 107.145 40.5351 107.163C40.6651 107.181 41.8488 107.4 42.2703 107.459L43.4899 107.678L45.9694 108.127C46.1533 108.158 46.3371 108.194 46.5164 108.239C47.1397 108.378 47.7719 108.49 48.3996 108.607C48.5072 108.607 48.6148 108.647 48.718 108.656C48.8883 108.656 50.5922 108.997 50.8119 109.05L52.444 109.441C52.522 109.454 52.5986 109.475 52.6727 109.503C52.8335 109.567 53.0002 109.615 53.1703 109.647C53.4035 109.701 53.6187 109.754 53.8698 109.817C53.9819 109.849 54.094 109.893 54.2061 109.934C54.3182 109.974 54.2375 110.001 54.2061 109.997C54.0985 109.997 54.1792 110.032 54.2061 110.05L52.6727 109.862L52.3408 109.808L51.6235 109.678L50.4308 109.467L50.081 109.387L48.3413 109.104C48.014 109.037 47.6822 108.983 47.3639 108.885C47.3014 108.863 47.2367 108.848 47.1711 108.84C46.6106 108.723 46.0501 108.593 45.4897 108.472L44.6332 108.288L44.4763 108.248L44.2835 108.203L42.2524 107.755L41.1763 107.481C41.0911 107.49 40.7682 107.356 40.6786 107.338Z" fill="black"/>
<path d="M57.5875 107.97C57.554 107.962 57.5238 107.944 57.5012 107.918C57.4787 107.893 57.4649 107.86 57.4619 107.826C57.4619 107.804 57.4619 107.75 57.5023 107.75H57.6233C57.6457 107.75 57.991 107.862 58.1121 107.885C58.2331 107.907 58.3452 107.943 58.4573 107.979C58.686 108.046 58.9057 108.104 59.1568 108.158L59.3137 108.207C59.4883 108.269 59.6685 108.312 59.8518 108.337C59.883 108.342 59.9147 108.342 59.9459 108.337C60.1511 108.354 60.3549 108.386 60.5557 108.432C60.7082 108.485 60.8651 108.526 61.0041 108.575C61.0282 108.576 61.0517 108.583 61.0713 108.597C61.0902 108.616 61.1127 108.631 61.1373 108.641C61.1619 108.651 61.1883 108.656 61.2148 108.656L61.4166 108.714C61.45 108.732 61.4815 108.753 61.5108 108.777C61.5377 108.799 61.5108 108.857 61.5108 108.862C61.5108 108.866 61.5108 108.907 61.5108 108.934C61.5129 108.943 61.5129 108.952 61.5108 108.961C61.3626 108.985 61.2125 108.995 61.0624 108.992L60.3988 108.898C60.3631 108.89 60.3284 108.878 60.2957 108.862L59.7935 108.777C59.6962 108.758 59.6014 108.728 59.511 108.687C59.4935 108.681 59.4747 108.681 59.4572 108.687C59.2916 108.645 59.1285 108.594 58.9685 108.535L58.7174 108.463L58.677 108.441L58.6232 108.418C58.4259 108.355 58.2331 108.279 58.0403 108.212C57.9955 108.212 57.7937 108.086 57.7444 108.068C57.6951 108.05 57.6144 107.974 57.5875 107.97Z" fill="black"/>
<path d="M61.0395 107.113C60.9633 107.113 60.914 107.073 60.8691 106.965C60.8691 106.934 60.8691 106.84 60.896 106.831L61.0306 106.777C61.0575 106.777 61.4789 106.777 61.6134 106.804C61.7498 106.816 61.8848 106.84 62.017 106.875C62.286 106.943 62.5506 107.01 62.8151 107.086C62.8734 107.105 62.9303 107.127 62.9855 107.153C63.1714 107.24 63.3651 107.309 63.5639 107.36C63.598 107.366 63.6329 107.366 63.667 107.36C63.8899 107.403 64.1089 107.464 64.3216 107.544C64.4831 107.624 64.6445 107.687 64.8104 107.759C64.8328 107.759 64.8597 107.759 64.8776 107.795C64.8956 107.831 64.9718 107.857 65.0256 107.875L65.2408 107.956C65.2764 107.976 65.3083 108.002 65.335 108.032C65.3664 108.055 65.335 108.118 65.335 108.122C65.335 108.126 65.335 108.171 65.335 108.198C65.335 108.225 65.335 108.221 65.335 108.23C65.1627 108.254 64.9885 108.261 64.8149 108.252C64.8149 108.252 64.1557 108.109 64.084 108.091C64.046 108.081 64.0096 108.066 63.9764 108.046L63.4383 107.902C63.3328 107.879 63.2324 107.837 63.1424 107.777C63.1234 107.765 63.102 107.757 63.0796 107.754C62.9048 107.705 62.7344 107.633 62.564 107.57C62.4773 107.539 62.389 107.512 62.2995 107.49H62.2412L62.1829 107.463C61.9737 107.398 61.7612 107.344 61.5462 107.301C61.5013 107.301 61.2727 107.203 61.2144 107.198C61.1561 107.194 61.0664 107.109 61.0395 107.113Z" fill="black"/>
<path d="M63.5054 106.221C63.4599 106.224 63.4143 106.214 63.3745 106.192C63.3346 106.17 63.3022 106.136 63.2812 106.096C63.2812 106.064 63.2812 105.988 63.2812 105.979C63.3338 105.96 63.3878 105.945 63.4427 105.934C63.474 105.934 63.9942 105.934 64.169 105.961C64.3393 105.974 64.5086 105.998 64.6757 106.033C65.012 106.1 65.3483 106.172 65.6801 106.257C65.7532 106.275 65.8251 106.297 65.8953 106.324C66.1378 106.415 66.3866 106.488 66.6396 106.544C66.6812 106.55 66.7235 106.55 66.7651 106.544C67.044 106.6 67.3195 106.672 67.5901 106.759C67.7964 106.844 68.0116 106.916 68.2224 106.988C68.2545 106.993 68.2851 107.005 68.312 107.024C68.3665 107.067 68.4315 107.095 68.5004 107.104L68.7783 107.194C68.823 107.214 68.8665 107.236 68.9084 107.261C68.9142 107.264 68.9192 107.268 68.9227 107.273C68.9262 107.278 68.9281 107.284 68.9281 107.29C68.9281 107.297 68.9262 107.303 68.9227 107.308C68.9192 107.313 68.9142 107.317 68.9084 107.32C68.8635 107.32 68.9084 107.351 68.9084 107.369H68.8142L68.608 107.396C68.493 107.402 68.3777 107.402 68.2627 107.396C68.2627 107.396 67.4332 107.261 67.3435 107.243C67.2953 107.235 67.2484 107.22 67.2045 107.199C67.1821 107.199 66.5409 107.064 66.5185 107.051C66.386 107.019 66.2579 106.971 66.1374 106.907C66.113 106.895 66.0875 106.886 66.0612 106.88C65.8415 106.822 65.6128 106.741 65.4066 106.669C65.2945 106.634 65.1779 106.611 65.0658 106.58L65.0075 106.553L64.9313 106.593C64.667 106.52 64.3991 106.46 64.1287 106.414C64.0659 106.414 63.7745 106.315 63.7027 106.311C63.631 106.306 63.5413 106.212 63.5054 106.221Z" fill="black"/>
<path d="M66.4385 105.638C66.3802 105.638 66.3533 105.589 66.3399 105.495C66.3264 105.401 66.3623 105.383 66.3802 105.378C66.4146 105.362 66.4507 105.35 66.4878 105.342C66.4878 105.342 66.7972 105.383 66.9003 105.396C66.9945 105.412 67.0875 105.434 67.1783 105.463L67.7388 105.634L67.8554 105.683C67.9875 105.751 68.1276 105.802 68.2724 105.836C68.2958 105.842 68.3207 105.842 68.3441 105.836C68.4968 105.861 68.6468 105.9 68.7925 105.952C68.906 106.014 69.0227 106.069 69.1422 106.118C69.1422 106.118 69.1781 106.118 69.1915 106.145C69.205 106.172 69.2588 106.194 69.2992 106.208C69.3513 106.222 69.4023 106.24 69.4516 106.261C69.4786 106.279 69.5028 106.3 69.5233 106.324C69.5458 106.324 69.5233 106.396 69.5233 106.4C69.5233 106.405 69.5233 106.445 69.5233 106.468C69.3997 106.496 69.2735 106.511 69.1467 106.513L68.6131 106.432C68.5858 106.425 68.56 106.412 68.5369 106.396L68.1379 106.311C68.061 106.293 67.9881 106.261 67.9226 106.217C67.9155 106.214 67.9079 106.212 67.9002 106.212C67.8925 106.212 67.8849 106.214 67.8778 106.217C67.7513 106.175 67.6271 106.128 67.5056 106.073C67.4429 106.046 67.3756 106.033 67.3128 106.01H67.2815L67.2366 105.988C67.0842 105.939 66.9407 105.871 66.7882 105.836C66.7524 105.836 66.5954 105.737 66.5551 105.728C66.5147 105.719 66.4609 105.634 66.4385 105.638Z" fill="black"/>
<path d="M33.0659 125.81C33.5142 125.362 33.9402 124.954 34.3796 124.533C34.541 124.376 34.689 124.21 34.828 124.057L36.5632 122.474C36.8188 122.241 37.0564 121.99 37.2896 121.735C37.5713 121.395 37.8818 121.08 38.2177 120.793C38.4419 120.627 38.6885 121.345 38.3343 121.717C37.7104 122.377 37.0422 122.994 36.3345 123.564C35.8862 123.909 35.5275 124.326 35.1284 124.712C34.7294 125.097 34.2317 125.555 33.8147 125.985C33.5501 126.254 33.2856 126.519 33.03 126.792C32.6444 127.205 32.2588 127.631 31.9091 128.07C31.64 128.415 31.4069 128.774 31.1692 129.133L31.0123 129.37C30.815 129.662 30.7164 129.729 30.5639 129.711C30.5251 129.714 30.4862 129.714 30.4474 129.711C30.3353 129.675 30.3353 129.501 30.4474 129.263C30.8022 128.517 31.2545 127.822 31.7925 127.196C32.1915 126.721 32.6175 126.263 33.0435 125.819L33.0659 125.81Z" fill="black"/>
<path d="M42.302 124.667L43.3243 123.793C43.4499 123.685 43.5575 123.564 43.683 123.461L45.0281 122.358C45.2209 122.192 45.4048 122.013 45.5796 121.829C45.7854 121.576 46.0236 121.352 46.2881 121.161C46.4674 121.058 46.7589 121.73 46.4854 121.995C46.0015 122.459 45.4812 122.883 44.9295 123.264C44.6023 123.512 44.2881 123.777 43.9879 124.058L42.9611 124.923L42.3289 125.465C42.0106 125.739 41.6922 126.017 41.3963 126.308C41.1631 126.533 40.9479 126.757 40.7506 127.021L40.6116 127.178C40.4323 127.371 40.3426 127.402 40.1991 127.335L40.1005 127.29C40.0018 127.228 40.0108 127.084 40.1229 126.923C40.4787 126.439 40.8779 125.989 41.3156 125.578C41.6384 125.264 41.9792 124.959 42.311 124.654L42.302 124.667Z" fill="black"/>
<path d="M31.7248 84.0488L32.7606 82.9862C32.8861 82.8561 33.0027 82.7171 33.1327 82.5871C33.5811 82.1387 34.0295 81.6904 34.5137 81.2779C34.72 81.0806 34.9173 80.8788 35.1101 80.677C35.3431 80.4021 35.6047 80.1526 35.8902 79.9327C36.0786 79.8072 36.24 80.3811 35.953 80.677C35.4464 81.1971 34.9218 81.6993 34.3613 82.1746C34.025 82.4616 33.738 82.8158 33.4242 83.1386L32.4108 84.2147C32.2046 84.4389 31.9983 84.6631 31.8011 84.8918C31.5006 85.2415 31.1778 85.5778 30.9043 85.9365C30.6846 86.2145 30.4918 86.5059 30.29 86.7929C30.2452 86.8557 30.2048 86.9184 30.1555 86.9812C29.9717 87.2009 29.882 87.2547 29.7565 87.2368C29.7281 87.2395 29.6996 87.2395 29.6713 87.2368C29.5861 87.2054 29.5995 87.0664 29.6713 86.8736C29.9724 86.2841 30.3282 85.7242 30.7339 85.2012C31.0344 84.8002 31.3577 84.4169 31.7024 84.0533L31.7248 84.0488Z" fill="black"/>
<path d="M37.72 86.0396L38.3836 85.3939C38.4643 85.3177 38.536 85.2325 38.6168 85.1563L39.5135 84.3716C39.6435 84.2551 39.7691 84.134 39.8857 84.0085C40.0287 83.8387 40.193 83.688 40.3744 83.5601C40.491 83.4838 40.6389 83.8964 40.4641 84.0757C40.148 84.3966 39.811 84.6962 39.4552 84.9725C39.247 85.1537 39.0494 85.3468 38.8634 85.5509L38.2222 86.201C38.0877 86.3355 37.9621 86.47 37.8366 86.609C37.6438 86.8198 37.451 87.0305 37.2806 87.2547C37.1561 87.4325 37.0409 87.6166 36.9353 87.8062L36.8636 87.9273C36.765 88.0752 36.7067 88.1021 36.5766 88.0573L36.487 88.0214C36.3928 87.9766 36.3704 87.869 36.4242 87.7434C36.6034 87.373 36.8327 87.029 37.1057 86.7211C37.3075 86.4835 37.5182 86.2728 37.7335 86.0306L37.72 86.0396Z" fill="black"/>
<path d="M82.1937 67.311C80.4735 70.4148 78.9345 73.6155 77.5844 76.8973C77.2391 77.7178 76.8984 78.5428 76.5711 79.3723L76.32 79.9956C76.2482 80.1884 76.181 80.3722 76.1137 80.574C75.9837 80.973 75.8716 81.3945 75.755 81.8204C75.3415 83.6089 74.8036 85.3663 74.1453 87.0799C73.8698 87.7494 73.5145 88.3832 73.0872 88.9676C72.617 89.633 71.9646 90.1483 71.2085 90.4517C70.8114 90.5933 70.3926 90.6646 69.971 90.6624L69.4195 90.64C69.2356 90.64 69.0518 90.5907 68.8679 90.5683C68.1293 90.4459 67.4176 90.1955 66.7651 89.8285C65.6562 89.1681 64.7372 88.232 64.0972 87.1113C63.4813 86.0507 63.0193 84.9078 62.7252 83.7171C62.431 82.5535 62.2493 81.3643 62.1826 80.1659C62.1025 78.9663 62.1718 77.7614 62.3889 76.5789C62.6017 75.4034 62.9291 74.2516 63.3664 73.1399C63.7854 72.0435 64.2628 70.9703 64.7967 69.925C65.8369 67.8356 67.0027 65.8493 67.9891 63.7912C68.4321 62.888 68.8257 61.9615 69.1684 61.0158C69.4957 60.0831 69.7647 59.0877 70.0248 58.1148C70.5471 56.1734 70.8982 54.1899 71.074 52.1872C71.1053 51.5505 71.1547 50.9138 71.1233 50.2816C71.1112 48.3789 70.773 46.4923 70.1234 44.7038C69.9169 44.1068 69.6743 43.5228 69.397 42.9551C69.128 42.3812 68.7783 41.8477 68.5003 41.2782C67.8514 40.1671 67.0896 39.1258 66.227 38.171C65.1554 36.9738 65.3885 37.0186 66.5005 37.8705C66.8397 38.1175 67.1618 38.3871 67.4645 38.6776L68.0384 39.2112C68.2583 39.4017 68.4665 39.6053 68.6617 39.821C69.6762 40.8188 70.5025 41.9914 71.1009 43.2825C71.2548 43.5981 71.3924 43.9213 71.5134 44.251L71.7062 44.7442L71.8048 44.9863L71.8766 45.2419L72.159 46.2597C72.2532 46.6004 72.298 46.9502 72.3698 47.2954C72.4938 47.9869 72.5821 48.6843 72.6343 49.3849C72.6343 49.7301 72.6567 50.0799 72.6657 50.4296V50.9542L72.6433 51.4743L72.5984 52.5145L72.4864 53.5458C72.4281 54.2408 72.2935 54.8909 72.1859 55.5904C71.9124 56.9355 71.5941 58.2807 71.2085 59.563L70.9215 60.536L70.5852 61.5314C70.3431 62.1815 70.0831 62.8272 69.7961 63.4504C69.2311 64.7059 68.5989 65.9076 67.9577 67.0868C66.6844 69.4497 65.3751 71.7544 64.4828 74.1891C63.9288 75.6349 63.6153 77.1616 63.5547 78.7087C63.5211 80.2871 63.7067 81.8624 64.1062 83.3898C64.4614 84.8934 65.1648 86.2925 66.1598 87.4745C66.6375 88.0241 67.231 88.4612 67.8978 88.7542C68.5645 89.0473 69.2878 89.1891 70.0158 89.1693C70.3666 89.1571 70.7096 89.0627 71.0172 88.8937C71.3248 88.7247 71.5884 88.4859 71.7869 88.1964C72.2811 87.5319 72.667 86.7934 72.9302 86.0083C73.5311 84.3807 73.8853 82.623 74.3606 80.8475C74.4861 80.3991 74.6206 79.9507 74.8089 79.5023L75.3022 78.2334C75.6399 77.3905 75.9822 76.5505 76.3289 75.7136C77.0239 74.0366 77.7593 72.3687 78.5439 70.7276C80.4024 66.6147 82.7574 62.7448 85.5565 59.2043C86.1489 58.5343 86.8238 57.9422 87.5653 57.4422C88.2827 56.949 89.0105 56.4916 89.7489 56.0702C91.224 55.2138 92.7216 54.4246 94.2102 53.64C97.2009 52.0706 100.169 50.5013 103.034 48.8199C105.244 47.5231 107.381 46.1072 109.437 44.5783C111.48 43.0808 113.391 41.4112 115.149 39.5878C115.526 39.1843 115.907 38.7897 116.248 38.3638C116.589 37.9378 116.943 37.5432 117.261 37.0949C118.521 35.4762 119.207 34.3239 119.732 33.5347C119.948 33.206 120.183 32.8902 120.436 32.5887C120.607 32.3672 120.802 32.1657 121.019 31.9878C121.186 31.8249 121.366 31.675 121.557 31.5395C121.812 31.4139 121.844 31.7771 121.669 32.5618C121.624 32.7591 121.575 32.9832 121.498 33.2299C121.422 33.4765 121.315 33.732 121.202 34.019C120.938 34.6795 120.621 35.3181 120.256 35.9291C119.015 37.9917 117.519 39.8899 115.804 41.5786C114.078 43.292 112.221 44.8676 110.249 46.2911C106.256 49.1152 102.059 51.6404 97.6941 53.8462L92.901 56.3751C91.3409 57.1813 89.8302 58.0796 88.3768 59.0653L87.8791 59.4375L87.4307 59.8231C87.2962 59.9531 87.1797 60.0831 87.0496 60.2087C86.9196 60.3342 86.7761 60.545 86.6371 60.7109C86.3591 61.0471 86.0856 61.3924 85.8256 61.7466C85.5655 62.1008 85.2965 62.4461 85.0499 62.8138C84.0356 64.2595 83.0958 65.756 82.2341 67.2975L82.1937 67.311Z" fill="black"/>
<path d="M50.0054 43.6412C51.2878 42.8162 52.5791 42.0136 53.8929 41.2514C54.3726 40.9734 54.83 40.6595 55.3187 40.3905C57.027 39.4355 58.7757 38.5521 60.5557 37.7271C61.3494 37.3684 62.134 36.9828 62.9411 36.6465C63.4561 36.417 63.9884 36.2281 64.5328 36.0816C65.092 35.9207 65.6732 35.8496 66.2546 35.8709C66.6313 35.8709 66.555 36.104 66.2905 36.3551C65.9243 36.6889 65.5024 36.956 65.044 37.1442C64.7974 37.2384 64.5553 37.346 64.3087 37.4447L63.941 37.615L63.5644 37.763C63.0667 37.9693 62.569 38.1845 62.0668 38.4087L59.0492 39.8166C57.8286 40.4385 56.6431 41.127 55.4981 41.8791C54.2067 42.6682 52.9244 43.4723 51.651 44.2914C50.8708 44.798 50.0906 45.3092 49.3284 45.8428C48.1671 46.6453 47.0013 47.4614 45.9162 48.3402C45.0935 49.0291 44.3077 49.7609 43.5623 50.5328L43.0825 51.0394C42.4727 51.6537 42.2306 51.7568 41.8091 51.6358C41.7114 51.6169 41.6154 51.5899 41.5221 51.5551C41.2307 51.443 41.28 50.9587 41.6925 50.4027C43.0197 48.8397 44.5365 47.4479 46.2077 46.2597C47.4362 45.3361 48.7096 44.4662 49.983 43.6098L50.0054 43.6412Z" fill="black"/>
<path d="M72.0065 3.74439C81.0909 4.28122 90.2018 4.18083 99.2723 3.44398L101.747 3.20634L104.204 2.87903C105.85 2.69071 107.469 2.35891 109.101 2.10782C110.535 1.85224 111.948 1.52493 113.378 1.23796C114.127 1.10345 114.867 0.928585 115.62 0.825458L116.759 0.704395C117.137 0.655047 117.517 0.6281 117.898 0.62369C120.944 0.516611 123.984 0.972623 126.865 1.96882L127.928 2.34546C128.285 2.46276 128.635 2.59896 128.977 2.75348L131.031 3.65023L133.017 4.6815L133.515 4.93707L133.981 5.25991L134.941 5.82486C136.241 6.55572 137.452 7.41211 138.698 8.21471C139.308 8.6317 139.9 9.07559 140.492 9.50155C141.083 9.92751 141.702 10.3535 142.285 10.8153C146.464 13.9808 150.49 17.375 154.351 20.8365L155.288 21.6615C155.588 21.9306 155.902 22.1996 156.221 22.4641L158.144 24.0379L162.036 27.1766C164.637 29.2615 167.21 31.3734 169.658 33.6422C170.403 34.3775 170.667 34.7766 170.555 34.8304C170.443 34.8842 169.99 34.6376 169.21 34.2161C168.43 33.7946 167.354 33.1355 166.071 32.3195C165.439 31.9069 164.753 31.4586 164.045 30.9519C163.336 30.4452 162.61 29.8803 161.861 29.2839L157.889 26.0915C156.566 25.0109 155.252 23.9572 153.934 22.787L150.145 19.4196C148.854 18.3301 147.594 17.2002 146.28 16.1375C144.966 15.0749 143.675 13.9853 142.325 12.972C141.653 12.4653 141.003 11.9228 140.312 11.443L138.259 9.96786C135.518 8.0257 132.62 6.3145 129.596 4.85188L128.224 4.23761C127.776 4.02687 127.282 3.88787 126.812 3.71301L126.103 3.45743C125.868 3.36716 125.626 3.29228 125.381 3.23324L123.924 2.84764C123.681 2.77823 123.434 2.72579 123.184 2.6907L122.471 2.56964C121.977 2.4706 121.477 2.40469 120.974 2.37236C120.472 2.33649 119.965 2.28717 119.463 2.26923L117.947 2.30062H117.566L117.189 2.34097L116.436 2.42616L115.678 2.51136L114.93 2.6638C114.427 2.76693 113.948 2.85661 113.423 2.97318L111.863 3.30947C109.791 3.7982 107.693 4.11206 105.612 4.44834C101.016 5.10746 96.3937 5.45719 91.7754 5.65448C87.1571 5.85176 82.5299 5.86073 77.9116 5.73967C75.0689 5.67241 72.2307 5.5379 69.3924 5.38097L65.1508 5.12091H64.6351C64.4859 5.11099 64.3361 5.11099 64.1868 5.12091C63.8804 5.1542 63.5792 5.22497 63.29 5.33165C62.6534 5.5663 62.0346 5.84651 61.4382 6.17011C59.5815 7.19969 57.7851 8.33443 56.0577 9.56881C54.309 10.7974 52.5917 12.0797 50.9058 13.3979C47.5296 16.0299 44.2564 18.7785 41.1088 21.6436C38.6652 23.8631 36.3157 26.1274 34.0962 28.5127C32.9887 29.7009 31.9126 30.9115 30.9262 32.176C30.4434 32.7971 29.9944 33.4437 29.581 34.113C29.3839 34.4279 29.2115 34.7577 29.0654 35.0994C29.0004 35.2432 28.9508 35.3935 28.9174 35.5478C28.91 35.6073 28.91 35.6676 28.9174 35.7271C28.9174 35.7719 28.9174 35.902 28.9174 35.9827C29.028 37.3349 29.344 38.6624 29.8546 39.9194C30.2492 40.9513 30.6982 41.9616 31.1997 42.946C31.6077 43.762 31.9574 44.4167 32.2399 44.9592C32.6612 45.6946 33.0096 46.4695 33.2802 47.2728C33.3519 47.5463 33.5043 47.8692 33.5223 48.053C33.6433 48.6762 31.7915 47.2011 29.8232 43.6589C29.076 42.3291 28.4459 40.9369 27.94 39.498C27.6828 38.7479 27.485 37.9788 27.3481 37.1978C27.3167 36.996 27.2809 36.7987 27.2585 36.5925L27.2181 35.9648C27.196 35.699 27.2141 35.4315 27.2719 35.1711C27.323 34.9301 27.3965 34.6944 27.4916 34.4672C27.8219 33.7082 28.2322 32.9868 28.7157 32.315C29.1641 31.6648 29.6438 31.0461 30.137 30.4452C31.119 29.2481 32.1547 28.1047 33.2174 26.9838C37.5368 22.5273 42.1136 18.3278 46.9243 14.4068C50.499 11.4158 54.2415 8.63132 58.1337 6.06699C59.138 5.41619 60.1751 4.81756 61.2409 4.27348C61.8182 3.98082 62.4179 3.73492 63.0344 3.53814C63.4001 3.4169 63.7799 3.34306 64.1644 3.31843H64.3347C64.3751 3.31618 64.4155 3.31618 64.4558 3.31843H64.6934L65.1418 3.34085C67.4644 3.47985 69.7466 3.6323 72.0423 3.73094L72.0065 3.74439Z" fill="black"/>
<path d="M40.0423 35.1488C39.9701 34.9685 39.8831 34.7946 39.7822 34.6287C39.7508 34.5659 39.6881 34.5345 39.6522 34.4717C39.5284 34.2549 39.3778 34.0545 39.2038 33.8754C39.1237 33.8025 39.031 33.7448 38.9303 33.705C38.8003 33.6512 38.6613 33.6467 38.5671 33.5032C38.473 33.3598 38.8989 32.7096 39.1007 32.7634C39.445 32.8578 39.747 33.0665 39.9571 33.3553C40.0946 33.5066 40.2446 33.646 40.4055 33.7723C40.5571 33.9351 40.6965 34.1089 40.8224 34.2924C40.9032 34.4 40.9659 34.5166 41.0422 34.6287C41.1382 34.8 41.2476 34.9634 41.3695 35.1174C41.4771 35.225 41.6026 35.3147 41.7102 35.4178C41.7327 35.4402 41.764 35.4582 41.782 35.4806C41.8537 35.5792 41.782 35.6689 41.6295 35.8303L41.5129 35.9379C41.458 35.9914 41.3926 36.033 41.3209 36.06C41.2491 36.087 41.1725 36.0989 41.096 36.0949C40.9403 36.0602 40.7896 36.0059 40.6476 35.9334C40.5302 35.8593 40.4294 35.7616 40.3516 35.6465C40.2261 35.494 40.1275 35.3236 40.0109 35.1712L40.0423 35.1488Z" fill="black"/>
<path d="M143.42 49.8824C141.851 48.5372 140.214 47.2728 138.546 46.0532C137.941 45.6048 137.282 45.2282 136.668 44.7933C134.484 43.2682 132.215 41.87 129.87 40.6054L129.09 40.184C128.826 40.0539 128.552 39.9329 128.288 39.8118L126.673 39.0944L124.566 38.2963C123.858 38.0452 123.149 37.8076 122.459 37.4982C122.01 37.3099 122.167 37.0498 122.638 36.866C123.337 36.6534 124.083 36.6534 124.781 36.866C127.777 37.8534 130.639 39.2089 133.3 40.9014L135.753 42.4079C136.587 42.8966 137.408 43.4257 138.21 43.9638C139.972 45.143 141.663 46.4254 143.331 47.7301L144.842 48.9721C145.348 49.3802 145.842 49.8016 146.335 50.2321L147.451 51.2051L148.541 52.2094C149.272 52.8685 149.98 53.5546 150.689 54.2316L152.365 55.8368C152.921 56.3435 153.451 56.8815 153.98 57.4285C154.208 57.6662 154.428 57.8769 154.67 58.1459C155.459 59.1189 155.625 59.4911 155.468 59.9394C155.442 60.0448 155.404 60.147 155.356 60.2443C155.181 60.5223 154.661 60.2937 154.011 59.6794C153.563 59.231 153.043 58.7826 152.563 58.2939L151.841 57.581L151.097 56.877C150.119 55.9175 149.092 54.9804 148.088 54.0164C147.317 53.3214 146.572 52.5995 145.779 51.9225L144.609 50.8912L143.398 49.9137L143.42 49.8824Z" fill="black"/>
<path d="M152.755 40.4214C153.144 39.7453 153.495 39.0477 153.805 38.332L154.253 37.2559L154.63 36.1439C154.727 35.8736 154.809 35.5982 154.876 35.3189C154.935 35.0409 154.997 34.7584 155.069 34.4849C155.325 33.5036 155.523 32.508 155.661 31.5032L155.786 29.9832C155.813 29.7286 155.822 29.4724 155.813 29.2165V28.4543V27.7727C155.813 27.5441 155.76 27.3243 155.728 27.0957C155.665 26.6473 155.607 26.1989 155.526 25.7505C155.378 25.1946 155.235 24.6341 155.078 24.0736C154.921 23.5131 154.706 22.9841 154.571 22.4146C154.482 22.0604 154.715 22.0021 155.056 22.1994C155.54 22.5197 155.918 22.9771 156.141 23.5131C157.027 25.8801 157.363 28.4178 157.123 30.9338C157.002 32.4612 156.786 33.9796 156.477 35.4803C156.386 35.8914 156.272 36.297 156.136 36.6954C156.011 37.099 155.894 37.5025 155.755 37.9016L155.275 39.0673C155.125 39.4599 154.951 39.8433 154.755 40.2152L154.047 41.5962L153.235 42.9234C153.128 43.0893 153.033 43.2597 152.921 43.4211L152.567 43.8919L151.868 44.829C151.374 45.4388 150.841 46.0082 150.334 46.6001C149.886 47.026 149.487 47.452 149.074 47.8914C148.662 48.3308 148.178 48.6895 147.729 49.0841L147.424 49.3441C147.321 49.4249 147.209 49.4966 147.097 49.5728C146.245 50.0974 145.909 50.1602 145.523 49.8777C145.432 49.8178 145.345 49.7519 145.263 49.6804C145.03 49.4249 145.227 48.9765 145.743 48.5371C147.315 47.2329 148.77 45.7941 150.092 44.2371C150.351 43.9533 150.592 43.6538 150.814 43.3404L151.518 42.4122L152.137 41.4213C152.357 41.0991 152.555 40.762 152.729 40.4125L152.755 40.4214Z" fill="black"/>
<path d="M0.943686 67.1359C0.795722 67.1987 0.715014 67.0149 0.670176 66.6875C0.662208 66.5329 0.693034 66.3788 0.75985 66.2392C0.84302 66.1689 0.933167 66.1073 1.02888 66.0553C1.08268 66.0284 1.87183 66.0195 2.14534 66.0105C2.40196 66.0073 2.65799 66.0359 2.90758 66.0957L4.40516 66.4095C4.51653 66.4322 4.62385 66.4715 4.7235 66.5261C5.06655 66.704 5.43853 66.8194 5.82203 66.8669C5.88591 66.8891 5.95543 66.8891 6.01931 66.8669C6.43974 66.8779 6.85645 66.9489 7.25683 67.0776C7.55725 67.2435 7.86214 67.3646 8.15359 67.526C8.19842 67.526 8.25223 67.526 8.27913 67.6067C8.35087 67.7726 8.45848 67.7636 8.55264 67.795C8.69247 67.8305 8.82784 67.8816 8.95618 67.9475C9.02944 68.0028 9.09178 68.0712 9.14001 68.1492C9.15645 68.1994 9.16215 68.2525 9.15674 68.305C9.15133 68.3576 9.13494 68.4084 9.10863 68.4541C9.03689 68.5169 9.07724 68.6245 9.06828 68.7187C9.07092 68.75 9.07092 68.7815 9.06828 68.8128C8.74801 68.9614 8.40838 69.0641 8.05943 69.1177L7.39583 69.0774C7.06403 69.0415 6.71878 69.0012 6.64704 69.0012C6.57175 68.9867 6.50103 68.9544 6.44079 68.907C6.40492 68.907 5.42297 68.777 5.3871 68.7635C5.1943 68.6963 4.98356 68.7008 4.82215 68.5214C4.79129 68.4936 4.75156 68.4777 4.71005 68.4766C4.37356 68.394 4.0438 68.2861 3.72362 68.1537C3.55715 68.1015 3.38803 68.0581 3.21696 68.0237C3.18663 68.009 3.15805 67.991 3.13176 67.9699C3.09827 67.9476 3.06212 67.9295 3.02415 67.9161C2.6313 67.7962 2.23151 67.7004 1.82699 67.6291C1.73283 67.6291 1.32481 67.3825 1.2172 67.378C1.10959 67.3736 1.00197 67.109 0.943686 67.1359Z" fill="black"/>
<path d="M15.8884 62.6521C16.0723 62.7507 15.9378 62.9704 15.6194 63.2798C15.4646 63.4128 15.28 63.5066 15.0814 63.5533C14.9427 63.5242 14.8074 63.4806 14.6778 63.4233C14.3566 63.0744 14.0571 62.706 13.7811 62.3203C13.5849 62.0575 13.425 61.7694 13.3058 61.4639C13.0592 60.8496 12.8036 60.2443 12.5884 59.621C12.5386 59.4765 12.5099 59.3254 12.5032 59.1727C12.4651 58.6707 12.3549 58.1769 12.1759 57.7065C12.149 57.6258 12.14 57.5406 12.0548 57.4823C11.8144 56.9737 11.6628 56.4278 11.6064 55.8681C11.6513 55.4198 11.6378 54.9714 11.6916 54.523C11.6916 54.4557 11.6647 54.393 11.7365 54.3257C11.9024 54.1688 11.8575 54.0432 11.8575 53.9087C11.8569 53.7174 11.8765 53.5265 11.9158 53.3393C11.9608 53.2341 12.0229 53.1371 12.0997 53.0523C12.1669 52.9626 12.427 52.9851 12.4584 53.012C12.4897 53.0389 12.6646 53.012 12.7722 52.9895C12.811 52.9853 12.8501 52.9853 12.8888 52.9895C13.024 53.1383 13.1414 53.3023 13.2385 53.4783C13.3641 53.6567 13.4765 53.844 13.5748 54.0387C13.5748 54.0387 13.5972 54.1374 13.6421 54.2764C13.6869 54.4154 13.7362 54.5947 13.79 54.7831C13.8977 55.1597 14.0187 55.5453 14.0546 55.6215C14.077 55.7083 14.077 55.7993 14.0546 55.8861C14.0546 55.9309 14.4671 57.0249 14.503 57.0698C14.5433 57.3074 14.6733 57.5182 14.5837 57.7961C14.5657 57.8423 14.5657 57.8935 14.5837 57.9396C14.7105 58.3379 14.8124 58.7437 14.8886 59.1547C14.9496 59.3587 15.0215 59.5592 15.1038 59.7556C15.1083 59.7958 15.1083 59.8364 15.1038 59.8766C15.0969 59.9257 15.0969 59.9755 15.1038 60.0246C15.2567 60.5043 15.4486 60.9707 15.6777 61.419C15.736 61.5177 15.7898 62.1006 15.875 62.2082C15.9602 62.3158 15.8167 62.6027 15.8884 62.6521Z" fill="black"/>
<path d="M21.5825 95.2446C21.2911 90.0075 21.2866 84.7929 21.4884 79.5514C21.5691 77.6458 21.6453 75.7402 21.8516 73.8346C21.9759 72.5864 22.1659 71.3457 22.421 70.1175C22.5499 69.4784 22.7329 68.8514 22.968 68.2433C23.1011 67.895 23.2855 67.5686 23.515 67.2748C23.6654 67.0665 23.8711 66.9045 24.1089 66.807C24.3466 66.7095 24.6068 66.6805 24.8602 66.7233L31.0747 68.3016L37.2174 69.835C40.096 70.5345 43.006 71.1802 45.8801 71.8034C47.7274 72.1845 49.5792 72.5657 51.431 72.9333C52.3591 73.1037 53.2828 73.301 54.2064 73.4579C55.1301 73.6149 56.0582 73.7897 56.9639 73.9063C58.049 73.987 57.9907 74.265 56.9639 74.5206C55.2706 74.7654 53.5478 74.7184 51.8704 74.3816C48.0412 73.727 44.2704 72.8661 40.504 71.9693C36.7377 71.0726 32.9803 70.113 29.2184 69.1042L26.9765 68.5123L24.7615 67.9563C24.7311 67.949 24.6994 67.948 24.6686 67.9534C24.6377 67.9588 24.6083 67.9705 24.5822 67.9877C24.5565 68.0066 24.5338 68.0293 24.5149 68.055C24.472 68.1031 24.4344 68.1557 24.4028 68.2119C24.2298 68.5126 24.0943 68.8333 23.9993 69.167C23.7831 69.9022 23.6169 70.6512 23.5016 71.4088C23.2595 72.9557 23.116 74.5475 22.9994 76.1168C22.6698 81.3232 22.6024 86.543 22.7976 91.7562C22.8559 93.3614 22.9366 94.9666 23.0711 96.5583C23.1025 96.9574 23.1429 97.3564 23.1832 97.751C23.1832 97.872 23.1832 97.881 23.2101 97.9393C23.2222 97.9882 23.247 98.033 23.2819 98.0693C23.3878 98.1734 23.5051 98.2652 23.6316 98.3428C24.2976 98.7356 24.9986 99.0659 25.7255 99.3293C27.9674 100.181 30.3259 100.854 32.6754 101.499C35.0249 102.145 37.3878 102.715 39.7463 103.253C43.414 104.082 47.0414 104.746 50.7001 105.405L53.1079 105.822C54.6055 106.118 55.5919 106.324 56.2734 106.521C56.7503 106.648 57.2042 106.85 57.6186 107.118C57.7572 107.199 57.8904 107.289 58.0176 107.387C58.1477 107.521 57.8921 107.588 57.3271 107.606C56.4666 107.619 55.6064 107.568 54.7534 107.454C53.0945 107.266 51.422 107.005 49.7406 106.705C48.0592 106.405 46.3598 106.095 44.656 105.746C41.2483 105.051 37.8093 104.266 34.3792 103.392C31.8324 102.732 29.2901 102.046 26.7568 101.181C26.1246 100.966 25.4924 100.733 24.8602 100.486C24.1983 100.23 23.5581 99.921 22.9456 99.5624C22.7653 99.4489 22.593 99.323 22.43 99.1858C22.1847 98.9853 21.9987 98.7218 21.8919 98.4236C21.8402 98.2793 21.8099 98.1282 21.8022 97.9752L21.7708 97.7241L21.7215 97.2264C21.6588 96.5628 21.6094 95.8813 21.5646 95.2401L21.5825 95.2446Z" fill="black"/>
</svg>
