<svg width="586" height="207" viewBox="0 0 586 207" fill="none" xmlns="http://www.w3.org/2000/svg">
<rect x="0.5" width="585.5" height="206.75" rx="4" fill="white"/>
<path opacity="0.2" d="M234.707 127.875C234.707 127.875 242.759 124.164 245.88 121.084C249.001 118.003 256.172 105.06 258.302 101.285C260.432 97.5027 275.34 92.4923 276.358 93.0132C277.376 93.5342 276.012 96.2942 274.765 97.0746C273.519 97.8549 272.39 98.4562 272.39 98.4562C272.39 98.4562 281.131 99.1243 281.144 100.237C281.157 101.349 280.162 103.083 277.397 102.784C274.632 102.485 269.214 103.301 266.042 106.859C266.042 106.859 264.918 109.023 266.737 108.487C268.555 107.951 273.699 104.647 275.021 105.705C276.333 106.771 276.708 107.362 275.648 108.399C274.589 109.437 270.089 112.004 268.604 112.576C267.12 113.14 265.57 117.159 263.643 117.776C261.716 118.401 261.302 118.84 260.46 118.467C259.61 118.094 236.842 140.772 236.842 140.772L234.705 127.89L234.707 127.875Z" fill="black"/>
<path d="M236.941 132.699C237.088 133.557 237.212 134.413 237.337 135.269C237.381 135.58 237.463 135.888 237.499 136.198C237.629 137.292 237.758 138.401 237.887 139.495C237.959 139.977 238.038 140.461 238.11 140.943C238.162 141.248 238.214 141.56 238.266 141.864C238.295 142.173 238.292 142.495 238.289 142.809C238.276 143.006 238.169 143.003 237.992 142.869C237.822 142.736 237.527 142.483 237.363 142.144C237.159 141.533 237.003 140.911 236.854 140.29C236.759 139.659 236.697 139.017 236.657 138.377C236.608 137.606 236.413 136.834 236.28 136.062C236.132 135.211 235.999 134.37 235.835 133.525C235.736 133.009 235.63 132.492 235.516 131.974C235.329 131.196 235.152 130.411 234.893 129.664C234.686 129.083 234.422 128.542 234.19 127.981L234.029 127.619C233.863 127.15 233.915 126.956 234.135 126.757C234.186 126.709 234.238 126.653 234.287 126.62C234.469 126.493 234.716 126.619 234.959 126.928C235.309 127.394 235.568 127.912 235.827 128.437C236.054 128.974 236.224 129.544 236.386 130.112C236.626 130.957 236.803 131.826 236.98 132.688L236.949 132.7L236.941 132.699Z" fill="black"/>
<path d="M236.718 141.877C236.718 141.877 239.562 150.152 241.351 149.238C243.635 148.069 239.13 139.488 239.13 139.488L236.718 141.877Z" fill="black"/>
<path d="M210.686 133.411C214.869 130.795 219.124 128.224 223.662 126.098C225.314 125.322 227.001 124.58 228.782 124.032L229.368 123.856C229.573 123.801 229.718 123.732 230.054 123.676C230.334 123.629 230.58 123.624 230.773 123.614C230.98 123.612 231.051 123.589 231.425 123.598C232.041 123.571 232.663 123.851 233.134 124.184C233.571 124.544 233.895 124.954 234.136 125.355C234.618 126.164 234.9 126.975 235.13 127.773C235.36 128.571 235.545 129.365 235.699 130.155C236.316 133.315 236.677 136.44 237.312 139.503C237.59 140.858 237.932 142.196 238.387 143.478C238.834 144.758 239.41 145.984 240.204 146.956C240.324 147.122 240.462 147.267 240.602 147.396L240.81 147.602C240.879 147.671 240.902 147.673 240.944 147.708C241.094 147.816 241.278 147.958 241.462 147.885C241.64 147.797 241.693 147.58 241.727 147.408C241.756 147.28 241.817 146.773 241.835 146.377C241.87 145.538 241.839 144.669 241.778 143.797C241.732 143.363 241.732 142.926 241.732 142.482C241.726 142.037 241.711 141.598 241.681 141.151C241.606 140.047 241.734 140.145 242.248 141.011C242.501 141.444 242.841 142.07 243.232 142.862C243.562 143.663 243.766 144.634 243.834 145.737C243.851 146.229 243.859 146.728 243.819 147.26L243.797 147.465L243.758 147.767C243.738 147.956 243.675 148.187 243.628 148.412C243.492 148.835 243.311 149.245 243.05 149.539C242.542 150.144 241.626 150.4 240.877 150.091C240.682 150.048 240.498 149.906 240.32 149.78L239.769 149.408L239.497 149.226L239.344 149.08L239.039 148.779C237.51 147.147 236.789 145.263 236.207 143.44C235.116 139.762 234.715 136.081 234.176 132.469C234.013 131.394 233.829 130.31 233.571 129.264C233.313 128.225 232.986 127.187 232.502 126.393C232.259 126.015 231.982 125.733 231.746 125.647C231.685 125.641 231.627 125.611 231.567 125.597C231.497 125.605 231.428 125.606 231.36 125.599C231.036 125.626 230.729 125.632 230.542 125.658C230.425 125.676 230.41 125.675 230.275 125.722L229.886 125.849L229.101 126.096C228.579 126.256 228.066 126.47 227.556 126.654C223.044 128.4 218.76 130.883 214.551 133.45C211.963 135.039 209.399 136.685 206.849 138.347C202.976 140.858 199.064 143.372 195.094 145.712C191.993 147.508 188.931 149.299 185.448 150.442C185.06 150.562 184.672 150.674 184.292 150.795C183.892 150.883 183.493 150.964 183.085 151.051C181.552 151.272 180.47 151.22 179.752 150.983C179.397 150.861 179.115 150.771 178.911 150.603C178.716 150.414 178.584 150.217 178.472 150.044C178.374 149.88 178.238 149.72 178.195 149.616C178.122 149.432 178.404 149.378 178.934 149.288C179.066 149.279 179.218 149.218 179.36 149.249C179.514 149.242 179.691 149.238 179.867 149.233C180.051 149.23 180.241 149.25 180.448 149.248C180.664 149.233 180.888 149.218 181.127 149.205C183.968 148.999 186.882 147.735 189.72 146.326C192.562 144.871 195.389 143.199 198.187 141.441C202.347 138.83 206.483 136.071 210.673 133.387L210.707 133.428L210.686 133.411Z" fill="black"/>
<path d="M267.23 97.1849C265.53 97.9098 263.827 98.6574 262.187 99.4576C261.775 99.6594 261.371 99.8619 260.981 100.074L260.419 100.39C260.255 100.488 260.05 100.619 260.007 100.661C259.844 100.896 259.59 101.13 259.394 101.531L259.084 102.08L258.797 102.694C258.242 103.884 257.769 105.183 257.209 106.426C255.255 110.863 252.672 115.157 249.281 118.692C248.504 119.453 247.788 120.281 246.942 120.966L245.726 122.041C245.334 122.413 244.867 122.701 244.449 123.032C243.893 123.441 243.349 123.874 242.779 124.266L240.976 125.31L240.073 125.812C239.758 125.963 239.444 126.106 239.118 126.217L238.139 126.566C237.813 126.677 237.469 126.748 237.138 126.836C236.298 127.031 236.402 126.981 236.948 126.456C237.483 125.892 238.427 124.857 239.705 124.065C240.813 123.293 241.953 122.586 243.004 121.769C243.53 121.357 244.104 121.004 244.596 120.55L246.106 119.231C248.047 117.39 249.83 115.371 251.405 113.154C253.295 110.488 254.668 107.346 256 104.222C256.382 103.359 256.742 102.492 257.172 101.611C257.363 101.179 257.633 100.725 257.879 100.283C257.986 100.065 258.21 99.8277 258.371 99.6072C258.467 99.4948 258.54 99.3875 258.652 99.269C258.804 99.1319 258.912 99.0589 259.028 98.9716C259.917 98.391 260.754 98.0042 261.619 97.5744C262.475 97.1589 263.344 96.7678 264.203 96.391C266.333 95.4508 268.487 94.5668 270.652 93.7223C271.754 93.2945 272.871 92.8759 273.999 92.4967L274.856 92.2192L275.291 92.0889L275.819 91.9453C276.229 91.8429 276.644 91.7488 277.009 91.7795C277.191 91.7987 277.365 91.8171 277.513 91.9399C277.612 92.0883 277.686 92.2646 277.769 92.4189L277.901 92.9844C277.911 93.1847 277.928 93.3857 277.93 93.5775C277.901 93.7813 277.888 93.9791 277.844 94.1813C277.777 94.3811 277.746 94.531 277.676 94.6846C277.419 95.3087 277.02 95.8183 276.598 96.2642C275.576 97.3133 274.395 98.047 273.211 98.742C272.021 99.4211 270.808 100.021 269.577 100.581C269.037 100.831 268.513 101.082 267.955 101.291C266.931 101.697 266.242 101.908 265.721 101.983C265.214 102.067 264.894 102.057 264.596 101.972C264.462 101.934 264.295 101.917 264.209 101.869C263.902 101.722 264.621 101.078 266.034 100.254C268.113 99.132 270.33 98.2317 272.368 97.0749C273.378 96.4995 274.356 95.8747 275.106 95.1569C275.473 94.7972 275.773 94.4228 275.932 94.0718C275.979 93.9925 276.013 93.8888 276.027 93.8289C276.037 93.807 276.027 93.8289 276.029 93.8138C276.029 93.8138 276.068 93.8026 275.981 93.8242L275.665 93.921L275.022 94.1292C274.164 94.4218 273.295 94.744 272.424 95.0813C270.691 95.7491 268.961 96.4708 267.25 97.2176L267.224 97.1765L267.23 97.1849Z" fill="black"/>
<path d="M278.133 101.336C278.403 101.319 278.665 101.301 278.929 101.267L279.288 101.213L279.38 101.207C279.489 101.196 279.646 101.159 279.773 101.042C279.79 101.021 279.808 101 279.826 100.978C279.874 100.884 279.747 100.855 279.695 100.834C279.637 100.805 279.556 100.774 279.452 100.74C279.392 100.726 279.371 100.708 279.258 100.689L278.693 100.599C277.94 100.481 277.18 100.347 276.429 100.207C275.752 100.082 275.075 99.9646 274.399 99.8397C273.962 99.7631 273.521 99.663 273.102 99.4886C272.89 99.3973 272.676 99.3211 272.483 99.1859C272.291 99.0431 272.109 98.8859 271.943 98.7152C271.745 98.4875 271.85 98.4373 272.139 98.3834C272.279 98.3599 272.483 98.3125 272.696 98.2583C272.926 98.1829 273.152 98.1454 273.369 98.1989C274.172 98.2835 274.977 98.4986 275.814 98.6251C276.648 98.7743 277.509 98.8956 278.369 99.0935C278.931 99.214 279.256 99.2559 280.324 99.3761C280.762 99.4376 281.231 99.4946 281.546 99.6275C281.862 99.7603 282.1 99.9003 282.2 100.11C282.248 100.169 282.242 100.291 282.31 100.375C282.299 100.481 282.311 100.589 282.277 100.693C282.112 101.311 281.735 101.831 281.09 102.215C280.473 102.61 279.581 102.86 279.146 102.922C278.373 103.055 277.608 103.12 276.85 103.117C275.7 103.118 274.563 103.006 273.442 102.88C272.571 102.788 271.702 102.75 270.815 102.58C270.621 102.537 270.423 102.524 270.232 102.442C269.517 102.183 269.348 101.89 269.401 101.466C269.411 101.367 269.421 101.269 269.445 101.187C269.535 100.913 269.902 100.783 270.365 100.817C271.764 100.918 273.247 101.174 274.762 101.265C275.879 101.352 277.012 101.356 278.099 101.295L278.095 101.332L278.133 101.336Z" fill="black"/>
<path d="M270.085 110.67C271.828 109.981 273.592 109.239 274.763 108.083C274.961 107.874 275.132 107.639 275.241 107.406C275.321 107.292 275.342 107.171 275.392 107.054C275.423 106.981 275.426 106.958 275.436 106.936C275.438 106.913 275.449 106.884 275.451 106.861C275.467 106.786 275.445 106.699 275.383 106.639C275.319 106.587 275.263 106.542 274.999 106.499C274.532 106.419 273.945 106.465 273.399 106.561C272.387 106.707 271.286 107.418 270.125 107.893C269.097 108.344 268.037 108.8 266.878 109.038C266.137 109.166 265.313 109.279 264.51 108.98C264.308 108.928 264.128 108.817 263.948 108.706C263.769 108.595 263.58 108.499 263.451 108.339C263.127 108.068 263.028 107.621 262.864 107.289C262.689 106.842 262.791 106.891 263.172 107.061C263.38 107.121 263.582 107.311 263.995 107.248C264.181 107.229 264.28 107.308 264.431 107.324C264.575 107.339 264.711 107.354 264.836 107.405C265.32 107.471 265.824 107.555 266.417 107.457C267.002 107.358 267.62 107.162 268.234 106.936C268.858 106.687 269.484 106.416 270.121 106.116C270.78 105.825 271.401 105.523 272.219 105.256C272.717 105.102 273.184 105.036 273.666 104.972C274.147 104.915 274.641 104.883 275.185 104.948C275.702 104.987 276.583 105.279 276.903 105.949C277.249 106.591 277.025 107.487 276.813 107.893C276.298 109.004 275.427 109.709 274.584 110.294C273.726 110.87 272.821 111.319 271.913 111.721C271.358 111.969 270.798 112.193 270.246 112.419L269.443 112.763L269.08 112.939C268.99 112.991 268.9 113.051 268.831 113.12C268.592 113.355 268.306 113.739 268.046 114.095C267.778 114.457 267.502 114.827 267.211 115.187C266.636 115.915 266.01 116.623 265.294 117.237C264.744 117.731 264.126 118.148 263.459 118.515C262.774 118.833 262.033 119.1 261.246 119.155C260.907 119.173 260.563 119.244 260.225 119.178C259.907 119.144 259.644 119.093 259.426 119.048C259.22 118.972 259.07 118.864 258.941 118.782C258.691 118.61 258.598 118.401 258.555 118.159C258.535 118.057 258.492 117.953 258.493 117.877C258.471 117.644 259.057 117.392 259.793 117.462C260.887 117.547 261.908 117.386 262.84 116.902C263.773 116.41 264.621 115.634 265.391 114.719C265.977 114.03 266.492 113.287 267.124 112.45L267.405 112.112C267.477 112.012 267.671 111.841 267.807 111.717C267.951 111.587 268.137 111.492 268.284 111.4L268.672 111.211C269.162 110.994 269.602 110.819 270.051 110.628L270.07 110.669L270.085 110.67Z" fill="black"/>
<path d="M243.045 133.748L245.953 130.951C246.303 130.605 246.618 130.232 246.976 129.894C248.242 128.71 249.508 127.526 250.775 126.341C251.35 125.827 251.898 125.28 252.437 124.739C252.78 124.392 253.16 124.064 253.531 123.743L253.816 123.505L254.143 123.31C254.363 123.187 254.575 123.064 254.803 122.935C255.079 122.788 255.087 122.858 255.004 123.14C254.944 123.341 254.892 123.55 254.834 123.735C254.788 123.876 254.752 124.002 254.716 124.129C254.694 124.195 254.664 124.261 254.648 124.336L254.53 124.508C254.228 124.905 253.932 125.31 253.617 125.691C253.286 126.062 252.949 126.425 252.605 126.779C251.938 127.514 251.201 128.187 250.428 128.833C249.511 129.61 248.711 130.583 247.853 131.458L244.997 134.344L243.24 136.12C242.355 137.023 241.436 137.899 240.588 138.821C239.923 139.533 239.35 140.315 238.714 141.045C238.567 141.205 238.442 141.369 238.288 141.521C237.716 142.081 237.44 142.159 237.002 141.945C236.9 141.896 236.797 141.854 236.704 141.798C236.411 141.599 236.434 141.157 236.762 140.663C237.693 139.175 238.953 137.906 240.188 136.58C241.111 135.597 242.084 134.658 243.036 133.693L243.071 133.72L243.045 133.748Z" fill="black"/>
<path d="M204.518 169.421C207.226 167.355 210.059 165.332 212.991 163.534C214.056 162.88 215.102 162.186 216.187 161.564C220.026 159.379 224.026 157.479 228.141 155.875C229.969 155.171 231.811 154.484 233.661 153.875C234.844 153.478 236.046 153.122 237.272 152.83L239.077 152.423C239.384 152.348 239.703 152.297 240.042 152.279C240.38 152.269 240.736 152.237 241.093 152.344C241.529 152.497 241.664 152.665 241.635 152.723C241.604 152.796 241.381 152.811 241.058 152.961C240.743 153.119 240.369 153.325 239.914 153.637C239.479 153.921 238.773 154.214 238.126 154.399C235.746 155.098 233.377 155.837 231.043 156.686C228.701 157.535 226.394 158.487 224.081 159.5C221.318 160.711 218.617 162.349 215.961 163.923C213.034 165.676 210.211 167.524 207.488 169.589C205.808 170.852 204.146 172.148 202.478 173.443C199.942 175.406 197.328 177.306 194.625 179.036C192.523 180.37 190.432 181.674 188.149 182.69C187.656 182.937 187.153 183.129 186.641 183.336C185.688 183.726 185.021 183.878 184.536 183.903C184.049 183.936 183.744 183.85 183.472 183.668C183.343 183.586 183.19 183.509 183.109 183.408C182.829 183.087 183.524 182.525 184.838 181.981C186.789 181.13 188.754 180.226 190.676 179.141C192.591 178.056 194.48 176.853 196.333 175.554C199.081 173.614 201.763 171.499 204.484 169.379L204.519 169.414L204.518 169.421Z" fill="black"/>
<rect x="295.998" y="23.1505" width="105.24" height="97.2396" fill="white" stroke="#E5E5E5" stroke-width="0.760417"/>
<path d="M375.258 111.69L377.004 104.761L378.532 104.761L380.288 111.69L379.073 111.69L378.694 110.01L376.852 110.01L376.473 111.69L375.258 111.69ZM377.071 109.042L378.475 109.042L378.058 107.181C377.988 106.871 377.928 106.593 377.878 106.346C377.827 106.093 377.792 105.909 377.773 105.795C377.754 105.909 377.719 106.093 377.669 106.346C377.624 106.593 377.564 106.868 377.488 107.172L377.071 109.042ZM383.246 111.69L383.246 104.761L385.552 104.761C386.014 104.761 386.416 104.849 386.758 105.027C387.106 105.204 387.375 105.454 387.565 105.776C387.755 106.093 387.849 106.466 387.849 106.896C387.849 107.32 387.751 107.694 387.555 108.016C387.365 108.339 387.1 108.589 386.758 108.766C386.416 108.943 386.014 109.032 385.552 109.032L384.432 109.032L384.432 111.69L383.246 111.69ZM384.432 107.96L385.552 107.96C385.882 107.96 386.144 107.865 386.34 107.675C386.543 107.479 386.644 107.219 386.644 106.896C386.644 106.567 386.543 106.308 386.34 106.118C386.144 105.928 385.882 105.833 385.552 105.833L384.432 105.833L384.432 107.96ZM390.836 111.69L390.836 104.761L393.142 104.761C393.604 104.761 394.006 104.849 394.347 105.027C394.695 105.204 394.964 105.454 395.154 105.776C395.344 106.093 395.439 106.466 395.439 106.896C395.439 107.32 395.341 107.694 395.145 108.016C394.955 108.339 394.689 108.589 394.347 108.766C394.006 108.943 393.604 109.032 393.142 109.032L392.022 109.032L392.022 111.69L390.836 111.69ZM392.022 107.96L393.142 107.96C393.471 107.96 393.734 107.865 393.93 107.675C394.132 107.479 394.234 107.219 394.234 106.896C394.234 106.567 394.132 106.308 393.93 106.118C393.734 105.928 393.471 105.833 393.142 105.833L392.022 105.833L392.022 107.96Z" fill="black"/>
<rect x="300.921" y="28.128" width="94.2396" height="69.2396" fill="#FFEAEB" stroke="#E5E5E5" stroke-width="0.760417"/>
<path d="M331.149 82.7278C334.009 81.4048 336.852 80.0112 339.675 78.6001L342.754 77.0091C346.406 75.2105 350.047 73.3799 353.662 71.5006C355.267 70.6661 356.847 69.7753 358.424 68.9148C359.433 68.3546 360.435 67.7859 361.444 67.2257C362.46 66.6739 363.476 66.122 364.633 65.8302C365.357 65.646 365.268 65.6903 364.861 66.2067C364.651 66.4603 364.399 66.8858 364.02 67.2826C363.83 67.4848 363.638 67.7097 363.403 67.9071C363.161 68.0961 362.903 68.2835 362.617 68.4526C360.597 69.6648 358.584 70.8853 356.518 72.0237C354.446 73.1462 352.339 74.2344 350.207 75.2738C347.648 76.5135 345.099 78.0148 342.521 79.3597C339.691 80.8466 336.816 82.2446 333.934 83.6417C332.151 84.4882 330.363 85.3188 328.561 86.1326C327.885 86.4444 327.181 86.7227 326.491 87.0177C326.146 87.1653 325.801 87.3128 325.443 87.436L324.318 87.8614C323.805 88.0831 323.373 88.1066 322.929 88.1748L322.268 88.2736C322.161 88.27 322.037 88.3489 321.952 88.2863C321.892 88.2034 321.87 88.1168 321.841 88.0295C321.725 87.6801 321.7 87.1872 321.756 86.6568L321.88 85.2601C322.082 82.9829 322.134 80.7436 322.03 78.5338C322.004 78.0484 321.946 77.5826 321.905 77.1032C321.684 75.3408 321.705 74.8527 321.96 74.3203C322.019 74.2039 322.041 74.0607 322.089 73.9738C322.165 73.8286 322.35 73.894 322.649 74.1784C322.95 74.4552 323.246 74.992 323.477 75.7059C324.019 77.8317 324.083 79.9912 324.039 82.1472C324.01 83.2244 323.95 84.306 323.868 85.3776L323.825 85.7792L323.822 85.8785L324.66 85.5607C325.378 85.2916 326.103 84.9543 326.824 84.6548C328.263 84.0173 329.711 83.3653 331.141 82.6656L331.167 82.7066L331.149 82.7278Z" fill="black"/>
<path d="M314.715 75.4717C314.734 74.9298 315.412 77.292 316.682 77.5254C319.102 77.9719 358.083 66.9247 359.521 65.6358C360.013 65.1896 359.867 65.6953 360.038 65.3148C360.408 64.4957 338.71 70.3154 333.586 71.4611C328.463 72.6068 314.715 75.4717 314.715 75.4717Z" fill="black"/>
<path d="M324.497 72.2277C328.384 71.4803 332.267 70.6942 336.132 69.8603C337.542 69.5645 338.938 69.183 340.349 68.8796C345.316 67.771 350.289 66.6708 355.201 65.3572C357.388 64.8062 359.546 64.1065 361.691 63.4591C363.049 62.997 364.415 62.5433 365.793 62.1139C366.488 61.9189 367.146 61.6358 367.854 61.4652C368.554 61.2862 369.261 61.1232 369.972 60.9912C370.871 60.8254 370.77 60.9067 370.138 61.3841C369.822 61.6189 369.384 61.9942 368.821 62.387C368.541 62.5796 368.248 62.8092 367.907 62.9954C367.566 63.1741 367.196 63.342 366.813 63.4931C365.419 63.9898 364.037 64.5337 362.626 64.9826C361.215 65.424 359.792 65.841 358.369 66.258C355.519 67.0609 352.651 67.816 349.74 68.4594C346.27 69.2583 342.697 70.2302 339.156 71.0447C335.261 71.9444 331.343 72.7727 327.426 73.5859C325.016 74.0675 322.597 74.5558 320.187 75.0373L315.839 75.874L313.634 76.2929C312.635 76.4711 311.634 76.6568 310.642 76.8358C310.285 76.8134 309.919 76.7978 309.561 76.7755C309.402 76.7587 309.288 76.7467 309.138 76.7156C309.045 76.6522 309.073 76.5326 309.08 76.4644C309.088 76.3886 309.119 76.3152 309.142 76.241C309.24 75.9678 309.361 75.6895 309.564 75.3661C309.766 75.0427 310.073 74.6766 310.403 74.3053C310.734 73.9341 311.087 73.5652 311.449 73.182L312.297 72.329C313.307 71.3245 314.331 70.3367 315.375 69.3665C315.834 68.9398 316.277 68.5115 316.75 68.094C318.508 66.54 319.204 66.1844 319.849 66.1757C319.994 66.1757 320.166 66.1478 320.27 66.1741C320.449 66.2236 320.381 66.4309 320.143 66.7966C319.905 67.1623 319.489 67.6931 318.89 68.2964C317.314 69.9462 315.704 71.623 314.069 73.3278L313.465 73.969L313.163 74.2896C313.095 74.359 313.138 74.31 313.128 74.3319L313.123 74.3774C313.122 74.3925 313.162 74.3738 313.162 74.3738C313.194 74.3618 313.249 74.3523 313.296 74.3419C315.055 74.0063 316.814 73.6706 318.581 73.3358L324.457 72.1774L324.475 72.2253L324.497 72.2277Z" fill="black"/>
<path d="M339.956 62.8472L347.277 62.1551L349.945 61.8463L359.378 60.9555C360.773 60.8113 362.169 60.6443 363.552 60.4682C365.323 60.2334 367.108 60.0155 368.909 60.0826C369.474 60.1038 369.412 60.2582 368.969 60.5333C368.748 60.6709 368.431 60.8443 368.044 61.0257C367.658 61.1996 367.199 61.3351 366.691 61.4272C364.906 61.7908 363.096 61.9525 361.286 62.1908C359.478 62.4064 357.658 62.5976 355.826 62.7494C353.639 62.9327 351.383 63.3233 349.147 63.6086C346.693 63.917 344.234 64.2095 341.771 64.4633L337.224 64.9343C334.93 65.1753 332.62 65.361 330.341 65.6112C328.568 65.7921 326.843 66.093 325.084 66.2755C324.697 66.3189 324.323 66.3791 323.93 66.399C322.485 66.5149 322.012 66.3502 321.671 65.9465C321.597 65.8544 321.5 65.7599 321.449 65.6626C321.29 65.3471 321.861 65.0165 322.904 64.7893C324.456 64.5314 326.043 64.2313 327.662 64.0647C329.283 63.8754 330.924 63.7189 332.574 63.5479C335.021 63.3001 337.482 63.0615 339.945 62.8153L339.955 62.8623L339.956 62.8472Z" fill="black"/>
<path d="M303.429 148.776C307.922 148.383 312.353 147.992 316.624 146.94C320.872 145.886 324.981 144.197 328.311 141.46C330.746 139.51 332.548 136.873 333.738 134.01C334.794 131.486 335.219 128.688 334.804 126.009C334.397 123.323 333.002 120.855 331.02 118.876C329.054 116.876 326.641 115.274 324.153 113.808C321.7 112.294 319.068 111.097 316.467 109.75C314.162 108.573 311.856 107.334 309.68 105.886C307.511 104.44 305.403 102.777 303.907 100.536C302.938 99.1233 302.376 97.325 302.54 95.5495C302.742 93.778 303.585 92.1812 304.629 90.8509C305.668 89.497 306.988 88.3873 308.387 87.4697C309.786 86.5522 311.275 85.7974 312.767 85.0964C314.635 84.236 314.448 84.4844 312.969 85.4243C312.238 85.8988 311.189 86.5468 309.98 87.4001C308.779 88.2542 307.442 89.3161 306.264 90.6784C305.247 91.8966 304.388 93.2848 304.044 94.7273C303.686 96.1682 303.889 97.6606 304.606 98.9927C305.3 100.338 306.393 101.518 307.616 102.566C308.838 103.622 310.188 104.553 311.59 105.421C314.404 107.15 317.422 108.61 320.451 110.109C321.959 110.85 323.519 111.681 324.959 112.553C326.423 113.419 327.89 114.332 329.299 115.354C330.97 116.58 332.599 117.993 333.917 119.733C335.262 121.445 336.19 123.543 336.62 125.71C337.057 127.894 336.934 130.149 336.463 132.298C335.983 134.446 335.146 136.503 333.971 138.348C332.693 140.367 331.044 142.2 329.154 143.641C327.282 145.114 325.211 146.297 323.059 147.235C318.738 149.124 314.134 150.064 309.563 150.625C303.931 151.288 298.309 151.416 292.822 152.232C284.518 153.387 276.528 156.79 269.923 161.886C264.759 165.816 260.585 170.747 257.299 176.193C256.632 177.433 255.912 178.598 255.339 179.894C254.763 181.067 254.277 182.042 253.95 182.889C253.594 183.725 253.278 184.396 253.014 184.943C252.551 186.066 252.172 186.678 251.74 187.145C251.542 187.354 251.319 187.653 251.162 187.759C250.889 187.945 250.836 187.502 250.986 186.522C251.06 186.032 251.195 185.41 251.372 184.67C251.55 183.931 251.874 183.107 252.21 182.169C254.252 176.607 257.563 171.363 261.653 166.722C263.739 164.445 265.986 162.245 268.484 160.348C269.693 159.341 271.016 158.492 272.314 157.595C272.959 157.142 273.656 156.778 274.329 156.359C275.014 155.964 275.672 155.535 276.39 155.197C280.536 152.998 285.019 151.387 289.634 150.417C294.247 149.463 298.879 149.131 303.412 148.72L303.428 148.783L303.429 148.776Z" fill="black"/>
<path d="M375.027 52.1845C375.01 52.3512 374.809 52.3683 374.5 52.3129C374.402 52.3025 374.158 52.1465 374.149 52.0843C374.123 51.9667 374.105 51.8498 374.102 51.7346C374.094 51.6648 374.436 50.8197 374.551 50.5254C374.658 50.2379 374.814 49.9862 374.97 49.7422C375.313 49.2572 375.619 48.7456 376.011 48.2966C376.091 48.1977 376.192 48.1088 376.307 48.0366C376.694 47.7786 376.996 47.458 377.279 47.1047C377.323 47.048 377.389 47.0014 377.392 46.9021C377.393 46.7413 378.26 45.8597 378.412 45.799C378.797 45.6328 379.155 45.4406 379.526 45.2651C379.582 45.2404 379.611 45.1822 379.7 45.2069C379.901 45.2664 379.98 45.1751 380.086 45.1097C380.233 45.0255 380.4 44.9665 380.581 44.9243C380.674 44.9111 380.793 44.9466 380.906 44.9586C381.005 44.969 381.084 45.1612 381.08 45.1991C381.062 45.2968 381.164 45.3459 381.219 45.4129C381.239 45.438 381.259 45.4631 381.272 45.4875C381.282 45.5345 380.904 46.506 380.823 46.551C380.823 46.551 380.762 46.6212 380.676 46.7118C380.589 46.8099 380.477 46.9283 380.362 47.0695C380.142 47.3374 379.913 47.6198 379.861 47.6832C379.816 47.7474 379.729 47.7689 379.649 47.7988C379.61 47.81 378.948 48.6367 378.914 48.6713C378.739 48.8061 378.633 49.0095 378.375 49.0589C378.32 49.0685 378.301 49.1048 378.267 49.1395C378.022 49.4278 377.721 49.6643 377.434 49.9175C377.29 50.0479 377.167 50.1958 377.03 50.3346C377.004 50.3625 376.965 50.3737 376.933 50.3856C376.892 50.412 376.844 50.4299 376.818 50.4578C376.514 50.8012 376.154 51.0927 375.906 51.4803C375.851 51.5664 375.413 51.8651 375.363 51.9748C375.334 52.033 375.022 52.092 375.021 52.1686L375.027 52.1845Z" fill="black"/>
<path d="M378.871 57.5156C378.729 57.5542 378.646 57.3999 378.596 57.1419C378.582 57.0561 378.63 56.8236 378.679 56.7981C378.761 56.7454 378.836 56.6844 378.916 56.6545C378.955 56.6434 379.652 56.5713 379.888 56.5194C380.122 56.4752 380.345 56.468 380.567 56.4684C381.027 56.4709 381.489 56.4506 381.95 56.4379C382.05 56.4331 382.156 56.4443 382.252 56.4774C382.592 56.5975 382.943 56.6115 383.298 56.5876C383.359 56.5864 383.411 56.5995 383.472 56.5369C383.565 56.4472 384.515 56.4477 384.632 56.4984C384.934 56.622 385.233 56.6918 385.538 56.7776C385.582 56.79 385.623 56.7712 385.669 56.8374C385.76 56.9926 385.854 56.9794 385.945 56.989C386.073 57.0026 386.207 57.0397 386.333 57.0836C386.4 57.1059 386.467 57.1897 386.529 57.2575C386.592 57.3177 386.576 57.5383 386.559 57.5594C386.505 57.6304 386.563 57.7361 386.577 57.8218C386.581 57.8529 386.585 57.8916 386.583 57.9143C386.585 57.9682 385.792 58.4363 385.708 58.4351C385.693 58.4335 384.568 58.5678 384.405 58.5889C384.334 58.6045 384.269 58.567 384.202 58.5446C384.157 58.5398 383.255 58.5904 383.224 58.5948C383.036 58.5597 382.848 58.6011 382.665 58.4515C382.629 58.4248 382.59 58.4284 382.552 58.4244C382.231 58.4212 381.911 58.3338 381.59 58.254C381.425 58.2137 381.265 58.2121 381.099 58.187C381.069 58.1838 381.041 58.1579 381.011 58.1471C380.975 58.1279 380.939 58.1088 380.901 58.1048C380.514 58.0641 380.129 57.9392 379.74 57.9212C379.649 57.9117 379.241 57.7154 379.134 57.7118C379.073 57.7054 378.911 57.4968 378.855 57.5215L378.871 57.5156Z" fill="black"/>
<rect x="1" y="0.5" width="584.5" height="205.75" rx="3.5" stroke="black" stroke-opacity="0.1"/>
</svg>
