<svg width="586" height="240" viewBox="0 0 586 240" fill="none" xmlns="http://www.w3.org/2000/svg">
<rect x="0.5" width="585.5" height="240" rx="4" fill="white"/>
<path opacity="0.2" d="M232.162 145.565C232.162 145.565 240.564 141.693 243.821 138.479C247.078 135.265 254.561 121.759 256.782 117.82C259.005 113.873 274.562 108.644 275.624 109.188C276.686 109.731 275.263 112.612 273.962 113.426C272.661 114.24 271.484 114.868 271.484 114.868C271.484 114.868 280.604 115.565 280.618 116.725C280.631 117.886 279.593 119.695 276.708 119.383C273.823 119.071 268.169 119.923 264.86 123.635C264.86 123.635 263.686 125.894 265.584 125.334C267.482 124.775 272.85 121.327 274.228 122.432C275.598 123.543 275.989 124.16 274.884 125.243C273.778 126.326 269.083 129.005 267.533 129.601C265.984 130.189 264.367 134.384 262.356 135.028C260.345 135.679 259.913 136.137 259.035 135.749C258.148 135.36 234.389 159.023 234.389 159.023L232.16 145.581L232.162 145.565Z" fill="black"/>
<path d="M234.493 150.599C234.646 151.495 234.776 152.388 234.906 153.281C234.952 153.605 235.038 153.926 235.075 154.25C235.211 155.392 235.345 156.549 235.48 157.69C235.555 158.194 235.638 158.698 235.713 159.202C235.767 159.52 235.821 159.845 235.876 160.162C235.906 160.485 235.902 160.821 235.9 161.148C235.886 161.355 235.774 161.351 235.589 161.212C235.412 161.073 235.104 160.809 234.933 160.455C234.721 159.817 234.557 159.168 234.402 158.52C234.303 157.862 234.238 157.192 234.196 156.524C234.145 155.719 233.942 154.914 233.803 154.108C233.649 153.22 233.51 152.342 233.339 151.461C233.236 150.922 233.125 150.383 233.006 149.843C232.811 149.031 232.626 148.212 232.356 147.432C232.14 146.826 231.864 146.261 231.622 145.676L231.454 145.298C231.282 144.808 231.335 144.606 231.565 144.399C231.618 144.348 231.672 144.29 231.724 144.255C231.913 144.124 232.171 144.255 232.425 144.577C232.79 145.063 233.06 145.604 233.331 146.152C233.567 146.712 233.744 147.306 233.914 147.9C234.165 148.782 234.349 149.689 234.534 150.588L234.501 150.6L234.493 150.599Z" fill="black"/>
<path d="M234.259 160.176C234.259 160.176 237.227 168.811 239.094 167.857C241.477 166.637 236.777 157.683 236.777 157.683L234.259 160.176Z" fill="black"/>
<path d="M207.096 151.342C211.461 148.612 215.901 145.93 220.635 143.711C222.36 142.901 224.12 142.127 225.979 141.556L226.59 141.372C226.804 141.315 226.955 141.243 227.305 141.184C227.598 141.135 227.855 141.13 228.056 141.119C228.272 141.118 228.346 141.093 228.737 141.103C229.379 141.074 230.028 141.367 230.519 141.714C230.975 142.09 231.314 142.517 231.566 142.936C232.068 143.78 232.363 144.627 232.603 145.459C232.843 146.292 233.036 147.12 233.197 147.944C233.84 151.242 234.216 154.503 234.879 157.699C235.17 159.113 235.526 160.509 236.001 161.847C236.468 163.183 237.069 164.461 237.897 165.476C238.023 165.649 238.167 165.8 238.312 165.935L238.529 166.15C238.602 166.222 238.626 166.224 238.67 166.261C238.826 166.373 239.018 166.521 239.21 166.446C239.395 166.353 239.451 166.127 239.486 165.947C239.516 165.814 239.58 165.286 239.6 164.872C239.636 163.996 239.603 163.09 239.539 162.179C239.491 161.727 239.491 161.271 239.492 160.807C239.485 160.343 239.469 159.886 239.439 159.419C239.36 158.267 239.493 158.369 240.03 159.273C240.294 159.725 240.649 160.378 241.057 161.204C241.401 162.04 241.614 163.054 241.685 164.204C241.702 164.718 241.711 165.238 241.669 165.793L241.646 166.007L241.605 166.322C241.584 166.52 241.519 166.761 241.47 166.996C241.328 167.436 241.139 167.864 240.867 168.171C240.337 168.803 239.381 169.07 238.6 168.748C238.396 168.702 238.204 168.554 238.018 168.423L237.444 168.034L237.16 167.845L237 167.692L236.681 167.379C235.086 165.675 234.334 163.709 233.727 161.807C232.588 157.969 232.169 154.128 231.607 150.359C231.437 149.238 231.245 148.106 230.976 147.015C230.707 145.931 230.365 144.848 229.861 144.019C229.606 143.625 229.318 143.33 229.071 143.24C229.008 143.234 228.947 143.203 228.885 143.189C228.812 143.197 228.74 143.198 228.669 143.19C228.33 143.218 228.01 143.225 227.815 143.252C227.693 143.271 227.677 143.269 227.536 143.319L227.13 143.452L226.312 143.709C225.767 143.876 225.231 144.099 224.7 144.291C219.991 146.113 215.52 148.704 211.129 151.383C208.428 153.041 205.753 154.758 203.092 156.492C199.05 159.113 194.968 161.736 190.826 164.178C187.59 166.052 184.395 167.921 180.76 169.113C180.355 169.239 179.951 169.356 179.554 169.482C179.137 169.574 178.72 169.658 178.295 169.749C176.695 169.98 175.566 169.925 174.816 169.678C174.446 169.551 174.152 169.456 173.939 169.282C173.736 169.085 173.598 168.878 173.481 168.698C173.379 168.528 173.236 168.361 173.192 168.252C173.116 168.06 173.41 168.003 173.964 167.91C174.1 167.9 174.259 167.837 174.408 167.868C174.568 167.861 174.753 167.857 174.937 167.852C175.129 167.849 175.327 167.869 175.543 167.868C175.768 167.852 176.002 167.837 176.251 167.823C179.216 167.608 182.257 166.289 185.218 164.818C188.184 163.3 191.134 161.556 194.053 159.721C198.394 156.997 202.71 154.118 207.083 151.317L207.118 151.36L207.096 151.342Z" fill="black"/>
<path d="M266.099 113.541C264.324 114.297 262.547 115.077 260.836 115.912C260.407 116.123 259.985 116.334 259.578 116.555L258.991 116.885C258.821 116.987 258.606 117.125 258.562 117.168C258.392 117.414 258.126 117.658 257.922 118.076L257.598 118.649L257.299 119.289C256.72 120.531 256.226 121.886 255.641 123.184C253.603 127.814 250.908 132.295 247.369 135.983C246.558 136.777 245.812 137.642 244.929 138.356L243.66 139.478C243.251 139.866 242.763 140.167 242.327 140.512C241.747 140.939 241.179 141.391 240.585 141.8L238.703 142.889L237.761 143.413C237.432 143.57 237.105 143.72 236.765 143.836L235.743 144.2C235.403 144.316 235.043 144.39 234.698 144.481C233.821 144.685 233.931 144.632 234.5 144.085C235.058 143.496 236.043 142.417 237.377 141.59C238.533 140.784 239.722 140.046 240.819 139.194C241.368 138.764 241.967 138.396 242.48 137.922L244.056 136.545C246.082 134.624 247.942 132.518 249.585 130.205C251.557 127.422 252.99 124.144 254.381 120.884C254.779 119.983 255.154 119.079 255.603 118.159C255.803 117.709 256.084 117.235 256.341 116.774C256.453 116.546 256.687 116.299 256.855 116.069C256.955 115.951 257.031 115.839 257.148 115.716C257.307 115.573 257.419 115.496 257.54 115.405C258.467 114.799 259.341 114.396 260.244 113.947C261.137 113.514 262.044 113.106 262.94 112.712C265.162 111.731 267.41 110.809 269.67 109.928C270.82 109.481 271.985 109.045 273.162 108.649L274.056 108.359L274.51 108.223L275.061 108.074C275.488 107.967 275.922 107.868 276.303 107.901C276.493 107.921 276.674 107.94 276.829 108.068C276.932 108.223 277.009 108.407 277.096 108.568L277.234 109.158C277.244 109.367 277.261 109.577 277.264 109.777C277.234 109.989 277.22 110.196 277.174 110.407C277.104 110.615 277.072 110.772 276.999 110.932C276.73 111.583 276.314 112.115 275.874 112.58C274.807 113.675 273.575 114.441 272.339 115.166C271.098 115.874 269.832 116.501 268.548 117.085C267.985 117.345 267.437 117.607 266.855 117.826C265.787 118.249 265.068 118.469 264.524 118.548C263.995 118.636 263.661 118.624 263.35 118.536C263.21 118.497 263.036 118.479 262.946 118.429C262.626 118.276 263.377 117.603 264.85 116.743C267.02 115.573 269.334 114.633 271.459 113.426C272.514 112.826 273.534 112.174 274.317 111.425C274.7 111.049 275.013 110.659 275.179 110.292C275.228 110.21 275.263 110.101 275.278 110.039C275.288 110.016 275.278 110.039 275.28 110.023C275.28 110.023 275.321 110.012 275.231 110.034L274.9 110.135L274.23 110.352C273.334 110.658 272.427 110.994 271.519 111.346C269.711 112.043 267.904 112.796 266.119 113.575L266.092 113.532L266.099 113.541Z" fill="black"/>
<path d="M277.475 117.873C277.757 117.855 278.031 117.836 278.306 117.801L278.68 117.744L278.777 117.738C278.89 117.726 279.054 117.688 279.187 117.566C279.205 117.544 279.223 117.522 279.242 117.499C279.292 117.401 279.159 117.371 279.106 117.349C279.045 117.319 278.96 117.286 278.852 117.251C278.79 117.236 278.768 117.218 278.65 117.197L278.06 117.103C277.274 116.98 276.481 116.841 275.697 116.694C274.991 116.564 274.284 116.442 273.579 116.311C273.123 116.231 272.663 116.127 272.226 115.945C272.004 115.85 271.781 115.77 271.58 115.629C271.38 115.48 271.189 115.316 271.016 115.138C270.809 114.9 270.919 114.848 271.22 114.792C271.367 114.767 271.58 114.718 271.802 114.661C272.042 114.582 272.278 114.543 272.504 114.599C273.342 114.687 274.182 114.912 275.055 115.044C275.926 115.199 276.824 115.326 277.722 115.533C278.308 115.658 278.647 115.702 279.762 115.827C280.218 115.892 280.708 115.951 281.037 116.09C281.366 116.228 281.615 116.374 281.719 116.593C281.769 116.654 281.764 116.782 281.834 116.869C281.823 116.98 281.835 117.093 281.799 117.201C281.627 117.847 281.234 118.389 280.561 118.79C279.918 119.202 278.987 119.463 278.532 119.527C277.726 119.666 276.928 119.734 276.136 119.731C274.937 119.732 273.75 119.615 272.581 119.484C271.672 119.388 270.764 119.348 269.84 119.171C269.637 119.126 269.43 119.112 269.231 119.027C268.484 118.756 268.309 118.45 268.363 118.008C268.374 117.905 268.385 117.803 268.41 117.717C268.504 117.431 268.886 117.296 269.37 117.331C270.83 117.437 272.377 117.704 273.958 117.798C275.123 117.889 276.306 117.894 277.44 117.829L277.436 117.869L277.475 117.873Z" fill="black"/>
<path d="M269.077 127.613C270.896 126.893 272.736 126.12 273.959 124.913C274.166 124.695 274.343 124.45 274.457 124.206C274.541 124.087 274.563 123.962 274.616 123.839C274.648 123.763 274.65 123.739 274.661 123.716C274.663 123.692 274.674 123.661 274.677 123.638C274.693 123.56 274.671 123.469 274.605 123.406C274.539 123.351 274.48 123.305 274.205 123.26C273.718 123.177 273.105 123.224 272.535 123.324C271.48 123.477 270.33 124.219 269.119 124.715C268.046 125.186 266.941 125.661 265.731 125.909C264.958 126.043 264.098 126.161 263.259 125.849C263.049 125.794 262.862 125.679 262.674 125.563C262.486 125.447 262.289 125.347 262.155 125.18C261.817 124.897 261.714 124.431 261.543 124.085C261.36 123.618 261.466 123.669 261.863 123.847C262.081 123.91 262.292 124.108 262.722 124.041C262.916 124.022 263.019 124.104 263.178 124.121C263.328 124.137 263.47 124.152 263.6 124.206C264.105 124.275 264.631 124.362 265.25 124.259C265.86 124.156 266.505 123.952 267.146 123.716C267.797 123.456 268.45 123.174 269.115 122.86C269.802 122.557 270.451 122.241 271.304 121.963C271.824 121.802 272.311 121.734 272.814 121.667C273.316 121.608 273.831 121.574 274.399 121.642C274.939 121.683 275.858 121.987 276.192 122.686C276.553 123.356 276.319 124.29 276.098 124.715C275.56 125.873 274.652 126.609 273.772 127.22C272.877 127.821 271.932 128.289 270.985 128.709C270.406 128.968 269.821 129.202 269.245 129.437L268.408 129.797L268.029 129.981C267.935 130.035 267.84 130.097 267.769 130.169C267.519 130.415 267.221 130.815 266.95 131.186C266.67 131.564 266.382 131.95 266.079 132.325C265.479 133.086 264.825 133.824 264.078 134.465C263.504 134.98 262.859 135.416 262.163 135.798C261.449 136.131 260.676 136.409 259.854 136.466C259.5 136.485 259.141 136.559 258.788 136.49C258.456 136.455 258.182 136.402 257.955 136.354C257.74 136.276 257.584 136.163 257.449 136.077C257.188 135.898 257.091 135.68 257.046 135.427C257.025 135.321 256.98 135.212 256.981 135.132C256.958 134.89 257.57 134.627 258.338 134.7C259.479 134.788 260.544 134.62 261.517 134.115C262.49 133.602 263.375 132.792 264.179 131.837C264.791 131.118 265.328 130.344 265.988 129.47L266.281 129.117C266.356 129.013 266.558 128.834 266.7 128.705C266.85 128.569 267.044 128.47 267.198 128.374L267.603 128.177C268.114 127.951 268.573 127.767 269.042 127.569L269.062 127.611L269.077 127.613Z" fill="black"/>
<path d="M240.862 151.693L243.896 148.775C244.262 148.414 244.591 148.025 244.964 147.673C246.285 146.437 247.606 145.201 248.928 143.965C249.528 143.429 250.1 142.857 250.663 142.293C251.021 141.931 251.417 141.589 251.804 141.254L252.102 141.006L252.443 140.802C252.672 140.674 252.894 140.545 253.132 140.411C253.42 140.257 253.428 140.33 253.341 140.625C253.279 140.834 253.224 141.052 253.164 141.246C253.116 141.392 253.078 141.524 253.04 141.656C253.017 141.726 252.986 141.794 252.97 141.873L252.847 142.052C252.531 142.466 252.223 142.889 251.893 143.286C251.549 143.674 251.197 144.052 250.838 144.422C250.142 145.188 249.372 145.891 248.566 146.565C247.609 147.376 246.775 148.391 245.879 149.304L242.899 152.316L241.065 154.169C240.142 155.111 239.183 156.025 238.298 156.988C237.604 157.73 237.006 158.546 236.343 159.308C236.189 159.476 236.059 159.646 235.898 159.805C235.301 160.389 235.013 160.471 234.557 160.247C234.45 160.196 234.343 160.152 234.245 160.094C233.939 159.886 233.964 159.425 234.306 158.909C235.277 157.357 236.592 156.032 237.881 154.649C238.844 153.623 239.859 152.643 240.852 151.636L240.889 151.664L240.862 151.693Z" fill="black"/>
<path d="M200.66 188.918C203.485 186.762 206.442 184.651 209.501 182.775C210.613 182.092 211.704 181.368 212.836 180.72C216.841 178.439 221.016 176.457 225.309 174.783C227.217 174.048 229.14 173.332 231.069 172.695C232.304 172.282 233.559 171.91 234.838 171.605L236.721 171.18C237.041 171.102 237.375 171.049 237.729 171.031C238.081 171.02 238.453 170.987 238.825 171.098C239.28 171.258 239.421 171.433 239.391 171.494C239.359 171.57 239.125 171.585 238.789 171.742C238.46 171.907 238.069 172.122 237.595 172.448C237.14 172.743 236.405 173.05 235.729 173.242C233.245 173.972 230.774 174.743 228.338 175.629C225.894 176.515 223.487 177.509 221.073 178.566C218.19 179.829 215.372 181.538 212.6 183.181C209.546 185.01 206.6 186.938 203.759 189.093C202.005 190.411 200.272 191.763 198.531 193.115C195.884 195.163 193.157 197.146 190.337 198.951C188.144 200.343 185.961 201.704 183.579 202.764C183.065 203.022 182.54 203.222 182.005 203.438C181.011 203.845 180.315 204.003 179.808 204.03C179.301 204.064 178.983 203.975 178.699 203.785C178.564 203.699 178.405 203.618 178.32 203.513C178.027 203.178 178.753 202.591 180.124 202.024C182.16 201.135 184.21 200.192 186.216 199.061C188.214 197.928 190.185 196.673 192.119 195.317C194.986 193.293 197.785 191.086 200.624 188.875L200.66 188.91L200.66 188.918Z" fill="black"/>
<rect x="296.117" y="36.2875" width="109.815" height="101.468" fill="white" stroke="#E5E5E5" stroke-width="0.79348"/>
<path d="M378.823 128.198L380.646 120.968L382.24 120.968L384.072 128.198L382.805 128.198L382.409 126.445L380.487 126.445L380.091 128.198L378.823 128.198ZM380.715 125.435L382.181 125.435L381.745 123.494C381.672 123.17 381.61 122.88 381.557 122.622C381.504 122.358 381.468 122.166 381.448 122.048C381.428 122.166 381.392 122.358 381.339 122.622C381.293 122.88 381.23 123.167 381.151 123.484L380.715 125.435ZM387.159 128.198L387.159 120.968L389.565 120.968C390.047 120.968 390.467 121.06 390.823 121.245C391.186 121.43 391.467 121.691 391.665 122.028C391.863 122.358 391.962 122.747 391.962 123.196C391.962 123.639 391.86 124.028 391.655 124.365C391.457 124.702 391.18 124.963 390.823 125.148C390.467 125.332 390.047 125.425 389.565 125.425L388.397 125.425L388.397 128.198L387.159 128.198ZM388.397 124.306L389.565 124.306C389.909 124.306 390.183 124.207 390.387 124.009C390.599 123.804 390.704 123.533 390.704 123.196C390.704 122.853 390.599 122.582 390.387 122.384C390.183 122.186 389.909 122.087 389.565 122.087L388.397 122.087L388.397 124.306ZM395.078 128.198L395.078 120.968L397.485 120.968C397.967 120.968 398.386 121.06 398.743 121.245C399.106 121.43 399.387 121.691 399.585 122.028C399.783 122.358 399.882 122.747 399.882 123.196C399.882 123.639 399.779 124.028 399.575 124.365C399.377 124.702 399.099 124.963 398.743 125.148C398.386 125.332 397.967 125.425 397.485 125.425L396.316 125.425L396.316 128.198L395.078 128.198ZM396.316 124.306L397.485 124.306C397.828 124.306 398.102 124.207 398.307 124.009C398.518 123.804 398.624 123.533 398.624 123.196C398.624 122.853 398.518 122.582 398.307 122.384C398.102 122.186 397.828 122.087 397.485 122.087L396.316 122.087L396.316 124.306Z" fill="black"/>
<rect x="301.255" y="41.4814" width="98.3371" height="72.2501" fill="#FFEAEB" stroke="#E5E5E5" stroke-width="0.79348"/>
<path d="M332.797 98.4552C335.781 97.0747 338.748 95.6206 341.693 94.1481L344.906 92.488C348.717 90.6111 352.516 88.7009 356.289 86.7399C357.963 85.8691 359.612 84.9396 361.258 84.0417C362.311 83.4571 363.356 82.8637 364.409 82.2791C365.469 81.7033 366.529 81.1274 367.737 80.8229C368.492 80.6307 368.4 80.6769 367.975 81.2158C367.755 81.4805 367.493 81.9245 367.097 82.3385C366.899 82.5495 366.699 82.7842 366.453 82.9901C366.2 83.1874 365.932 83.3829 365.634 83.5594C363.526 84.8242 361.425 86.0979 359.269 87.2858C357.107 88.4571 354.909 89.5925 352.684 90.6772C350.013 91.9708 347.354 93.5373 344.664 94.9407C341.71 96.4923 338.71 97.951 335.703 99.4089C333.843 100.292 331.977 101.159 330.096 102.008C329.391 102.333 328.656 102.624 327.936 102.932C327.577 103.086 327.217 103.24 326.843 103.368L325.669 103.812C325.133 104.043 324.683 104.068 324.22 104.139L323.529 104.242C323.418 104.238 323.289 104.321 323.2 104.255C323.137 104.169 323.115 104.079 323.084 103.987C322.963 103.623 322.937 103.109 322.996 102.555L323.125 101.098C323.336 98.7215 323.39 96.3848 323.281 94.0789C323.254 93.5724 323.194 93.0863 323.151 92.5861C322.921 90.7471 322.942 90.2377 323.209 89.6822C323.269 89.5607 323.293 89.4113 323.343 89.3206C323.423 89.1691 323.615 89.2374 323.928 89.5341C324.241 89.823 324.55 90.3831 324.791 91.1281C325.357 93.3462 325.423 95.5997 325.378 97.8494C325.348 98.9735 325.285 100.102 325.199 101.22L325.155 101.639L325.152 101.743L326.026 101.411C326.775 101.131 327.532 100.779 328.284 100.466C329.785 99.8008 331.296 99.1205 332.788 98.3903L332.816 98.4332L332.797 98.4552Z" fill="black"/>
<path d="M315.648 90.8837C315.668 90.3182 316.375 92.7831 317.701 93.0267C320.226 93.4926 360.902 81.965 362.403 80.6202C362.915 80.1545 362.764 80.6822 362.941 80.2852C363.327 79.4305 340.686 85.5033 335.34 86.6988C329.993 87.8943 315.648 90.8837 315.648 90.8837Z" fill="black"/>
<path d="M325.856 87.4986C329.911 86.7188 333.963 85.8985 337.996 85.0283C339.468 84.7197 340.925 84.3215 342.397 84.005C347.58 82.8482 352.769 81.7001 357.894 80.3294C360.177 79.7545 362.429 79.0244 364.666 78.3488C366.084 77.8666 367.509 77.3931 368.947 76.9451C369.672 76.7416 370.359 76.4462 371.097 76.2682C371.829 76.0814 372.566 75.9113 373.308 75.7736C374.246 75.6006 374.141 75.6855 373.481 76.1835C373.151 76.4286 372.694 76.8202 372.107 77.23C371.814 77.431 371.509 77.6707 371.153 77.865C370.798 78.0514 370.411 78.2266 370.011 78.3842C368.557 78.9026 367.115 79.4701 365.642 79.9386C364.171 80.3991 362.686 80.8342 361.201 81.2694C358.226 82.1072 355.233 82.8951 352.197 83.5665C348.575 84.4001 344.847 85.4143 341.152 86.2642C337.087 87.203 332.999 88.0674 328.912 88.916C326.397 89.4184 323.873 89.928 321.358 90.4304L316.821 91.3035L314.52 91.7406C313.477 91.9266 312.434 92.1204 311.399 92.3071C311.025 92.2838 310.643 92.2675 310.27 92.2442C310.104 92.2267 309.985 92.2142 309.829 92.1817C309.732 92.1155 309.761 91.9907 309.769 91.9195C309.777 91.8405 309.809 91.7639 309.833 91.6865C309.935 91.4014 310.062 91.111 310.273 90.7735C310.485 90.436 310.805 90.054 311.149 89.6666C311.494 89.2792 311.862 88.8943 312.24 88.4944L313.125 87.6043C314.179 86.5562 315.247 85.5255 316.337 84.5131C316.816 84.0678 317.279 83.6209 317.772 83.1853C319.606 81.5637 320.333 81.1926 321.005 81.1835C321.157 81.1835 321.336 81.1544 321.445 81.1818C321.631 81.2335 321.561 81.4499 321.312 81.8314C321.064 82.213 320.63 82.7669 320.004 83.3965C318.36 85.1179 316.681 86.8677 314.974 88.6466L314.344 89.3157L314.029 89.6502C313.957 89.7227 314.003 89.6715 313.992 89.6944L313.987 89.7418C313.986 89.7576 314.028 89.7381 314.028 89.7381C314.061 89.7256 314.118 89.7156 314.167 89.7048C316.003 89.3546 317.839 89.0043 319.682 88.655L325.813 87.4462L325.832 87.4961L325.856 87.4986Z" fill="black"/>
<path d="M341.987 77.7102L349.626 76.9881L352.41 76.6659L362.254 75.7363C363.709 75.5858 365.166 75.4116 366.608 75.2278C368.457 74.9829 370.32 74.7554 372.199 74.8255C372.788 74.8476 372.723 75.0087 372.261 75.2958C372.031 75.4393 371.7 75.6203 371.296 75.8096C370.893 75.991 370.415 76.1325 369.885 76.2286C368.022 76.6079 366.133 76.7767 364.245 77.0254C362.358 77.2503 360.458 77.4499 358.547 77.6082C356.264 77.7994 353.911 78.207 351.577 78.5048C349.017 78.8266 346.45 79.1318 343.88 79.3967L339.136 79.8881C336.743 80.1396 334.332 80.3333 331.954 80.5944C330.103 80.7832 328.303 81.0972 326.469 81.2876C326.064 81.333 325.674 81.3958 325.264 81.4165C323.756 81.5375 323.263 81.3656 322.907 80.9444C322.829 80.8482 322.728 80.7496 322.675 80.6481C322.509 80.3189 323.105 79.9739 324.194 79.7368C325.813 79.4677 327.469 79.1545 329.158 78.9807C330.85 78.7832 332.562 78.6199 334.283 78.4415C336.837 78.1829 339.406 77.9339 341.975 77.6769L341.986 77.7261L341.987 77.7102Z" fill="black"/>
<path d="M303.872 167.375C308.56 166.965 313.184 166.557 317.641 165.46C322.074 164.36 326.361 162.597 329.836 159.741C332.376 157.707 334.257 154.955 335.499 151.968C336.6 149.334 337.044 146.414 336.611 143.619C336.187 140.816 334.731 138.24 332.662 136.175C330.612 134.088 328.094 132.416 325.497 130.887C322.937 129.307 320.191 128.058 317.476 126.653C315.072 125.424 312.666 124.131 310.394 122.621C308.131 121.111 305.931 119.376 304.371 117.037C303.359 115.564 302.773 113.687 302.945 111.834C303.155 109.986 304.034 108.32 305.124 106.932C306.208 105.519 307.585 104.361 309.045 103.403C310.505 102.446 312.059 101.658 313.615 100.927C315.565 100.029 315.37 100.288 313.827 101.269C313.064 101.764 311.969 102.44 310.708 103.331C309.455 104.222 308.059 105.33 306.83 106.752C305.769 108.023 304.872 109.471 304.514 110.977C304.14 112.48 304.351 114.037 305.1 115.427C305.824 116.831 306.965 118.062 308.241 119.156C309.516 120.258 310.925 121.23 312.388 122.135C315.324 123.94 318.473 125.463 321.634 127.027C323.208 127.8 324.835 128.667 326.338 129.577C327.866 130.481 329.396 131.434 330.867 132.5C332.611 133.779 334.31 135.254 335.686 137.069C337.089 138.856 338.057 141.045 338.506 143.307C338.962 145.585 338.834 147.938 338.342 150.181C337.842 152.422 336.968 154.569 335.742 156.494C334.409 158.6 332.688 160.514 330.715 162.017C328.762 163.554 326.601 164.789 324.356 165.768C319.847 167.739 315.043 168.72 310.272 169.304C304.395 169.996 298.529 170.13 292.803 170.981C284.138 172.187 275.801 175.738 268.909 181.055C263.521 185.156 259.165 190.302 255.736 195.984C255.04 197.278 254.289 198.494 253.691 199.846C253.09 201.07 252.583 202.088 252.242 202.971C251.87 203.843 251.541 204.544 251.265 205.115C250.781 206.287 250.386 206.925 249.935 207.413C249.728 207.631 249.496 207.942 249.332 208.053C249.048 208.247 248.993 207.785 249.148 206.762C249.226 206.251 249.367 205.602 249.552 204.83C249.737 204.058 250.075 203.199 250.426 202.22C252.557 196.417 256.011 190.945 260.279 186.102C262.456 183.725 264.801 181.43 267.408 179.45C268.67 178.4 270.05 177.514 271.404 176.577C272.077 176.105 272.805 175.726 273.506 175.288C274.221 174.876 274.908 174.428 275.657 174.075C279.984 171.781 284.662 170.1 289.477 169.088C294.291 168.092 299.124 167.746 303.854 167.317L303.871 167.383L303.872 167.375Z" fill="black"/>
<path d="M378.583 66.5839C378.565 66.7579 378.355 66.7757 378.034 66.7179C377.931 66.707 377.676 66.5443 377.667 66.4794C377.64 66.3566 377.621 66.2347 377.617 66.1144C377.609 66.0416 377.966 65.1598 378.086 64.8527C378.198 64.5526 378.361 64.2901 378.524 64.0354C378.881 63.5294 379.201 62.9955 379.61 62.5269C379.693 62.4237 379.799 62.331 379.919 62.2556C380.323 61.9864 380.638 61.6519 380.933 61.2832C380.979 61.2241 381.048 61.1754 381.051 61.0718C381.052 60.9041 381.957 59.9841 382.115 59.9208C382.517 59.7473 382.89 59.5468 383.277 59.3637C383.336 59.3379 383.366 59.2772 383.46 59.303C383.669 59.365 383.751 59.2697 383.862 59.2015C384.015 59.1137 384.19 59.0521 384.378 59.008C384.476 58.9943 384.6 59.0313 384.718 59.0438C384.821 59.0547 384.904 59.2552 384.9 59.2948C384.881 59.3967 384.987 59.4479 385.044 59.5179C385.065 59.5441 385.086 59.5703 385.1 59.5957C385.11 59.6448 384.716 60.6585 384.631 60.7055C384.631 60.7055 384.567 60.7788 384.477 60.8732C384.387 60.9756 384.27 61.0992 384.15 61.2465C383.921 61.5261 383.682 61.8207 383.627 61.8869C383.58 61.9539 383.49 61.9763 383.407 62.0075C383.365 62.0192 382.675 62.8818 382.639 62.918C382.456 63.0587 382.346 63.2709 382.077 63.3225C382.02 63.3324 382 63.3703 381.964 63.4065C381.708 63.7074 381.395 63.9541 381.095 64.2183C380.945 64.3544 380.817 64.5088 380.673 64.6536C380.646 64.6827 380.605 64.6944 380.572 64.7068C380.529 64.7343 380.479 64.753 380.452 64.7822C380.134 65.1404 379.759 65.4446 379.5 65.8491C379.443 65.939 378.986 66.2506 378.934 66.3651C378.904 66.4258 378.577 66.4874 378.577 66.5673L378.583 66.5839Z" fill="black"/>
<path d="M382.594 72.1468C382.446 72.1872 382.359 72.0261 382.308 71.7568C382.293 71.6674 382.343 71.4248 382.394 71.3981C382.479 71.3432 382.558 71.2795 382.641 71.2483C382.682 71.2367 383.41 71.1614 383.655 71.1074C383.9 71.0612 384.133 71.0537 384.364 71.0542C384.844 71.0567 385.326 71.0355 385.807 71.0223C385.911 71.0173 386.022 71.0289 386.122 71.0635C386.477 71.1888 386.843 71.2034 387.213 71.1785C387.278 71.1772 387.332 71.191 387.395 71.1256C387.493 71.032 388.484 71.0325 388.606 71.0854C388.92 71.2144 389.233 71.2873 389.551 71.3768C389.598 71.3897 389.64 71.3701 389.688 71.4392C389.783 71.6011 389.88 71.5874 389.975 71.5974C390.11 71.6115 390.25 71.6503 390.381 71.696C390.45 71.7194 390.521 71.8068 390.585 71.8775C390.651 71.9404 390.634 72.1705 390.616 72.1925C390.56 72.2666 390.621 72.3769 390.635 72.4664C390.64 72.4988 390.644 72.5392 390.641 72.5629C390.643 72.6191 389.816 73.1076 389.728 73.1063C389.713 73.1047 388.539 73.2448 388.368 73.2668C388.295 73.283 388.227 73.2439 388.157 73.2206C388.11 73.2156 387.169 73.2684 387.137 73.2729C386.941 73.2363 386.744 73.2796 386.553 73.1235C386.516 73.0956 386.475 73.0993 386.436 73.0952C386.1 73.0918 385.766 73.0006 385.431 72.9174C385.26 72.8753 385.092 72.8737 384.919 72.8474C384.887 72.8441 384.858 72.817 384.827 72.8058C384.79 72.7858 384.752 72.7658 384.712 72.7617C384.309 72.7192 383.907 72.5889 383.501 72.5701C383.406 72.5601 382.98 72.3553 382.869 72.3516C382.805 72.3449 382.636 72.1273 382.578 72.153L382.594 72.1468Z" fill="black"/>
<rect x="1" y="0.5" width="584.5" height="239" rx="3.5" stroke="black" stroke-opacity="0.1"/>
</svg>
