<svg width="18" height="18" viewBox="0 0 18 18" fill="none" xmlns="http://www.w3.org/2000/svg">
<g id="discord">
<path id="Vector 16" d="M4.125 12C7.875 13.875 10.125 13.875 13.875 12" stroke="white" stroke-width="1.125" stroke-linecap="round" stroke-linejoin="round"/>
<path id="Vector 18" d="M11.625 13.125L12.375 14.625C12.375 14.625 15.5035 13.6288 16.5 12C16.5 11.25 16.8976 5.89005 14.25 4.125C13.125 3.375 11.25 3 11.25 3L10.5 4.5H9" stroke="white" stroke-width="1.125" stroke-linecap="round" stroke-linejoin="round"/>
<path id="Vector 19" d="M6.39453 13.125L5.64453 14.625C5.64453 14.625 2.51603 13.6288 1.51953 12C1.51953 11.25 1.12196 5.89005 3.76953 4.125C4.89453 3.375 6.76953 3 6.76953 3L7.51953 4.5H9.01953" stroke="white" stroke-width="1.125" stroke-linecap="round" stroke-linejoin="round"/>
<path id="Vector" d="M6.375 10.5C5.75368 10.5 5.25 9.82843 5.25 9C5.25 8.17157 5.75368 7.5 6.375 7.5C6.99632 7.5 7.5 8.17157 7.5 9C7.5 9.82843 6.99632 10.5 6.375 10.5Z" stroke="white" stroke-width="1.125" stroke-linecap="round" stroke-linejoin="round"/>
<path id="Vector_2" d="M11.625 10.5C11.0037 10.5 10.5 9.82843 10.5 9C10.5 8.17157 11.0037 7.5 11.625 7.5C12.2463 7.5 12.75 8.17157 12.75 9C12.75 9.82843 12.2463 10.5 11.625 10.5Z" stroke="white" stroke-width="1.125" stroke-linecap="round" stroke-linejoin="round"/>
</g>
</svg>
