<svg width="19" height="18" viewBox="0 0 19 18" fill="none" xmlns="http://www.w3.org/2000/svg">
<g id="discord">
<path id="Vector 16" d="M4.38672 12C8.13672 13.875 10.3867 13.875 14.1367 12" stroke="black" stroke-width="1.125" stroke-linecap="round" stroke-linejoin="round"/>
<path id="Vector 18" d="M11.8867 13.125L12.6367 14.625C12.6367 14.625 15.7652 13.6288 16.7617 12C16.7617 11.25 17.1593 5.89005 14.5117 4.125C13.3867 3.375 11.5117 3 11.5117 3L10.7617 4.5H9.26172" stroke="black" stroke-width="1.125" stroke-linecap="round" stroke-linejoin="round"/>
<path id="Vector 19" d="M6.65625 13.125L5.90625 14.625C5.90625 14.625 2.77775 13.6288 1.78125 12C1.78125 11.25 1.38368 5.89005 4.03125 4.125C5.15625 3.375 7.03125 3 7.03125 3L7.78125 4.5H9.28125" stroke="black" stroke-width="1.125" stroke-linecap="round" stroke-linejoin="round"/>
<path id="Vector" d="M6.63672 10.5C6.0154 10.5 5.51172 9.82843 5.51172 9C5.51172 8.17157 6.0154 7.5 6.63672 7.5C7.25804 7.5 7.76172 8.17157 7.76172 9C7.76172 9.82843 7.25804 10.5 6.63672 10.5Z" stroke="black" stroke-width="1.125" stroke-linecap="round" stroke-linejoin="round"/>
<path id="Vector_2" d="M11.8867 10.5C11.2654 10.5 10.7617 9.82843 10.7617 9C10.7617 8.17157 11.2654 7.5 11.8867 7.5C12.508 7.5 13.0117 8.17157 13.0117 9C13.0117 9.82843 12.508 10.5 11.8867 10.5Z" stroke="black" stroke-width="1.125" stroke-linecap="round" stroke-linejoin="round"/>
</g>
</svg>
