<svg width="586" height="211" viewBox="0 0 586 211" fill="none" xmlns="http://www.w3.org/2000/svg">
<rect x="0.5" y="0.193115" width="585.5" height="210" rx="4" fill="white"/>
<path d="M296.389 98.6186L291.35 99.4753L289.516 99.8381L283.006 100.997L280.133 101.572C278.907 101.883 277.656 102.085 276.394 102.176C275.971 102.176 276.052 101.944 276.394 101.672C276.836 101.316 277.359 101.074 277.916 100.967C280.385 100.453 282.885 99.959 285.424 99.566C286.936 99.3342 288.448 98.9613 290.04 98.669L295.079 97.7419L298.224 97.1976L303.001 96.4418C304.23 96.2604 305.419 95.9883 306.659 95.8371L307.465 95.7161C308.473 95.6355 308.826 95.7161 309.048 96.0185C309.105 96.0841 309.155 96.155 309.199 96.2301C309.289 96.472 308.886 96.6937 308.191 96.7844L301.509 97.7922L296.47 98.6287L296.389 98.6186Z" fill="#231F20"/>
<path d="M252.459 117.241C254.414 118.236 256.379 119.213 258.354 120.174L260.541 121.182L268.191 124.86C269.319 125.405 270.478 125.929 271.607 126.443C273.108 127.051 274.543 127.811 275.89 128.71C276.314 129.003 276.132 129.134 275.659 129.113C275.353 129.093 275.049 129.046 274.751 128.972C274.341 128.898 273.942 128.772 273.562 128.599C270.619 127.259 267.586 126.04 264.653 124.568C262.89 123.691 260.985 122.915 259.151 122.089C257.135 121.162 255.119 120.218 253.104 119.257L249.435 117.413C247.581 116.506 245.737 115.528 243.902 114.601C242.491 113.855 241.05 113.21 239.649 112.454C239.33 112.31 239.02 112.145 238.722 111.96C237.614 111.245 237.341 110.902 237.331 110.429C237.317 110.322 237.317 110.213 237.331 110.106C237.331 109.814 237.986 109.864 238.843 110.257C241.373 111.436 243.882 112.867 246.573 114.198C248.528 115.206 250.493 116.213 252.479 117.221L252.459 117.241Z" fill="#231F20"/>
<path d="M275.648 110.913L275.356 113.937C275.356 114.309 275.356 114.682 275.295 115.065L274.932 119.016C274.932 119.6 274.872 120.185 274.862 120.77C274.885 121.517 274.848 122.265 274.751 123.007C274.68 123.47 273.743 122.876 273.693 121.999C273.632 120.464 273.703 118.927 273.904 117.403C274.035 116.486 274.005 115.529 274.056 114.582L274.257 111.478L274.398 109.623C274.459 108.615 274.549 107.688 274.569 106.731C274.569 105.985 274.569 105.249 274.569 104.514C274.569 104.352 274.569 104.191 274.569 104.02C274.567 103.8 274.605 103.581 274.68 103.375C274.714 103.31 274.762 103.255 274.821 103.213C274.846 103.164 274.881 103.121 274.925 103.088C274.968 103.055 275.019 103.032 275.073 103.022C275.106 103.015 275.14 103.018 275.17 103.03C275.201 103.043 275.227 103.065 275.245 103.093C275.184 102.972 275.245 103.183 275.245 103.093C275.266 103.16 275.296 103.225 275.335 103.284C275.36 103.321 275.397 103.348 275.439 103.361C275.481 103.373 275.526 103.371 275.567 103.355C275.648 103.264 275.668 103.355 275.698 103.445C275.732 103.54 275.756 103.638 275.769 103.738C275.929 105.099 275.973 106.471 275.9 107.839C275.9 108.847 275.799 109.905 275.728 110.943L275.648 110.913Z" fill="#231F20"/>
<path d="M255.916 104.504C255.916 105.451 255.895 106.399 255.855 107.346V108.354L255.795 112.032C255.795 112.577 255.795 113.121 255.795 113.665C255.87 114.374 255.839 115.091 255.704 115.791C255.654 116.013 255.402 115.943 255.18 115.731C255.045 115.619 254.935 115.481 254.855 115.325C254.775 115.169 254.728 114.999 254.716 114.824C254.716 113.453 254.626 112.042 254.716 110.611C254.777 109.765 254.716 108.878 254.666 108.001C254.616 107.124 254.666 106.076 254.666 105.119V103.345L254.757 100.654C254.757 99.9587 254.757 99.2734 254.757 98.578C254.747 98.427 254.747 98.2755 254.757 98.1245C254.817 97.5601 254.918 97.3888 255.2 97.3082L255.392 97.2477C255.603 97.2477 255.754 97.4694 255.795 97.8826C255.896 99.1262 255.926 100.375 255.885 101.622L255.835 104.474L255.916 104.504Z" fill="#231F20"/>
<path d="M282.219 71.419C282.914 71.2064 283.621 71.0315 284.335 70.8949C284.597 70.8345 284.839 70.7337 285.101 70.6934C286.018 70.5422 286.956 70.4716 287.873 70.3608C288.286 70.3104 288.689 70.2298 289.092 70.1693C289.615 70.0869 290.145 70.0498 290.674 70.0584C290.816 70.0584 290.846 70.0584 290.674 70.0584C290.533 70.0584 290.342 70.3305 290.08 70.4918C289.187 71.1013 288.184 71.5325 287.127 71.7616C286.502 71.8725 285.897 72.1547 285.262 72.3159C284.628 72.4772 283.882 72.6586 283.186 72.8198C282.763 72.9206 282.33 73.0214 281.927 73.1423C281.672 73.195 281.43 73.2941 281.211 73.4346C281.03 73.6284 280.916 73.8761 280.889 74.1401C280.808 74.6037 280.889 75.1479 280.818 75.6216V75.9642C280.794 76.1898 280.736 76.4106 280.647 76.6193C280.647 76.6193 280.647 76.6697 280.647 76.6798C280.636 76.5299 280.598 76.3831 280.536 76.2464C280.294 75.3495 279.528 74.5331 279.961 73.0416C280.071 72.7417 280.251 72.4723 280.485 72.2555C280.684 72.0754 280.908 71.9259 281.151 71.812C281.501 71.6407 281.861 71.4893 282.229 71.3585L282.219 71.419Z" fill="#231F20"/>
<path d="M272.836 84.7323H272.756H272.463L271.758 84.6819C271.573 84.6926 271.388 84.6926 271.204 84.6819C270.528 84.6819 269.803 84.4904 269.087 84.44C268.765 84.44 268.452 84.44 268.14 84.44C267.702 84.4606 267.265 84.3991 266.85 84.2586C266.729 84.1981 266.749 84.2586 266.85 84.1981C266.951 84.1377 267.102 83.8857 267.283 83.7144C267.55 83.3799 267.88 83.1023 268.256 82.898C268.632 82.6937 269.045 82.5669 269.47 82.5252C269.966 82.4455 270.458 82.3379 270.942 82.2027C271.55 82.1228 272.167 82.1228 272.776 82.2027C273.325 82.257 273.837 82.5074 274.217 82.9081C274.601 83.4332 274.819 84.0617 274.842 84.7121C274.923 85.0995 274.95 85.4964 274.922 85.8913C274.922 85.982 274.922 86.0626 274.922 86.1533C274.922 86.4657 274.791 86.6068 274.802 86.6773C274.714 86.5793 274.616 86.4914 274.509 86.4153C274.237 86.123 273.915 85.8006 273.612 85.5083C273.31 85.216 273.078 84.9439 272.907 84.7625C272.854 84.7045 272.789 84.6597 272.715 84.6315H272.655C272.655 84.6315 272.655 84.6315 272.705 84.6315C272.769 84.5857 272.827 84.5314 272.877 84.4702C272.901 84.4433 272.922 84.4127 272.937 84.3795C272.937 84.4501 273.139 83.7648 273.048 84.057V84.1175L272.977 84.3191C272.94 84.4614 272.913 84.6062 272.897 84.7524L272.836 84.7323Z" fill="#231F20"/>
<path d="M241.716 139.516C244.679 141.38 247.652 143.235 250.655 145.049C251.744 145.714 252.882 146.309 253.971 146.974L265.51 154.029C267.224 155.036 268.977 156.044 270.711 157.052C272.938 158.292 275.155 159.582 277.261 161.083C277.916 161.547 277.675 161.748 276.919 161.708C275.754 161.598 274.618 161.284 273.563 160.781C271.184 159.682 268.907 158.433 266.629 157.153C264.351 155.873 262.094 154.563 259.856 153.121C257.186 151.469 254.293 149.947 251.512 148.324C248.461 146.537 245.438 144.726 242.441 142.892C240.577 141.763 238.723 140.625 236.868 139.456C236.173 139.022 235.477 138.569 234.782 138.105C234.429 137.883 234.087 137.641 233.774 137.4C233.583 137.248 233.29 137.077 233.089 136.896L232.918 136.755C232.893 136.685 232.873 136.615 232.857 136.543C232.811 136.404 232.774 136.263 232.746 136.12C232.657 135.653 232.593 135.182 232.555 134.709L232.454 133.459L232.273 130.99C232.081 128.45 231.779 125.951 231.638 123.451C231.638 122.897 231.557 122.353 231.537 121.789C231.483 121.048 231.541 120.304 231.708 119.581C231.821 119.197 232.033 118.85 232.323 118.574C232.413 118.466 232.515 118.368 232.625 118.281C232.787 118.181 232.928 118.342 233.119 118.715C233.396 119.244 233.581 119.816 233.663 120.408C234.006 122.635 234.288 124.923 234.51 127.241C234.732 129.559 234.853 131.927 235.074 134.225L235.185 135.233C235.84 135.706 236.616 136.17 237.332 136.644L241.806 139.425L241.716 139.516Z" fill="#231F20"/>
<path d="M278.049 147.607V151.114C278.049 151.547 278.109 151.97 278.109 152.394L278.049 156.929C278.049 157.604 278.049 158.269 278.129 158.944C278.27 159.812 278.27 160.697 278.129 161.565C278.069 161.847 277.666 161.766 277.273 161.565C277.061 161.455 276.876 161.301 276.73 161.113C276.584 160.925 276.48 160.708 276.426 160.476C276.22 158.758 276.156 157.025 276.234 155.296C276.256 154.223 276.212 153.149 276.103 152.081L276.013 148.534V146.347C276.013 145.248 276.013 144.13 276.013 143.041C276.013 142.184 275.831 141.348 275.821 140.481C275.821 140.29 275.821 140.108 275.821 139.917C275.821 139.201 276.033 138.909 276.476 138.909C276.575 138.879 276.676 138.859 276.779 138.849C277.121 138.849 277.383 139.141 277.474 139.615C277.635 140.33 277.807 141.076 277.907 141.842C278.008 142.608 278.059 143.384 278.119 144.16L278.22 145.913V147.677L278.049 147.607Z" fill="#231F20"/>
<path d="M341.226 147.748L326.109 151.527C324.275 151.98 322.461 152.535 320.627 152.938L301.156 157.473L292.539 159.559C288.899 160.555 285.195 161.299 281.453 161.786C280.233 161.857 280.445 161.494 281.302 160.95C282.753 160.083 284.331 159.447 285.978 159.065C293.406 157.191 300.863 155.367 308.432 153.694C312.957 152.686 317.593 151.366 322.189 150.176L337.306 146.306C340.42 145.5 343.524 144.694 346.608 143.837L348.472 143.303L348.997 143.152C349.057 143.152 349.218 143.152 349.188 143.021V142.759C349.188 139.282 349.188 135.805 349.188 132.358C349.188 128.599 349.037 124.921 349.067 121.192C349.067 120.365 349.067 119.559 349.067 118.733C349.228 115.709 349.541 114.701 350.246 114.087C350.39 113.941 350.552 113.815 350.73 113.714C351.254 113.492 351.486 114.722 351.506 116.949C351.597 123.52 351.617 130.494 351.617 137.498C351.617 139.514 351.617 141.56 351.617 143.636L351.445 144.15L351.355 144.402V144.523V144.593C351.536 144.724 351.103 144.412 351.143 144.452L350.871 144.875C350.8 145.037 350.569 145.097 350.428 145.208C350.057 145.364 349.677 145.496 349.289 145.601L348.664 145.782L346.205 146.458L341.297 147.778L341.226 147.748Z" fill="#231F20"/>
<path d="M321.151 119.097L309.793 121.546L305.641 122.553L291.068 125.768C288.921 126.252 286.755 126.776 284.638 127.33C281.897 127.985 279.166 128.731 276.384 129.195C275.528 129.356 275.598 129.195 276.263 128.852C276.586 128.651 277.07 128.379 277.654 128.086C278.295 127.729 278.97 127.439 279.67 127.22L283.802 125.94C285.182 125.526 286.583 125.164 287.974 124.801C290.769 124.055 293.584 123.383 296.42 122.785C299.826 122.07 303.303 121.102 306.76 120.276L318.168 117.615L325.223 115.993C328.77 115.176 332.348 114.39 335.855 113.533C338.586 112.878 341.237 112.112 343.918 111.417C344.512 111.256 345.087 111.084 345.691 110.943C346.484 110.736 347.302 110.645 348.12 110.671C348.533 110.671 348.938 110.786 349.289 111.004C349.425 111.079 349.553 111.167 349.672 111.266C349.955 111.548 349.118 112.092 347.546 112.727C342.809 114.239 337.73 115.428 332.61 116.587L321.171 119.147L321.151 119.097Z" fill="#231F20"/>
<path d="M249.788 116.751C251.804 117.792 253.856 118.8 255.946 119.774L258.223 120.782L266.215 124.601C267.405 125.166 268.604 125.7 269.793 126.234C271.371 126.856 272.875 127.65 274.278 128.602C274.711 128.915 274.5 129.076 273.986 129.086C273.648 129.083 273.311 129.052 272.978 128.995C272.543 128.939 272.119 128.82 271.718 128.643C268.695 127.272 265.47 126.032 262.406 124.46C260.572 123.533 258.566 122.767 256.651 121.9C254.545 120.953 252.439 119.976 250.352 118.978L246.492 117.113C244.557 116.166 242.633 115.098 240.718 114.171C239.236 113.394 237.694 112.739 236.263 111.923C235.941 111.752 235.608 111.591 235.255 111.389C234.117 110.593 233.855 110.19 233.905 109.656C233.894 109.535 233.894 109.413 233.905 109.293C234.006 108.95 234.661 109 235.527 109.424C238.128 110.673 240.778 112.155 243.53 113.546C245.545 114.553 247.621 115.652 249.687 116.67L249.788 116.751Z" fill="#231F20"/>
<path d="M336.783 101.542C336.783 102.549 336.783 103.618 336.783 104.666C336.783 105.039 336.864 105.412 336.874 105.795C336.874 107.145 336.874 108.486 336.874 109.826C336.88 110.422 336.917 111.017 336.985 111.61C337.11 112.371 337.11 113.147 336.985 113.908C336.985 114.149 336.622 114.129 336.269 113.908C335.865 113.717 335.551 113.378 335.392 112.96C335.183 112.217 335.058 111.453 335.019 110.683C334.954 109.908 334.954 109.129 335.019 108.354C335.025 107.4 334.961 106.447 334.828 105.502L334.626 102.398L334.556 100.453C334.556 99.4454 334.556 98.488 334.445 97.5104C334.384 96.7546 334.193 96.0189 334.102 95.263C334.092 95.0985 334.092 94.9337 334.102 94.7692C334.09 94.6351 334.09 94.5001 334.102 94.3661C334.148 94.2696 334.21 94.1812 334.284 94.104C334.411 93.9641 334.575 93.8628 334.757 93.8118L335.009 93.7211C335.271 93.6606 335.563 93.9125 335.876 94.3459C335.997 94.6785 336.128 95.001 336.239 95.3537C336.35 95.7064 336.36 96.0189 336.42 96.3615C336.521 97.0368 336.581 97.7322 336.642 98.3772C336.722 99.385 336.783 100.453 336.823 101.491L336.783 101.542Z" fill="#231F20"/>
<path d="M303.183 99.2253C299.152 99.9308 295.121 100.626 291.089 101.372L286.716 102.279C284.156 102.793 281.566 103.287 279.076 103.942L278.139 104.174L277.343 104.436L277.151 104.496H277.051C277.051 104.496 277.051 104.557 277.051 104.587V104.788V105.141L276.849 109.072C276.738 111.4 276.678 113.748 276.637 116.056C276.637 119.079 276.637 122.022 276.365 124.985C276.234 126.829 274.662 124.471 274.632 121.024C274.632 118.001 274.632 114.977 274.743 111.904C274.743 110.382 274.854 108.88 274.934 107.338L275.075 105.04V104.708C275.089 104.544 275.13 104.384 275.196 104.234C275.269 103.945 275.374 103.664 275.509 103.398L275.408 103.277L275.488 103.206L275.66 103.065C275.772 102.955 275.911 102.875 276.063 102.833L276.899 102.551C278.754 102.007 280.568 101.543 282.412 101.14C284.256 100.737 286.101 100.263 287.935 99.8905C291.966 99.054 295.997 98.2981 300.089 97.5423L307.567 96.1716C311.346 95.4662 315.146 94.7909 318.865 93.9948C321.757 93.38 324.569 92.6342 327.391 91.9187L329.245 91.4148C331.573 90.8504 332.269 90.7395 332.964 91.1426C333.119 91.2114 333.265 91.2995 333.397 91.4047C333.74 91.7373 332.893 92.3419 331.19 92.9466C325.99 94.6131 320.692 95.9593 315.327 96.9779C311.296 97.7942 307.265 98.5601 303.163 99.3261L303.183 99.2253Z" fill="#231F20"/>
<path d="M284.417 84.0443L294.777 82.3311C296.037 82.1295 297.286 81.8675 298.546 81.676C300.783 81.3434 303.021 81.0411 305.278 80.7891C306.407 80.6883 307.536 80.5775 308.705 80.5573H309.592H310.156C310.367 80.5821 310.576 80.6225 310.781 80.6783C311.315 80.6279 311.335 81.1822 311.496 81.555C311.557 81.7465 311.668 81.9783 311.698 82.1295L311.799 82.5629C312.2 84.5525 312.38 86.5805 312.333 88.6097C312.333 91.1797 312.212 93.7093 312.202 96.2086C312.202 96.9947 311.9 96.9242 311.537 96.2792C311.021 95.2502 310.729 94.1236 310.68 92.9736C310.589 90.3432 310.569 87.7732 310.337 85.3142C310.277 84.7095 310.176 84.1048 310.065 83.5203C310.005 83.228 309.924 82.9357 309.854 82.6536C309.854 82.583 309.854 82.5729 309.854 82.5225H308.846C308.231 82.5225 307.596 82.583 306.951 82.6334C303.928 82.8652 300.693 83.5304 297.548 84.0746L287.168 85.939L280.768 87.098C277.543 87.6926 274.288 88.2469 271.093 88.8617C268.594 89.3354 266.185 89.9501 263.706 90.4036C263.162 90.5145 262.628 90.6254 262.073 90.706C261.347 90.8516 260.605 90.9024 259.866 90.8572C259.484 90.8127 259.128 90.6384 258.858 90.3633C258.733 90.2647 258.621 90.1494 258.526 90.0207C258.294 89.6478 259.07 89.1439 260.541 88.7811C264.855 87.7128 269.461 86.8158 274.107 85.939C277.422 85.2638 280.929 84.5886 284.396 83.9839L284.417 84.0443Z" fill="#231F20"/>
<path d="M257.266 103.747L257.165 107.103C257.165 107.516 257.165 107.919 257.165 108.332L256.984 112.656C256.984 113.301 256.984 113.946 256.984 114.581C257.077 115.416 257.029 116.261 256.843 117.08C256.772 117.352 256.409 117.252 256.057 117C255.867 116.883 255.706 116.726 255.586 116.54C255.466 116.353 255.389 116.142 255.361 115.921C255.296 114.275 255.327 112.626 255.452 110.983C255.506 109.976 255.506 108.967 255.452 107.96V104.573V102.487C255.452 101.479 255.452 100.371 255.452 99.3225C255.452 98.5062 255.311 97.71 255.321 96.8937C255.321 96.7123 255.321 96.5309 255.321 96.3495C255.371 95.6743 255.512 95.4626 255.926 95.3417C256.026 95.3417 256.117 95.3417 256.218 95.2812C256.53 95.2812 256.772 95.5433 256.863 96.0068C257 96.7235 257.101 97.4467 257.165 98.1736C257.165 98.9093 257.236 99.6551 257.246 100.401C257.246 101.52 257.246 102.648 257.246 103.767L257.266 103.747Z" fill="#231F20"/>
<path d="M249.084 95.5952L248.963 100.11C248.963 100.654 248.963 101.199 248.963 101.753L248.751 107.558C248.751 108.415 248.751 109.281 248.751 110.138C248.873 111.253 248.839 112.379 248.65 113.484C248.56 113.837 248.146 113.716 247.753 113.393C247.53 113.223 247.344 113.007 247.209 112.761C247.074 112.514 246.991 112.242 246.967 111.962C246.882 109.738 246.912 107.511 247.058 105.29C247.179 103.94 247.058 102.549 247.058 101.168V96.6232V93.8214C247.058 92.4105 247.058 90.9895 247.058 89.5886C247.058 88.4901 246.897 87.4218 246.887 86.3334C246.887 86.0915 246.887 85.8496 246.887 85.6078C246.887 84.7108 247.108 84.4085 247.572 84.2674C247.676 84.2232 247.784 84.1895 247.895 84.1666C248.247 84.1666 248.519 84.5093 248.61 85.1744C248.751 86.1218 248.922 87.0893 248.973 88.087C249.023 89.0847 249.064 90.1026 249.084 91.1104C249.084 92.6121 249.084 94.1339 249.084 95.6456V95.5952Z" fill="#231F20"/>
<path d="M276.567 77.6663L269.724 78.8051L267.244 79.299L258.436 80.8208C257.136 81.0526 255.836 81.3347 254.556 81.627C252.924 82.0587 251.268 82.3952 249.598 82.6348C248.59 82.7558 249.598 81.1634 251.462 80.6998C254.798 79.8936 258.164 79.168 261.591 78.6338C263.606 78.3315 265.743 77.7973 267.829 77.3942L274.712 76.1042L278.955 75.3383C281.102 74.9553 283.258 74.6126 285.375 74.1894C287.028 73.8669 288.62 73.4335 290.253 73.0707C290.605 72.9901 290.958 72.8893 291.321 72.8187C292.661 72.5668 293.115 72.6373 293.488 73.1412C293.582 73.2514 293.666 73.3695 293.74 73.494C293.931 73.9072 293.437 74.3405 292.48 74.6227C289.513 75.4195 286.506 76.0554 283.47 76.5275L276.577 77.7167L276.567 77.6663Z" fill="#231F20"/>
<path d="M282.198 70.2789L284.809 69.8758C285.131 69.8254 285.433 69.7347 285.756 69.6944L289.102 69.3114C289.606 69.251 290.11 69.1502 290.583 69.0796C291.224 68.9299 291.883 68.8789 292.538 68.9285C292.76 68.9285 292.71 69.2107 292.538 69.4727C292.379 69.7734 292.113 70.0035 291.793 70.1177C290.562 70.4587 289.298 70.6715 288.023 70.7526C287.241 70.8492 286.467 71.0008 285.705 71.2061L283.156 71.7302C282.632 71.841 282.148 71.962 281.614 72.1031L280.898 72.3147C280.814 72.3376 280.732 72.3715 280.656 72.4155C280.576 72.476 280.656 72.5768 280.596 72.6574V73.1008C280.635 73.7237 280.716 74.3432 280.838 74.9552C280.87 75.0811 280.894 75.209 280.908 75.3382C280.908 75.58 280.908 75.7211 280.787 75.832C280.623 75.9393 280.448 76.0272 280.263 76.094L280.001 76.225C279.93 76.2638 279.85 76.2842 279.769 76.2842C279.688 76.2842 279.609 76.2638 279.538 76.225C279.356 76.1343 279.104 75.9731 279.064 75.7514C278.863 75.2272 278.76 74.6702 278.762 74.1086C278.762 73.8466 278.762 73.5745 278.762 73.3024V72.9093V72.6171C278.751 72.4829 278.751 72.3481 278.762 72.2139C278.775 72.0373 278.815 71.8638 278.883 71.7C279.094 71.5992 279.024 71.317 279.225 71.2263C279.387 71.0959 279.563 70.9843 279.749 70.8937C279.961 70.8232 280.163 70.7325 280.374 70.6821L280.757 70.5712C281.211 70.4503 281.654 70.3596 282.098 70.2689L282.198 70.2789Z" fill="#231F20"/>
<path d="M273.915 83.2478C273.059 83.3184 272.182 83.4292 271.305 83.5502C270.983 83.5502 270.67 83.6913 270.297 83.7417C269.168 83.8928 268.03 84.0541 266.901 84.2556C266.397 84.3463 265.893 84.4774 265.419 84.5882C264.789 84.7773 264.14 84.8956 263.484 84.941C263.273 84.941 263.263 84.689 263.374 84.4068C263.435 84.2414 263.529 84.0901 263.65 83.962C263.771 83.8338 263.917 83.7315 264.079 83.661C265.323 83.2011 266.62 82.8964 267.939 82.754C268.745 82.6633 269.531 82.3912 270.338 82.2199C271.144 82.0485 272.111 81.8772 273.008 81.7361L273.845 81.6152C274.212 81.559 274.582 81.5287 274.953 81.5245C275.195 81.497 275.438 81.5579 275.639 81.6958C275.86 81.8067 275.87 82.0788 275.951 82.3106C276.082 83.0664 276.153 83.4192 276.253 83.9029C276.405 84.5378 276.646 85.1324 276.848 85.7674C276.907 85.9032 276.951 86.0452 276.979 86.1906C277.032 86.395 277.003 86.6121 276.898 86.7953C276.749 86.9467 276.56 87.0547 276.354 87.1078C276.263 87.1413 276.168 87.1617 276.072 87.1682C275.918 87.1724 275.766 87.1377 275.629 87.0674C275.467 86.9969 275.225 86.8961 275.165 86.7248C274.73 85.6619 274.471 84.5351 274.399 83.3889H273.935L273.915 83.2478Z" fill="#231F20"/>
<path d="M321.666 143.034C319.65 143.477 317.725 143.87 315.75 144.253C315.034 144.384 314.329 144.586 313.603 144.707C312.333 144.929 311.054 145.13 309.774 145.301C309.102 145.395 308.457 145.476 307.839 145.543L306.831 145.624H306.327C306.186 145.624 305.863 145.624 305.652 145.624C305.447 145.617 305.243 145.583 305.047 145.523C304.997 145.532 304.946 145.532 304.896 145.523L304.805 145.412L304.604 145.18C304.364 144.835 304.181 144.454 304.059 144.052C303.887 143.445 303.796 142.818 303.787 142.187C303.761 141.441 303.782 140.694 303.848 139.95C303.918 139.234 304.039 138.539 304.1 137.854C304.1 137.44 304.452 137.42 304.835 137.793C305.339 138.349 305.638 139.06 305.682 139.809C305.742 140.565 305.682 141.28 305.682 141.945C305.693 142.26 305.726 142.573 305.783 142.883C305.801 143.023 305.831 143.161 305.873 143.296C305.868 143.356 305.868 143.417 305.873 143.477C305.873 143.477 305.873 143.538 305.873 143.558H306.035H306.287C306.992 143.487 307.718 143.407 308.453 143.356C310.248 143.122 312.028 142.786 313.785 142.349C315.8 141.945 317.705 141.542 319.65 141.089C320.849 140.817 322.049 140.524 323.228 140.202C325.007 139.755 326.747 139.162 328.428 138.428L328.851 138.196L329.103 138.015C329.178 137.964 329.236 137.891 329.269 137.807C329.301 137.722 329.307 137.629 329.285 137.541C329.285 137.43 329.234 136.957 329.194 136.634L329.073 135.626C329.073 135.334 328.952 135.052 328.902 134.77C328.751 133.701 328.902 133.48 329.376 133.026L329.688 132.694C330 132.311 330.696 132.694 331.149 133.701C331.401 134.366 331.564 135.061 331.633 135.767C331.633 136.12 331.714 136.463 331.734 136.775C331.76 137.222 331.76 137.669 331.734 138.116C331.718 138.435 331.632 138.746 331.482 139.029C331.333 139.311 331.123 139.556 330.867 139.748C330.61 139.955 330.337 140.14 330.051 140.303L329.507 140.575C328.851 140.889 328.178 141.165 327.491 141.401C325.475 142.076 323.52 142.55 321.555 143.054L321.666 143.034Z" fill="#231F20"/>
<path d="M233.008 131.817C233.008 131.817 227.858 130.295 224.724 132.754C221.942 134.931 233.27 146.259 256.47 150.23L233.502 136.292L233.008 131.817Z" fill="#231F20"/>
<path d="M318.379 118.06L308.231 120.368L304.552 121.275L291.531 124.318C289.596 124.782 287.671 125.326 285.777 125.79C283.328 126.394 280.899 127.09 278.41 127.543C277.644 127.694 277.714 127.543 278.299 127.241C278.601 127.069 279.024 126.828 279.538 126.556C280.123 126.237 280.737 125.977 281.373 125.779C283.822 124.963 286.291 124.197 288.79 123.542C291.289 122.887 293.829 122.222 296.329 121.678C299.352 121.002 302.476 120.116 305.56 119.34L315.719 116.85L322.008 115.349C325.172 114.583 328.367 113.857 331.501 113.071C333.94 112.456 336.308 111.761 338.717 111.116C339.241 110.965 339.725 110.813 340.289 110.682C340.996 110.492 341.724 110.394 342.456 110.39C342.81 110.391 343.158 110.485 343.464 110.662C343.587 110.718 343.702 110.789 343.807 110.874C344.069 111.116 343.313 111.6 341.912 112.174C337.679 113.555 333.134 114.663 328.558 115.732L318.4 118.1L318.379 118.06Z" fill="#231F20"/>
<path d="M295.765 88.7715L297.398 88.5699C297.6 88.5699 297.791 88.4893 297.983 88.4691L300.089 88.2273C300.397 88.1924 300.703 88.142 301.006 88.0761C301.389 87.961 301.786 87.9 302.185 87.8947C302.437 87.8947 302.276 88.6909 301.843 88.8319C301.059 89.0649 300.25 89.2069 299.434 89.2552C298.938 89.3014 298.447 89.3822 297.963 89.4971L296.33 89.7591L295.322 89.9204C294.758 90.0111 294.314 89.9909 293.78 90.0917C293.395 90.1711 293.015 90.272 292.641 90.3941L292.389 90.4646C292.077 90.5352 291.966 90.4646 291.845 90.1925C291.845 90.132 291.845 90.0716 291.775 90.001C291.745 89.8967 291.755 89.785 291.804 89.688C291.852 89.591 291.935 89.5157 292.037 89.4769C292.719 89.1955 293.439 89.0156 294.173 88.9428C294.445 88.9428 294.778 88.9428 294.959 88.8723L295.755 88.7513L295.765 88.7715Z" fill="#231F20"/>
<path d="M292.338 94.739L295.25 94.3359L296.258 94.1344L300.007 93.5297C300.562 93.439 301.116 93.308 301.66 93.187C302.351 92.9957 303.055 92.8543 303.766 92.7637C304.22 92.7637 303.827 93.5801 303.031 93.7715C301.615 94.1646 300.173 94.461 298.717 94.6584C297.84 94.7592 296.943 95.0011 296.057 95.1623L293.124 95.6763L291.31 95.9887C290.393 96.1399 289.476 96.281 288.579 96.4624C287.873 96.6035 287.198 96.8051 286.513 96.9764L286.059 97.0872C285.495 97.2082 285.293 97.1679 285.122 96.9058C285.077 96.8466 285.04 96.7823 285.011 96.7144C284.91 96.5027 285.112 96.281 285.525 96.1399C286.774 95.741 288.051 95.4345 289.345 95.2228L292.277 94.7189L292.338 94.739Z" fill="#231F20"/>
<rect x="142.5" y="98.5" width="44" height="44" stroke="#E5E5E5"/>
<rect x="146" y="102" width="37" height="37" fill="#231F20"/>
<path d="M167.437 122.638L170.508 127.132H170.542L170.978 127.913H164.922L161.893 122.638H167.437Z" fill="white"/>
<path d="M170.976 127.914L174.001 122.639L167.947 112.088H161.893L170.976 127.914Z" fill="white"/>
<path d="M158.866 117.361H164.92L158.868 127.912L155.839 122.638L158.866 117.361Z" fill="white"/>
<path d="M165.5 93.5V71.5H258.5" stroke="#C7C7C7" stroke-dasharray="2 2"/>
<rect x="372.91" y="28.3802" width="69.7879" height="94.2396" fill="white" stroke="#E5E5E5" stroke-width="0.760417"/>
<path d="M387.712 116V109.071H389.772C390.24 109.071 390.645 109.16 390.986 109.337C391.334 109.514 391.603 109.764 391.793 110.087C391.983 110.409 392.078 110.792 392.078 111.235V113.826C392.078 114.263 391.983 114.646 391.793 114.975C391.603 115.298 391.334 115.551 390.986 115.734C390.645 115.911 390.24 116 389.772 116H387.712ZM388.898 114.908H389.772C390.113 114.908 390.385 114.814 390.588 114.624C390.79 114.428 390.892 114.162 390.892 113.826V111.235C390.892 110.906 390.79 110.647 390.588 110.457C390.385 110.261 390.113 110.163 389.772 110.163H388.898V114.908ZM397.437 116.095C396.994 116.095 396.608 116.013 396.279 115.848C395.956 115.677 395.706 115.44 395.529 115.136C395.358 114.826 395.273 114.462 395.273 114.045V111.026C395.273 110.609 395.358 110.248 395.529 109.944C395.706 109.634 395.956 109.397 396.279 109.233C396.608 109.062 396.994 108.976 397.437 108.976C397.886 108.976 398.272 109.062 398.595 109.233C398.918 109.397 399.164 109.634 399.335 109.944C399.512 110.248 399.601 110.606 399.601 111.017V114.045C399.601 114.462 399.512 114.826 399.335 115.136C399.164 115.44 398.918 115.677 398.595 115.848C398.272 116.013 397.886 116.095 397.437 116.095ZM397.437 115.051C397.76 115.051 398.003 114.965 398.168 114.795C398.332 114.617 398.415 114.367 398.415 114.045V111.026C398.415 110.697 398.332 110.447 398.168 110.277C398.003 110.106 397.76 110.02 397.437 110.02C397.114 110.02 396.871 110.106 396.706 110.277C396.542 110.447 396.459 110.697 396.459 111.026V114.045C396.459 114.367 396.542 114.617 396.706 114.795C396.877 114.965 397.121 115.051 397.437 115.051ZM405.064 116.095C404.622 116.095 404.232 116.013 403.897 115.848C403.568 115.677 403.312 115.44 403.128 115.136C402.951 114.826 402.862 114.462 402.862 114.045V111.026C402.862 110.602 402.951 110.239 403.128 109.935C403.312 109.631 403.568 109.397 403.897 109.233C404.232 109.062 404.622 108.976 405.064 108.976C405.514 108.976 405.9 109.062 406.222 109.233C406.551 109.397 406.808 109.631 406.991 109.935C407.175 110.239 407.266 110.602 407.266 111.026H406.071C406.071 110.697 405.982 110.447 405.805 110.277C405.634 110.106 405.387 110.02 405.064 110.02C404.742 110.02 404.492 110.106 404.315 110.277C404.137 110.447 404.049 110.694 404.049 111.017V114.045C404.049 114.367 404.137 114.617 404.315 114.795C404.492 114.965 404.742 115.051 405.064 115.051C405.387 115.051 405.634 114.965 405.805 114.795C405.982 114.617 406.071 114.367 406.071 114.045H407.266C407.266 114.456 407.175 114.817 406.991 115.127C406.808 115.437 406.551 115.677 406.222 115.848C405.9 116.013 405.514 116.095 405.064 116.095ZM412.635 116.095C412.16 116.095 411.749 116.016 411.401 115.858C411.053 115.699 410.784 115.475 410.594 115.184C410.411 114.886 410.316 114.538 410.31 114.14H411.496C411.496 114.424 411.597 114.649 411.8 114.814C412.009 114.972 412.29 115.051 412.644 115.051C412.986 115.051 413.252 114.972 413.442 114.814C413.638 114.655 413.736 114.437 413.736 114.159C413.736 113.925 413.666 113.722 413.527 113.551C413.394 113.374 413.201 113.254 412.948 113.191L412.151 112.972C411.607 112.833 411.186 112.583 410.889 112.222C410.597 111.862 410.452 111.425 410.452 110.913C410.452 110.52 410.541 110.179 410.718 109.887C410.895 109.596 411.145 109.372 411.468 109.214C411.797 109.055 412.183 108.976 412.625 108.976C413.296 108.976 413.828 109.15 414.22 109.498C414.612 109.84 414.812 110.302 414.818 110.884H413.632C413.632 110.612 413.543 110.4 413.366 110.248C413.189 110.09 412.939 110.011 412.616 110.011C412.306 110.011 412.065 110.084 411.895 110.229C411.724 110.375 411.638 110.58 411.638 110.846C411.638 111.087 411.702 111.292 411.828 111.463C411.961 111.628 412.151 111.745 412.398 111.814L413.223 112.042C413.774 112.181 414.195 112.431 414.486 112.792C414.777 113.146 414.922 113.586 414.922 114.111C414.922 114.504 414.828 114.852 414.638 115.155C414.448 115.453 414.182 115.684 413.84 115.848C413.499 116.013 413.097 116.095 412.635 116.095Z" fill="black"/>
<rect x="377.319" y="32.9427" width="60.2345" height="69.1979" fill="#FFEAEB" stroke="#E5E5E5" stroke-width="0.760417"/>
<path d="M424.3 55.069C424.111 54.9084 423.891 54.7898 423.652 54.7214C423.404 54.6348 423.148 54.5708 422.888 54.5302C422.357 54.442 421.822 54.3912 421.284 54.3782C420.202 54.3526 419.118 54.4034 418.043 54.5302C417.869 54.5607 417.782 53.4136 417.973 53.4222C419.103 53.4141 420.231 53.4867 421.35 53.6395C421.913 53.7148 422.471 53.8309 423.018 53.9871C423.298 54.0651 423.571 54.1654 423.835 54.2869C424.115 54.409 424.367 54.588 424.574 54.8127C424.76 55.0473 424.443 55.2081 424.3 55.069Z" fill="#231F20"/>
<path d="M390.278 72.0442L390.035 65.961L389.926 63.7407C389.843 61.1336 389.787 58.5266 389.739 55.9195C389.739 54.7637 389.674 53.5992 389.635 52.4434C389.52 50.968 389.529 49.4855 389.661 48.0114C389.717 47.5509 389.852 47.6117 390.048 48.0114C390.171 48.2715 390.28 48.5385 390.373 48.8109C390.483 49.1827 390.545 49.5665 390.56 49.9537C390.682 52.9562 390.743 55.9586 390.738 58.9958C390.738 60.8077 390.864 62.6935 390.938 64.5489L391.195 70.6668L391.399 74.4253C391.503 76.3241 391.599 78.2359 391.738 80.1173C391.851 81.5816 392.02 83.0155 392.172 84.4624C392.211 84.7796 392.246 85.0881 392.281 85.4097C392.359 86.6002 392.316 86.9826 392.09 87.2563C392.042 87.3215 392.003 87.4041 391.964 87.4432C391.851 87.5909 391.56 87.0999 391.425 86.2352C390.99 83.6586 390.812 80.9255 390.617 78.1838C390.478 76.1459 390.373 74.095 390.265 72.0528L390.278 72.0442Z" fill="#231F20"/>
<path d="M423.044 75.9603C423.479 70.6332 423.913 65.3061 424.269 59.9834C424.33 59.0144 424.378 58.0411 424.408 57.0765C424.408 56.5942 424.439 56.1076 424.439 55.6339C424.439 55.395 424.439 55.1603 424.439 54.93C424.439 54.8171 424.439 54.6954 424.439 54.6128C424.446 54.5829 424.446 54.5516 424.439 54.5216L424.395 54.4825L424.304 54.4303C424.191 54.3718 424.073 54.3224 423.952 54.2826C423.682 54.1912 423.404 54.1215 423.122 54.074C422.512 53.9801 421.897 53.9235 421.28 53.9046C420.667 53.8742 420.05 53.8655 419.429 53.8742L418.499 53.9002C418.039 53.9002 417.456 53.9611 416.948 53.9958L417.057 53.179L417.1 52.7749L417.135 52.4316L417.209 51.4757C417.252 50.8413 417.283 50.2026 417.304 49.5638C417.326 48.9251 417.343 48.282 417.343 47.6477V47.174V46.7656C417.348 46.699 417.348 46.6323 417.343 46.5657C417.343 46.4745 417.248 46.5049 417.187 46.5006H417.048H416.735L416.027 46.5179L414.697 46.5961L412.029 46.7569C408.988 46.922 405.907 47.0611 402.87 47.0524C400.906 47.068 398.943 46.9708 396.991 46.7613C396.003 46.6488 395.025 46.4673 394.062 46.2181C393.047 45.9869 392.099 45.5261 391.29 44.8711C391.181 44.772 391.079 44.6645 390.986 44.5496C390.931 44.4619 390.881 44.3704 390.838 44.2759C390.773 44.1238 390.777 44.0456 390.838 44.0282C390.899 44.0108 390.999 44.0282 391.138 44.1194L391.364 44.2541L391.677 44.3975C392.282 44.6738 392.918 44.878 393.571 45.0058C394.393 45.171 395.37 45.3187 396.443 45.4751C398.147 45.7037 399.861 45.8357 401.579 45.8705C403.317 45.9183 405.055 45.9096 406.793 45.8705C408.532 45.8314 410.27 45.7575 412.008 45.6706L414.615 45.5273L415.918 45.4534L416.579 45.423H416.939H417.535C417.724 45.4233 417.908 45.4893 418.054 45.6097C418.201 45.7301 418.301 45.8975 418.338 46.0834C418.371 46.2922 418.393 46.5025 418.404 46.7135V47.0871C418.404 47.5781 418.404 48.0604 418.404 48.5427C418.404 49.3553 418.343 50.1635 418.295 50.9847C418.269 51.3931 418.238 51.8059 418.212 52.2187L418.173 52.6532L418.147 52.8444L418.747 52.8183C419.181 52.8183 419.568 52.7922 419.985 52.7922C420.819 52.7818 421.653 52.8166 422.484 52.8965C422.912 52.9373 423.337 53.0056 423.757 53.1007C423.978 53.1484 424.196 53.2123 424.408 53.2919C424.665 53.3784 424.906 53.5061 425.121 53.67C425.189 53.7213 425.255 53.7765 425.317 53.8351L425.408 53.922C425.443 53.948 425.434 54.0002 425.447 54.0393C425.488 54.1989 425.516 54.3617 425.53 54.5259C425.53 54.7519 425.556 54.9604 425.56 55.1734C425.56 55.6079 425.56 56.0076 425.56 56.4204C425.469 59.1317 425.264 61.8127 425.073 64.5023L424.422 72.5581C424.161 75.8647 423.896 79.167 423.674 82.4692C423.592 83.7163 423.509 84.9677 423.444 86.2191C423.413 86.8447 423.383 87.4704 423.366 88.0918V88.5611V89.3692C423.366 89.3953 423.327 89.4084 423.309 89.4257L423.04 89.6343C422.955 89.7001 422.863 89.7569 422.766 89.8038C422.688 89.8429 422.61 89.8907 422.531 89.9211C421.263 90.4381 419.981 90.4859 418.716 90.5511C417.452 90.6163 416.192 90.5511 414.945 90.4946C412.998 90.3903 411.086 90.2252 409.179 90.0601L406.329 89.7733C405.859 89.7255 405.373 89.6734 404.929 89.656C404.486 89.6386 403.995 89.656 403.535 89.6908C402.705 89.7342 401.901 89.8168 401.08 89.9298C399.559 90.1514 398.581 90.4164 397.877 90.5685C397.395 90.702 396.896 90.7649 396.396 90.7553C396.231 90.758 396.067 90.7478 395.905 90.7249C395.722 90.6728 395.905 90.4859 396.426 90.2035C397.226 89.7991 398.068 89.4843 398.938 89.265C400.658 88.8247 402.424 88.5841 404.199 88.548C404.425 88.548 404.634 88.548 404.882 88.548C405.129 88.548 405.36 88.5741 405.59 88.5915L406.919 88.7218L409.566 88.9956C411.33 89.1737 413.107 89.3345 414.884 89.4301C416.645 89.5513 418.413 89.5353 420.172 89.3823C420.776 89.3268 421.371 89.1984 421.945 88.9999L422.132 88.926L422.21 88.8826L422.262 88.8522V88.6653V88.1483C422.297 86.7839 422.375 85.4326 422.458 84.0813C422.627 81.383 422.827 78.689 423.031 75.9994L423.044 75.9603Z" fill="#231F20"/>
<path d="M425.504 54.0617C423.927 51.0201 421.111 47.9003 418.408 45.806C418.174 45.6235 417.205 46.0797 417.335 46.1797C420.216 48.3921 422.612 51.1724 424.374 54.3484C424.505 54.6048 425.582 54.192 425.504 54.0443V54.0617Z" fill="#231F20"/>
<path d="M398.529 89.9198C402.251 89.0579 406.111 88.978 409.865 89.6852C416.231 90.8497 423.001 89.2116 423.001 89.2116C423.001 89.2116 421.406 93.0005 410.478 91.0322C404.191 89.9025 399.233 91.6666 398.116 91.6666C397.482 91.6666 398.529 89.9198 398.529 89.9198Z" fill="#231F20"/>
<path d="M411.667 130L411.667 149L352.667 149" stroke="#C7C7C7" stroke-dasharray="2 2"/>
<rect x="1" y="0.693115" width="584.5" height="209" rx="3.5" stroke="black" stroke-opacity="0.1"/>
</svg>
