<svg width="586" height="240" viewBox="0 0 586 240" fill="none" xmlns="http://www.w3.org/2000/svg">
<rect x="0.5" width="585.5" height="240" rx="4" fill="white"/>
<g clip-path="url(#clip0_692_4514)">
<path d="M295.555 119.68L290.012 120.623L287.995 121.022L280.833 122.297L277.674 122.929C276.325 123.271 274.949 123.494 273.561 123.594C273.095 123.594 273.184 123.339 273.561 123.039C274.047 122.647 274.622 122.381 275.235 122.263C277.951 121.698 280.7 121.155 283.494 120.723C285.157 120.468 286.82 120.057 288.571 119.736L294.114 118.716L297.573 118.117L302.828 117.286C304.18 117.086 305.488 116.787 306.852 116.621L307.739 116.488C308.847 116.399 309.236 116.488 309.479 116.82C309.542 116.892 309.598 116.97 309.646 117.053C309.745 117.319 309.302 117.563 308.537 117.663L301.187 118.771L295.644 119.692L295.555 119.68Z" fill="#231F20"/>
<path d="M247.231 140.165C249.382 141.259 251.544 142.335 253.717 143.391L256.122 144.5L264.536 148.546C265.778 149.145 267.053 149.722 268.295 150.287C269.946 150.957 271.524 151.792 273.006 152.781C273.472 153.103 273.272 153.247 272.751 153.225C272.415 153.202 272.081 153.15 271.753 153.069C271.302 152.987 270.863 152.85 270.445 152.659C267.208 151.185 263.871 149.843 260.645 148.225C258.705 147.26 256.61 146.407 254.592 145.498C252.375 144.478 250.158 143.439 247.941 142.383L243.905 140.354C241.866 139.356 239.837 138.281 237.819 137.261C236.267 136.441 234.682 135.731 233.141 134.9C232.79 134.741 232.449 134.559 232.121 134.356C230.902 133.569 230.602 133.192 230.591 132.671C230.575 132.554 230.575 132.434 230.591 132.317C230.591 131.995 231.312 132.051 232.254 132.483C235.037 133.78 237.797 135.354 240.757 136.817C242.908 137.926 245.07 139.035 247.253 140.143L247.231 140.165Z" fill="#231F20"/>
<path d="M272.74 133.204L272.418 136.53C272.418 136.94 272.418 137.351 272.352 137.772L271.953 142.118C271.953 142.76 271.886 143.403 271.875 144.046C271.901 144.869 271.861 145.692 271.753 146.508C271.676 147.017 270.645 146.363 270.589 145.399C270.523 143.71 270.601 142.019 270.822 140.344C270.966 139.335 270.933 138.282 270.988 137.24L271.21 133.825L271.365 131.785C271.432 130.677 271.532 129.657 271.554 128.604C271.554 127.783 271.554 126.974 271.554 126.165C271.554 125.987 271.554 125.81 271.554 125.622C271.551 125.38 271.592 125.139 271.676 124.912C271.712 124.841 271.765 124.78 271.831 124.735C271.858 124.681 271.896 124.633 271.945 124.597C271.993 124.56 272.049 124.535 272.108 124.524C272.144 124.516 272.181 124.519 272.215 124.533C272.248 124.547 272.277 124.571 272.297 124.602C272.23 124.469 272.297 124.702 272.297 124.602C272.319 124.676 272.353 124.747 272.396 124.812C272.423 124.853 272.464 124.882 272.51 124.897C272.556 124.911 272.606 124.908 272.651 124.89C272.74 124.79 272.762 124.89 272.795 124.99C272.833 125.094 272.859 125.202 272.873 125.311C273.05 126.808 273.098 128.318 273.017 129.823C273.017 130.932 272.906 132.096 272.829 133.238L272.74 133.204Z" fill="#231F20"/>
<path d="M251.035 126.154C251.035 127.196 251.013 128.238 250.969 129.281V130.389L250.902 134.435C250.902 135.034 250.902 135.633 250.902 136.231C250.984 137.012 250.951 137.8 250.802 138.571C250.747 138.814 250.47 138.737 250.226 138.504C250.077 138.381 249.956 138.229 249.868 138.058C249.78 137.886 249.729 137.699 249.716 137.506C249.716 135.999 249.616 134.447 249.716 132.872C249.782 131.941 249.716 130.966 249.66 130.001C249.605 129.037 249.66 127.884 249.66 126.831V124.879L249.76 121.919C249.76 121.155 249.76 120.401 249.76 119.636C249.749 119.47 249.749 119.303 249.76 119.137C249.827 118.516 249.938 118.328 250.248 118.239L250.459 118.172C250.691 118.172 250.858 118.416 250.902 118.871C251.014 120.239 251.047 121.612 251.002 122.984L250.946 126.121L251.035 126.154Z" fill="#231F20"/>
<path d="M279.967 89.7608C280.733 89.527 281.51 89.3346 282.295 89.1844C282.584 89.1179 282.85 89.007 283.138 88.9627C284.147 88.7964 285.178 88.7188 286.187 88.5968C286.641 88.5414 287.085 88.4527 287.528 88.3862C288.104 88.2956 288.686 88.2548 289.269 88.2642C289.424 88.2642 289.457 88.2642 289.269 88.2642C289.113 88.2642 288.903 88.5636 288.614 88.7409C287.632 89.4114 286.529 89.8857 285.366 90.1378C284.679 90.2597 284.014 90.5701 283.315 90.7475C282.617 90.9249 281.797 91.1244 281.032 91.3018C280.566 91.4127 280.089 91.5235 279.646 91.6565C279.366 91.7145 279.099 91.8235 278.859 91.978C278.659 92.1912 278.535 92.4637 278.504 92.7541C278.415 93.264 278.504 93.8626 278.426 94.3837V94.7606C278.4 95.0088 278.336 95.2516 278.238 95.4812C278.238 95.4812 278.238 95.5366 278.238 95.5477C278.226 95.3828 278.185 95.2214 278.116 95.071C277.85 94.0844 277.007 93.1864 277.484 91.5457C277.605 91.2159 277.803 90.9195 278.061 90.681C278.279 90.4829 278.526 90.3185 278.792 90.1932C279.178 90.0047 279.574 89.8381 279.979 89.6943L279.967 89.7608Z" fill="#231F20"/>
<path d="M269.647 104.405H269.559H269.237L268.461 104.35C268.258 104.362 268.055 104.362 267.851 104.35C267.109 104.35 266.311 104.139 265.523 104.084C265.169 104.084 264.825 104.084 264.481 104.084C264 104.107 263.519 104.039 263.062 103.884C262.929 103.818 262.951 103.884 263.062 103.818C263.173 103.751 263.339 103.474 263.539 103.286C263.832 102.918 264.196 102.612 264.609 102.388C265.022 102.163 265.477 102.024 265.945 101.978C266.49 101.89 267.031 101.772 267.563 101.623C268.233 101.535 268.911 101.535 269.581 101.623C270.185 101.683 270.748 101.958 271.166 102.399C271.589 102.977 271.829 103.668 271.854 104.383C271.943 104.809 271.973 105.246 271.942 105.68C271.942 105.78 271.942 105.869 271.942 105.969C271.942 106.312 271.798 106.467 271.809 106.545C271.713 106.437 271.605 106.341 271.488 106.257C271.188 105.935 270.834 105.581 270.501 105.259C270.168 104.938 269.913 104.638 269.725 104.439C269.667 104.375 269.595 104.326 269.514 104.295H269.448C269.448 104.295 269.448 104.295 269.503 104.295C269.574 104.244 269.637 104.185 269.692 104.117C269.719 104.088 269.741 104.054 269.758 104.017C269.758 104.095 269.98 103.341 269.88 103.663V103.729L269.803 103.951C269.761 104.107 269.732 104.267 269.714 104.428L269.647 104.405Z" fill="#231F20"/>
<path d="M235.414 164.668C238.674 166.718 241.944 168.758 245.248 170.754C246.445 171.485 247.698 172.14 248.895 172.871L261.588 180.631C263.473 181.74 265.402 182.849 267.309 183.957C269.759 185.321 272.197 186.74 274.514 188.391C275.235 188.901 274.969 189.123 274.137 189.079C272.857 188.958 271.607 188.612 270.446 188.059C267.83 186.851 265.324 185.476 262.819 184.068C260.313 182.66 257.83 181.219 255.369 179.634C252.431 177.816 249.25 176.142 246.19 174.357C242.835 172.391 239.509 170.399 236.213 168.381C234.162 167.14 232.122 165.887 230.082 164.601C229.317 164.124 228.552 163.626 227.787 163.116C227.399 162.872 227.022 162.606 226.679 162.34C226.468 162.173 226.146 161.985 225.925 161.785L225.736 161.63C225.709 161.554 225.687 161.476 225.67 161.397C225.619 161.245 225.578 161.089 225.548 160.932C225.449 160.419 225.379 159.9 225.337 159.38L225.226 158.005L225.027 155.289C224.816 152.495 224.484 149.746 224.328 146.997C224.328 146.387 224.24 145.788 224.218 145.167C224.159 144.353 224.222 143.535 224.406 142.74C224.53 142.317 224.763 141.935 225.082 141.631C225.182 141.513 225.293 141.405 225.415 141.31C225.592 141.199 225.747 141.376 225.958 141.786C226.263 142.368 226.466 142.998 226.557 143.649C226.934 146.099 227.244 148.615 227.488 151.165C227.732 153.715 227.865 156.32 228.109 158.847L228.231 159.956C228.951 160.477 229.805 160.987 230.592 161.508L235.514 164.568L235.414 164.668Z" fill="#231F20"/>
<path d="M275.38 173.567V177.425C275.38 177.902 275.446 178.367 275.446 178.833L275.38 183.822C275.38 184.564 275.38 185.296 275.468 186.039C275.623 186.993 275.623 187.967 275.468 188.921C275.402 189.232 274.958 189.143 274.526 188.921C274.294 188.8 274.09 188.631 273.93 188.424C273.769 188.218 273.655 187.979 273.595 187.724C273.369 185.833 273.298 183.928 273.384 182.026C273.408 180.845 273.36 179.664 273.24 178.489L273.14 174.587V172.181C273.14 170.973 273.14 169.742 273.14 168.545C273.14 167.603 272.941 166.683 272.93 165.729C272.93 165.519 272.93 165.319 272.93 165.109C272.93 164.321 273.162 164 273.65 164C273.759 163.967 273.87 163.945 273.983 163.933C274.36 163.933 274.648 164.255 274.748 164.776C274.925 165.563 275.114 166.383 275.224 167.226C275.335 168.068 275.391 168.922 275.457 169.776L275.568 171.705V173.645L275.38 173.567Z" fill="#231F20"/>
<path d="M344.876 173.722L328.247 177.88C326.229 178.378 324.234 178.988 322.216 179.432L300.798 184.42L291.32 186.715C287.316 187.811 283.242 188.629 279.125 189.165C277.784 189.243 278.017 188.844 278.959 188.245C280.556 187.291 282.291 186.592 284.103 186.172C292.273 184.11 300.477 182.103 308.802 180.263C313.78 179.154 318.879 177.702 323.935 176.394L340.564 172.137C343.989 171.25 347.404 170.363 350.796 169.421L352.847 168.833L353.423 168.667C353.49 168.667 353.667 168.667 353.634 168.523V168.235C353.634 164.41 353.634 160.585 353.634 156.794C353.634 152.659 353.468 148.613 353.501 144.511C353.501 143.602 353.501 142.715 353.501 141.806C353.678 138.48 354.022 137.371 354.798 136.695C354.956 136.535 355.135 136.397 355.33 136.285C355.906 136.041 356.161 137.394 356.184 139.844C356.283 147.072 356.306 154.743 356.306 162.448C356.306 164.665 356.306 166.916 356.306 169.199L356.117 169.765L356.017 170.042V170.175V170.252C356.217 170.397 355.74 170.053 355.785 170.097L355.485 170.563C355.408 170.74 355.153 170.807 354.997 170.929C354.59 171.101 354.171 171.245 353.745 171.361L353.057 171.561L350.352 172.303L344.954 173.756L344.876 173.722Z" fill="#231F20"/>
<path d="M322.793 142.206L310.299 144.9L305.731 146.009L289.701 149.545C287.34 150.077 284.956 150.654 282.628 151.263C279.613 151.984 276.609 152.804 273.549 153.314C272.607 153.492 272.684 153.314 273.416 152.937C273.771 152.716 274.303 152.416 274.946 152.095C275.65 151.702 276.393 151.383 277.163 151.141L281.708 149.734C283.227 149.279 284.768 148.88 286.298 148.481C289.372 147.66 292.469 146.921 295.588 146.264C299.335 145.477 303.159 144.412 306.962 143.503L319.511 140.577L327.271 138.792C331.174 137.894 335.109 137.029 338.967 136.087C341.971 135.366 344.887 134.524 347.836 133.759C348.49 133.581 349.122 133.393 349.787 133.238C350.658 133.01 351.558 132.909 352.459 132.938C352.913 132.938 353.359 133.064 353.745 133.304C353.894 133.387 354.035 133.484 354.166 133.592C354.476 133.903 353.556 134.501 351.827 135.2C346.616 136.863 341.029 138.171 335.397 139.446L322.815 142.262L322.793 142.206Z" fill="#231F20"/>
<path d="M244.294 139.626C246.511 140.771 248.769 141.88 251.068 142.951L253.573 144.06L262.364 148.261C263.672 148.882 264.992 149.47 266.3 150.057C268.035 150.741 269.69 151.615 271.233 152.663C271.71 153.006 271.477 153.184 270.912 153.195C270.54 153.191 270.169 153.157 269.803 153.095C269.325 153.033 268.858 152.902 268.417 152.707C265.091 151.199 261.544 149.836 258.174 148.106C256.156 147.086 253.95 146.244 251.844 145.29C249.527 144.248 247.21 143.173 244.915 142.076L240.669 140.025C238.541 138.983 236.423 137.807 234.317 136.788C232.687 135.934 230.991 135.213 229.417 134.315C229.062 134.127 228.696 133.95 228.308 133.728C227.056 132.852 226.767 132.409 226.823 131.821C226.81 131.688 226.81 131.555 226.823 131.422C226.934 131.045 227.654 131.1 228.608 131.566C231.468 132.941 234.383 134.57 237.41 136.1C239.627 137.209 241.911 138.417 244.183 139.537L244.294 139.626Z" fill="#231F20"/>
<path d="M339.988 122.896C339.988 124.004 339.988 125.18 339.988 126.332C339.988 126.743 340.076 127.153 340.087 127.574C340.087 129.06 340.087 130.534 340.087 132.008C340.094 132.664 340.135 133.319 340.209 133.971C340.347 134.808 340.347 135.661 340.209 136.498C340.209 136.764 339.81 136.742 339.422 136.498C338.978 136.289 338.632 135.915 338.458 135.456C338.228 134.639 338.09 133.799 338.047 132.951C337.975 132.099 337.975 131.242 338.047 130.39C338.054 129.34 337.983 128.292 337.837 127.253L337.615 123.838L337.538 121.699C337.538 120.59 337.538 119.537 337.416 118.461C337.349 117.63 337.138 116.821 337.039 115.989C337.028 115.808 337.028 115.627 337.039 115.446C337.025 115.299 337.025 115.15 337.039 115.003C337.089 114.897 337.157 114.799 337.238 114.714C337.378 114.56 337.559 114.449 337.759 114.393L338.036 114.293C338.325 114.227 338.646 114.504 338.99 114.98C339.123 115.346 339.267 115.701 339.389 116.089C339.511 116.477 339.522 116.821 339.588 117.198C339.699 117.94 339.766 118.705 339.832 119.415C339.921 120.523 339.988 121.699 340.032 122.84L339.988 122.896Z" fill="#231F20"/>
<path d="M303.029 120.348C298.594 121.124 294.16 121.889 289.725 122.709L284.914 123.707C282.098 124.272 279.249 124.815 276.511 125.536L275.48 125.791L274.604 126.079L274.394 126.146H274.283C274.283 126.146 274.283 126.212 274.283 126.246V126.467V126.855L274.061 131.179C273.939 133.74 273.873 136.323 273.828 138.861C273.828 142.187 273.828 145.424 273.529 148.683C273.385 150.712 271.655 148.118 271.622 144.327C271.622 141.001 271.622 137.675 271.744 134.294C271.744 132.62 271.866 130.968 271.955 129.272L272.11 126.744V126.379C272.125 126.199 272.17 126.023 272.243 125.857C272.323 125.539 272.438 125.23 272.587 124.937L272.476 124.804L272.564 124.727L272.753 124.572C272.877 124.45 273.029 124.362 273.196 124.317L274.116 124.006C276.156 123.408 278.152 122.898 280.18 122.454C282.209 122.011 284.238 121.49 286.256 121.079C290.69 120.159 295.124 119.328 299.625 118.496L307.851 116.989C312.008 116.213 316.188 115.47 320.278 114.594C323.46 113.918 326.553 113.098 329.657 112.31L331.697 111.756C334.258 111.135 335.023 111.013 335.787 111.457C335.958 111.533 336.118 111.629 336.264 111.745C336.641 112.111 335.71 112.776 333.836 113.441C328.116 115.274 322.289 116.755 316.387 117.876C311.953 118.774 307.518 119.616 303.006 120.459L303.029 120.348Z" fill="#231F20"/>
<path d="M282.385 103.649L293.781 101.764C295.167 101.542 296.541 101.254 297.927 101.044C300.388 100.678 302.849 100.345 305.333 100.068C306.574 99.9571 307.816 99.8352 309.102 99.813H310.077H310.698C310.93 99.8402 311.16 99.8847 311.385 99.946C311.973 99.8906 311.995 100.5 312.173 100.91C312.239 101.121 312.361 101.376 312.394 101.542L312.505 102.019C312.947 104.208 313.144 106.439 313.093 108.671C313.093 111.498 312.96 114.28 312.949 117.029C312.949 117.894 312.616 117.817 312.217 117.107C311.649 115.975 311.328 114.736 311.275 113.471C311.175 110.577 311.153 107.751 310.898 105.046C310.831 104.38 310.72 103.715 310.598 103.072C310.532 102.751 310.443 102.429 310.366 102.119C310.366 102.041 310.366 102.03 310.366 101.975H309.257C308.581 101.975 307.882 102.041 307.173 102.097C303.847 102.352 300.288 103.083 296.83 103.682L285.411 105.733L278.372 107.008C274.824 107.662 271.243 108.272 267.729 108.948C264.98 109.469 262.33 110.145 259.603 110.644C259.004 110.766 258.417 110.888 257.807 110.977C257.008 111.137 256.192 111.193 255.379 111.143C254.959 111.094 254.567 110.902 254.271 110.6C254.132 110.491 254.009 110.364 253.905 110.223C253.65 109.813 254.504 109.258 256.122 108.859C260.867 107.684 265.933 106.697 271.044 105.733C274.691 104.99 278.549 104.247 282.362 103.582L282.385 103.649Z" fill="#231F20"/>
<path d="M252.519 125.321L252.408 129.013C252.408 129.468 252.408 129.911 252.408 130.366L252.209 135.121C252.209 135.831 252.209 136.54 252.209 137.239C252.311 138.158 252.259 139.087 252.053 139.988C251.976 140.287 251.577 140.177 251.189 139.899C250.98 139.772 250.804 139.599 250.671 139.393C250.539 139.188 250.454 138.956 250.424 138.713C250.352 136.902 250.386 135.088 250.524 133.281C250.583 132.173 250.583 131.063 250.524 129.955V126.231V123.936C250.524 122.827 250.524 121.608 250.524 120.455C250.524 119.557 250.368 118.681 250.379 117.783C250.379 117.583 250.379 117.384 250.379 117.184C250.435 116.442 250.59 116.209 251.045 116.076C251.155 116.076 251.255 116.076 251.366 116.009C251.71 116.009 251.976 116.298 252.076 116.807C252.227 117.596 252.338 118.391 252.408 119.191C252.408 120 252.486 120.821 252.497 121.641C252.497 122.871 252.497 124.113 252.497 125.344L252.519 125.321Z" fill="#231F20"/>
<path d="M243.519 116.355L243.386 121.321C243.386 121.92 243.386 122.518 243.386 123.128L243.153 129.514C243.153 130.456 243.153 131.409 243.153 132.352C243.287 133.578 243.25 134.816 243.043 136.032C242.943 136.42 242.488 136.287 242.056 135.932C241.81 135.745 241.606 135.508 241.457 135.237C241.308 134.966 241.218 134.666 241.191 134.358C241.097 131.912 241.131 129.462 241.291 127.019C241.424 125.534 241.291 124.004 241.291 122.485V117.485V114.404C241.291 112.852 241.291 111.288 241.291 109.747C241.291 108.539 241.114 107.364 241.103 106.167C241.103 105.901 241.103 105.635 241.103 105.369C241.103 104.382 241.346 104.049 241.856 103.894C241.971 103.846 242.09 103.808 242.211 103.783C242.599 103.783 242.898 104.16 242.998 104.892C243.153 105.934 243.342 106.998 243.397 108.096C243.453 109.193 243.497 110.313 243.519 111.421C243.519 113.073 243.519 114.747 243.519 116.41V116.355Z" fill="#231F20"/>
<path d="M273.751 96.6329L266.223 97.8857L263.496 98.4289L253.807 100.103C252.377 100.358 250.947 100.668 249.539 100.99C247.744 101.465 245.923 101.835 244.085 102.098C242.976 102.231 244.085 100.48 246.136 99.9698C249.805 99.0829 253.508 98.2847 257.277 97.6972C259.494 97.3646 261.844 96.7771 264.139 96.3336L271.711 94.9146L276.378 94.0721C278.739 93.6508 281.112 93.2739 283.44 92.8083C285.258 92.4535 287.009 91.9768 288.805 91.5778C289.193 91.4891 289.581 91.3782 289.98 91.3006C291.455 91.0235 291.954 91.1011 292.364 91.6554C292.467 91.7766 292.56 91.9064 292.641 92.0434C292.852 92.4979 292.308 92.9746 291.255 93.285C287.992 94.1615 284.683 94.8609 281.344 95.3802L273.762 96.6884L273.751 96.6329Z" fill="#231F20"/>
<path d="M279.945 88.5068L282.816 88.0634C283.171 88.0079 283.504 87.9082 283.858 87.8638L287.539 87.4425C288.093 87.376 288.648 87.2652 289.169 87.1876C289.873 87.0228 290.598 86.9668 291.319 87.0213C291.563 87.0213 291.508 87.3317 291.319 87.6199C291.144 87.9507 290.851 88.2038 290.499 88.3294C289.145 88.7046 287.755 88.9386 286.353 89.0278C285.492 89.1341 284.64 89.3008 283.803 89.5267L280.998 90.1032C280.422 90.2251 279.89 90.3581 279.302 90.5133L278.515 90.7462C278.422 90.7714 278.332 90.8086 278.249 90.857C278.16 90.9235 278.249 91.0344 278.182 91.1231V91.6109C278.225 92.296 278.314 92.9775 278.448 93.6507C278.484 93.7891 278.51 93.9299 278.526 94.0719C278.526 94.338 278.526 94.4932 278.393 94.6151C278.213 94.7331 278.019 94.8299 277.817 94.9034L277.528 95.0475C277.45 95.0902 277.362 95.1126 277.273 95.1126C277.184 95.1126 277.097 95.0902 277.018 95.0475C276.819 94.9477 276.542 94.7703 276.497 94.5265C276.276 93.9498 276.163 93.3372 276.165 92.7194C276.165 92.4312 276.165 92.1319 276.165 91.8326V91.4002V91.0787C276.153 90.9311 276.153 90.7829 276.165 90.6353C276.179 90.441 276.224 90.2501 276.298 90.0699C276.531 89.9591 276.453 89.6486 276.675 89.5489C276.852 89.4054 277.046 89.2827 277.251 89.183C277.484 89.1054 277.706 89.0057 277.939 88.9502L278.36 88.8283C278.859 88.6953 279.346 88.5955 279.834 88.4957L279.945 88.5068Z" fill="#231F20"/>
<path d="M270.834 102.773C269.892 102.85 268.927 102.972 267.963 103.105C267.608 103.105 267.264 103.26 266.854 103.316C265.612 103.482 264.36 103.659 263.118 103.881C262.564 103.981 262.009 104.125 261.488 104.247C260.795 104.455 260.082 104.585 259.36 104.635C259.127 104.635 259.116 104.358 259.238 104.047C259.305 103.866 259.409 103.699 259.542 103.558C259.676 103.417 259.836 103.305 260.014 103.227C261.383 102.721 262.809 102.386 264.26 102.229C265.147 102.13 266.011 101.83 266.898 101.642C267.785 101.453 268.849 101.265 269.836 101.11L270.756 100.977C271.16 100.915 271.567 100.882 271.976 100.877C272.241 100.847 272.509 100.914 272.73 101.065C272.973 101.187 272.985 101.487 273.073 101.742C273.217 102.573 273.295 102.961 273.406 103.493C273.572 104.192 273.838 104.846 274.06 105.544C274.125 105.694 274.173 105.85 274.204 106.01C274.263 106.234 274.231 106.473 274.115 106.675C273.95 106.841 273.744 106.96 273.517 107.019C273.417 107.055 273.312 107.078 273.206 107.085C273.037 107.09 272.869 107.051 272.718 106.974C272.541 106.897 272.275 106.786 272.208 106.597C271.73 105.428 271.445 104.189 271.366 102.928H270.856L270.834 102.773Z" fill="#231F20"/>
<path d="M323.359 168.537C321.142 169.025 319.024 169.457 316.852 169.879C316.064 170.023 315.288 170.244 314.49 170.377C313.093 170.621 311.686 170.843 310.278 171.032C309.539 171.135 308.829 171.224 308.149 171.298L307.041 171.386H306.486C306.331 171.386 305.976 171.386 305.743 171.386C305.518 171.378 305.294 171.341 305.078 171.275C305.023 171.285 304.967 171.285 304.912 171.275L304.812 171.153L304.591 170.898C304.327 170.518 304.125 170.099 303.992 169.657C303.803 168.989 303.702 168.3 303.693 167.606C303.664 166.785 303.686 165.963 303.759 165.145C303.837 164.358 303.97 163.593 304.036 162.839C304.036 162.384 304.424 162.362 304.845 162.772C305.4 163.384 305.729 164.166 305.777 164.99C305.843 165.821 305.777 166.608 305.777 167.34C305.789 167.686 305.826 168.03 305.888 168.371C305.908 168.525 305.941 168.677 305.987 168.825C305.981 168.892 305.981 168.959 305.987 169.025C305.987 169.025 305.987 169.091 305.987 169.114H306.165H306.442C307.218 169.036 308.016 168.947 308.825 168.892C310.8 168.634 312.758 168.264 314.69 167.783C316.907 167.34 319.002 166.896 321.142 166.398C322.461 166.098 323.78 165.777 325.077 165.422C327.035 164.931 328.948 164.278 330.798 163.471L331.263 163.216L331.54 163.016C331.623 162.96 331.686 162.88 331.722 162.787C331.758 162.694 331.764 162.592 331.74 162.495C331.74 162.373 331.685 161.852 331.64 161.498L331.507 160.389C331.507 160.068 331.374 159.757 331.319 159.447C331.152 158.272 331.319 158.028 331.84 157.529L332.183 157.163C332.527 156.742 333.292 157.163 333.791 158.272C334.068 159.002 334.247 159.767 334.323 160.544C334.323 160.932 334.412 161.309 334.434 161.653C334.463 162.144 334.463 162.636 334.434 163.127C334.416 163.478 334.322 163.821 334.157 164.131C333.992 164.442 333.761 164.712 333.48 164.923C333.198 165.15 332.898 165.354 332.583 165.533L331.984 165.832C331.263 166.178 330.523 166.481 329.767 166.741C327.549 167.484 325.399 168.005 323.237 168.559L323.359 168.537Z" fill="#231F20"/>
<path d="M225.836 156.199C225.836 156.199 220.171 154.525 216.723 157.23C213.664 159.624 226.124 172.085 251.644 176.453L226.379 161.121L225.836 156.199Z" fill="#231F20"/>
<path d="M319.744 141.066L308.581 143.604L304.534 144.602L290.211 147.95C288.083 148.46 285.965 149.059 283.881 149.568C281.187 150.234 278.516 150.999 275.777 151.497C274.935 151.664 275.012 151.497 275.655 151.165C275.988 150.976 276.454 150.71 277.019 150.411C277.662 150.061 278.338 149.775 279.037 149.557C281.73 148.659 284.447 147.817 287.196 147.096C289.945 146.376 292.739 145.644 295.488 145.045C298.814 144.303 302.251 143.327 305.643 142.473L316.817 139.735L323.735 138.083C327.216 137.241 330.73 136.443 334.178 135.578C336.861 134.902 339.466 134.137 342.116 133.427C342.692 133.261 343.224 133.095 343.845 132.951C344.622 132.741 345.423 132.633 346.228 132.629C346.618 132.63 347 132.733 347.337 132.929C347.472 132.989 347.599 133.068 347.714 133.161C348.002 133.427 347.171 133.959 345.63 134.591C340.974 136.11 335.974 137.33 330.941 138.505L319.766 141.11L319.744 141.066Z" fill="#231F20"/>
<path d="M294.868 108.849L296.664 108.627C296.886 108.627 297.097 108.538 297.307 108.516L299.624 108.25C299.963 108.212 300.3 108.156 300.633 108.084C301.054 107.957 301.491 107.89 301.93 107.884C302.207 107.884 302.03 108.76 301.553 108.915C300.691 109.171 299.802 109.328 298.904 109.381C298.359 109.432 297.818 109.52 297.285 109.647L295.489 109.935L294.381 110.112C293.76 110.212 293.272 110.19 292.684 110.301C292.261 110.388 291.843 110.499 291.432 110.633L291.155 110.711C290.811 110.789 290.689 110.711 290.556 110.412C290.556 110.345 290.556 110.279 290.478 110.201C290.446 110.086 290.457 109.963 290.51 109.857C290.564 109.75 290.655 109.667 290.767 109.625C291.517 109.315 292.309 109.117 293.117 109.037C293.416 109.037 293.782 109.037 293.982 108.959L294.857 108.826L294.868 108.849Z" fill="#231F20"/>
<path d="M291.098 115.413L294.302 114.969L295.411 114.748L299.535 114.083C300.145 113.983 300.754 113.839 301.353 113.706C302.113 113.495 302.887 113.34 303.67 113.24C304.169 113.24 303.736 114.138 302.861 114.349C301.303 114.781 299.718 115.107 298.116 115.324C297.151 115.435 296.165 115.701 295.189 115.879L291.963 116.444L289.968 116.788C288.959 116.954 287.95 117.109 286.963 117.309C286.187 117.464 285.445 117.686 284.691 117.874L284.192 117.996C283.571 118.129 283.349 118.085 283.161 117.796C283.112 117.731 283.071 117.661 283.039 117.586C282.928 117.353 283.15 117.109 283.604 116.954C284.978 116.515 286.383 116.178 287.806 115.945L291.032 115.391L291.098 115.413Z" fill="#231F20"/>
</g>
<rect x="126.279" y="119.55" width="48.4" height="48.4" stroke="#E5E5E5" stroke-width="1.1"/>
<rect x="130.128" y="123.4" width="40.7" height="40.7" fill="#231F20"/>
<path d="M153.708 146.102L157.085 151.045H157.122L157.602 151.904H150.941L147.608 146.102H153.708Z" fill="white"/>
<path d="M157.6 151.905L160.927 146.103L154.268 134.497H147.608L157.6 151.905Z" fill="white"/>
<path d="M144.279 140.297H150.938L144.282 151.904L140.949 146.102L144.279 140.297Z" fill="white"/>
<path d="M151.578 114.05V89.85H253.878" stroke="#C7C7C7" stroke-width="1.1" stroke-dasharray="2.2 2.2"/>
<rect x="380.74" y="42.4182" width="76.9658" height="103.664" fill="white" stroke="#E5E5E5" stroke-width="0.836458"/>
<path d="M396.011 138.7V131.078H398.276C398.791 131.078 399.237 131.176 399.613 131.371C399.995 131.566 400.291 131.84 400.5 132.195C400.709 132.55 400.813 132.972 400.813 133.459V136.309C400.813 136.789 400.709 137.21 400.5 137.572C400.291 137.927 399.995 138.206 399.613 138.408C399.237 138.603 398.791 138.7 398.276 138.7H396.011ZM397.316 137.499H398.276C398.652 137.499 398.951 137.395 399.174 137.186C399.397 136.97 399.508 136.678 399.508 136.309V133.459C399.508 133.097 399.397 132.811 399.174 132.603C398.951 132.387 398.652 132.279 398.276 132.279H397.316V137.499ZM406.708 138.804C406.221 138.804 405.796 138.714 405.434 138.533C405.079 138.345 404.805 138.084 404.61 137.75C404.422 137.409 404.328 137.009 404.328 136.549V133.229C404.328 132.77 404.422 132.373 404.61 132.039C404.805 131.698 405.079 131.437 405.434 131.256C405.796 131.068 406.221 130.974 406.708 130.974C407.202 130.974 407.627 131.068 407.982 131.256C408.337 131.437 408.608 131.698 408.796 132.039C408.991 132.373 409.089 132.766 409.089 133.219V136.549C409.089 137.009 408.991 137.409 408.796 137.75C408.608 138.084 408.337 138.345 407.982 138.533C407.627 138.714 407.202 138.804 406.708 138.804ZM406.708 137.656C407.063 137.656 407.331 137.562 407.512 137.374C407.693 137.179 407.784 136.904 407.784 136.549V133.229C407.784 132.867 407.693 132.592 407.512 132.404C407.331 132.216 407.063 132.122 406.708 132.122C406.353 132.122 406.085 132.216 405.904 132.404C405.723 132.592 405.633 132.867 405.633 133.229V136.549C405.633 136.904 405.723 137.179 405.904 137.374C406.092 137.562 406.36 137.656 406.708 137.656ZM415.098 138.804C414.611 138.804 414.183 138.714 413.814 138.533C413.452 138.345 413.17 138.084 412.969 137.75C412.774 137.409 412.676 137.009 412.676 136.549V133.229C412.676 132.763 412.774 132.363 412.969 132.028C413.17 131.694 413.452 131.437 413.814 131.256C414.183 131.068 414.611 130.974 415.098 130.974C415.593 130.974 416.017 131.068 416.372 131.256C416.734 131.437 417.016 131.694 417.218 132.028C417.42 132.363 417.521 132.763 417.521 133.229H416.205C416.205 132.867 416.108 132.592 415.913 132.404C415.725 132.216 415.453 132.122 415.098 132.122C414.743 132.122 414.469 132.216 414.274 132.404C414.079 132.592 413.981 132.864 413.981 133.219V136.549C413.981 136.904 414.079 137.179 414.274 137.374C414.469 137.562 414.743 137.656 415.098 137.656C415.453 137.656 415.725 137.562 415.913 137.374C416.108 137.179 416.205 136.904 416.205 136.549H417.521C417.521 137.002 417.42 137.398 417.218 137.739C417.016 138.081 416.734 138.345 416.372 138.533C416.017 138.714 415.593 138.804 415.098 138.804ZM423.426 138.804C422.904 138.804 422.452 138.717 422.069 138.543C421.686 138.369 421.39 138.122 421.181 137.802C420.979 137.475 420.875 137.092 420.868 136.654H422.173C422.173 136.967 422.284 137.214 422.507 137.395C422.737 137.569 423.047 137.656 423.436 137.656C423.812 137.656 424.105 137.569 424.313 137.395C424.529 137.221 424.637 136.981 424.637 136.675C424.637 136.417 424.561 136.194 424.407 136.006C424.261 135.811 424.049 135.679 423.771 135.61L422.894 135.369C422.295 135.216 421.832 134.941 421.505 134.545C421.185 134.148 421.025 133.668 421.025 133.104C421.025 132.672 421.122 132.296 421.317 131.976C421.512 131.656 421.787 131.409 422.142 131.235C422.504 131.061 422.928 130.974 423.416 130.974C424.153 130.974 424.738 131.165 425.17 131.548C425.601 131.924 425.82 132.432 425.827 133.072H424.522C424.522 132.773 424.425 132.54 424.23 132.373C424.035 132.199 423.76 132.112 423.405 132.112C423.064 132.112 422.8 132.192 422.612 132.352C422.424 132.512 422.33 132.738 422.33 133.031C422.33 133.295 422.399 133.521 422.539 133.709C422.685 133.89 422.894 134.019 423.165 134.096L424.073 134.346C424.679 134.499 425.142 134.774 425.462 135.171C425.782 135.561 425.942 136.045 425.942 136.622C425.942 137.054 425.838 137.437 425.629 137.771C425.42 138.098 425.128 138.352 424.752 138.533C424.376 138.714 423.934 138.804 423.426 138.804Z" fill="black"/>
<rect x="385.601" y="47.437" width="66.4301" height="76.1177" fill="#FFEAEB" stroke="#E5E5E5" stroke-width="0.836458"/>
<path d="M436.259 71.776C436.051 71.5992 435.809 71.4688 435.547 71.3936C435.273 71.2983 434.992 71.2279 434.705 71.1833C434.122 71.0862 433.533 71.0303 432.942 71.016C431.751 70.9878 430.559 71.0437 429.376 71.1833C429.185 71.2167 429.089 69.9549 429.3 69.9645C430.542 69.9555 431.783 70.0354 433.013 70.2035C433.634 70.2863 434.247 70.414 434.849 70.5858C435.157 70.6717 435.457 70.7819 435.747 70.9156C436.055 71.0499 436.332 71.2468 436.56 71.494C436.765 71.7521 436.416 71.9289 436.259 71.776Z" fill="#231F20"/>
<path d="M398.835 90.4486L398.567 83.7571L398.447 81.3147C398.357 78.447 398.294 75.5792 398.242 72.7115C398.242 71.4401 398.17 70.1592 398.127 68.8878C398.001 67.2648 398.01 65.634 398.156 64.0126C398.218 63.5059 398.366 63.5729 398.581 64.0126C398.717 64.2987 398.837 64.5923 398.94 64.892C399.06 65.3009 399.129 65.7232 399.145 66.1491C399.279 69.4518 399.346 72.7545 399.341 76.0954C399.341 78.0885 399.48 80.1629 399.561 82.2038L399.843 88.9334L400.068 93.0678C400.182 95.1565 400.288 97.2595 400.441 99.3291C400.565 100.94 400.751 102.517 400.918 104.109C400.961 104.458 401 104.797 401.038 105.151C401.124 106.46 401.076 106.881 400.828 107.182C400.775 107.254 400.732 107.344 400.689 107.387C400.565 107.55 400.245 107.01 400.096 106.059C399.618 103.224 399.422 100.218 399.207 97.2021C399.054 94.9605 398.94 92.7045 398.82 90.4581L398.835 90.4486Z" fill="#231F20"/>
<path d="M434.877 94.7563C435.355 88.8965 435.833 83.0367 436.225 77.1817C436.292 76.1159 436.344 75.0452 436.378 73.9842C436.378 73.4536 436.411 72.9183 436.411 72.3973C436.411 72.1345 436.411 71.8764 436.411 71.6231C436.411 71.4988 436.411 71.365 436.411 71.2741C436.419 71.2412 436.419 71.2067 436.411 71.1738L436.363 71.1308L436.263 71.0734C436.138 71.009 436.009 70.9546 435.876 70.9109C435.578 70.8104 435.273 70.7336 434.963 70.6815C434.292 70.5781 433.615 70.5159 432.936 70.4951C432.262 70.4616 431.584 70.452 430.9 70.4616L429.877 70.4903C429.371 70.4903 428.73 70.5572 428.171 70.5954L428.291 69.6969L428.338 69.2524L428.377 68.8748L428.458 67.8233C428.506 67.1254 428.539 66.4228 428.563 65.7202C428.587 65.0176 428.606 64.3103 428.606 63.6124V63.0915V62.6422C428.611 62.569 428.611 62.4955 428.606 62.4223C428.606 62.3219 428.501 62.3554 428.434 62.3506H428.281H427.937L427.158 62.3697L425.695 62.4558L422.761 62.6326C419.415 62.8142 416.026 62.9672 412.685 62.9576C410.525 62.9748 408.366 62.8679 406.218 62.6374C405.132 62.5137 404.055 62.3141 402.997 62.0399C401.881 61.7856 400.837 61.2788 399.948 60.5583C399.827 60.4492 399.715 60.331 399.613 60.2046C399.552 60.1081 399.498 60.0074 399.45 59.9035C399.379 59.7362 399.384 59.6501 399.45 59.631C399.517 59.6119 399.627 59.631 399.78 59.7314L400.029 59.8796L400.373 60.0373C401.039 60.3412 401.738 60.5658 402.457 60.7064C403.36 60.8881 404.436 61.0506 405.616 61.2226C407.49 61.474 409.376 61.6193 411.266 61.6576C413.177 61.7102 415.089 61.7006 417.001 61.6576C418.913 61.6146 420.825 61.5333 422.737 61.4377L425.604 61.28L427.038 61.1987L427.765 61.1653H428.162H428.816C429.025 61.1657 429.227 61.2382 429.388 61.3707C429.549 61.5031 429.66 61.6872 429.701 61.8918C429.736 62.1214 429.76 62.3527 429.772 62.5848V62.9959C429.772 63.536 429.772 64.0665 429.772 64.597C429.772 65.4908 429.705 66.3798 429.653 67.2832C429.624 67.7325 429.591 68.1865 429.562 68.6406L429.519 69.1185L429.49 69.3288L430.15 69.3002C430.628 69.3002 431.053 69.2715 431.512 69.2715C432.429 69.26 433.347 69.2983 434.26 69.3862C434.731 69.4311 435.199 69.5061 435.661 69.6108C435.905 69.6632 436.144 69.7335 436.378 69.8211C436.66 69.9163 436.925 70.0567 437.161 70.237C437.236 70.2935 437.308 70.3541 437.377 70.4186L437.477 70.5142C437.515 70.5429 437.506 70.6002 437.52 70.6432C437.565 70.8188 437.596 70.9979 437.611 71.1785C437.611 71.4271 437.639 71.6565 437.644 71.8907C437.644 72.3687 437.644 72.8084 437.644 73.2625C437.544 76.2449 437.319 79.1939 437.109 82.1525L436.392 91.0139C436.105 94.6512 435.814 98.2837 435.57 101.916C435.479 103.288 435.388 104.664 435.317 106.041C435.283 106.729 435.25 107.417 435.231 108.101V108.617V109.506C435.231 109.535 435.188 109.549 435.168 109.568L434.872 109.798C434.778 109.87 434.677 109.933 434.571 109.984C434.485 110.027 434.399 110.08 434.313 110.113C432.917 110.682 431.507 110.735 430.116 110.806C428.726 110.878 427.339 110.806 425.968 110.744C423.826 110.629 421.723 110.448 419.625 110.266L416.49 109.951C415.974 109.898 415.438 109.841 414.951 109.822C414.463 109.803 413.923 109.822 413.416 109.86C412.504 109.908 411.619 109.998 410.716 110.123C409.043 110.367 407.968 110.658 407.193 110.825C406.663 110.972 406.114 111.041 405.564 111.031C405.383 111.034 405.202 111.023 405.023 110.997C404.823 110.94 405.023 110.735 405.597 110.424C406.477 109.979 407.404 109.633 408.36 109.391C410.252 108.907 412.194 108.643 414.148 108.603C414.396 108.603 414.626 108.603 414.898 108.603C415.171 108.603 415.424 108.632 415.677 108.651L417.14 108.794L420.051 109.095C421.991 109.291 423.946 109.468 425.901 109.573C427.838 109.706 429.783 109.689 431.718 109.521C432.382 109.459 433.037 109.318 433.668 109.1L433.873 109.019L433.959 108.971L434.017 108.937V108.732V108.163C434.055 106.662 434.141 105.176 434.232 103.689C434.418 100.721 434.638 97.7579 434.863 94.7993L434.877 94.7563Z" fill="#231F20"/>
<path d="M437.583 70.6678C435.848 67.3221 432.751 63.8903 429.778 61.5866C429.52 61.3858 428.454 61.8877 428.597 61.9976C431.766 64.4313 434.401 67.4897 436.34 70.9833C436.484 71.2653 437.669 70.8112 437.583 70.6487V70.6678Z" fill="#231F20"/>
<path d="M407.911 110.112C412.005 109.164 416.251 109.076 420.381 109.854C427.383 111.135 434.83 109.333 434.83 109.333C434.83 109.333 433.076 113.501 421.055 111.335C414.139 110.093 408.685 112.033 407.457 112.033C406.759 112.033 407.911 110.112 407.911 110.112Z" fill="#231F20"/>
<path d="M423.483 154.2L423.483 175.1L358.417 175.1" stroke="#C7C7C7" stroke-width="1.1" stroke-dasharray="2.2 2.2"/>
<rect x="1" y="0.5" width="584.5" height="239" rx="3.5" stroke="black" stroke-opacity="0.1"/>
<defs>
<clipPath id="clip0_692_4514">
<rect width="141.9" height="141.9" fill="white" transform="translate(214.828 67.3)"/>
</clipPath>
</defs>
</svg>
