<svg width="307" height="140" viewBox="0 0 307 140" fill="none" xmlns="http://www.w3.org/2000/svg">
<path d="M102.283 32.4754C101.207 41.4653 92.9237 48.8982 83.9338 47.8219C74.9438 46.7457 68.6489 37.5742 69.726 28.5777C70.803 19.5812 78.9633 13.1719 87.9532 14.2481C96.9432 15.3244 103.359 23.4854 102.283 32.4754Z" fill="#FDC4C4"/>
<g opacity="0.3">
<path d="M84.4668 23.6635C84.4668 23.6635 88.5485 21.3837 90.2165 22.9427C91.8844 24.5016 91.2641 26.6473 90.2165 27.9715C88.9928 29.5137 87.811 29.3796 87.811 29.3796L84.4668 23.6635Z" fill="black"/>
</g>
<g opacity="0.3">
<path d="M89.0508 30.3689L91.5652 36.2862C91.5652 36.2862 95.5715 35.0541 96.0157 32.7576C96.46 30.4611 93.2163 27.9467 89.0508 30.3689Z" fill="black"/>
</g>
<path d="M91.0706 36.9986L92.2273 39.4124C92.5458 40.0662 93.518 39.4962 93.2079 38.8425L92.0429 36.4286C91.7328 35.7665 90.7521 36.3448 91.0706 36.9986Z" fill="black"/>
<path d="M83.2005 20.6047L84.4493 23.2197C84.7678 23.8735 85.7401 23.2952 85.43 22.6414L84.1728 20.0348C83.8626 19.381 82.882 19.951 83.2005 20.6047Z" fill="black"/>
<path d="M93.8034 35.6823L94.9684 38.0962C95.2785 38.75 96.2592 38.18 95.9407 37.5263L94.784 35.1124C94.4655 34.4587 93.4933 35.0286 93.8034 35.6823Z" fill="black"/>
<path d="M85.9499 19.2969L87.2071 21.9035C87.5172 22.5573 88.4978 21.9874 88.1794 21.3336L86.9305 18.7186C86.612 18.0649 85.6398 18.6348 85.9499 19.2969Z" fill="black"/>
<path d="M93.0906 24.0494C93.0779 23.8487 93.0355 23.651 92.9649 23.4627C92.8859 23.2394 92.7818 23.0257 92.6548 22.8258C92.3941 22.4266 92.044 22.0937 91.6323 21.8535C91.3333 21.6904 91.0063 21.5852 90.6684 21.5434C90.2311 21.465 89.781 21.4996 89.3609 21.644C89.21 21.6943 89.0089 21.7865 88.8329 21.8535L86.6705 22.7587C86.0335 23.0353 85.4133 23.3454 84.8014 23.6723C84.0462 24.1414 83.2389 24.5211 82.3959 24.8038C81.8511 24.9379 81.7925 23.1945 82.7061 22.7419C84.3296 21.9207 86.0102 21.2177 87.7349 20.6382C87.9947 20.546 88.2462 20.4454 88.506 20.3365C88.8094 20.2021 89.1234 20.0927 89.4447 20.0096C90.1122 19.8334 90.8139 19.8334 91.4814 20.0096C92.1709 20.2213 92.8032 20.5871 93.3303 21.0794C93.8574 21.5717 94.2656 22.1775 94.5238 22.8509C94.8423 23.6964 94.8423 24.6288 94.5238 25.4743C94.0502 26.6777 93.1571 27.6691 92.0094 28.2653C91.3054 28.6928 90.593 29.2711 89.8973 29.7739C89.7381 29.8829 89.5956 30.0086 89.4363 30.1176C88.8329 30.5115 88.5982 30.5367 88.221 30.2349C88.1456 30.1679 88.0534 30.1008 87.978 30.0254C87.7433 29.7739 87.8522 29.38 88.2462 29.0196C88.8468 28.5076 89.4794 28.0345 90.1404 27.6032L90.6433 27.2679L90.9031 27.1003L91.0288 27.0165L91.23 26.9075C91.4997 26.7534 91.7501 26.5677 91.9759 26.3543C92.3144 26.0761 92.5859 25.7251 92.7702 25.3276C92.9545 24.93 93.0468 24.496 93.0403 24.0578L93.0906 24.0494Z" fill="black"/>
<path d="M95.8905 33.2856C96.196 32.9513 96.4158 32.5478 96.5312 32.1099C96.6465 31.6719 96.6538 31.2125 96.5526 30.7711C96.4327 30.4433 96.2692 30.1332 96.0665 29.8492C95.4546 28.8099 94.0382 28.4579 92.6385 28.7428C92.3473 28.7989 92.0653 28.8947 91.8003 29.0278L90.8784 29.4972C90.1268 29.973 89.3187 30.3531 88.4729 30.6286C87.9281 30.7711 87.8694 29.0278 88.7746 28.5668C89.6798 28.1058 90.3587 27.7957 91.2891 27.4186C92.3056 27.0363 93.4089 26.9463 94.474 27.1587C95.1385 27.2826 95.7748 27.5269 96.3514 27.8795C96.9211 28.2577 97.3923 28.7663 97.726 29.3631C98.0987 30.0012 98.2926 30.7278 98.2876 31.4668C98.2771 32.1882 98.09 32.8962 97.7428 33.5286C97.3446 34.2789 96.7692 34.9205 96.0665 35.3977L95.8486 35.5318L95.6223 35.6491L95.2367 35.8335L94.4656 36.2023C93.9544 36.4454 93.4431 36.6968 92.9402 36.965C92.1691 37.3841 91.4483 37.8786 90.7107 38.3395C90.5431 38.4401 90.3923 38.5575 90.2246 38.6497C89.596 39.0017 89.3446 39.0017 89.0093 38.6497C88.9277 38.5807 88.852 38.505 88.783 38.4234C88.5651 38.1468 88.6992 37.7696 89.1183 37.4427C90.4342 36.4766 91.8372 35.6348 93.309 34.9283L94.9853 34.0902L95.0858 34.0399L95.2283 33.9477C95.324 33.8826 95.4163 33.8126 95.5049 33.7382C95.6816 33.5823 95.8443 33.4112 95.991 33.2269L95.8905 33.2856Z" fill="black"/>
<path d="M83.494 23.6636C86.2257 28.051 88.4739 32.7216 90.1991 37.5935C90.5679 38.6328 92.2274 38.1802 91.8754 37.1409C90.1137 32.1246 87.8091 27.3158 85.0026 22.8003C84.4243 21.8615 82.9408 22.7248 83.5191 23.6384L83.494 23.6636Z" fill="black"/>
<path d="M101.029 42.3964C102.616 40.9597 104.019 39.243 105.254 37.374C105.473 37.0366 105.708 36.6746 105.881 36.3381C106.041 35.9936 106.257 35.6822 106.399 35.3289C107.593 32.9194 107.939 30.0249 107.753 27.1657C107.667 25.8924 107.436 24.6216 107.107 23.3919C106.897 22.5998 106.688 21.8077 106.48 21.009C106.299 20.2005 106.179 19.3728 106.063 18.5257C106 17.9958 106.089 18.0328 106.459 18.3615C106.692 18.568 106.962 18.8052 107.242 19.057C107.543 19.3576 107.87 19.7273 108.128 20.1616C108.332 20.5563 108.488 20.9717 108.664 21.3763L108.907 22.0005L109.088 22.6438C109.309 23.5034 109.496 24.3722 109.634 25.2616C109.905 27.0266 109.99 28.8553 109.766 30.6734C109.475 32.8273 109.1 35.1365 107.959 37.1556C107.352 38.2467 106.704 39.181 106.005 40.1619C105.644 40.641 105.302 41.1224 104.91 41.5781L104.338 42.27L103.729 42.9312C102.721 44.0074 101.615 45.0189 100.377 45.8561C98.5287 47.1557 96.385 48.0496 94.1934 48.5146C93.7697 48.6292 93.34 48.6836 92.9161 48.7452C92.4863 48.7996 92.065 48.8946 91.6319 48.9221C90.7753 48.9518 89.9078 49.0728 89.0561 48.951C88.6764 48.9188 88.3082 48.9011 87.9301 48.8559C87.2357 48.7463 86.8062 48.5229 86.5073 48.3681C86.21 48.2003 86.0673 48.0113 85.9684 47.7878C85.9214 47.683 85.8541 47.5824 85.8382 47.4945C85.7724 47.2155 86.3854 47.0112 87.364 46.9564C88.8086 46.931 90.2323 46.8038 91.6315 46.6606C91.9814 46.6099 92.3214 46.5316 92.6664 46.4671C93.0106 46.4091 93.3548 46.3511 93.6856 46.2386C94.0157 46.1327 94.3599 46.0747 94.6934 45.9956L95.6787 45.6639L96.0437 45.5423L96.3939 45.3792L97.0999 45.0603C97.5687 44.8453 98.007 44.554 98.4724 44.3121C98.8991 44.0061 99.3489 43.7293 99.765 43.4022C100.17 43.054 100.604 42.7488 100.981 42.3575L101.023 42.3956L101.029 42.3964Z" fill="black"/>
<path d="M91.784 49.5819C90.147 49.7231 88.5087 49.5997 86.8919 49.4062C85.2806 49.167 83.6953 48.7656 82.1614 48.2116C80.6468 47.6071 79.1553 46.9194 77.7993 45.9834C76.4499 45.0481 75.1894 43.9781 74.1348 42.7343C72.5627 40.9524 71.2638 38.9322 70.3892 36.7379C69.6014 34.8119 69.133 32.7588 68.9424 30.7059C68.759 28.6472 68.797 26.5622 69.1985 24.5339C69.587 22.5041 70.2454 20.5396 71.1544 18.6911C72.1002 16.8668 73.3031 15.1593 74.7288 13.69C77.2757 11.0854 80.4603 9.11917 83.8864 8.00843C86.0865 7.30638 88.3972 6.89531 90.7143 6.92804C91.2924 6.90468 91.8695 7.00021 92.4463 7.04282C93.0247 7.07239 93.5906 7.20626 94.1596 7.31405C94.4433 7.37447 94.7301 7.40881 95.0034 7.50104L95.8226 7.78426L96.6352 8.0667L97.4188 8.42502C98.7072 9.04214 98.4323 9.12827 97.2219 9.07593C96.9181 9.07263 96.5661 9.03048 96.1483 9.03998C95.7371 9.05027 95.2722 9.06734 94.7812 9.0813C94.2902 9.09526 93.7577 9.12409 93.2096 9.11798C92.663 9.09884 92.0787 9.17436 91.4784 9.16201C90.9514 9.14521 90.4177 9.24001 89.8925 9.2631C89.3632 9.26586 88.8401 9.38178 88.3176 9.43825C87.7893 9.48742 87.2762 9.63098 86.7612 9.73464C86.2405 9.83101 85.7381 9.99569 85.2307 10.1465C84.9762 10.2285 84.7241 10.2909 84.4753 10.3801L83.7398 10.669L83.0043 10.9579C82.7655 11.0747 82.5332 11.1924 82.2959 11.2963L81.576 11.6201C81.3372 11.7369 81.1156 11.8757 80.8825 11.9999C80.4221 12.2556 79.9567 12.4974 79.5291 12.8099C75.996 15.0915 73.2728 18.5612 71.9464 22.6807C70.2755 27.579 70.9916 33.4177 73.5817 38.0194C75.02 40.5324 76.9896 42.8049 79.474 44.3125C80.0723 44.728 80.7441 45.0266 81.3836 45.3743C82.065 45.6476 82.7214 45.9643 83.431 46.1682C84.8212 46.6521 86.2763 46.9255 87.7382 47.0873C91.3472 47.4863 95.0814 46.8951 98.3308 45.3268C100.777 44.1186 102.937 42.314 104.503 40.0614C106.087 37.8177 107.084 35.1796 107.527 32.4751C107.699 31.4245 107.793 30.3579 107.788 29.2993C107.795 28.2421 107.717 27.1879 107.57 26.1454C107.305 24.0571 106.741 22.0257 105.967 20.0947C105.605 19.2513 105.213 18.4438 104.795 17.6202C104.033 16.0874 103.398 15.1517 103.049 14.4222C102.693 13.6919 102.563 13.1804 102.484 12.7345C102.449 12.5254 102.366 12.2839 102.362 12.1512C102.357 11.9191 102.642 12.026 103.269 12.3655C103.889 12.7044 104.774 13.379 105.634 14.4804C106.292 15.28 106.869 16.1557 107.429 17.0494C107.955 17.9653 108.416 18.9199 108.805 19.9187C109.606 21.8992 110.133 24.0188 110.402 26.1869C110.842 30.5245 110.203 35.143 108.104 39.1965C106.568 42.1999 104.207 44.8467 101.304 46.6217C100.598 47.1059 99.8166 47.4422 99.0686 47.8354C98.2851 48.1383 97.515 48.4958 96.7017 48.7158C95.1057 49.2323 93.4524 49.5105 91.7966 49.6429L91.784 49.5819Z" fill="black"/>
<path opacity="0.17" d="M255.393 135.788C263.944 136.812 271.706 130.71 272.73 122.159C273.753 113.607 267.651 105.846 259.1 104.822C250.549 103.798 242.787 109.9 241.764 118.451C240.74 127.002 246.842 134.764 255.393 135.788Z" fill="black"/>
<g opacity="0.3">
<path d="M265.212 115.198C265.212 115.198 266.286 119.749 264.329 120.925C262.373 122.102 260.479 120.917 259.493 119.547C258.345 117.947 258.798 116.847 258.798 116.847L265.212 115.198Z" fill="black"/>
</g>
<g opacity="0.3">
<path d="M257.507 117.769L251.127 118.565C251.127 118.565 251.214 122.755 253.301 123.812C255.387 124.869 258.695 122.439 257.507 117.769Z" fill="black"/>
</g>
<path d="M250.578 117.894L247.939 118.344C247.223 118.471 247.505 119.563 248.219 119.444L250.859 118.985C251.581 118.868 251.294 117.767 250.578 117.894Z" fill="black"/>
<path d="M268.501 114.82L265.644 115.304C264.928 115.431 265.218 116.525 265.931 116.406L268.783 115.911C269.497 115.792 269.217 114.693 268.501 114.82Z" fill="black"/>
<path d="M251.094 120.882L248.453 121.341C247.739 121.46 248.019 122.559 248.735 122.432L251.373 121.981C252.089 121.854 251.808 120.763 251.094 120.882Z" fill="black"/>
<path d="M269.005 117.822L266.154 118.316C265.44 118.435 265.719 119.534 266.435 119.407L269.292 118.923C270.008 118.796 269.727 117.705 269.005 117.822Z" fill="black"/>
<path d="M262.477 123.386C262.674 123.429 262.876 123.442 263.076 123.426C263.313 123.411 263.547 123.37 263.774 123.302C264.229 123.161 264.645 122.916 264.989 122.586C265.228 122.343 265.419 122.057 265.552 121.744C265.747 121.345 265.837 120.902 265.813 120.459C265.806 120.3 265.773 120.081 265.757 119.894L265.479 117.566C265.388 116.877 265.259 116.196 265.113 115.518C264.869 114.663 264.725 113.783 264.684 112.894C264.705 112.334 266.397 112.755 266.582 113.758C266.927 115.544 267.142 117.353 267.226 119.171C267.244 119.446 267.272 119.715 267.305 119.995C267.351 120.324 267.37 120.656 267.362 120.987C267.349 121.678 267.156 122.353 266.804 122.946C266.411 123.551 265.886 124.059 265.268 124.431C264.65 124.803 263.956 125.029 263.237 125.093C262.337 125.167 261.44 124.912 260.714 124.374C259.687 123.588 258.978 122.458 258.72 121.19C258.502 120.396 258.141 119.553 257.848 118.746C257.787 118.563 257.705 118.391 257.644 118.208C257.43 117.52 257.471 117.287 257.864 117.007C257.949 116.953 258.039 116.883 258.132 116.831C258.438 116.674 258.787 116.887 259.026 117.365C259.354 118.083 259.635 118.821 259.869 119.575L260.053 120.15L260.143 120.446L260.189 120.59L260.239 120.813C260.313 121.115 260.423 121.407 260.567 121.682C260.741 122.084 261.004 122.441 261.336 122.728C261.668 123.014 262.06 123.222 262.483 123.335L262.477 123.386Z" fill="black"/>
<path d="M252.827 123.547C253.065 123.932 253.393 124.254 253.782 124.485C254.172 124.716 254.612 124.849 255.064 124.873C255.412 124.847 255.755 124.775 256.084 124.658C257.251 124.354 257.978 123.089 258.087 121.665C258.113 121.369 258.099 121.072 258.043 120.78L257.845 119.765C257.593 118.912 257.449 118.031 257.416 117.142C257.428 116.579 259.121 117 259.316 117.997C259.511 118.994 259.623 119.732 259.731 120.73C259.82 121.812 259.604 122.898 259.108 123.864C258.806 124.469 258.397 125.014 257.9 125.472C257.38 125.916 256.762 126.23 256.096 126.387C255.38 126.571 254.628 126.558 253.919 126.35C253.228 126.143 252.599 125.769 252.086 125.261C251.473 124.673 251.014 123.943 250.748 123.137L250.679 122.89L250.628 122.641L250.556 122.219L250.413 121.377C250.319 120.818 250.218 120.258 250.098 119.701C249.906 118.844 249.628 118.015 249.387 117.18C249.336 116.991 249.265 116.814 249.222 116.627C249.056 115.926 249.125 115.684 249.555 115.458C249.644 115.399 249.737 115.347 249.835 115.303C250.161 115.169 250.487 115.401 250.686 115.894C251.254 117.424 251.679 119.004 251.955 120.614L252.302 122.455L252.322 122.566L252.372 122.728C252.408 122.838 252.45 122.946 252.498 123.052C252.599 123.264 252.719 123.468 252.856 123.659L252.827 123.547Z" fill="black"/>
<path d="M265.479 114.263C260.511 115.687 255.403 116.569 250.245 116.892C249.144 116.962 249.124 118.682 250.22 118.628C255.527 118.309 260.784 117.412 265.896 115.951C266.957 115.652 266.533 113.988 265.496 114.294L265.479 114.263Z" fill="black"/>
<path d="M269.584 128.89C269.929 128.548 270.269 128.192 270.59 127.827L271.491 126.712C272.035 125.924 272.562 125.114 272.972 124.231L273.207 123.756L273.386 123.255C273.506 122.919 273.624 122.589 273.757 122.255C274.621 119.898 275.079 117.341 275.069 114.774C275.071 114.206 275.02 113.638 274.983 113.065C274.891 112.505 274.848 111.931 274.708 111.385C274.374 109.976 273.984 108.594 273.379 107.292C273.177 106.884 273.229 106.89 273.587 107.105C273.766 107.212 274.057 107.373 274.332 107.624C274.476 107.747 274.645 107.88 274.798 108.037C274.923 108.204 275.047 108.391 275.162 108.589C275.593 109.296 275.851 110.067 276.049 110.845C276.162 111.229 276.253 111.623 276.319 112.014C276.384 112.406 276.482 112.801 276.515 113.195C276.748 114.777 276.662 116.38 276.467 117.957C276.209 119.837 275.912 121.819 275.203 123.651C274.434 125.662 273.309 127.544 271.897 129.174C271.027 130.148 270.091 131.06 269.085 131.899C267.57 133.172 265.851 134.216 264.043 135.012C262.64 135.63 261.189 136.151 259.647 136.383C259.309 136.448 258.974 136.481 258.63 136.48C258.313 136.481 258.043 136.469 257.821 136.449C257.601 136.409 257.421 136.361 257.283 136.305C256.999 136.192 256.841 136.021 256.737 135.777C256.691 135.665 256.625 135.558 256.597 135.456C256.525 135.123 257.044 134.822 257.873 134.742C258.177 134.686 258.488 134.631 258.793 134.568C259.102 134.526 259.4 134.416 259.703 134.373C260.006 134.323 260.306 134.247 260.607 134.164C260.907 134.087 261.213 134.018 261.503 133.914C262.691 133.547 263.862 133.046 264.976 132.412C266.631 131.46 268.183 130.257 269.549 128.846L269.585 128.877L269.584 128.89Z" fill="black"/>
<path d="M277.598 117.286C277.451 120.343 276.685 123.373 275.293 126.102C273.883 128.823 271.839 131.204 269.388 133.007C267.592 134.312 265.62 135.372 263.505 136.025C261.647 136.629 259.693 136.878 257.753 136.904C256.777 136.939 255.812 136.823 254.851 136.728C253.901 136.548 252.94 136.4 252.018 136.091C251.074 135.853 250.192 135.436 249.304 135.066C248.445 134.612 247.585 134.179 246.8 133.609C245.21 132.526 243.758 131.234 242.57 129.723C241.52 128.387 240.568 126.951 239.896 125.383C239.807 125.187 239.711 124.997 239.628 124.802L239.409 124.2C239.273 123.794 239.101 123.403 238.992 122.993L238.683 121.759C238.574 121.349 238.545 120.923 238.47 120.504C238.165 118.358 238.199 116.14 238.671 114.021C238.813 113.496 238.936 112.968 239.097 112.452L239.668 110.94C239.873 110.442 240.153 109.98 240.414 109.508C240.663 109.035 240.992 108.605 241.289 108.165C242.066 107.087 242.113 107.358 241.9 108.476C241.84 108.76 241.773 109.096 241.703 109.464C241.637 109.846 241.598 110.285 241.529 110.746C241.514 110.982 241.441 111.205 241.399 111.445C241.364 111.685 241.327 111.939 241.29 112.192C241.203 112.697 241.08 113.225 241.014 113.779C240.943 114.266 240.826 114.742 240.807 115.235C240.768 115.72 240.677 116.205 240.679 116.688C240.681 117.171 240.649 117.657 240.67 118.142L240.789 119.584L241.035 121.009C241.158 121.474 241.294 121.939 241.403 122.402C241.54 122.862 241.711 123.312 241.861 123.773C242.032 124.223 242.252 124.653 242.436 125.098C244.117 128.573 247.067 131.492 250.637 133.208C252.783 134.226 255.244 134.719 257.71 134.664C260.17 134.608 262.645 134.044 264.878 133.009C267.335 131.875 269.54 130.195 271.259 128.093C272.967 125.983 274.099 123.427 274.696 120.761C275.408 117.467 275.265 113.965 274.256 110.736C272.807 105.828 269.181 101.486 264.416 99.6987C262.576 98.9957 260.614 98.7013 258.691 98.7422C256.764 98.7628 254.857 99.123 253.049 99.7464C252.245 100.001 251.51 100.395 250.719 100.711C250.015 101.063 249.419 101.348 248.932 101.608C248.449 101.88 248.06 102.098 247.705 102.241C247.002 102.534 246.538 102.657 246.085 102.682C245.885 102.698 245.647 102.755 245.515 102.752C245.285 102.738 245.396 102.474 245.729 101.899C245.89 101.607 246.142 101.267 246.455 100.868C246.784 100.491 247.237 100.128 247.738 99.7056C248.118 99.4007 248.532 99.1461 248.936 98.8638C249.144 98.73 249.34 98.5816 249.554 98.4551L250.205 98.0966C251.067 97.5848 252.018 97.2622 252.967 96.8997C254.9 96.2716 256.964 95.9367 259.059 95.9494C261.149 96.0012 263.267 96.3673 265.257 97.1477C267.248 97.9151 269.116 99.0447 270.732 100.461C273.11 102.578 274.941 105.237 276.073 108.157C277.213 111.064 277.771 114.186 277.645 117.285L277.585 117.291L277.598 117.286Z" fill="black"/>
<path opacity="0.17" d="M224.338 27.4396C223.299 36.1166 215.424 42.3022 206.753 41.2642C198.083 40.2261 191.891 32.3498 192.929 23.6793C193.967 15.0088 203.486 11.1096 210.514 9.85474C219.115 8.31883 225.376 18.7691 224.338 27.4396Z" fill="black"/>
<path d="M209.314 23.1472C209.314 22.9033 209.366 22.6621 209.465 22.4394C209.565 22.2167 209.71 22.0175 209.892 21.8546C209.919 21.8349 209.951 21.8227 209.985 21.8193C210.019 21.8159 210.053 21.8215 210.083 21.8353C210.114 21.8492 210.141 21.8709 210.161 21.8983C210.18 21.9257 210.193 21.9579 210.196 21.9915C210.196 22.2652 210.196 22.5592 210.221 22.8431C210.221 22.9495 210.221 23.7048 210.221 24.5615C210.233 25.4242 210.093 26.2823 209.806 27.096C209.748 27.2528 209.67 27.4012 209.573 27.537C209.472 27.6942 209.351 27.8374 209.213 27.9628C209.143 28.0347 209.065 28.0976 208.979 28.1504L208.772 28.2822L208.721 28.3126H208.767C208.767 28.3126 208.736 28.3126 208.832 28.3481L209.263 28.5559C209.436 28.6725 209.593 28.8043 209.77 28.9259C209.948 29.0476 209.917 29.0628 209.993 29.1236C210.092 29.2459 210.177 29.3785 210.247 29.519C210.31 29.6617 210.348 29.8144 210.358 29.9702L210.308 30.4416L210.166 30.9231C210.09 31.1462 210.11 31.0803 210.1 31.1006V31.131L210.064 31.2019C210.022 31.2832 210.001 31.3739 210.003 31.4655C210.003 31.4655 210.003 31.5517 210.09 31.3996C210.135 31.3236 210.15 31.3287 210.201 31.2374C210.252 31.1462 210.242 31.1513 210.287 31.1513L210.328 31.1056V31.0803L210.389 31.0144C210.42 30.9798 210.454 30.9476 210.49 30.9181C210.562 30.857 210.642 30.8058 210.728 30.766C210.811 30.7222 210.9 30.6914 210.992 30.6748H211.048H211.24H211.382H211.458L211.58 30.7052C211.782 30.7623 211.979 30.837 212.168 30.9282C212.492 31.0752 212.781 31.2222 213.075 31.3743L214.789 32.2614C214.96 32.3237 215.121 32.4127 215.265 32.525C215.561 32.7824 215.906 32.9772 216.279 33.0978L217.739 33.6959C217.855 33.7415 217.962 33.7973 218.068 33.8429C218.164 33.8792 218.256 33.9251 218.342 33.9798C218.388 34.0071 218.432 34.0376 218.474 34.071C218.489 34.0886 218.498 34.1111 218.498 34.1344C218.498 34.1577 218.489 34.1802 218.474 34.1977C218.241 34.3346 218.474 34.3701 218.524 34.4056C218.575 34.4411 218.575 34.4461 218.565 34.4765C218.501 34.5275 218.429 34.5685 218.352 34.5982C218.283 34.6281 218.209 34.6453 218.134 34.6489C218.053 34.6489 217.967 34.6489 217.881 34.6489C217.465 34.6493 217.05 34.6051 216.644 34.5171C216.008 34.3836 215.38 34.2144 214.763 34.0102L212.477 33.113C212.198 33.0015 211.909 32.895 211.651 32.8037C211.519 32.7581 211.392 32.7125 211.291 32.6872C211.249 32.6745 211.207 32.6644 211.164 32.6568V32.5199L211.19 32.3019C211.193 32.2469 211.204 32.1924 211.22 32.1397C211.222 32.0958 211.222 32.0518 211.22 32.0079C211.225 31.9624 211.225 31.9165 211.22 31.871V31.8051C211.222 31.7969 211.222 31.7881 211.22 31.7798C211.223 31.7718 211.225 31.7632 211.225 31.7545C211.225 31.7458 211.223 31.7371 211.22 31.7291L211.98 32.3121L211.955 32.3475L211.879 32.4591L211.691 32.7227L211.362 33.1941C211.164 33.4779 211.022 33.701 210.946 33.7871C210.668 34.1854 210.358 34.5601 210.019 34.9074C209.736 35.2613 209.421 35.5872 209.076 35.8807L207.641 37.0668C207.423 36.053 207.281 35.4194 207.271 35.3586C207.236 35.171 207.21 34.9733 207.19 34.7756C207.182 34.532 207.19 34.2881 207.215 34.0457C207.312 33.3899 207.482 32.7471 207.722 32.1296C207.834 31.8508 207.905 31.5872 207.991 31.3084L208.255 30.4466C208.259 30.4424 208.263 30.4373 208.265 30.4316C208.267 30.4259 208.269 30.4199 208.269 30.4137C208.269 30.4075 208.267 30.4014 208.265 30.3958C208.263 30.3901 208.259 30.385 208.255 30.3807C208.255 30.3807 208.214 30.3453 208.255 30.3453C208.233 30.3413 208.21 30.3413 208.189 30.3453L207.961 30.2895C207.879 30.2895 207.809 30.254 207.722 30.2439H207.393C206.654 30.2588 205.917 30.1596 205.208 29.9499C204.882 29.8385 204.566 29.6977 204.265 29.5292C203.974 29.376 203.691 29.2068 203.419 29.0222L203.292 28.9259C203.292 28.8752 203.348 28.8144 203.363 28.7587L203.409 28.6624L203.495 28.5356L203.652 28.3075C203.801 28.0342 204.009 27.7971 204.26 27.6131L204.422 27.4965L204.645 27.3849L204.868 27.2633L205.203 27.1416C205.999 26.965 206.811 26.8665 207.626 26.8476C207.797 26.8226 207.967 26.7853 208.133 26.7361C208.163 26.7057 208.209 26.7006 208.239 26.6651C208.321 26.5933 208.39 26.5075 208.442 26.4117C208.617 26.1223 208.752 25.8101 208.843 25.4841C208.96 25.0911 209.044 24.6894 209.096 24.2827C209.025 24.1154 209.314 23.3652 209.314 23.1472Z" fill="black"/>
<path d="M209.339 37.0519C209.037 37.4145 208.63 37.6747 208.174 37.797C207.972 37.8367 207.764 37.8209 207.57 37.7514L207.413 37.6805C207.352 37.6805 207.312 37.6348 207.266 37.6146C207.221 37.5943 207.129 37.4726 207.068 37.4067C206.8 37.036 206.677 36.5796 206.724 36.1243C206.723 35.8327 206.741 35.5414 206.78 35.2524C206.78 35.1155 206.815 34.9229 206.83 34.8418L206.866 34.5934C206.972 33.9344 207.104 33.2907 207.246 32.652L207.469 31.699L207.494 31.5925V31.5672V31.5216L207.53 31.4202C207.53 31.3695 207.438 31.3695 207.388 31.3543H207.347L207.231 31.329L206.83 31.258C205.61 31.0981 204.433 30.6984 203.368 30.082C203.221 29.9755 203.12 29.9096 202.907 29.7373L202.4 29.2304C202.278 29.0549 202.169 28.8701 202.075 28.6778C202.025 28.5861 201.999 28.4833 201.999 28.3788C201.999 28.2742 202.025 28.1714 202.075 28.0797C202.299 27.6823 202.659 27.3797 203.089 27.2281C203.426 27.0782 203.773 26.9529 204.128 26.853C204.716 26.6806 205.299 26.5488 205.887 26.4323C206.181 26.3748 206.475 26.3241 206.769 26.2802L206.987 26.2447H207.094H207.261C207.286 26.1788 207.307 26.0977 207.332 26.0217L207.484 25.4337L207.814 24.2221C208.042 23.4162 208.27 22.6153 208.554 21.8042L208.645 21.5457C208.68 21.4392 208.746 21.3074 208.797 21.1959C208.888 20.9644 209.028 20.7553 209.208 20.5826C209.434 20.4624 209.69 20.4113 209.945 20.4356C210.2 20.4599 210.443 20.5586 210.642 20.7194C210.75 20.7853 210.853 20.8582 210.951 20.9374L211.174 21.125C211.311 21.2568 211.453 21.3835 211.58 21.5153C212.087 22.0222 212.568 22.5747 213.045 23.0918C213.344 23.4162 213.638 23.7355 213.942 24.0498L214.393 24.5111C214.49 24.6023 214.566 24.6784 214.652 24.7544L214.88 24.7037L215.412 24.6226C215.767 24.577 216.127 24.5466 216.487 24.5314C217.229 24.4873 217.974 24.5644 218.692 24.7595C219.072 24.876 219.199 25.0484 219.133 25.165C219.067 25.2816 218.844 25.388 218.53 25.4894C217.614 25.7827 216.674 25.9914 215.721 26.1129L215.179 26.1889L214.718 26.27L214.14 26.3917L213.592 25.8341L213.324 25.5604L213.172 25.3982C212.969 25.1853 212.766 24.9673 212.573 24.7493L211.423 23.4517C211.048 23.0259 210.678 22.6001 210.313 22.2503C210.229 22.1665 210.141 22.0869 210.049 22.012C210.019 21.9816 210.049 22.0121 210.024 21.9816C210.017 21.9771 210.009 21.9746 210.001 21.9746C209.993 21.9746 209.985 21.9771 209.978 21.9816C209.978 21.9816 209.978 21.9816 209.943 22.012C209.887 22.154 209.796 22.4125 209.725 22.6203C209.573 23.0613 209.431 23.5125 209.294 23.9687L208.888 25.3475L208.691 26.0419L208.579 26.4373L208.417 27.0557L208.32 27.441L207.428 27.5272L206.845 27.6083C206.521 27.6539 206.191 27.7198 205.867 27.7857C205.226 27.917 204.596 28.0949 203.981 28.3179C203.874 28.3508 203.774 28.4042 203.687 28.4751C203.677 28.4841 203.668 28.4954 203.662 28.5081C203.656 28.5208 203.653 28.5346 203.653 28.5486C203.653 28.5626 203.656 28.5764 203.662 28.5891C203.668 28.6018 203.677 28.613 203.687 28.6221C203.724 28.6651 203.763 28.7057 203.804 28.7437C203.85 28.7913 203.901 28.8338 203.956 28.8705C204.075 28.9603 204.201 29.0416 204.331 29.1138C204.601 29.2692 204.884 29.3998 205.178 29.5041C205.722 29.7007 206.282 29.8533 206.85 29.9603L207.864 30.1428C208.321 30.2157 208.76 30.3702 209.162 30.599L208.878 31.7294L208.691 32.505C208.584 32.9612 208.488 33.4225 208.397 33.8787L208.27 34.5681L208.174 35.1814C208.134 35.3919 208.121 35.6064 208.133 35.8201C208.135 35.8755 208.151 35.9295 208.179 35.9773C208.197 35.9978 208.22 36.014 208.245 36.0245C208.271 36.0351 208.298 36.0397 208.326 36.0381C208.431 36.0126 208.526 35.9561 208.599 35.8759C208.68 35.7973 208.755 35.7126 208.822 35.6224C208.898 35.5261 208.929 35.4856 209.091 35.2524C209.598 34.4718 210.105 33.6506 210.612 32.8294L211.387 31.5266L212.026 31.8409L212.614 32.1197L213.481 32.505C214.059 32.7584 214.642 32.9916 215.23 33.2045C215.811 33.4196 216.405 33.5974 217.009 33.7367C217.297 33.8038 217.59 33.8495 217.886 33.8736C218.067 33.8953 218.251 33.8745 218.423 33.8128C218.494 33.7824 218.57 33.7367 218.58 33.6556C218.586 33.5783 218.575 33.5008 218.55 33.4275C218.524 33.3515 218.494 33.2805 218.464 33.2096L218.408 33.1082L218.322 32.946C218.058 32.4971 217.754 32.073 217.414 31.6787C217.077 31.2742 216.713 30.8931 216.325 30.5382L216.183 30.4064L216 30.2442L215.493 29.8184C215.164 29.5294 214.784 29.2456 214.479 28.9617L214.637 28.8755C214.991 28.6778 215.361 28.4852 215.701 28.2723C215.878 28.1709 216.031 28.0645 216.208 27.9631L216.385 27.8364L216.532 27.7401C217.957 26.7263 218.271 26.3359 218.808 26.2751C218.924 26.2438 219.043 26.2235 219.163 26.2143C219.33 26.2143 219.361 26.4069 219.229 26.7617C218.985 27.2656 218.64 27.7141 218.215 28.0797C217.865 28.3996 217.498 28.7007 217.115 28.982C217.064 29.0131 217.016 29.0506 216.973 29.0935L216.923 29.1442L216.857 29.2101C216.908 29.246 216.963 29.2782 217.019 29.3064C217.019 29.3064 217.019 29.3064 217.054 29.3317L217.166 29.4382L217.399 29.6511C217.551 29.793 217.693 29.9502 217.84 30.1022C218.449 30.7231 218.981 31.4139 219.427 32.1603L219.594 32.4644L219.822 32.9713C219.883 33.1538 219.934 33.3414 219.979 33.5238C220.006 33.6918 220.006 33.8628 219.979 34.0307V34.1575C219.979 34.193 219.939 34.2284 219.924 34.2639L219.797 34.487C219.723 34.6429 219.602 34.7722 219.452 34.857C219.136 35.0572 218.772 35.1709 218.398 35.1865C218.204 35.1992 218.009 35.1992 217.815 35.1865L217.45 35.151C217.217 35.1206 216.989 35.08 216.771 35.0344C216.33 34.9432 215.914 34.8266 215.503 34.6999C214.743 34.4565 214.013 34.1929 213.293 33.8837C212.933 33.7317 212.578 33.5796 212.224 33.4174L211.96 33.2957V33.3261L211.808 33.5897L211.174 34.634C210.961 34.9837 210.744 35.3335 210.515 35.6833C210.394 35.8607 210.292 36.0279 210.155 36.2155C209.936 36.5323 209.697 36.8353 209.441 37.1229L209.339 37.0519Z" fill="black"/>
<path d="M196.595 21.3345C195.395 23.3466 194.479 25.5909 194.001 27.868L193.88 28.4884L193.832 29.1173L193.783 29.7463L193.772 30.3865C193.658 33.3881 194.372 36.4758 195.743 39.2188C196.387 40.42 197.199 41.5355 198.128 42.4998C198.428 42.8069 198.766 43.0788 199.082 43.3679C199.405 43.6512 199.769 43.8733 200.107 44.1387C200.446 44.404 200.834 44.5828 201.182 44.8294C201.358 44.9563 201.545 45.058 201.732 45.1466C201.919 45.2482 202.085 45.4005 202.269 45.5282C202.703 45.8777 202.589 46.0559 202.008 46.2112C201.723 46.2762 201.284 46.4088 200.814 46.3526C200.36 46.2849 199.851 46.1116 199.355 45.8406C197.644 44.7761 196.188 43.3455 195.11 41.6954C194.017 40.0504 193.23 38.2302 192.749 36.3409C192.185 34.0912 191.704 31.6994 191.893 29.2952C192.093 26.6278 192.937 24.1632 194.041 21.8421C194.703 20.4004 195.558 19.0612 196.479 17.7762C197.913 15.8517 199.663 14.1568 201.637 12.806C202.389 12.2613 203.197 11.8092 204.011 11.3644L205.279 10.7755C205.72 10.6234 206.172 10.4924 206.618 10.354C207.012 10.216 207.414 10.1715 207.826 10.0953C208.59 9.9553 209.102 9.9901 209.462 10.0729C209.823 10.1557 210.024 10.2988 210.183 10.5163C210.257 10.6177 210.351 10.7149 210.386 10.8117C210.513 11.1311 209.93 11.4712 208.942 11.6572C207.477 12.0239 206.088 12.5784 204.732 13.2427C203.398 13.9492 202.128 14.8288 200.973 15.861C199.266 17.4156 197.83 19.3067 196.652 21.3545L196.608 21.336L196.595 21.3345Z" fill="black"/>
<path d="M198.664 13.8849C198.958 13.6358 199.288 13.424 199.605 13.2041C199.928 12.9914 200.24 12.7577 200.575 12.5597C201.254 12.1848 201.906 11.7669 202.625 11.4561C204.011 10.7559 205.497 10.2725 206.998 9.89011C210.009 9.20583 213.255 9.10505 216.265 9.9217C218.467 10.4762 220.585 11.3448 222.468 12.5688C224.146 13.6358 225.627 14.9637 226.946 16.4244C228.251 17.8965 229.407 19.5095 230.266 21.2853C231.139 23.0496 231.754 24.9285 232.115 26.8828C232.202 27.3693 232.222 27.8676 232.276 28.3568L232.346 29.0926C232.37 29.3401 232.34 29.5878 232.344 29.8329L232.299 31.3088L232.092 32.7652C231.58 36.2152 229.994 39.4574 227.782 42.0888C226.333 43.7536 224.622 45.2284 222.624 46.2324C220.636 47.2575 218.347 47.6513 216.18 47.4712C214.825 47.3553 215.042 47.2556 216.139 46.9307C216.414 46.8445 216.737 46.7443 217.101 46.6292C217.454 46.4401 217.856 46.2898 218.277 46.0889C218.488 45.9819 218.707 45.9156 218.922 45.776C219.142 45.6503 219.353 45.4969 219.583 45.3923C219.816 45.2746 220.047 45.1635 220.292 45.0539C220.526 44.9167 220.761 44.7794 221.003 44.6365C221.435 44.3972 221.865 44.171 222.253 43.8604L222.863 43.4573C223.07 43.33 223.272 43.1889 223.457 43.0259C223.833 42.7071 224.213 42.4022 224.583 42.0761L225.603 41.008C226.899 39.5232 227.904 37.8053 228.67 35.9925C229.456 34.1821 229.843 32.2183 229.906 30.2553C229.925 29.7616 229.958 29.2696 229.891 28.7788C229.837 28.2897 229.831 27.7864 229.744 27.2999L229.443 25.8355C229.343 25.3474 229.149 24.8679 229.015 24.3824C227.445 19.7706 223.665 15.7207 219.162 13.5616L218.23 13.1194C217.915 12.9891 217.584 12.8768 217.261 12.7587C216.625 12.4909 215.946 12.3633 215.289 12.1655C213.945 11.8989 212.574 11.6951 211.203 11.769C208.447 11.8159 205.701 12.6047 203.194 13.8255C200.142 15.3977 197.394 17.7004 195.53 20.6183C192.609 24.9701 191.842 30.7107 193.554 35.6304C194.896 39.4478 197.602 42.6416 200.979 44.6462C201.694 45.1352 202.498 45.4299 203.264 45.8323C206.245 47.0555 207.253 47.2489 207.861 48.0292C208.001 48.1848 208.206 48.3483 208.284 48.47C208.424 48.6851 208.144 48.8104 207.476 48.9221C207.137 48.9939 206.713 49.0027 206.198 48.9939C205.695 48.9404 205.113 48.831 204.462 48.6935C203.977 48.5959 203.51 48.4142 203.039 48.2587L202.328 48.0148C202.094 47.9208 201.87 47.8079 201.644 47.7016C201.195 47.4824 200.722 47.287 200.283 47.036C199.845 46.772 199.413 46.5087 198.975 46.2447C197.281 45.0963 195.73 43.6938 194.419 42.049C193.144 40.3821 192.112 38.5062 191.393 36.5025C190.661 34.4972 190.35 32.344 190.322 30.2047C190.338 27.0326 191.067 23.8201 192.585 21.0262C193.292 19.5965 194.256 18.3365 195.231 17.0976C196.271 15.9195 197.378 14.789 198.637 13.8354L198.678 13.8799L198.664 13.8849Z" fill="black"/>
<path opacity="0.17" d="M62.5016 119.544C61.5908 128.256 53.0109 134.913 44.3143 133.872C35.3243 132.795 28.9149 124.635 29.9904 115.652C31.0659 106.668 39.2269 100.252 48.2104 101.328C56.5158 102.322 62.9593 110.473 62.5658 118.732C62.5525 119.008 62.5336 119.277 62.5016 119.544Z" fill="black"/>
<path d="M33.8014 127.614C32.2237 125.216 31.3449 122.393 31.1389 119.585C31.0766 118.559 31.0346 117.529 31.136 116.516C31.189 116.073 31.2233 115.621 31.296 115.18L31.5399 113.86C31.7504 112.986 31.9796 112.121 32.2912 111.285C32.895 109.612 33.6872 108.02 34.6143 106.518C35.4348 105.188 36.3623 103.903 37.4011 102.738C38.078 101.999 38.7746 101.263 39.5702 100.637C39.9709 100.328 40.3716 100.019 40.806 99.7602C41.0203 99.6272 41.2354 99.4876 41.4539 99.3749C41.6846 99.2702 41.9318 99.194 42.1782 99.1243C42.8267 99.0102 42.7571 99.0945 42.474 99.6359C42.2059 100.219 41.6316 100.983 40.8102 101.659C39.3628 102.867 38.0049 104.212 36.8801 105.764C35.7309 107.299 34.7501 108.974 33.9866 110.767C33.5214 111.836 33.1731 112.978 32.9609 114.142C32.7797 115.324 32.6304 116.516 32.6406 117.701C32.5808 120.3 33.1628 122.895 34.3475 125.206C35.0838 126.623 36.0516 127.929 37.1838 129.077C38.8998 130.816 40.9621 132.26 43.1947 133.275C44.9253 134.064 46.7497 134.566 48.5757 134.891C48.9767 134.965 49.3759 135 49.7851 135.062C51.279 135.287 51.7313 135.487 52.0633 135.917C52.1371 136.018 52.2378 136.116 52.2863 136.208C52.4549 136.512 51.7799 136.848 50.5415 136.918C49.6232 136.967 48.7144 136.825 47.8072 136.67C46.9015 136.502 45.9956 136.281 45.0982 135.989C43.3077 135.424 41.5833 134.583 39.9517 133.574C37.5406 132.062 35.3737 130.057 33.7722 127.637L33.8087 127.608L33.8014 127.614Z" fill="black"/>
<path d="M61.5008 134.64C60.1224 135.493 58.6232 136.14 57.0823 136.584C55.5413 137.027 53.9531 137.313 52.3654 137.375C50.7768 137.442 49.194 137.352 47.6356 137.113C46.0804 136.847 44.5554 136.44 43.0786 135.906C40.9326 135.107 38.8691 134.059 37.0312 132.676C33.7945 130.271 31.1805 126.864 30.0605 122.907C28.9063 118.96 29.3776 114.692 30.8953 111.019C32.2407 107.735 34.2912 104.747 36.8415 102.334C38.499 100.807 40.3701 99.4832 42.4238 98.5124C42.9249 98.2484 43.4581 98.0477 43.9906 97.8535C44.2596 97.7601 44.523 97.6594 44.797 97.5798L45.6217 97.3743L46.4457 97.1754L47.2871 97.0513C47.5638 97.0051 47.8488 96.9995 48.1296 96.9736C48.4146 96.9681 48.6973 96.9821 48.975 96.9823C50.3841 97.0319 50.1717 97.2049 49.0756 97.6886C47.9764 98.1985 46.1237 99.1471 44.0376 100.167C42.1586 101.06 40.4293 102.248 38.8925 103.651C37.3508 105.04 35.9525 106.612 34.8239 108.361C33.6888 110.11 32.7996 112.014 32.2228 114.014C31.6338 116.007 31.3906 118.094 31.5854 120.167C31.7287 121.401 32.0234 122.64 32.4897 123.826C32.9837 125.003 33.615 126.137 34.3754 127.187C35.1634 128.227 36.061 129.18 37.0404 130.058C38.0424 130.912 39.1222 131.67 40.2528 132.334C45.2314 135.211 51.4748 136.197 56.9755 134.382C60.3356 133.27 63.311 131.008 65.3947 128.129C66.1994 127.042 66.8512 125.851 67.3716 124.597C67.9108 123.352 68.2867 122.035 68.5257 120.701C68.7785 119.363 68.8822 118 68.8401 116.639C68.8422 115.958 68.7581 115.28 68.7 114.606C68.5882 113.938 68.5041 113.26 68.3378 112.605C67.4148 108.494 65.1512 104.811 62.0381 102.203C61.3527 101.632 60.6237 101.148 59.876 100.655C59.1669 100.226 58.5819 99.8649 58.0569 99.6103C57.8021 99.474 57.5726 99.3473 57.3611 99.236C57.148 99.1378 56.9545 99.0419 56.7806 98.9483C56.0936 98.5553 55.7118 98.2649 55.4183 97.8991C55.2856 97.7377 55.0868 97.5751 55.0153 97.4541C54.8888 97.2406 55.1824 97.1633 55.8802 97.1345C56.2343 97.1041 56.6734 97.1368 57.1822 97.2507C57.4406 97.3014 57.717 97.3676 58.0122 97.4426C58.3066 97.5241 58.6029 97.6456 58.926 97.7636C62.783 99.1842 66.0632 102.275 68.1576 105.991C70.2627 109.727 71.266 114.106 71.0296 118.455C70.9289 120.07 70.6636 121.678 70.2247 123.246C69.7597 124.81 69.116 126.32 68.3049 127.737C66.6689 130.577 64.3116 132.979 61.5417 134.684L61.5073 134.64L61.5008 134.64Z" fill="black"/>
<path d="M50.891 116.83C48.5309 115.013 45.5681 114.166 44.0499 116.743C42.0579 120.124 47.2519 125.107 51.6685 125.107C51.6685 125.107 40.3602 122.981 38.8697 117.957C37.3791 112.933 41.0181 112.184 42.8354 111.696C45.3473 111.029 48.9633 113.711 48.9633 113.711L50.891 116.83Z" fill="black"/>
<path d="M57.847 120.29C58.8775 118.818 58.2886 115.961 56.453 114.99C55.1694 114.309 52.5977 114.452 50.8955 117.525C50.8955 117.525 52.5149 110.712 55.5375 109.378C58.5601 108.043 60.8005 109.465 61.164 110.965C61.5274 112.465 61.6102 115.202 60.4647 117.244C59.3191 119.287 57.847 120.29 57.847 120.29Z" fill="black"/>
<path d="M53.8355 111.889C53.2972 112.455 52.8234 113.104 52.4185 113.799L52.1287 114.328C52.0827 114.415 52.0413 114.507 51.9999 114.599C51.9171 114.774 51.8343 114.962 51.7606 115.156C51.618 115.547 51.4846 115.952 51.3512 116.347L50.9694 117.502L50.2195 116.715C49.971 116.453 49.718 116.177 49.4972 115.97L48.8209 115.303L48.6507 115.137L48.5449 115.05L48.3378 114.88C47.795 114.415 47.1969 114.024 46.585 113.661C45.6143 113.118 44.5516 112.74 43.5072 112.579C42.5871 112.432 41.6624 112.547 41.0505 112.957C40.9815 113.016 40.9125 113.072 40.8389 113.127C40.7653 113.187 40.6871 113.292 40.6135 113.371C40.5399 113.458 40.4571 113.541 40.3881 113.628L40.1994 113.904C40.0568 114.079 39.9924 114.286 39.882 114.475L39.7762 114.774C39.7348 114.87 39.7072 114.972 39.6934 115.078C39.4955 115.901 39.6934 116.807 40.1074 117.654C40.5307 118.5 41.1655 119.278 41.8648 119.996C43.13 121.256 44.685 122.273 46.3044 123.064C47.3487 123.57 48.4252 124.012 49.5294 124.366C50.0814 124.55 50.6381 124.693 51.1948 124.854C51.7515 125.024 52.3127 125.167 52.8878 125.309C53.6055 125.47 53.5273 125.479 52.8878 125.65C52.5704 125.723 52.0965 125.87 51.5214 125.93C51.2316 125.972 50.9187 125.999 50.5829 125.995C50.2563 125.972 49.9112 125.926 49.5616 125.847C47.0681 125.305 44.7218 124.242 42.6193 122.77C41.5704 122.024 40.5675 121.187 39.721 120.143C38.8929 119.103 38.1752 117.838 38.0234 116.347C37.9359 115.469 38.0832 114.525 38.4788 113.73C38.6674 113.325 38.9159 112.966 39.1781 112.621L39.6013 112.147C39.7394 111.991 39.9602 111.83 40.1442 111.678C40.9493 111.112 41.8878 110.955 42.7297 110.965C43.5854 110.978 44.3905 111.149 45.1634 111.379C46.3228 111.751 47.3901 112.303 48.3746 112.97C48.6139 113.145 48.8715 113.302 49.0969 113.495L49.442 113.776L49.6168 113.914C49.6858 113.969 49.6812 113.973 49.718 114.006C49.8238 114.107 49.9526 114.222 50.04 114.314L50.2839 114.581C50.3483 114.387 50.4219 114.19 50.5185 113.987L50.6703 113.661L50.8589 113.297C50.9786 113.053 51.1304 112.823 51.2684 112.589C51.8297 111.678 52.5198 110.845 53.3387 110.136C54.1576 109.437 55.1237 108.844 56.2232 108.582C56.4348 108.545 56.6419 108.494 56.8535 108.466L57.493 108.43L58.1186 108.466C58.3257 108.489 58.5373 108.531 58.7443 108.563C59.577 108.724 60.4097 109.157 60.994 109.833C61.5967 110.5 61.8681 111.365 61.9739 112.188C62.0751 113.016 62.0107 113.835 61.8635 114.622C61.3758 117.065 60.2763 119.264 58.8225 121.224C58.4959 121.652 58.1738 122.07 57.8012 122.471C57.4516 122.834 57.1525 123.129 56.8811 123.349C56.6096 123.575 56.3842 123.745 56.1634 123.846C55.9426 123.943 55.7632 124.007 55.5837 124.026C55.4089 124.039 55.2479 124.026 55.1053 124.003C54.9719 123.98 54.8246 123.984 54.7372 123.957C54.59 123.906 54.6498 123.727 54.8108 123.372C54.9718 123.013 55.2985 122.586 55.7678 122.107C57.1479 120.672 58.3671 119.011 59.2596 117.189C59.6966 116.278 60.0509 115.326 60.2579 114.369C60.3545 113.891 60.4097 113.417 60.4189 112.957C60.4189 112.501 60.3591 112.064 60.2349 111.682C60.1521 111.388 60.0049 111.158 59.8485 110.937C59.669 110.739 59.4758 110.56 59.2228 110.431C58.7443 110.155 58.0542 110.049 57.3871 110.063C56.122 110.086 54.8568 110.854 53.8631 111.926L53.8309 111.903L53.8355 111.889Z" fill="black"/>
<path d="M155.748 5.6387C154.746 5.55841 153.74 5.56364 152.733 5.52246C151.729 5.51466 150.723 5.52641 149.709 5.5439C148.971 5.57461 148.245 5.67938 147.508 5.69706C144.918 5.79686 142.311 5.97412 139.731 6.36623C138.587 6.53343 137.456 6.81458 136.33 7.0501C135.615 7.2224 134.893 7.39392 134.172 7.56544C133.455 7.75078 132.735 7.91577 131.999 8.03932C131.54 8.11663 131.523 7.86996 131.819 7.50194C132.113 7.14045 132.719 6.6112 133.525 6.28451C134.246 6.00712 134.975 5.77041 135.713 5.52145C136.439 5.25136 137.193 5.09026 137.947 4.92265C138.702 4.74851 139.459 4.60775 140.226 4.49463C140.988 4.37421 141.755 4.26109 142.529 4.2082C143.457 4.13415 144.388 3.98109 145.327 3.8687C146.267 3.74979 147.212 3.58525 148.163 3.5404L149.722 3.4427L151.287 3.40524C152.331 3.36479 153.372 3.39032 154.41 3.39551C155.052 3.39299 155.688 3.43609 156.333 3.46043C156.971 3.4905 157.61 3.50753 158.252 3.55794C159.222 3.62781 160.187 3.69039 161.151 3.81242L162.593 3.97186C163.074 4.04266 163.549 4.10615 164.03 4.17694C164.773 4.26592 165.509 4.36063 166.252 4.45612C166.99 4.53128 167.723 4.65206 168.46 4.79319C168.782 4.85829 169.102 4.89653 169.429 4.98197C170.024 5.14582 170.401 5.31 170.643 5.5042C170.885 5.69187 170.993 5.89002 171.048 6.15442C171.073 6.27644 171.118 6.39429 171.119 6.50016C171.123 6.85114 170.554 7.02105 169.679 6.98244C167.104 6.72709 164.467 6.38492 161.775 6.16846C160.775 6.06861 159.778 5.94268 158.774 5.88194C157.767 5.78782 156.761 5.74012 155.747 5.70468L155.753 5.65252L155.748 5.6387Z" fill="black"/>
<path d="M160.511 14.1243C159.247 13.9728 157.971 13.8598 156.686 13.8184C156.219 13.8021 155.749 13.8583 155.281 13.8485C153.628 13.849 151.956 13.8935 150.303 14.1122C149.567 14.1828 148.841 14.3405 148.122 14.486L146.753 14.8246C146.296 14.9418 145.839 15.0525 145.368 15.1217C145.072 15.1656 145.041 14.9304 145.203 14.6258C145.371 14.3219 145.743 13.9234 146.269 13.7285C148.145 13.0802 150.089 12.5855 152.094 12.5148C152.694 12.4808 153.297 12.4141 153.906 12.3548C154.509 12.2816 155.126 12.2165 155.736 12.197C157.074 12.1257 158.419 12.1611 159.76 12.2225C160.585 12.2948 161.404 12.3532 162.224 12.4711C162.843 12.5452 163.467 12.6332 164.081 12.753C164.698 12.8467 165.31 12.986 165.924 13.0993C166.875 13.2727 167.832 13.4004 168.755 13.7027C168.959 13.7668 169.166 13.8048 169.367 13.8884C170.109 14.2087 170.295 14.4227 170.275 14.8699C170.27 14.9685 170.277 15.0751 170.259 15.1722C170.188 15.4877 169.789 15.6119 169.244 15.5268C168.844 15.4458 168.433 15.3966 168.017 15.3402C167.607 15.278 167.198 15.2158 166.78 15.1723C165.976 14.99 165.141 14.8372 164.306 14.6844C163.061 14.4824 161.797 14.265 160.518 14.178L160.524 14.1323L160.511 14.1243Z" fill="black"/>
<path d="M254.962 68.7271C254.371 66.9238 253.595 65.1778 252.75 63.4565C252.414 62.8409 252.027 62.259 251.697 61.6442C250.473 59.5006 249.123 57.4081 247.556 55.4683C246.859 54.6111 246.134 53.7638 245.367 52.9844L243.868 51.4823C243.35 50.9971 242.854 50.5013 242.369 49.9737C242.071 49.647 242.251 49.5231 242.685 49.595C243.112 49.6726 243.823 49.923 244.489 50.4326C245.627 51.3689 246.762 52.3313 247.792 53.3936L248.569 54.1876L249.273 55.0521C249.738 55.6369 250.205 56.2086 250.613 56.8393C251.112 57.5802 251.676 58.289 252.193 59.0454C252.727 59.7837 253.272 60.5301 253.74 61.3135C254.82 63.01 255.708 64.8157 256.541 66.6413C256.798 67.2011 257.006 67.788 257.241 68.3585C257.484 68.9298 257.685 69.5159 257.873 70.1005C258.025 70.5419 258.176 70.9898 258.308 71.4354L258.66 72.8001C258.923 73.6979 259.076 74.6287 259.299 75.5283C259.592 76.9454 259.961 78.3386 260.119 79.7792C260.154 80.0942 260.25 80.4032 260.204 80.7283C260.114 81.9276 259.923 82.3016 259.4 82.5299C259.281 82.5818 259.167 82.6541 259.051 82.6799C258.67 82.7731 258.325 82.2887 258.098 81.4747C257.413 79.0783 257.163 76.6348 256.546 74.1671L256.181 72.8008L256.004 72.1185L255.788 71.4445L255.389 70.0743C255.245 69.6206 255.074 69.1768 254.916 68.7281L254.965 68.701L254.962 68.7271Z" fill="black"/>
<path d="M243.02 72.5413C242.682 71.7735 242.305 71.0009 241.844 70.2712C241.67 70.0058 241.475 69.7576 241.294 69.5045C240.686 68.5654 240.045 67.6224 239.31 66.7475C238.979 66.364 238.626 65.9977 238.249 65.6682C237.771 65.2342 237.249 64.8476 236.85 64.3171C236.724 64.15 236.919 63.9617 237.228 63.8599C237.537 63.7646 237.969 63.7502 238.285 63.9798C239.37 64.804 240.391 65.7263 241.217 66.8369C241.454 67.1761 241.734 67.4874 242.02 67.7994C242.293 68.1229 242.571 68.4472 242.828 68.7888C243.364 69.5539 243.872 70.3421 244.301 71.1738C244.585 71.6772 244.804 72.2193 245.039 72.7433C245.358 73.5618 245.634 74.4016 245.843 75.2532C245.942 75.5825 246.015 75.9152 246.108 76.2437C246.207 76.573 246.265 76.9172 246.316 77.2671C246.337 77.4218 246.379 77.5722 246.38 77.7245C246.364 78.3044 246.23 78.4802 245.746 78.5479C245.639 78.5615 245.524 78.5808 245.417 78.5879C245.047 78.5898 244.758 78.3503 244.662 77.9949C244.383 76.9498 244.114 75.9389 243.843 74.8947C243.638 74.1164 243.335 73.3329 242.997 72.565L243.033 72.5429L243.02 72.5413Z" fill="black"/>
<path d="M46.3803 68.3715C46.935 66.9963 47.5021 65.6293 48.1132 64.2807C48.337 63.7917 48.5053 63.2697 48.7545 62.7903C49.6007 61.0798 50.5538 59.4151 51.5487 57.7885C51.9733 57.059 52.4117 56.3246 52.8175 55.5863C53.1099 55.1319 53.3966 54.6703 53.7078 54.2248C54.0248 53.7867 54.3916 53.3743 54.7935 52.9992C55.0464 52.765 55.3117 53.0348 55.4623 53.4893C55.6055 53.9495 55.6652 54.6113 55.3788 55.1258C54.9024 56.0673 54.4145 56.9942 53.8392 57.8775C53.2942 58.7843 52.737 59.6831 52.1586 60.5925C51.4598 61.6793 51.0226 62.9561 50.4946 64.1625C49.9373 65.5042 49.3293 66.8267 48.8021 68.1919C48.4644 69.0243 48.1455 69.8656 47.8453 70.7158C47.387 72.0033 46.9344 73.2981 46.5666 74.603C46.2673 75.612 46.1489 76.6558 45.8381 77.6502C45.7717 77.8737 45.7256 78.093 45.6534 78.3092C45.3775 79.1226 45.1653 79.3484 44.7267 79.4216C44.6258 79.4359 44.5226 79.4699 44.4305 79.4655C44.1194 79.4679 43.9634 79.0591 43.9755 78.4059C43.9868 77.9245 44.0054 77.4374 44.0314 76.9446C44.0508 76.4509 44.0833 75.9589 44.1939 75.4762C44.3819 74.5134 44.5918 73.5334 44.8972 72.5847C45.3247 71.1679 45.8304 69.7604 46.3362 68.353L46.3883 68.3592L46.3803 68.3715Z" fill="black"/>
<path d="M53.517 73.7155C53.8168 72.8124 54.1869 71.931 54.5569 71.0495C54.688 70.7279 54.7938 70.3967 54.9379 70.0768C55.4679 68.9632 56.0478 67.8754 56.7086 66.8303C57.0083 66.3703 57.259 65.8779 57.5653 65.4186L57.8447 64.9627L58.1682 64.5254C58.3751 64.2327 58.6629 63.9828 58.9771 63.789C59.1776 63.6609 59.3918 63.9709 59.5168 64.3628C59.6467 64.7685 59.6888 65.1901 59.49 65.4705C58.7377 66.4517 58.0798 67.583 57.3349 68.7238C56.8832 69.4037 56.6383 70.234 56.3337 71.0109C55.9871 71.8621 55.6773 72.7376 55.361 73.6123C55.1773 74.1524 54.9806 74.6909 54.8222 75.2406C54.5773 76.0709 54.3186 76.9062 54.1642 77.754C54.0325 78.4127 54.0319 79.0805 53.9726 79.7413C53.9554 79.8847 53.9644 80.0312 53.9472 80.1746C53.8759 80.715 53.7325 80.8631 53.284 80.9086C53.1839 80.9165 53.0822 80.9373 52.9763 80.9379C52.6392 80.9372 52.4 80.6705 52.3644 80.2497C52.2365 78.9978 52.4417 77.7263 52.7242 76.4707C52.9287 75.5363 53.2113 74.6113 53.4932 73.6928L53.5323 73.6975L53.517 73.7155Z" fill="black"/>
</svg>
