<?xml version="1.0" encoding="utf-8"?>
<!-- Generator: Adobe Illustrator 26.5.0, SVG Export Plug-In . SVG Version: 6.00 Build 0)  -->
<svg version="1.1" id="landing-fish" class="landing-svg" xmlns="http://www.w3.org/2000/svg" xmlns:xlink="http://www.w3.org/1999/xlink" x="0px" y="0px"
	 viewBox="0 0 363.5 425.7" style="enable-background:new 0 0 363.5 425.7;" xml:space="preserve">
<style type="text/css">
	.st0{fill:#c74249;}
</style>
<g id="CIRCLE">
	<circle class="st0" cx="114.3" cy="301.5" r="114.3"/>
</g>
<g id="DRAW">
	<g id="l8E8rn">
		<path d="M108.6,326.3c0,0.8,0,1.3-0.1,1.9c-0.1,1-0.1,2.1,0.1,3.1c0.1,1.1,0.2,2.1,0.1,3.2c0,0.2-0.1,0.4-0.3,0.5
			c-0.6,0.5-1.5,0.8-2.3,0.8c-0.7-0.1-1.4-0.1-2.1,0c-0.6,0-1.2,0.2-1.6,0.7c-0.1,0.2-0.4,0.2-0.5,0c-0.1-0.2-0.3-0.3-0.4-0.5
			c-0.6-0.4-1.1-0.9-0.7-1.8c-0.2-1.1-0.3-2.2-0.1-3.3c0,0,0-0.1,0-0.2c0.1-0.5-0.9-0.6-0.6-1.2c0.2-0.4,0.2-0.8,0.1-1.3
			c-0.1-0.5-0.1-1-0.2-1.5c0-0.4-0.2-0.7-0.3-1.1c-0.1-0.2-0.1-0.5-0.1-0.8c0-0.2-0.2-0.3-0.3-0.3c0,0-0.1,0-0.1,0
			c-0.6,0.4-1.4,0.6-2,1.1c-0.6,0.3-1.3,0.6-2,0.7c-1.3,0.3-2.6,0.6-4,0.9c-0.3,0.1-0.5,0.3-0.4,0.6c0,0.9,0.1,1.8,0.1,2.6
			c0,0.7,0.1,1.3,0.2,2c0.1,0.8,0.3,1.6,0.7,2.3c0.2,0.3,0.2,0.6,0.1,0.9c-0.1,0.3-0.2,0.5-0.2,0.8c0.1,0.9-0.5,1.6-1.3,1.8
			c-0.7,0.2-1.3,0.7-2,1c-0.3,0.2-0.7,0.3-1.1,0.3c-0.5,0-1,0.1-1.4,0.4c-0.5,0.4-1.1,0.5-1.7,0.4c-0.9-0.1-1.7,0.1-2.4,0.6
			c-0.7,0.4-1.6,0.2-2-0.4c-0.1-0.1-0.2-0.3-0.2-0.5c-0.3-1-0.5-2.1-0.8-3.2c0-0.2,0-0.4,0.1-0.6c0.4-0.9,0.5-1.9,0.4-2.8
			c-0.1-0.3,0.2-0.7,0.2-1.1c-0.1-0.9,0.1-1.8,0.4-2.7c0.1-0.4-0.4-0.7-0.8-0.6s-0.6,0.3-0.9,0.3c-0.4,0.1-0.7,0.2-1.1,0.1
			c-0.6-0.3-1.4-0.3-2,0.1c-0.9-0.1-1,0.3-0.9,1c0,0.2-0.2,0.5-0.4,0.7c-0.6,0.9-0.9,2-0.9,3.1c0,0.2,0,0.4-0.1,0.6
			c-0.5,0.6-0.9,1.2-0.6,2.1c0,0.1-0.1,0.3-0.2,0.4c-0.6,0.7-0.8,1.6-0.6,2.5c0.2,0.5,0.1,1-0.2,1.3c-0.4,0.4-0.6,1-0.4,1.5
			c0.2,0.4,0.1,0.9-0.2,1.2c-0.4,0.4-0.4,1.1,0,1.5c0.2,0.3,0.3,0.7,0.1,1.1c-0.2,0.8-0.2,1.6-0.2,2.4c0.1,0.8,0.7,1.5,1.4,1.9
			c0.9,0.5,1.9,0.8,2.8,1.2c0.5-0.1,1,0.1,1.2,0.6c0.4,0.7,1.2,1.1,2,1c0.3,0,0.5,0,0.6,0.3c0,0.4,0.4,0.7,0.8,0.7
			c0.5,0,1,0.6,1.5-0.1c0.1-0.1,0.3-0.1,0.4,0c0.5,0.8,1.5,0.4,2,1c0.1,0.1,0.4-0.1,0.6-0.1s0.5-0.1,0.6,0c0.4,0.5,0.9,0.4,1.3,0.6
			c0.3,0.1,0.6,0.3,0.8,0.5c0.2,0.1,0.3,0.3,0.5,0.5c1.2,1.2,1.2,1.2-0.4,2c-0.3,0.1-0.5,0.2-0.8,0.2c-0.7,0.1-1.2,0.7-1.2,1.4
			c0,0.6-0.5,1.1-0.4,1.8c0,0.2-0.2,0.4-0.3,0.6c-0.4,0.9-0.9,1.7-0.5,2.8c0,0.2,0,0.4-0.1,0.6c-1,0.9-1.2,2.2-1.8,3.3
			c-0.1,0.2,0,0.5,0,0.8s0.1,0.4,0,0.5c-0.6,0.4-0.4,1.2-0.8,1.7c-0.3,0.2-0.4,0.6-0.3,1c0,0.1,0,0.4-0.1,0.4
			c-0.6,0.2-0.6,0.7-0.7,1.2s-0.7,1-0.5,1.7c-0.2,0.6-0.5,1.1-0.8,1.6c-0.3,0.4-0.2,0.7,0.1,1c0.1,0.2,0.1,0.4-0.1,0.5
			c0,0-0.1,0-0.1,0c-0.2,0.1-0.6,0.1-0.6,0.5c-0.2,1.1-0.9,2-1.2,3c-0.1,0.3-0.3,0.5-0.2,0.8c0.1,0.8-0.1,1.6-0.6,2.1
			c-0.2,0.3-0.3,0.6-0.1,0.9c0.1,0.2,0.2,0.4,0,0.6c-0.9,0.7-1.1,1.9-1.6,2.8c-0.2,0.4-0.2,0.9-0.6,1.3c-0.1,0.2-0.3,0.5-0.3,0.7
			c-0.5,1.4-0.9,2.8-1.4,4.2c-0.1,0.1-0.2,0.1-0.2,0.1c-0.1,0-0.2-0.1-0.2-0.2c-0.2-1.4-0.1-2.8,0.1-4.2c0.1-0.3,0.1-0.5,0-0.8
			c-0.1-0.2-0.1-0.4,0-0.6c0-0.4,0.1-0.9,0.1-1.3s-0.2-1.2,0-1.6s0.2-1,0.4-1.4c0.4-0.7,0.5-1.6,0.3-2.3c0-0.2,0-0.3,0.1-0.4
			c0.6-0.6,1-1.4,1-2.3c0.2-0.7,0.4-1.4,0.8-2c0.2-0.3,0.2-0.7-0.1-1c-0.1-0.1-0.1-0.3,0-0.4c0,0,0.1-0.1,0.2-0.1
			c0.4-0.1,0.8-0.5,0.8-0.9c0.1-0.6,0.5-1.2,0.4-1.9c0.1-1.2,0.6-2.3,1.2-3.3c0.6-0.7,0.9-1.5,0.9-2.4c0-0.4,0.1-0.9,0.4-1.2
			c0.8-1.4,1.4-2.9,1.8-4.4c0.1-0.4,0.4-0.8,0.7-1.1c0.2-0.2,0.3-0.5,0.2-0.7c-0.3-0.5,0-0.7,0.5-0.8s0.3-0.3,0.1-0.5
			s-0.3-0.6,0.1-0.8c0.1-0.1,0.3-0.2,0.4-0.3c0.2-0.2,0.2-0.5,0-0.7c-0.1-0.1-0.1-0.1-0.2-0.1c-0.4,0-0.9,0.1-1.3,0s-0.5-0.6-1-0.5
			s-0.6,0.1-0.7-0.3c-0.1-0.4-0.4-0.7-0.8-0.7c-1.4-0.4-2.7-0.8-4-1.3c-0.4-0.2-0.9-0.5-1.2-0.8c-0.2-0.1-0.3-0.3-0.5-0.4
			c-0.4-0.2-0.8-0.3-1.2-0.3c-0.5,0.1-0.3-0.6-0.6-0.8s-0.7-0.5-1-0.8c-0.4-0.4-0.7-0.8-0.8-1.4c-0.1-0.7-0.5-1.4-1.1-1.7
			c-0.3-0.2-0.2-0.4,0-0.7c0.4-0.7,0.4-0.9-0.3-1.3c-0.3-0.2-0.4-0.3-0.3-0.6c0.5-1.2,0.3-2.6,0.8-3.8c0.1-0.2,0-0.4-0.1-0.6
			c-0.1-0.2,0-0.5,0.1-0.7c0.1-0.1,0.2-0.3,0.2-0.5c-0.1-0.4-0.2-0.8-0.2-1.3c0-0.3,0.6-0.5,0.5-1c-0.1-0.5,0.1-1,0.4-1.3
			c0.3-0.2,0.4-0.6,0.3-1c-0.1-0.4,0-0.8,0.2-1c0.4-0.6,0.8-1.2,1-1.9c0.1-1,0.9-1.7,0.8-2.7c0.4-0.6,0.2-1.4,0.9-1.9
			c0.1-0.1,0.2-0.4,0.2-0.6c0.2-0.8,0.6-1.5,1.2-2.1c0.3-0.3,0.5-0.7,0.7-1.1c0.1-0.3,0.2-0.6,0.6-0.6s0.9,0.1,1,0.6
			c0.1,0.2,0.1,0.4,0.2,0.6c0.2,0.4,0.7,0.6,1.1,0.4c0.5-0.1,1.1-0.2,1.6-0.3c1-0.2,1.9-0.5,2.8-0.8c0.5-0.2,0.9-0.3,1.4-0.4
			c0.3-0.1,0.6-0.1,0.9,0c0.3,0.3,0.5,0.6,0.7,0.9c0.1,0.1,0.1,0.2,0.1,0.3c-0.4,0.7-0.2,1.6-0.8,2.3c-0.5,0.5-0.7,1.3-0.5,2
			c0.2,0.8-0.2,1.7,0.2,2.6c0,0.2,0,0.3-0.1,0.4c-0.6,0.5-0.5,1.2-0.6,1.8c0,0.5,0.2,1,0.4,1.5c0.1,0.1,0.3,0.2,0.4,0.2
			c1.3-0.2,2.6,0.3,3.9-0.4c0.2-0.1,0.4,0,0.6,0c0.7,0,1.3-0.2,1.9-0.5c0.6-0.3,0.6-0.5,0.1-0.9c-0.5-0.4-0.8-0.9-0.9-1.5
			c-0.1-0.8-0.1-1.5-0.1-2.3c-0.1-1.1,0-2.2,0-3.3s0.4-2.1,0.4-3.2c0-0.5,0.4-0.9,0.9-0.9c0.2,0,0.4,0.1,0.6,0.2
			c0.3,0.2,0.5,0.4,0.7,0.7c0.2,0.2,0.5,0.3,0.8,0.2c1.8-0.4,3.5-1.1,5.2-2c0.8-0.5,1.8-0.5,2.5-1.1c0.5,0,1.1-0.1,1.6-0.1
			c0.2,0,0.4,0.2,0.5,0.4c0.6,0.9,0.9,2,1.1,3.1c0,0.4,0.1,0.7,0.2,1.1c0,0.2,0.1,0.4,0.1,0.5c-0.4,0.7,0,1.4,0.2,2
			c0.2,0.6,0.3,1.2,0.3,1.8c-0.1,1.1,0.6,1.6,1.7,1.8c0.4,0.1,0.8,0.1,1.1,0.1c0.5,0,0.9-0.5,0.7-0.8s-0.1-1.1-0.2-1.6
			c-0.2-1,0.1-2.2-0.4-3.2c0.1-0.9,0.2-1.8,0.4-2.7c0.2-0.4,0-0.8-0.4-1c0,0,0,0,0,0c-0.2-0.1-0.3-0.3-0.5-0.5
			c-0.3-0.3-0.4-0.8-0.2-1.2c0.3-0.6,0.4-1.2,1.1-1.6c0.1-0.1,0.3-0.2,0.4-0.2c0.9,0.2,1.2-0.3,1.5-1c0.1-0.3,0.4-0.5,0.8-0.5
			c0.1,0,0.2,0,0.3-0.1c0.3-0.3,0.7-0.5,1.1-0.7c0.4-0.1,0.9,0.1,1.3,0c0.8-0.1,1.5-0.3,2.2-0.7c0.8-0.6,1.7-0.8,2.6-0.5
			c0.5,0.2,1.1-0.2,1.6,0c0.2,0,0.3,0,0.5-0.1c0.9-0.8,1.7,0,2.6,0c0.5,0.6,1.4,0.7,2,1c0.1,0,0.2,0.1,0.2,0.2
			c0,0.1-0.1,0.2-0.2,0.3c-0.3,0.2-0.6,0.4-1,0.5c-0.9,0.1-1.4,0.8-2.2,1c-0.3,0.1-0.4,0.4-0.3,0.7c0.2,0.7,0.4,1.5,0.6,2.2
			c0.1,0.4,0.3,0.8,0.5,1.2c0.4,0.5,0.5,1.1,0.5,1.7c0,0.4,0,0.9,0.1,1.3c0.1,0.5-0.2,0.9,0.2,1.4c0.2,0.4,0.4,0.9,0.4,1.4
			c0.1,0.5,0.3,1,0.4,1.6s0,1.1,0.4,1.6s-0.1,1,0.5,1.3c0.1,0.1,0.1,0.3,0.1,0.4c-0.2,0.3-0.1,0.7,0.2,0.9c0.1,0.1,0.2,0.3,0.1,0.4
			c-0.1,1.1,0,2.2,0.3,3.2c0,0.2,0,0.3,0,0.5c0,0.2-0.2,0.3-0.2,0.5c0.1,1-0.3,2.1-1.2,2.7c-0.1,0.1-0.3,0.2-0.3,0.4
			c-0.5,1.6-2,2.4-2.8,3.8c-0.9,0.2-1.1,1.4-2,1.5c-0.6,0.6-1.3,1-2.1,1.2c-0.3,0.9-1.3,0.9-1.9,1.4c-0.6,0.5-1.3,0.8-2,1.1
			c-0.4,0.2-0.8,0.5-1.2,0.8c-1.2,0.7-1,1.1-0.4,1.9c0.1,0.2,0.2,0.4,0.2,0.6c0.2,1,0.5,1.9,0.7,2.9c0,0.1,0,0.2,0.1,0.3
			c0.2,0.4,0.6,0.7,0.7,1.1c0,0.4,0.1,0.8,0.3,1.2c0.1,0.3,0,0.8,0.2,1.1c0.2,0.3,0.3,0.7,0.2,1.1c-0.1,0.6,0.2,1.2,0.7,1.6
			c0.3,0.2,0.5,0.5,0.2,0.8c-0.2,0.3-0.2,0.6,0,0.9c0.4,1.3,0.9,2.6,1.6,3.8c0.2,0.2,0.2,0.5,0.2,0.8c0,0.9,0,1.7,0.1,2.6
			c0,0.3,0,0.6,0.2,0.8c0.5,0.8,0.5,1.9,1.2,2.6c0.2,0.2,0.3,0.6,0.2,0.9c-0.4,0.8,0,1.7-0.1,2.6c0,0.3,0.3,0.5,0.6,0.5
			c0.1,0,0.2-0.1,0.3-0.1c0.2-0.2,0.5-0.4,0.8-0.5c0.6-0.2,1.2-0.4,1.8-0.8c0.4-0.1,0.8-0.2,1.2-0.3c0.4-0.2,0.8-0.2,1.2-0.1
			c0.3,0.1,0.7,0.1,1,0.1c0.6-0.1,1.1-0.1,1.7,0c0.5,0.2,1,0.3,1.5,0.5c0.8,0.3,1.5,0.8,2,1.5c0.7,1.1,1.5,2.1,2.4,3.1
			c1.2,1.2,2,2.8,2.1,4.5c0,0.3,0,0.5,0,0.8c0.1,1.3,0.1,1.3,1.3,1.9c0.3,0.2,0.6,0.3,0.6,0.7c0,0.2,0.1,0.4,0.2,0.6
			c0.4,0.3,0.4,0.9,0.8,1.1c0.3-0.3,0.7-0.5,1-0.9c0.9-0.8,1.8-1.6,2.6-2.4c0.1-0.1,0.4-0.2,0.6-0.2c1-0.3,1.9-0.8,2.8-1.3
			c0.2-0.2,0.5-0.3,0.8-0.3c1.1-0.2,2.2-0.6,3.2-1.3c0.1-0.1,0.2-0.3,0.4-0.3c1.1-0.2,2.2-0.3,3.4-0.4c1,0.1,2,0.2,3.1,0.1
			c0.1,0,0.3-0.1,0.3,0c0.5,0.5,1.2,0.1,1.7,0.2c0.7,0.2,1.5,0,2-0.5c1-0.7,1.8-1.7,2.3-2.9c0.1-0.3,0.1-0.5,0-0.8
			c-0.5-1.5-1.4-2.8-2.8-3.7c-1.1-0.7-2.2-1.6-3.3-2.4c-0.7-0.7-1.3-1.4-2.1-2c-0.9-1-2.2-1.5-3.5-1.4c-1-0.4-1.9,0-2.9-0.1
			s-1.9-0.3-2.9-0.4c-0.9-0.1-1.7-0.4-2.3-1c-0.7-0.6-1.3-1.3-1.7-2.2c-0.4-0.8-0.5-1.8-0.2-2.7c0.3-1,0.6-2.1,1-3.1
			c0.2-0.4,0.4-0.7,0.6-1c0.5-0.7,1.2-1.1,1.5-2c0-0.1,0.1-0.1,0.1-0.1c1.2-0.5,1.8-1.5,2.7-2.3c0.3-0.2,0.6-0.3,0.9-0.2
			c0.7,0.2,1.2,0.6,1.4,1.2c0.1,0.6,0.4,1.1,0.8,1.6c0.3,0.4,0,1,0.5,1.3c0.2,0.9,0.7,1.7,1.2,2.5c0.9,1.1,1.6,2.3,2.3,3.5
			c0.1,0.2,0.3,0.4,0.6,0.5c1.2,0.5,2.3,0.9,3.5,1.4c0.8,0.3,1.5,0.7,2,1.4c0.3,0.3,0.7,0.5,1.1,0.6c0.5,0.1,1,0.3,1.5,0.6
			c0.8,0.5,1.6,0.9,2.5,1.2c0.7,0.3,1.3,0.7,1.9,1.2c0.3,0.2,0.5,0.5,0.6,0.8c0.7,1.1,0.8,2.5,0.4,3.8c-0.2,0.6-0.1,1.2-0.4,1.7
			c-0.8,1.2-1.5,2.5-2.3,3.7c-0.2,0.4-0.5,0.7-0.9,0.9c-0.8,0.4-1.2,1.2-1.8,1.8c-0.1,0.2-0.1,0.4,0.1,0.6c0.1,0,0.1,0.1,0.2,0.1
			c0.3,0,0.6,0.1,0.8,0c0.6-0.5,1.1-1,1.6-1.6c0.3-0.6,0.9-1.1,1.5-1.4c0.4-0.1,0.7-0.4,0.7-0.8c0.2-1.3,1.2-2.2,1.9-3.2
			c0.5-0.7,1-1.3,1.6-1.8c0.2-0.2,0.4-0.6,0.7-0.7c1-0.4,1.3-1.3,1.6-2.2c0.3-0.6,0.4-1.2,0.4-1.9c0-0.4,0.2-0.8,0.5-1.2
			c0.4-0.7,0.5-1.5,0.3-2.2c-0.1-0.2-0.2-0.4-0.3-0.5c-0.3-0.3-0.6-0.6-1-0.9c-0.4-0.2-0.7-0.7-0.7-1.2c0-0.4-0.2-0.9-0.5-1.2
			c-0.3-0.3-0.5-0.7-0.7-1.1c-0.2-0.3-0.3-0.6-0.2-0.9c0.1-0.6,0.2-1.2,0.4-1.8c0.2-0.7,0.2-1.5-0.1-2.2c-0.1-0.3-0.2-0.6-0.2-0.9
			c0-0.8-0.6-1.2-0.8-1.9c-0.1-0.1-0.2-0.3-0.3-0.3c-1.1-0.4-2.1-1.2-3.3-1.3c-0.1,0-0.2,0-0.3,0c-1-0.7-2.4-0.6-3.4-1.4
			c-0.3-0.3-0.8-0.4-1.2-0.3c-0.4,0.1-0.9-0.1-1.1-0.5c-0.4-0.5-0.9-0.8-1.5-1c-1.3-0.5-2.3-1.5-2.9-2.7c-0.1-0.3-0.2-0.7-0.4-0.9
			c-0.8-0.6-0.6-1.4-0.5-2.1c0.1-1,0.6-1.9,1.4-2.5c0.3-0.2,0.5-0.5,0.7-0.7c0.2-0.2,0.4-0.3,0.6-0.5c1.5-0.6,3-1.4,4.3-2.3
			c0.2-0.1,0.5-0.3,0.7-0.3c0.8,0.2,1.3-0.4,1.9-0.8c0.6-0.5,1.4-0.9,2.2-1c0.7-0.1,1.4-0.4,2-0.8c0.9-0.5,1.8-1,2.8-1.4
			c1.5-0.6,2.7-1.6,3.7-2.9c0.5-0.5,0.5-1.4,0-1.9c-1-1.2-1.4-2.7-2.2-4c-0.2-0.5-0.4-1-0.5-1.5c-0.1-0.8-0.8-1.4-1.6-1.3
			c-0.4,0-0.9,0-1.3-0.1c-0.6-0.1-1.2,0.1-1.7-0.4c-0.1-0.1-0.3-0.1-0.5-0.1c-1-0.1-1.9-0.3-2.9-0.6c-1.3-0.4-2.4-1.3-3-2.6
			c-0.2-0.4-0.3-0.8-0.6-1.2c-0.8-1.2-1-2.7-0.6-4.1c0.1-0.5,0.3-1,0.4-1.5c0.6-0.2,0.5-1,0.8-1.3c0.4-0.3,0.6-0.7,0.8-1.2
			c0-0.1,0.1-0.2,0.2-0.3c1-0.4,1.5-1.2,2.2-1.9c0.1-0.1,0.3-0.2,0.4-0.3c0.8-1.2,2.1-1.4,3.3-1.7c0.6-0.1,1.1-0.4,1.7-0.5
			c0.8-0.2,1.6,0,2.3,0.4c0.5,0.3,1,0.7,1.7,0.5c0.2-0.1,0.4,0.1,0.4,0.3c0.1,0.3,0.3,0.6,0.7,0.7c1,0.4,1.9,1,2.7,1.8
			c1.1,1,2.3,1.8,3.6,2.5c0.4,0.2,0.8,0.5,1.2,0.8c0.4,0.2,0.9,0.4,1.3,0.5c0.4,0.2,0.6,0.7,1.1,0.9c0.7,0.2,1.3,0.6,1.8,1.2
			c0.1,0.1,0.2,0.1,0.3,0.2c0.5,0.1,1,0.3,1.5,0.5c0.4,0.3,0.5,0.9,0.7,1.4c0.1,0.1,0.2,0.2,0.4,0.3c0.3,0.1,0.6,0.4,0.5,0.8
			c0,1.2,0.1,2.4,0.4,3.6c0.1,0.5,0.1,1,0,1.5c-0.2,1.2-0.1,2.4-0.7,3.5c-0.1,0.2-0.1,0.4-0.2,0.6c-0.2,1.2-0.6,2.3-1.1,3.4
			c-0.2,0.6-0.3,1.1-0.5,1.7c-0.3,0.5-0.6,1-0.9,1.5c-0.1,0.1-0.1,0.2-0.1,0.3c-0.7,2.1-1.9,4-3.6,5.5c-0.3,0.3-0.6,0.6-0.9,0.9
			c-0.6,0.7-1.3,1.3-2.1,1.8c-1.2,0.8-2.5,1.4-3.8,1.8c-0.2,0.1-0.4,0.1-0.6,0.2c-0.7,0.5-1.5,0.8-2.4,1c-0.9,0.2-1.6,0.8-1.8,1.7
			c-0.2,0.9-0.6,1.9,0.2,2.7c0.1,0.1,0.1,0.3,0.1,0.4c-0.1,0.6,0.2,0.9,0.8,1c0.2,0,0.4,0.2,0.5,0.3c0.5,0.7,1.2,1.3,2,1.6
			c0.9,0.5,1.7,1,2.5,1.6c0.2,0.9,1.3,1.4,1,2.5c0,0.2,0.1,0.4,0.2,0.6c0.5,0.7,0.7,1.6,0.4,2.5c-0.1,0.2-0.1,0.3,0,0.5
			c0.3,0.7,0.4,1.4,0.3,2.1l0.1,2c0,0.2,0,0.3,0,0.5c0.5,0.9,0.3,2,0.7,3s-0.1,1.9-0.1,2.9c-0.9,1-0.8,2.5-1.9,3.3
			c-0.2,0.2-0.3,0.5-0.3,0.7c0,0.1,0.1,0.2,0.1,0.3c0.6-0.3,1.1,0.4,1.7,0c0.2-0.2,0.5-0.3,0.8-0.2c0.5,0.1,0.8,0,0.9-0.6
			c0.1-0.2,0.2-0.4,0.3-0.5c0.5-0.7,1-1.3,1.4-2c0.2-0.3,0.5-0.6,0.8-0.8c0.7-0.6,1.4-1.1,2-1.6c1.6-1.2,2.9-2.6,4-4.3
			c0.1-0.2,0.2-0.4,0.4-0.5c1.3-1.1,2.4-2.6,3-4.2c0.2-0.7,0.6-1.3,1.1-1.8c0.4-0.3,0.6-0.8,0.6-1.3c0.2-0.8,0.2-1.6,0-2.4
			c0.2-1.3-0.3-2.6-1.2-3.6c-0.5-0.7-1-1.5-1.5-2.2c-0.1-0.2-0.2-0.4-0.4-0.5c-0.8-0.6-1.3-1.3-1.6-2.2c-0.3-0.7-0.7-1.2-1.3-1.6
			c-0.4-0.2-0.6-0.7-0.5-1.1c0.1-0.6,0.1-1.3,0.2-2c0-1.3,0.7-2.6,1.8-3.3c0.1,0,0.1-0.1,0.1-0.1c0.3-0.4,0.6-0.8,1-1.1
			c0.5-0.2,0.9-0.4,1.3-0.6c0.9-0.7,1.8-1.3,2.7-2c0.7-0.6,1.5-1.1,2.3-1.5c0.8-0.2,1.4-0.6,1.9-1.2c0.2-0.2,0.4-0.3,0.7-0.4
			c1.6-0.6,3-1.8,4-3.2c0.6-1,0.9-2.1,0.9-3.3c0-0.5,0.2-1.1,0.2-1.6c0-1.7-0.1-3.5-0.3-5.2c-0.2-1.2-0.2-2.5-0.4-3.7
			s-0.6-2.5-0.9-3.8c0-0.2-0.1-0.3-0.2-0.4c-0.9-0.9-1.3-2.1-2.5-2.8c-0.2-0.2-0.4-0.5-0.6-0.8c-0.2-0.4-0.4-0.8-0.9-0.9
			c-0.1,0-0.2-0.1-0.2-0.2c-0.5-0.8-0.9-1.6-1.5-2.3c-0.7-1.2-1.6-2.3-2.5-3.3c-0.2-0.1-0.3-0.4-0.3-0.5c0.1-0.4-0.1-0.9-0.5-1
			c-0.4-0.2-0.6-0.6-0.6-1.1c0-0.7-0.3-1.3-0.7-1.8c-0.2-0.4-0.4-0.8-0.4-1.2c-0.4-1.3-0.3-2.6,0.1-3.8c0.1-0.3,0.2-0.5,0.2-0.8
			c0.1-0.7,0.4-1.3,1-1.6c0.9-0.5,1.8-1,2.7-1.5c0.8,0.2,1.3-0.3,2-0.5c1.3-0.2,2.7-0.5,4-0.6c1.7-0.2,3.5-0.1,5.2-0.2
			c0.5-0.1,1.1-0.1,1.6,0.2c0.1,0.1,0.2,0.1,0.3,0.1c0.9-0.4,1.8,0.2,2.7,0c1.2-0.1,2.5-0.1,3.8,0c1.1,0,2,0.9,2,2
			c0,0.2,0,0.3-0.1,0.5c-0.2,1.7-0.5,3.3-0.8,5c-0.1,0.4-0.1,0.7-0.1,1.1c0.1,0.9,0,1.8-0.2,2.6c-0.1,0.2-0.1,0.4-0.1,0.6
			c0.1,1,0.1,2.1-0.2,3.1c-0.2,1.4-0.7,2.8-1.4,4c-0.2,0.3-0.3,0.7-0.5,1c-0.4,0.8-0.9,1.6-1.6,2.3c-0.3,0.2-0.5,0.5-0.7,0.9
			c-0.3,0.5-0.3,1.1,0.1,1.5c0.4,0.4,0.7,0.8,0.9,1.3c0,0.2,0.1,0.3,0.2,0.4c0.2,0.2,0.6,0.3,0.7,0.5c0.2,0.6,0.4,1.3,0.5,1.9
			c0,0.3,0.1,0.6,0.3,0.9c0.4,0.5,0.6,1.1,0.5,1.7c0,0.1,0,0.2,0,0.3c0.2,0.3,0.4,0.6,0.5,1c0.1,1.4,0.2,2.8,0.3,4.2
			c-0.3,0.6,0.2,1.3-0.1,1.9c0.2,0.9,0.1,1.8-0.4,2.5c-0.3,0.8-0.5,1.7-0.6,2.5c0,0.9-0.5,1.6-0.5,2.5c0,0.9-0.2,1.7-0.5,2.6
			c-0.2,0.7-0.5,1.4-0.8,2.1c-0.2,0.7-0.7,1.4-1.4,1.7c-0.9,0.5-1.6,1.3-2.5,1.8s-1.7,0.9-2.6,1.3c-0.3,0.1-0.6,0.2-0.9,0.2
			c-1.3,0.2-2.6,0.6-3.7,1.2c-1.1,0.5-2.3,0.8-3.5,1.2c-0.7,0.2-1.3,0.5-2,0.8c-0.1,0-0.1,0.2-0.1,0.3c0,0.1,0.1,0.2,0.2,0.2
			c0.1,0.1,0.3,0.2,0.5,0.2c1-0.1,1.4,0.7,2.1,1.1c0.8,1.3,1.8,2.5,1.8,4.1c0,0.6,0.2,1.2,0.2,1.8c0,0.5,0.1,1.1,0.3,1.6
			c0.1,0.3,0.1,0.5,0.1,0.8c0,0.8,0,1.5,0,2.3c0,0.3,0,0.7-0.2,0.9c-0.3,0.5-0.5,1.1-0.4,1.7c0,1.5-0.8,2.9-2.1,3.6
			c-1,0.8-2.3,1.2-3.3,2c-0.3,0.2-0.6,0.4-0.7,0.6c-0.2,0.6-0.7,0.8-1,1.2s-1,0.6-1.2,1.1c-0.1,0.1-0.2,0.2-0.4,0.3
			c-0.3,0.2-0.7,0.1-0.7,0.6c0,0.3,0.3,0.5,0.9,0.5c0.4,0,0.8,0.2,1,0.6c0.2,0.3,0.6,0.4,0.8,0.7c1,1.3,1.3,3,1,4.7
			c-0.1,0.5-0.3,1-0.6,1.5c-0.2,0.4-0.5,0.5-0.8,0.1c-0.5-0.6-1-1.2-1.4-1.8c-0.1-0.1-0.1-0.2-0.1-0.3c0.2-1-0.6-1.5-1-2.2
			c-0.2-0.3-0.5-0.4-0.8-0.4c-0.5,0-1.1,0.2-1.6,0c-0.2,0-0.3,0-0.5,0.1c-0.6,0.4-1.3,0.6-2,0.6c-0.4,0.1-0.8,0.2-1.2,0.5
			c-0.4,0.2-0.6,0.5-0.5,0.7s0.4,0.2,0.7,0.3c1.6,0.4,3.1,1.2,4.3,2.3c0.4,0.3,0.6,0.8,0.8,1.2c0,0,0,0.1,0,0.2c0,0-0.1,0-0.1,0
			c-1-0.7-2.2-0.6-3.4-0.8s-2.3-0.2-3.4-0.4c-0.8-0.3-1.7-0.2-2.5,0.1c-0.9-0.2-1.8,0-2.4,0.7c-0.3,0.2-0.6,0.2-0.9,0.1
			c-0.5-0.2-1.1-0.1-1.6,0.2c-0.8,0.4-1.7,0.7-2.6,0.9c-0.2,0-0.4,0.1-0.6,0.2c-1,0.7-2.1,1.3-3.3,1.7c-0.6,0.2-1,0.6-1.4,1.1
			c-0.4,0.5-1,0.8-1.4,1.4c-0.3,0.4-0.8,0.5-0.8,1.1c0,0.2-0.4,0.5-0.7,0.6c-0.6,0.4-1.1,0.9-1.6,1.4c-0.5,0.5-0.7,1.1-0.7,1.8
			c0.1,0.5-0.1,1-0.5,1.2c-0.2,0.1-0.3,0.3-0.4,0.5c-0.1,0.3-0.1,0.7-0.6,0.6s-0.8-0.1-1.1-0.6c-0.3-0.6-0.3-1.3,0-1.9
			c0.3-0.6,0.6-1.3,0.9-1.9c0.1-0.2,0.5-0.4,0.2-0.7c-0.2-0.2-0.5-0.2-0.8-0.1c-0.5,0.1-1.2-0.1-1.6,0.5c-0.1,0.1-0.4,0.1-0.6,0.1
			c-0.2,0-0.4-0.1-0.6-0.2c-0.7-0.2-1-0.1-1.3,0.6c-0.2,0.4-0.4,0.7-0.7,1.1c-0.1,0.3-0.4,0.4-0.7,0.3c-0.2-0.1-0.3-0.2-0.3-0.4
			c-0.2-0.4-0.3-0.8-0.3-1.3c-0.1-0.3-0.3-0.4-0.5-0.6c-0.8-0.3-1.7-0.3-2.6,0c-1.5,0.3-3,0.5-4.5,0.8c-0.5,0.1-1.1,0.3-1.5,0.6
			c-0.5,0.4-1.1,0.7-1.7,0.8c-0.8,0.2-1.6,0.5-2.1,1.1c-0.1,0.2-0.3,0.3-0.5,0.4c-1.7,0.5-2.4,2-3.2,3.4c0,0-0.1,0.1-0.1,0.2
			c0.1,0.6,0.1,1.3-0.2,1.9c-0.2,0.6-0.2,1.2,0,1.8c0.1,0.6,0.1,1.2-0.1,1.7c0,0.4-0.2,0.8-0.6,1c-0.3,0.2-0.7,0.3-1,0.4
			c-0.3,0-0.5-0.1-0.6-0.4c0,0,0,0,0,0c-0.2-1-0.4-2-0.7-3c-0.2-0.9-0.3-1.8-0.3-2.7c0-1.3-0.2-2.7-0.5-4c0-0.3-0.2-0.5-0.5-0.4
			c0,0-0.1,0-0.1,0c-0.2,0-0.3,0.1-0.5,0.1c-0.9,0.2-1.1,0-1-0.8c0-0.2,0.1-0.4,0.3-0.5c0.3-0.2,0.6-0.4,0.9-0.7
			c0.1-0.1,0.1-0.3,0.1-0.4c-0.2-0.3-0.4-0.6-0.7-0.9c-1.3-1-2.3-2.4-2.9-3.9c-0.3-0.8-0.8-1.4-1.4-2c-0.1-0.1-0.4-0.4-0.5-0.3
			c-0.7,0.1-0.9-0.4-1.2-0.9c-0.3-0.5-0.9-0.9-1.5-0.8c-0.5,0-1-0.3-1.4-0.2c-0.4,0-0.8,0-1.3,0c-1,0-2,0.2-2.9,0.4
			c-0.6,0.1-1,0.7-0.8,1.3c0.1,0.3,0.2,0.6,0.5,0.7c0.2,0.2,0.3,0.3,0.2,0.5c-0.4,1.3,0.1,2.5,0.5,3.7c0.1,0.2,0.2,0.4,0.4,0.5
			c0.5,0.2,0.7,0.8,0.5,1.2c-0.1,0.5-0.1,1,0,1.5c0,0.2,0,0.4-0.1,0.6c0,0.2-0.5,0.4-0.7,0.2c-0.6-0.6-1.1-1.2-1.5-1.9
			c-0.5-1.3-1.2-2.5-1.8-3.7c-0.5-0.7-0.8-1.5-0.9-2.3c0-0.2-0.1-0.3-0.2-0.4c-0.6-0.4-0.4-1.1-0.5-1.6s-0.2-1.3-0.3-1.9
			c0-0.3-0.1-0.5-0.2-0.8c-0.6-0.8-1-1.8-1.2-2.8c0-0.1,0-0.3-0.1-0.3c-0.8-0.4-0.5-1.1-0.4-1.7c0.1-0.4,0-0.8-0.3-1
			c-0.3-0.2-0.4-0.5-0.4-0.9c0-0.9-0.3-1.7-0.8-2.4c-0.1-0.2-0.2-0.4-0.3-0.6c-0.1-0.7,0-1.4-0.6-2c-0.1-0.1-0.1-0.3-0.1-0.5
			c0-0.9-0.1-1.8-0.3-2.7c0-0.2,0-0.5-0.1-0.6c-0.7-0.6-0.5-1.3-0.3-2.1c0-0.3,0-0.5,0-0.8c0-0.1-0.2-0.2-0.3-0.2
			c-0.7-0.1-0.6-0.1-0.7-0.7s-0.3-1.3,0.1-1.9c0.1-0.1,0.1-0.3,0-0.5c-0.2-0.9-0.3-1.8-0.3-2.8c0-0.4-0.2-0.7-0.6-0.9
			c-0.3-0.2-0.5-0.6-0.3-0.9c0-0.1,0.1-0.1,0.1-0.2c0.4-0.6,1.1-1.1,1.4-1.8c0.1-0.2,0.4-0.2,0.6-0.3c0.7-0.3,1.3-0.7,1.9-1.2
			c1.2-0.9,2.3-1.8,3.5-2.7c0.4-0.3,0.5-0.7,0.8-1s0.7-0.5,1-0.8c0.5-0.6,1.1-1,1.8-1.4c0.3-0.1,0.5-0.6,0.8-1s0.3-0.7,0.7-0.8
			c0.5-0.1,0.9-0.5,0.9-1c0.1-0.3,0.2-0.6,0.3-0.9c0.1-0.2,0.1-0.4,0-0.6c-0.1-0.4-0.2-0.8-0.1-1.3c0-1-0.1-2-0.5-3
			c-0.2-0.3-0.2-0.7-0.2-1.1c0.2-0.8-0.5-1.3-0.5-2s0.3-1.3-0.2-1.9c-0.3-1.8-0.9-3.5-1.1-5.4c-0.1-0.2-0.1-0.4-0.3-0.6
			c0-0.1-0.1-0.3-0.1-0.4c0.6-1.1-0.3-1.9-0.6-2.7c-0.2-0.5-0.6-0.5-1.1-0.2c-0.3,0.3-0.8,0.4-1.2,0.2c-0.7-0.3-1.6-0.2-2.2,0.3
			c-0.5,0.3-1.1,0.5-1.7,0.7c-0.6,0.1-1,0.5-1.7,0.4s-1,0.3-1.2,1.1C108.3,324.8,108.3,325.6,108.6,326.3z M201.4,290.6v-0.1
			c-0.4,0-0.8,0-1.1,0.2c-0.6,0.3-1.2,0.5-1.9,0.6c-1.2,0.3-2.4,0.8-3.4,1.5c-0.8,0.6-1.7,1.2-1.2,2.4c-0.4,1.1,0.2,2,0.3,3
			c0.1,0.4,0.2,0.7,0.5,1c0.7,0.8,0.9,2,1.8,2.7c0.1,0.1,0.1,0.3,0.2,0.5c0.2,0.6,0.6,1.2,1,1.7c0.4,0.5,0.7,1,1,1.5
			c0.1,0.2,0.2,0.5,0.3,0.5c0.8,0.3,0.9,1.2,1.2,1.8c0.1,0.4,0.3,0.8,0.6,1.1c0.8,0.6,1.5,1.4,2,2.3c0,0.1,0.2,0.1,0.2,0.2
			c0.2,0.3,0.4,0.5,0.6,0.8c0.3,0.6,0.7,1.3,1,1.9c0.2,0.4,0.4,0.8,0.5,1.2c0,1.3,0.6,2.4,0.4,3.7c0,0.4,0.3,0.9,0.2,1.2
			c-0.1,0.9,0,1.7,0.1,2.6c0,0.2,0.2,0.5,0.2,0.6c-0.2,0.7-0.2,1.5,0.1,2.3c0.2,1.1-0.1,2.3,0.1,3.4c0,0.2,0,0.4-0.1,0.6
			c-0.5,1.2-0.6,2.5-1.5,3.4c-0.1,0.1-0.2,0.3-0.2,0.4c0,0.3-0.1,0.5-0.3,0.7c-1.4,1.5-3.1,2.6-5,3.3c-0.6,0.2-1.1,0.5-1.4,1
			c-0.2,0.2-0.5,0.4-0.8,0.6c-0.3,0.1-0.5,0.2-0.7,0.4c-0.8,0.7-1.7,1.3-2.7,1.8c-0.6,0.3-1,0.8-1.1,1.4c0,0.3-0.3,0.4-0.5,0.5
			c-1.1,0.3-1.8,1.3-1.9,2.4c-0.1,0.7,0,1.3,0.3,1.9c0.5,0.8,0.5,1.8,1.4,2.3c1.8,2.3,3.3,4.9,4.5,7.7c0.1,0.3,0.2,0.6,0.2,0.9
			c-0.1,1.1-0.3,2.2-0.4,3.2c-0.7,1-0.8,2.3-1.5,3.3c-0.4,0.6-0.7,1.2-1.1,1.8s-0.6,1.2-1.1,1.8c0,0.1,0,0.2,0,0.3
			c0.1,0.1,0.2,0.1,0.3,0.1c0.3,0,0.6-0.2,0.8-0.5c0.1-0.2,0.2-0.4,0.5-0.3c0.7,0,1.3-0.2,1.8-0.7c0.9-0.9,1.9-1.6,3-2.2
			c0.5-0.2,0.7-0.8,0.8-1.4c0.1-1.2,0.3-2.4,0.8-3.5c0.1-0.4,0.1-0.8,0-1.1c-0.2-1-0.4-2-0.5-3.1c-0.1-1.1-0.3-2.3-0.6-3.4
			c-0.1-0.4-0.4-0.8-0.7-1c-1.1-0.5-1.9-1.5-3.2-1.6c-0.3,0-0.6-0.3-0.7-0.7c-0.3-1,0.2-2.1,1.3-2.5c0.8-0.3,1.5-0.5,2.3-0.6
			c2-0.7,3.8-1.9,6-1.8c0.1,0,0.1,0,0.2,0c0.6-0.6,1.5-0.5,2.3-0.8c0.8-0.3,1.6-0.7,2.2-1.3c0.6-0.6,1.2-1.1,1.9-1.5
			c0.2-0.1,0.4-0.3,0.5-0.5c0.4-0.8,0.7-1.6,1-2.4c0.1-0.8,0.3-1.6,0.5-2.4c0.3-0.7,0.4-1.4,0.4-2.1c0-0.9,0.2-1.8,0.5-2.7
			c0.2-0.5,0.3-0.9,0.3-1.4c0.1-1.4,0-2.8,0.2-4.2c0-0.3,0-0.5,0-0.8c-0.4-1.6-0.5-3.2-0.9-4.8c-0.1-0.5-0.3-1-0.9-1.2
			c-0.1-0.1-0.2-0.2-0.3-0.3c-0.1-0.6-0.3-1.1-0.7-1.6c-0.5-0.7-0.7-1.6-1.4-2.2c0,0-0.1-0.1-0.1-0.1c0-1-0.2-2,0.6-2.8
			c0.5-0.4,0.9-0.9,1.3-1.4c0.4-0.5,0.8-1,1.1-1.6c0.2-0.6,0.5-1.1,0.9-1.5c0.7-0.7,0.6-1.8,1.3-2.6c0.2-0.2,0.2-0.5,0.3-0.8
			c0-0.2,0-0.3,0-0.5c-0.2-1.2,0.1-2.4-0.1-3.6c0-0.3,0-0.7,0.2-1c0.2-0.5,0.4-1.1,0.3-1.8c0-0.5,0-1,0.1-1.5
			c0.4-1.4,0.4-2.9,0.7-4.3c0.1-0.5-0.1-0.8-0.7-0.7c-0.3,0-0.5,0-0.8,0c-1-0.1-2-0.1-3.1,0c-1.5,0-2.9,0.1-4.4,0.3
			c-0.5,0.1-1,0-1.4-0.2c-0.4-0.2-0.9-0.2-1.3,0c-0.3,0.1-0.7,0.1-1,0.1c-0.5,0-1,0-1.5,0.2C202,290.7,201.7,290.7,201.4,290.6z
			 M187.3,325.8c0-0.2,0-0.6,0-0.9c0-1.7-0.9-3.2-2.4-4c-0.3-0.2-0.6-0.2-0.9-0.1c-0.2,0-0.4,0-0.6-0.1c-0.2-0.1-0.4-0.4-0.7-0.5
			c-1.6-0.5-2.7-2-4.4-2.5c-0.2-0.1-0.3-0.3-0.4-0.5c-0.3-0.7-1.1-0.8-1.3-1.5c-1-0.6-2-1.1-3-1.5c-0.2,0-0.4-0.1-0.6-0.2
			c-1.2-1-2.5-1.8-4-2.3c-0.4-0.1-0.8-0.1-1.1,0.2c-0.4,0.3-0.9,0.7-1.3,0.9c-0.6,0.2-0.8,0.8-1.4,1c-1.1,0.4-1.6,1.6-2.6,2.1
			c-0.2,0.1-0.3,0.3-0.3,0.5c-0.1,0.5-0.3,0.9-0.7,1.3c-0.9,1.3-0.7,3.1,0.5,4.2c0.8,0.9,1.9,1.5,3,1.9c0.8,0.4,1.8,0.5,2.7,0.4
			c1.3-0.1,2.5,0.2,3.6,0.8c0.2,0.1,0.4,0.2,0.5,0.4c0.5,0.8,0.8,1.7,0.8,2.6c-0.1,0.6,0.1,1.3,0.3,1.9c0.3,1,0.8,2,1.5,2.9
			c0.4,0.6,0.7,1.4,0.8,2.1c0,0.2,0,0.4-0.1,0.6c-0.2,0.4-0.5,0.7-0.8,1c-0.7,0.7-1.5,1.5-2.3,2.1c-0.6,0.5-1.3,0.9-2,1.3
			c-0.7,0.4-1.5,0.6-2.2,1c-1.1,0.5-2.2,1.2-3.4,1.7c-0.6,0.2-1.1,0.4-1.6,0.8c-0.5,0.5-1.2,0.3-1.8,0.7c-0.7,0.5-1.5,0.8-2.3,1.2
			s-1.4,1-2.1,1.5c-0.7,0.4-1.2,1.1-1.5,1.9c-0.2,0.4,0,0.9,0.3,1.2c0.4,0.3,0.8,0.6,1.1,1c0.7,0.9,1.6,1.5,2.7,1.8
			c0.9,0.3,1.7,0.7,2.4,1.3c0.3,0.3,0.7,0.5,1.1,0.6c1.1,0.2,2.1,0.9,3.3,1c0.3,0.1,0.7,0.3,1,0.5c0.1,0.1,0.4,0.1,0.4,0
			c0.2-0.1,0.3-0.3,0.3-0.5c-0.1-0.3-0.2-0.6-0.4-0.9c-0.6-0.7-0.7-1.8-0.3-2.6c0.1-0.3,0.1-0.6,0.2-0.9c0-0.1,0.2-2,0.2-2.1
			c0-0.5,0.3-0.7,0.6-0.9s0.7-0.5,0.8-0.8c0.2-0.8,1.1-0.8,1.5-1.3c0.1-0.1,0.3-0.2,0.4-0.1c1.6,0.3,3-0.5,4.4-0.9
			c0.7-0.2,1.3-0.5,1.8-1c0.5-0.6,1.3-1,2.1-1.1c0.6-0.1,1.1-0.5,1.2-1.1c0.1-0.6,0.5-0.8,1-1.1c0.9-0.7,1.6-1.6,2-2.7
			c0.1-0.3,0.2-0.6,0.4-0.8c0.2-0.2,0.4-0.5,0.5-0.8c0.6-1.3,1.1-2.7,1.7-4c0.3-0.8,0.6-1.5,0.9-2.3
			C187.3,328.4,187.4,327.1,187.3,325.8z M164.9,378.8c0.1-0.6,0-1.1-0.3-1.6c-0.6-1.1-1.7-1.9-2.9-2.2c-0.9,0-1.8-0.4-2.5-1
			c-0.2-0.1-0.4-0.2-0.6-0.2c-0.5-0.1-1-0.4-1.4-0.8c-0.7,0.2-1-0.3-1.4-0.6c-0.2-0.1-0.5-0.3-0.7-0.5c-0.4-0.4-0.7-0.7-1.3-0.5
			c-0.2,0-0.3,0-0.5-0.1c-0.4-0.6-1.1-0.5-1.5-0.9s-0.9-0.8-1.3-1.2s-1-0.8-1.1-1.6c0-0.4-0.3-0.8-0.6-1c-0.5-0.4-1-1-1.2-1.7
			c-0.5-0.8-0.9-1.6-1.2-2.5c-0.2-0.5-0.7-1-0.5-1.6c0-0.1-0.2-0.3-0.3-0.3c-0.2,0-0.3,0-0.4,0.1c-0.5,0.5-0.9,1-1.4,1.4
			c-1.5,1.3-2.5,3.1-2.9,5c-0.1,0.3-0.1,0.7-0.1,1c0.2,1.3,1.1,2.4,2.4,2.8c1,0.4,2.2,0.6,3.3,0.6c0.9,0,1.8,0,2.8,0.1
			c0.8,0.1,1.7,0.3,2.5,0.6c0.5,0.2,1.1,0.5,1.5,0.8c0.5,0.3,1,0.7,1.4,1.2c0.6,0.9,1.6,1.5,2,2.5c0.2,0.3,0.5,0.6,0.9,0.7
			c0.9,0.5,1.7,1.1,2.5,1.8c0.4,0.3,0.7,0.7,0.9,1.1c0.3,0.9,0.9,1.6,1,2.6c0,0.2,0.2,0.3,0.3,0.5c0.1-0.1,0.3-0.2,0.4-0.3
			c0.8-1.1,1.6-2.3,2.2-3.6C164.8,379.3,164.9,379,164.9,378.8z M175.4,362.8c0.2-0.4,0-0.7-0.3-1.1s-0.6-0.9-0.9-1.3
			c-0.3-0.5-0.8-0.7-1.4-0.7c-0.4,0.1-0.9,0-1.2-0.3c-0.3-0.2-0.8,0.1-0.8,0.5c0,0.2,0,0.3,0.1,0.5c0.3,0.7,0.2,1.5,0.6,2.2
			c-0.2,0.7-0.3,1.5-0.5,2.2c-0.1,0.6,0,1.2,0.4,1.7c0.6,0.7,1,1.5,1.5,2.2c0.2,0.4,0.5,0.7,0.8,1c0.7,0.5,1.2,1.3,1.4,2.1
			c0.2,0.3,0.2,0.6,0,0.9c-0.3,0.4-0.4,0.9-0.2,1.4c0.1,0.2,0,0.5,0.1,0.6s0,0.5-0.3,0.7c-0.2,0.2-0.4,0.4-0.5,0.6
			c-0.4,0.9-0.8,1.9-1.2,2.8c-0.1,0.1-0.1,0.3-0.1,0.5c0,0.1,0.2,0.3,0.3,0.2c0.3-0.1,0.6-0.3,0.8-0.5c0.6-0.8,1.2-1.7,1.7-2.5
			c0.2-0.4,0.4-0.8,0.5-1.2c0.1-0.6,0.2-1.3,0.5-1.9c0.1-0.3,0.1-0.6,0.1-1c-0.3-0.6-0.3-1.3,0-1.9c0.1-0.2,0.1-0.3,0-0.5
			c-0.4-1-0.2-2-0.6-3c-0.3-0.6-0.4-1.3-0.3-2c0-0.2-0.1-0.4-0.3-0.5c-0.2-0.2-0.3-0.4-0.3-0.7C175.3,363.4,175.4,363.2,175.4,362.8
			z"/>
		<path d="M294.3,13.3c-0.8,0-1.6,0-2.4,0.1c-0.8,0.1-1.6,0.1-2.4,0c-0.7-0.2-1.3-0.4-1.9-0.7c-0.6-0.2-1.3-0.5-1.9-0.8
			c-1.1-0.4-2-1.1-2.6-2.1c-1.2-1.9-0.7-3.6,1-5c0.8-0.8,2-1.2,2.8-2c0.1-0.1,0.3-0.1,0.4-0.1s0.6,0,0.8-0.1c1.3-1,3-1.1,4.5-1.4
			c0.6-0.1,1.2,0,1.9-0.1s0.9-0.7,1.6-0.7c0.2,0,0.4-0.1,0.5-0.3c0.2-0.2,0.4-0.2,0.5,0s0.5,0.1,0.7,0.2c0.5,0.4,1.3,0.3,1.7-0.2
			c0.1-0.1,0.3-0.1,0.5-0.1c0.3,0.1,0.6,0.4,1,0.5s0.7-0.3,1,0.1c0.3,0.3,0.6,0.4,1,0.3c0.7-0.1,1.4,0,2,0.3c0,0,0.1,0.1,0.1,0.1
			c1.1,0,2.2,0.4,3,1.2c0,0,0.1,0.1,0.1,0.1c1-0.2,1.5,0.6,2.2,1c0.4,0.3,1,0.4,1.5,0.3c0.3-0.1,0.9-0.2,1,0.2
			c0.2,0.7,0.8,0.8,1.2,1.2c1.1,0.7,2.2,1.3,3.3,1.8c1.1,0.6,2.2,1.3,3.1,2.3c0.3,0.3,0.4,0.9,1,0.9c0.2,0.4,0.2,0.9,0.8,0.8
			c0.1,0,0.2,0.3,0.3,0.5c0.2,0.8,0.7,1.5,1.3,2c0.5,0.5,0.9,1.1,1.3,1.8c0.1,0.1,0,0.3,0,0.5s-0.1,0.4,0,0.4
			c0.7,0.4,0.6,1.1,0.7,1.7c0.1,0.5,0.5,0.9,0.9,1c0.4,0.1,1,0.5,1.3,0.2c0.5-0.5,1.3-0.1,1.8-0.7c0.1-0.1,0.5,0,0.6,0.1
			c0.3,0.4,0.9,0.6,1.4,0.4c0.4-0.2,0.9-0.2,1.4,0c0.5,0.1,0.9,0.3,1.3,0.5c0.4,0.2,0.8,0.3,1.1-0.2c0.2-0.3,0.6-0.3,0.9-0.1
			c0.2,0.1,0.5,0.2,0.7,0.2c0.8,0,1.2,0.8,1.8,1.1c0.3,0.2,0.4,0.5,0.4,0.8c0,0.5,0.3,0.9,0.6,1.3c0.8,0.8,1.5,1.7,2.1,2.7
			c0.2,0.4,0.9,0.5,1.1,1s0.7,0.7,1.2,1s1,0.5,0.9,1.2c0,0.2,0.1,0.3,0.2,0.4c0.8,1.1,1.4,2.4,1.8,3.7c0.3,0.5,0.6,1,0.9,1.5
			c0.2,0.4,0.7,0.6,0.4,1.2c-0.1,0.1,0.1,0.4,0.2,0.6c0.8,0.9,1.3,2,1.4,3.3c0.1,0.7,0.3,1.5,0.7,2.1c0.2,0.3,0.3,0.6,0.4,0.9
			c0.2,0.8,0.5,1.5,1.1,2.1c0.3,0.4,0.5,0.9,0.6,1.4c0.2,0.5,0.3,1.1,0.5,1.7c0.1,0.3,0.4,0.5,0.7,0.4c0.1,0,0.1,0,0.2-0.1
			c1-0.5,2.1-0.8,3.2-1c0.4-0.1,0.8-0.3,1-0.7c0.2-0.3,0.4-0.6,0.6-1c0.2-0.4,0.6-0.6,1.1-0.5c0.7,0,1.4,0.4,1.7,1
			c0.3,0.7,0.8,1.4,1.2,2.1c0.2,0.3,0.2,0.6,0,0.9c-0.2,0.3-0.3,0.6-0.3,1c0,0.8-0.3,1.6-0.8,2.2c-0.1,0.2-0.2,0.4-0.2,0.6
			c0.1,0.3,0.1,0.6,0.1,0.9c-0.1,0.3-0.4,0.5-0.5,0.8c-0.1,0.6-0.8,1-0.5,1.8c-0.8,0.8-0.5,2-1.3,2.8c-0.2,0.2-0.2,0.5-0.2,0.8
			c0,0.3-0.3,0.5-0.5,0.5c-0.3,0-0.3,0.2-0.1,0.4c0,0.1,0,0.3-0.1,0.4c-0.4,0.7-0.9,1.5-1.3,2.2c-0.1,0.2-0.1,0.4-0.1,0.6
			c0,0.5-0.2,1-0.6,1.4c-0.2,0.3-0.4,0.6-0.5,0.9c-0.1,0.1-0.1,0.3-0.2,0.4c-0.7,0.5-1.2,1.4-1.1,2.3c-0.1,0.9-0.2,1.8-1.1,2.3
			c-0.5,0.2-0.7,1.1-0.8,2.1c0,0.2-0.1,0.3-0.2,0.4c-0.9,0.6-1,1.8-1.9,2.4c-0.3,0.7-0.7,1.3-0.9,2c-0.1,0.4-0.3,0.7-0.6,0.9
			c-0.4,0.2-0.7,0.6-0.8,1.1c-0.1,0.7-0.6,1.3-1.2,1.6c-0.5,0.2-0.8,0.8-0.6,1.3c0,0,0,0,0,0c0.1,0.2-0.1,0.5-0.5,0.5
			c-0.2,0-0.4-0.1-0.5,0c-0.6,1-2.1,1.1-2.7,2.2c0,0-0.1,0.1-0.1,0.1c-1.3,0.4-2,1.6-3.1,2.2c-0.2,0.1-0.5,0.2-0.7,0.4
			c-0.2,0.1-0.5,0.2-0.8,0.2c-0.6,0-0.7,1.1-1.4,0.7c-0.6-0.3-1,0.2-1.5,0.2c-0.2,0-0.4,0.1-0.6,0.2c-0.4,0.1-0.6,0.4-0.7,0.8
			c-0.5,2.2-1.2,4.3-2.2,6.3c-0.2,0.6-0.5,1.3-0.8,1.9c-0.4,0.6-0.8,1.2-1,1.9c-0.3,0.6-0.6,1.2-0.9,1.8c-0.6,0.8-1,1.6-1.3,2.5
			c-0.1,0.2-0.4,0.4-0.6,0.6c0.2,0.5-0.1,0.6-0.4,0.9c-0.6,0.6-1.1,1.2-1.6,1.7c-0.3,0.3-0.1,0.7-0.4,1s-0.5,0.5-0.8,0.8
			c-0.5,0.7-1,1.4-1.5,2c-0.2,0.2-0.4,0.4-0.6,0.5c-0.6,0.5-1.2,1-1.7,1.7c-1,1-2.1,2-3.3,2.7c-1,0.6-2.3,0.8-3.4,0.5
			c-0.1,0-0.2-0.1-0.3-0.1c-0.4-1-1.6-1.4-1.8-2.6c-0.3-1.2-0.5-2.4-0.4-3.6c0-0.6,0-1.2-0.2-1.7c-0.1-0.4,0-0.8,0.1-1.2
			c0.1-0.4,0.4-0.6,0.1-1c0-0.2,0-0.3,0.1-0.4c0.5-0.8,0.9-1.6,1.2-2.5c0.2-0.4,0.4-0.9,0.7-1.3c0-0.1,0-0.2,0-0.3
			c-0.1-0.1-0.2-0.1-0.3-0.1c-0.5,0.5-1.4,0.4-1.9,0.9c-0.4,0.4-0.9,0.6-1.5,0.5c-0.8,0-1.6,0.1-2.3,0.5c-0.2,0.1-0.4,0.1-0.6-0.1
			c-0.2-0.2-0.4-0.3-0.7-0.4c-0.8,0-0.9-0.8-1.4-1.2c-0.1-0.2-0.1-0.4-0.1-0.6c0.2-1.2,0.5-2.3,1-3.3c0.1-0.2,0.3-0.4,0.2-0.7
			c0-0.1,0-0.3,0.1-0.4c1-0.4,1.3-1.4,1.8-2.2s1.2-1.4,1.8-2.2c0.1-0.2,0.5-0.2,0.7-0.4c0.4-0.3,0.9-0.6,1.2-1
			c0.2-0.2,0.2-0.5,0.1-0.7c-0.1-0.1-0.2-0.2-0.4-0.2c-0.6-0.1-1.3-0.3-1.9-0.5c-0.5-0.2-1.2-0.2-1.7,0.1c-0.4,0.3-0.4,0.2-0.9-0.3
			c-0.1-0.2-0.3-0.3-0.5-0.4c-0.4-0.2-0.9-0.3-1.3-0.5c-0.5,0.3-0.9-0.2-1.4-0.1c-0.3,0.1-0.5,0.1-0.7-0.2c-0.3-0.6-1-0.9-1.6-0.8
			c-0.6,0-1.1-0.3-1.2-0.8c-0.3-0.7-0.9-1.1-1.6-1.2c-0.7-0.1-1.3-0.5-1.6-1.2c-0.2-0.4-0.6-0.6-0.8-1c-0.6-0.9-1.2-1.8-1.7-2.7
			c-0.1-0.2-0.2-0.5-0.2-0.8c-0.2-1-0.6-1.2-1.6-1.3c-0.9,0-1.8,0.3-2.5,0.7c-0.1,0.1-0.3,0.1-0.4,0.2c-0.4,0-0.8-0.1-1.2,0.2
			c0.2,0.5,0,1.1,0.6,1.5c0.3,0.1,0.4,0.5,0.3,0.8c0,0,0,0,0,0c0,0.2,0,0.4,0,0.6c0.1,0.9,0.1,1.8-0.2,2.6c-0.1,0.4-0.2,0.8-0.1,1.3
			c0.1,0.7,0,1.4-0.3,2c-0.1,0.3-0.2,0.7-0.2,1.1c0,0.3,0,0.6-0.2,0.9c-0.2,0.4-0.4,0.9-0.5,1.3c0,0.1,0.1,0.3,0.2,0.4
			c0.3,0.3,0.3,0.5,0,0.8c-0.5,0.4-0.9,1.1-0.9,1.8c-0.1,0.6-0.3,1.1-0.7,1.5c-0.1,0.1-0.3,0.2-0.3,0.4c-0.3,0.9-0.5,1.9-0.5,2.9
			c0.1,0.3,0,0.6-0.3,0.8c-0.2,0.3-0.4,0.6-0.7,0.9s-0.1,0.5-0.2,0.7c-0.2,0.5-0.4,1.1-0.6,1.6c-0.1,0.2-0.3,0.4-0.3,0.7
			c-0.1,0.7-0.4,1.4-1,1.8c-0.2,0.2-0.3,0.4-0.3,0.7c0,0.5,0,0.8-0.6,0.8c-0.1,0-0.3,0-0.3,0.1c-0.2,0.7-0.9,0.9-1.3,1.4
			c-0.5,0.7-1.2,1.3-1.7,2c-0.2,0.2-0.4,0.2-0.5,0.3s-0.5,0.3-0.5,0.4c0,0.6-0.5,0.7-0.9,1c-0.6,0.5-1.3,0.9-2.1,1.1
			c-0.1,0-0.2,0.1-0.3,0.1c-0.3,0.4-0.8,0.7-1.3,0.8c-0.5,0.1-0.9,0.6-1.5,0.6c-0.2,0-0.4,0.1-0.5,0.3c-0.3,0.5-0.9,0.8-1.5,0.5
			c-0.6-0.1-1.2-0.1-1.7,0.2c-0.4,0.2-1,0.1-1.3-0.3c-0.2-0.3-0.5-0.5-0.8-0.7c-0.5-0.3-0.7-0.6-0.5-1.2c0-0.1,0-0.2,0-0.3
			c-0.2-0.4,0-0.8,0.3-1c0,0,0.1,0,0.1,0c0.1-0.1,0.2-0.2,0.3-0.3c0-0.1,0-0.2,0-0.3s-0.1-0.1-0.1-0.1s-0.1,0-0.2,0
			c-1.5,0.7-2.2-0.6-2.9-1.5c-0.1-0.2-0.2-0.4-0.2-0.6c-0.1-1.1,0.1-2.2,0.6-3.3c0.2-0.5,0.4-1.1,0.6-1.6c0.1-0.4,0.3-0.7,0.4-1
			c0.3-0.6,0.6-1.2,0.9-1.9c0.1-0.1,0.2-0.4,0.1-0.4c-0.5-0.8,0-1.4,0.5-1.9c0.3-1.1,0.7-2.1,1.3-3c0-0.1,0-0.3,0-0.5
			c0-0.2-0.1-0.5,0-0.6c0.6-0.6,0.7-1.7,1.6-2.1c0.2-0.4,0.2-0.9,0.2-1.3c-0.1-0.1-0.3-0.1-0.4-0.1c-0.6,0.1-1.2,0.4-1.8,0.6
			c-0.3,0.2-0.7,0.2-1,0c-0.9-0.4-1.5-1.3-1.5-2.2c0-0.3,0-0.6-0.1-0.9c-0.1-0.4-0.1-0.7,0.1-1.1c0.2-0.6,0.3-1.1,0.2-1.7
			c0-0.4-0.2-1,0.4-1.5c0.4-0.3,0.2-1,0.8-1.3c0.2-0.2,0.4-0.5,0.5-0.8c0.2-0.5,0.4-1,0.7-1.4c0.2-0.5,0.6-1,1.1-1.3
			c0.3-0.2,0.6-0.5,0.8-0.8c0.3-0.5,0.5-1.1,1-1.4s1-0.1,1.5-0.1s0.5-0.3,0.5-0.7s0-0.4-0.3-0.4c-1.1,0.1-2.2,0.4-3.2,0.8
			c-0.4,0.1-0.8,0.3-1.2,0.5c-0.4,0.2-0.8,0.4-1.3,0.6c-0.6,0-1.2,0-1.8-0.1c-0.4,0-0.7-0.2-1.1-0.3c-0.5-0.3-0.8-0.9-0.5-1.5
			c0.2-0.5,0.5-0.8,0.9-1.1c0.3-0.2,0.5-0.5,0.8-0.8c0,0,0-0.1,0-0.1s-0.2-0.1-0.2-0.1c-0.8,0.2-1.5,0.9-2.4,0.8
			c-0.6,0.6-1.4,0.4-2.1,0.7c-0.7,0.3-1.3,0.5-2,0.6c-0.3,0.1-0.6,0.2-0.9,0.3s-0.9,0.2-1.4,0.3c-0.3,0-0.6,0.1-1,0.1
			c-1.4,0.6-2.7-0.1-4-0.4c-0.5-0.2-0.8-0.8-0.7-1.3c0.1-0.1,0.1-0.3,0.1-0.5c0-0.4,0.6-0.8,0.1-1.1s-0.6,0.3-0.9,0.5
			c0,0-0.1,0.1-0.1,0.1c-0.8,0.1-1.2,0.7-1.9,1c-0.4,0.2-0.8,0.7-1.4,0.6c-0.2,0-0.4,0.1-0.6,0.2c-0.4,1-1.6,0.5-2.1,1.2
			c-1.2-0.3-2.2,0.8-3.4,0.7c-0.6,0.6-1.3,0.5-2.1,0.6c-0.7,0-1.5,0-2.2-0.1c-0.3,0-0.5-0.1-0.7-0.3c-0.2-0.2-0.4-0.3-0.7-0.4
			c-1-0.3-1.6-1.2-1.6-2.1c-0.1-0.6,0.3-1.2-0.2-1.7c0,0,0.2-0.2,0.2-0.4c0.3-0.4,0.5-0.8,0.6-1.3c0-0.6,0.2-1.2,0.7-1.7
			c0.1-0.1,0-0.3,0-0.4c0-0.3,0.1-0.5,0.2-0.7c0.2-0.3,0.6-0.5,0.7-0.8c0.1-0.4,0.3-0.7,0.5-0.9c0.2-0.1,0.2-0.5,0.4-0.7
			c0.5-0.9,1.1-1.7,1.8-2.4c0.7-0.7,1.4-1.6,2-2.4c0.2-0.3,0.5-0.6,0.8-0.8c0.7-0.4,1.5-0.6,1.8-1.5c0-0.1,0.3-0.1,0.4-0.2
			c0.6-0.5,1.3-0.6,1.9-1.2c0.5-0.5,1.1-0.9,1.8-1.2c0.6-0.4,1.2-0.8,1.9-1.1c0.1-0.1,0.3-0.2,0.4-0.3c0.3-0.5,0.9-0.8,1.5-0.8
			c0.3,0,0.5-0.1,0.7-0.3c0.3-0.5,0.9-0.6,1.4-0.4c0.2,0,0.3,0,0.5-0.1c0.5-0.2,1.1-0.5,1.6-0.8c0.2-0.2,0.5-0.2,0.7,0
			c0.5,0.4,1.1,0.5,1.7,0.2c0.3-0.1,0.5,0,0.8,0.1c0.6,0.2,1.2,0.4,1.8,0.7c0.5,0.3,1.1,0.2,1.6,0.7c0.2,0.2,0.7,0.3,1,0.4
			c0.3,0.1,0.5,0.3,0.7,0.6c0.2,0.5,0.5,0.8,1,1c0.6,0.3,1.2,0.6,1.7,1c0.6,0.4,1.1,0.8,1.7,1.2c0.4,0.3,0.8,0.5,1.2,0.8
			s0.7,0.6,1.1,0.9s0.6,0.1,0.9,0.2s0.4,0.5,0.7,0.7c0.4,0.3,0.8,0.7,1.5,0.4c0.2-0.1,0.4,0.1,0.5,0.3c0.5,1,1.5,1.3,2.5,1.6
			c0.1,0,0.3-0.1,0.5-0.1c0.1,0,0.3,0,0.4,0.1c0.4,0.7,1.2,0.9,1.8,1.2c0.5,0.2,1,0.4,1.5,0.5c0.1,0,0.3,0,0.4-0.1
			c0.6-1,1.6-0.8,2.4-0.9c0.3,0,0.6-0.1,0.9-0.1c0.1-0.1,0.3-0.2,0.5-0.1c0.9,0.4,1.8-0.2,2.7-0.1c0.8,0.1,1.6-0.2,2.2-0.7
			c0.3-0.2,0.6-0.4,1-0.5c0.8-0.5,1.7-1,1.9-2c0.1-0.2,0.2-0.4,0.3-0.5c0.6-0.6,1.1-1.3,1.2-2.2c0-0.1,0-0.1,0.1-0.1
			c0.7-0.3,1-1,0.7-1.7c0,0,0,0,0,0c0.3-0.3,0.5-0.7,0.7-1.1c0.4-1,0.7-2,1-3c0.3-0.9,0.5-1.7,0.8-2.6c0.1-0.2,0.1-0.4,0.3-0.5
			c0.5-0.2,0.7-0.8,0.5-1.3c0,0,0,0,0-0.1c0-0.3,0-0.5,0.1-0.8c0-0.1,0.2-0.2,0.1-0.3c0-0.9,0.2-1.8,0.7-2.5c0.2-0.5,0.3-1,0.3-1.5
			c0-0.4,0.1-0.8,0.3-1.2c0.2-0.4,0.3-0.8,0.5-1.2c0.4-0.8,0.6-1.7,0.4-2.6c0-0.3-0.2-0.7,0-0.8c0.4-0.3,0.2-0.9,0.7-1.2
			s0.4-0.4-0.1-0.7c-0.2-0.1-0.3-0.2-0.1-0.5c0.3-0.7,0.5-1.5,0.5-2.3c0-0.1,0-0.3,0.1-0.3c0.5-0.3,0.5-0.7,0.6-1.2s0.4-0.7,0.5-1.1
			c0.3-0.8,0.8-1.5,1.4-2.1c0.6-0.6,1.2-1.3,1.6-2c0.1-0.2,0.3-0.3,0.4-0.4c0.3-0.2,0.6-0.4,0.9-0.6c0.2-0.2,0.5-0.4,0.5-0.8
			c-0.2-0.4-0.6-0.7-1-0.7c-0.6,0-1.3,0.1-1.9,0.3c-0.4,0.2-0.9,0.2-1.4,0.1c-1-0.1-1.9-0.5-2.6-1.1c-0.5,0-0.7-0.1-0.5-0.6
			c0,0,0-0.1,0-0.1c-0.8-0.7-0.4-1.5-0.1-2.2c0.1-0.2,0.3-0.4,0.4-0.7s0-0.3-0.1-0.4s-0.1,0-0.2,0c-0.8-0.2-1.7-0.3-2.5-0.5
			s-1.6-0.6-2.3-0.9c-0.2,0-0.3-0.1-0.5-0.1c-0.8,0.2-1.1-0.3-1.4-0.8c-0.4-0.5-0.4-1.1-0.2-1.6c0.1-0.3,0.1-0.6,0.6-0.6
			c0.9-0.6,2-1,3.1-1.1c0.2-0.1,0.4-0.2,0.6-0.3c0.1-0.1,0.3-0.3,0.3-0.4c-0.1-0.2-0.3-0.3-0.5-0.4
			C294.9,13.4,294.6,13.3,294.3,13.3z M329,87.6c0.3,0,0.7,0,1,0c0.7,0.1,1.4,0,2-0.4c0.6-0.4,1.4-0.4,2-0.9
			c1.1,0.2,1.8-0.7,2.8-1.1c0.7-0.8,1.7-1.3,2.8-1.4c0.4-0.1,0.7-0.3,0.9-0.6c0.3-0.5,0.3-1.3,1.3-1.1c0,0,0.1-0.1,0.2-0.2
			c0.3-0.3,0.5-0.5,0.8-0.8s0.7-0.6,0.5-1.1c0-0.1,0.1-0.2,0.1-0.2c0.7,0,0.7-0.7,1.1-1s0.4-0.9,0.6-1.2c0.3-0.3,0.7-0.6,1.1-0.9
			c0.1-0.1,0.1-0.2,0.2-0.3c0.3-0.7,0.7-1.3,1.1-1.9c0.4-0.4,0.4-0.9,0.1-1.3c-0.2-0.3,0-0.5,0.2-0.7c0.5-0.4,0.8-1,1-1.6
			c0.2-0.5,0.4-0.9,0.7-1.2c0.2-0.2,0.3-0.6,0.2-0.9c-0.1-0.3,0-0.6,0.3-0.7c0,0,0,0,0.1,0c0.2-0.1,0.4-0.2,0.5-0.3
			c0.3-0.4,0.5-0.8,0.7-1.2c0.2-0.3,0.2-0.6,0-0.9c-0.1-0.2-0.1-0.4,0-0.5c0.1,0,0.1-0.1,0.2-0.1c0.5-0.2,0.8-0.4,0.7-1
			c0-0.2,0.1-0.7,0.2-0.7c0.7-0.2,0.6-1,1.1-1.3s0.7-1,1-1.4c0.4-0.4,0.6-0.9,0.7-1.4c0-0.7,0.5-1,0.6-1.6c0-0.1,0.1-0.3,0-0.5
			c-0.3-0.6,0.2-0.8,0.5-1.2s-0.4-0.9,0.1-1.3c0.2-0.2,0.4-0.5,0.5-0.5c0.4,0,0.5-0.3,0.7-0.5s0.5-0.8,0.7-1.3
			c0.1-0.2,0.3-0.5,0.2-0.8c-0.2-0.7,0.2-1.2,0.5-1.8c0.1-0.3,0.1-0.6-0.1-0.9c-0.3-0.5-0.9-0.6-1.4-0.4c-1,0.5-2,0.9-3.1,1.2
			c-0.7,0.1-1.2,0.7-2,0.5c-0.2,0-0.5,0.2-0.7,0.3c-0.5,0.3-1,0.6-1.5,0.8c-0.3,0.1-0.7,0-1,0.2s-0.7,0.1-1,0.2
			c-0.4,0.1-0.8,0.3-1.2,0.5c-0.5,0.4-0.8,0.8-1.5,0.5c0,0-0.1,0-0.1,0.1c-1.1,0.6-2.3,1-3.6,1.1c-0.4,0.1-0.8,0.2-1.2,0.4
			c-0.8,0.4-1.6,0.6-2.4,0.8c-1.8,0-3.1,1.3-4.8,1.3c-0.1,0-0.1,0-0.1,0.1c-0.3,0.3-0.7,0.5-1.1,0.5c-0.2,0-0.4,0.1-0.5,0.3
			c-0.2,0.4-0.6,0.5-1,0.4c0,0,0,0-0.1,0c-0.2-0.1-0.4-0.1-0.6,0c-0.6,0.2-1.3-0.1-1.5-0.7c-0.3-0.9-0.8-1.7-1.5-2.4
			c-0.1-0.1-0.1-0.3-0.2-0.4c-0.5-1.1-0.7-2.4-1.1-3.6c-0.3-0.5-0.4-1.1-0.2-1.7c-0.3-1.1-0.3-2.3,0-3.4c0-0.2,0-0.4-0.1-0.6
			c-0.1-0.2-0.1-0.5,0-0.8c0.2-0.5,0.3-1,0.2-1.5c0.1-0.5,0.2-1,0.4-1.5c0-0.2,0-0.4-0.1-0.6c-0.1-0.3-0.2-0.7-0.1-1.1
			c0.1-0.8,0.3-1.6,0.4-2.5c0.1-0.7,0.4-1.3,1-1.8c0.1-0.1,0.3-0.2,0.4-0.1c0.2,0.1,0.3,0.3,0.4,0.5c0.1,0.4-0.1,0.8,0.2,1.3
			s-0.2,0.9-0.3,1.3c0,0.2,0,0.3,0,0.5c0.2,0.9,0.1,1.8-0.3,2.6c-0.1,0.4-0.1,0.7,0,1.1c0.3,0.6,0.3,1.3,0,1.9
			c-0.2,0.3,0.2,0.8,0.1,1.2c-0.1,0.5-0.1,0.9,0,1.4c0.1,0.2,0.1,0.4,0,0.6c-0.4,1.1,0,2.1,0.1,3.1c0,0.5,0.2,0.9,0.4,1.3
			c0.2,0.3,0.4,0.6,0.6,0.9c0.1,0.3,0.5,0.3,0.6,0.5s0.2,0.6,0.3,0.9c0.2,0.5,0.5,0.9,0.8,1.4c0.1,0.1,0.3,0.1,0.4,0.1
			c0.1-0.8,0.8-0.4,1.2-0.5c0.8-0.3,1.5-0.5,2.3-0.8c0.7-0.2,1.4-0.5,2.1-0.8c0.7-0.4,1.6,0,2.1-0.8c0,0,0.2,0,0.3,0
			s0.3,0.2,0.4,0.1c0.5-0.1,1-0.3,1.5-0.5s1-0.3,1.5-0.4c0.5-0.1,1-0.2,1.5-0.4c0.5-0.3,1-0.2,1.5-0.3c0.1,0,0.2-0.1,0.3-0.2
			c0.3-0.2,0.8-0.4,1.2-0.3c0.6-0.1,1.1-0.3,1.7-0.5c0.8-0.3,1.5-0.6,2.2-0.9c1.1-0.4,1.1-0.4,0.5-1.3c0,0-0.1-0.1-0.1-0.1
			c-0.3-0.7-0.5-1.5-0.6-2.3c0-0.5-0.2-0.9-0.6-1.2c-0.4-0.2-0.5-0.7-0.3-1.1c0.1-0.2,0-0.4-0.1-0.6c-0.2-0.4-0.7-0.6-0.8-1
			s-0.3-0.8-0.4-1.2s-0.3-0.4-0.5-0.6c-0.5-0.3-0.7-0.8-0.6-1.4c0.1-0.3,0.1-0.5,0.1-0.8c0.1-0.4,0-0.9-0.4-1.2
			c-0.6-0.5-0.9-1.3-0.9-2.1c0-0.6-0.3-1.1-0.8-1.5c-0.5-0.2-0.7-0.7-0.6-1.2c0.1-0.3-0.2-0.6-0.5-0.8s-0.5-0.3-0.4-0.4
			c0-1-0.7-1.5-1.4-2c-0.1-0.1-0.1-0.2-0.2-0.3c-0.4-0.6-1-1.1-1.6-1.5c-0.5-0.4-1-0.8-1.3-1.4c-0.2-0.4-0.5-0.7-0.8-1
			c-0.3-0.3-0.6-0.6-0.7-1c-0.2-0.5-0.6-0.8-1.1-0.9c-0.5-0.2-1.1-0.2-1.6-0.1c-0.8,0.2-1.7,0.2-2.5,0.2c-0.3,0-0.5,0-0.8,0.1
			c-0.8,0.3-1.7,0.4-2.5,0.1c-0.7-0.2-1.4,0-1.9,0.4c-0.3,0.3-0.5,0.1-0.7-0.1s-0.3-0.2-0.4-0.2c-0.9,0.3-1.8,0.5-2.8,0.5
			c-0.2,0-0.3,0.1-0.4,0.2l-1.7,1.1c-0.4,0.2-0.7,0.5-1.2,0.2c-0.1,0-0.2-0.1-0.3-0.1c-0.6-0.1-1,0.3-1.5,0.5s-1.1-0.3-1.5,0.1
			c-0.6,0.5-1.4,0.8-2.1,1c-0.5,0.3-1,0.3-1.5,0c-0.3-0.2-0.8-0.1-1.1,0.1c-0.6,0.3-1.1,0.6-1.7,0.8c-0.4,0.2-0.8,0.3-1.2,0.4
			c-0.5,0.1-1,0-1,0.8c0,0.1-0.3,0.2-0.5,0.3c-0.8,0.2-1.7,0.4-1.9,1.5c0,0.1-0.2,0.2-0.4,0.3c-0.6,0.5-1.2,1-0.9,2
			c-0.2,0.5-0.4,1-0.7,1.4c-0.3,0.6-0.7,1.1-0.4,1.8c0.1,0.1-0.1,0.4-0.2,0.5c-0.3,0.3-0.6,0.7-0.8,1.1c-0.1,0.5-0.1,0.9-0.1,1.4
			c0,0.5,0,1-0.1,1.4c0,0.2-0.1,0.4-0.2,0.6c-0.5,0.5-0.6,1.1-0.5,1.8c0,0.2,0,0.4-0.1,0.6c-0.2,0.4-0.4,0.9-0.5,1.3
			c0,0.5-0.2,1-0.6,1.5c-0.1,0.2-0.1,0.4,0,0.6c0.2,0.3,0.1,0.7-0.2,1c-0.5,0.4-0.7,1.1-0.6,1.7c0.2,0.4,0.1,0.9-0.3,1.2
			c0,0-0.1,0-0.1,0c-0.3,0.3-0.5,0.7-0.5,1.1c0,0.3,0,0.7-0.1,1c-0.1,0.4-0.2,0.8-0.3,1.2c0,0.5-0.5,0.6-0.5,1.1
			c0,0.4,0,0.8-0.1,1.2c-0.1,0.2-0.2,0.4-0.3,0.5c-0.1,0.2-0.3,0.3-0.4,0.5c-0.4,0.8-0.8,1.6-1,2.5c-0.1,0.5-0.4,1-0.8,1.3
			c-0.4,0.5-0.1,1.1-0.5,1.6c-0.5,0.6-1,1.2-1.7,1.7c-0.4,0.2-0.7,0.5-1,0.8c-0.8,1-2,1.4-2.7,2.4c-0.1,0.1-0.2,0.1-0.3,0.1
			c-0.4,0-0.9,0.1-1.2,0.3c-0.4,0.2-0.9,0-1.4,0.3c-0.2,0.1-0.6,0-0.9,0s-0.6-0.1-0.9-0.2s-0.4,0.1-0.3,0.5c0.3,0.7,0.3,0.8-0.2,1.2
			c-0.2,0.2-0.5,0.3-0.9,0.2c-0.4-0.1-0.8,0-1.2,0.1c-0.2,0.1-0.4,0.3-0.7,0.1c-0.7-0.3-1.5-0.1-2.1-0.6c0,0-0.2,0.1-0.2,0.1
			s-0.1,0.6-0.4,0.1c-0.3-0.4-0.7-0.5-1.2-0.4c-0.3,0.1-0.5,0-0.7-0.1c-0.5-0.3-1.1-0.6-1.7-0.9c-0.4,0.2-0.6-0.2-0.8-0.2
			c-0.7-0.2-1.3-0.8-2-1c-1.2-0.5-2.4-1.1-3.5-1.9c-0.1-0.1-0.3-0.3-0.4-0.2c-0.5,0.2-0.8-0.2-1-0.4c-0.2-0.3-0.5-0.5-0.9-0.6
			c-0.6-0.3-1.1-0.7-1.6-1.1c-0.4-0.3-0.6-1-1.4-0.9l-1.2-1.4c-0.2-0.2-0.3-0.4-0.5-0.6c-0.2-0.1-0.3-0.4-0.5-0.4
			c-0.7,0-1.1-0.6-1.7-0.9c-1.2-0.7-2.5-1.2-3.8-1.5c-0.3,0-0.6,0-0.9,0.1c-0.3,0-0.5,0.1-0.8,0.1c-0.6,0-1.3-0.3-1.7,0.5
			c0,0-0.2,0.1-0.3,0c-0.7-0.1-1.1,0.3-1.7,0.5c-0.2,0.1-0.3,0.4-0.5,0.6s-0.6,0.1-0.8,0.2c-1,0.7-2.1,1.4-3.2,2
			c-0.2,0.1-0.5,0.3-0.6,0.5c-0.3,0.7-0.8,1.2-1.5,1.5c-0.5,0.2-0.7,0.9-1.4,0.9c-0.1,0-0.2,0.1-0.2,0.2c-0.2,0.4-0.6,0.8-1.1,0.9
			c-0.5,0.3-0.9,0.7-1.2,1.2c-0.1,0.2-0.3,0.5-0.5,0.5c-0.7,0.1-0.8,0.6-1,1.1c-0.1,0.6-0.5,1.1-1.1,1.2c-0.1,0-0.3,0.2-0.3,0.3
			c0.1,0.4-0.2,0.7-0.4,1c-0.5,0.8-0.9,1.5-1.3,2.3c-0.4,0.9-0.7,1.9-0.6,2.9c0,0.3,0.1,0.5,0.4,0.6c0.3,0.2,0.5,0.4,0.8,0.5
			c0.7,0.4,1.6,0.5,2.5,0.3c0.5-0.2,1-0.3,1.5-0.3c0.4-0.1,0.8-0.2,1.2-0.4c1-0.6,2.1-1,3.2-1.4c0.6-0.2,1.2-0.4,1.7-0.8
			c0.6-0.5,1.3-0.8,2.1-1c0.2-0.1,0.5-0.2,0.7-0.3c0.3-0.2,0.6-0.4,0.9-0.6c0.9-0.4,1.8-0.8,2.6-1.4c0.3-0.2,0.6-0.3,0.9-0.4
			c0.5-0.1,0.9-0.3,1.3-0.6c1.6-1.1,3.3-1.9,5.1-2.5c0.6-0.3,1.5,0,1.6,0.4c0,0.5-0.3,1-0.8,1.1c-1,0.5-1.9,1.2-2.8,1.8
			c-1.9,1.2-3.7,2.5-5.6,3.8c-0.5,0.4-0.9,0.9-1.3,1.4c-0.2,0.2-0.1,0.4,0,0.6c0,0,0.1,0.1,0.1,0.1c1.1,0.6,2.3,0.8,3.5,0.5
			c0.5-0.1,0.9-0.2,1.4-0.4c0.9-0.4,1.8-0.5,2.7-0.8c1.5-0.7,3.1-1.1,4.7-1.4c0.4,0,0.7-0.2,1.1-0.3c0.8-0.4,1.6-0.5,2.5-0.5
			c0.3,0,0.5,0.1,0.7,0.3c0.2,0.2,0,0.5-0.2,0.7c-0.4,0.4-0.8,0.7-1.2,1s-0.9,0.9-1.3,1.4c0,0,0.1,0.2,0.2,0.2
			c0.3,0.2,0.7,0.2,1.1,0c0.5-0.3,1.1-0.1,1.6-0.6s1.2-0.1,1.8-0.3c0.2-0.1,0.5-0.1,0.8-0.2c0.7-0.2,1.4-0.2,2.1-0.1
			c0.7,0.1,1.2,0.8,1.1,1.4c0,0.1,0,0.2-0.1,0.3c-0.2,0.5-0.4,1-0.5,1.5c0,0.5-0.3,0.9-0.7,1.1c-0.3,0.1-0.5,0.5-0.8,0.6
			c-0.6,0.2-1.1,0.7-1.3,1.3c-0.1,0.1-0.1,0.3-0.3,0.4c-0.3,0.4-0.6,0.7-1,1.1s-0.1,1-0.2,1.5c-0.2,1-1,1.8-1,2.8
			c0,0.1-0.2,0.2-0.3,0.3c-0.4,0.2-0.3,0.5-0.1,0.8c0.1,0.2,0.3,0.5,0.4,0.7c0.3,0.3,0.7,0.6,1.1,0.4l1-0.4c0.2,0,0.3-0.2,0.4-0.1
			c0.7,0.5,1.2,0,1.8-0.1c0.8-0.1,1.6,0,2.3,0.3c0.5,0.2,0.6,0.7,0.7,1.2c0,0.1,0,0.2,0.1,0.3c0.3,0.3,0.2,0.5-0.1,0.8
			c-0.3,0.2-0.5,0.3-0.8,0.5c-0.5,0.4-1.1,0.8-1.3,1.3s-0.5,0.9-0.7,1.4s-0.1,1-0.7,1.4c-0.1,0-0.1,0.3,0,0.4c0.2,0.4,0,0.6-0.2,0.9
			c-0.2,0.3-0.5,0.5-0.8,0.8c-0.3,0.2-0.5,0.5-0.6,0.9c-0.7,1.4-1.3,2.9-2,4.3c-0.2,0.4-0.3,0.8-0.3,1.2c0.5,0.5-0.3,0.8-0.2,1.3
			s-0.3,1-0.7,1.4c-0.1,0.1-0.1,0.2-0.2,0.2c-0.2,0.3,0.5,1.4,0.8,1.4c0.1,0,0.1,0,0.2,0c1-0.5,2-0.9,3.1-1.2c0.1,0,0.2-0.2,0.4,0
			c0.4,0.4,0.9,0.7,1.4,1.1c0.1,0.1,0.1,0.3,0.1,0.4c0,0.2-0.1,0.4-0.3,0.6c-0.5,0.4-0.3,0.8-0.2,1.3c0.1,0.3,0.3,0.4,0.6,0.4
			c0.1,0,0.2-0.1,0.3-0.2c0.3-0.4,0.6-0.7,1-1c0.4-0.3,0.9-0.5,1.3-0.8c0.2-0.1,0.4-0.1,0.6-0.2c0.5-0.1,0.8-0.6,0.8-1.1
			c0-0.5,0.1-0.7,0.6-0.6c0.8-0.6,1.4-1.2,2-2c0-0.8,0.7-1.3,0.8-2c0.2-0.9,0.7-1.7,1.3-2.4c0.1-0.1,0.3-0.4,0.3-0.5
			c-0.3-0.6,0.2-0.9,0.4-1.4c0.3-0.5,0.5-1,0.5-1.6c-0.1-0.5,0.1-0.9,0.5-1.2c0.2-0.3,0.3-0.7,0.6-0.9c0.5-0.4-0.3-0.6-0.1-1
			c0-0.1,0.1-0.2,0.1-0.3c0.2-0.5,0.7-0.8,0.6-1.3c0.7-0.3,0.6-0.8,0.5-1.4c0-0.3,0.1-0.6,0.4-0.8c0.5-0.3,0.7-0.9,0.5-1.4
			c-0.2-0.5-0.1-1.1,0.4-1.4c0.3-0.2,0.4-0.7,0.2-1c-0.1-0.3,0.1-0.5,0.2-0.7s0.4-0.4,0.5-0.6c0.2-0.9,0.3-1.8,0.3-2.7
			c0-0.6,0-1.2,0.1-1.7c0.1-0.4,0.2-0.8,0.3-1.2s-0.4-0.6-0.6-0.5s-0.6,0.4-1,0.6c-0.1,0.1-0.5-0.1-0.5-0.3
			c-0.2-0.7,0.1-1.4,0.6-1.9c1-0.6,2-1.1,3.2-1.4c0.9-0.2,1.8-0.4,2.7-0.7c0.5-0.2,1.1-0.3,1.7-0.3c0.5,0.1,0.9,0.2,1.3,0.4
			c0.5,0.2,1,0.6,1.3,1.1c0.5,0.6,0.9,1.4,1,2.2c0.1,0.9,0.2,0.9,1.2,1.3c0,0,0.1,0,0.1,0c0.2,0.8,0.9,1,1.3,1.4
			c1.2,1.1,1.2,1.1,3.1,1.6c0.1,0,0.2,0.1,0.3,0.1c0.4,0.5,1,0.7,1.6,0.5c0.5-0.1,1,0.1,1.3,0.4c0.5,0.6,1.3,0.8,2,0.5
			c0.2-0.1,0.5,0,0.6,0.2c0,0,0,0,0,0c0.1,0.3,0.4,0.3,0.7,0.4c0.5,0.2,1,0.2,1.5,0.1c0.4,0.5,1,0.1,1.5,0.4
			c0.5-0.2,1.2-0.2,1.6,0.2c0.1,0.1,0.4-0.1,0.6-0.1c0.4,0,0.7,0,1.1,0c0.3,0.1,0.6,0.4,0.8,0s0-0.4-0.6-0.8
			c-0.2-0.1-0.4-0.2-0.6-0.3c-0.6-0.2-1.2-0.6-1.5-1.2c-0.1-0.2-0.3-0.3-0.4-0.4c-0.8-0.7-1.6-1.5-2.3-2.4c-0.8-1.1-2.1-2-2.4-3.5
			c0-0.1-0.2-0.2-0.3-0.4c-0.9-1.4-1.7-2.9-2.4-4.5c-0.3-0.7-0.2-1.6-1-2c0,0-0.1-0.1-0.1-0.1c0-0.8-0.8-1.4-0.7-2.3
			c0-0.2-0.1-0.3-0.2-0.4c-0.3-0.1-0.3-0.3-0.4-0.6c-0.3-1.3-0.5-2.7-0.6-4.1c0-0.3-0.1-0.5-0.2-0.8c-0.1-0.4-0.1-0.7-0.1-1.1
			c-0.3-1.7,0-3.4-0.4-5.1c0-0.2,0-0.3,0-0.5c0.1-0.6,0.2-1.2,0.3-1.9c0.1-0.7,0.2-1.4,0.2-2c0-0.6,0.5-1.2,0.1-1.9
			c0,0,0-0.2,0.1-0.3c0.6-0.6,0.4-1.5,1-2.1c0.2-0.2,0.3-0.6,0.2-0.7c-0.3-0.5,0.2-0.8,0.3-1.2c0.4-1.3,1-2.5,1.4-3.7
			c0.2-1.1,0.6-2.1,1.3-3c0.1-0.1,0.2-0.3,0.2-0.4c0.2-0.6,0.4-1.1,0.7-1.6c0.5-1.1,0.8-2.4,1.9-3.3c0.1-0.8,0.7-1.3,1-1.9
			c0.2-0.4,0.3-0.8,0.5-1.1c0.3-0.3,0.7-0.5,1.1-0.7c0.1-0.1,0.2-0.3,0.2-0.4s0.4-0.1,0.6,0c0.4,0.2,0.5,0.6,0.4,1
			c-0.1,0.4-0.3,0.8-0.5,1.1c-1.1,1.4-2,2.9-2.8,4.4c-0.2,0.4-0.4,0.9-0.5,1.3c-0.1,0.6-0.3,1.2-0.7,1.8c-0.5,0.9-0.9,1.8-1.2,2.7
			c-0.2,0.5-0.4,1.1-0.5,1.7c-0.3,0.6-0.5,1.2-0.7,1.8c-0.2,0.5-0.4,1.1-0.6,1.6c-0.1,0.4-0.2,0.7-0.2,1.1c-0.2,1-0.3,2.1-0.5,3.1
			c-0.1,0.3-0.2,0.7-0.4,1c-0.4,0.6-0.5,1.4-0.3,2.1c0.1,0.3,0,0.6-0.1,0.9c-0.3,1.2-0.3,2.4,0,3.5c0,0.1,0,0.1,0,0.2
			c-0.3,0.7,0.1,1.3,0.2,2c0,0.8,0.2,1.5,0.5,2.1c0.1,0.2,0.2,0.4,0.2,0.6c-0.1,0.7,0.1,1.4,0.4,2c0.2,0.3-0.3,0.7,0.1,1
			c0.2,0.3,0.4,0.6,0.4,1c0,0.4,0.2,0.8,0.4,1.2c0.1,0.4,0.2,0.9,0.2,1.4c0.1,0.3,0.2,0.5,0.4,0.7c0.3,0.4,0.5,0.8,0.6,1.2
			c0.2,0.6,0.3,1.2,0.6,1.8c0.3,0.6,0.6,1.1,1,1.6c0.1,0.1,0.1,0.2,0.1,0.3c0.1,0.4,0.3,0.8,0.6,1.1c0.4,0.4,0.7,0.9,0.8,1.5
			c0.1,0.5,0.4,0.9,0.7,1.2c0.7,0.9,1.5,1.8,2.3,2.6c0.6,0.5,1.2,1,1.7,1.6c0.8,1,1.8,1.8,3,2.3c0.8,0.4,1.7,1,2.7,0.6
			c0.1,0,0.2,0,0.3,0.1c0.6,0.2,1.3,0.1,1.8-0.4c0.3-0.3,0.8-0.4,1.2-0.3c0.6,0.1,1.2,0.1,1.7,0C327.4,87.8,328.2,87.7,329,87.6z
			 M293.4,3.8c-0.4,0-0.9-0.2-1,0.5c0,0.1-0.1,0.1-0.2,0.1c-0.8-0.3-1.5,0.2-2.3,0.2c-0.2,0-0.4,0-0.6,0.2c-0.5,0.4-0.9,1.1-1.8,0.7
			c-0.4,0.3-0.8,0.5-1.2,0.8c-0.5,0.3-0.8,0.7-1,1.2c-0.1,0.1-0.1,0.4-0.1,0.5c0.5,0.7,0.5,1.7,1.5,2.1c0.8,0.3,1.6,0.9,2.5,0.8
			c0.4,0,0.8,0,1.1,0.2c1,0.3,2.1,0.4,3.1,0.2c0.2,0,0.4,0,0.6,0c0.9,0.2,1.8,0.1,2.7-0.1c0.2,0,0.3,0,0.4,0.1
			c0.7,0.3,1.5,0.5,2.2,0.3c0.1,0,0.3,0,0.4,0.1c0.3,0.2,0.7,0.3,1,0.5c0.7,0.2,1.1,1,0.8,1.7c0,0,0,0,0,0c-0.1,0.3-0.2,0.6-0.4,0.8
			c-0.2,0.2-0.5,0.2-0.7,0.2c-0.3,0.1-0.6,0.2-0.9,0.3c-1.1,0.2-2.2,1-3.4,0.7c-0.2,0-0.3,0-0.5,0.1c-0.4,0.3-0.8,0.5-1.3,0.6
			c-0.1,0-0.2,0.2-0.2,0.2c0.1,0.1,0.2,0.3,0.3,0.4c0,0,0.1,0,0.1,0c0.6-0.4,1.2-0.1,1.8,0.1s1,0.3,1.5,0.5c0.5,0.2,0.9,0.4,1.4,0.5
			c0.9,0.2,1.9,0.4,2.8,0.5c0.7,0,1.2,0.6,1.1,1.3c0,0,0,0,0,0c0,0.4-0.1,0.8-0.1,1.3c0,0.3,0.2,0.6,0.4,0.6c0.1,0,0.2,0,0.3,0
			c0.4-0.2,0.8-0.2,1.2-0.1c0.6,0.4,1.4,0.4,2,0c0.1-0.1,0.4,0,0.6,0c0.4,0.1,0.7,0.1,1.1,0.2c0.7,0.1,1.3,0.1,2-0.1
			c0.4-0.2,1-0.2,1.4,0c0.2,0.1,0.5,0.2,0.8,0.1c0.8,0,1.7-0.4,2.4,0.1c0.1,0,0.2,0,0.3,0l1.8-0.6c0.2-0.1,0.4-0.2,0.6-0.2
			c0.5,0.2,1.1,0.1,1.5-0.3c0.4-0.2,0.8-0.2,1.2-0.2c0.2,0,0.6,0,0.8-0.1c0.4-0.3,0.9-0.5,1.5-0.5c0.4,0,0.7-0.5,0.6-0.9
			c-0.1-0.4-0.2-0.7-0.5-1c-0.3-0.3-0.6-0.7-0.7-1.2c-0.1-0.2-0.4-0.5-0.6-0.5c-0.7,0.1-0.8-0.1-0.7-0.8s-0.6-1.3-1-2
			c-0.7,0-0.8-0.6-1.1-1s-0.7-1.1-1.4-1.2c-0.1,0-0.3-0.2-0.3-0.3c0-0.6-0.5-0.8-0.8-1.1c-0.3-0.3-0.8-0.6-1.2-0.7
			c-0.5,0-0.6-0.6-1-0.6c-0.6,0-0.6-0.5-0.9-0.8c-0.7-0.5-1.3-1.2-2.2-1.1c-0.6-0.5-1.5-0.4-2.1-1.1c-0.1-0.2-0.5-0.2-0.7-0.2
			c-0.3,0-0.5-0.1-0.8-0.2c-0.6-0.3-1.3-0.5-2-0.5c-0.3,0-0.6,0-0.8-0.1c-0.7-0.5-1.6-0.7-2.1-1.4c-0.2-0.3-0.7-0.4-1-0.2
			c-0.3,0.1-0.7,0.2-1.1,0.3c-0.3,0.1-0.5,0.1-0.7-0.1c-0.4-0.5-1-0.7-1.6-0.5c-0.8,0.1-1.6,0.1-2.4,0c-0.6-0.2-1.2-0.1-1.7,0.3
			C294.2,4,293.8,3.8,293.4,3.8z M308.3,101.1c0.1,0,0.3,0,0.4,0c0.3-0.1,0.5-0.4,0.8-0.5s0.7,0,1.1-0.3c0.2-0.1,0.4-0.3,0.5-0.3
			c0.6,0.2,1.3,0,1.7-0.5c0.1-0.1,0.2-0.1,0.3-0.1c0.8,0,1.4-0.8,2.2-0.8c0.5-0.7,1.3-0.9,1.9-1.4c0.2-0.1,0.3-0.3,0.5-0.4
			c0.5-0.2,0.9-0.1,1.4,0.4c0.2,0.3,0.2,0.4-0.2,0.9c-0.3,0.4-0.7,0.8-1.1,1.2c-0.5,0.5-1.1,1-1.7,1.5c-0.3,0.2-0.5,0.6-0.5,0.9
			c0,0.7-0.2,1.1-0.8,1.3c-0.1,0-0.2,0.4-0.2,0.5c0,0.5-0.2,1-0.5,1.5c-0.1,0.3-0.2,0.6-0.2,0.9c-0.1,0.3-0.1,0.6-0.2,0.9
			s-0.2,0.6-0.3,0.9c-0.2,0.8-0.4,1.6-0.4,2.4c0.1,0.8,0.2,1.7,0.5,2.5c0.1,0.5,0.2,1,0.3,1.5c0.1,0.3,0.3,0.6,0.5,0.8
			c0.2,0.2,0.4,0.3,0.7,0.2c0.9,0,1.8-0.4,2.5-1c1-1,1.9-2,2.9-2.9c0.6-0.6,1.2-1.2,1.8-1.9c0.3-0.3,0.6-0.7,0.9-1.1
			c1.1-1.2,1.9-2.5,2.6-4c0.1-0.2,0.3-0.5,0.5-0.6c0.3-0.5,0.8-0.9,1-1.4c0.5-0.9,1-1.8,1.5-2.6s1-1.8,1.6-2.7
			c0.9-1.4,1.7-2.8,2.3-4.3c0.2-0.4,0.4-0.8,0.6-1.1c0.1-0.4,0.4-1-0.1-1.3s-0.8-0.1-1.2,0.2s-0.8-0.1-0.8,0.5c0,0-0.2,0.1-0.3,0.1
			c-0.7-0.2-1.4-0.2-2.1,0.2c-0.1,0-0.2-0.1-0.3-0.1s-0.5,0.1-0.5,0.2c-0.2,0.3-0.4,0.6-0.8,0.2c0-0.1-0.3,0-0.4,0.1
			s-0.3,0.2-0.4,0.2c-0.7-0.1-1.5-0.2-2.2-0.3c-0.6-0.2-1.2-0.2-1.7,0.2c-0.2,0.2-0.5,0.2-0.8,0c-0.6-0.6-1.3-0.1-2-0.3
			c-0.4,0.4-0.9,0.2-1.3,0.3c-0.5,0-1,0-1.6,0.1c-0.7,0.1-1.5,0.3-2,0.8c-0.5,0.4-1,0.8-1.5,1.2c-0.3,0.2-0.6,0.6-0.8,0.9
			c-0.2,0.4-0.6,0.8-1,1c-0.8,0.4-1.4,1.1-1.8,1.9c-0.1,0.2-0.3,0.3-0.5,0.4c-0.4,0.2-0.6,0.6-0.8,1c-0.2,0.4-0.4,0.7-0.7,1.1
			c-0.4,0.6-0.2,0.9,0.4,1H308.3z"/>
		<path d="M90.2,262.9c0-0.4,0-0.8,0-1.1c0-0.2,0-0.5,0.1-0.6c0.5-0.5,0.4-1,0.3-1.5c0-0.2,0.1-0.3,0.1-0.5s0-0.1,0-0.1
			s-0.2,0-0.3,0c-0.3,0.3-0.5,0.6-0.7,0.9c-0.3,0.6-0.9,1.1-1.5,1.4c-0.7,0.4-1.3,1-1.9,1.5c-0.1,0.1-0.2,0.3-0.3,0.4
			c-0.3,0.2-0.6,0.5-0.8,0.8c-0.2,0.4-0.7,0-1.1,0.2s-0.7,0.3-1,0.5c-0.5,0.4-1.2,0.6-1.9,0.5c-0.3,0-0.5,0.1-0.7,0.3
			c-0.6,0.7-1.5,1.1-2.4,1.2c-1.2,0.2-2.3,0.5-3.5,0.8c-0.6,0.2-1.3,0.2-1.9-0.2c-0.4-0.2-0.8-0.3-1.2-0.3c-0.6,0.1-1.2-0.1-1.7-0.5
			c-0.3-0.3-0.7-0.5-1.1-0.7c-0.5-0.3-1.2-0.5-1.5-1.2c-1.1-0.5-1.9-1.5-2.1-2.7c-0.8-0.6-0.5-1.8-1.3-2.4c-0.1-0.1,0-0.4,0-0.6
			s0.1-0.4,0-0.5c-0.5-0.6-0.3-1.1,0.2-1.5c0,0,0-0.1,0-0.2s-0.2-0.1-0.2-0.1c-0.6,0.1-1.1,0.4-1.5,0.9c-0.3,0.3-0.6,0.5-0.9,0.7
			c-0.4,0.2-1,0.3-1.1,0.6c-0.3,0.5-0.8,0.6-1.1,0.7s-0.7,0.5-1.1,0.7c-1.3,0.6-2.5,1.3-3.6,2.2c-0.4,0.2-0.9,0.2-1.2,0.5
			c-0.7,0.5-1.4,1-2.2,1.3c-0.9,0.5-1.8,1-2.7,1.5c-0.5,0.3-1,0.5-1.5,0.5c-0.3,0-0.7,0.1-0.9,0.3c-0.8,0.6-1.7,0.9-2.7,1
			c-0.2,0-0.3,0.1-0.4,0.2c-0.6,0.5-1.4,0.7-2.1,0.5c-0.3-0.1-0.7,0-0.9,0.2c-0.3,0.2-0.6,0.3-0.9,0.5c-0.2,0.1-0.4,0.2-0.6,0.2
			c-1.5-0.1-3-0.2-4.6-0.3c-0.4,0-0.7-0.1-1.1-0.2c-1.1-0.4-2.3-0.5-3.5-0.4c-0.5,0.1-0.8-0.4-1.2-0.4s-0.9,0.4-1.3,0.3
			c-0.8-0.1-1.5-0.1-2.3,0.1c-0.9,0-1.7,0-2.6-0.1c-0.3-0.1-0.7,0-0.9,0.2c-0.2,0.1-0.5,0.1-0.8,0.1c-0.6-0.2-1.2,0-1.6,0.5
			c-0.2,0.2-0.5,0.2-0.7,0c-0.3-0.2-0.4-0.5-0.3-0.8c0.1-0.6,0.6-1.1,1.2-1.2c0.3-0.1,0.7-0.2,1-0.2c0.9,0.1,1.8,0,2.6-0.3
			c0.9,0.4,1.9-0.5,2.8,0c0.1,0,0.2,0,0.3,0c0.9-0.3,1.8-0.3,2.7,0.1c0.2,0,0.4,0,0.6-0.2c0.3-0.3,0.5-0.2,0.8,0
			c0.2,0.1,0.5,0.1,0.8,0.1c0.3,0,0.6-0.2,0.8-0.1c1.4,0.8,2.8,0,4.2,0.2c0.5,0.1,1-0.4,1.6-0.1s0.9-0.3,1.4-0.1
			c0.2,0.1,0.6-0.1,1-0.2c0.5-0.2,1-0.4,1.5-0.5c0.5,0,1.1-0.2,1.5-0.5c0.1-0.1,0.2,0,0.3,0c1,0,2-0.4,2.8-1c0.9,0,1.2-1.1,2.1-1.1
			s1.3-1,2.2-1c0.7-0.5,1.5-0.9,2.3-1c0.2,0,0.4-0.1,0.6-0.3c0.4-0.6,1.1-0.9,1.8-1c0.3-0.1,0.6-0.3,0.8-0.5
			c0.2-0.2,0.3-0.3,0.5-0.3c0.1,0,0.2,0,0.3,0c0.2,0,0.3-0.1,0.5-0.2c0.7-0.7,1.7-0.7,2.5-1.2c1.8-1.3,3.6-2.4,5.6-3.3l0.5-0.2
			c1.4-0.4,1.4-0.4,1.8,1.1c0.2,0.4,0.1,0.8-0.2,1.2c-0.3,0.6-0.4,1.3-0.1,1.9c0.2,1,0.7,2,1.3,2.8c0.2,0.3,0.4,0.5,0.7,0.6
			c0.4,0.1,0.5,0.4,0.6,0.7c0,0.1,0.2,0.1,0.2,0.2c0.3,0.3,0.9-0.5,1.1,0.3c0.1,0.4,0.6,0.4,1,0.5s0.8,0.3,1.2,0.4
			c0.4,0.1,0.8,0.1,1.1,0.2c0.2,0,0.3,0,0.5-0.1c0.4-0.4,0.9-0.2,1.4-0.2c0.4,0.1,0.7,0,1-0.3c0.1-0.2,0.5-0.2,0.7-0.2
			c1.1-0.2,2.1-0.6,3-1.3c0.2-0.2,0.5-0.4,0.8-0.5c0.6-0.1,1.1-0.4,1.6-0.8c0.2-0.2,0.5-0.3,0.7-0.3c0.7-0.2,1.4-0.4,1.6-1.2
			c0.1-0.1,0.2-0.2,0.4-0.2c0.5,0.1,0.7-0.2,0.8-0.6c0-0.4,0.2-0.7,0.6-0.8c1-0.4,1.9-1.1,2.6-2c0.3-0.5,0.7-0.9,1.2-1.3
			c0.6-1,1.6-1.2,2.6-1.5c0.1,0,0.2,0,0.3,0c0.5,0.5,1.2,1,1.2,1.8c0,0.2,0,0.3-0.1,0.5c-0.3,0.5-0.5,1.1-0.5,1.7
			c0,0.4-0.1,0.8-0.3,1.1c-0.6,1.2-0.8,2.5-0.6,3.8c0,0.4,0,0.7,0.1,1.1c0.2,0.4,0.6,0.8,1,1c0.9,0.4,1.8,0.7,2.7,0.9
			c0.5-0.3,1.2-0.1,1.5-0.4c0.4-0.3,0.9-0.4,1.3-0.2c0.5,0.1,1,0.1,1.5,0c0.2-0.1,0.4-0.1,0.6-0.3c0.4-0.2,0.1-0.8,0.6-0.8
			c0.3,0,0.6,0.2,1,0.2c0.5-0.1,1-0.3,1.6,0c0,0,0.1,0,0.2,0c0.7-0.6,1.7-0.3,2.5-0.8c0.9-0.4,1.9-0.5,2.9-0.4
			c0.3,0,0.7,0.2,0.8,0.5c0.1,0.1,0.2,0.3,0.2,0.4s0.7,0.3,0.6,0.7s-0.1,1.2-0.7,1.6c-0.4,0.4-0.9,0.6-1.4,0.7
			c-0.7,0.1-0.7,0.2-0.8,1.1c-0.1,0.4-0.2,0.6,0.4,0.7c1.2,0.3,2.4,0.2,3.6-0.3c0.7-0.2,1.5-0.4,2.2-0.4c1.4,0,2.7-0.2,4-0.6
			c0.5-0.2,0.9-0.4,1.3-0.7c0.3-0.3,0.8-0.3,1.2-0.2c0.4,0.2,0.8,0.2,1.3,0.1c0.4-0.2,1-0.2,1.4,0.1c0.2,0.1,0.4,0.1,0.6,0
			c0.4-0.2,0.8-0.3,1.2-0.5c0.6-0.4,1.3-0.4,2-0.2c0.8,0.2,1.7,0,2.2-0.7c0.4-0.3,0.6-0.2,0.8,0c0.3,0.4,0.8,0.6,1.2,0.3
			c0.1,0,0.1-0.1,0.2-0.1c0.6-0.5,1.4-0.6,2.1-0.1c0,0,0.1,0,0.1,0c1.5,0.5,1.6,0.4,2.9-0.6c0.2-0.1,0.4-0.2,0.6-0.1
			c0.3,0.2,0.7,0.2,1.1,0.2c1.1,0,2.2-0.2,3.2-0.4c0.6-0.2,1.3-0.2,1.9,0.1c0.3,0.2,0.7,0.1,0.9-0.1c0.2-0.2,0.5-0.3,0.8-0.1
			c0.5,0.4,1.2,0.2,1.6-0.3c0,0,0,0,0,0c0.3-0.4,0.8-0.3,1.2,0.1s0.5,0.2,0.7-0.2s0.5-0.4,0.6-0.2c0.4,0.5,0.9,0.5,1.5,0.5
			s1-0.2,1.5-0.1c0.1,0,0.3-0.1,0.4-0.2c0.5-0.4,1.2-0.4,1.8-0.2c0.2,0.1,0.5,0.1,0.6,0c0.4-0.4,0.7-0.4,1.1,0
			c0.2,0.2,0.3,0.1,0.5-0.2c0.3-0.6,0.7-0.7,1.2-0.3c0.6,0.4,1.4,0.6,2.2,0.3c0.3,0,0.6-0.1,0.9-0.3c0.6-0.6,1-0.5,1.5,0
			c0.1,0.1,0.4,0.1,0.6,0.2c0.7,0.1,1.4,0.2,2.1,0.4c0.3,0.1,0.6,0,0.8-0.3c0.3-0.5,1-0.8,1.6-0.6c0.5,0.1,1,0,1.4,0.2
			c0.7,0.3,1.5,0.1,2-0.4c0.3-0.3,0.5-0.2,0.8,0c0.3,0.2,0.6,0.2,0.9,0c0.1-0.1,0.3-0.2,0.5-0.2c0.5,0.1,1.1,0,1.5-0.5
			c0.2-0.3,0.6-0.3,0.9-0.1c0,0,0,0,0,0c0.3,0.3,0.8,0.4,1.2,0.2c0.9-0.3,1.9-0.4,2.8-0.7c0.4-0.2,0.8-0.1,1.1,0.1
			c0.2,0.2,0.6,0.3,0.9,0.2c0.2-0.1,0.4-0.1,0.6-0.1c0.5,0.1,1,0.1,1.5,0c0.4-0.2,0.8-0.5,1.2-0.8c0.3-0.2,0.7-0.2,1,0
			c0.1,0.1,0.2,0.2,0.4,0.3c0.4,0.3,0.9,0.2,1.2-0.2c0,0,0-0.1,0.1-0.1c0.2-0.2,0.3-0.4,0.6-0.3c0.4,0.2,0.8,0.3,1.2,0.2
			c0.4-0.1,0.8-0.1,1.1,0c0.3,0.1,0.7,0,1-0.1c0.5-0.2,1-0.4,1.5,0.1c0.5,0.1,1.1,0.1,1.6-0.1c0.7-0.4,1.5-0.5,2.2-0.3
			c0.3,0.1,0.7-0.2,1-0.3c0.5-0.3,1.1-0.4,1.7-0.3c0.5,0.1,1.1-0.1,1.7,0.3c0.2,0.1,0.4,0.1,0.6,0c0.9-0.1,1.8,0,2.6,0.5
			c0.4,0.2,0.8,0.4,1.2,0c0,0,0.1-0.1,0.1-0.1l2.9,1.8c0,0.1,0,0.2-0.1,0.2c-0.2,0.1-0.4,0.2-0.6,0.2c-0.5,0.1-1.1,0.2-1.5,0.5
			c-0.2,0.1-0.4,0.2-0.6,0.2c-1.1,0-2.1,0.6-3.2,0.5c-0.1,0-0.2,0-0.3,0c-0.8,0.6-1.8,0.5-2.6,0.9c-0.3,0.1-0.5,0.1-0.8,0
			c-1.4-0.5-2.9-0.5-4.3,0c-0.7,0.2-1.4,0.4-2.1,0.5c-0.3,0.1-0.7,0.1-1,0c-0.3-0.1-0.5,0-0.8,0.1c-0.2,0.1-0.4,0.1-0.6,0.1
			c-0.7-0.2-1.4-0.1-2.1,0.2c-0.4,0.2-0.8,0.3-1.3,0.3c-1.3,0.3-2.7,0.4-4,0.5c-0.2,0-0.4,0-0.7,0.1c-1.1,0.5-2.3,0.6-3.5,0.5
			c-0.5,0-1,0.2-1.4,0.4c-0.6,0.3-1.2,0.3-1.7,0c-0.3-0.1-0.7-0.2-1.1-0.3c-0.2,0-0.3,0-0.5,0c-1.2,0.5-2.6,0.3-3.7,1.1
			c-0.5,0.4-1.2,0.4-1.7,0c-0.5-0.5-1.2-0.1-1.6-0.7c-0.1-0.1-0.4,0-0.6,0c-0.6,0.2-1.1,0.4-1.7,0.6c-0.2,0.1-0.4,0.2-0.6,0.2
			c-1.2,0.1-2.4,0.5-3.5,1.2c-0.2,0.1-0.4,0.1-0.6,0c-0.5-0.6-1.3-0.2-2-0.6c-0.2-0.1-0.4-0.1-0.6,0c-0.5,0.3-1.2,0.4-1.7,0
			c-0.3-0.1-0.7-0.2-1-0.1c-1,0-2,0.1-2.9,0.2c-0.1,0-0.3,0.1-0.4,0.2c-0.2,0.2-0.5,0.3-0.7,0.3c-0.8-0.2-1.6-0.3-2.3-0.4
			c-0.8,0-1.5,0-2.3-0.1c-0.6-0.1-1.3,0-1.9,0.2c-0.7,0.3-1.4,0.3-2.1,0.1c-0.8-0.2-1.6-0.2-2.4,0c-0.2,0-0.4,0.1-0.6,0.3
			c-0.5,0.6-1,0.4-1.6,0.1c0,0-0.1-0.1-0.1-0.1c-0.7-0.5-0.7-0.5-1.4,0c-0.3,0.3-0.7,0.3-1,0c-0.3-0.3-0.4-0.2-0.6,0.3
			s-0.6,0.7-0.8,0.3c-0.3-0.5-0.9-0.7-1.4-0.5c-1.1,0.3-2.2,0-3.4,0.1s-2.3,0-3.4,0.1c-0.5,0-1,0.3-1.4,0.3c-0.8,0-1.6,0.2-2.3,0.7
			c-0.4,0.3-0.9,0.3-1.2,0c-0.2-0.1-0.5-0.3-0.6-0.2c-0.6,0.5-1.2,0.2-1.9-0.1c-0.2-0.1-0.5,0.2-0.7,0.3s-0.5,0.3-0.7,0.3
			c-0.8,0-1.6,0.1-2.4,0.4c-0.8,0.4-1.7,0.5-2.5,0.4c-0.2,0-0.3,0-0.5,0.1c-0.5,0.5-1.3,0-1.8,0.4c0,0-0.3-0.1-0.4-0.2
			s-0.2-0.3-0.4-0.1c-0.4,0.8-0.6,0.3-0.8-0.1c-0.2-0.2-0.4-0.4-0.7-0.4c-0.9-0.1-1.3-0.9-2-1.2c-0.3-0.2-0.4-0.5-0.5-0.8
			c-0.1-0.4-0.1-0.9-0.1-1.3c0-0.5-0.3-0.8-0.9-0.8s-1-0.1-1.3,0.4s-0.7,0.3-1.1,0.3c-0.9-0.1-1.9,0.1-2.7,0.6
			c-0.2,0.1-0.5,0.1-0.8,0.1c-1-0.2-1.9-0.2-2.9,0c-0.4,0.1-0.9,0-1.2-0.3c-0.2-0.2-0.4-0.3-0.7-0.4c-0.3,0-0.6,0-1-0.1
			c-0.3-0.1-0.5-0.5-0.8-0.6c-0.7-0.3-1.2-0.8-1.4-1.5c-0.2-0.4-0.2-0.8-0.7-1.1c-0.1-0.1-0.1-0.3-0.1-0.4
			C90.1,263.7,90.1,263.3,90.2,262.9L90.2,262.9z"/>
		<path d="M107.4,416.4c0.1,0.3,0.3,0.7,0.4,1c0,0.1,0,0.2-0.1,0.2c-0.2,0.1-0.4,0.1-0.6,0.1l-2,0.1c-0.2,0-0.4,0-0.6,0
			c-0.2,0-0.3-0.2-0.5-0.1c-1.2,0.5-2.5-0.1-3.7,0c-0.3,0-0.6,0.1-0.9,0.2c-0.6,0.2-1.2,0.3-1.9,0.2c-0.6-0.1-1.2-0.2-1.7-0.3
			c-0.5-0.1-1-0.1-1.5,0.1c-0.7,0.1-1.4,0.2-2.1,0.3c-0.6,0.2-1.3,0.2-1.9,0c-0.7-0.2-1.1,0.4-1.7,0.3c-0.5-0.1-1.1,0-1.5,0.3
			c-0.1,0.1-0.4,0.2-0.4,0.1c-0.7-0.5-1.4-0.1-2.1-0.2c-0.6,0-1.3,0.1-1.9,0.3c-0.5,0.1-1.1-0.2-1.5,0.5c0,0.1-0.4,0.1-0.6,0
			c-0.4-0.3-0.9-0.3-1.3,0.1c0,0,0,0,0,0c-0.5,0.5-1.2,0.6-1.8,0.2c-0.6-0.5-1.4-0.4-1.9,0.2c0,0,0,0,0,0c-0.5,0.6-1.3,0.8-2.1,0.5
			c-0.1-0.1-0.3-0.1-0.5-0.1c-0.6,0.1-1.1,0.3-1.7,0.5c-0.6-0.4-1.3-0.1-1.9,0.1s-1.2,0.3-1.8,0.5c-0.1,0-0.2,0.2-0.2,0.2
			c0.1,0.1,0.1,0.3,0.3,0.4c0.3,0.2,0.8,0.2,1.1,0c0.4-0.3,0.8-0.3,1.2-0.1c0.3,0.1,0.5,0.1,0.8,0.1c0.6-0.2,1.3-0.2,1.9,0
			c0.4,0.1,0.9,0,1.2-0.3c0.5-0.5,0.8-0.4,1.1,0.1c0.1,0.1,0.4,0.2,0.6,0.2c0.5,0,1.1-0.3,1.6,0c0.7-0.2,1.5-0.4,2.2-0.6
			c0.3-0.1,0.5-0.3,0.7-0.3c0.7,0.2,1.5,0.1,2.2-0.2c0.3,0,0.7,0,1,0.2c0.4,0.1,0.7,0.3,1.1,0.1c0.5-0.3,1.1,0.5,1.7-0.1
			c0.4-0.4,1-0.2,1.6-0.2c0.2,0,0.5-0.1,0.6,0c1,0.9,2.4,0.1,3.5,0.6c0.2,0.1,0.4,0,0.6-0.1c0.7-0.3,1.4-0.4,2.1-0.3
			c0.8,0,1.5-0.1,2.3-0.1c0.3,0,0.5,0,0.8,0.1c0.3,0.1,0.5,0.1,0.8,0c0.5-0.3,1-0.3,1.5-0.1c0.5-0.4,0.9-0.1,1.4,0
			c0.6,0.2,1.3,0.1,1.9-0.3c0.3-0.2,0.6-0.2,0.9-0.1c1.2,0.3,2.3,0.4,3.5,0.4c0.1,0,0.1,0,0.2,0c0.7-0.3,1.4-0.4,2.2-0.3
			c0.8,0.1,1.5,0.2,2.3,0.2c0.1,0,0.4,0,0.5,0c0.5-0.6,1-0.2,1.5-0.1s0.8,0.2,1.1,0.2c0.2,0.1,0.4,0.1,0.6,0
			c0.5-0.3,1.1-0.5,1.7-0.4c0.2,0,0.3-0.1,0.4-0.2c0.2-0.2,0.4-0.2,0.6,0c0.6,0.6,1.6,0.9,2.4,0.6c1.3-0.2,2.6-0.3,3.9-0.4
			c0.2,0,0.3,0,0.5,0c0.9,0.2,1.8,0.3,2.7,0.1c1.3,0,2.6,0,3.9,0.1c0.5,0,0.9,0.3,1.4,0c0.3-0.2,0.9,0,1.2-0.1
			c0.6-0.2,1.2-0.2,1.7,0.2c0.5,0.2,1.1,0.2,1.6,0c0.5-0.3,1-0.4,1.6-0.3c0.5,0.1,1,0,1.4-0.2c0.6-0.2,1.2-0.2,1.7,0.1
			c1.2,0.3,2.4,0.3,3.5-0.2c0.8-0.3,1.7-0.4,2.6-0.1c0.2,0.1,0.4,0.1,0.6,0c0.9-0.3,1.9-0.3,2.9-0.2c0.4,0,0.8,0,1.2,0.1
			c0.3,0,0.7-0.1,0.9-0.3c0.2-0.3,0.6-0.4,0.9-0.3c1.1,0.4,2.3-0.1,3.4,0c0.4,0,0.9-0.3,1.1-0.6c0.2-0.2,0.6-0.3,0.9-0.2
			c0.6,0.2,1.3,0.2,1.9-0.1c0.4-0.2,0.9-0.2,1.3-0.1c0.8,0.2,1.6,0.2,2.4,0c1.1-0.1,2.3-0.3,3.4-0.5c0.3-0.1,0.5-0.1,0.8,0
			c0.5,0,1,0,1.4-0.1c1-0.2,2-0.2,3,0c0.4,0.1,0.8,0,1-0.3c0.2-0.2,0.4-0.3,0.7-0.2c0.8,0.2,1.6,0.2,2.4,0.1c0.6,0,1.2,0,1.8,0
			c0.4,0,0.8-0.1,1.1-0.1c0.8,0,1.5-0.4,2.2-0.5s1.4,0.3,2.1,0c0.7,0.4,1.4-0.2,2.1-0.1s1.4,0,2.1,0c0,0,0.1,0,0.2,0
			c0.1-0.1,0.2-0.2,0.2-0.2c0-0.1,0-0.2-0.1-0.3c-0.6-0.4-1.3-0.7-2-0.7c-1.2-0.3-2.4-0.4-3.6-0.4c-1.6-0.5-3.2,0-4.9-0.5
			c-1.1-0.2-2.2-0.2-3.2,0c-0.8,0.1-1.5-0.3-2.3-0.2c-0.8,0.1-1.5,0.1-2.3,0c-1.2-0.1-2.4-0.1-3.6-0.1c-1.8,0-3.7-0.1-5.5-0.2
			c-1.8-0.2-3.7-0.2-5.5-0.1c-0.5,0-1,0-1.5-0.1c-1.5,0-2.9,0-4.4-0.1c-0.5,0-1,0-1.5,0c-0.5,0-1.1,0-1.6,0c-0.7,0.2-1.5,0.2-2.3,0
			c-0.3-0.1-0.7-0.1-1,0c-1.1,0.2-2.2,0.2-3.2,0.2c-0.8,0-1.5-0.2-2.2-0.1c-0.9,0-1.9,0.1-2.8,0.1c-1.2,0.1-2.5,0.1-3.7-0.3
			c-0.9-0.2-1.7-0.3-2.6-0.3c-0.2,0-0.5,0.1-0.6-0.2c0.2-0.1,0.5-0.2,0.7-0.3c1.7-0.3,3.5-0.5,5.2-0.6c1.3-0.1,2.7,0.1,4,0.1
			c0.2,0,0.4,0.1,0.5,0c0.7-0.5,1.4-0.1,2-0.1s1.3-0.2,1.9,0.2c0.1,0.1,0.2,0.1,0.3,0.1c1.5-0.4,2.9,0,4.4,0c0.6,0,1.2,0.1,1.8,0.1
			c1.4,0,2.7,0,4.1,0.1c0.8-0.1,1.6-0.1,2.4,0c0.8,0.2,1.6-0.1,2.4,0.3c1.1-0.4,2.2,0.3,3.2-0.2c0.6,0.1,1.2,0.1,1.8,0.1
			c1.6,0,3.2,0,4.7,0.1c1.6-0.1,3.2,0,4.7,0.2c0.6,0,1.3,0,1.9,0c3,0.3,6,0.5,8.9,0.8c2.1,0.2,4.2,0.7,6.2,1.5
			c0.2,0.1,0.4,0.2,0.6,0.3c0.7,0.4,0.7,1,0.1,1.4c-0.3,0.2-0.6,0.3-0.9,0.3c-1.4,0.1-2.7,0.7-4.2,0.6c-0.8,0.1-1.6,0.2-2.4,0.5
			c-0.3,0.1-0.5,0.1-0.8,0.1c-1.6,0-3.3,0.3-4.8,0.8c-0.8,0.1-1.5,0.2-2.3,0.2c-0.3,0-0.7,0-1,0c-0.6,0.1-1.1,0.3-1.6,0.5
			c-0.6-0.4-1.1,0.3-1.7,0.2c-0.6,0-1.2,0-1.8,0.1c-0.7,0.2-1.4,0.1-2.1,0.2c-1.5,0.1-2.9,0.3-4.3,0.7c-0.3,0.1-0.6,0.1-0.9,0
			c-0.5-0.1-1-0.1-1.4,0.2c-0.7,0.3-1.5,0.3-2.2,0.2c-0.4-0.1-0.8,0-1.1,0.2c-0.5,0.3-1.1,0.4-1.5,0.1c-0.2-0.1-0.4-0.1-0.6,0
			c-0.3,0.1-0.7,0.5-1,0.4s-0.5-0.3-0.9-0.2c-0.5,0.1-1.1,0.2-1.6,0.2c-0.8,0.1-1.5,0.6-2.4,0.2c-0.1-0.1-0.5,0.2-0.7,0.4
			s-0.5,0.5-0.8,0.2c-0.2-0.2-0.5-0.2-0.8,0c-0.5,0.3-1.1,0.3-1.5,0c-1.2,0.1-2.4-0.3-3.5,0.1c-0.8,0.3-1.7,0.3-2.5,0.2
			c-1.2-0.1-2.4-0.1-3.6,0c-0.5,0-1.1,0.3-1.6,0c-0.2,0-0.4,0-0.6,0.1c-0.4,0.2-0.9,0.3-1.3,0.1c-0.6-0.2-1.3-0.2-1.9-0.1
			c-0.1,0-0.3,0-0.3,0.1c-0.3,0.8-0.8,0.4-1.2,0.2c-0.1-0.1-0.3-0.1-0.5-0.1c-0.8,0.1-1.6,0.1-2.4,0c-0.8-0.1-1.5,0-2.3,0.1
			c-0.6,0.1-1.3-0.3-1.9,0.3c0,0-0.1,0-0.1,0c-0.7-0.8-1.7-0.1-2.5-0.5c-0.7-0.2-1.4-0.2-2.1,0c-0.6,0.2-1.2,0.6-1.9,0.1
			c-0.1-0.1-0.2-0.1-0.3,0c-0.6,0.6-1.2,0.2-1.8-0.1c-0.3-0.2-0.7-0.2-1.1-0.1c-0.5,0.1-1.1,0.2-1.6,0.2c-0.3,0-0.7,0.1-0.9,0.4
			c-0.1,0.1-0.3,0.1-0.4,0c-0.5-0.5-1-0.1-1.5-0.2c-0.3,0.7-0.8,0.2-1.3,0.2s-1.2-0.4-1.7,0.1c-1,0-1.9,0-2.9,0
			c-0.6,0-1.3-0.1-2-0.1c-0.3-0.1-0.7,0.1-0.9,0.3c-0.1,0.1-0.3,0-0.4,0s-0.4-0.2-0.6-0.3c-0.3-0.2-0.6-0.2-0.9,0
			c-0.5,0.3-1,0.4-1.5,0.1c-0.7-0.3-1.6-0.2-2.1,0.4c-0.2,0.1-0.5,0.2-0.8,0.1c-1.6-0.4-3.4-0.4-5,0c-0.9-0.2-1.7,0.5-2.6,0
			c-0.8,0.3-1.8-0.1-2.6,0.3c-0.3,0.1-0.5,0.1-0.8,0.1c-0.4,0-0.9,0-1.3,0.1c-1.3,0.2-2.6,0.1-3.9-0.1c-0.5-0.1-1.1-0.2-1.5,0.4
			c-0.1,0.2-0.4,0.1-0.6,0c-0.3-0.2-0.7-0.3-1.1-0.3c-1.4,0.3-2.9,0-4.3,0.5c-0.2,0.1-0.4,0.1-0.6,0c-1.2-0.5-2.6-0.7-3.8-0.4
			c-0.5,0.1-1,0.1-1.4-0.1c-0.7-0.3-1.5-0.1-2.1,0.5c-0.2,0.2-0.4,0.3-0.7,0.2c-0.6-0.2-1.2-0.3-1.9-0.5c-0.1,0-0.4-0.1-0.5,0
			c-0.5,0.5-0.9,0.2-1.3,0c-0.3-0.2-0.7-0.2-1.1-0.2c-0.4,0.1-0.9-0.1-1.1-0.5c-0.3-0.5-0.5-1-1.1-1.2c-0.1,0-0.2-0.3-0.2-0.4
			c0.4-0.7,0.5-1.7,1.5-2c0.2-0.1,0.4-0.2,0.5-0.4c0.2-0.5,0.8-0.8,1.3-0.6c0.1,0,0.1,0,0.2,0.1c0.4,0.1,0.8,0,1.1-0.2
			c0.4-0.2,0.8-0.5,1.2-0.2c0.2,0.1,0.3,0,0.5-0.1c0.5-0.4,1.1-0.5,1.7-0.5c0.6,0,1.1-0.2,1.4-0.7c0.1-0.1,0.4-0.1,0.6-0.2
			c0.2,0,0.4,0,0.6,0.1c0.6,0.1,1-0.5,1.5-0.3s1.1-0.1,1.6-0.2c0.1,0,0.4-0.2,0.5-0.1c0.8,0.4,1.5,0,2.1-0.4
			c0.1-0.1,0.3-0.2,0.5-0.1c0.9,0.3,1.4-0.3,2.1-0.6c0.2-0.1,0.4-0.2,0.6-0.1c0.6,0.5,1.4,0.5,2-0.1c0.4-0.3,0.9-0.4,1.3-0.3
			c0.5,0.1,1.1,0.1,1.6,0.1c0.3,0,0.5-0.1,0.7-0.3c0.5-0.4,1.1-0.5,1.7-0.4c0.5,0,1,0.1,1.5,0.2c0.6,0.1,1-0.4,1.5-0.5
			s0.9,0.5,1.4,0c0.1-0.1,0.4,0,0.6,0.1c0.3,0.3,0.7,0.3,1,0.1c0.7-0.3,1.4-0.1,2.1,0s1.2-0.5,1.9-0.5c0.3,0,0.6,0,0.8,0.1
			c1,0.5,2.1,0.1,3.2,0.2c0.2,0,0.4,0,0.6-0.1c0.8-0.2,1.6-0.2,2.4,0.2c0.4,0.2,0.8,0.3,1.3,0.2c1,0,2,0.2,3,0c0.1,0,0.2,0,0.3,0
			c1,0.5,2,0.7,3.1,0.7c0.4,0,0.9,0.1,1.3,0.2L107.4,416.4z"/>
		<path d="M72.9,195.1c0.5,0.1,1-0.1,1.4-0.4c0.4-0.2,0.8-0.3,1.2-0.3c0.5,0,1.1,0.1,1.5-0.4c0.1-0.1,0.3-0.1,0.5-0.1
			c0.9,0,1.7-0.1,2.5-0.5c0.5-0.3,1.1,0.1,1.8-0.2c0.5-0.3,1.1-0.4,1.7-0.3c0.5,0.1,1,0,1.4-0.3c1.2,0.1,2.2-0.7,3.4-0.5
			c0.3,0,0.5-0.1,0.8-0.2c0.2-0.1,0.4-0.1,0.6-0.2c0.5,0,1,0.4,1.5,0c0.5-0.2,1-0.2,1.6-0.2c0.5-0.1,1.1-0.2,1.6-0.3
			c0.3,0,0.5,0.1,0.8,0c0.4-0.1,0.8-0.1,1.3-0.1c0.4,0.1,0.9,0,1.2-0.2c0.6-0.3,1.4-0.2,2-0.7c0.4,0.1,0.8,0.2,1.3,0.2
			s0.8,0.1,0.9-0.1c0.6-0.6,1.2-0.4,1.8-0.2c0.4,0.1,0.9,0.1,1.3,0c0.9-0.2,1.8-0.2,2.8-0.2c0.8,0.2,1.5,0.1,2.2-0.2
			c1.1-0.2,2.2-0.2,3.4-0.3c0.9,0.2,1.9,0.1,2.8-0.2c0.2-0.1,0.4,0,0.6,0.1c0.9,0.2,1.8,0.2,2.8,0c0.2,0,0.4,0,0.6,0
			c1.8,0.1,3.6,0.1,5.4-0.1c0.2,0,0.4-0.1,0.6-0.1c0.8,0.2,1.6,0.3,2.4,0.2c0.8-0.1,1.6,0,2.4-0.1c0.6,0,1.2,0.1,1.8,0.2
			c0.9,0.2,1.9,0.3,2.9,0.2c0.2,0,0.4,0,0.6,0.1c0.7,0.3,1.4,0.6,2.1,0.9c0.2,0.1,0.3,0.3,0.5,0.4c-0.2,0.1-0.4,0.2-0.6,0.2
			c-0.9,0.4-1.9,0.6-2.9,0.4c-0.5,0-1,0-1.5,0.1l-2.8,0.3c-0.3,0-0.5,0-0.8,0c-0.5-0.1-1-0.1-1.5-0.1c-0.4,0.1-0.9-0.1-1.2,0.1
			c-0.5,0.2-0.8-0.1-1.2-0.1c-0.8,0-1.6,0.1-2.5,0.1c-0.2,0-0.3,0.1-0.5,0.1c-0.6-0.1-1.2-0.2-1.8-0.1c-0.5,0.2-1.1,0.2-1.6,0.2
			c-0.5-0.1-1.1-0.1-1.6,0.1c-0.1,0.1-0.3,0.1-0.5,0c-0.9-0.1-1.7-0.1-2.6,0c-0.5,0-1,0.2-1.5,0c-0.2-0.1-0.3-0.1-0.5,0
			c-1.1,0.3-2.3,0.3-3.4,0.2c-1.1-0.1-2.2,0.1-3.2,0.3c-0.3,0-0.7,0-1,0c-0.9,0-1.8,0-2.6,0c-0.2,0-0.4,0.2-0.5,0.3
			s-0.3,0.3-0.4,0.2c-0.9-0.3-1.8,0.3-2.7,0c-0.6-0.2-1.2,0.2-1.9,0.2s-1.3-0.2-1.9,0.2c-0.1,0.1-0.5-0.1-0.8-0.2
			c-0.4-0.2-0.9-0.1-1.2,0.1c-0.4,0.5-0.7,0.5-1.2,0.1c-0.3-0.2-0.5,0.1-0.6,0.3s-0.4,0.5-0.8,0.2c-0.1-0.1-0.3-0.1-0.4-0.1
			c-1.4,0.1-2.7,0.3-4,0.3c-1.2,0.7-2.5,0.4-3.8,0.7c-0.3,0.1-0.5,0.1-0.8,0.1c-1.4,0.1-2.7,0.3-4,0.8c-0.7,0.2-1.5,0.4-2.2,0.5
			c-0.4,0.1-0.9,0-1.2,0.4c-0.1,0-0.2,0-0.3,0c-0.2-0.2-0.5-0.3-0.7-0.1c0,0,0,0,0,0c-0.9,0.6-1.9,0.8-3,0.7c-0.3,0-0.5,0.1-0.8,0.2
			c-0.9,0.3-1.8,0.7-2.7,1.1c-0.1,0.1-0.3,0.1-0.5,0.1c-1.2,0.1-2.4,0.5-3.4,1.2c-0.5,0.3-0.8,0.8-1.4,1c-0.4,0.1-0.5,0.7-0.5,1.1
			c0,0.1,0,0.3,0.1,0.3c0.7,0.3,1.2,1.1,2.1,1.1c0.4,0.1,0.8,0.2,1.2,0.4c0.4,0.2,0.8,0.2,1.3,0.2c0.6,0,1.3-0.1,1.8,0.5
			c0.1,0.1,0.3,0.2,0.4,0.1c0.7-0.1,1.4,0,2.1,0.2c0.9,0.3,1.9,0.3,2.7-0.1c0.3-0.1,0.6-0.1,0.9,0.1c0.7,0.4,1.5,0.6,2.4,0.4
			c1.3-0.2,2.6,0.4,3.8-0.1c0.8,0.1,1.5,0.2,2.2,0.3c0.5,0.1,1,0.1,1.5-0.1c0.4-0.1,1,0.1,1.4-0.1c0.6-0.2,1.3-0.2,1.9,0
			c0.5,0.1,1,0.1,1.5,0c0.9,0,1.7-0.1,2.6-0.2c0.2,0,0.5-0.1,0.6,0c1,0.2,1.9,0.2,2.9,0.1c1,0.1,2,0.1,2.9,0.1
			c0.9-0.1,1.8-0.1,2.7,0c1-0.6,2-0.2,3-0.1c0.1,0,0.2,0.1,0.3,0c0.6-0.3,1.2-0.4,1.9-0.4c0.6,0,1.3-0.1,1.9-0.3
			c0.3-0.1,0.5-0.2,0.8,0c0.6,0.4,1.3,0.4,2,0.1c0.6-0.3,1.2-0.3,1.7,0c0.4,0.2,0.8,0.1,1.1-0.1c0.9-0.5,2-0.7,3-0.6
			c0.4,0,0.8,0,1.1-0.1c0.6-0.2,1.2-0.2,1.8,0c0.5,0.2,1.1-0.2,1.7-0.2c0,0,0.1-0.2,0.1-0.3c0-0.3,0.2-0.4,0.4-0.2
			c0.4,0.5,1,0.5,1.5,0.2c0,0,0.1-0.1,0.1-0.1c0.3-0.3,0.7-0.3,1.1-0.2c1.1,0.5,2.3-0.1,3.4,0c0.1,0,0.3-0.1,0.4-0.3
			c0.2-0.3,0.6-0.4,1-0.3c0.5,0.2,1,0.1,1.4-0.3c0.1-0.1,0.3-0.1,0.4,0c0.3,0.2,0.6,0.2,0.9,0.1c0.6-0.2,1.2-0.5,1.9-0.1
			c0.2,0.1,0.5,0,0.8-0.1c1.2-0.5,2.6-0.4,3.7-1.2c0.1-0.1,0.3,0,0.5,0c0.8,0,1.6-0.2,2.4-0.5c0.7-0.3,1.4-0.5,2.2-0.4
			c0.7,0.1,1.5-0.1,2-0.6c0.2-0.2,0.5-0.3,0.9-0.3c0.5-0.1,1-0.2,1.4-0.3l1.6-0.3c0.2,0,0.3,0,0.5-0.1c0.5-0.2,1-0.5,1.4-0.7
			s1-0.2,1.4-0.5c0.5-0.5,1.3-0.8,2-0.8c0.3,0,0.6-0.2,0.9-0.4c0.7-0.5,0.7-0.8,0.1-1.3c-0.1-0.1-0.3-0.2-0.4-0.3
			c-0.4-0.6-1.1-0.9-1.8-0.9c-0.4,0-0.9,0-1.3-0.1c-0.4-0.1-0.8-0.2-1.2-0.4c-0.6-0.2-1.3-0.3-2-0.1c-0.5,0.1-1,0-1.4-0.2
			c-0.9-0.7-2-0.9-3.1-0.5c-1,0.3-1.2,0.1-1.8-0.9c-0.3-0.5-0.6-0.9-0.8-1.4c-0.1-0.2,0-0.4,0.2-0.6c0.2-0.2,0.5-0.2,0.7-0.3
			s0.1-0.4,0.3-0.5c0.1-0.1,0.3-0.1,0.5-0.1c0.3,0.1,0.6,0.4,0.9,0.1c0.6-0.3,0.8,0.7,1.3,0.4c0.4-0.2,1-0.2,1.4,0.2
			c0.6,0.3,1.3,0.4,1.9,0.2c0.5-0.1,1,0,1.4,0.2c0.6,0.3,1.3,0.4,2,0.5c0.5,0,1.1,0.1,1.6,0.2c0.4,0.1,0.7,0,0.9,0.5
			c0.3,0.5,0.9,0.7,1.4,0.5c1-0.1,2,0.4,2.5,1.3c0.3,0.4,0.6,0.8,0.9,1.1c0.1,0.2,0.3,0.4,0.2,0.6c-0.3,1.1-0.5,2.4-1.7,3.1
			c-0.6,0.4-0.8,1.2-1.5,1.4c-0.9,1-2.3,1-3.3,1.8c-0.8,0.1-1.5,0.2-2.2,0.4c-0.7,0.1-1.3,0.4-1.7,0.9c-0.2,0.2-0.4,0.3-0.7,0.3
			c-0.7-0.1-1.2,0.6-1.9,0.1l-1.7,0.4c-0.1,0-0.2,0-0.3,0.1c-1.2,0.8-2.6,0.6-3.9,0.8c-0.8,0.1-1.6,0.4-2.3,0.8
			c-0.3,0.2-0.6,0.2-0.9,0c-0.2-0.1-0.4-0.2-0.6-0.2c-1.1,0-2.3,0.2-3.4,0.5c-1,0.4-2,0.6-3,0.7c-0.6,0-1.2,0.1-1.7,0
			c-1.3-0.1-2.5,0.2-3.6,0.9c-0.5,0.4-1.2,0.4-1.7,0.2c-0.9-0.4-1.7,0-2.5,0.3c-0.3,0.1-0.6,0.2-0.9,0c0,0-0.1,0-0.2,0
			c-0.5,0.5-1,0.3-1.6,0.2c-0.6,0-1.2,0-1.8,0.1c-0.8,0.2-1.7,0.2-2.5-0.2c-0.1,0-0.2,0-0.3,0c-1.7,0.5-3.5-0.1-5.2,0.5
			c-0.6-0.2-1.2-0.1-1.7,0.3c-0.1,0.1-0.4,0-0.6,0s-0.5-0.1-0.7,0.1s-0.4,0.3-0.6,0.1c-0.2-0.3-0.6-0.5-1-0.4
			c-0.4,0.1-0.7,0.1-1.1,0.1c-0.4,0-0.8,0-1.1,0.1c-0.5,0.1-1,0.1-1.4-0.1c-0.6-0.3-1.3-0.3-1.8,0.1c-0.2,0.2-0.7,0.1-1.1,0.1
			c-0.6,0-1.2-0.2-1.7,0.2c-0.1,0-0.2,0-0.3,0c-0.6-0.6-1.2-0.2-1.9-0.2s-1.3,0-2,0s-1.4,0.3-2.1-0.1c-0.3-0.1-0.5-0.1-0.8,0.1
			c-0.6,0.2-1.2,0.2-1.8,0.1c-1.3-0.1-2.5-0.5-3.9-0.4c-0.4,0-0.8-0.1-1.1-0.1c-0.3,0-0.6-0.1-0.8,0c-0.7,0.5-1.2,0.1-1.8-0.1
			c-0.7-0.3-1.4-0.4-2.1-0.3c-0.7,0.1-1.4,0.1-2.1-0.1c-0.6-0.1-1.3-0.2-1.9-0.2c-1.4-0.1-2.7-0.4-4-0.8c-1.3,0.1-2.6-0.6-3.9-0.6
			c-1.8,0-3.2-1-4.8-1.5c-1-0.4-1.7-1.3-1.9-2.3c-0.2-0.5-0.1-1,0.2-1.4c0.5-0.8,1.1-1.5,1.8-2.1c0.4-0.5,1-0.7,1.6-0.7
			c0.3,0,0.6-0.3,1-0.5s0.8-0.7,1.4-0.7c0.4,0,0.5-0.7,1.2-0.6c0.4,0.1,0.9-0.3,1.4-0.4c1-0.2,2-0.5,2.9-1
			C71,195,72,194.8,72.9,195.1z"/>
		<path d="M66.5,320.3c-0.1,0.2-0.1,0.4-0.1,0.6c0.1,0.5,0.1,1.1,0.1,1.6c-0.1,0.5-0.6,0.8-1,1.3c-0.2,0.3-0.4,0.6-0.5,1
			c-0.2,0.9-0.9,1.7-1.7,2.1c-0.7,0.2-1.2,0.9-1.2,1.6c0,0.5-0.6,0.8-1,0.9c-0.4,0.1-0.7,0.3-0.8,0.7c-0.2,0.4-0.6,0.6-0.9,0.9
			c-0.9,0.7-2.1,1.1-2.8,2.2c-0.3,0.4-1,0.3-1.2,0.9c-0.6,0.2-0.6,0.9-1,1.2s-0.9,0.4-1.3,0.7c-0.4,0.3-0.5,0.8-0.3,1.2
			c0.1,0.1,0.2,0.2,0.3,0.3c0.5,0.2,0.7,0.5,0.6,1c-0.1,0.3,0,0.7,0.2,0.9c0.5,0.4,0.8,0.9,1,1.5c0.2,0.5,0.5,0.9,0.8,1.2
			c0.5,0.5,0.7,1.4,1.6,1.4c0.1,0,0.4,0.3,0.4,0.5c-0.1,0.7,0.4,1,0.8,1.3c0.5,0.4,0.9,0.9,1.3,1.5c0.1,0.2,0.4,0.3,0.6,0.5
			s0.2,0.2,0.2,0.4c0,1.1-0.4,2.2-1.3,3c-0.4,0.6-1,1-1.6,1.2c-0.2,0.1-0.4,0.2-0.5,0.4c-0.6,0.9-1.4,1.5-2.3,2
			c-0.1,0.1-0.2,0.1-0.3,0.2c-1.7,1.5-3.1,3.2-4.2,5.2c-0.5,0.8-0.2,1.8,0.6,2.2c0.1,0,0.1,0.1,0.2,0.1c1.9,0.8,3.7,1.9,5.1,3.4
			c0.5,0.5,1.1,0.9,1.8,1c0.3,0,0.5,0.2,0.6,0.5c0.1,0.2,0.2,0.4,0.4,0.5c0.7,0.3,1.3,1,2.1,1.2c0.1,0.9,1.1,1.1,1.5,1.8
			c0.6,0.2,0.6,0.8,0.8,1.2c0.2,0.4,0.6,0.8,1,1c0.3,0.2,0.6,0.4,0.8,0.7c0.1,0.1,0.2,0.3,0.3,0.3c0.9,0.2,1.2,0.8,1.6,1.5
			s0.9,1.1,1,1.8c0.2,0.7,0.6,1.3,1,1.9c0.2,0.3,0.3,0.7,0.3,1.1c-0.1,0.8,0.1,1.5,0.5,2.2c0.1,0.1,0.1,0.3,0.1,0.5
			c-0.2,1.2-0.2,2.4,0.2,3.5c0.2,0.5,0.1,1.1-0.1,1.5c-0.3,0.4-0.1,1-0.5,1.5s-0.5,0.8-0.8,1.2c-0.2,0.4-0.4,0.8-0.5,1.2
			c-0.1,0.6-0.4,1.2-0.9,1.7c-0.2,0.2-0.4,0.5-0.5,0.8c-0.2,0.4-0.5,0.5-0.8,0.4c-0.5-0.2-0.8-0.6-0.6-1c0.4-0.9,0.3-1.8,0.7-2.7
			c0.2-0.7,0.3-1.4,0.3-2.1c0.1-0.5,0.3-1,0.6-1.5c0.5-1.1,0.7-2.3,0.7-3.5c-0.6-0.6-0.1-1.5-0.4-2.2s-0.3-1.4-0.6-2
			c-0.3-0.8-0.8-1.6-1.2-2.3c-0.1-0.2-0.3-0.3-0.5-0.4c-0.2-0.2-0.5-0.3-0.6-0.5c-0.4-1-1.3-1.2-1.9-2c-1.2-0.6-1.9-1.7-2.9-2.6
			c-0.1-0.6-0.9-0.3-1.1-0.8s-0.7-0.5-1.1-0.6s-0.8-0.2-0.9-0.6c-0.1-0.2-0.3-0.4-0.6-0.5c-0.5-0.2-0.8-0.5-1-1
			c-0.3-0.8-0.9-1.4-1.7-1.6c-0.6-0.2-1.1-0.6-1.5-1c-0.5-0.5-0.8-1.2-1.6-1.3c-0.2,0-0.3-0.3-0.4-0.5c-0.3-0.4-0.6-0.8-0.9-1.1
			c-0.4-0.3-0.6-0.7-0.6-1.2c-0.3-1.8,0.4-3.3,0.8-4.9c0.1-0.2,0.2-0.3,0.3-0.4c0.8-1,1.7-1.9,2.8-2.8c0.3-0.2,0.5-0.5,0.6-0.8
			c0.1-0.3,0.4-0.4,0.7-0.6s0.5-0.6,0.7-0.6c0.8-0.1,1.2-0.8,1.7-1.2c0.3-0.3,0.6-0.6,1-0.9c0.4-0.3,0.4-0.7,0.1-1.1
			c-0.7-0.7-1.4-1.5-2-2.3c-0.1-0.2-0.4-0.3-0.6-0.5s-0.5-0.2-0.5-0.4c-0.5-1.3-2-1.9-2.2-3.3c-0.1-0.5-0.5-0.5-0.9-0.6
			s-0.6-0.2-0.5-0.6s-0.2-0.6-0.4-0.8c-0.8-0.9-0.6-2-0.6-3.1c0.5-0.5,0.5-1.2,0.9-1.7s0.6-0.9,1-1.3c0.1-0.1,0.1-0.2,0.2-0.2
			c0.6-0.3,1.3-0.5,1.7-0.9s1.1-0.7,1.6-1c0.7-0.5,1.3-1,1.9-1.5c0.4-0.3,0.8-0.7,1.2-1.1c0.3-0.4,0.7-0.7,1.2-0.6c0.6,0,1-0.4,1-1
			c0,0,0-0.1,0-0.1c-0.1-0.4,0.2-0.7,0.6-0.8c0.5-0.2,1-0.5,1.4-0.9c0.1-0.1,0.1-0.2,0.1-0.3c-0.5-0.6,0-0.7,0.4-0.8
			c0.8-0.3,1.3-1,1.5-1.8c0.1-0.3,0.1-0.6,0.2-1c0.2-0.6,0-1.2-0.6-1.4c0,0,0,0,0,0c-0.6-0.4-0.8-1.1-1.3-1.7
			c-0.1-0.2-0.2-0.5-0.3-0.5c-0.9-0.3-1.1-1.2-1.6-1.9c-0.3-0.4-0.6-0.7-0.9-1c-0.1-0.2-0.4-0.3-0.5-0.4c-0.3-1.2-1.4-1.7-2-2.5
			c-0.2-0.3-0.6-0.5-0.8-0.8c-0.4-0.6-1-1-1.6-1.2c-0.3,0-0.5-0.2-0.7-0.4c-0.5-0.8-1.5-0.9-1.8-1.8c-0.8-0.6-0.7-1.5-0.8-2.4
			c-0.1-0.8,0.1-1.6,0.6-2.1c0.1-0.2,0.3-0.3,0.5-0.3c0.7-0.2,1.4-0.6,1.9-1.2c0.3-0.3,0.7-0.6,1.1-0.7c0.5-0.2,0.9-0.4,1.3-0.7
			c0.6-0.5,1.3-0.9,2.1-1.3c0.1,0,0.2-0.1,0.3-0.2c0.6-0.9,1.7-1.2,2.5-1.8c0.4-0.3,0.9-0.5,1.3-0.6c0.1,0,0.3,0,0.3,0
			c0,0.1,0,0.3,0,0.4c-0.3,0.6-0.6,1.1-1,1.7c-0.5,0.6-1,1.1-1.7,1.5c-1.8,1.1-3.5,2.4-5.1,3.8c-0.3,0.3-0.9,0.2-0.9,0.8
			c0,0.4,0.4,0.7,0.4,1c0,0.9,0.8,1.3,1.2,1.8c0.8,0.9,1.7,1.5,2.8,2c0.9,0.4,1.6,1.2,2.4,1.6c0.5,0.4,0.9,1,1,1.7
			c0.1,0.4,0.3,0.8,0.6,1.1c0.6,0.6,1,1.4,1.8,1.9c0.3,0.2,0.5,0.4,0.6,0.7c0.6,1.1,1.1,2.1,1.6,3.2C66.5,319.8,66.5,320,66.5,320.3
			z"/>
		<path d="M128.6,398.9l-1.3-0.2l-1.3-0.1c-0.4,0-0.9-0.1-1.3-0.2c-1.3-0.4-2.7-0.7-4.1-0.8c-0.3,0-0.6,0-0.8-0.1
			c-0.6-0.6-1.5-0.4-2.1-0.7c-0.9-0.4-1.8-0.5-2.7-0.8c-0.7-0.2-1.4-0.3-2-0.4c-0.8-0.1-1.5-0.2-2.3-0.2c-0.2-0.1-0.4-0.1-0.6,0
			c-1.1,0.6-2.5,0.4-3.4,1.3c-0.7,0.1-1.4,0.3-2,0.6c-0.7,0.2-1.3,0.7-1.7,1.2c-0.2,0.3-0.4,0.5-0.7,0.7c-0.5,0.4-1.1,0.3-1.5-0.1
			c0,0-0.1-0.1-0.1-0.1c-0.4-0.8-1.1-1.5-1.9-1.9c-0.2-0.1-0.4-0.3-0.6-0.6c-0.6-0.9-1.3-1.8-2.1-2.7c-0.3-0.5-0.8-0.9-1.3-1.2
			c-0.3-0.1-0.5-0.4-0.7-0.6s-0.4-0.3-0.6-0.3c-0.9,0.3-1.7-0.5-2.5-0.2c-0.1,0-0.2,0-0.3,0c-1-0.6-1.9-0.1-2.8,0.4
			c-0.9,0.4-1.7,0.8-2.6,1.2c-0.7,0.3-1.5,0.7-2.1,1.2c-0.5,0.9-1.5,1-2.2,1.5c-0.5-0.2-0.8,0.2-1,0.6c-0.1,0.2-0.3,0.3-0.5,0.4
			c-0.1,0.1-0.3,0.1-0.5,0c-0.4-0.3-0.7-0.9-0.5-1.4c0.1-0.4,0.2-0.8,0.4-1.2c0-0.1,0.2-0.2,0.4-0.2s0.4-0.1,0.4-0.2
			c0.3-0.7,0.9-0.8,1.5-1.1c0.7-0.3,1.3-0.8,1.9-1.2c0.5-0.4,1-0.8,1.5-1.2c0.3-0.3,0.7-0.5,1.2-0.5c0.8-0.2,1.5-0.6,2.3-0.7
			c0.4-0.1,0.8-0.2,1.2-0.3c0.4-0.1,0.7-0.5,0.7-1c0-0.7,0-1.3,0-2c0-1.1,0.1-2.2,0.3-3.2c0.1-0.6,0.5-1.2,0.1-1.9
			c-0.1-0.2-0.1-0.4,0-0.6c0.2-0.3,0.3-0.6,0.4-0.9c0.1-1.9,1.1-3.5,1.2-5.4c0.1-0.8,0.3-1.6,0.7-2.3c0.3-0.7,0.5-1.5,0.5-2.4
			c0.1-0.9,0.6-1.8,1.3-2.3c0.8-0.8,1.9-1.3,3.1-1.4c0.5,0,1,0.1,1.4,0.2c1,0.1,2,0.8,2.5,1.7c0.3,0.4,0.6,0.8,0.8,1.2
			c0.3,0.6,0.9,0.9,0.9,1.7c0,0.6,0.6,1,0.5,1.7c0,0.3,0.2,0.7,0.3,1.1c0.1,0.3,0.1,0.5,0.1,0.8c-0.2,0.6-0.1,1.2,0.2,1.8
			c0.3,0.7,0.5,1.5,0.5,2.3c0.2,1.3,0.2,2.7,0.4,4c0.1,0.8,0.3,1.6,0.4,2.4c0,0.9,0.2,1.7,0.4,2.5c0.1,0.3,0.1,0.5,0.1,0.8l0.5,5.3
			c0,0.1,0.1,0.2,0.1,0.3c0.1,0.4,0.2,0.5,0.6,0.3c1-0.4,2.2-0.5,3.2-1c0.6-0.1,1.2-0.1,1.8,0c0.3,0,0.5,0.2,0.8,0.2
			c0.4-0.1,0.8-0.1,1.3-0.1c0.3,0.1,0.7,0.3,1,0.5c0.2,0.1,0.5,0.2,0.8,0.2c0.9-0.1,1.9,0.2,2.6,0.7c0.3,0.2,0.7,0.4,1,0.4
			c0.9,0.1,1.7,0.3,2.5,0.7c0.3,0.1,0.6,0.2,0.9,0.4c0.3,0.2,0.6,0.4,1,0.5c0.8,0.2,1.5,0.6,2.1,1.2c0.2,0.3,0.9,0.5,1.3,0.7
			s1,0.5,1.5,0.8c0.1,0.1,0.2,0.2,0.3,0.4c0,0.3-0.3,0.1-0.5,0.2c-0.1,0-0.1,0-0.2,0L128.6,398.9z M102.3,377.9
			c0-0.2-0.1-0.4-0.1-0.6c-0.1-0.5-0.5-1.1-0.4-1.5c0.1-0.5,0-1.1-0.3-1.5c-0.1-0.3-0.2-0.7-0.3-1c-0.2-1.3-0.6-2.5-1.1-3.7
			c-0.3-0.9-1.2-1.6-2.2-1.8c-0.4-0.1-0.9,0-1.2,0.4c-0.9,1-1.6,2.2-2,3.5c0,0.1,0,0.2,0,0.3c0.1,0.9-0.1,1.7-0.6,2.5
			c-0.1,0.2-0.1,0.5-0.1,0.8c0,0.3,0,0.7-0.1,1c-0.7,1.5-0.5,3.1-0.9,4.6c-0.1,0.6-0.1,1.3-0.2,1.9c-0.1,0.4-0.4,0.8-0.4,1.2
			c-0.1,1.1-0.2,2.3-0.5,3.4c-0.1,0.6,0.1,0.8,0.6,0.9c0.4,0,0.8,0,1.1,0c0.1,0,0.4,0.1,0.4,0.2c0.2,0.6,0.8,0.3,1.1,0.6
			c0.3,0.3,0.8,0.4,1.2,0.2c0.1,0,0.2,0.2,0.3,0.3s0.2,0.4,0.3,0.5s0.5,0.3,0.6,0.7c0,0.2,0.5,0.4,0.6,0.7c0.9,1.7,2.3,2.9,3.2,4.5
			c0.2,0.3,0.7,0.4,1,0.2c0.2-0.1,0.4-0.2,0.5-0.4c0.3-0.2,0.6-0.6,0.9-0.7c0.5-0.2,1-0.5,1.3-1c0.5-0.6,0.5-0.6,0.1-1.1
			c-0.3-0.4-0.6-0.9-0.7-1.5c-0.4-1.5-0.2-3-0.7-4.5c0-0.1,0-0.2,0-0.3c0.1-1.1-0.2-2.3-0.8-3.3c-0.1-0.1-0.1-0.3-0.1-0.5
			c0-0.8,0-1.6-0.2-2.4c0-0.5-0.2-1-0.6-1.3c-0.2-0.1-0.2-0.4-0.1-0.6C102.1,378.5,102.2,378.2,102.3,377.9L102.3,377.9z"/>
		<path d="M184,146.1h0.6c0.7,0,1.2-0.6,2-0.3s1.2-0.2,1.9-0.3s1.3-0.3,2-0.4c1.2-0.4,2.2-1.1,2.8-2.1c0.3-0.5,0.2-1.2-0.2-1.6
			c-0.5-0.5-1-1.1-1.5-1.6c-0.2-0.2-0.5-0.4-0.8-0.4c-0.7,0-0.9-0.5-1.1-0.9c-0.1-0.3-0.3-0.7-0.5-1c-0.4-0.4-0.1-0.6,0.1-1
			s0.5-1.2,1-1.6s0.6-1.2,1.2-1.5c0-0.4,0.3-0.4,0.5-0.5c0.7-0.3,1.5-0.6,2.2-1c0.3-0.1,0.5-0.2,0.7-0.4c0.2-0.3,0.6-0.6,1-0.7
			c0.2,0,0.3-0.2,0.2-0.4c0-0.1,0-0.1-0.1-0.1c0-0.1-0.1-0.2-0.2-0.3c0.1,0,0.2,0,0.3,0c0.3,0.1,0.6,0.3,0.9,0.4s0.5,0.1,0.6,0
			c0.5-0.7,1.2-0.5,1.9-0.4c0.3,0,0.6-0.1,0.9-0.2c0.8-0.3,1.5,0.2,2.3,0.1c1,0.5,1.9,1.2,2.7,2c0.2,0.3,0.4,0.6,0.6,0.9
			c0.6,0.8,1.2,1.6,1.8,2.4c1.1,1.4,0.9,2.2,0,3.6c-0.1,0.2-0.3,0.3-0.5,0.4c-0.6,0.3-1.2,0.5-1.8,0.6c-1.9,0.5-3.9,1-5.8,1.6
			c-0.1,0-0.2,0-0.3,0.1s-0.1,0.3-0.1,0.4c0.3,0.3,0.5,0.5,0.8,0.7c0.1,0.1,0.3,0.1,0.4,0.2c0.6,0.4,1.1,1,1.5,1.6
			c-0.2,0.5-0.3,1.1-0.6,1.6c-0.2,0.5-0.6,1-1.1,1.3c-0.7,0.6-1.4,1.3-2.1,2c-0.3,0.4-0.7,0.7-1.1,0.9c-0.2,0-0.4,0.1-0.6,0.3
			c-1.3,1.1-2.8,1.9-4.5,2.4c0,0-0.1,0-0.2,0.1c-0.9,0.2-1.4,1.2-2.4,1.1c-0.9,0.1-1.8,0.3-2.6,0.8c-0.3,0.1-0.5,0.1-0.8,0.1
			c-0.5,0.1-1,0.2-1.5,0.4c-0.7,0.3-1.4,0.8-2.2,0.5c-0.2,0-0.4,0-0.6,0.1c-1.6,0.9-3.2,0.2-4.8-0.2c-0.3-0.1-0.5-0.4-0.8-0.4
			c-1-0.1-1.5-0.9-2.4-1.2c-0.1-0.1-0.3-0.2-0.3-0.4c-0.7-1.1-0.8-2.5-0.3-3.7c0.1-0.3,0.3-0.6,0.4-0.9c0.4-0.8,1.1-1.5,2-1.9
			c1.1-0.5,2.3-0.8,3.5-0.8c1.2-0.1,2.4-0.2,3.7-0.4L184,146.1L184,146.1z M200.3,139.8c2.1-0.3,4.3-0.4,6.3-1.6
			c1.1-0.6,0.8-1.1,0.1-1.7c-0.2-0.1-0.4-0.2-0.6-0.2c-0.6-0.2-1.1-0.5-1-1.2c0-0.1-0.1-0.3-0.2-0.4c-0.6-0.8-1.2-1.6-1.9-2.4
			c-0.1-0.1-0.2-0.3-0.3-0.3c-0.9-0.3-1.8-0.2-2.7,0.1c-0.4,0.2-1,0.2-1.3,0.5c-0.5,0.5-1,0.2-1.5,0.5c-0.5,0.3-1.1,0.4-1.6,0.4
			c-0.2,0-0.5,0.2-0.7,0.4c-0.8,0.6-1.7,1.3-2.5,1.9c-0.7,0.5-0.8,1.4-0.4,2c0.1,0.1,0.2,0.2,0.3,0.3c0.2,0.2,0.4,0.5,0.6,0.5
			c0.6,0,0.8,0.4,1.1,0.8s0.9,0.4,1.1,0.9s0.5,0.8,0.7,1.2c0.1,0.1,0.1,0.3,0.1,0.5c-0.1,0.4-0.2,0.8-0.2,1.2s-0.7,0.8-0.5,1.3
			c0,0.1-0.1,0.2-0.2,0.2c-0.9,0.2-1.2,1.2-2,1.4c-1,0.9-2.3,1.4-3.7,1.4c-1.2,0.1-2.3,0.6-3.5,0.4c-0.2,0-0.4,0-0.6,0.1
			c-0.5,0.2-0.9,0.2-1.4,0.2c-0.3,0-0.5,0.1-0.7,0.2c-0.3,0.2-0.6,0.2-0.9,0c-0.8-0.4-1.7-0.5-2.5-0.1c-0.3,0.1-0.5,0.1-0.8,0.1
			c-0.4,0-0.9,0.2-1.1,0.5c-0.1,0.1-0.2,0.2-0.4,0.3c-0.8,0.3-1.4,0.7-1.9,1.4c-0.7,0.7-0.8,0.8-0.3,1.6c0.2,0.4,0.6,0.7,1,0.9
			c0.5,0.1,0.9,0.3,1.3,0.6c0.5,0.4,1.1,0.6,1.7,0.6c0.6,0.1,1.1,0.1,1.7,0c0.9-0.3,1.7-0.4,2.6-0.5c0.8-0.2,1.5-0.4,2.3-0.7
			c0.8-0.2,1.6-0.4,2.3-0.6c0.2,0,0.4-0.1,0.6-0.2c0.5-0.3,1.1-0.5,1.7-0.4c0.5,0,1-0.2,1.5-0.5c0.8-0.5,1.7-0.9,2.5-1.3
			c0.9-0.3,1.8-0.8,2.4-1.5c0.2-0.3,0.6-0.5,1-0.5c0.2,0,0.4-0.1,0.6-0.2c1-0.8,1.8-1.6,2.6-2.6c0.1-0.1,0-0.4-0.1-0.6
			c-0.1-0.2-0.3-0.3-0.5-0.3c-0.5,0-1-0.3-1.4-0.7c-0.3-0.3-0.6-0.4-0.9-0.7c-0.5-0.4-1-0.8-1.4-1.2c-0.2-0.2-0.3-0.5-0.3-0.9
			c0.1-0.4,0.3-0.8,0.6-1.1c0.2-0.3,0.5,0,0.7-0.1c0.4-0.2,0.9-0.2,1.4,0C199.5,139.7,199.9,139.8,200.3,139.8z"/>
		<path d="M111.5,228.3c-0.2,0.8-0.3,1.6-0.5,2.4c-0.3,0.9-0.6,1.9-0.7,2.9c-0.6,1.4-1.2,2.5-2.9,2.8c-0.7,0.1-1.5,0.4-2.2,0.7
			c-0.4,0.1-0.7,0.5-0.6,1c0,0.1,0,0.1,0.1,0.2c0.4,0.7,0.1,1.5,0.4,2.2c0,0.2,0,0.4-0.2,0.6c-0.3,0.5-0.6,0.9-0.9,1.4
			c-0.4,0.5-0.9,0.9-1.4,1.2c-1.7,1-3.4,2.2-4.9,3.5c-0.9,0.7-1.8,1.3-2.8,2c-0.5,0-1.1,0.2-1.4,0.7c-0.3,0.3-0.7,0.6-1.1,0.9
			c-0.2,0.1-0.4,0.2-0.6,0.1c-0.3-0.1-0.5,0-0.8,0.2c-0.5,0.6-1.4,0.8-2.1,0.4c-0.1,0-0.1,0-0.2,0c-0.5,0.1-1,0.1-1.4,0.1
			c-0.4-0.1-0.7-0.5-1.1-0.7c-0.6-0.2-0.9-0.8-1.4-1.1c-0.5-0.3-0.8-0.8-0.8-1.4c0-0.2-0.1-0.3-0.2-0.4c-0.3-0.2-0.2-0.4-0.1-0.7
			c0.2-0.6,0.4-1.2,0.7-1.8c0.1-0.7,0.4-1.4,1-1.8c0.1-0.1,0.2-0.2,0.2-0.4c0.1-0.6,0.5-0.9,1.1-1.1c0.1-0.1,0.4-0.1,0.4-0.2
			c0.3-0.9,1.1-0.8,1.7-1c0.3-0.1,0.5-0.2,0.8-0.3c1.4-0.8,2.8-1.4,4.3-1.9c0.4-0.4,0.9-0.4,1.3-0.5c0.7-0.1,1.4-0.5,1.7-1.1
			c0.2-0.3,0.4-0.5,0.7-0.6c0.5-0.1,0.9-0.6,0.8-1.2c0-0.1,0-0.2-0.1-0.3c-0.2-0.7-0.5-1.3-0.8-2c-0.1-0.3-0.3-0.5-0.5-0.6
			c-1.1-0.5-1.8-1.6-2.9-2.1c-0.9-0.5-1.4-1.4-1.4-2.5c0-0.4,0.1-0.8,0.4-1.1c0.5-0.5,0.9-1.1,1.2-1.7c0.4-0.6,0.9-1.1,1.5-1.5
			c1-0.8,2.1-1.6,3.1-2.4c0.3-0.2,0.6-0.3,0.9-0.1c0.5,0.5,1.3,0.7,2,0.4c0.7-0.1,1.4,0,2.1,0.2c1.2,0.3,2.3,0.7,3.4,1.2
			c0.6,0.2,1.1,0.5,1.6,0.8c0.3,0.2,0.5,0.4,0.8,0.5c0.4,0.3,0.7,0.6,0.9,1.1C111.2,226.3,111.5,227.3,111.5,228.3z M110.5,228.3
			c0-1-0.4-2-1.2-2.6c-0.4-0.3-0.8-0.5-1.3-0.7c-1-0.5-2-0.7-3.1-0.8c-0.5,0-0.5-0.6-1-0.5c-0.8,0.1-1.7,0.1-2.6-0.1
			c-1.6-0.2-3.2,0.2-4.4,1.3c-1,0.4-1.3,1.4-1.9,2.2c-0.4,0.5-0.2,1.2,0.3,1.6c0.5,0.3,0.8,0.8,1.3,1.1c1,0.5,1.8,1.2,2.3,2.2
			c0.6,0.1,0.8,0.7,1,1.1s0.1,1,0.1,1.6c0,0.3,0,0.5,0.1,0.8c0.1,0.3,0,0.5-0.2,0.8c-0.1,0.2-0.3,0.5-0.4,0.7
			c-0.5,1.3-1.6,2.2-3,2.5c-0.5,0.1-0.9,0.2-1.1,0.8c0,0.2-0.4,0.3-0.7,0.4c-0.9,0.3-1.9,0.6-2.8,0.7c-1.5,0.7-2.9,1.6-4.2,2.6
			c-0.7,0.6-1.1,1.4-1.3,2.4c-0.2,0.6,0,1.3,0.4,1.9c0.5,0.6,1.2,0.8,1.9,0.6c0.4-0.1,0.8-0.1,1.1-0.1c0.4,0,0.8-0.1,0.8-0.6
			c0-0.4,0.4-0.7,0.8-0.7c0.3-0.1,0.7-0.2,1-0.2c0.6,0,1.1-0.2,1.4-0.7c0.3-0.4,0.5-0.9,1.1-1.2c0.5-0.3,1-0.5,1.6-0.7
			c0.9-0.2,1.6-0.7,2.2-1.3c0.5-0.6,1.1-1.1,1.8-1.3c0.5-0.3,1.1-0.6,1.5-0.9c0.4-0.2,0.6-0.6,0.7-1.1c0.1-1,0.1-1.9,0.1-2.9
			c0-0.8,0.3-1.2,1-1.3c0.3,0,0.7,0,1-0.1c0.5-0.3,1.1-0.5,1.7-0.5c0.5-0.1,0.9-0.2,1.4-0.5c0.4-0.2,0.7-0.5,0.8-1
			c0.3-1.3,0.6-2.5,1.1-3.8C110.3,229.5,110.4,228.9,110.5,228.3L110.5,228.3z"/>
		<path d="M40.1,358.7c0,0.4-0.1,0.8-0.3,1.2c-0.3,0.7-0.3,1.4-0.2,2.1c0.1,0.5,0.1,1.1,0.1,1.6c0,0.3,0.1,0.5,0.2,0.8
			c0.3,0.6,0.5,1.2,0.8,1.8c0.2,0.4,0.5,0.7,0.9,0.9c0.4,0.1,0.8,0.3,1.1,0.6c0.1,0.1,0.4,0.1,0.6,0.2s0.4,0,0.5,0.1
			c0.7,0.5,1.4,1.1,2,1.6c0.3,0.2,0.6,0.5,0.9,0.6c0.8,0.3,1.4,1.1,1.4,2c-0.1,0.7,0.2,1.3,0.7,1.8c0.1,0.2,0.2,0.4,0.2,0.6
			c0,0.7,0.2,1.3,0.6,1.9c0.6,0.9,0.7,2.1,0.2,3.1c-0.1,0.2-0.2,0.4-0.3,0.6c-0.1,0.2,0,0.4,0.2,0.5c0,0,0,0,0.1,0
			c0.3,0.1,0.5,0.2,0.7,0.3c0.3,0.4,0.8,0.6,1.3,0.5c0.2,0,0.5,0.2,0.8,0.3s0.5,0.2,0.6,0.1c0.8-0.5,1.5,0,2.1,0.4
			c0.6,0.3,1.1,0.6,1.6,1c0.7,0.5,1.1,1.4,0.9,2.3c-0.2,0.8-0.2,1.7-0.4,2.6c-0.1,0.6-0.1,1.3-0.8,1.7c-0.1,0.1-0.2,0.2-0.2,0.4
			c0.1,1-0.9,1.3-1.2,2c-0.1,0.2-0.4,0.2-0.6,0.1c-0.8-0.4-1.5-0.8-1.4-2c0-0.2,0-0.3-0.1-0.5c-0.2-0.2-0.2-0.5,0.1-0.7c0,0,0,0,0,0
			c0.6-0.8,1.1-1.8,1.4-2.8c0.1-0.3,0.1-0.7,0-1c-0.1-0.2-0.4-0.3-0.6-0.4c-0.4-0.3-0.9-0.5-1.3-0.5c-0.5,0-1.1-0.1-1.6-0.3
			c-0.2,0-0.4-0.2-0.6-0.1c-0.8,0.1-1.5-0.1-2.1-0.7c-0.3-0.2-0.6-0.3-0.8-0.7c-0.2-0.5-0.6-0.9-1-1.3c-0.6-0.6-0.8-1.6-0.4-2.4
			c0.2-0.3,0.3-0.7,0.4-1.1c0.1-0.4,0.4-0.5,0.7-0.5c0.2,0,0.4-0.2,0.5-0.4c0.1-0.3-0.1-0.6-0.3-0.7c-0.1-0.1-0.3-0.2-0.4-0.2
			c-0.4-0.2-0.7-0.4-0.5-0.9c0-0.1,0-0.2-0.1-0.3c-0.6-0.3-0.4-0.8-0.3-1.3c0.3-0.8-0.1-1.7-0.9-2.1c-1-0.8-2.1-1.3-3.4-1.5
			c-0.6,0-0.8-0.6-1.3-0.6c-0.7-0.9-1.8-1.5-2.5-2.5c-0.3-0.4-0.6-0.8-0.5-1.3c0-0.1,0-0.1,0-0.2c-0.8-0.7-0.5-1.6-0.4-2.5
			c0.1-0.5,0.1-1-0.1-1.4c-0.4-0.8-0.3-1.9,0.3-2.6c0.1-0.1,0.2-0.3,0.2-0.4c0.1-0.9,0.8-1.2,1.4-1.7c0.2-0.2,0.5-0.1,0.7,0.1
			c0,0.1,0.1,0.1,0.1,0.2C40,357.8,40.1,358.3,40.1,358.7z"/>
		<path d="M296.1,135.7c-0.1,0.1-0.1,0.1-0.2,0.2c-1.2,0.7-2.3,1.6-3.1,2.8c-0.5,0.7-0.8,1.5-1.7,1.8c-0.4,0.6-0.9,1-1.3,1.6
			c-0.8,1-1.7,1.9-2.6,2.7c-0.2,0.1-0.3,0.3-0.3,0.5c0,0.3-0.2,0.5-0.4,0.6c-0.6,0.3-1,0.8-1.3,1.4c-0.4,0.6-1.1,0.8-1.5,1.4
			s-0.7,1.3-1.5,1.6c-0.1,0.1-0.2,0.1-0.2,0.2c-0.3,0.9-1.2,1.4-1.7,2c-0.5,0.4-0.9,0.9-1.2,1.5c-0.1,0.2-0.3,0.4-0.6,0.5
			c-0.4,0.2-0.7,0.6-0.8,1c0,0.1-0.1,0.2-0.1,0.3c-0.3,0.3-0.9,0.6-1,1c-0.2,0.5-0.7,0.6-0.9,1.1c-0.7,0.3-1,1-1.4,1.5s-0.5,1-1,1.1
			c-0.7,1.3-2.2,2-3.1,3.2c-0.4,0.5-0.9,0.9-1.4,1.3c-0.2,0.2-0.4,0.4-0.5,0.6c-0.7,1-1.6,1.9-2.5,2.6c-1.4,1.2-2.6,2.7-4.1,3.7
			c-0.3,0.2-0.6,0.5-0.8,0.8c-0.6,0.7-1.4,1.4-2.2,1.9c0,0-0.2,0-0.2-0.1c0,0,0-0.1,0-0.1l1-1c1.7-1.8,3.3-3.6,4.9-5.4
			c0.6-0.6,1.1-1.3,1.7-1.9s0.8-1.1,1.5-1.4c0.4-0.2,0.4-0.8,0.9-1.1s0.6-0.6,0.9-0.9c0.8-1.1,1.7-2.1,2.8-3
			c0.4-0.3,0.4-0.9,0.9-1.2c0.5-0.4,0.9-0.8,1.2-1.2c0.3-0.4,0.7-0.8,1-1.2c0.1-0.2,0.2-0.4,0.4-0.5c0.8-0.9,1.6-1.8,2.5-2.7
			c0.5-0.5,1-1.1,1.4-1.7c0.2-0.3,0.4-0.5,0.6-0.7c1.1-1.1,2-2.4,3.1-3.5c0.5-0.5,0.8-1.4,1.6-1.7c0.4-0.7,1-1.4,1.7-1.9
			c0.2-0.1,0.2-0.4,0.3-0.6s0.3-0.5,0.5-0.6c0.6-0.3,1.1-0.8,1.4-1.5c1.4-1.1,2.3-2.8,4-3.5c0.9-0.8,2-1.4,3.2-1.7
			C296,135.6,296.1,135.6,296.1,135.7C296.1,135.6,296.1,135.7,296.1,135.7z"/>
		<path d="M112.4,200.1c-0.1,0.4-0.2,0.8-0.2,1.3c0,0.6-0.4,0.7-0.8,0.9c-0.2,0-0.4,0.1-0.6,0.1c-1.1,0-2.1,0.4-3.1,0.9
			c-0.3,0.2-0.7,0.3-1.1,0.3c-0.9,0-1.8,0.1-2.7,0.3c-0.6,0.1-1.3,0.1-2,0c-1-0.2-1.9-0.5-2.8-0.7s-1.2-1.1-1.7-1.6
			c-0.1-0.1,0-0.5,0-0.8c-0.3-0.7-0.1-1.5,0.5-1.9c0.2-0.2,0.2-0.5,0.4-0.7c0.6-0.9,1.5-1.6,2.4-2c0.8-0.4,1.6-0.7,2.5-0.8
			c0.6-0.1,1.3-0.1,1.9,0.1c0.5,0.2,1,0.3,1.5,0.6c0.8,0.5,1.8,0.6,2.4,1.4c0.2,0.2,0.5,0.2,0.7,0.3l1.9,0.9
			C112.2,198.8,112.6,199.5,112.4,200.1z M103,197.7c-1.1-0.2-2.1,0.3-2.5,1.3c-0.1,0.1-0.3,0.2-0.4,0.3c-0.2,0.3-0.2,0.6,0,0.9
			c0.8,0.8,1.8,1.2,2.9,1.2c0.5,0,1-0.3,1.4-0.3c0.5,0,1.1,0.1,1.6,0.1c0.2,0,0.4,0,0.6-0.1c0.8-0.3,1.5-0.4,2.4-0.5
			c0.2,0,0.3,0,0.5-0.1c0.1,0,0.2-0.1,0.2-0.2c0-0.1,0-0.3,0-0.3c-0.6-0.5-1.3-0.9-2.1-1.1c-0.8,0-1.5-0.3-2-0.9
			c-0.2-0.3-0.6-0.4-1-0.4C104.1,197.8,103.7,197.8,103,197.7z"/>
		<path d="M149.8,93.5c0,0-0.1-0.1-0.1-0.1c0,0,0-0.1,0-0.1c0.6-0.9,1.3-1.8,1.9-2.7c0.2-0.3,0.4-0.6,0.7-0.8
			c0.9-0.7,1.7-1.5,2.4-2.4c0.8-0.8,1.7-1.6,2.6-2.4c1.6-1.3,3-2.7,4.4-4.2c0.1-0.1,0.2-0.2,0.3-0.3c0.6-0.2,0.8-0.6,1.1-1.1
			c0.1-0.2,0.2-0.4,0.4-0.5c0.8-0.1,1.2-0.9,1.7-1.3c1.2-1,2.4-1.9,3.6-2.8c0.6-0.5,1.1-1,1.6-1.5c0.4-0.4,0.8-0.7,1.2-1
			c1.3-0.8,2.5-1.7,3.6-2.7c0.9-0.8,1.9-1.5,2.9-2.2c0.5-0.4,1-0.8,1.5-1.1c0.5-0.3,1.1-0.7,1.6-1.1c0.7-0.5,1.5-1,2.3-1.4
			c0.6-0.3,1.2-0.7,1.7-1.1c0.8-0.7,1.7-1.2,2.7-1.7c1.4-0.8,2.9-1.6,4.4-2.4c0.1-0.1,0.2-0.1,0.3-0.1c0.1,0,0.2,0,0.3,0
			c0,0.1,0,0.2-0.1,0.2l-2,1.3c-1.1,0.7-2.1,1.4-3.2,2.1c-0.5,0.3-1,0.6-1.5,0.9c-0.4,0.2-0.7,0.5-1.1,0.7c-1.1,0.9-2.2,1.8-3.4,2.6
			c-0.8,0.5-1.5,1.2-2.3,1.7c-0.8,0.5-1.6,1-2.3,1.7c-1.1,1-2.3,1.9-3.5,2.7c-0.2,0.2-0.4,0.4-0.5,0.6c-0.8,0.7-1.6,1.4-2.5,1.9
			c-0.4,0.3-0.8,0.5-1.2,0.9c-0.3,0.3-0.5,0.5-0.8,0.7c-0.5,0.3-1,0.7-1.3,1.2c-0.2,0.3-0.5,0.6-0.8,0.8c-0.6,0.3-1.1,0.7-1.5,1.2
			l-6.2,5.5l-0.6,0.5c-1.2,1.2-2.6,2.3-4,3.5c-1.3,1.1-2.5,2.3-3.6,3.6C150.3,92.9,150.1,93.2,149.8,93.5z"/>
		<path d="M224.6,60.5c0,0,0,0.1-0.1,0.1c-0.7,0.5-1.5,1-2.2,1.5c-1,0.5-2,1.2-3,1.8c-1,0.5-1.9,1.1-2.8,1.8c-1,0.1-1.6,1-2.4,1.4
			c-0.8,0.5-1.6,1-2.4,1.6c-0.1,0.1-0.2,0.1-0.3,0.2c-0.6,0.2-1.2,0.5-1.7,1c-0.6,0.6-1.4,1.1-2.2,1.4c-0.2,0-0.3,0.2-0.4,0.3
			c-0.5,0.3-0.4,1.1-1.1,1.2c-0.5,0.2-0.9,0.5-1.3,0.9c-0.4,0.4-0.9,0.7-1.5,1c-0.1,0.1-0.2,0.2-0.4,0.3c-0.5,0.3-0.7,0.9-1.3,0.9
			c0.2-0.5,0.4-1.1,0.7-1.6c0.4-0.7,0.9-1.3,1.5-1.8c1.3-1,2.6-2.2,4-3.2c0.9-0.6,1.8-1.3,2.6-2c0.6-0.5,1.3-0.9,2-1.2
			c0.8-0.4,1.5-0.8,2.3-1.1c1.8-0.9,3.7-1.9,5.5-2.8c1.4-0.6,2.8-1.1,4.3-1.7C224.4,60.4,224.5,60.5,224.6,60.5z"/>
		<path d="M240.5,94.3c-0.6-0.2-1.4-0.1-2-0.7c-0.2-0.2-0.6-0.1-0.8-0.3c-0.5-0.4-0.9-0.9-1.3-1.4c-0.1-0.2-0.1-0.4-0.1-0.6
			c0.2-0.9,0.6-1.8,1.2-2.5c0.5-0.7,1.3-1.3,2.1-1.6c0.2-0.1,0.4-0.1,0.6,0c0.3,0.2,0.7,0.4,1.1,0.6c0.3,0.1,0.5,0.3,0.7,0.6
			c0.3,0.6,0.9,0.9,1.6,0.9c0.3,0,0.6,0,0.8,0.3s0.7,0.8,0.8,1.3c0,0.2,0,0.3-0.1,0.4c-0.3,0.7-0.5,1.5-1.4,1.8
			C242.9,94.1,241.7,94.1,240.5,94.3z M240.3,90.4c-0.4,0.1-0.8,0.1-1.2,0.2c-0.1,0-0.2,0.1-0.2,0.2c0,0.4,0.1,0.8,0.4,1.1
			c0.3,0.2,0.7,0.3,1,0.5c1,0.5,2.2,0.3,2.9-0.4c0.4-0.3,0.3-0.6-0.1-0.9C242.1,90.8,241.2,90.6,240.3,90.4L240.3,90.4z"/>
		<path d="M83.9,272.2c1.6,0,3.2,0.6,4.4,1.7c0.5,0.5,0.6,1.2,0.1,1.8c-0.6,0.8-1.3,1.5-2.1,2c-0.7,0.3-1.4,0.7-2,1.1
			c-1.2,0.7-2.4,1.2-3.8,1.5c-0.5,0.3-1.2,0.2-1.7-0.1c-0.2-0.2-0.5-0.1-0.8-0.2c-0.8-0.2-1.2-1-1.1-1.8c0.1-0.9,0.5-1.8,1.2-2.4
			c0.8-0.9,1.7-1.7,2.7-2.3c0,0,0.1-0.1,0.1-0.1C81.7,272.4,82.8,271.9,83.9,272.2z M80,279.3c0.5,0,1,0,1.5-0.2
			c1.9-0.7,3.7-1.6,5.4-2.8c0.4-0.3,0.7-0.7,0.8-1.2c0.1-0.3-0.1-0.7-0.4-0.8c0,0,0,0,0,0c-0.6-0.2-1.1-0.4-1.7-0.6
			c-0.4-0.2-0.8-0.1-1.2-0.2c-0.9-0.2-1.5,0.6-2.3,0.6c0,0-0.1,0.2-0.1,0.3s0.1,0.4,0.2,0.6c0.1,0.4-0.2,0.8-0.6,0.9
			c0,0-0.1,0-0.1,0c-0.3,0-0.5-0.1-0.8-0.2c-0.2,0-0.4,0-0.6,0.1c-0.7,0.4-1.2,1-1.6,1.6c-0.4,0.5-0.3,1.2,0.2,1.5
			c0.2,0.1,0.3,0.2,0.5,0.2C79.4,279.3,79.7,279.3,80,279.3L80,279.3z"/>
		<path d="M74.1,297.1c-0.4-0.1-1-0.2-1.3-0.5c-0.5-0.4-0.8-1-1.1-1.6c-0.1-0.5,0-1.1,0.2-1.5c0.1-0.6,0.4-1.2,0.8-1.8
			c0.6-1,1.5-1.7,2.5-2.3c0.1,0,0.3-0.2,0.4-0.2c0.9,0,1.8,0.2,2.6,0.6c0.5,0.3,0.8,0.8,0.9,1.3c0.1,0.8,0,1.5-0.4,2.2
			c-0.9,1.5-2.3,2.4-3.6,3.5C74.9,297,74.5,297,74.1,297.1z M77.6,291.8c-0.1-0.2-0.2-0.4-0.3-0.5c-0.5-0.2-1-0.3-1.6-0.4
			c-0.1,0-0.4,0.2-0.5,0.3c-0.2,0.2-0.3,0.5-0.3,0.7c-0.1,0.7-0.4,1.2-0.9,1.7c-0.2,0.2-0.3,0.4-0.4,0.7c-0.1,0.3,0,0.7,0.3,0.8
			c0.2,0.1,0.5,0.1,0.8,0c0.9-0.4,1.7-1.1,2.3-2C77.3,292.8,77.5,292.3,77.6,291.8z"/>
		<path d="M232.1,109.2c0-0.5,0-0.6,0-0.8c0-0.4,0.2-0.6,0.6-0.9c0.6-0.4,1.4-0.5,2.1-0.3c0.4,0.1,0.8,0.5,1.3,0.5
			c0.6,0,0.6,0.5,0.8,0.9c0.1,0.1,0,0.3-0.1,0.4c-0.5,0.5-0.9,1-1.4,1.5c-0.2,0.1-0.4,0.2-0.6,0.3c-0.4,0.2-0.9,0.2-1.2-0.1
			c-0.3-0.3-0.6-0.7-1.2-0.7c-0.1,0-0.2-0.2-0.3-0.3C232.1,109.5,232.1,109.4,232.1,109.2z"/>
		<path d="M65.3,281.2c-0.7,0.1-1.3-0.4-1.4-1.1c0-0.2,0-0.4,0.1-0.6c0-0.4,0.1-0.9,0.4-1.2c0.2-0.3,0.4-0.7,0.8-0.7
			c0.2-0.1,0.4-0.2,0.6-0.3c0.3-0.1,0.4-0.6,0.8-0.4c0.4,0.2,0.7,0.4,1.1,0.7c0.2,0.3,0.4,0.5,0.5,0.9c0.3,0.7,0.1,1.4-0.5,1.8
			C66.3,281.1,66,281.2,65.3,281.2z"/>
		<path d="M115.7,310c-0.1-0.6,0.2-1.3,0.7-1.6c0.2-0.2,0.5-0.3,0.7-0.4s0.6-0.2,0.9,0s0.6,0.4,0.5,0.9c-0.1,0.3-0.1,0.7-0.1,1
			c0,0.3-0.2,0.6-0.5,0.8c-0.4,0.3-0.7,0.6-1,0.9c-0.4,0.4-1,0.2-1.1-0.4c0-0.1,0-0.2,0-0.3C115.7,310.5,115.7,310.2,115.7,310z"/>
		<path d="M210.6,115c-0.2,0.3-0.4,0.6-0.6,0.9c-0.5,0.5-1.4,0.5-1.9,0c-0.1-0.1-0.2-0.3-0.3-0.5c0-0.1,0-0.2,0-0.3
			c0.3-0.5,0.8-0.8,1.4-0.8c0.4,0.1,0.8,0.3,1.2,0.4C210.5,114.7,210.5,114.8,210.6,115z"/>
		<path d="M128.9,317.5c0,0,0,0.1-0.1,0.1c-0.4,0.3-0.7,0.6-1.1,0.9c-0.1,0.2-0.4,0.2-0.5,0c0,0,0,0,0,0c-0.2-0.4-1-0.2-1-0.9
			c0-0.4,0.1-0.8,0.6-0.8c0.3-0.1,0.6-0.3,0.9-0.3c0.2,0,0.3,0,0.4,0.2c0.2,0.3,0.2,0.8,0.7,0.9
			C128.7,317.5,128.8,317.5,128.9,317.5z"/>
		<path d="M216.1,129.8c-0.9-0.1-1.9-0.2-2.8-0.3c-0.1-0.1-0.2-0.2-0.2-0.4c0.2-0.7,0.4-1.5,1.3-1.8c1.1-0.3,2.3,0.3,2.6,1.4
			c0.1,0.2,0.1,0.4,0.1,0.6C217,129.6,216.6,129.9,216.1,129.8z"/>
		<path d="M89.2,299.5c-0.2,0.2-0.4,0.5-0.6,0.7c-0.1,0.1-0.4,0-0.6-0.1c-0.2-0.1-0.3-0.3-0.5-0.5c-0.2-0.3-0.2-0.7,0-0.9
			c0,0,0.1-0.1,0.2-0.1c0.5-0.3,0.8-0.2,1.2,0.3C89,299.1,89.1,299.3,89.2,299.5z"/>
		<path d="M107.5,416.4c1-0.5,2.1-0.7,3.1-0.5c0.2,0,0.5,0.2,0.5,0.3c0.1,0.3-0.3,0.2-0.4,0.2c-0.8,0-1.6,0-2.4-0.1
			C108,416.4,107.7,416.4,107.5,416.4L107.5,416.4z"/>
		<path d="M343.8,43.7c0,0.4-0.1,0.7-0.1,0.9c0,0.2-0.2,0.4-0.4,0.4c-0.1,0-0.1,0-0.2-0.1c-0.3-0.3-0.7-0.5-1.1-0.6
			c-0.9-0.2-1.2-0.9-1.3-1.6c-0.1-0.6-0.3-1.1-0.7-1.5c-0.6-0.6-0.4-1.5-0.6-2.2c0,0,0.1-0.2,0.1-0.2c0.3-0.3,0.8-0.4,1.2-0.3
			c0.7,0.2,1.3,0.4,1.6,1.2c1,1,1,2.5,1.5,3.8C343.8,43.4,343.8,43.6,343.8,43.7z"/>
	</g>
</g>
</svg>
