<svg width="350" height="210" viewBox="0 0 350 210" fill="none" xmlns="http://www.w3.org/2000/svg">
<rect x="0.5" y="0.5" width="349" height="209" rx="3.5" fill="white"/>
<rect x="50.833" y="56.5" width="105" height="105" rx="52.5" fill="white"/>
<path d="M111.587 105.535C111.371 119.206 94.428 118.822 93.3833 108.537C92.5428 100.252 102.089 97.2437 105.565 99.1949C105.565 99.1949 104.328 96.5772 100.57 97.4118C96.8116 98.2463 92.2666 99.7833 90.6576 103.782C89.0485 107.781 90.0151 111.407 90.6576 113.568C91.3 115.73 93.7015 118.257 96.1691 119.416C98.6367 120.575 102.827 121.055 105.355 119.86C107.883 118.666 110.452 116.402 111.509 114.397C112.566 112.392 113.118 109.45 112.848 107.865C112.578 106.28 111.587 105.547 111.587 105.547V105.535Z" fill="#231F20"/>
<path d="M81.3584 96.9134C78.7647 98.4564 76.7714 97.6339 76.2551 95.5506C75.7388 93.4672 77.9782 91.9662 79.6833 92.3265C79.6833 92.3265 76.6213 90.3752 74.7241 92.5486C73.4032 94.0616 73.9736 96.3131 74.3038 96.9134C74.634 97.5138 76.5013 99.6092 78.5846 99.0809C80.662 98.5525 81.3644 96.9134 81.3644 96.9134H81.3584Z" fill="#231F20"/>
<path d="M99.3994 85.0733C100.87 85.7157 103.248 85.9138 104.112 83.6624C104.941 81.519 103.728 80.1381 101.987 79.0394C101.987 79.0394 104.094 78.409 105.097 79.5077C106.1 80.6064 106.244 81.573 106.382 82.7558C106.52 83.9386 105.872 85.4515 105.133 86.136C104.395 86.8144 101.453 86.8625 100.564 86.5323C99.6756 86.202 99.3994 85.0673 99.3994 85.0673V85.0733Z" fill="#231F20"/>
<path d="M127.984 96.7212C127.851 94.944 126.627 93.6171 124.543 93.9534C122.748 94.2416 121.601 96.6491 122.616 98.2762C122.616 98.2762 121.217 97.7238 121.121 96.0367C121.025 94.3496 121.187 92.8667 123.385 91.9721C125.588 91.0775 127.347 92.0922 127.797 92.5004C128.248 92.9087 128.89 95.2982 128.89 95.2982L127.984 96.7152V96.7212Z" fill="#231F20"/>
<path d="M127.305 122.405C125.768 125.467 123.751 125.167 122.796 124.765C121.379 124.17 120.191 122.531 121.355 120.232C121.355 120.232 119.362 121.426 119.488 123.786C119.608 126.146 121.812 126.926 122.694 127.052C123.577 127.178 125.558 126.704 126.195 125.839C126.831 124.975 127.305 122.411 127.305 122.411V122.405Z" fill="#231F20"/>
<path d="M104.604 138.143C102.221 139.001 100.389 138.071 99.8251 136.456C99.1827 134.619 100.317 132.751 101.788 132.229C101.788 132.229 99.5189 131.617 97.7778 134.006C96.0307 136.396 97.6337 138.371 98.108 138.815C98.5823 139.26 99.4889 140.202 100.732 140.244C101.975 140.286 103.662 139.974 103.86 139.566C104.058 139.158 104.61 138.143 104.61 138.143H104.604Z" fill="#231F20"/>
<path d="M81.3338 124.699C81.7961 122.838 80.4152 120.538 77.9717 120.844C76.4467 121.036 74.6275 122.495 74.9637 125.005C74.9637 125.005 73.4567 123.504 74.0391 121.301C74.6215 119.097 76.981 118.353 78.2959 118.785C79.6107 119.217 81.0096 119.283 81.3879 120.076C81.7661 120.862 82.1144 123.294 82.1144 123.294L81.3218 124.705L81.3338 124.699Z" fill="#231F20"/>
<path d="M100.978 93.6455C101.056 93.0752 101.116 92.4928 101.152 91.9044C101.164 91.6883 101.122 91.4781 101.14 91.262C101.188 90.4995 101.266 89.731 101.344 88.9625C101.374 88.6203 101.356 88.278 101.344 87.9418C101.332 87.7257 101.338 87.5095 101.35 87.2934C101.356 87.1853 101.374 87.0773 101.392 86.9692C101.404 86.8611 101.5 86.747 101.548 86.639C101.632 86.5009 101.693 86.5189 101.867 86.627C101.999 86.705 102.125 86.7831 102.233 86.8431C102.359 86.9332 102.443 87.0412 102.485 87.1613C102.551 87.3775 102.635 87.5876 102.689 87.8037C102.725 88.0199 102.761 88.236 102.785 88.4462C102.833 88.8784 102.857 89.3107 102.821 89.755C102.749 90.2894 102.881 90.8297 102.905 91.3761C102.929 91.9764 102.929 92.5828 102.917 93.1892C102.917 93.5615 102.887 93.9397 102.863 94.312C102.827 94.8763 102.755 95.4467 102.749 96.0051C102.749 96.4434 102.827 96.8756 102.839 97.3139C102.839 97.41 102.857 97.506 102.851 97.6021C102.833 97.7822 102.791 97.8963 102.671 97.9623C102.587 97.9924 102.509 98.0164 102.419 98.0344C102.353 98.0524 102.269 98.0644 102.179 98.0704C102.095 98.0764 102.017 98.0884 101.939 98.0884C101.813 98.0884 101.699 98.0464 101.584 97.9683C101.506 97.9143 101.428 97.8663 101.362 97.8243C101.254 97.7642 101.26 97.7102 101.224 97.6441C101.08 97.2599 100.984 96.8756 100.918 96.4914C100.864 96.1131 100.882 95.7349 100.876 95.3506C100.894 94.7803 100.912 94.2099 100.93 93.6395H100.978V93.6455Z" fill="#231F20"/>
<path d="M102.821 125.258C102.743 125.828 102.671 126.404 102.629 126.987C102.611 127.197 102.653 127.407 102.629 127.623C102.569 128.374 102.484 129.142 102.4 129.905C102.37 130.241 102.382 130.583 102.4 130.913C102.412 131.13 102.406 131.346 102.394 131.556C102.388 131.664 102.37 131.772 102.352 131.88C102.34 131.988 102.244 132.102 102.196 132.21C102.112 132.348 102.052 132.33 101.878 132.228C101.746 132.15 101.614 132.072 101.512 132.012C101.386 131.922 101.302 131.814 101.254 131.694C101.188 131.484 101.104 131.268 101.05 131.057C101.014 130.841 100.983 130.631 100.953 130.415C100.905 129.983 100.887 129.55 100.929 129.106C101.007 128.578 100.881 128.037 100.863 127.491C100.845 126.897 100.857 126.296 100.875 125.69C100.875 125.318 100.917 124.945 100.935 124.579C100.971 124.015 101.044 123.457 101.05 122.898C101.044 122.466 100.965 122.034 100.953 121.601C100.953 121.505 100.935 121.409 100.941 121.319C100.959 121.145 100.995 121.031 101.116 120.959C101.2 120.929 101.278 120.905 101.368 120.887C101.434 120.869 101.518 120.857 101.608 120.845C101.692 120.839 101.77 120.821 101.842 120.821C101.968 120.821 102.082 120.857 102.196 120.935C102.274 120.989 102.352 121.031 102.424 121.079C102.532 121.139 102.526 121.193 102.569 121.259C102.719 121.643 102.815 122.028 102.887 122.406C102.941 122.784 102.929 123.168 102.929 123.547C102.911 124.111 102.887 124.681 102.869 125.252H102.821V125.258Z" fill="#231F20"/>
<path d="M114.379 100.318C114.991 100.054 115.61 99.7598 116.216 99.4536C116.438 99.3395 116.63 99.1774 116.853 99.0693C117.639 98.6731 118.45 98.2888 119.266 97.9166C119.62 97.7425 119.963 97.5383 120.293 97.3342C120.509 97.2021 120.731 97.088 120.959 96.974C121.073 96.9199 121.193 96.8719 121.313 96.8299C121.428 96.7818 121.59 96.8059 121.728 96.7878C121.908 96.7878 121.92 96.8539 121.89 97.064C121.872 97.2201 121.848 97.3762 121.836 97.5083C121.8 97.6704 121.728 97.8025 121.626 97.9046C121.44 98.0847 121.265 98.2708 121.073 98.4389C120.875 98.589 120.677 98.7451 120.467 98.8892C120.059 99.1774 119.632 99.4476 119.17 99.6697C118.6 99.9159 118.119 100.342 117.585 100.684C116.997 101.051 116.39 101.399 115.784 101.747C115.406 101.957 115.021 102.155 114.631 102.347C114.049 102.648 113.43 102.9 112.854 103.212C112.404 103.452 111.983 103.758 111.515 103.981C111.413 104.029 111.317 104.101 111.209 104.137C111.005 104.203 110.861 104.221 110.735 104.143C110.663 104.077 110.608 104.017 110.548 103.944C110.5 103.89 110.452 103.818 110.41 103.74C110.368 103.668 110.32 103.602 110.29 103.536C110.236 103.422 110.236 103.302 110.266 103.158C110.284 103.098 110.302 102.996 110.326 102.888C110.344 102.762 110.404 102.744 110.452 102.678C110.783 102.377 111.125 102.101 111.473 101.855C111.833 101.621 112.212 101.423 112.596 101.219C113.178 100.907 113.761 100.594 114.337 100.282L114.361 100.324L114.379 100.318Z" fill="#231F20"/>
<path d="M114.241 117.698C114.775 118.052 115.31 118.407 115.856 118.749C116.054 118.875 116.276 118.947 116.468 119.073C117.165 119.517 117.843 119.992 118.528 120.46C118.834 120.658 119.158 120.82 119.482 120.976C119.692 121.078 119.897 121.187 120.095 121.307C120.197 121.367 120.293 121.433 120.383 121.505C120.479 121.565 120.545 121.709 120.623 121.805C120.713 121.949 120.671 121.997 120.491 122.099C120.359 122.177 120.221 122.255 120.113 122.315C119.969 122.381 119.825 122.399 119.686 122.381C119.446 122.333 119.206 122.297 118.972 122.237C118.75 122.159 118.528 122.075 118.306 121.985C117.867 121.805 117.447 121.595 117.045 121.325C116.576 120.982 116.006 120.808 115.484 120.544C114.913 120.256 114.349 119.944 113.785 119.638L112.752 119.061C112.23 118.773 111.713 118.467 111.167 118.233C110.741 118.058 110.284 117.968 109.852 117.818C109.756 117.788 109.654 117.77 109.564 117.728C109.396 117.65 109.294 117.572 109.264 117.434C109.264 117.338 109.264 117.26 109.27 117.17C109.27 117.098 109.288 117.014 109.306 116.924C109.324 116.84 109.336 116.762 109.354 116.69C109.39 116.57 109.468 116.473 109.582 116.389C109.66 116.329 109.732 116.281 109.798 116.227C109.894 116.149 109.948 116.173 110.032 116.161C110.482 116.161 110.915 116.221 111.335 116.317C111.749 116.425 112.146 116.6 112.536 116.774C113.118 117.038 113.689 117.338 114.253 117.638L114.235 117.68L114.241 117.698Z" fill="#231F20"/>
<path d="M87.4332 101.133C86.9109 100.827 86.3825 100.52 85.8422 100.238C85.6441 100.136 85.4279 100.082 85.2298 99.974C84.5333 99.6018 83.8369 99.1995 83.1464 98.8033C82.8342 98.6292 82.51 98.5031 82.1858 98.371C81.9757 98.2869 81.7715 98.1969 81.5734 98.0888C81.4713 98.0348 81.3753 97.9747 81.2792 97.9147C81.1832 97.8607 81.1171 97.7226 81.0331 97.6325C80.937 97.4944 80.979 97.4464 81.1471 97.3323C81.2732 97.2483 81.3993 97.1582 81.5014 97.0921C81.6395 97.0141 81.7775 96.9841 81.9096 96.9961C82.1378 97.0261 82.3779 97.0381 82.6001 97.0801C82.8162 97.1402 83.0384 97.2002 83.2545 97.2663C83.6868 97.4044 84.1071 97.5725 84.5093 97.7946C84.9836 98.0888 85.548 98.2029 86.0703 98.413C86.6407 98.6472 87.2111 98.9053 87.7814 99.1635C88.1297 99.3196 88.4719 99.4997 88.8201 99.6678C89.3425 99.926 89.8528 100.214 90.3871 100.436C90.8074 100.598 91.2517 100.694 91.672 100.851C91.768 100.881 91.8641 100.905 91.9542 100.947C92.1163 101.031 92.2123 101.109 92.2363 101.247C92.2363 101.337 92.2363 101.421 92.2123 101.511C92.2063 101.583 92.1883 101.661 92.1643 101.751C92.1403 101.829 92.1283 101.913 92.0983 101.979C92.0562 102.099 91.9782 102.189 91.8581 102.268C91.7801 102.322 91.708 102.376 91.636 102.424C91.5399 102.502 91.4859 102.472 91.4078 102.484C90.9815 102.472 90.5733 102.418 90.177 102.328C89.7868 102.231 89.4205 102.063 89.0483 101.913C88.5019 101.679 87.9556 101.421 87.4092 101.169L87.4272 101.121L87.4332 101.133Z" fill="#231F20"/>
<path d="M88.664 119.134C88.1056 119.38 87.5352 119.638 86.9709 119.908C86.7667 120.004 86.5866 120.148 86.3765 120.244C85.638 120.581 84.8635 120.869 84.095 121.133C83.7528 121.247 83.4346 121.415 83.1103 121.559C82.9062 121.655 82.6961 121.745 82.4739 121.811C82.3659 121.848 82.2518 121.878 82.1377 121.902C82.0296 121.932 81.8855 121.884 81.7595 121.884C81.5974 121.854 81.5914 121.793 81.6334 121.589C81.6634 121.439 81.6874 121.289 81.7114 121.163C81.7535 121.007 81.8255 120.893 81.9276 120.803C82.1077 120.659 82.2758 120.497 82.4559 120.365L83.0263 120.022C83.4105 119.806 83.8068 119.596 84.2271 119.44C84.7494 119.266 85.1877 118.906 85.662 118.623L87.271 117.705C87.6013 117.513 87.9495 117.339 88.2917 117.158C88.808 116.882 89.3484 116.636 89.8527 116.33C90.237 116.09 90.5852 115.79 90.9755 115.543C91.0595 115.489 91.1376 115.423 91.2276 115.381C91.3957 115.303 91.5218 115.273 91.6479 115.339C91.7199 115.399 91.78 115.453 91.84 115.519C91.8941 115.567 91.9421 115.633 91.9961 115.706C92.0442 115.772 92.0982 115.832 92.1342 115.898C92.2003 116.006 92.2183 116.126 92.2123 116.264C92.2063 116.324 92.2003 116.426 92.1943 116.534C92.1943 116.66 92.1462 116.684 92.1042 116.75C91.834 117.074 91.5458 117.369 91.2396 117.627C90.9334 117.879 90.5852 118.071 90.249 118.281C89.7387 118.581 89.2103 118.87 88.682 119.176L88.6579 119.134H88.664Z" fill="#231F20"/>
<path d="M104.713 80.6596C104.371 80.2633 103.92 79.9571 103.416 79.7169C102.9 79.5128 102.347 79.4168 101.795 79.4408C101.597 79.4708 101.405 79.5188 101.213 79.5668C101.038 79.6569 100.852 79.723 100.672 79.807C99.4535 80.4314 98.5289 82.0585 98.9311 83.5294C99.0932 84.1779 99.4655 84.8023 99.9998 85.2225C100.174 85.3546 100.348 85.4807 100.546 85.5768C100.726 85.7028 100.93 85.7809 101.123 85.889L101.753 86.1291C101.969 86.2312 102.191 86.3272 102.437 86.3993C102.744 86.5194 102.72 86.5494 102.449 86.7355C102.317 86.8196 102.113 87.0057 101.843 87.1198C101.711 87.1798 101.555 87.2639 101.387 87.2999C101.225 87.3239 101.05 87.3119 100.876 87.2999C100.558 87.2699 100.258 87.1678 99.9458 87.0717C99.6456 86.9517 99.3694 86.7835 99.1112 86.5854C98.5889 86.2012 98.1386 85.7088 97.8204 85.1385C97.4902 84.5741 97.3041 83.9257 97.262 83.2713C97.22 82.947 97.262 82.6228 97.2861 82.2986C97.3581 81.9864 97.4001 81.6622 97.5322 81.374C97.6523 81.0138 97.8324 80.6836 98.0005 80.3534C98.2167 80.0532 98.3968 79.723 98.6489 79.4408C98.9191 79.1706 99.1533 78.8644 99.4895 78.6663C99.6516 78.5582 99.8017 78.4381 99.9698 78.3481L100.498 78.1199C101.285 77.8437 102.131 77.7297 102.93 77.8798C103.728 78.0058 104.503 78.282 105.151 78.7503C105.968 79.3027 106.622 80.1012 106.982 81.0378L107.156 81.5782C107.211 81.7583 107.211 81.9504 107.241 82.1365C107.313 82.5088 107.259 82.881 107.235 83.2472C107.168 83.9857 106.91 84.6702 106.574 85.3186C106.04 86.3092 105.151 87.2098 103.998 87.5941C103.746 87.6721 103.5 87.7622 103.236 87.7862C102.263 87.8222 101.987 87.5761 101.861 87.1498C101.831 87.0477 101.795 86.9517 101.783 86.8556C101.753 86.5254 102.125 86.3212 102.624 86.1531C102.996 86.0271 103.32 85.895 103.614 85.7449C103.908 85.5948 104.143 85.3906 104.359 85.1685C104.575 84.9464 104.749 84.6822 104.905 84.388C105.067 84.0998 105.205 83.7756 105.295 83.4454C105.373 83.1992 105.367 82.9531 105.403 82.7069C105.433 82.5808 105.391 82.4667 105.391 82.3467C105.373 82.2326 105.403 82.1005 105.349 81.9924C105.265 81.5181 105.007 81.0918 104.683 80.6956L104.713 80.6656V80.6596Z" fill="#231F20"/>
<path d="M99.0628 138.196C99.405 138.586 99.8613 138.898 100.36 139.133C100.876 139.331 101.428 139.433 101.981 139.403C102.179 139.373 102.371 139.325 102.563 139.277C102.737 139.187 102.923 139.121 103.097 139.037C104.316 138.412 105.229 136.779 104.827 135.302C104.664 134.654 104.286 134.029 103.752 133.615C103.578 133.483 103.404 133.357 103.205 133.267C103.025 133.141 102.821 133.069 102.629 132.961L101.999 132.72C101.783 132.618 101.554 132.528 101.314 132.45C101.008 132.33 101.032 132.306 101.296 132.114C101.428 132.03 101.626 131.844 101.897 131.73C102.029 131.67 102.185 131.586 102.353 131.544C102.515 131.52 102.689 131.526 102.863 131.544C103.181 131.574 103.482 131.676 103.794 131.766C104.094 131.886 104.376 132.054 104.634 132.252C105.157 132.636 105.613 133.123 105.931 133.693C106.267 134.257 106.454 134.906 106.496 135.554C106.538 135.879 106.496 136.203 106.478 136.527C106.406 136.839 106.364 137.163 106.237 137.452C106.117 137.812 105.943 138.142 105.775 138.472C105.559 138.772 105.379 139.103 105.133 139.391C104.863 139.661 104.628 139.967 104.298 140.165C104.142 140.273 103.986 140.393 103.818 140.484L103.29 140.712C102.503 140.988 101.662 141.108 100.858 140.964C100.059 140.838 99.2849 140.568 98.6305 140.099C97.814 139.547 97.1535 138.754 96.7933 137.824L96.6192 137.283C96.5651 137.103 96.5651 136.911 96.5351 136.725C96.4631 136.353 96.5111 135.981 96.5351 135.614C96.6012 134.876 96.8533 134.191 97.1835 133.543C97.7119 132.552 98.5945 131.646 99.7532 131.256C100.005 131.177 100.252 131.081 100.51 131.057C101.482 131.015 101.759 131.262 101.885 131.688C101.915 131.79 101.951 131.886 101.963 131.982C101.993 132.312 101.62 132.516 101.122 132.684C100.75 132.811 100.426 132.943 100.131 133.093C99.8373 133.243 99.6031 133.453 99.387 133.675C99.1768 133.903 98.9967 134.167 98.8406 134.462C98.6785 134.75 98.5404 135.074 98.4564 135.41C98.3843 135.656 98.3903 135.903 98.3543 136.149C98.3243 136.275 98.3663 136.389 98.3663 136.509C98.3843 136.623 98.3603 136.755 98.4083 136.863C98.4924 137.337 98.7566 137.764 99.0808 138.154L99.0508 138.184L99.0628 138.196Z" fill="#231F20"/>
<path d="M75.2877 93.8752C75.0716 94.2775 74.9695 94.7578 74.9215 95.2381C74.9215 95.7124 74.9575 96.2227 75.1616 96.661C75.2157 96.8351 75.3178 96.9792 75.4258 97.1173C75.4799 97.1894 75.5219 97.2614 75.5819 97.3275C75.648 97.3875 75.708 97.4475 75.768 97.5136C75.9542 97.7657 76.2363 97.9278 76.4885 98.114C76.6266 98.174 76.7587 98.2641 76.9028 98.3121C77.0529 98.3481 77.197 98.4142 77.3531 98.4382C77.9775 98.5583 78.6739 98.4562 79.3103 98.18C79.8747 97.9278 80.3971 97.5376 80.7753 97.0573C80.8834 96.8952 81.0155 96.7451 81.0875 96.571C81.1295 96.4869 81.1896 96.4089 81.2376 96.3308L81.3577 96.0786C81.4537 95.9105 81.4718 95.7364 81.5618 95.5623C81.6279 95.3882 81.7119 95.1901 81.7359 94.9799C81.802 94.7038 81.826 94.6977 82.0601 94.8959C82.1742 94.9979 82.3843 95.148 82.5284 95.4002C82.6005 95.5203 82.7206 95.6764 82.7446 95.8325C82.7686 95.9886 82.7806 96.1567 82.7686 96.3308C82.6845 96.9192 82.4924 97.5136 82.1262 97.9459C81.796 98.4142 81.3877 98.7984 80.9434 99.1286C80.0308 99.759 78.9081 100.107 77.7733 100.035C77.0949 99.9632 76.4105 99.8191 75.7861 99.5069C75.4859 99.3448 75.2037 99.1526 74.9275 98.9605C74.6873 98.7204 74.4112 98.5042 74.225 98.222C73.7687 97.6277 73.4926 96.9372 73.3365 96.2347C73.2224 95.5263 73.1924 94.7998 73.3725 94.1034C73.5646 93.2508 73.9729 92.4343 74.5913 91.7859C75.0836 91.3296 75.66 90.9213 76.3144 90.7532C76.4765 90.7052 76.6326 90.6451 76.7947 90.6151L77.287 90.5611C77.6172 90.501 77.9355 90.537 78.2537 90.549L78.6259 90.5671C78.758 90.5911 78.8961 90.6031 79.0282 90.6391C79.2923 90.6931 79.5385 90.7892 79.7847 90.8913C80.271 91.1074 80.7153 91.4136 81.0935 91.8279C81.2556 92.014 81.4177 92.2001 81.5378 92.4283C81.7359 92.8666 81.7479 93.2088 81.6879 93.4369C81.6279 93.6651 81.4838 93.7912 81.2676 93.8812C81.1716 93.9172 81.0755 93.9653 80.9794 93.9773C80.6552 94.0193 80.4091 93.7371 80.1629 93.4609C79.9588 93.2568 79.7726 93.0767 79.5505 92.9146C79.3344 92.7585 79.0882 92.6264 78.842 92.5483C78.722 92.5063 78.6019 92.4763 78.4878 92.4583C78.4338 92.4463 78.3797 92.4523 78.3257 92.4403C78.2477 92.4403 78.1696 92.4463 78.0976 92.4403C77.9475 92.4403 77.7914 92.4103 77.6413 92.4103C77.5032 92.4283 77.3591 92.4403 77.215 92.4523C77.1009 92.4463 77.0229 92.5063 76.9208 92.5243C76.8307 92.5544 76.7167 92.5604 76.6326 92.6084C76.4645 92.7045 76.2664 92.7585 76.1163 92.9026C75.774 93.1247 75.5219 93.491 75.3178 93.8872L75.2757 93.8692L75.2877 93.8752Z" fill="#231F20"/>
<path d="M126.717 93.1301C125.967 92.6618 124.922 92.4036 123.992 92.6798C123.643 92.7578 123.355 92.9619 123.073 93.1541L122.707 93.4303L122.395 93.7785C122.197 94.0186 122.046 94.2888 121.938 94.577C121.728 95.1534 121.716 95.8318 121.932 96.4742C122.118 97.0386 122.473 97.5729 122.923 97.9572C123.079 98.0653 123.217 98.2034 123.385 98.2754C123.463 98.3234 123.535 98.3835 123.619 98.4315L123.86 98.5576C124.022 98.6537 124.196 98.6837 124.364 98.7797C124.538 98.8578 124.724 98.9478 124.934 98.9899C125.204 99.0739 125.204 99.1039 124.994 99.3201C124.886 99.4221 124.724 99.6203 124.478 99.7524C124.358 99.8184 124.202 99.9265 124.052 99.9505C123.902 99.9685 123.734 99.9745 123.565 99.9565C122.989 99.8544 122.407 99.6503 121.986 99.266C121.752 99.0979 121.572 98.8818 121.368 98.6897C121.2 98.4675 121.008 98.2574 120.87 98.0112C120.299 97.0566 120.041 95.8618 120.317 94.7391C120.611 93.4002 121.422 92.2055 122.593 91.539C123.872 90.8005 125.409 90.7525 126.729 91.2088C127.546 91.503 128.29 92.0013 128.855 92.6798C129.041 92.9559 129.263 93.2141 129.377 93.5323L129.575 93.9946L129.683 94.4809C129.779 94.8051 129.761 95.1294 129.773 95.4536C129.803 95.7838 129.719 96.084 129.689 96.4022C129.563 97.4228 129.023 98.4135 128.158 99.0739C127.96 99.218 127.762 99.3621 127.528 99.4582C127.078 99.6143 126.741 99.5963 126.525 99.5182C126.303 99.4342 126.195 99.2841 126.129 99.0619C126.099 98.9598 126.063 98.8638 126.057 98.7677C126.045 98.4435 126.345 98.2214 126.633 97.9992C126.856 97.8191 127.048 97.645 127.222 97.4469C127.396 97.2487 127.546 97.0206 127.648 96.7864C127.696 96.6724 127.744 96.5523 127.768 96.4442C127.804 96.3361 127.804 96.2401 127.822 96.072C127.84 95.9219 127.87 95.7718 127.9 95.6277C127.9 95.4836 127.894 95.3455 127.9 95.2074C127.912 95.0993 127.894 95.0033 127.87 94.9072C127.852 94.8111 127.834 94.7151 127.822 94.613L127.714 94.3428C127.684 94.2468 127.648 94.1567 127.588 94.0787C127.534 93.9946 127.48 93.9106 127.432 93.8205L127.216 93.5924L127.108 93.4723L126.976 93.3762L126.711 93.1781L126.729 93.1361L126.717 93.1301Z" fill="#231F20"/>
<path d="M121.836 125.678C122.599 126.134 123.661 126.206 124.568 125.894C124.898 125.774 125.18 125.564 125.444 125.347C125.901 124.963 126.303 124.447 126.489 123.834C126.681 123.234 126.675 122.556 126.471 121.919C126.285 121.361 125.937 120.838 125.481 120.466C125.33 120.358 125.18 120.238 125.012 120.16C124.934 120.118 124.856 120.058 124.778 120.01L124.532 119.89C124.37 119.8 124.19 119.764 124.016 119.674C123.835 119.596 123.649 119.5 123.433 119.446C123.169 119.35 123.175 119.32 123.391 119.115C123.499 119.013 123.667 118.827 123.907 118.695C124.028 118.629 124.172 118.527 124.322 118.497C124.472 118.473 124.634 118.467 124.796 118.485C125.072 118.539 125.378 118.587 125.643 118.695C125.925 118.791 126.153 118.965 126.387 119.133C126.837 119.482 127.24 119.896 127.528 120.376C128.134 121.331 128.32 122.532 128.104 123.618C127.954 124.267 127.744 124.897 127.39 125.468C127.252 125.774 127 126.008 126.801 126.272C126.579 126.524 126.303 126.716 126.051 126.92C124.826 127.689 123.331 127.953 121.974 127.587C121.134 127.389 120.335 126.944 119.741 126.296C119.489 126.074 119.339 125.768 119.146 125.498C118.984 125.209 118.882 124.891 118.768 124.585C118.714 124.267 118.63 123.949 118.6 123.63C118.6 123.312 118.582 123.006 118.582 122.682C118.696 121.613 119.086 120.694 119.795 119.902C119.951 119.728 120.113 119.554 120.323 119.416C120.725 119.181 121.056 119.121 121.29 119.157C121.524 119.193 121.668 119.32 121.776 119.53C121.824 119.62 121.878 119.716 121.896 119.806C121.956 120.124 121.722 120.388 121.494 120.67C121.32 120.893 121.152 121.097 121.002 121.343C120.852 121.583 120.719 121.853 120.629 122.123C120.533 122.388 120.485 122.664 120.479 122.85C120.473 122.964 120.479 123.138 120.479 123.282V123.51C120.479 123.582 120.497 123.648 120.509 123.72C120.617 124.537 121.026 125.251 121.83 125.642L121.812 125.684L121.836 125.678Z" fill="#231F20"/>
<path d="M75.0357 121.896C74.8616 122.365 74.8436 122.899 74.8916 123.433C74.9816 123.962 75.1678 124.49 75.468 124.952C75.582 125.114 75.7261 125.253 75.8582 125.403C76.0143 125.523 76.1704 125.631 76.3205 125.763C76.8789 126.159 77.5753 126.345 78.3078 126.309C79.0463 126.309 79.7367 126.027 80.3071 125.529C80.8174 125.09 81.1777 124.472 81.3638 123.824C81.4298 123.619 81.4599 123.397 81.4899 123.187C81.5259 122.971 81.5559 122.761 81.5679 122.539C81.5919 122.317 81.5679 122.1 81.5919 121.872C81.61 121.638 81.634 121.398 81.634 121.146C81.652 120.828 81.688 120.84 81.9462 121.026C82.0723 121.122 82.2944 121.254 82.4985 121.464C82.5946 121.566 82.7327 121.68 82.8167 121.824C82.8828 121.968 82.9488 122.124 82.9909 122.287C83.3031 123.493 82.9008 124.778 82.2284 125.811C81.5259 126.838 80.3732 127.6 79.1183 127.78C78.7521 127.822 78.3919 127.822 78.0256 127.852C77.6594 127.804 77.2811 127.816 76.9209 127.714C76.5607 127.612 76.1884 127.528 75.8642 127.336C75.516 127.186 75.2218 126.952 74.9336 126.717C73.7208 125.637 73.0784 124.046 73.1805 122.467C73.2345 121.5 73.5887 120.539 74.2011 119.771C74.6935 119.213 75.2518 118.756 75.9363 118.444C76.6147 118.162 77.3292 118.024 78.0496 118.024C79.1544 118.036 80.3071 118.33 81.2197 119.038C81.4298 119.183 81.616 119.345 81.7901 119.525C82.3665 120.263 82.3364 120.617 82.0723 120.978C82.0062 121.062 81.9522 121.152 81.8801 121.212C81.634 121.428 81.2437 121.272 80.8174 120.966L80.5833 120.804C80.4992 120.756 80.4212 120.714 80.3491 120.66C80.205 120.545 80.0489 120.473 79.9048 120.383C79.5986 120.227 79.2985 120.095 78.9802 120.035C78.668 119.963 78.3498 119.921 78.0256 119.933C77.7014 119.927 77.3772 119.957 77.065 120.041C76.8248 120.095 76.6327 120.179 76.4406 120.287C76.2545 120.437 76.0023 120.527 75.8582 120.714C75.48 121.008 75.2638 121.446 75.0957 121.902L75.0537 121.89L75.0357 121.896Z" fill="#231F20"/>
<path d="M111.587 109.84C111.731 108.093 111.425 106.304 110.806 104.665C110.17 103.032 109.095 101.591 107.708 100.51C106.712 99.6938 105.487 99.2014 104.256 98.8112C102.065 98.1267 99.6391 98.1748 97.4297 98.8892C96.331 99.2735 95.2923 99.8198 94.3617 100.522C93.4551 101.243 92.6746 102.125 92.0562 103.128C91.5338 104.035 91.1376 105.019 90.8854 106.046C90.6753 107.079 90.5252 108.135 90.5912 109.186C90.6333 110.537 90.9395 111.864 91.3417 113.149L91.696 114.097C91.828 114.409 92.0022 114.698 92.1162 115.022C92.3984 115.64 92.7286 116.241 93.0949 116.835C93.4311 117.681 93.4491 117.537 92.7526 117.141C92.5605 117.057 92.3744 116.907 92.1342 116.751C91.9241 116.577 91.6839 116.373 91.4258 116.132C91.1556 115.904 90.9034 115.622 90.6633 115.304C90.5492 115.142 90.4291 114.974 90.3151 114.794C90.213 114.607 90.1169 114.415 90.0269 114.217C88.652 111.395 88.5079 108.057 89.3724 105.031C89.8107 103.512 90.5432 102.059 91.5579 100.816C92.5725 99.5677 93.8754 98.559 95.3043 97.8926C98.6905 96.2415 102.881 95.9713 106.436 97.5143C108.381 98.3369 110.104 99.7178 111.329 101.447C112.566 103.17 113.292 105.193 113.586 107.247C113.898 109.774 113.61 112.41 112.511 114.734C112.121 115.628 111.569 116.439 110.974 117.207C110.332 117.94 109.63 118.624 108.831 119.17C108.435 119.447 108.033 119.723 107.6 119.933L106.964 120.275L106.267 120.557C105.337 120.876 104.4 121.044 103.458 121.146C101.993 121.29 100.522 121.254 99.0748 121.002C97.6278 120.743 96.1989 120.269 94.908 119.489C94.6078 119.345 94.3557 119.134 94.0795 118.954C93.8093 118.762 93.5271 118.588 93.293 118.348C92.3744 117.501 91.9541 116.787 91.6779 116.295C91.5759 116.024 91.5158 115.796 91.4918 115.598C91.4738 115.394 91.4918 115.214 91.5158 115.052C91.5399 114.902 91.5338 114.734 91.5699 114.643C91.6239 114.487 91.828 114.577 92.2123 114.812C92.4164 114.92 92.6085 115.094 92.8307 115.31C93.0528 115.52 93.335 115.736 93.6112 116.012C95.2983 117.567 97.3757 118.63 99.6811 119.002C100.828 119.182 102.017 119.218 103.187 119.092C103.77 119.038 104.346 118.924 104.899 118.786C105.163 118.708 105.439 118.63 105.679 118.534L106.033 118.39L106.406 118.186C109.438 116.631 111.407 113.395 111.557 109.846H111.611L111.587 109.84Z" fill="#231F20"/>
<path d="M95.5505 95.172C95.6406 95.232 95.5505 95.3641 95.3824 95.5262C95.3284 95.5802 95.1423 95.6703 95.1002 95.6643C95.0162 95.6463 94.9321 95.6343 94.8601 95.6103C94.8361 95.6043 94.722 95.5142 94.5839 95.4121C94.4578 95.3101 94.3437 95.178 94.2717 95.1179C94.1396 94.9979 94.0495 94.8598 93.9655 94.7157L93.4372 93.8451C93.4011 93.7791 93.3711 93.707 93.3591 93.629C93.3171 93.3588 93.191 93.1366 93.0469 92.9205C93.0229 92.8845 93.0109 92.8425 92.9448 92.8304C92.8428 92.8064 92.5125 92.194 92.5065 92.092C92.4885 91.8518 92.4345 91.6237 92.3985 91.3895C92.3985 91.3535 92.3625 91.3355 92.3985 91.2814C92.4885 91.1554 92.4345 91.1073 92.4165 91.0413C92.3865 90.9512 92.3624 90.8552 92.3564 90.7471C92.3564 90.6931 92.4045 90.615 92.4405 90.543C92.4705 90.4769 92.6686 90.4049 92.6927 90.4049C92.7707 90.4109 92.8428 90.3388 92.9208 90.2908C92.9448 90.2788 92.9809 90.2548 92.9989 90.2488C93.0469 90.2308 93.6173 90.555 93.6413 90.615C93.6413 90.615 93.7614 90.7891 93.8874 90.9692C94.0135 91.1494 94.1456 91.3355 94.1756 91.3655C94.2117 91.4015 94.2056 91.4616 94.2056 91.5096C94.2056 91.5336 94.6019 92.0559 94.6079 92.086C94.6559 92.212 94.758 92.3081 94.71 92.4822C94.698 92.5182 94.716 92.5363 94.734 92.5603C94.8481 92.7584 94.9081 92.9866 94.9802 93.2087C95.0162 93.3228 95.0822 93.4188 95.1303 93.5269C95.1363 93.5449 95.1303 93.5749 95.1303 93.5929C95.1303 93.623 95.1303 93.653 95.1423 93.677C95.2743 93.9232 95.3404 94.1993 95.5025 94.4335C95.5325 94.4875 95.5685 94.8177 95.5986 94.8838C95.6166 94.9198 95.5025 95.1299 95.5445 95.154L95.5505 95.172Z" fill="#231F20"/>
<path d="M109.942 96.3311C109.918 96.4212 109.774 96.4091 109.6 96.3551C109.546 96.3371 109.419 96.235 109.413 96.199C109.401 96.127 109.389 96.0549 109.383 95.9829C109.371 95.9348 109.534 95.4305 109.582 95.2564C109.624 95.0763 109.696 94.9262 109.804 94.8061L110.398 94.0016C110.446 93.9415 110.5 93.8935 110.566 93.8515C110.788 93.7074 110.956 93.5153 111.095 93.3051C111.119 93.2691 111.155 93.2391 111.143 93.179C111.131 93.077 111.569 92.5486 111.653 92.5006C111.869 92.3985 112.055 92.2725 112.259 92.1584C112.289 92.1404 112.295 92.1043 112.355 92.1224C112.493 92.1584 112.523 92.0983 112.578 92.0563C112.65 91.9963 112.734 91.9422 112.83 91.9002C112.878 91.8822 112.962 91.9002 113.034 91.9002C113.1 91.9062 113.226 92.0563 113.232 92.0803C113.244 92.1524 113.334 92.1884 113.394 92.2424C113.412 92.2605 113.442 92.2845 113.454 92.3025C113.484 92.3385 113.358 92.9569 113.322 92.9929C113.322 92.9929 113.202 93.161 113.082 93.3291C112.968 93.4973 112.854 93.6774 112.818 93.7194C112.794 93.7614 112.74 93.7734 112.698 93.7975C112.674 93.8095 112.331 94.3318 112.313 94.3438C112.217 94.4279 112.163 94.5539 111.995 94.578C111.965 94.578 111.947 94.608 111.935 94.626C111.797 94.8001 111.623 94.9382 111.455 95.0883C111.371 95.1663 111.305 95.2564 111.233 95.3405C111.221 95.3585 111.191 95.3585 111.173 95.3705C111.149 95.3825 111.119 95.3945 111.107 95.4125C110.932 95.6166 110.734 95.8028 110.56 96.0069C110.518 96.0549 110.218 96.193 110.182 96.253C110.158 96.2891 109.942 96.2831 109.936 96.3251L109.942 96.3311Z" fill="#231F20"/>
<path d="M85.771 109.384C85.8911 109.366 85.9572 109.504 85.9692 109.702C85.9692 109.768 85.9091 109.93 85.8791 109.948C85.8071 109.984 85.741 110.026 85.693 110.05C85.657 110.05 85.1647 110.165 84.9965 110.261C84.8344 110.345 84.6723 110.369 84.4982 110.393C84.144 110.447 83.7838 110.519 83.4235 110.585C83.3455 110.603 83.2614 110.585 83.1834 110.573C82.9012 110.507 82.625 110.531 82.3488 110.591C82.3008 110.603 82.2528 110.597 82.2167 110.657C82.1507 110.747 81.4062 110.849 81.3041 110.825C81.052 110.759 80.7998 110.735 80.5476 110.681C80.5116 110.675 80.4756 110.699 80.4396 110.639C80.3495 110.501 80.2775 110.537 80.1994 110.531C80.0914 110.531 79.9833 110.513 79.8752 110.477C79.8212 110.459 79.7611 110.381 79.7011 110.327C79.6471 110.273 79.6471 110.056 79.6591 110.032C79.7011 109.96 79.6471 109.864 79.6351 109.774C79.6351 109.744 79.623 109.708 79.623 109.684C79.623 109.63 80.1814 109.18 80.2475 109.174C80.2475 109.174 80.3075 109.156 80.3915 109.138C80.4756 109.12 80.5897 109.09 80.7098 109.066C80.9439 109.012 81.1901 108.958 81.2381 108.94C81.2921 108.922 81.3462 108.952 81.4002 108.964C81.4242 108.964 82.1327 108.796 82.1627 108.802C82.3128 108.802 82.4569 108.742 82.619 108.856C82.649 108.88 82.679 108.868 82.7091 108.862C82.9672 108.826 83.2254 108.85 83.4836 108.886C83.6156 108.904 83.7477 108.886 83.8798 108.886C83.9038 108.886 83.9278 108.904 83.9519 108.91C83.9819 108.922 84.0119 108.934 84.0419 108.934C84.3541 108.934 84.6663 108.976 85.0086 108.988C85.0866 108.988 85.4528 109.18 85.5429 109.192C85.5969 109.198 85.729 109.384 85.7771 109.378L85.771 109.384Z" fill="#231F20"/>
<path d="M112.776 127.604C112.872 127.646 112.818 127.778 112.692 127.953C112.65 128.007 112.488 128.121 112.446 128.115C112.368 128.109 112.296 128.097 112.229 128.079C112.193 128.067 111.785 127.748 111.629 127.646C111.485 127.55 111.365 127.43 111.251 127.31C111.029 127.058 110.771 126.824 110.572 126.542C110.524 126.482 110.494 126.416 110.47 126.338C110.392 126.079 110.248 125.863 110.08 125.659C110.05 125.623 110.032 125.581 109.972 125.575C109.864 125.563 109.468 124.957 109.45 124.861C109.396 124.584 109.354 124.374 109.306 124.14C109.306 124.104 109.264 124.086 109.306 124.032C109.396 123.906 109.342 123.852 109.324 123.786C109.294 123.69 109.27 123.588 109.27 123.48C109.27 123.426 109.318 123.348 109.36 123.282C109.396 123.221 109.588 123.161 109.618 123.167C109.696 123.179 109.768 123.113 109.846 123.071C109.87 123.059 109.906 123.041 109.93 123.035C109.978 123.023 110.512 123.342 110.536 123.39C110.536 123.39 110.65 123.552 110.771 123.714C110.897 123.876 111.023 124.044 111.053 124.074C111.089 124.104 111.083 124.164 111.089 124.212C111.089 124.236 111.491 124.71 111.503 124.734C111.557 124.855 111.665 124.933 111.635 125.107C111.635 125.143 111.647 125.161 111.665 125.179C111.797 125.359 111.881 125.569 111.983 125.773C112.037 125.875 112.103 125.965 112.163 126.067C112.175 126.085 112.169 126.115 112.175 126.133C112.175 126.163 112.181 126.193 112.193 126.217C112.338 126.452 112.434 126.716 112.608 126.932C112.644 126.98 112.716 127.304 112.764 127.358C112.788 127.388 112.74 127.586 112.782 127.604H112.776Z" fill="#231F20"/>
<path d="M128.404 88.3035C128.458 88.3816 128.349 88.4716 128.169 88.5557C128.109 88.5857 127.935 88.6037 127.905 88.5797C127.845 88.5377 127.779 88.4957 127.731 88.4536C127.707 88.4296 127.455 87.9613 127.341 87.8052C127.239 87.6491 127.161 87.493 127.125 87.3309C127.083 87.0007 127.029 86.6705 126.999 86.3403C126.993 86.2682 126.999 86.1902 127.023 86.1181C127.107 85.8599 127.095 85.6138 127.059 85.3556C127.053 85.3136 127.059 85.2716 127.005 85.2295C126.915 85.1635 126.897 84.473 126.939 84.383C127.041 84.1668 127.107 83.9447 127.215 83.7346C127.227 83.7045 127.215 83.6685 127.281 83.6445C127.437 83.5905 127.419 83.5184 127.437 83.4524C127.461 83.3623 127.497 83.2663 127.551 83.1822C127.581 83.1402 127.665 83.0981 127.737 83.0621C127.803 83.0261 128.013 83.0681 128.037 83.0861C128.103 83.1342 128.205 83.1101 128.295 83.1162C128.325 83.1162 128.367 83.1162 128.392 83.1222C128.44 83.1342 128.794 83.6745 128.8 83.7286C128.812 83.7466 128.884 84.491 128.902 84.5751C128.914 84.6171 128.878 84.6652 128.854 84.7072C128.842 84.7312 128.932 85.3196 128.926 85.3436C128.902 85.4637 128.956 85.5898 128.824 85.7098C128.8 85.7339 128.806 85.7579 128.806 85.7819C128.824 85.992 128.77 86.2082 128.746 86.4183C128.728 86.5264 128.746 86.6344 128.746 86.7425C128.746 86.7605 128.728 86.7845 128.722 86.8026C128.71 86.8266 128.698 86.8506 128.698 86.8806C128.71 87.0067 128.698 87.1388 128.698 87.2709C128.674 87.4029 128.656 87.535 128.662 87.6611C128.662 87.7211 128.518 88.0213 128.53 88.0874C128.53 88.1234 128.38 88.2675 128.41 88.3035H128.404Z" fill="#231F20"/>
<path d="M130.86 89.4263C130.848 89.5044 130.746 89.4443 130.584 89.3062C130.536 89.2642 130.415 89.1081 130.409 89.0721C130.403 89.006 130.397 88.946 130.397 88.892C130.397 88.8619 130.59 88.5617 130.65 88.4537C130.71 88.3456 130.788 88.2675 130.872 88.1955C131.04 88.0514 131.208 87.8953 131.388 87.7572C131.43 87.7272 131.472 87.7032 131.526 87.6972C131.706 87.6672 131.844 87.5711 131.982 87.469C132.007 87.451 132.037 87.445 132.037 87.391C132.037 87.3009 132.445 87.0728 132.517 87.0788C132.685 87.0848 132.841 87.0668 133.003 87.0668C133.027 87.0668 133.039 87.0428 133.081 87.0848C133.171 87.1808 133.207 87.1448 133.249 87.1328C133.309 87.1208 133.375 87.1148 133.447 87.1328C133.483 87.1388 133.538 87.1989 133.592 87.2409C133.634 87.2769 133.694 87.463 133.694 87.487C133.694 87.5531 133.748 87.6311 133.778 87.7032C133.79 87.7272 133.802 87.7632 133.808 87.7812C133.82 87.8293 133.64 88.2555 133.61 88.2675C133.61 88.2675 133.507 88.3396 133.393 88.4116C133.285 88.4897 133.177 88.5677 133.159 88.5918C133.141 88.6158 133.099 88.5978 133.069 88.5918C133.051 88.5918 132.757 88.8439 132.739 88.8499C132.661 88.8739 132.613 88.952 132.487 88.886C132.463 88.8739 132.451 88.886 132.439 88.892C132.325 88.964 132.175 88.982 132.043 89.024C131.97 89.0421 131.916 89.0901 131.85 89.1201C131.838 89.1201 131.82 89.1201 131.802 89.1201C131.784 89.1201 131.76 89.1201 131.748 89.1201C131.604 89.2042 131.43 89.2462 131.31 89.3663C131.28 89.3903 131.064 89.4023 131.034 89.4383C131.016 89.4563 130.866 89.3903 130.86 89.4203V89.4263Z" fill="#231F20"/>
<rect x="50.833" y="56.5" width="105" height="105" rx="52.5" stroke="#E5E5E5"/>
<rect x="215.975" y="58.3802" width="95.9381" height="97.2396" fill="white" stroke="#E5E5E5" stroke-width="0.760417"/>
<rect x="220.536" y="63.3802" width="85.9034" height="87.2396" fill="#EDEDED" stroke="#E5E5E5" stroke-width="0.760417"/>
<path d="M245.141 101.258C245.307 100.398 245.483 99.5387 245.773 98.6636C245.849 98.4448 245.925 98.226 246.034 97.9968C246.082 97.8874 246.143 97.7676 246.215 97.6478C246.272 97.5332 246.381 97.403 246.486 97.2832C246.847 96.9706 247.189 96.6737 247.564 96.4653C247.697 96.382 247.83 96.2934 247.968 96.2153L248.377 96.0069L248.786 95.7985L249.204 95.6318C250.192 95.2464 251.2 94.9911 252.202 94.7775C253.21 94.5588 254.217 94.4129 255.229 94.2723C256.127 94.1576 257.026 94.0326 257.914 93.9389C259.055 93.8243 260.21 93.6367 261.369 93.8243C261.73 93.9076 261.678 94.0639 261.379 94.3087C261.231 94.4389 261.022 94.5588 260.77 94.6838C260.518 94.814 260.224 94.9026 259.901 94.9286C258.755 95.0276 257.61 95.1474 256.465 95.288C255.32 95.4131 254.174 95.5589 253.024 95.7308C251.656 95.9444 250.259 96.3924 248.995 96.9758L248.477 97.2259C248.306 97.3144 248.154 97.4238 247.992 97.5176L247.75 97.6686L247.536 97.8457L247.322 98.0229L247.217 98.1114C247.217 98.1114 247.179 98.1583 247.16 98.1791C246.984 98.3979 246.832 98.8042 246.709 99.1793C246.585 99.5648 246.476 99.9711 246.381 100.383C246.139 101.393 245.968 102.44 245.82 103.487C245.597 105.076 245.412 106.681 245.288 108.275C245.188 109.514 245.198 110.738 245.122 111.963C245.107 112.233 245.098 112.499 245.084 112.77C245.008 113.775 244.856 114.088 244.67 114.296C244.627 114.343 244.585 114.406 244.542 114.437C244.423 114.531 244.281 114.109 244.19 113.353C244.128 112.796 244.128 112.233 244.105 111.666C244.086 111.098 244.081 110.52 244.114 109.947C244.167 108.795 244.247 107.629 244.366 106.457C244.547 104.722 244.784 102.987 245.098 101.247H245.126L245.141 101.258Z" fill="#231F20"/>
<path d="M261.065 138.808C258.803 127.598 265.494 128.614 265.703 128.494C265.703 128.494 263.075 126.504 260.851 128.457C258.513 130.515 258.547 131.718 258.404 134.125C258.262 136.532 258.404 138.72 258.404 138.72L261.061 138.808H261.065Z" fill="#231F20"/>
<path d="M251.462 102.773C251.391 102.93 250.126 106.93 250.692 107.785C250.944 108.165 257.136 108.097 257.63 107.748C258.124 107.399 258.623 109.222 257.026 109.379C255.43 109.535 249.537 109.254 249.404 108.795C249.271 108.337 248.858 103.346 249.404 103.091C249.951 102.836 251.457 102.779 251.457 102.779L251.462 102.773Z" fill="#231F20"/>
<path d="M251.936 117.313C251.865 117.469 250.601 121.47 251.167 122.324C251.418 122.704 257.61 122.637 258.105 122.288C258.599 121.939 259.098 123.762 257.501 123.918C255.904 124.075 250.012 123.793 249.879 123.335C249.746 122.876 249.332 117.886 249.879 117.631C250.425 117.375 251.932 117.318 251.932 117.318L251.936 117.313Z" fill="#231F20"/>
<path d="M270.299 117.313C270.227 117.469 268.963 121.47 269.529 122.324C269.781 122.704 275.973 122.637 276.467 122.288C276.961 121.939 277.46 123.762 275.863 123.918C274.271 124.075 268.374 123.793 268.241 123.335C268.108 122.876 267.695 117.886 268.241 117.631C268.788 117.375 270.294 117.318 270.294 117.318L270.299 117.313Z" fill="#231F20"/>
<path d="M270.299 102.773C270.227 102.93 269.424 106.852 269.99 107.707C270.242 108.087 275.973 108.097 276.467 107.743C276.961 107.389 277.46 109.217 275.863 109.373C274.267 109.53 268.374 109.248 268.241 108.79C268.108 108.332 267.695 103.341 268.241 103.086C268.788 102.831 270.294 102.773 270.294 102.773H270.299Z" fill="#231F20"/>
<path d="M244.211 107.962C244.33 105.899 244.458 103.842 244.657 101.779C244.7 101.263 244.762 100.747 244.819 100.232C244.876 99.7161 244.928 99.2004 245.009 98.6847L245.118 97.9085L245.147 97.7157L245.161 97.6168L245.199 97.4501C245.247 97.2261 245.347 97.0386 245.442 96.8667C245.864 96.2155 246.363 95.9342 246.829 95.6738C247.518 95.3091 248.203 95.0747 248.887 94.8611C249.571 94.6528 250.255 94.4913 250.944 94.3662C253.368 93.9183 255.792 93.7151 258.215 93.5849C260.639 93.4598 263.057 93.4286 265.476 93.4651C267.624 93.5015 269.782 93.5432 271.911 93.6891C273.279 93.788 274.648 93.9026 276.016 94.1058C276.701 94.1996 277.38 94.3298 278.055 94.5069C278.73 94.6736 279.4 94.882 280.046 95.1945C280.45 95.382 280.602 95.5227 280.574 95.5591C280.54 95.606 280.327 95.5696 279.961 95.5487C279.224 95.5018 277.903 95.5487 276.363 95.4029C273.636 95.0903 270.87 95.0174 268.109 94.8872C265.343 94.7934 262.563 94.7778 259.774 94.8403C258.106 94.8767 256.409 95.0018 254.713 95.2101C253.021 95.4237 251.32 95.6998 249.695 96.127C248.811 96.3614 247.917 96.6531 247.19 97.0959C246.829 97.3042 246.535 97.6064 246.487 97.8043C246.478 97.8199 246.454 97.9658 246.439 98.096L246.387 98.4763L246.283 99.2316C246.036 101.258 245.855 103.31 245.722 105.368C245.565 107.9 245.437 110.442 245.38 112.979C245.28 116.828 245.247 120.699 245.351 124.517C245.437 127.486 245.636 130.393 245.883 133.31C245.945 133.951 246.002 134.581 246.059 135.227C246.112 135.826 246.145 136.326 246.154 136.743C246.173 137.16 246.183 137.498 246.169 137.78C246.135 138.342 246.05 138.676 245.907 138.957C245.841 139.082 245.784 139.249 245.722 139.327C245.613 139.457 245.484 139.285 245.337 138.858C245.19 138.431 245.009 137.753 244.876 136.873C244.178 131.628 243.959 126.048 243.916 120.459C243.892 116.307 243.973 112.135 244.173 107.973H244.206L244.211 107.962Z" fill="#231F20"/>
<path d="M281.519 122.801C281.599 120.655 281.642 118.499 281.642 116.347C281.642 115.561 281.59 114.779 281.599 113.993C281.599 111.221 281.571 108.45 281.428 105.684C281.367 104.455 281.253 103.225 281.115 102.017C281.015 101.246 280.92 100.47 280.82 99.6935L280.687 98.5371C280.654 98.3496 280.663 98.1516 280.668 97.9537C280.668 97.7609 280.678 97.563 280.668 97.3755C280.654 96.9483 280.692 96.9014 281.015 97.2504C281.167 97.4275 281.381 97.6828 281.614 98.011C281.818 98.3444 281.946 98.7559 282.037 99.2091C282.193 100.011 282.289 100.819 282.374 101.621C282.46 102.428 282.531 103.231 282.588 104.038C282.702 105.653 282.768 107.273 282.778 108.898C282.792 110.846 282.949 112.862 282.987 114.847C283.011 117.035 282.987 119.223 282.93 121.405C282.897 122.749 282.84 124.093 282.783 125.437C282.692 127.474 282.545 129.511 282.407 131.532C282.308 133.1 282.236 134.642 282.113 136.199C282.079 136.543 282.06 136.877 282.022 137.22C281.97 137.861 281.823 138.267 281.723 138.549C281.666 138.689 281.609 138.799 281.538 138.882C281.457 138.966 281.367 139.028 281.291 139.085C281.219 139.137 281.153 139.205 281.11 139.236C281.001 139.341 280.697 138.757 280.739 137.83C280.839 135.074 281.062 132.199 281.21 129.292C281.324 127.135 281.433 124.968 281.485 122.801H281.519Z" fill="#231F20"/>
<path d="M251.353 109.566L250.469 109.514L249.861 109.473C249.718 109.473 249.614 109.42 249.499 109.384C249.385 109.342 249.276 109.306 249.167 109.259C249.1 109.144 249.053 109.014 249.001 108.894C248.958 108.764 248.939 108.597 248.905 108.452C248.882 108.311 248.882 108.097 248.877 107.993L248.867 107.717L248.853 106.623C248.853 106.123 248.82 105.623 248.825 105.123L248.858 103.675L248.877 103.399C248.891 103.315 248.915 103.232 248.934 103.154C248.943 103.065 248.996 103.013 249.058 102.956C249.115 102.899 249.176 102.852 249.243 102.805C249.357 102.69 249.528 102.654 249.68 102.596C249.856 102.524 249.927 102.524 250.036 102.492C250.863 102.305 251.671 102.206 252.489 102.164C253.211 102.128 253.938 102.086 254.66 102.096C255.121 102.117 255.587 102.143 256.053 102.216C256.514 102.31 256.965 102.487 257.378 102.742C257.64 102.899 257.583 102.94 257.317 103.029C257.051 103.107 256.571 103.362 256.076 103.399C255.853 103.414 255.639 103.388 255.421 103.388H254.76C254.318 103.404 253.881 103.393 253.439 103.414C252.555 103.456 251.662 103.518 250.778 103.617C250.649 103.638 250.512 103.654 250.383 103.68L250.089 103.748C250.046 103.758 249.998 103.768 249.965 103.8C249.946 103.841 249.951 103.894 249.951 103.946L249.941 104.295V104.758C249.941 105.071 249.941 105.378 249.941 105.691V107.222L249.956 107.978C249.96 108.071 249.941 108.202 249.984 108.285C250.127 108.311 250.165 108.321 250.55 108.332C251.31 108.353 252.08 108.363 252.85 108.363C254.014 108.363 255.183 108.379 256.338 108.327C256.561 108.316 256.784 108.3 257.003 108.28L257.174 108.254L257.255 108.238C257.283 108.238 257.307 108.228 257.312 108.186C257.331 108.123 257.336 108.061 257.34 108.004V107.915L257.345 107.879L257.355 107.795C257.378 107.566 257.393 107.332 257.407 107.097C257.416 106.889 257.426 106.686 257.431 106.477C257.459 106.092 257.483 105.842 257.549 105.665C257.626 105.488 257.725 105.389 257.873 105.3C257.939 105.264 258.006 105.211 258.072 105.185C258.182 105.144 258.281 105.206 258.376 105.357C258.467 105.508 258.552 105.748 258.571 106.055C258.604 106.514 258.623 106.972 258.595 107.446C258.581 107.696 258.566 107.889 258.524 108.191C258.49 108.41 258.448 108.618 258.386 108.816C258.334 109.03 258.205 109.155 258.091 109.301C257.839 109.514 257.393 109.561 257.022 109.572L256.39 109.603C255.972 109.613 255.549 109.629 255.126 109.639C253.871 109.665 252.612 109.644 251.353 109.603V109.572V109.566Z" fill="#231F20"/>
<path d="M270.38 109.52L269.254 109.483L268.613 109.463C268.252 109.478 267.985 109.348 267.71 109.249C267.601 109.041 267.51 108.838 267.472 108.556C267.439 108.431 267.434 108.285 267.429 108.139L267.42 107.843L267.401 106.879C267.396 106.342 267.363 105.811 267.368 105.28L267.391 103.785C267.42 103.389 267.42 102.998 267.734 102.81C267.995 102.623 268.437 102.524 268.598 102.488C269.478 102.305 270.333 102.201 271.203 102.154C271.972 102.112 272.742 102.071 273.507 102.076C273.997 102.092 274.496 102.112 274.985 102.185C275.475 102.279 275.959 102.456 276.406 102.717C276.682 102.883 276.625 102.92 276.344 103.003C276.207 103.045 276.007 103.113 275.779 103.201C275.551 103.279 275.299 103.342 275.028 103.368C274.558 103.368 274.092 103.347 273.621 103.368C273.151 103.373 272.68 103.368 272.205 103.394C271.26 103.441 270.3 103.509 269.349 103.608C269.207 103.623 269.064 103.644 268.926 103.67L268.617 103.733C268.575 103.743 268.518 103.748 268.489 103.79C268.48 103.842 268.48 103.894 268.48 103.946L268.47 104.368V104.863C268.47 105.196 268.47 105.524 268.47 105.858V107.29L268.489 107.962C268.494 108.051 268.475 108.166 268.518 108.244C268.613 108.265 268.679 108.265 268.817 108.275L269.492 108.285C270.309 108.285 271.127 108.275 271.944 108.254L273.807 108.218L274.733 108.186L275.194 108.166L275.57 108.139C275.655 108.134 275.717 108.124 275.779 108.119C275.807 108.108 275.85 108.119 275.864 108.087C275.879 108.051 275.879 108.014 275.883 107.978C275.888 107.905 275.888 107.837 275.888 107.759V107.462C275.883 106.952 275.86 106.441 275.845 105.926C275.836 105.696 275.822 105.478 275.822 105.248C275.812 104.399 275.921 104.134 276.221 103.946C276.287 103.904 276.354 103.847 276.42 103.821C276.53 103.779 276.629 103.847 276.724 103.998C276.815 104.154 276.91 104.399 276.943 104.717C277.062 105.655 277.109 106.613 277.09 107.613C277.062 107.863 277.1 108.52 276.886 108.822C276.839 108.91 276.786 108.978 276.729 109.062L276.71 109.093V109.098C276.758 109.155 276.72 109.114 276.734 109.129H276.729L276.715 109.145L276.667 109.187C276.639 109.218 276.601 109.244 276.549 109.254C276.363 109.322 276.168 109.39 275.974 109.39L275.085 109.447L274.41 109.478C273.075 109.536 271.735 109.546 270.39 109.536V109.504L270.38 109.52Z" fill="#231F20"/>
<path d="M251.733 123.991L250.849 123.939L250.241 123.897C250.098 123.897 249.993 123.845 249.879 123.809C249.765 123.767 249.656 123.731 249.547 123.684C249.48 123.569 249.433 123.439 249.38 123.319C249.338 123.189 249.319 123.022 249.285 122.876C249.262 122.736 249.262 122.522 249.257 122.418L249.247 122.142L249.233 121.048C249.233 120.548 249.2 120.048 249.205 119.548L249.238 118.099L249.257 117.823C249.271 117.74 249.295 117.657 249.314 117.578C249.323 117.49 249.376 117.438 249.437 117.381C249.494 117.323 249.556 117.276 249.623 117.229C249.737 117.115 249.908 117.078 250.06 117.021C250.236 116.948 250.307 116.948 250.416 116.917C251.243 116.729 252.051 116.63 252.868 116.589C253.591 116.552 254.318 116.511 255.04 116.521C255.501 116.542 255.967 116.568 256.432 116.641C256.893 116.735 257.345 116.912 257.758 117.167C258.02 117.323 257.963 117.365 257.697 117.453C257.43 117.532 256.95 117.787 256.456 117.823C256.233 117.839 256.019 117.813 255.8 117.813H255.14C254.698 117.829 254.261 117.818 253.819 117.839C252.935 117.881 252.042 117.943 251.158 118.042C251.029 118.063 250.892 118.079 250.763 118.105L250.469 118.172C250.426 118.183 250.378 118.193 250.345 118.224C250.326 118.266 250.331 118.318 250.331 118.37L250.321 118.719V119.183C250.321 119.495 250.321 119.803 250.321 120.115V121.647L250.336 122.402C250.34 122.496 250.321 122.626 250.364 122.71C250.507 122.736 250.545 122.746 250.93 122.756C251.69 122.777 252.46 122.788 253.23 122.788C254.394 122.788 255.563 122.803 256.718 122.751C256.941 122.741 257.164 122.725 257.383 122.704L257.554 122.678L257.635 122.663C257.663 122.663 257.687 122.652 257.692 122.611C257.711 122.548 257.716 122.486 257.72 122.428V122.34L257.725 122.303L257.735 122.22C257.758 121.991 257.773 121.756 257.787 121.522C257.796 121.313 257.806 121.11 257.811 120.902C257.839 120.516 257.863 120.266 257.929 120.089C258.005 119.912 258.105 119.813 258.253 119.725C258.319 119.688 258.386 119.636 258.452 119.61C258.561 119.568 258.661 119.631 258.756 119.782C258.847 119.933 258.932 120.173 258.951 120.48C258.984 120.938 259.003 121.397 258.975 121.871C258.961 122.121 258.946 122.314 258.904 122.616C258.87 122.835 258.828 123.043 258.766 123.241C258.713 123.454 258.585 123.579 258.471 123.725C258.219 123.939 257.773 123.986 257.402 123.996L256.77 124.027C256.352 124.038 255.929 124.054 255.506 124.064C254.251 124.09 252.992 124.069 251.733 124.027V123.996V123.991Z" fill="#231F20"/>
<path d="M270.759 123.949L269.633 123.913L268.992 123.892C268.63 123.908 268.364 123.777 268.089 123.678C267.979 123.47 267.889 123.267 267.851 122.986C267.818 122.861 267.813 122.715 267.808 122.569L267.799 122.272L267.78 121.308C267.775 120.772 267.742 120.24 267.747 119.709L267.77 118.214C267.799 117.818 267.799 117.427 268.112 117.24C268.374 117.052 268.816 116.953 268.977 116.917C269.856 116.735 270.712 116.63 271.581 116.584C272.351 116.542 273.121 116.5 273.886 116.505C274.376 116.521 274.875 116.542 275.364 116.615C275.854 116.709 276.338 116.886 276.785 117.146C277.061 117.313 277.004 117.349 276.723 117.433C276.585 117.474 276.386 117.542 276.158 117.631C275.93 117.709 275.678 117.771 275.407 117.797C274.936 117.797 274.471 117.776 274 117.797C273.53 117.803 273.059 117.797 272.584 117.823C271.639 117.87 270.679 117.938 269.728 118.037C269.586 118.053 269.443 118.073 269.305 118.099L268.996 118.162C268.954 118.172 268.897 118.178 268.868 118.219C268.859 118.271 268.859 118.323 268.859 118.376L268.849 118.797V119.292C268.849 119.626 268.849 119.954 268.849 120.287V121.72L268.868 122.392C268.873 122.48 268.854 122.595 268.897 122.673C268.992 122.694 269.058 122.694 269.196 122.704L269.871 122.715C270.688 122.715 271.505 122.704 272.323 122.684L274.186 122.647L275.112 122.616L275.573 122.595L275.949 122.569C276.034 122.564 276.096 122.553 276.158 122.548C276.186 122.538 276.229 122.548 276.243 122.517C276.258 122.48 276.258 122.444 276.262 122.407C276.267 122.335 276.267 122.267 276.267 122.189V121.892C276.262 121.381 276.239 120.871 276.224 120.355C276.215 120.126 276.2 119.907 276.2 119.678C276.191 118.829 276.3 118.563 276.6 118.376C276.666 118.334 276.733 118.277 276.799 118.251C276.909 118.209 277.008 118.277 277.103 118.428C277.194 118.584 277.289 118.829 277.322 119.147C277.441 120.084 277.488 121.043 277.469 122.043C277.441 122.293 277.479 122.949 277.265 123.251C277.217 123.34 277.165 123.408 277.108 123.491L277.089 123.522V123.527C277.137 123.585 277.099 123.543 277.113 123.559H277.108L277.094 123.574L277.046 123.616C277.018 123.647 276.98 123.673 276.928 123.684C276.742 123.751 276.547 123.819 276.353 123.819L275.464 123.876L274.789 123.908C273.454 123.965 272.114 123.975 270.769 123.965V123.934L270.759 123.949Z" fill="#231F20"/>
<path d="M284.883 137.986C285.177 138.033 285.477 138.07 285.781 138.096C285.89 138.106 285.999 138.075 286.113 138.085C286.508 138.132 286.907 138.148 287.306 138.195C287.482 138.21 287.658 138.195 287.834 138.184C288.057 138.174 288.285 138.195 288.518 138.278C288.589 138.304 288.589 138.403 288.542 138.533C288.494 138.658 288.404 138.851 288.28 138.934C288.171 138.997 288.067 139.07 287.957 139.122C287.848 139.153 287.734 139.179 287.62 139.2C287.396 139.237 287.168 139.273 286.931 139.216C286.65 139.164 286.37 139.252 286.085 139.268C285.771 139.283 285.458 139.278 285.139 139.268C284.944 139.268 284.75 139.247 284.55 139.237C284.251 139.221 283.956 139.174 283.657 139.169C283.424 139.158 283.181 139.216 282.944 139.185C282.892 139.174 282.839 139.185 282.787 139.153C282.602 139.054 282.564 138.945 282.587 138.7C282.592 138.643 282.597 138.591 282.606 138.539C282.635 138.367 282.749 138.231 282.892 138.148C283.105 138.012 283.286 137.95 283.471 137.924C283.657 137.887 283.837 137.898 284.027 137.908C284.312 137.924 284.602 137.945 284.892 137.96V137.992L284.883 137.986Z" fill="#231F20"/>
<path d="M266.298 129.401L265.951 129.141L265.566 128.948C265.319 128.792 265.014 128.76 264.739 128.662C264.449 128.599 264.145 128.589 263.845 128.547H263.389C263.237 128.557 263.095 128.583 262.943 128.594C262.515 128.667 262.111 128.823 261.736 129.016C261.408 129.198 261.099 129.427 260.823 129.703C260.552 129.99 260.315 130.323 260.101 130.688C259.687 131.428 259.412 132.287 259.226 133.178C259.06 133.97 259.013 134.798 258.975 135.616C258.951 136.142 258.96 136.673 258.956 137.205C258.956 137.736 258.951 138.272 258.813 138.819C258.699 139.163 258.59 139.101 258.371 138.819C258.257 138.679 258.133 138.481 258 138.241C257.886 138.002 257.82 137.715 257.801 137.403C257.672 135.199 257.81 132.813 258.841 130.657C259.155 130.021 259.526 129.391 260.011 128.839C260.495 128.292 261.108 127.854 261.764 127.604C262.486 127.328 263.237 127.245 263.959 127.276C264.682 127.333 265.423 127.443 266.107 127.781C266.949 128.167 267.704 128.813 268.227 129.62C269.039 130.834 269.396 132.277 269.629 133.662C269.79 134.746 269.933 135.824 269.947 136.908C269.957 137.147 269.961 137.382 269.942 137.621C269.923 137.845 269.909 138.028 269.876 138.179C269.838 138.33 269.776 138.45 269.728 138.549C269.624 138.741 269.519 138.845 269.386 138.924C269.329 138.96 269.272 139.007 269.225 139.028C269.077 139.09 268.911 138.71 268.778 138.074C268.664 137.142 268.659 136.215 268.55 135.288C268.445 134.366 268.312 133.449 268.099 132.574C267.913 131.943 267.723 131.308 267.409 130.776C267.276 130.485 267.082 130.271 266.911 130.016C266.815 129.901 266.706 129.808 266.606 129.703L266.454 129.547C266.397 129.5 266.336 129.464 266.278 129.422L266.293 129.391L266.298 129.401Z" fill="#231F20"/>
<path d="M263.136 139.547L256.773 139.401L254.454 139.391C251.727 139.323 249.004 139.25 246.276 139.234C245.069 139.234 243.853 139.276 242.655 139.323C241.115 139.364 239.585 139.51 238.041 139.37C237.551 139.318 237.613 139.338 237.998 139.14C238.378 138.911 239.11 138.468 240.003 138.302C243.168 137.88 246.328 137.927 249.507 138.02C251.408 138.093 253.39 138.01 255.334 138.015C257.472 138.015 259.61 138.057 261.749 138.088C263.065 138.109 264.381 138.125 265.693 138.146C267.684 138.166 269.685 138.208 271.662 138.177C273.197 138.156 274.703 138.041 276.224 137.963C276.556 137.948 276.884 137.916 277.222 137.906C278.471 137.869 278.871 137.958 279.141 138.37C279.203 138.458 279.284 138.547 279.322 138.63C279.446 138.906 278.937 139.219 278.02 139.302C275.302 139.594 272.436 139.635 269.561 139.641C267.423 139.641 265.28 139.604 263.136 139.583V139.547Z" fill="#231F20"/>
<path d="M258.514 87.4041C261.118 85.534 264.363 85.4089 266.92 87.4457C267.224 87.6853 267.685 87.4978 267.861 87.1748C268.07 86.7946 267.913 86.3778 267.614 86.1434C264.691 83.8097 260.79 83.9608 257.815 86.1018C257.079 86.6331 257.768 87.9406 258.509 87.4041H258.514Z" fill="#231F20"/>
<path d="M251.946 83.7949C255.102 81.508 258.77 80.112 262.567 80.0286C266.364 79.9453 270.313 81.3361 273.502 83.8991C274.305 84.545 275.075 83.076 274.281 82.4353C269.002 78.1846 262.125 77.2469 255.986 79.6744C254.289 80.3464 252.669 81.2372 251.167 82.3259C250.34 82.9249 251.115 84.3887 251.946 83.7897V83.7949Z" fill="#231F20"/>
<path d="M244.499 80.5597C252.863 74.4805 263.469 72.35 273.045 76.0746C275.877 77.1789 278.524 78.7833 280.943 80.7368C281.741 81.3827 282.516 79.9137 281.722 79.273C277.341 75.7255 272.218 73.47 266.805 72.7511C261.393 72.0322 256.393 72.8292 251.541 74.7618C248.785 75.861 246.157 77.3143 243.715 79.0907C242.888 79.6897 243.663 81.1587 244.494 80.5545L244.499 80.5597Z" fill="#231F20"/>
<path d="M262.952 88.707H262.876C262.748 88.7018 262.624 88.733 262.515 88.7955C262.401 88.8372 262.296 88.9101 262.211 89.0091C262.12 89.1029 262.054 89.2123 262.016 89.3425C261.959 89.4675 261.93 89.5978 261.935 89.7384L261.968 90.0145C262.011 90.1864 262.092 90.3427 262.211 90.4677L262.401 90.6292C262.548 90.7229 262.705 90.7698 262.876 90.7698H262.952C263.08 90.775 263.204 90.7438 263.313 90.6813C263.427 90.6396 263.532 90.5667 263.617 90.4677C263.708 90.3739 263.774 90.2645 263.812 90.1343C263.869 90.0093 263.898 89.879 263.893 89.7384L263.86 89.4623C263.817 89.2904 263.736 89.1341 263.617 89.0091L263.427 88.8476C263.28 88.7539 263.123 88.707 262.952 88.707Z" fill="#231F20"/>
<path d="M287.333 50V34H101.333" stroke="#C7C7C7" stroke-dasharray="2 2"/>
<path d="M104.333 167V181L287.333 181" stroke="#C7C7C7" stroke-dasharray="2 2"/>
<rect x="0.5" y="0.5" width="349" height="209" rx="3.5" stroke="#E5E5E5"/>
</svg>
