<svg width="350" height="210" viewBox="0 0 350 210" fill="none" xmlns="http://www.w3.org/2000/svg">
<rect width="350" height="210" rx="4" fill="white"/>
<path d="M196.389 104.619L191.35 105.475L189.516 105.838L183.006 106.997L180.133 107.572C178.907 107.883 177.656 108.085 176.394 108.176C175.971 108.176 176.052 107.944 176.394 107.672C176.836 107.316 177.359 107.073 177.916 106.967C180.385 106.453 182.885 105.959 185.424 105.566C186.936 105.334 188.448 104.961 190.04 104.669L195.079 103.742L198.224 103.198L203.001 102.442C204.23 102.26 205.419 101.988 206.659 101.837L207.465 101.716C208.473 101.635 208.826 101.716 209.048 102.018C209.105 102.084 209.155 102.155 209.199 102.23C209.289 102.472 208.886 102.694 208.191 102.784L201.509 103.792L196.47 104.629L196.389 104.619Z" fill="#231F20"/>
<path d="M152.459 123.241C154.414 124.236 156.379 125.213 158.354 126.174L160.541 127.182L168.191 130.861C169.319 131.405 170.478 131.929 171.607 132.443C173.108 133.052 174.543 133.811 175.89 134.71C176.314 135.003 176.132 135.134 175.659 135.113C175.353 135.093 175.049 135.046 174.751 134.972C174.341 134.898 173.942 134.773 173.562 134.6C170.619 133.259 167.586 132.04 164.653 130.568C162.89 129.691 160.985 128.915 159.151 128.089C157.135 127.162 155.119 126.218 153.104 125.257L149.435 123.413C147.581 122.506 145.737 121.528 143.902 120.601C142.491 119.855 141.05 119.21 139.649 118.454C139.33 118.31 139.02 118.145 138.722 117.961C137.614 117.245 137.341 116.902 137.331 116.429C137.317 116.322 137.317 116.213 137.331 116.106C137.331 115.814 137.986 115.864 138.843 116.257C141.373 117.436 143.882 118.868 146.573 120.198C148.528 121.206 150.493 122.213 152.479 123.221L152.459 123.241Z" fill="#231F20"/>
<path d="M175.648 116.913L175.356 119.937C175.356 120.31 175.356 120.682 175.295 121.065L174.932 125.016C174.932 125.601 174.872 126.185 174.862 126.77C174.885 127.517 174.848 128.265 174.751 129.007C174.68 129.471 173.743 128.876 173.693 127.999C173.632 126.464 173.703 124.927 173.904 123.403C174.035 122.486 174.005 121.529 174.056 120.582L174.257 117.478L174.398 115.623C174.459 114.615 174.549 113.688 174.569 112.731C174.569 111.985 174.569 111.249 174.569 110.514C174.569 110.352 174.569 110.191 174.569 110.02C174.567 109.8 174.605 109.581 174.68 109.375C174.714 109.31 174.762 109.255 174.821 109.213C174.846 109.164 174.881 109.121 174.925 109.088C174.968 109.055 175.019 109.032 175.073 109.022C175.106 109.015 175.14 109.018 175.17 109.03C175.201 109.043 175.227 109.065 175.245 109.093C175.184 108.972 175.245 109.183 175.245 109.093C175.266 109.16 175.296 109.225 175.335 109.284C175.36 109.321 175.397 109.348 175.439 109.361C175.481 109.373 175.526 109.371 175.567 109.355C175.648 109.264 175.668 109.355 175.698 109.445C175.732 109.54 175.756 109.638 175.769 109.738C175.929 111.099 175.973 112.471 175.9 113.839C175.9 114.847 175.799 115.905 175.728 116.943L175.648 116.913Z" fill="#231F20"/>
<path d="M155.916 110.504C155.916 111.451 155.895 112.399 155.855 113.346V114.354L155.795 118.032C155.795 118.577 155.795 119.121 155.795 119.665C155.87 120.374 155.839 121.091 155.704 121.792C155.654 122.013 155.402 121.943 155.18 121.731C155.045 121.619 154.935 121.481 154.855 121.325C154.775 121.169 154.728 120.999 154.716 120.824C154.716 119.453 154.626 118.042 154.716 116.611C154.777 115.765 154.716 114.878 154.666 114.001C154.616 113.124 154.666 112.076 154.666 111.119V109.345L154.757 106.654C154.757 105.959 154.757 105.274 154.757 104.578C154.747 104.427 154.747 104.276 154.757 104.125C154.817 103.56 154.918 103.389 155.2 103.308L155.392 103.248C155.603 103.248 155.754 103.47 155.795 103.883C155.896 105.126 155.926 106.375 155.885 107.622L155.835 110.474L155.916 110.504Z" fill="#231F20"/>
<path d="M182.219 77.4191C182.914 77.2066 183.621 77.0316 184.335 76.8951C184.597 76.8346 184.839 76.7338 185.101 76.6935C186.018 76.5423 186.956 76.4718 187.873 76.3609C188.286 76.3105 188.689 76.2299 189.092 76.1694C189.615 76.0871 190.145 76.05 190.674 76.0586C190.816 76.0586 190.846 76.0586 190.674 76.0586C190.533 76.0586 190.342 76.3307 190.08 76.4919C189.187 77.1015 188.184 77.5327 187.127 77.7618C186.502 77.8727 185.897 78.1548 185.262 78.3161C184.628 78.4773 183.882 78.6587 183.186 78.82C182.763 78.9208 182.33 79.0216 181.927 79.1425C181.672 79.1952 181.43 79.2942 181.211 79.4348C181.03 79.6285 180.916 79.8762 180.889 80.1402C180.808 80.6038 180.889 81.148 180.818 81.6217V81.9644C180.794 82.19 180.736 82.4107 180.647 82.6194C180.647 82.6194 180.647 82.6698 180.647 82.6799C180.636 82.53 180.598 82.3832 180.536 82.2466C180.294 81.3496 179.528 80.5333 179.961 79.0417C180.071 78.7419 180.251 78.4724 180.485 78.2556C180.684 78.0755 180.908 77.9261 181.151 77.8122C181.501 77.6408 181.861 77.4894 182.229 77.3587L182.219 77.4191Z" fill="#231F20"/>
<path d="M172.836 90.7323H172.756H172.463L171.758 90.6819C171.573 90.6926 171.388 90.6926 171.204 90.6819C170.528 90.6819 169.803 90.4904 169.087 90.44C168.765 90.44 168.452 90.44 168.14 90.44C167.702 90.4607 167.265 90.3991 166.85 90.2586C166.729 90.1982 166.749 90.2586 166.85 90.1982C166.951 90.1377 167.102 89.8857 167.283 89.7144C167.55 89.3799 167.88 89.1023 168.256 88.898C168.632 88.6937 169.045 88.567 169.47 88.5252C169.966 88.4456 170.458 88.3379 170.942 88.2027C171.55 88.1229 172.167 88.1229 172.776 88.2027C173.325 88.257 173.837 88.5075 174.217 88.9082C174.601 89.4332 174.819 90.0618 174.842 90.7121C174.923 91.0996 174.95 91.4964 174.922 91.8913C174.922 91.982 174.922 92.0626 174.922 92.1533C174.922 92.4657 174.791 92.6068 174.802 92.6774C174.714 92.5793 174.616 92.4914 174.509 92.4153C174.237 92.1231 173.915 91.8006 173.612 91.5083C173.31 91.2161 173.078 90.9439 172.907 90.7625C172.854 90.7046 172.789 90.6597 172.715 90.6315H172.655C172.655 90.6315 172.655 90.6315 172.705 90.6315C172.769 90.5857 172.827 90.5315 172.877 90.4703C172.901 90.4433 172.922 90.4127 172.937 90.3796C172.937 90.4501 173.139 89.7648 173.048 90.0571V90.1175L172.977 90.3191C172.94 90.4614 172.913 90.6062 172.897 90.7525L172.836 90.7323Z" fill="#231F20"/>
<path d="M141.716 145.516C144.679 147.38 147.652 149.235 150.655 151.049C151.744 151.714 152.882 152.309 153.971 152.974L165.51 160.029C167.224 161.036 168.977 162.044 170.711 163.052C172.938 164.292 175.155 165.582 177.261 167.083C177.916 167.547 177.675 167.748 176.919 167.708C175.754 167.598 174.618 167.284 173.563 166.781C171.184 165.682 168.907 164.433 166.629 163.153C164.351 161.873 162.094 160.563 159.856 159.121C157.186 157.469 154.293 155.947 151.512 154.324C148.461 152.537 145.438 150.726 142.441 148.892C140.577 147.763 138.723 146.625 136.868 145.456C136.173 145.022 135.477 144.569 134.782 144.105C134.429 143.883 134.087 143.641 133.774 143.4C133.583 143.248 133.29 143.077 133.089 142.896L132.918 142.755C132.893 142.685 132.873 142.615 132.857 142.543C132.811 142.404 132.774 142.263 132.746 142.12C132.657 141.653 132.593 141.182 132.555 140.709L132.454 139.459L132.273 136.99C132.081 134.45 131.779 131.951 131.638 129.451C131.638 128.897 131.557 128.353 131.537 127.789C131.483 127.048 131.541 126.304 131.708 125.581C131.821 125.197 132.033 124.85 132.323 124.574C132.413 124.466 132.515 124.368 132.625 124.281C132.787 124.181 132.928 124.342 133.119 124.715C133.396 125.244 133.581 125.816 133.663 126.408C134.006 128.635 134.288 130.923 134.51 133.241C134.732 135.559 134.853 137.927 135.074 140.225L135.185 141.233C135.84 141.706 136.616 142.17 137.332 142.644L141.806 145.425L141.716 145.516Z" fill="#231F20"/>
<path d="M178.049 153.607V157.114C178.049 157.547 178.109 157.97 178.109 158.394L178.049 162.929C178.049 163.604 178.049 164.269 178.129 164.944C178.27 165.812 178.27 166.697 178.129 167.565C178.069 167.847 177.666 167.766 177.273 167.565C177.061 167.455 176.876 167.301 176.73 167.113C176.584 166.925 176.48 166.708 176.426 166.476C176.22 164.758 176.156 163.025 176.234 161.296C176.256 160.223 176.212 159.149 176.103 158.081L176.013 154.534V152.347C176.013 151.248 176.013 150.13 176.013 149.041C176.013 148.184 175.831 147.348 175.821 146.481C175.821 146.29 175.821 146.108 175.821 145.917C175.821 145.201 176.033 144.909 176.476 144.909C176.575 144.879 176.676 144.859 176.779 144.849C177.121 144.849 177.383 145.141 177.474 145.615C177.635 146.33 177.807 147.076 177.907 147.842C178.008 148.608 178.059 149.384 178.119 150.16L178.22 151.913V153.677L178.049 153.607Z" fill="#231F20"/>
<path d="M241.226 153.748L226.109 157.527C224.275 157.98 222.461 158.535 220.627 158.938L201.156 163.473L192.539 165.559C188.899 166.555 185.195 167.299 181.453 167.787C180.233 167.857 180.445 167.494 181.302 166.95C182.753 166.083 184.331 165.447 185.978 165.065C193.406 163.191 200.863 161.367 208.432 159.694C212.957 158.686 217.593 157.366 222.189 156.177L237.306 152.306C240.42 151.5 243.524 150.694 246.608 149.837L248.472 149.303L248.997 149.152C249.057 149.152 249.218 149.152 249.188 149.021V148.759C249.188 145.282 249.188 141.805 249.188 138.358C249.188 134.599 249.037 130.921 249.067 127.192C249.067 126.365 249.067 125.559 249.067 124.733C249.228 121.709 249.541 120.701 250.246 120.087C250.39 119.941 250.552 119.815 250.73 119.714C251.254 119.492 251.486 120.722 251.506 122.949C251.597 129.52 251.617 136.494 251.617 143.498C251.617 145.514 251.617 147.56 251.617 149.636L251.445 150.15L251.355 150.402V150.523V150.593C251.536 150.724 251.103 150.412 251.143 150.452L250.871 150.875C250.8 151.037 250.569 151.097 250.428 151.208C250.057 151.364 249.677 151.496 249.289 151.601L248.664 151.782L246.205 152.458L241.297 153.778L241.226 153.748Z" fill="#231F20"/>
<path d="M221.151 125.097L209.793 127.546L205.641 128.553L191.068 131.768C188.921 132.252 186.755 132.776 184.638 133.33C181.897 133.985 179.166 134.731 176.384 135.195C175.528 135.356 175.598 135.195 176.263 134.852C176.586 134.651 177.07 134.379 177.654 134.086C178.295 133.729 178.97 133.439 179.67 133.22L183.802 131.94C185.182 131.526 186.583 131.164 187.974 130.801C190.769 130.055 193.584 129.383 196.42 128.785C199.826 128.07 203.303 127.102 206.76 126.276L218.168 123.615L225.223 121.993C228.77 121.176 232.348 120.39 235.855 119.533C238.586 118.878 241.237 118.112 243.918 117.417C244.512 117.256 245.087 117.084 245.691 116.943C246.484 116.736 247.302 116.645 248.12 116.671C248.533 116.671 248.938 116.786 249.289 117.004C249.425 117.079 249.553 117.167 249.672 117.266C249.955 117.548 249.118 118.092 247.546 118.727C242.809 120.239 237.73 121.428 232.61 122.587L221.171 125.147L221.151 125.097Z" fill="#231F20"/>
<path d="M149.788 122.75C151.804 123.792 153.856 124.8 155.946 125.774L158.223 126.782L166.215 130.601C167.405 131.166 168.604 131.7 169.793 132.234C171.371 132.856 172.875 133.65 174.278 134.602C174.711 134.915 174.5 135.076 173.986 135.086C173.648 135.083 173.311 135.052 172.978 134.995C172.543 134.939 172.119 134.82 171.718 134.643C168.695 133.272 165.47 132.032 162.406 130.46C160.572 129.533 158.566 128.767 156.651 127.9C154.545 126.953 152.439 125.975 150.352 124.978L146.492 123.113C144.557 122.166 142.633 121.098 140.718 120.17C139.236 119.394 137.694 118.739 136.263 117.923C135.941 117.752 135.608 117.59 135.255 117.389C134.117 116.593 133.855 116.19 133.905 115.655C133.894 115.535 133.894 115.413 133.905 115.293C134.006 114.95 134.661 115 135.527 115.424C138.128 116.673 140.778 118.155 143.53 119.546C145.545 120.553 147.621 121.652 149.687 122.67L149.788 122.75Z" fill="#231F20"/>
<path d="M236.783 107.542C236.783 108.549 236.783 109.618 236.783 110.666C236.783 111.039 236.864 111.412 236.874 111.795C236.874 113.145 236.874 114.486 236.874 115.826C236.88 116.422 236.917 117.017 236.985 117.61C237.11 118.371 237.11 119.147 236.985 119.908C236.985 120.149 236.622 120.129 236.269 119.908C235.865 119.717 235.551 119.378 235.392 118.96C235.183 118.217 235.058 117.453 235.019 116.683C234.954 115.908 234.954 115.129 235.019 114.354C235.025 113.4 234.961 112.447 234.828 111.502L234.626 108.398L234.556 106.453C234.556 105.445 234.556 104.488 234.445 103.51C234.384 102.755 234.193 102.019 234.102 101.263C234.092 101.099 234.092 100.934 234.102 100.769C234.09 100.635 234.09 100.5 234.102 100.366C234.148 100.27 234.21 100.181 234.284 100.104C234.411 99.9641 234.575 99.8628 234.757 99.8118L235.009 99.7211C235.271 99.6606 235.563 99.9125 235.876 100.346C235.997 100.678 236.128 101.001 236.239 101.354C236.35 101.706 236.36 102.019 236.42 102.362C236.521 103.037 236.581 103.732 236.642 104.377C236.722 105.385 236.783 106.453 236.823 107.491L236.783 107.542Z" fill="#231F20"/>
<path d="M203.183 105.225C199.152 105.931 195.121 106.626 191.089 107.372L186.716 108.279C184.156 108.793 181.566 109.287 179.076 109.942L178.139 110.174L177.343 110.436L177.151 110.496H177.051C177.051 110.496 177.051 110.557 177.051 110.587V110.789V111.141L176.849 115.072C176.738 117.4 176.678 119.748 176.637 122.056C176.637 125.079 176.637 128.022 176.365 130.985C176.234 132.829 174.662 130.471 174.632 127.024C174.632 124.001 174.632 120.978 174.743 117.904C174.743 116.382 174.854 114.88 174.934 113.338L175.075 111.04V110.708C175.089 110.544 175.13 110.384 175.196 110.234C175.269 109.945 175.374 109.664 175.509 109.398L175.408 109.277L175.488 109.206L175.66 109.065C175.772 108.955 175.911 108.875 176.063 108.833L176.899 108.551C178.754 108.007 180.568 107.543 182.412 107.14C184.256 106.737 186.101 106.263 187.935 105.891C191.966 105.054 195.997 104.298 200.089 103.542L207.567 102.172C211.346 101.466 215.146 100.791 218.865 99.9949C221.757 99.3801 224.569 98.6343 227.391 97.9188L229.245 97.4149C231.573 96.8505 232.269 96.7396 232.964 97.1428C233.119 97.2115 233.265 97.2996 233.397 97.4048C233.74 97.7374 232.893 98.3421 231.19 98.9467C225.99 100.613 220.692 101.959 215.327 102.978C211.296 103.794 207.265 104.56 203.163 105.326L203.183 105.225Z" fill="#231F20"/>
<path d="M184.417 90.0444L194.777 88.3311C196.037 88.1296 197.286 87.8675 198.546 87.676C200.783 87.3435 203.021 87.0411 205.278 86.7892C206.407 86.6884 207.536 86.5775 208.705 86.5574H209.592H210.156C210.367 86.5821 210.576 86.6226 210.781 86.6783C211.315 86.6279 211.335 87.1822 211.496 87.5551C211.557 87.7466 211.668 87.9784 211.698 88.1296L211.799 88.5629C212.2 90.5525 212.38 92.5806 212.333 94.6098C212.333 97.1797 212.212 99.7093 212.202 102.209C212.202 102.995 211.9 102.924 211.537 102.279C211.021 101.25 210.729 100.124 210.68 98.9736C210.589 96.3432 210.569 93.7733 210.337 91.3142C210.277 90.7096 210.176 90.1049 210.065 89.5203C210.005 89.2281 209.924 88.9358 209.854 88.6536C209.854 88.5831 209.854 88.573 209.854 88.5226H208.846C208.231 88.5226 207.596 88.5831 206.951 88.6335C203.928 88.8653 200.693 89.5304 197.548 90.0746L187.168 91.9391L180.768 93.0981C177.543 93.6927 174.288 94.247 171.093 94.8617C168.594 95.3354 166.185 95.9502 163.706 96.4037C163.162 96.5146 162.628 96.6254 162.073 96.706C161.347 96.8516 160.605 96.9024 159.866 96.8572C159.484 96.8128 159.128 96.6385 158.858 96.3634C158.733 96.2648 158.621 96.1495 158.526 96.0207C158.294 95.6478 159.07 95.1439 160.541 94.7811C164.855 93.7128 169.461 92.8159 174.107 91.9391C177.422 91.2639 180.929 90.5886 184.396 89.9839L184.417 90.0444Z" fill="#231F20"/>
<path d="M157.266 109.747L157.165 113.103C157.165 113.516 157.165 113.919 157.165 114.332L156.984 118.656C156.984 119.301 156.984 119.946 156.984 120.581C157.077 121.416 157.029 122.261 156.843 123.08C156.772 123.352 156.409 123.252 156.057 123C155.867 122.883 155.706 122.726 155.586 122.54C155.466 122.353 155.389 122.142 155.361 121.921C155.296 120.275 155.327 118.626 155.452 116.983C155.506 115.976 155.506 114.967 155.452 113.96V110.573V108.487C155.452 107.479 155.452 106.371 155.452 105.323C155.452 104.506 155.311 103.71 155.321 102.894C155.321 102.712 155.321 102.531 155.321 102.35C155.371 101.674 155.512 101.463 155.926 101.342C156.026 101.342 156.117 101.342 156.218 101.281C156.53 101.281 156.772 101.543 156.863 102.007C157 102.724 157.101 103.447 157.165 104.174C157.165 104.909 157.236 105.655 157.246 106.401C157.246 107.52 157.246 108.648 157.246 109.767L157.266 109.747Z" fill="#231F20"/>
<path d="M149.084 101.595L148.963 106.11C148.963 106.654 148.963 107.199 148.963 107.753L148.751 113.558C148.751 114.414 148.751 115.281 148.751 116.138C148.873 117.252 148.839 118.379 148.65 119.484C148.56 119.837 148.146 119.716 147.753 119.393C147.53 119.223 147.344 119.007 147.209 118.761C147.074 118.514 146.991 118.242 146.967 117.962C146.882 115.738 146.912 113.511 147.058 111.29C147.179 109.94 147.058 108.549 147.058 107.168V102.623V99.8213C147.058 98.4104 147.058 96.9894 147.058 95.5885C147.058 94.49 146.897 93.4217 146.887 92.3333C146.887 92.0914 146.887 91.8496 146.887 91.6077C146.887 90.7107 147.108 90.4084 147.572 90.2673C147.676 90.2231 147.784 90.1894 147.895 90.1665C148.247 90.1665 148.519 90.5092 148.61 91.1743C148.751 92.1217 148.922 93.0892 148.973 94.0869C149.023 95.0846 149.064 96.1025 149.084 97.1103C149.084 98.612 149.084 100.134 149.084 101.645V101.595Z" fill="#231F20"/>
<path d="M176.567 83.6664L169.724 84.8053L167.244 85.2991L158.436 86.8209C157.136 87.0527 155.836 87.3349 154.556 87.6271C152.924 88.0588 151.268 88.3953 149.598 88.6349C148.59 88.7559 149.598 87.1635 151.462 86.6999C154.798 85.8937 158.164 85.1681 161.591 84.6339C163.606 84.3316 165.743 83.7975 167.829 83.3943L174.712 82.1043L178.955 81.3384C181.102 80.9554 183.258 80.6128 185.375 80.1895C187.028 79.867 188.62 79.4336 190.253 79.0708C190.605 78.9902 190.958 78.8894 191.321 78.8189C192.661 78.5669 193.115 78.6374 193.488 79.1414C193.582 79.2516 193.666 79.3696 193.74 79.4941C193.931 79.9073 193.437 80.3407 192.48 80.6228C189.513 81.4196 186.506 82.0555 183.47 82.5276L176.577 83.7168L176.567 83.6664Z" fill="#231F20"/>
<path d="M182.198 76.279L184.809 75.8758C185.131 75.8255 185.433 75.7348 185.756 75.6944L189.102 75.3115C189.606 75.251 190.11 75.1502 190.583 75.0797C191.224 74.9299 191.883 74.8789 192.538 74.9285C192.76 74.9285 192.71 75.2107 192.538 75.4727C192.379 75.7734 192.113 76.0035 191.793 76.1177C190.562 76.4588 189.298 76.6715 188.023 76.7526C187.241 76.8493 186.467 77.0008 185.705 77.2062L183.156 77.7302C182.632 77.8411 182.148 77.962 181.614 78.1031L180.898 78.3148C180.814 78.3377 180.732 78.3716 180.656 78.4155C180.576 78.476 180.656 78.5768 180.596 78.6574V79.1008C180.635 79.7237 180.716 80.3432 180.838 80.9552C180.87 81.0811 180.894 81.2091 180.908 81.3382C180.908 81.5801 180.908 81.7212 180.787 81.832C180.623 81.9393 180.448 82.0272 180.263 82.094L180.001 82.2251C179.93 82.2639 179.85 82.2842 179.769 82.2842C179.688 82.2842 179.609 82.2639 179.538 82.2251C179.356 82.1344 179.104 81.9731 179.064 81.7514C178.863 81.2272 178.76 80.6702 178.762 80.1087C178.762 79.8466 178.762 79.5745 178.762 79.3024V78.9094V78.6171C178.751 78.4829 178.751 78.3481 178.762 78.214C178.775 78.0373 178.815 77.8638 178.883 77.7C179.094 77.5992 179.024 77.317 179.225 77.2263C179.387 77.0959 179.563 76.9843 179.749 76.8937C179.961 76.8232 180.163 76.7325 180.374 76.6821L180.757 76.5712C181.211 76.4503 181.654 76.3596 182.098 76.2689L182.198 76.279Z" fill="#231F20"/>
<path d="M173.915 89.2479C173.059 89.3184 172.182 89.4293 171.305 89.5502C170.983 89.5502 170.67 89.6913 170.297 89.7417C169.168 89.8929 168.03 90.0541 166.901 90.2557C166.397 90.3464 165.893 90.4774 165.419 90.5883C164.789 90.7773 164.14 90.8956 163.484 90.941C163.273 90.941 163.263 90.689 163.374 90.4069C163.435 90.2415 163.529 90.0901 163.65 89.962C163.771 89.8338 163.917 89.7315 164.079 89.6611C165.323 89.2011 166.62 88.8964 167.939 88.754C168.745 88.6633 169.531 88.3912 170.338 88.2199C171.144 88.0486 172.111 87.8772 173.008 87.7361L173.845 87.6152C174.212 87.559 174.582 87.5287 174.953 87.5245C175.195 87.4971 175.438 87.5579 175.639 87.6958C175.86 87.8067 175.87 88.0788 175.951 88.3106C176.082 89.0665 176.153 89.4192 176.253 89.9029C176.405 90.5379 176.646 91.1325 176.848 91.7674C176.907 91.9032 176.951 92.0452 176.979 92.1907C177.032 92.395 177.003 92.6121 176.898 92.7954C176.749 92.9468 176.56 93.0547 176.354 93.1078C176.263 93.1414 176.168 93.1617 176.072 93.1683C175.918 93.1724 175.766 93.1378 175.629 93.0675C175.467 92.9969 175.225 92.8961 175.165 92.7248C174.73 91.6619 174.471 90.5352 174.399 89.389H173.935L173.915 89.2479Z" fill="#231F20"/>
<path d="M221.666 149.034C219.65 149.477 217.725 149.87 215.75 150.253C215.034 150.384 214.329 150.586 213.603 150.707C212.333 150.929 211.054 151.13 209.774 151.301C209.102 151.396 208.457 151.476 207.839 151.543L206.831 151.624H206.327C206.186 151.624 205.863 151.624 205.652 151.624C205.447 151.617 205.243 151.583 205.047 151.523C204.997 151.532 204.946 151.532 204.896 151.523L204.805 151.412L204.604 151.181C204.364 150.835 204.181 150.454 204.059 150.052C203.887 149.445 203.796 148.818 203.787 148.187C203.761 147.441 203.782 146.694 203.848 145.95C203.918 145.234 204.039 144.539 204.1 143.854C204.1 143.441 204.452 143.42 204.835 143.793C205.339 144.349 205.638 145.06 205.682 145.809C205.742 146.565 205.682 147.28 205.682 147.945C205.693 148.26 205.726 148.573 205.783 148.883C205.801 149.023 205.831 149.161 205.873 149.296C205.868 149.356 205.868 149.417 205.873 149.477C205.873 149.477 205.873 149.538 205.873 149.558H206.035H206.287C206.992 149.487 207.718 149.407 208.453 149.356C210.248 149.122 212.028 148.786 213.785 148.349C215.8 147.945 217.705 147.542 219.65 147.089C220.849 146.817 222.049 146.524 223.228 146.202C225.007 145.755 226.747 145.162 228.428 144.428L228.851 144.196L229.103 144.015C229.178 143.964 229.236 143.891 229.269 143.807C229.301 143.722 229.307 143.629 229.285 143.541C229.285 143.43 229.234 142.957 229.194 142.634L229.073 141.626C229.073 141.334 228.952 141.052 228.902 140.77C228.751 139.702 228.902 139.48 229.376 139.026L229.688 138.694C230 138.311 230.696 138.694 231.149 139.702C231.401 140.366 231.564 141.061 231.633 141.768C231.633 142.12 231.714 142.463 231.734 142.775C231.76 143.222 231.76 143.669 231.734 144.116C231.718 144.435 231.632 144.747 231.482 145.029C231.333 145.311 231.123 145.557 230.867 145.748C230.61 145.955 230.337 146.14 230.051 146.303L229.507 146.575C228.851 146.889 228.178 147.165 227.491 147.401C225.475 148.076 223.52 148.55 221.555 149.054L221.666 149.034Z" fill="#231F20"/>
<path d="M133.008 137.817C133.008 137.817 127.858 136.295 124.724 138.754C121.942 140.931 133.27 152.259 156.47 156.23L133.502 142.292L133.008 137.817Z" fill="#231F20"/>
<path d="M218.379 124.06L208.231 126.367L204.552 127.275L191.531 130.318C189.596 130.782 187.671 131.326 185.777 131.79C183.328 132.394 180.899 133.09 178.41 133.543C177.644 133.694 177.714 133.543 178.299 133.241C178.601 133.069 179.024 132.828 179.538 132.555C180.123 132.237 180.737 131.977 181.373 131.779C183.822 130.963 186.291 130.197 188.79 129.542C191.289 128.887 193.829 128.222 196.329 127.678C199.352 127.002 202.476 126.116 205.56 125.34L215.719 122.85L222.008 121.349C225.172 120.583 228.367 119.857 231.501 119.071C233.94 118.456 236.308 117.761 238.717 117.116C239.241 116.965 239.725 116.813 240.289 116.682C240.996 116.492 241.724 116.394 242.456 116.39C242.81 116.391 243.158 116.485 243.464 116.662C243.587 116.718 243.702 116.789 243.807 116.874C244.069 117.116 243.313 117.6 241.912 118.174C237.679 119.555 233.134 120.663 228.558 121.732L218.4 124.1L218.379 124.06Z" fill="#231F20"/>
<path d="M195.765 94.7716L197.398 94.57C197.6 94.57 197.791 94.4894 197.983 94.4692L200.089 94.2274C200.397 94.1925 200.703 94.1421 201.006 94.0762C201.389 93.9611 201.786 93.9001 202.185 93.8948C202.437 93.8948 202.276 94.6909 201.843 94.832C201.059 95.065 200.25 95.207 199.434 95.2553C198.938 95.3015 198.447 95.3823 197.963 95.4972L196.33 95.7592L195.322 95.9205C194.758 96.0112 194.314 95.991 193.78 96.0918C193.395 96.1712 193.015 96.2721 192.641 96.3942L192.389 96.4647C192.077 96.5352 191.966 96.4647 191.845 96.1926C191.845 96.1321 191.845 96.0717 191.775 96.0011C191.745 95.8968 191.755 95.7851 191.804 95.6881C191.852 95.591 191.935 95.5157 192.037 95.477C192.719 95.1956 193.439 95.0157 194.173 94.9429C194.445 94.9429 194.778 94.9429 194.959 94.8724L195.755 94.7514L195.765 94.7716Z" fill="#231F20"/>
<path d="M192.338 100.739L195.25 100.336L196.258 100.134L200.007 99.5296C200.562 99.4389 201.116 99.3079 201.66 99.187C202.351 98.9957 203.055 98.8542 203.766 98.7637C204.22 98.7637 203.827 99.58 203.031 99.7715C201.615 100.165 200.173 100.461 198.717 100.658C197.84 100.759 196.943 101.001 196.057 101.162L193.124 101.676L191.31 101.989C190.393 102.14 189.476 102.281 188.579 102.462C187.873 102.603 187.198 102.805 186.513 102.976L186.059 103.087C185.495 103.208 185.293 103.168 185.122 102.906C185.077 102.847 185.04 102.782 185.011 102.714C184.91 102.503 185.112 102.281 185.525 102.14C186.774 101.741 188.051 101.434 189.345 101.223L192.277 100.719L192.338 100.739Z" fill="#231F20"/>
<rect x="42.5" y="104.5" width="44" height="44" stroke="#E5E5E5"/>
<rect x="46" y="108" width="37" height="37" fill="#231F20"/>
<path d="M67.4374 128.638L70.5076 133.132H70.5417L70.9777 133.913H64.9222L61.8927 128.638H67.4374Z" fill="white"/>
<path d="M70.9761 133.914L74.0005 128.639L67.9466 118.088H61.8927L70.9761 133.914Z" fill="white"/>
<path d="M58.8658 123.361H64.9197L58.8683 133.912L55.8389 128.638L58.8658 123.361Z" fill="white"/>
<path d="M65.5 99.5V77.5H158.5" stroke="#C7C7C7" stroke-dasharray="2 2"/>
<rect x="248.995" y="34.3802" width="63.5973" height="94.2396" fill="white" stroke="#E5E5E5" stroke-width="0.760417"/>
<path d="M287.712 122V115.071H289.772C290.24 115.071 290.645 115.16 290.986 115.337C291.334 115.514 291.603 115.764 291.793 116.087C291.983 116.409 292.078 116.792 292.078 117.235V119.826C292.078 120.263 291.983 120.646 291.793 120.975C291.603 121.298 291.334 121.551 290.986 121.734C290.645 121.911 290.24 122 289.772 122H287.712ZM288.898 120.908H289.772C290.113 120.908 290.385 120.814 290.588 120.624C290.79 120.428 290.892 120.162 290.892 119.826V117.235C290.892 116.906 290.79 116.647 290.588 116.457C290.385 116.261 290.113 116.163 289.772 116.163H288.898V120.908ZM297.437 122.095C296.994 122.095 296.608 122.013 296.279 121.848C295.956 121.677 295.706 121.44 295.529 121.136C295.358 120.826 295.273 120.462 295.273 120.045V117.026C295.273 116.609 295.358 116.248 295.529 115.944C295.706 115.634 295.956 115.397 296.279 115.233C296.608 115.062 296.994 114.976 297.437 114.976C297.886 114.976 298.272 115.062 298.595 115.233C298.918 115.397 299.164 115.634 299.335 115.944C299.512 116.248 299.601 116.606 299.601 117.017V120.045C299.601 120.462 299.512 120.826 299.335 121.136C299.164 121.44 298.918 121.677 298.595 121.848C298.272 122.013 297.886 122.095 297.437 122.095ZM297.437 121.051C297.76 121.051 298.003 120.965 298.168 120.795C298.332 120.617 298.415 120.367 298.415 120.045V117.026C298.415 116.697 298.332 116.447 298.168 116.277C298.003 116.106 297.76 116.02 297.437 116.02C297.114 116.02 296.871 116.106 296.706 116.277C296.542 116.447 296.459 116.697 296.459 117.026V120.045C296.459 120.367 296.542 120.617 296.706 120.795C296.877 120.965 297.121 121.051 297.437 121.051ZM305.064 122.095C304.622 122.095 304.232 122.013 303.897 121.848C303.568 121.677 303.312 121.44 303.128 121.136C302.951 120.826 302.862 120.462 302.862 120.045V117.026C302.862 116.602 302.951 116.239 303.128 115.935C303.312 115.631 303.568 115.397 303.897 115.233C304.232 115.062 304.622 114.976 305.064 114.976C305.514 114.976 305.9 115.062 306.222 115.233C306.551 115.397 306.808 115.631 306.991 115.935C307.175 116.239 307.266 116.602 307.266 117.026H306.071C306.071 116.697 305.982 116.447 305.805 116.277C305.634 116.106 305.387 116.02 305.064 116.02C304.742 116.02 304.492 116.106 304.315 116.277C304.137 116.447 304.049 116.694 304.049 117.017V120.045C304.049 120.367 304.137 120.617 304.315 120.795C304.492 120.965 304.742 121.051 305.064 121.051C305.387 121.051 305.634 120.965 305.805 120.795C305.982 120.617 306.071 120.367 306.071 120.045H307.266C307.266 120.456 307.175 120.817 306.991 121.127C306.808 121.437 306.551 121.677 306.222 121.848C305.9 122.013 305.514 122.095 305.064 122.095ZM312.635 122.095C312.16 122.095 311.749 122.016 311.401 121.858C311.053 121.699 310.784 121.475 310.594 121.184C310.411 120.886 310.316 120.538 310.31 120.14H311.496C311.496 120.424 311.597 120.649 311.8 120.814C312.009 120.972 312.29 121.051 312.644 121.051C312.986 121.051 313.252 120.972 313.442 120.814C313.638 120.655 313.736 120.437 313.736 120.159C313.736 119.925 313.666 119.722 313.527 119.551C313.394 119.374 313.201 119.254 312.948 119.191L312.151 118.972C311.607 118.833 311.186 118.583 310.889 118.222C310.597 117.862 310.452 117.425 310.452 116.913C310.452 116.52 310.541 116.179 310.718 115.887C310.895 115.596 311.145 115.372 311.468 115.214C311.797 115.055 312.183 114.976 312.625 114.976C313.296 114.976 313.828 115.15 314.22 115.498C314.612 115.84 314.812 116.302 314.818 116.884H313.632C313.632 116.612 313.543 116.4 313.366 116.248C313.189 116.09 312.939 116.011 312.616 116.011C312.306 116.011 312.065 116.084 311.895 116.229C311.724 116.375 311.638 116.58 311.638 116.846C311.638 117.087 311.702 117.292 311.828 117.463C311.961 117.628 312.151 117.745 312.398 117.814L313.223 118.042C313.774 118.181 314.195 118.431 314.486 118.792C314.777 119.146 314.922 119.586 314.922 120.111C314.922 120.504 314.828 120.852 314.638 121.155C314.448 121.453 314.182 121.684 313.84 121.848C313.499 122.013 313.097 122.095 312.635 122.095Z" fill="black"/>
<rect x="253.018" y="38.9427" width="54.8822" height="69.1979" fill="#FFEAEB" stroke="#E5E5E5" stroke-width="0.760417"/>
<path d="M324.3 61.069C324.111 60.9084 323.891 60.7898 323.652 60.7214C323.404 60.6348 323.148 60.5708 322.888 60.5302C322.357 60.442 321.822 60.3912 321.284 60.3782C320.202 60.3526 319.118 60.4034 318.043 60.5302C317.869 60.5607 317.782 59.4136 317.973 59.4222C319.103 59.4141 320.231 59.4867 321.35 59.6395C321.913 59.7148 322.471 59.8309 323.018 59.9871C323.298 60.0651 323.571 60.1654 323.835 60.2869C324.115 60.409 324.367 60.588 324.574 60.8127C324.76 61.0473 324.443 61.2081 324.3 61.069Z" fill="#231F20"/>
<path d="M290.278 78.0442L290.035 71.9611L289.926 69.7407C289.843 67.1337 289.787 64.5266 289.739 61.9196C289.739 60.7638 289.674 59.5993 289.635 58.4435C289.52 56.968 289.529 55.4855 289.661 54.0115C289.717 53.5509 289.852 53.6118 290.048 54.0115C290.171 54.2716 290.28 54.5385 290.373 54.811C290.483 55.1827 290.545 55.5666 290.56 55.9538C290.682 58.9562 290.743 61.9587 290.738 64.9959C290.738 66.8078 290.864 68.6936 290.938 70.5489L291.195 76.6668L291.399 80.4253C291.503 82.3241 291.599 84.236 291.738 86.1174C291.851 87.5817 292.02 89.0156 292.172 90.4625C292.211 90.7797 292.246 91.0882 292.281 91.4097C292.359 92.6003 292.316 92.9827 292.09 93.2564C292.042 93.3216 292.003 93.4041 291.964 93.4432C291.851 93.591 291.56 93.1 291.425 92.2353C290.99 89.6587 290.812 86.9256 290.617 84.1838C290.478 82.146 290.373 80.0951 290.265 78.0529L290.278 78.0442Z" fill="#231F20"/>
<path d="M323.044 81.9603C323.479 76.6332 323.913 71.3062 324.269 65.9834C324.33 65.0145 324.378 64.0412 324.408 63.0765C324.408 62.5942 324.439 62.1076 324.439 61.634C324.439 61.395 324.439 61.1604 324.439 60.9301C324.439 60.8171 324.439 60.6954 324.439 60.6129C324.446 60.5829 324.446 60.5516 324.439 60.5216L324.395 60.4825L324.304 60.4304C324.191 60.3718 324.073 60.3224 323.952 60.2826C323.682 60.1912 323.404 60.1215 323.122 60.0741C322.512 59.9802 321.897 59.9236 321.28 59.9046C320.667 59.8742 320.05 59.8655 319.429 59.8742L318.499 59.9003C318.039 59.9003 317.456 59.9611 316.948 59.9959L317.057 59.179L317.1 58.7749L317.135 58.4316L317.209 57.4757C317.252 56.8413 317.283 56.2026 317.304 55.5639C317.326 54.9251 317.343 54.2821 317.343 53.6477V53.1741V52.7656C317.348 52.6991 317.348 52.6323 317.343 52.5658C317.343 52.4745 317.248 52.5049 317.187 52.5006H317.048H316.735L316.027 52.518L314.697 52.5962L312.029 52.7569C308.988 52.9221 305.907 53.0611 302.87 53.0524C300.906 53.068 298.943 52.9708 296.991 52.7613C296.003 52.6488 295.025 52.4673 294.062 52.2182C293.047 51.987 292.099 51.5262 291.29 50.8712C291.181 50.772 291.079 50.6645 290.986 50.5496C290.931 50.4619 290.881 50.3704 290.838 50.2759C290.773 50.1238 290.777 50.0456 290.838 50.0282C290.899 50.0108 290.999 50.0282 291.138 50.1195L291.364 50.2542L291.677 50.3976C292.282 50.6739 292.918 50.8781 293.571 51.0059C294.393 51.171 295.37 51.3187 296.443 51.4751C298.147 51.7037 299.861 51.8357 301.579 51.8705C303.317 51.9183 305.055 51.9097 306.793 51.8705C308.532 51.8314 310.27 51.7576 312.008 51.6707L314.615 51.5273L315.918 51.4534L316.579 51.423H316.939H317.535C317.724 51.4233 317.908 51.4893 318.054 51.6097C318.201 51.7301 318.301 51.8975 318.338 52.0835C318.371 52.2922 318.393 52.5025 318.404 52.7135V53.0872C318.404 53.5782 318.404 54.0605 318.404 54.5428C318.404 55.3553 318.343 56.1635 318.295 56.9847C318.269 57.3932 318.238 57.8059 318.212 58.2187L318.173 58.6532L318.147 58.8444L318.747 58.8183C319.181 58.8183 319.568 58.7923 319.985 58.7923C320.819 58.7818 321.653 58.8166 322.484 58.8966C322.912 58.9374 323.337 59.0056 323.757 59.1008C323.978 59.1484 324.196 59.2123 324.408 59.292C324.665 59.3785 324.906 59.5061 325.121 59.67C325.189 59.7214 325.255 59.7765 325.317 59.8351L325.408 59.922C325.443 59.9481 325.434 60.0002 325.447 60.0393C325.488 60.1989 325.516 60.3617 325.53 60.526C325.53 60.7519 325.556 60.9605 325.56 61.1734C325.56 61.6079 325.56 62.0076 325.56 62.4204C325.469 65.1318 325.264 67.8127 325.073 70.5023L324.422 78.5581C324.161 81.8647 323.896 85.167 323.674 88.4693C323.592 89.7163 323.509 90.9677 323.444 92.2191C323.413 92.8448 323.383 93.4705 323.366 94.0918V94.5611V95.3693C323.366 95.3953 323.327 95.4084 323.309 95.4258L323.04 95.6343C322.955 95.7001 322.863 95.7569 322.766 95.8038C322.688 95.8429 322.61 95.8907 322.531 95.9211C321.263 96.4382 319.981 96.486 318.716 96.5511C317.452 96.6163 316.192 96.5511 314.945 96.4947C312.998 96.3904 311.086 96.2253 309.179 96.0601L306.329 95.7734C305.859 95.7256 305.373 95.6734 304.929 95.6561C304.486 95.6387 303.995 95.6561 303.535 95.6908C302.705 95.7343 301.901 95.8168 301.08 95.9298C299.559 96.1514 298.581 96.4164 297.877 96.5685C297.395 96.702 296.896 96.7649 296.396 96.7554C296.231 96.758 296.067 96.7479 295.905 96.7249C295.722 96.6728 295.905 96.486 296.426 96.2035C297.226 95.7991 298.068 95.4844 298.938 95.265C300.658 94.8247 302.424 94.5842 304.199 94.5481C304.425 94.5481 304.634 94.5481 304.882 94.5481C305.129 94.5481 305.36 94.5741 305.59 94.5915L306.919 94.7219L309.566 94.9956C311.33 95.1737 313.107 95.3345 314.884 95.4301C316.645 95.5513 318.413 95.5353 320.172 95.3823C320.776 95.3268 321.371 95.1984 321.945 94.9999L322.132 94.9261L322.21 94.8826L322.262 94.8522V94.6654V94.1483C322.297 92.7839 322.375 91.4326 322.458 90.0813C322.627 87.383 322.827 84.689 323.031 81.9994L323.044 81.9603Z" fill="#231F20"/>
<path d="M325.504 60.0617C323.927 57.0202 321.111 53.9004 318.408 51.8061C318.174 51.6236 317.205 52.0798 317.335 52.1797C320.216 54.3922 322.612 57.1725 324.374 60.3485C324.505 60.6049 325.582 60.1921 325.504 60.0444V60.0617Z" fill="#231F20"/>
<path d="M298.529 95.9199C302.251 95.058 306.111 94.9781 309.865 95.6853C316.231 96.8498 323.001 95.2117 323.001 95.2117C323.001 95.2117 321.406 99.0006 310.478 97.0323C304.191 95.9025 299.233 97.6666 298.116 97.6666C297.482 97.6666 298.529 95.9199 298.529 95.9199Z" fill="#231F20"/>
<path d="M284.318 136L284.318 155L230.496 155" stroke="#C7C7C7" stroke-dasharray="2 2"/>
<rect x="0.5" y="0.5" width="349" height="209" rx="3.5" stroke="black" stroke-opacity="0.1"/>
</svg>
