<svg width="384" height="210" viewBox="0 0 384 210" fill="none" xmlns="http://www.w3.org/2000/svg">
<rect x="0.333008" width="383.667" height="210" rx="4" fill="white"/>
<path d="M196.722 104.619L191.683 105.475L189.849 105.838L183.339 106.997L180.466 107.572C179.24 107.883 177.989 108.085 176.727 108.176C176.304 108.176 176.385 107.944 176.727 107.672C177.169 107.316 177.692 107.073 178.249 106.967C180.718 106.453 183.218 105.959 185.757 105.566C187.269 105.334 188.781 104.961 190.373 104.669L195.412 103.742L198.557 103.198L203.334 102.442C204.563 102.26 205.752 101.988 206.992 101.837L207.798 101.716C208.806 101.635 209.159 101.716 209.381 102.018C209.438 102.084 209.488 102.155 209.532 102.23C209.622 102.472 209.219 102.694 208.524 102.784L201.842 103.792L196.803 104.629L196.722 104.619Z" fill="#231F20"/>
<path d="M152.792 123.241C154.747 124.236 156.712 125.213 158.687 126.174L160.874 127.182L168.524 130.861C169.652 131.405 170.811 131.929 171.94 132.443C173.441 133.052 174.876 133.811 176.223 134.71C176.647 135.003 176.465 135.134 175.992 135.113C175.686 135.093 175.382 135.046 175.084 134.972C174.674 134.898 174.275 134.773 173.895 134.6C170.952 133.259 167.919 132.04 164.986 130.568C163.223 129.691 161.318 128.915 159.484 128.089C157.468 127.162 155.452 126.218 153.437 125.257L149.768 123.413C147.914 122.506 146.07 121.528 144.235 120.601C142.824 119.855 141.383 119.21 139.982 118.454C139.663 118.31 139.353 118.145 139.055 117.961C137.947 117.245 137.674 116.902 137.664 116.429C137.65 116.322 137.65 116.213 137.664 116.106C137.664 115.814 138.319 115.864 139.176 116.257C141.706 117.436 144.215 118.868 146.906 120.198C148.861 121.206 150.826 122.213 152.812 123.221L152.792 123.241Z" fill="#231F20"/>
<path d="M175.981 116.913L175.689 119.937C175.689 120.31 175.689 120.682 175.628 121.065L175.265 125.016C175.265 125.601 175.205 126.185 175.195 126.77C175.218 127.517 175.181 128.265 175.084 129.007C175.013 129.471 174.076 128.876 174.026 127.999C173.965 126.464 174.036 124.927 174.237 123.403C174.368 122.486 174.338 121.529 174.389 120.582L174.59 117.478L174.731 115.623C174.792 114.615 174.882 113.688 174.903 112.731C174.903 111.985 174.903 111.249 174.903 110.514C174.903 110.352 174.903 110.191 174.903 110.02C174.9 109.8 174.938 109.581 175.013 109.375C175.047 109.31 175.095 109.255 175.154 109.213C175.179 109.164 175.214 109.121 175.258 109.088C175.301 109.055 175.352 109.032 175.406 109.022C175.439 109.015 175.473 109.018 175.503 109.03C175.534 109.043 175.56 109.065 175.578 109.093C175.517 108.972 175.578 109.183 175.578 109.093C175.599 109.16 175.629 109.225 175.668 109.284C175.693 109.321 175.73 109.348 175.772 109.361C175.814 109.373 175.859 109.371 175.9 109.355C175.981 109.264 176.001 109.355 176.031 109.445C176.065 109.54 176.089 109.638 176.102 109.738C176.262 111.099 176.306 112.471 176.233 113.839C176.233 114.847 176.132 115.905 176.061 116.943L175.981 116.913Z" fill="#231F20"/>
<path d="M156.249 110.504C156.249 111.451 156.228 112.399 156.188 113.346V114.354L156.128 118.032C156.128 118.577 156.128 119.121 156.128 119.665C156.203 120.374 156.172 121.091 156.037 121.792C155.987 122.013 155.735 121.943 155.513 121.731C155.378 121.619 155.268 121.481 155.188 121.325C155.108 121.169 155.061 120.999 155.049 120.824C155.049 119.453 154.959 118.042 155.049 116.611C155.11 115.765 155.049 114.878 154.999 114.001C154.949 113.124 154.999 112.076 154.999 111.119V109.345L155.09 106.654C155.09 105.959 155.09 105.274 155.09 104.578C155.08 104.427 155.08 104.276 155.09 104.125C155.15 103.56 155.251 103.389 155.533 103.308L155.725 103.248C155.936 103.248 156.087 103.47 156.128 103.883C156.229 105.126 156.259 106.375 156.218 107.622L156.168 110.474L156.249 110.504Z" fill="#231F20"/>
<path d="M182.552 77.4191C183.247 77.2066 183.954 77.0316 184.668 76.8951C184.93 76.8346 185.172 76.7338 185.434 76.6935C186.351 76.5423 187.289 76.4718 188.206 76.3609C188.619 76.3105 189.022 76.2299 189.425 76.1694C189.948 76.0871 190.478 76.05 191.007 76.0586C191.149 76.0586 191.179 76.0586 191.007 76.0586C190.866 76.0586 190.675 76.3307 190.413 76.4919C189.52 77.1015 188.517 77.5327 187.46 77.7618C186.835 77.8727 186.23 78.1548 185.595 78.3161C184.961 78.4773 184.215 78.6587 183.519 78.82C183.096 78.9208 182.663 79.0216 182.26 79.1425C182.005 79.1952 181.763 79.2942 181.544 79.4348C181.363 79.6285 181.249 79.8762 181.222 80.1402C181.141 80.6038 181.222 81.148 181.151 81.6217V81.9644C181.127 82.19 181.069 82.4107 180.98 82.6194C180.98 82.6194 180.98 82.6698 180.98 82.6799C180.969 82.53 180.931 82.3832 180.869 82.2466C180.627 81.3496 179.861 80.5333 180.294 79.0417C180.404 78.7419 180.584 78.4724 180.818 78.2556C181.017 78.0755 181.241 77.9261 181.484 77.8122C181.834 77.6408 182.194 77.4894 182.562 77.3587L182.552 77.4191Z" fill="#231F20"/>
<path d="M173.169 90.7323H173.089H172.796L172.091 90.6819C171.906 90.6926 171.721 90.6926 171.537 90.6819C170.861 90.6819 170.136 90.4904 169.42 90.44C169.098 90.44 168.785 90.44 168.473 90.44C168.035 90.4607 167.598 90.3991 167.183 90.2586C167.062 90.1982 167.082 90.2586 167.183 90.1982C167.284 90.1377 167.435 89.8857 167.616 89.7144C167.883 89.3799 168.214 89.1023 168.589 88.898C168.965 88.6937 169.378 88.567 169.803 88.5252C170.299 88.4456 170.791 88.3379 171.275 88.2027C171.883 88.1229 172.5 88.1229 173.109 88.2027C173.658 88.257 174.17 88.5075 174.55 88.9082C174.934 89.4332 175.152 90.0618 175.175 90.7121C175.256 91.0996 175.283 91.4964 175.256 91.8913C175.256 91.982 175.256 92.0626 175.256 92.1533C175.256 92.4657 175.124 92.6068 175.135 92.6774C175.047 92.5793 174.949 92.4914 174.842 92.4153C174.57 92.1231 174.248 91.8006 173.945 91.5083C173.643 91.2161 173.411 90.9439 173.24 90.7625C173.187 90.7046 173.122 90.6597 173.048 90.6315H172.988C172.988 90.6315 172.988 90.6315 173.038 90.6315C173.102 90.5857 173.16 90.5315 173.21 90.4703C173.234 90.4433 173.255 90.4127 173.27 90.3796C173.27 90.4501 173.472 89.7648 173.381 90.0571V90.1175L173.31 90.3191C173.273 90.4614 173.246 90.6062 173.23 90.7525L173.169 90.7323Z" fill="#231F20"/>
<path d="M142.049 145.516C145.012 147.38 147.985 149.235 150.988 151.049C152.077 151.714 153.215 152.309 154.304 152.974L165.843 160.029C167.557 161.036 169.31 162.044 171.044 163.052C173.271 164.292 175.488 165.582 177.594 167.083C178.249 167.547 178.008 167.748 177.252 167.708C176.087 167.598 174.951 167.284 173.896 166.781C171.517 165.682 169.24 164.433 166.962 163.153C164.684 161.873 162.427 160.563 160.189 159.121C157.519 157.469 154.626 155.947 151.845 154.324C148.794 152.537 145.771 150.726 142.774 148.892C140.91 147.763 139.056 146.625 137.201 145.456C136.506 145.022 135.81 144.569 135.115 144.105C134.762 143.883 134.42 143.641 134.107 143.4C133.916 143.248 133.623 143.077 133.422 142.896L133.251 142.755C133.226 142.685 133.206 142.615 133.19 142.543C133.144 142.404 133.107 142.263 133.079 142.12C132.99 141.653 132.926 141.182 132.888 140.709L132.787 139.459L132.606 136.99C132.414 134.45 132.112 131.951 131.971 129.451C131.971 128.897 131.89 128.353 131.87 127.789C131.816 127.048 131.874 126.304 132.041 125.581C132.154 125.197 132.366 124.85 132.656 124.574C132.746 124.466 132.848 124.368 132.958 124.281C133.12 124.181 133.261 124.342 133.452 124.715C133.729 125.244 133.914 125.816 133.996 126.408C134.339 128.635 134.621 130.923 134.843 133.241C135.065 135.559 135.186 137.927 135.407 140.225L135.518 141.233C136.173 141.706 136.949 142.17 137.665 142.644L142.139 145.425L142.049 145.516Z" fill="#231F20"/>
<path d="M178.382 153.607V157.114C178.382 157.547 178.442 157.97 178.442 158.394L178.382 162.929C178.382 163.604 178.382 164.269 178.462 164.944C178.603 165.812 178.603 166.697 178.462 167.565C178.402 167.847 177.999 167.766 177.606 167.565C177.394 167.455 177.209 167.301 177.063 167.113C176.917 166.925 176.813 166.708 176.759 166.476C176.553 164.758 176.489 163.025 176.567 161.296C176.589 160.223 176.545 159.149 176.436 158.081L176.346 154.534V152.347C176.346 151.248 176.346 150.13 176.346 149.041C176.346 148.184 176.164 147.348 176.154 146.481C176.154 146.29 176.154 146.108 176.154 145.917C176.154 145.201 176.366 144.909 176.809 144.909C176.908 144.879 177.009 144.859 177.112 144.849C177.454 144.849 177.716 145.141 177.807 145.615C177.968 146.33 178.14 147.076 178.24 147.842C178.341 148.608 178.392 149.384 178.452 150.16L178.553 151.913V153.677L178.382 153.607Z" fill="#231F20"/>
<path d="M241.559 153.748L226.442 157.527C224.608 157.98 222.794 158.535 220.96 158.938L201.489 163.473L192.872 165.559C189.232 166.555 185.528 167.299 181.786 167.787C180.566 167.857 180.778 167.494 181.635 166.95C183.086 166.083 184.664 165.447 186.311 165.065C193.739 163.191 201.196 161.367 208.765 159.694C213.29 158.686 217.926 157.366 222.522 156.177L237.639 152.306C240.753 151.5 243.857 150.694 246.941 149.837L248.805 149.303L249.33 149.152C249.39 149.152 249.551 149.152 249.521 149.021V148.759C249.521 145.282 249.521 141.805 249.521 138.358C249.521 134.599 249.37 130.921 249.4 127.192C249.4 126.365 249.4 125.559 249.4 124.733C249.561 121.709 249.874 120.701 250.579 120.087C250.723 119.941 250.885 119.815 251.063 119.714C251.587 119.492 251.819 120.722 251.839 122.949C251.93 129.52 251.95 136.494 251.95 143.498C251.95 145.514 251.95 147.56 251.95 149.636L251.779 150.15L251.688 150.402V150.523V150.593C251.869 150.724 251.436 150.412 251.476 150.452L251.204 150.875C251.133 151.037 250.902 151.097 250.761 151.208C250.39 151.364 250.01 151.496 249.622 151.601L248.997 151.782L246.538 152.458L241.63 153.778L241.559 153.748Z" fill="#231F20"/>
<path d="M221.484 125.097L210.126 127.546L205.974 128.553L191.401 131.768C189.254 132.252 187.088 132.776 184.971 133.33C182.23 133.985 179.499 134.731 176.717 135.195C175.861 135.356 175.931 135.195 176.596 134.852C176.919 134.651 177.403 134.379 177.987 134.086C178.628 133.729 179.303 133.439 180.003 133.22L184.135 131.94C185.515 131.526 186.916 131.164 188.307 130.801C191.102 130.055 193.917 129.383 196.753 128.785C200.159 128.07 203.636 127.102 207.093 126.276L218.501 123.615L225.556 121.993C229.103 121.176 232.681 120.39 236.188 119.533C238.919 118.878 241.57 118.112 244.251 117.417C244.845 117.256 245.42 117.084 246.024 116.943C246.817 116.736 247.635 116.645 248.453 116.671C248.866 116.671 249.272 116.786 249.622 117.004C249.758 117.079 249.886 117.167 250.005 117.266C250.288 117.548 249.451 118.092 247.879 118.727C243.142 120.239 238.063 121.428 232.943 122.587L221.504 125.147L221.484 125.097Z" fill="#231F20"/>
<path d="M150.121 122.75C152.137 123.792 154.189 124.8 156.279 125.774L158.556 126.782L166.548 130.601C167.738 131.166 168.937 131.7 170.126 132.234C171.704 132.856 173.208 133.65 174.611 134.602C175.044 134.915 174.833 135.076 174.319 135.086C173.981 135.083 173.644 135.052 173.311 134.995C172.876 134.939 172.452 134.82 172.051 134.643C169.028 133.272 165.803 132.032 162.739 130.46C160.905 129.533 158.899 128.767 156.984 127.9C154.878 126.953 152.772 125.975 150.685 124.978L146.826 123.113C144.891 122.166 142.966 121.098 141.051 120.17C139.569 119.394 138.027 118.739 136.596 117.923C136.274 117.752 135.941 117.59 135.588 117.389C134.45 116.593 134.188 116.19 134.238 115.655C134.227 115.535 134.227 115.413 134.238 115.293C134.339 114.95 134.994 115 135.861 115.424C138.461 116.673 141.111 118.155 143.863 119.546C145.878 120.553 147.954 121.652 150.02 122.67L150.121 122.75Z" fill="#231F20"/>
<path d="M237.116 107.542C237.116 108.549 237.116 109.618 237.116 110.666C237.116 111.039 237.197 111.412 237.207 111.795C237.207 113.145 237.207 114.486 237.207 115.826C237.213 116.422 237.25 117.017 237.318 117.61C237.443 118.371 237.443 119.147 237.318 119.908C237.318 120.149 236.955 120.129 236.602 119.908C236.198 119.717 235.884 119.378 235.725 118.96C235.516 118.217 235.391 117.453 235.352 116.683C235.287 115.908 235.287 115.129 235.352 114.354C235.358 113.4 235.294 112.447 235.161 111.502L234.959 108.398L234.889 106.453C234.889 105.445 234.889 104.488 234.778 103.51C234.717 102.755 234.526 102.019 234.435 101.263C234.425 101.099 234.425 100.934 234.435 100.769C234.423 100.635 234.423 100.5 234.435 100.366C234.481 100.27 234.543 100.181 234.617 100.104C234.744 99.9641 234.908 99.8628 235.09 99.8118L235.342 99.7211C235.604 99.6606 235.897 99.9125 236.209 100.346C236.33 100.678 236.461 101.001 236.572 101.354C236.683 101.706 236.693 102.019 236.753 102.362C236.854 103.037 236.914 103.732 236.975 104.377C237.055 105.385 237.116 106.453 237.156 107.491L237.116 107.542Z" fill="#231F20"/>
<path d="M203.516 105.225C199.485 105.931 195.454 106.626 191.422 107.372L187.049 108.279C184.489 108.793 181.899 109.287 179.409 109.942L178.472 110.174L177.676 110.436L177.484 110.496H177.384C177.384 110.496 177.384 110.557 177.384 110.587V110.789V111.141L177.182 115.072C177.071 117.4 177.011 119.748 176.97 122.056C176.97 125.079 176.97 128.022 176.698 130.985C176.567 132.829 174.995 130.471 174.965 127.024C174.965 124.001 174.965 120.978 175.076 117.904C175.076 116.382 175.187 114.88 175.267 113.338L175.408 111.04V110.708C175.422 110.544 175.463 110.384 175.529 110.234C175.602 109.945 175.707 109.664 175.842 109.398L175.741 109.277L175.821 109.206L175.993 109.065C176.105 108.955 176.244 108.875 176.396 108.833L177.232 108.551C179.087 108.007 180.901 107.543 182.745 107.14C184.589 106.737 186.434 106.263 188.268 105.891C192.299 105.054 196.33 104.298 200.422 103.542L207.9 102.172C211.679 101.466 215.479 100.791 219.198 99.9949C222.09 99.3801 224.902 98.6343 227.724 97.9188L229.578 97.4149C231.906 96.8505 232.602 96.7396 233.297 97.1428C233.452 97.2115 233.598 97.2996 233.73 97.4048C234.073 97.7374 233.226 98.3421 231.523 98.9467C226.323 100.613 221.025 101.959 215.66 102.978C211.629 103.794 207.598 104.56 203.496 105.326L203.516 105.225Z" fill="#231F20"/>
<path d="M184.75 90.0444L195.11 88.3311C196.37 88.1296 197.619 87.8675 198.879 87.676C201.116 87.3435 203.354 87.0411 205.611 86.7892C206.74 86.6884 207.869 86.5775 209.038 86.5574H209.925H210.489C210.7 86.5821 210.909 86.6226 211.114 86.6783C211.648 86.6279 211.668 87.1822 211.829 87.5551C211.89 87.7466 212.001 87.9784 212.031 88.1296L212.132 88.5629C212.533 90.5525 212.713 92.5806 212.666 94.6098C212.666 97.1797 212.545 99.7093 212.535 102.209C212.535 102.995 212.233 102.924 211.87 102.279C211.354 101.25 211.062 100.124 211.013 98.9736C210.922 96.3432 210.902 93.7733 210.67 91.3142C210.61 90.7096 210.509 90.1049 210.398 89.5203C210.338 89.2281 210.257 88.9358 210.187 88.6536C210.187 88.5831 210.187 88.573 210.187 88.5226H209.179C208.564 88.5226 207.929 88.5831 207.284 88.6335C204.261 88.8653 201.026 89.5304 197.881 90.0746L187.501 91.9391L181.101 93.0981C177.876 93.6927 174.621 94.247 171.426 94.8617C168.927 95.3354 166.518 95.9502 164.039 96.4037C163.495 96.5146 162.961 96.6254 162.406 96.706C161.68 96.8516 160.938 96.9024 160.199 96.8572C159.817 96.8128 159.461 96.6385 159.191 96.3634C159.066 96.2648 158.954 96.1495 158.859 96.0207C158.627 95.6478 159.403 95.1439 160.874 94.7811C165.188 93.7128 169.794 92.8159 174.44 91.9391C177.755 91.2639 181.263 90.5886 184.729 89.9839L184.75 90.0444Z" fill="#231F20"/>
<path d="M157.599 109.747L157.498 113.103C157.498 113.516 157.498 113.919 157.498 114.332L157.317 118.656C157.317 119.301 157.317 119.946 157.317 120.581C157.41 121.416 157.362 122.261 157.176 123.08C157.105 123.352 156.742 123.252 156.39 123C156.2 122.883 156.039 122.726 155.919 122.54C155.799 122.353 155.722 122.142 155.694 121.921C155.629 120.275 155.66 118.626 155.785 116.983C155.839 115.976 155.839 114.967 155.785 113.96V110.573V108.487C155.785 107.479 155.785 106.371 155.785 105.323C155.785 104.506 155.644 103.71 155.654 102.894C155.654 102.712 155.654 102.531 155.654 102.35C155.704 101.674 155.845 101.463 156.259 101.342C156.359 101.342 156.45 101.342 156.551 101.281C156.863 101.281 157.105 101.543 157.196 102.007C157.333 102.724 157.434 103.447 157.498 104.174C157.498 104.909 157.569 105.655 157.579 106.401C157.579 107.52 157.579 108.648 157.579 109.767L157.599 109.747Z" fill="#231F20"/>
<path d="M149.417 101.595L149.296 106.11C149.296 106.655 149.296 107.199 149.296 107.753L149.084 113.558C149.084 114.415 149.084 115.281 149.084 116.138C149.206 117.253 149.172 118.379 148.983 119.484C148.893 119.837 148.479 119.716 148.086 119.393C147.863 119.223 147.677 119.007 147.542 118.761C147.407 118.514 147.324 118.242 147.3 117.962C147.215 115.738 147.245 113.511 147.391 111.29C147.512 109.94 147.391 108.549 147.391 107.169V102.623V99.8216C147.391 98.4107 147.391 96.9896 147.391 95.5888C147.391 94.4903 147.23 93.422 147.22 92.3335C147.22 92.0917 147.22 91.8498 147.22 91.6079C147.22 90.711 147.441 90.4086 147.905 90.2675C148.009 90.2234 148.117 90.1896 148.228 90.1667C148.58 90.1667 148.852 90.5094 148.943 91.1746C149.084 92.1219 149.256 93.0894 149.306 94.0871C149.356 95.0849 149.397 96.1028 149.417 97.1106C149.417 98.6122 149.417 100.134 149.417 101.646V101.595Z" fill="#231F20"/>
<path d="M176.9 83.6664L170.057 84.8053L167.577 85.2991L158.769 86.8209C157.469 87.0527 156.169 87.3349 154.889 87.6271C153.257 88.0588 151.601 88.3953 149.931 88.6349C148.923 88.7559 149.931 87.1635 151.795 86.6999C155.131 85.8937 158.497 85.1681 161.924 84.6339C163.939 84.3316 166.076 83.7975 168.162 83.3943L175.045 82.1043L179.288 81.3384C181.435 80.9554 183.591 80.6128 185.708 80.1895C187.361 79.867 188.953 79.4336 190.586 79.0708C190.938 78.9902 191.291 78.8894 191.654 78.8189C192.994 78.5669 193.448 78.6374 193.821 79.1414C193.915 79.2516 193.999 79.3696 194.073 79.4941C194.264 79.9073 193.77 80.3407 192.813 80.6228C189.846 81.4196 186.839 82.0555 183.803 82.5276L176.91 83.7168L176.9 83.6664Z" fill="#231F20"/>
<path d="M182.531 76.279L185.142 75.8758C185.464 75.8255 185.766 75.7348 186.089 75.6944L189.435 75.3115C189.939 75.251 190.443 75.1502 190.916 75.0797C191.557 74.9299 192.216 74.8789 192.871 74.9285C193.093 74.9285 193.043 75.2107 192.871 75.4727C192.712 75.7734 192.446 76.0035 192.126 76.1177C190.895 76.4588 189.631 76.6715 188.356 76.7526C187.574 76.8493 186.8 77.0008 186.039 77.2062L183.489 77.7302C182.965 77.8411 182.481 77.962 181.947 78.1031L181.231 78.3148C181.147 78.3377 181.065 78.3716 180.989 78.4155C180.909 78.476 180.989 78.5768 180.929 78.6574V79.1008C180.968 79.7237 181.049 80.3432 181.171 80.9552C181.203 81.0811 181.227 81.2091 181.241 81.3382C181.241 81.5801 181.241 81.7212 181.12 81.832C180.956 81.9393 180.781 82.0272 180.596 82.094L180.334 82.2251C180.263 82.2639 180.183 82.2842 180.102 82.2842C180.021 82.2842 179.942 82.2639 179.871 82.2251C179.689 82.1344 179.437 81.9731 179.397 81.7514C179.196 81.2272 179.093 80.6702 179.095 80.1087C179.095 79.8466 179.095 79.5745 179.095 79.3024V78.9094V78.6171C179.084 78.4829 179.084 78.3481 179.095 78.214C179.108 78.0373 179.148 77.8638 179.216 77.7C179.427 77.5992 179.357 77.317 179.558 77.2263C179.72 77.0959 179.896 76.9843 180.082 76.8937C180.294 76.8232 180.496 76.7325 180.707 76.6821L181.09 76.5712C181.544 76.4503 181.987 76.3596 182.431 76.2689L182.531 76.279Z" fill="#231F20"/>
<path d="M174.248 89.2479C173.392 89.3184 172.515 89.4293 171.638 89.5502C171.316 89.5502 171.003 89.6913 170.63 89.7417C169.501 89.8929 168.363 90.0541 167.234 90.2557C166.73 90.3464 166.226 90.4774 165.752 90.5883C165.122 90.7773 164.473 90.8956 163.817 90.941C163.606 90.941 163.596 90.689 163.707 90.4069C163.768 90.2415 163.862 90.0901 163.983 89.962C164.104 89.8338 164.25 89.7315 164.412 89.6611C165.656 89.2011 166.953 88.8964 168.272 88.754C169.078 88.6633 169.864 88.3912 170.671 88.2199C171.477 88.0486 172.444 87.8772 173.341 87.7361L174.178 87.6152C174.545 87.559 174.915 87.5287 175.286 87.5245C175.528 87.4971 175.771 87.5579 175.972 87.6958C176.193 87.8067 176.203 88.0788 176.284 88.3106C176.415 89.0665 176.486 89.4192 176.586 89.9029C176.738 90.5379 176.979 91.1325 177.181 91.7674C177.24 91.9032 177.284 92.0452 177.312 92.1907C177.365 92.395 177.336 92.6121 177.231 92.7954C177.082 92.9468 176.893 93.0547 176.687 93.1078C176.596 93.1414 176.501 93.1617 176.405 93.1683C176.251 93.1724 176.099 93.1378 175.962 93.0675C175.8 92.9969 175.558 92.8961 175.498 92.7248C175.063 91.6619 174.804 90.5352 174.732 89.389H174.268L174.248 89.2479Z" fill="#231F20"/>
<path d="M221.999 149.034C219.983 149.477 218.058 149.87 216.083 150.253C215.367 150.384 214.662 150.586 213.936 150.707C212.666 150.929 211.387 151.13 210.107 151.301C209.435 151.396 208.79 151.476 208.172 151.543L207.164 151.624H206.66C206.519 151.624 206.196 151.624 205.985 151.624C205.78 151.617 205.576 151.583 205.38 151.523C205.33 151.532 205.279 151.532 205.229 151.523L205.138 151.412L204.937 151.181C204.697 150.835 204.514 150.454 204.392 150.052C204.22 149.445 204.129 148.818 204.12 148.187C204.094 147.441 204.115 146.694 204.181 145.95C204.251 145.234 204.372 144.539 204.433 143.854C204.433 143.441 204.785 143.42 205.168 143.793C205.672 144.349 205.971 145.06 206.015 145.809C206.075 146.565 206.015 147.28 206.015 147.945C206.026 148.26 206.059 148.573 206.116 148.883C206.134 149.023 206.164 149.161 206.206 149.296C206.201 149.356 206.201 149.417 206.206 149.477C206.206 149.477 206.206 149.538 206.206 149.558H206.368H206.62C207.325 149.487 208.051 149.407 208.786 149.356C210.581 149.122 212.361 148.786 214.118 148.349C216.133 147.945 218.038 147.542 219.983 147.089C221.182 146.817 222.382 146.524 223.561 146.202C225.34 145.755 227.08 145.162 228.761 144.428L229.184 144.196L229.436 144.015C229.511 143.964 229.569 143.891 229.602 143.807C229.634 143.722 229.64 143.629 229.618 143.541C229.618 143.43 229.567 142.957 229.527 142.634L229.406 141.626C229.406 141.334 229.285 141.052 229.235 140.77C229.084 139.702 229.235 139.48 229.709 139.026L230.021 138.694C230.333 138.311 231.029 138.694 231.482 139.702C231.734 140.366 231.897 141.061 231.966 141.768C231.966 142.12 232.047 142.463 232.067 142.775C232.093 143.222 232.093 143.669 232.067 144.116C232.051 144.435 231.965 144.747 231.815 145.029C231.666 145.311 231.456 145.557 231.2 145.748C230.943 145.955 230.67 146.14 230.384 146.303L229.84 146.575C229.184 146.889 228.511 147.165 227.824 147.401C225.808 148.076 223.853 148.55 221.888 149.054L221.999 149.034Z" fill="#231F20"/>
<path d="M133.341 137.817C133.341 137.817 128.191 136.295 125.057 138.754C122.275 140.931 133.603 152.259 156.803 156.23L133.835 142.292L133.341 137.817Z" fill="#231F20"/>
<path d="M218.712 124.06L208.564 126.367L204.885 127.275L191.864 130.318C189.929 130.782 188.004 131.326 186.11 131.79C183.661 132.394 181.232 133.09 178.743 133.543C177.977 133.694 178.047 133.543 178.632 133.241C178.934 133.069 179.357 132.828 179.871 132.555C180.456 132.237 181.07 131.977 181.706 131.779C184.155 130.963 186.624 130.197 189.123 129.542C191.622 128.887 194.162 128.222 196.662 127.678C199.685 127.002 202.809 126.116 205.893 125.34L216.052 122.85L222.341 121.349C225.505 120.583 228.7 119.857 231.834 119.071C234.273 118.456 236.641 117.761 239.05 117.116C239.574 116.965 240.058 116.813 240.622 116.682C241.329 116.492 242.057 116.394 242.789 116.39C243.143 116.391 243.491 116.485 243.797 116.662C243.92 116.718 244.035 116.789 244.14 116.874C244.402 117.116 243.646 117.6 242.245 118.174C238.012 119.555 233.467 120.663 228.891 121.732L218.733 124.1L218.712 124.06Z" fill="#231F20"/>
<path d="M196.098 94.7716L197.731 94.57C197.933 94.57 198.124 94.4894 198.316 94.4692L200.422 94.2274C200.73 94.1925 201.036 94.1421 201.339 94.0762C201.722 93.9611 202.119 93.9001 202.518 93.8948C202.77 93.8948 202.609 94.6909 202.176 94.832C201.392 95.065 200.583 95.207 199.767 95.2553C199.271 95.3015 198.78 95.3823 198.296 95.4972L196.663 95.7592L195.655 95.9205C195.091 96.0112 194.647 95.991 194.113 96.0918C193.728 96.1712 193.348 96.2721 192.974 96.3942L192.722 96.4647C192.41 96.5352 192.299 96.4647 192.178 96.1926C192.178 96.1321 192.178 96.0717 192.108 96.0011C192.078 95.8968 192.088 95.7851 192.137 95.6881C192.185 95.591 192.268 95.5157 192.37 95.477C193.052 95.1956 193.772 95.0157 194.506 94.9429C194.778 94.9429 195.111 94.9429 195.292 94.8724L196.088 94.7514L196.098 94.7716Z" fill="#231F20"/>
<path d="M192.671 100.739L195.583 100.336L196.591 100.134L200.34 99.5296C200.895 99.4389 201.449 99.3079 201.993 99.187C202.684 98.9957 203.388 98.8542 204.099 98.7637C204.553 98.7637 204.16 99.58 203.364 99.7715C201.948 100.165 200.507 100.461 199.05 100.658C198.173 100.759 197.276 101.001 196.39 101.162L193.457 101.676L191.643 101.989C190.726 102.14 189.809 102.281 188.912 102.462C188.206 102.603 187.531 102.805 186.846 102.976L186.392 103.087C185.828 103.208 185.626 103.168 185.455 102.906C185.41 102.847 185.373 102.782 185.344 102.714C185.243 102.503 185.445 102.281 185.858 102.14C187.107 101.741 188.384 101.434 189.678 101.223L192.61 100.719L192.671 100.739Z" fill="#231F20"/>
<rect x="42.833" y="104.5" width="44" height="44" stroke="#E5E5E5"/>
<rect x="46.333" y="108" width="37" height="37" fill="#231F20"/>
<path d="M67.7704 128.638L70.8406 133.132H70.8747L71.3107 133.913H65.2552L62.2257 128.638H67.7704Z" fill="white"/>
<path d="M71.3091 133.914L74.3335 128.639L68.2796 118.088H62.2257L71.3091 133.914Z" fill="white"/>
<path d="M59.1988 123.361H65.2527L59.2013 133.912L56.1719 128.638L59.1988 123.361Z" fill="white"/>
<path d="M65.833 99.5V77.5H158.833" stroke="#C7C7C7" stroke-dasharray="2 2"/>
<rect x="273.243" y="34.3802" width="69.7879" height="94.2396" fill="white" stroke="#E5E5E5" stroke-width="0.760417"/>
<path d="M288.045 122V115.071H290.105C290.573 115.071 290.978 115.16 291.319 115.337C291.667 115.514 291.936 115.764 292.126 116.087C292.316 116.409 292.411 116.792 292.411 117.235V119.826C292.411 120.263 292.316 120.646 292.126 120.975C291.936 121.298 291.667 121.551 291.319 121.734C290.978 121.911 290.573 122 290.105 122H288.045ZM289.231 120.908H290.105C290.446 120.908 290.718 120.814 290.921 120.624C291.123 120.428 291.225 120.162 291.225 119.826V117.235C291.225 116.906 291.123 116.647 290.921 116.457C290.718 116.261 290.446 116.163 290.105 116.163H289.231V120.908ZM297.77 122.095C297.327 122.095 296.941 122.013 296.612 121.848C296.289 121.677 296.039 121.44 295.862 121.136C295.691 120.826 295.606 120.462 295.606 120.045V117.026C295.606 116.609 295.691 116.248 295.862 115.944C296.039 115.634 296.289 115.397 296.612 115.233C296.941 115.062 297.327 114.976 297.77 114.976C298.219 114.976 298.605 115.062 298.928 115.233C299.251 115.397 299.497 115.634 299.668 115.944C299.845 116.248 299.934 116.606 299.934 117.017V120.045C299.934 120.462 299.845 120.826 299.668 121.136C299.497 121.44 299.251 121.677 298.928 121.848C298.605 122.013 298.219 122.095 297.77 122.095ZM297.77 121.051C298.093 121.051 298.336 120.965 298.501 120.795C298.665 120.617 298.748 120.367 298.748 120.045V117.026C298.748 116.697 298.665 116.447 298.501 116.277C298.336 116.106 298.093 116.02 297.77 116.02C297.447 116.02 297.204 116.106 297.039 116.277C296.875 116.447 296.792 116.697 296.792 117.026V120.045C296.792 120.367 296.875 120.617 297.039 120.795C297.21 120.965 297.454 121.051 297.77 121.051ZM305.397 122.095C304.955 122.095 304.565 122.013 304.23 121.848C303.901 121.677 303.645 121.44 303.461 121.136C303.284 120.826 303.195 120.462 303.195 120.045V117.026C303.195 116.602 303.284 116.239 303.461 115.935C303.645 115.631 303.901 115.397 304.23 115.233C304.565 115.062 304.955 114.976 305.397 114.976C305.847 114.976 306.233 115.062 306.555 115.233C306.884 115.397 307.141 115.631 307.324 115.935C307.508 116.239 307.599 116.602 307.599 117.026H306.404C306.404 116.697 306.315 116.447 306.138 116.277C305.967 116.106 305.72 116.02 305.397 116.02C305.075 116.02 304.825 116.106 304.648 116.277C304.47 116.447 304.382 116.694 304.382 117.017V120.045C304.382 120.367 304.47 120.617 304.648 120.795C304.825 120.965 305.075 121.051 305.397 121.051C305.72 121.051 305.967 120.965 306.138 120.795C306.315 120.617 306.404 120.367 306.404 120.045H307.599C307.599 120.456 307.508 120.817 307.324 121.127C307.141 121.437 306.884 121.677 306.555 121.848C306.233 122.013 305.847 122.095 305.397 122.095ZM312.968 122.095C312.493 122.095 312.082 122.016 311.734 121.858C311.386 121.699 311.117 121.475 310.927 121.184C310.744 120.886 310.649 120.538 310.643 120.14H311.829C311.829 120.424 311.93 120.649 312.133 120.814C312.342 120.972 312.623 121.051 312.977 121.051C313.319 121.051 313.585 120.972 313.775 120.814C313.971 120.655 314.069 120.437 314.069 120.159C314.069 119.925 313.999 119.722 313.86 119.551C313.727 119.374 313.534 119.254 313.281 119.191L312.484 118.972C311.94 118.833 311.519 118.583 311.222 118.222C310.93 117.862 310.785 117.425 310.785 116.913C310.785 116.52 310.874 116.179 311.051 115.887C311.228 115.596 311.478 115.372 311.801 115.214C312.13 115.055 312.516 114.976 312.958 114.976C313.629 114.976 314.161 115.15 314.553 115.498C314.945 115.84 315.145 116.302 315.151 116.884H313.965C313.965 116.612 313.876 116.4 313.699 116.248C313.522 116.09 313.272 116.011 312.949 116.011C312.639 116.011 312.398 116.084 312.228 116.229C312.057 116.375 311.971 116.58 311.971 116.846C311.971 117.087 312.035 117.292 312.161 117.463C312.294 117.628 312.484 117.745 312.731 117.814L313.556 118.042C314.107 118.181 314.528 118.431 314.819 118.792C315.11 119.146 315.255 119.586 315.255 120.111C315.255 120.504 315.161 120.852 314.971 121.155C314.781 121.453 314.515 121.684 314.173 121.848C313.832 122.013 313.43 122.095 312.968 122.095Z" fill="black"/>
<rect x="277.652" y="38.9427" width="60.2345" height="69.1979" fill="#FFEAEB" stroke="#E5E5E5" stroke-width="0.760417"/>
<path d="M324.633 61.069C324.444 60.9084 324.224 60.7898 323.985 60.7214C323.737 60.6348 323.481 60.5708 323.221 60.5302C322.691 60.442 322.155 60.3912 321.617 60.3782C320.535 60.3526 319.451 60.4034 318.376 60.5302C318.202 60.5607 318.115 59.4136 318.306 59.4222C319.436 59.4141 320.564 59.4867 321.683 59.6395C322.246 59.7148 322.804 59.8309 323.351 59.9871C323.631 60.0651 323.904 60.1654 324.168 60.2869C324.448 60.409 324.7 60.588 324.907 60.8127C325.093 61.0473 324.776 61.2081 324.633 61.069Z" fill="#231F20"/>
<path d="M290.611 78.0442L290.368 71.9611L290.259 69.7407C290.176 67.1337 290.12 64.5266 290.072 61.9196C290.072 60.7638 290.007 59.5993 289.968 58.4435C289.853 56.968 289.862 55.4855 289.994 54.0115C290.05 53.5509 290.185 53.6118 290.381 54.0115C290.504 54.2716 290.613 54.5385 290.706 54.811C290.816 55.1827 290.878 55.5666 290.893 55.9538C291.015 58.9562 291.076 61.9587 291.071 64.9959C291.071 66.8078 291.197 68.6936 291.271 70.5489L291.528 76.6668L291.732 80.4253C291.836 82.3241 291.932 84.236 292.071 86.1174C292.184 87.5817 292.353 89.0156 292.505 90.4625C292.544 90.7797 292.579 91.0882 292.614 91.4097C292.692 92.6003 292.649 92.9827 292.423 93.2564C292.375 93.3216 292.336 93.4041 292.297 93.4432C292.184 93.591 291.893 93.1 291.758 92.2353C291.323 89.6587 291.145 86.9256 290.95 84.1838C290.811 82.146 290.706 80.0951 290.598 78.0529L290.611 78.0442Z" fill="#231F20"/>
<path d="M323.377 81.9603C323.812 76.6332 324.246 71.3062 324.602 65.9834C324.663 65.0145 324.711 64.0412 324.741 63.0765C324.741 62.5942 324.772 62.1076 324.772 61.634C324.772 61.395 324.772 61.1604 324.772 60.9301C324.772 60.8171 324.772 60.6954 324.772 60.6129C324.779 60.5829 324.779 60.5516 324.772 60.5216L324.728 60.4825L324.637 60.4304C324.524 60.3718 324.406 60.3224 324.285 60.2826C324.015 60.1912 323.737 60.1215 323.455 60.0741C322.845 59.9802 322.23 59.9236 321.613 59.9046C321 59.8742 320.383 59.8655 319.762 59.8742L318.832 59.9003C318.372 59.9003 317.789 59.9611 317.281 59.9959L317.39 59.179L317.433 58.7749L317.468 58.4316L317.542 57.4757C317.585 56.8413 317.616 56.2026 317.637 55.5639C317.659 54.9251 317.676 54.2821 317.676 53.6477V53.1741V52.7656C317.681 52.6991 317.681 52.6323 317.676 52.5658C317.676 52.4745 317.581 52.5049 317.52 52.5006H317.381H317.068L316.36 52.518L315.03 52.5962L312.362 52.7569C309.321 52.9221 306.24 53.0611 303.203 53.0524C301.239 53.068 299.276 52.9708 297.324 52.7613C296.336 52.6488 295.358 52.4673 294.395 52.2182C293.38 51.987 292.432 51.5262 291.623 50.8712C291.514 50.772 291.412 50.6645 291.319 50.5496C291.264 50.4619 291.214 50.3704 291.171 50.2759C291.106 50.1238 291.11 50.0456 291.171 50.0282C291.232 50.0108 291.332 50.0282 291.471 50.1195L291.697 50.2542L292.01 50.3976C292.615 50.6739 293.251 50.8781 293.904 51.0059C294.726 51.171 295.703 51.3187 296.776 51.4751C298.48 51.7037 300.194 51.8357 301.912 51.8705C303.65 51.9183 305.388 51.9097 307.126 51.8705C308.865 51.8314 310.603 51.7576 312.341 51.6707L314.948 51.5273L316.251 51.4534L316.912 51.423H317.272H317.868C318.057 51.4233 318.241 51.4893 318.387 51.6097C318.534 51.7301 318.634 51.8975 318.671 52.0835C318.704 52.2922 318.726 52.5025 318.737 52.7135V53.0872C318.737 53.5782 318.737 54.0605 318.737 54.5428C318.737 55.3553 318.676 56.1635 318.628 56.9847C318.602 57.3932 318.571 57.8059 318.545 58.2187L318.506 58.6532L318.48 58.8444L319.08 58.8183C319.514 58.8183 319.901 58.7923 320.318 58.7923C321.152 58.7818 321.986 58.8166 322.817 58.8966C323.245 58.9374 323.67 59.0056 324.09 59.1008C324.311 59.1484 324.529 59.2123 324.741 59.292C324.998 59.3785 325.239 59.5061 325.454 59.67C325.522 59.7214 325.588 59.7765 325.65 59.8351L325.741 59.922C325.776 59.9481 325.767 60.0002 325.78 60.0393C325.821 60.1989 325.849 60.3617 325.863 60.526C325.863 60.7519 325.889 60.9605 325.893 61.1734C325.893 61.6079 325.893 62.0076 325.893 62.4204C325.802 65.1318 325.597 67.8127 325.406 70.5023L324.755 78.5581C324.494 81.8647 324.229 85.167 324.007 88.4693C323.925 89.7163 323.842 90.9677 323.777 92.2191C323.746 92.8448 323.716 93.4705 323.699 94.0918V94.5611V95.3693C323.699 95.3953 323.66 95.4084 323.642 95.4258L323.373 95.6343C323.288 95.7001 323.196 95.7569 323.099 95.8038C323.021 95.8429 322.943 95.8907 322.864 95.9211C321.596 96.4382 320.314 96.486 319.049 96.5511C317.785 96.6163 316.525 96.5511 315.278 96.4947C313.331 96.3904 311.419 96.2253 309.512 96.0601L306.662 95.7734C306.192 95.7256 305.706 95.6734 305.262 95.6561C304.819 95.6387 304.328 95.6561 303.868 95.6908C303.038 95.7343 302.234 95.8168 301.413 95.9298C299.892 96.1514 298.914 96.4164 298.21 96.5685C297.728 96.702 297.229 96.7649 296.729 96.7554C296.564 96.758 296.4 96.7479 296.238 96.7249C296.055 96.6728 296.238 96.486 296.759 96.2035C297.559 95.7991 298.401 95.4844 299.271 95.265C300.991 94.8247 302.757 94.5842 304.532 94.5481C304.758 94.5481 304.967 94.5481 305.215 94.5481C305.462 94.5481 305.693 94.5741 305.923 94.5915L307.252 94.7219L309.899 94.9956C311.663 95.1737 313.44 95.3345 315.217 95.4301C316.978 95.5513 318.746 95.5353 320.505 95.3823C321.109 95.3268 321.704 95.1984 322.278 94.9999L322.465 94.9261L322.543 94.8826L322.595 94.8522V94.6654V94.1483C322.63 92.7839 322.708 91.4326 322.791 90.0813C322.96 87.383 323.16 84.689 323.364 81.9994L323.377 81.9603Z" fill="#231F20"/>
<path d="M325.837 60.0617C324.26 57.0202 321.444 53.9004 318.741 51.8061C318.507 51.6236 317.538 52.0798 317.668 52.1797C320.549 54.3922 322.945 57.1725 324.707 60.3485C324.838 60.6049 325.915 60.1921 325.837 60.0444V60.0617Z" fill="#231F20"/>
<path d="M298.862 95.9199C302.584 95.058 306.444 94.9781 310.198 95.6853C316.564 96.8498 323.334 95.2117 323.334 95.2117C323.334 95.2117 321.739 99.0006 310.811 97.0323C304.524 95.9025 299.566 97.6666 298.449 97.6666C297.815 97.6666 298.862 95.9199 298.862 95.9199Z" fill="#231F20"/>
<path d="M312 136L312 155L253 155" stroke="#C7C7C7" stroke-dasharray="2 2"/>
<rect x="0.833008" y="0.5" width="382.667" height="209" rx="3.5" stroke="black" stroke-opacity="0.1"/>
</svg>
