<svg width="384" height="210" viewBox="0 0 384 210" fill="none" xmlns="http://www.w3.org/2000/svg">
<rect x="0.333374" width="383.667" height="210" rx="4" fill="white"/>
<rect x="0.833374" y="0.5" width="382.667" height="209" rx="3.5" stroke="black" stroke-opacity="0.1"/>
<path d="M196.723 104.619L191.684 105.475L189.85 105.838L183.339 106.997L180.467 107.572C179.241 107.883 177.99 108.085 176.728 108.176C176.305 108.176 176.386 107.944 176.728 107.672C177.17 107.316 177.693 107.073 178.25 106.967C180.719 106.453 183.219 105.959 185.758 105.566C187.27 105.334 188.782 104.961 190.374 104.669L195.413 103.742L198.557 103.198L203.334 102.442C204.564 102.26 205.753 101.988 206.993 101.837L207.799 101.716C208.807 101.635 209.16 101.716 209.381 102.018C209.438 102.084 209.489 102.155 209.533 102.23C209.623 102.472 209.22 102.694 208.525 102.784L201.843 103.792L196.804 104.629L196.723 104.619Z" fill="#231F20"/>
<path d="M152.792 123.241C154.747 124.236 156.712 125.213 158.688 126.174L160.875 127.182L168.524 130.86C169.653 131.405 170.812 131.929 171.94 132.443C173.441 133.051 174.876 133.811 176.223 134.71C176.647 135.003 176.465 135.134 175.992 135.113C175.686 135.093 175.382 135.046 175.085 134.972C174.674 134.898 174.275 134.772 173.895 134.599C170.953 133.259 167.919 132.04 164.986 130.568C163.223 129.691 161.318 128.915 159.484 128.089C157.468 127.162 155.452 126.218 153.437 125.257L149.768 123.413C147.914 122.506 146.07 121.528 144.236 120.601C142.825 119.855 141.383 119.21 139.983 118.454C139.663 118.31 139.354 118.145 139.055 117.96C137.947 117.245 137.675 116.902 137.665 116.429C137.65 116.322 137.65 116.213 137.665 116.106C137.665 115.814 138.32 115.864 139.176 116.257C141.706 117.436 144.215 118.867 146.906 120.198C148.861 121.206 150.827 122.213 152.812 123.221L152.792 123.241Z" fill="#231F20"/>
<path d="M175.982 116.913L175.689 119.937C175.689 120.309 175.689 120.682 175.629 121.065L175.266 125.016C175.266 125.6 175.206 126.185 175.196 126.77C175.219 127.517 175.182 128.265 175.085 129.007C175.014 129.47 174.077 128.876 174.027 127.999C173.966 126.464 174.037 124.926 174.238 123.403C174.369 122.486 174.339 121.529 174.389 120.582L174.591 117.477L174.732 115.623C174.792 114.615 174.883 113.688 174.903 112.731C174.903 111.985 174.903 111.249 174.903 110.514C174.903 110.352 174.903 110.191 174.903 110.02C174.901 109.8 174.938 109.581 175.014 109.375C175.047 109.31 175.096 109.255 175.155 109.213C175.179 109.164 175.215 109.121 175.259 109.088C175.302 109.055 175.353 109.032 175.407 109.022C175.44 109.015 175.473 109.018 175.504 109.03C175.535 109.043 175.561 109.065 175.579 109.092C175.518 108.972 175.579 109.183 175.579 109.092C175.599 109.16 175.63 109.225 175.669 109.284C175.694 109.321 175.73 109.348 175.773 109.361C175.815 109.373 175.86 109.371 175.901 109.355C175.982 109.264 176.002 109.355 176.032 109.445C176.066 109.54 176.09 109.638 176.103 109.737C176.263 111.099 176.307 112.471 176.234 113.839C176.234 114.847 176.133 115.905 176.062 116.943L175.982 116.913Z" fill="#231F20"/>
<path d="M156.249 110.504C156.249 111.451 156.229 112.399 156.189 113.346V114.354L156.129 118.032C156.129 118.577 156.129 119.121 156.129 119.665C156.203 120.374 156.173 121.091 156.038 121.791C155.987 122.013 155.735 121.943 155.514 121.731C155.379 121.619 155.268 121.481 155.189 121.325C155.109 121.169 155.062 120.999 155.05 120.824C155.05 119.453 154.959 118.042 155.05 116.611C155.111 115.765 155.05 114.878 155 114.001C154.949 113.124 155 112.076 155 111.119V109.345L155.09 106.654C155.09 105.959 155.09 105.273 155.09 104.578C155.081 104.427 155.081 104.275 155.09 104.124C155.151 103.56 155.252 103.389 155.534 103.308L155.725 103.248C155.937 103.248 156.088 103.469 156.129 103.883C156.23 105.126 156.26 106.375 156.219 107.622L156.169 110.474L156.249 110.504Z" fill="#231F20"/>
<path d="M182.552 77.419C183.248 77.2064 183.954 77.0315 184.669 76.8949C184.931 76.8344 185.173 76.7336 185.435 76.6933C186.352 76.5422 187.289 76.4716 188.206 76.3607C188.619 76.3104 189.023 76.2297 189.426 76.1693C189.949 76.0869 190.478 76.0498 191.008 76.0584C191.149 76.0584 191.179 76.0584 191.008 76.0584C190.867 76.0584 190.675 76.3305 190.413 76.4918C189.52 77.1013 188.517 77.5325 187.46 77.7616C186.836 77.8725 186.231 78.1547 185.596 78.3159C184.961 78.4772 184.215 78.6586 183.52 78.8198C183.097 78.9206 182.663 79.0214 182.26 79.1423C182.006 79.195 181.763 79.2941 181.545 79.4346C181.363 79.6284 181.25 79.8761 181.222 80.14C181.141 80.6036 181.222 81.1479 181.152 81.6215V81.9642C181.127 82.1898 181.069 82.4106 180.98 82.6193C180.98 82.6193 180.98 82.6697 180.98 82.6797C180.969 82.5298 180.932 82.3831 180.869 82.2464C180.627 81.3494 179.862 80.5331 180.295 79.0415C180.405 78.7417 180.584 78.4723 180.819 78.2554C181.017 78.0753 181.242 77.9259 181.484 77.812C181.835 77.6406 182.195 77.4892 182.562 77.3585L182.552 77.419Z" fill="#231F20"/>
<path d="M173.17 90.7322H173.09H172.797L172.092 90.6818C171.907 90.6926 171.722 90.6926 171.538 90.6818C170.862 90.6818 170.137 90.4904 169.421 90.44C169.099 90.44 168.786 90.44 168.474 90.44C168.036 90.4606 167.599 90.3991 167.184 90.2586C167.063 90.1981 167.083 90.2586 167.184 90.1981C167.285 90.1376 167.436 89.8857 167.617 89.7143C167.884 89.3799 168.214 89.1022 168.59 88.898C168.966 88.6937 169.379 88.5669 169.804 88.5251C170.3 88.4455 170.792 88.3378 171.276 88.2026C171.884 88.1228 172.501 88.1228 173.11 88.2026C173.659 88.257 174.171 88.5074 174.551 88.9081C174.935 89.4332 175.153 90.0617 175.176 90.7121C175.257 91.0995 175.284 91.4963 175.256 91.8912C175.256 91.9819 175.256 92.0626 175.256 92.1533C175.256 92.4657 175.125 92.6068 175.135 92.6773C175.048 92.5793 174.95 92.4913 174.843 92.4153C174.571 92.123 174.249 91.8005 173.946 91.5083C173.644 91.216 173.412 90.9439 173.241 90.7625C173.188 90.7045 173.122 90.6596 173.049 90.6315H172.989C172.989 90.6315 172.989 90.6315 173.039 90.6315C173.103 90.5856 173.161 90.5314 173.211 90.4702C173.235 90.4433 173.256 90.4127 173.271 90.3795C173.271 90.45 173.473 89.7647 173.382 90.057V90.1175L173.311 90.319C173.274 90.4613 173.247 90.6062 173.231 90.7524L173.17 90.7322Z" fill="#231F20"/>
<path d="M142.05 145.516C145.013 147.38 147.986 149.235 150.989 151.049C152.077 151.714 153.216 152.309 154.305 152.974L165.844 160.029C167.557 161.036 169.311 162.044 171.044 163.052C173.272 164.292 175.489 165.582 177.595 167.083C178.25 167.547 178.008 167.748 177.253 167.708C176.088 167.598 174.952 167.284 173.897 166.781C171.518 165.682 169.24 164.433 166.963 163.153C164.685 161.873 162.428 160.563 160.19 159.121C157.52 157.469 154.627 155.947 151.846 154.324C148.795 152.537 145.772 150.726 142.775 148.892C140.911 147.763 139.056 146.625 137.202 145.456C136.507 145.022 135.811 144.569 135.116 144.105C134.763 143.883 134.421 143.641 134.108 143.4C133.917 143.248 133.624 143.077 133.423 142.896L133.251 142.755C133.227 142.685 133.206 142.615 133.191 142.543C133.145 142.404 133.108 142.263 133.08 142.12C132.991 141.653 132.927 141.182 132.889 140.709L132.788 139.459L132.606 136.99C132.415 134.45 132.113 131.951 131.972 129.451C131.972 128.897 131.891 128.353 131.871 127.789C131.817 127.048 131.875 126.304 132.042 125.581C132.155 125.197 132.367 124.85 132.657 124.574C132.747 124.466 132.848 124.368 132.959 124.281C133.12 124.181 133.262 124.342 133.453 124.715C133.73 125.244 133.914 125.816 133.997 126.408C134.34 128.635 134.622 130.923 134.844 133.241C135.066 135.559 135.186 137.927 135.408 140.225L135.519 141.233C136.174 141.706 136.95 142.17 137.666 142.644L142.14 145.425L142.05 145.516Z" fill="#231F20"/>
<path d="M178.382 153.606V157.114C178.382 157.547 178.442 157.97 178.442 158.394L178.382 162.929C178.382 163.604 178.382 164.269 178.462 164.944C178.603 165.812 178.603 166.697 178.462 167.565C178.402 167.847 177.999 167.766 177.606 167.565C177.395 167.455 177.21 167.301 177.064 167.113C176.917 166.925 176.814 166.708 176.759 166.476C176.553 164.758 176.489 163.025 176.568 161.296C176.589 160.223 176.546 159.149 176.437 158.081L176.346 154.534V152.347C176.346 151.248 176.346 150.13 176.346 149.041C176.346 148.184 176.165 147.348 176.154 146.481C176.154 146.29 176.154 146.108 176.154 145.917C176.154 145.201 176.366 144.909 176.81 144.909C176.908 144.879 177.009 144.859 177.112 144.849C177.455 144.849 177.717 145.141 177.807 145.615C177.969 146.33 178.14 147.076 178.241 147.842C178.341 148.608 178.392 149.384 178.452 150.16L178.553 151.913V153.677L178.382 153.606Z" fill="#231F20"/>
<path d="M241.56 153.748L226.443 157.527C224.609 157.98 222.795 158.535 220.96 158.938L201.489 163.473L192.873 165.559C189.233 166.555 185.529 167.299 181.787 167.786C180.567 167.857 180.779 167.494 181.635 166.95C183.087 166.083 184.665 165.447 186.312 165.065C193.739 163.191 201.197 161.367 208.766 159.694C213.291 158.686 217.927 157.366 222.522 156.176L237.64 152.306C240.754 151.5 243.858 150.694 246.942 149.837L248.806 149.303L249.33 149.152C249.391 149.152 249.552 149.152 249.522 149.021V148.759C249.522 145.282 249.522 141.805 249.522 138.358C249.522 134.599 249.371 130.921 249.401 127.192C249.401 126.365 249.401 125.559 249.401 124.733C249.562 121.709 249.874 120.701 250.58 120.087C250.723 119.941 250.886 119.815 251.064 119.714C251.588 119.492 251.82 120.722 251.84 122.949C251.93 129.52 251.951 136.494 251.951 143.498C251.951 145.514 251.951 147.56 251.951 149.636L251.779 150.15L251.689 150.402V150.523V150.593C251.87 150.724 251.437 150.412 251.477 150.452L251.205 150.875C251.134 151.037 250.902 151.097 250.761 151.208C250.391 151.364 250.01 151.496 249.622 151.601L248.998 151.782L246.539 152.458L241.631 153.778L241.56 153.748Z" fill="#231F20"/>
<path d="M221.485 125.097L210.127 127.546L205.975 128.553L191.402 131.768C189.255 132.252 187.089 132.776 184.972 133.33C182.231 133.985 179.5 134.731 176.718 135.195C175.862 135.356 175.932 135.195 176.597 134.852C176.92 134.651 177.403 134.379 177.988 134.086C178.629 133.729 179.304 133.439 180.004 133.22L184.136 131.94C185.516 131.526 186.917 131.164 188.308 130.801C191.103 130.055 193.918 129.383 196.753 128.785C200.16 128.07 203.637 127.102 207.094 126.276L218.502 123.615L225.557 121.993C229.104 121.176 232.682 120.39 236.189 119.533C238.92 118.878 241.571 118.112 244.252 117.417C244.846 117.256 245.421 117.084 246.025 116.943C246.818 116.736 247.636 116.645 248.454 116.671C248.867 116.671 249.272 116.786 249.623 117.004C249.759 117.079 249.887 117.167 250.006 117.266C250.288 117.548 249.452 118.092 247.88 118.727C243.143 120.239 238.064 121.428 232.944 122.587L221.505 125.147L221.485 125.097Z" fill="#231F20"/>
<path d="M150.122 122.75C152.137 123.792 154.19 124.8 156.279 125.774L158.557 126.782L166.549 130.601C167.738 131.166 168.938 131.7 170.127 132.234C171.704 132.856 173.208 133.65 174.612 134.602C175.045 134.915 174.833 135.076 174.319 135.086C173.981 135.083 173.644 135.052 173.311 134.995C172.877 134.939 172.453 134.82 172.052 134.643C169.028 133.272 165.803 132.032 162.74 130.46C160.905 129.533 158.9 128.767 156.985 127.9C154.879 126.953 152.772 125.975 150.686 124.978L146.826 123.113C144.891 122.166 142.966 121.098 141.051 120.17C139.57 119.394 138.028 118.739 136.597 117.923C136.274 117.752 135.942 117.59 135.589 117.389C134.45 116.593 134.188 116.19 134.239 115.655C134.227 115.535 134.227 115.413 134.239 115.293C134.339 114.95 134.994 115 135.861 115.424C138.461 116.673 141.112 118.155 143.863 119.546C145.879 120.553 147.955 121.652 150.021 122.67L150.122 122.75Z" fill="#231F20"/>
<path d="M237.117 107.542C237.117 108.549 237.117 109.618 237.117 110.666C237.117 111.039 237.197 111.412 237.207 111.795C237.207 113.145 237.207 114.485 237.207 115.826C237.214 116.422 237.251 117.017 237.318 117.61C237.444 118.37 237.444 119.147 237.318 119.907C237.318 120.149 236.955 120.129 236.603 119.907C236.199 119.717 235.884 119.378 235.726 118.96C235.517 118.217 235.392 117.453 235.353 116.682C235.287 115.908 235.287 115.129 235.353 114.354C235.359 113.4 235.295 112.447 235.162 111.502L234.96 108.398L234.889 106.453C234.889 105.445 234.889 104.488 234.779 103.51C234.718 102.755 234.527 102.019 234.436 101.263C234.426 101.098 234.426 100.934 234.436 100.769C234.423 100.635 234.423 100.5 234.436 100.366C234.482 100.27 234.543 100.181 234.617 100.104C234.745 99.964 234.909 99.8627 235.091 99.8117L235.343 99.721C235.605 99.6605 235.897 99.9125 236.21 100.346C236.331 100.678 236.462 101.001 236.573 101.354C236.683 101.706 236.693 102.019 236.754 102.361C236.855 103.037 236.915 103.732 236.976 104.377C237.056 105.385 237.117 106.453 237.157 107.491L237.117 107.542Z" fill="#231F20"/>
<path d="M203.516 105.225C199.485 105.931 195.454 106.626 191.423 107.372L187.049 108.279C184.489 108.793 181.899 109.287 179.409 109.942L178.472 110.174L177.676 110.436L177.485 110.496H177.384C177.384 110.496 177.384 110.557 177.384 110.587V110.788V111.141L177.182 115.072C177.071 117.4 177.011 119.748 176.971 122.056C176.971 125.079 176.971 128.022 176.698 130.985C176.567 132.829 174.995 130.471 174.965 127.024C174.965 124.001 174.965 120.977 175.076 117.904C175.076 116.382 175.187 114.88 175.267 113.338L175.408 111.04V110.708C175.422 110.544 175.463 110.384 175.529 110.234C175.602 109.945 175.707 109.664 175.842 109.398L175.741 109.277L175.822 109.206L175.993 109.065C176.105 108.955 176.244 108.875 176.396 108.833L177.233 108.551C179.087 108.007 180.901 107.543 182.745 107.14C184.59 106.737 186.434 106.263 188.268 105.89C192.299 105.054 196.331 104.298 200.422 103.542L207.9 102.172C211.68 101.466 215.479 100.791 219.198 99.9948C222.09 99.38 224.902 98.6342 227.724 97.9187L229.578 97.4148C231.906 96.8504 232.602 96.7395 233.297 97.1426C233.452 97.2114 233.598 97.2995 233.731 97.4047C234.073 97.7373 233.227 98.3419 231.523 98.9466C226.323 100.613 221.025 101.959 215.66 102.978C211.629 103.794 207.598 104.56 203.496 105.326L203.516 105.225Z" fill="#231F20"/>
<path d="M184.75 90.0443L195.111 88.3311C196.371 88.1295 197.62 87.8675 198.88 87.676C201.117 87.3434 203.355 87.0411 205.612 86.7891C206.741 86.6883 207.87 86.5775 209.039 86.5573H209.926H210.49C210.701 86.5821 210.91 86.6225 211.115 86.6783C211.649 86.6279 211.669 87.1822 211.83 87.555C211.891 87.7465 212.002 87.9783 212.032 88.1295L212.133 88.5629C212.534 90.5525 212.713 92.5805 212.667 94.6097C212.667 97.1797 212.546 99.7093 212.536 102.209C212.536 102.995 212.233 102.924 211.871 102.279C211.355 101.25 211.063 100.124 211.014 98.9736C210.923 96.3432 210.903 93.7732 210.671 91.3142C210.611 90.7095 210.51 90.1048 210.399 89.5203C210.339 89.228 210.258 88.9357 210.188 88.6536C210.188 88.583 210.188 88.5729 210.188 88.5225H209.18C208.565 88.5225 207.93 88.583 207.285 88.6334C204.262 88.8652 201.027 89.5304 197.882 90.0746L187.502 91.939L181.102 93.098C177.877 93.6926 174.622 94.2469 171.427 94.8617C168.928 95.3354 166.519 95.9501 164.04 96.4036C163.496 96.5145 162.962 96.6254 162.407 96.706C161.681 96.8516 160.939 96.9024 160.2 96.8572C159.818 96.8127 159.462 96.6384 159.192 96.3633C159.066 96.2647 158.955 96.1494 158.86 96.0207C158.628 95.6478 159.404 95.1439 160.875 94.7811C165.189 93.7128 169.794 92.8158 174.44 91.939C177.756 91.2638 181.263 90.5886 184.73 89.9839L184.75 90.0443Z" fill="#231F20"/>
<path d="M157.6 109.747L157.499 113.103C157.499 113.516 157.499 113.919 157.499 114.332L157.317 118.656C157.317 119.301 157.317 119.946 157.317 120.581C157.411 121.416 157.363 122.261 157.176 123.08C157.106 123.352 156.743 123.252 156.39 123C156.201 122.883 156.04 122.726 155.92 122.54C155.799 122.353 155.723 122.142 155.695 121.921C155.63 120.275 155.66 118.626 155.786 116.983C155.839 115.976 155.839 114.967 155.786 113.959V110.573V108.487C155.786 107.479 155.786 106.371 155.786 105.323C155.786 104.506 155.645 103.71 155.655 102.894C155.655 102.712 155.655 102.531 155.655 102.349C155.705 101.674 155.846 101.463 156.259 101.342C156.36 101.342 156.451 101.342 156.552 101.281C156.864 101.281 157.106 101.543 157.197 102.007C157.334 102.723 157.435 103.447 157.499 104.174C157.499 104.909 157.569 105.655 157.58 106.401C157.58 107.52 157.58 108.648 157.58 109.767L157.6 109.747Z" fill="#231F20"/>
<path d="M149.417 101.595L149.296 106.11C149.296 106.654 149.296 107.199 149.296 107.753L149.085 113.558C149.085 114.415 149.085 115.281 149.085 116.138C149.206 117.252 149.172 118.379 148.984 119.484C148.893 119.837 148.48 119.716 148.087 119.393C147.863 119.223 147.678 119.007 147.542 118.761C147.407 118.514 147.325 118.242 147.301 117.962C147.215 115.738 147.246 113.511 147.391 111.29C147.512 109.94 147.391 108.549 147.391 107.168V102.623V99.8214C147.391 98.4105 147.391 96.9895 147.391 95.5886C147.391 94.4901 147.23 93.4218 147.22 92.3334C147.22 92.0915 147.22 91.8496 147.22 91.6077C147.22 90.7108 147.442 90.4084 147.905 90.2673C148.009 90.2232 148.117 90.1895 148.228 90.1666C148.581 90.1666 148.853 90.5092 148.943 91.1744C149.085 92.1217 149.256 93.0892 149.306 94.087C149.357 95.0847 149.397 96.1026 149.417 97.1104C149.417 98.612 149.417 100.134 149.417 101.646V101.595Z" fill="#231F20"/>
<path d="M176.9 83.6663L170.057 84.8051L167.578 85.299L158.769 86.8208C157.469 87.0526 156.169 87.3347 154.889 87.627C153.257 88.0587 151.602 88.3952 149.931 88.6348C148.923 88.7558 149.931 87.1634 151.795 86.6998C155.131 85.8936 158.497 85.168 161.924 84.6338C163.939 84.3315 166.076 83.7973 168.162 83.3942L175.046 82.1042L179.288 81.3383C181.435 80.9553 183.592 80.6126 185.708 80.1894C187.361 79.8669 188.953 79.4335 190.586 79.0707C190.939 78.9901 191.292 78.8893 191.654 78.8187C192.995 78.5668 193.448 78.6373 193.821 79.1412C193.915 79.2514 193.999 79.3695 194.073 79.494C194.265 79.9072 193.771 80.3405 192.813 80.6227C189.847 81.4195 186.839 82.0554 183.803 82.5275L176.91 83.7167L176.9 83.6663Z" fill="#231F20"/>
<path d="M182.532 76.2789L185.143 75.8758C185.465 75.8254 185.767 75.7347 186.09 75.6944L189.436 75.3114C189.94 75.2509 190.444 75.1502 190.917 75.0796C191.557 74.9299 192.217 74.8789 192.872 74.9284C193.094 74.9284 193.044 75.2106 192.872 75.4727C192.713 75.7733 192.447 76.0035 192.127 76.1177C190.896 76.4587 189.632 76.6715 188.357 76.7526C187.575 76.8492 186.801 77.0008 186.039 77.2061L183.49 77.7302C182.966 77.841 182.482 77.962 181.948 78.103L181.232 78.3147C181.148 78.3376 181.066 78.3715 180.99 78.4155C180.91 78.4759 180.99 78.5767 180.93 78.6573V79.1008C180.969 79.7236 181.05 80.3432 181.172 80.9552C181.204 81.081 181.228 81.209 181.242 81.3381C181.242 81.58 181.242 81.7211 181.121 81.832C180.957 81.9392 180.782 82.0272 180.597 82.094L180.335 82.225C180.264 82.2638 180.184 82.2842 180.103 82.2842C180.022 82.2842 179.943 82.2638 179.872 82.225C179.69 82.1343 179.438 81.973 179.398 81.7513C179.197 81.2271 179.094 80.6701 179.096 80.1086C179.096 79.8466 179.096 79.5745 179.096 79.3023V78.9093V78.617C179.085 78.4829 179.085 78.3481 179.096 78.2139C179.109 78.0373 179.149 77.8638 179.217 77.6999C179.428 77.5991 179.358 77.317 179.559 77.2263C179.721 77.0958 179.897 76.9843 180.083 76.8937C180.295 76.8231 180.497 76.7324 180.708 76.682L181.091 76.5712C181.545 76.4502 181.988 76.3595 182.432 76.2688L182.532 76.2789Z" fill="#231F20"/>
<path d="M174.249 89.2478C173.392 89.3184 172.515 89.4292 171.639 89.5501C171.316 89.5501 171.004 89.6912 170.631 89.7416C169.502 89.8928 168.363 90.0541 167.235 90.2556C166.731 90.3463 166.227 90.4773 165.753 90.5882C165.123 90.7772 164.474 90.8955 163.818 90.9409C163.606 90.9409 163.596 90.689 163.707 90.4068C163.768 90.2414 163.863 90.0901 163.984 89.9619C164.105 89.8338 164.251 89.7314 164.413 89.661C165.657 89.201 166.953 88.8964 168.273 88.754C169.079 88.6633 169.865 88.3912 170.671 88.2198C171.477 88.0485 172.445 87.8772 173.342 87.7361L174.178 87.6151C174.545 87.559 174.916 87.5287 175.287 87.5244C175.529 87.497 175.772 87.5579 175.972 87.6958C176.194 87.8066 176.204 88.0787 176.285 88.3105C176.416 89.0664 176.486 89.4191 176.587 89.9029C176.738 90.5378 176.98 91.1324 177.182 91.7673C177.241 91.9032 177.285 92.0451 177.313 92.1906C177.366 92.395 177.337 92.6121 177.232 92.7953C177.082 92.9467 176.894 93.0547 176.688 93.1077C176.597 93.1413 176.502 93.1617 176.406 93.1682C176.252 93.1724 176.099 93.1377 175.962 93.0674C175.801 92.9969 175.559 92.8961 175.499 92.7248C175.064 91.6618 174.805 90.5351 174.733 89.3889H174.269L174.249 89.2478Z" fill="#231F20"/>
<path d="M221.999 149.034C219.984 149.477 218.059 149.87 216.083 150.253C215.368 150.384 214.662 150.586 213.937 150.707C212.667 150.928 211.387 151.13 210.107 151.301C209.435 151.395 208.79 151.476 208.172 151.543L207.164 151.624H206.66C206.519 151.624 206.197 151.624 205.985 151.624C205.78 151.617 205.577 151.583 205.38 151.523C205.33 151.532 205.279 151.532 205.229 151.523L205.138 151.412L204.937 151.18C204.698 150.835 204.514 150.454 204.393 150.052C204.221 149.445 204.129 148.818 204.121 148.187C204.095 147.441 204.115 146.694 204.181 145.95C204.252 145.234 204.373 144.539 204.433 143.854C204.433 143.44 204.786 143.42 205.169 143.793C205.673 144.349 205.971 145.06 206.015 145.809C206.076 146.565 206.015 147.28 206.015 147.945C206.026 148.26 206.06 148.573 206.116 148.883C206.134 149.023 206.165 149.161 206.207 149.296C206.201 149.356 206.201 149.417 206.207 149.477C206.207 149.477 206.207 149.538 206.207 149.558H206.368H206.62C207.325 149.487 208.051 149.407 208.787 149.356C210.582 149.122 212.362 148.786 214.118 148.348C216.134 147.945 218.038 147.542 219.984 147.089C221.183 146.817 222.382 146.524 223.561 146.202C225.341 145.755 227.08 145.162 228.762 144.428L229.185 144.196L229.437 144.015C229.512 143.964 229.569 143.891 229.602 143.807C229.634 143.722 229.64 143.629 229.618 143.541C229.618 143.43 229.568 142.957 229.528 142.634L229.407 141.626C229.407 141.334 229.286 141.052 229.235 140.77C229.084 139.701 229.235 139.48 229.709 139.026L230.021 138.694C230.334 138.311 231.029 138.694 231.483 139.701C231.734 140.366 231.897 141.06 231.966 141.767C231.966 142.12 232.047 142.463 232.067 142.775C232.094 143.222 232.094 143.669 232.067 144.116C232.051 144.435 231.966 144.746 231.816 145.029C231.666 145.311 231.456 145.556 231.2 145.748C230.944 145.955 230.671 146.14 230.384 146.303L229.84 146.575C229.184 146.889 228.512 147.165 227.824 147.401C225.809 148.076 223.854 148.55 221.888 149.054L221.999 149.034Z" fill="#231F20"/>
<path d="M133.342 137.817C133.342 137.817 128.192 136.295 125.058 138.754C122.276 140.931 133.604 152.259 156.804 156.23L133.836 142.292L133.342 137.817Z" fill="#231F20"/>
<path d="M218.713 124.06L208.564 126.368L204.886 127.275L191.865 130.318C189.93 130.782 188.005 131.326 186.11 131.79C183.661 132.394 181.232 133.09 178.743 133.543C177.977 133.694 178.048 133.543 178.632 133.241C178.935 133.069 179.358 132.828 179.872 132.556C180.456 132.237 181.07 131.977 181.706 131.779C184.155 130.963 186.624 130.197 189.124 129.542C191.623 128.887 194.163 128.222 196.662 127.678C199.685 127.002 202.81 126.116 205.894 125.34L216.052 122.85L222.341 121.349C225.506 120.583 228.7 119.857 231.835 119.071C234.274 118.456 236.642 117.761 239.051 117.116C239.575 116.965 240.058 116.813 240.623 116.682C241.329 116.492 242.058 116.394 242.79 116.39C243.144 116.391 243.491 116.485 243.797 116.662C243.92 116.718 244.036 116.789 244.14 116.874C244.402 117.116 243.646 117.6 242.245 118.174C238.013 119.555 233.467 120.663 228.892 121.732L218.733 124.1L218.713 124.06Z" fill="#231F20"/>
<path d="M196.099 94.7714L197.732 94.5699C197.933 94.5699 198.125 94.4893 198.316 94.4691L200.423 94.2272C200.731 94.1924 201.037 94.1419 201.34 94.0761C201.722 93.961 202.119 93.9 202.519 93.8947C202.771 93.8947 202.61 94.6908 202.176 94.8319C201.392 95.0648 200.584 95.2069 199.768 95.2552C199.272 95.3014 198.78 95.3822 198.296 95.4971L196.664 95.7591L195.656 95.9204C195.091 96.0111 194.648 95.9909 194.114 96.0917C193.729 96.1711 193.349 96.272 192.975 96.394L192.723 96.4646C192.411 96.5351 192.3 96.4646 192.179 96.1925C192.179 96.132 192.179 96.0715 192.108 96.001C192.078 95.8967 192.089 95.785 192.137 95.688C192.186 95.5909 192.269 95.5156 192.37 95.4769C193.053 95.1955 193.772 95.0156 194.507 94.9428C194.779 94.9428 195.112 94.9428 195.293 94.8722L196.089 94.7513L196.099 94.7714Z" fill="#231F20"/>
<path d="M192.671 100.739L195.584 100.336L196.592 100.134L200.341 99.5297C200.895 99.439 201.449 99.308 201.994 99.187C202.685 98.9957 203.389 98.8543 204.1 98.7637C204.554 98.7637 204.16 99.5801 203.364 99.7715C201.948 100.165 200.507 100.461 199.051 100.658C198.174 100.759 197.277 101.001 196.39 101.162L193.458 101.676L191.643 101.989C190.726 102.14 189.809 102.281 188.912 102.462C188.207 102.604 187.532 102.805 186.846 102.976L186.393 103.087C185.828 103.208 185.627 103.168 185.455 102.906C185.411 102.847 185.374 102.782 185.345 102.714C185.244 102.503 185.445 102.281 185.859 102.14C187.108 101.741 188.384 101.435 189.678 101.223L192.611 100.719L192.671 100.739Z" fill="#231F20"/>
<rect x="42.8334" y="104.5" width="44" height="44" stroke="#E5E5E5"/>
<rect x="46.3334" y="108" width="37" height="37" fill="#231F20"/>
<path d="M67.7703 128.638L70.8405 133.132H70.8746L71.3106 133.913H65.255L62.2256 128.638H67.7703Z" fill="white"/>
<path d="M71.309 133.914L74.3334 128.639L68.2795 118.088H62.2256L71.309 133.914Z" fill="white"/>
<path d="M59.1987 123.361H65.2526L59.2012 133.912L56.1718 128.638L59.1987 123.361Z" fill="white"/>
<path d="M65.8334 99.5V77.5H158.833" stroke="#C7C7C7" stroke-dasharray="2 2"/>
<rect x="273.243" y="34.3802" width="69.7879" height="94.2396" fill="white" stroke="#E5E5E5" stroke-width="0.760417"/>
<path d="M288.045 122V115.071H290.105C290.573 115.071 290.978 115.16 291.32 115.337C291.668 115.514 291.937 115.764 292.127 116.087C292.316 116.409 292.411 116.792 292.411 117.235V119.826C292.411 120.263 292.316 120.646 292.127 120.975C291.937 121.298 291.668 121.551 291.32 121.734C290.978 121.911 290.573 122 290.105 122H288.045ZM289.232 120.908H290.105C290.447 120.908 290.719 120.814 290.921 120.624C291.124 120.428 291.225 120.162 291.225 119.826V117.235C291.225 116.906 291.124 116.647 290.921 116.457C290.719 116.261 290.447 116.163 290.105 116.163H289.232V120.908ZM297.77 122.095C297.327 122.095 296.941 122.013 296.612 121.848C296.29 121.677 296.04 121.44 295.863 121.136C295.692 120.826 295.606 120.462 295.606 120.045V117.026C295.606 116.609 295.692 116.248 295.863 115.944C296.04 115.634 296.29 115.397 296.612 115.233C296.941 115.062 297.327 114.976 297.77 114.976C298.22 114.976 298.606 115.062 298.928 115.233C299.251 115.397 299.498 115.634 299.669 115.944C299.846 116.248 299.934 116.606 299.934 117.017V120.045C299.934 120.462 299.846 120.826 299.669 121.136C299.498 121.44 299.251 121.677 298.928 121.848C298.606 122.013 298.22 122.095 297.77 122.095ZM297.77 121.051C298.093 121.051 298.337 120.965 298.501 120.795C298.666 120.617 298.748 120.367 298.748 120.045V117.026C298.748 116.697 298.666 116.447 298.501 116.277C298.337 116.106 298.093 116.02 297.77 116.02C297.448 116.02 297.204 116.106 297.039 116.277C296.875 116.447 296.793 116.697 296.793 117.026V120.045C296.793 120.367 296.875 120.617 297.039 120.795C297.21 120.965 297.454 121.051 297.77 121.051ZM305.398 122.095C304.955 122.095 304.566 122.013 304.23 121.848C303.901 121.677 303.645 121.44 303.462 121.136C303.284 120.826 303.196 120.462 303.196 120.045V117.026C303.196 116.602 303.284 116.239 303.462 115.935C303.645 115.631 303.901 115.397 304.23 115.233C304.566 115.062 304.955 114.976 305.398 114.976C305.847 114.976 306.233 115.062 306.556 115.233C306.885 115.397 307.141 115.631 307.325 115.935C307.508 116.239 307.6 116.602 307.6 117.026H306.404C306.404 116.697 306.315 116.447 306.138 116.277C305.967 116.106 305.721 116.02 305.398 116.02C305.075 116.02 304.825 116.106 304.648 116.277C304.471 116.447 304.382 116.694 304.382 117.017V120.045C304.382 120.367 304.471 120.617 304.648 120.795C304.825 120.965 305.075 121.051 305.398 121.051C305.721 121.051 305.967 120.965 306.138 120.795C306.315 120.617 306.404 120.367 306.404 120.045H307.6C307.6 120.456 307.508 120.817 307.325 121.127C307.141 121.437 306.885 121.677 306.556 121.848C306.233 122.013 305.847 122.095 305.398 122.095ZM312.968 122.095C312.494 122.095 312.082 122.016 311.734 121.858C311.386 121.699 311.118 121.475 310.928 121.184C310.744 120.886 310.649 120.538 310.643 120.14H311.829C311.829 120.424 311.931 120.649 312.133 120.814C312.342 120.972 312.623 121.051 312.978 121.051C313.32 121.051 313.585 120.972 313.775 120.814C313.971 120.655 314.069 120.437 314.069 120.159C314.069 119.925 314 119.722 313.861 119.551C313.728 119.374 313.535 119.254 313.282 119.191L312.484 118.972C311.94 118.833 311.519 118.583 311.222 118.222C310.931 117.862 310.785 117.425 310.785 116.913C310.785 116.52 310.874 116.179 311.051 115.887C311.228 115.596 311.478 115.372 311.801 115.214C312.13 115.055 312.516 114.976 312.959 114.976C313.63 114.976 314.161 115.15 314.553 115.498C314.946 115.84 315.145 116.302 315.151 116.884H313.965C313.965 116.612 313.876 116.4 313.699 116.248C313.522 116.09 313.272 116.011 312.949 116.011C312.639 116.011 312.399 116.084 312.228 116.229C312.057 116.375 311.972 116.58 311.972 116.846C311.972 117.087 312.035 117.292 312.162 117.463C312.294 117.628 312.484 117.745 312.731 117.814L313.557 118.042C314.107 118.181 314.528 118.431 314.819 118.792C315.11 119.146 315.256 119.586 315.256 120.111C315.256 120.504 315.161 120.852 314.971 121.155C314.781 121.453 314.515 121.684 314.174 121.848C313.832 122.013 313.43 122.095 312.968 122.095Z" fill="black"/>
<rect x="277.652" y="38.9427" width="60.2345" height="69.1979" fill="#FFEAEB" stroke="#E5E5E5" stroke-width="0.760417"/>
<path d="M324.633 61.069C324.444 60.9084 324.224 60.7898 323.986 60.7214C323.737 60.6348 323.481 60.5708 323.221 60.5302C322.691 60.442 322.155 60.3912 321.617 60.3782C320.535 60.3526 319.452 60.4034 318.376 60.5302C318.202 60.5607 318.115 59.4136 318.306 59.4222C319.436 59.4141 320.564 59.4867 321.683 59.6395C322.246 59.7148 322.804 59.8309 323.351 59.9871C323.631 60.0651 323.904 60.1654 324.168 60.2869C324.448 60.409 324.7 60.588 324.907 60.8127C325.094 61.0473 324.776 61.2081 324.633 61.069Z" fill="#231F20"/>
<path d="M290.611 78.0442L290.368 71.961L290.259 69.7407C290.177 67.1336 290.12 64.5266 290.072 61.9195C290.072 60.7637 290.007 59.5992 289.968 58.4434C289.853 56.968 289.862 55.4855 289.994 54.0114C290.051 53.5509 290.185 53.6117 290.381 54.0114C290.505 54.2715 290.613 54.5385 290.707 54.8109C290.816 55.1827 290.879 55.5665 290.894 55.9537C291.015 58.9562 291.076 61.9586 291.072 64.9958C291.072 66.8077 291.198 68.6935 291.272 70.5489L291.528 76.6668L291.732 80.4253C291.837 82.3241 291.932 84.2359 292.071 86.1173C292.184 87.5816 292.354 89.0155 292.506 90.4624C292.545 90.7796 292.58 91.0881 292.614 91.4097C292.693 92.6002 292.649 92.9826 292.423 93.2563C292.375 93.3215 292.336 93.4041 292.297 93.4432C292.184 93.5909 291.893 93.0999 291.758 92.2352C291.324 89.6586 291.146 86.9255 290.95 84.1838C290.811 82.1459 290.707 80.095 290.598 78.0528L290.611 78.0442Z" fill="#231F20"/>
<path d="M323.378 81.9603C323.812 76.6332 324.247 71.3061 324.603 65.9833C324.664 65.0144 324.712 64.0411 324.742 63.0765C324.742 62.5942 324.773 62.1075 324.773 61.6339C324.773 61.3949 324.773 61.1603 324.773 60.93C324.773 60.817 324.773 60.6954 324.773 60.6128C324.78 60.5828 324.78 60.5515 324.773 60.5216L324.729 60.4825L324.638 60.4303C324.525 60.3717 324.407 60.3223 324.286 60.2826C324.015 60.1912 323.738 60.1214 323.456 60.074C322.846 59.9801 322.231 59.9235 321.614 59.9046C321.001 59.8741 320.384 59.8655 319.763 59.8741L318.833 59.9002C318.372 59.9002 317.79 59.961 317.282 59.9958L317.39 59.1789L317.434 58.7748L317.469 58.4316L317.543 57.4757C317.586 56.8413 317.616 56.2025 317.638 55.5638C317.66 54.9251 317.677 54.282 317.677 53.6476V53.174V52.7656C317.681 52.699 317.681 52.6323 317.677 52.5657C317.677 52.4745 317.582 52.5049 317.521 52.5005H317.382H317.069L316.361 52.5179L315.031 52.5961L312.363 52.7569C309.322 52.922 306.241 53.061 303.204 53.0523C301.24 53.068 299.277 52.9708 297.325 52.7612C296.337 52.6488 295.359 52.4673 294.396 52.2181C293.381 51.9869 292.433 51.5261 291.624 50.8711C291.514 50.772 291.413 50.6645 291.32 50.5496C291.264 50.4618 291.215 50.3704 291.172 50.2758C291.107 50.1238 291.111 50.0455 291.172 50.0282C291.233 50.0108 291.333 50.0282 291.472 50.1194L291.698 50.2541L292.011 50.3975C292.616 50.6738 293.252 50.878 293.905 51.0058C294.726 51.1709 295.704 51.3187 296.777 51.4751C298.48 51.7036 300.195 51.8356 301.913 51.8705C303.651 51.9183 305.389 51.9096 307.127 51.8705C308.865 51.8314 310.603 51.7575 312.341 51.6706L314.948 51.5272L316.252 51.4534L316.912 51.4229H317.273H317.868C318.058 51.4233 318.242 51.4893 318.388 51.6096C318.535 51.73 318.635 51.8974 318.672 52.0834C318.705 52.2921 318.727 52.5024 318.737 52.7134V53.0871C318.737 53.5781 318.737 54.0604 318.737 54.5427C318.737 55.3552 318.677 56.1634 318.629 56.9847C318.603 57.3931 318.572 57.8059 318.546 58.2187L318.507 58.6532L318.481 58.8444L319.081 58.8183C319.515 58.8183 319.902 58.7922 320.319 58.7922C321.153 58.7818 321.987 58.8166 322.817 58.8965C323.246 58.9373 323.671 59.0055 324.091 59.1007C324.312 59.1483 324.53 59.2123 324.742 59.2919C324.999 59.3784 325.239 59.5061 325.455 59.6699C325.523 59.7213 325.588 59.7764 325.65 59.835L325.742 59.9219C325.776 59.948 325.768 60.0002 325.781 60.0393C325.822 60.1989 325.85 60.3617 325.863 60.5259C325.863 60.7519 325.889 60.9604 325.894 61.1733C325.894 61.6078 325.894 62.0076 325.894 62.4204C325.803 65.1317 325.598 67.8126 325.407 70.5022L324.755 78.5581C324.495 81.8647 324.23 85.1669 324.008 88.4692C323.925 89.7162 323.843 90.9676 323.778 92.219C323.747 92.8447 323.717 93.4704 323.7 94.0918V94.561V95.3692C323.7 95.3953 323.66 95.4083 323.643 95.4257L323.374 95.6343C323.288 95.7 323.197 95.7568 323.1 95.8037C323.022 95.8428 322.943 95.8906 322.865 95.921C321.596 96.4381 320.315 96.4859 319.05 96.5511C317.786 96.6163 316.526 96.5511 315.279 96.4946C313.332 96.3903 311.42 96.2252 309.513 96.0601L306.662 95.7733C306.193 95.7255 305.706 95.6734 305.263 95.656C304.82 95.6386 304.329 95.656 303.869 95.6908C303.039 95.7342 302.235 95.8168 301.414 95.9297C299.893 96.1513 298.915 96.4164 298.211 96.5685C297.729 96.7019 297.23 96.7649 296.73 96.7553C296.565 96.758 296.401 96.7478 296.239 96.7249C296.056 96.6727 296.239 96.4859 296.76 96.2035C297.56 95.7991 298.402 95.4843 299.271 95.2649C300.992 94.8247 302.758 94.5841 304.533 94.548C304.759 94.548 304.968 94.548 305.215 94.548C305.463 94.548 305.693 94.5741 305.924 94.5914L307.253 94.7218L309.899 94.9955C311.664 95.1737 313.441 95.3345 315.218 95.43C316.979 95.5513 318.747 95.5353 320.506 95.3823C321.11 95.3267 321.705 95.1983 322.279 94.9999L322.466 94.926L322.544 94.8826L322.596 94.8521V94.6653V94.1482C322.631 92.7839 322.709 91.4326 322.791 90.0812C322.961 87.3829 323.161 84.689 323.365 81.9994L323.378 81.9603Z" fill="#231F20"/>
<path d="M325.837 60.0616C324.26 57.0201 321.444 53.9003 318.741 51.8059C318.507 51.6235 317.538 52.0797 317.668 52.1796C320.549 54.3921 322.945 57.1724 324.707 60.3484C324.838 60.6048 325.915 60.192 325.837 60.0442V60.0616Z" fill="#231F20"/>
<path d="M298.863 95.9198C302.584 95.0579 306.445 94.978 310.199 95.6852C316.565 96.8497 323.334 95.2116 323.334 95.2116C323.334 95.2116 321.74 99.0005 310.812 97.0322C304.524 95.9025 299.567 97.6666 298.45 97.6666C297.815 97.6666 298.863 95.9198 298.863 95.9198Z" fill="#231F20"/>
<path d="M312 136L312 155L253 155" stroke="#C7C7C7" stroke-dasharray="2 2"/>
</svg>
