<svg width="385" height="210" viewBox="0 0 385 210" fill="none" xmlns="http://www.w3.org/2000/svg">
<rect x="1.16666" y="0.5" width="382.667" height="208.193" rx="3.5" fill="white"/>
<rect x="1.16666" y="0.5" width="382.667" height="208.193" rx="3.5" stroke="#E5E5E5"/>
<rect x="51.5" y="56.5" width="105" height="105" rx="52.5" fill="white"/>
<rect x="51.5" y="56.5" width="105" height="105" rx="52.5" stroke="#E5E5E5"/>
<path d="M112.255 105.535C112.038 119.206 95.0954 118.822 94.0508 108.537C93.2102 100.252 102.756 97.2436 106.233 99.1949C106.233 99.1949 104.996 96.5772 101.237 97.4117C97.479 98.2463 92.934 99.7833 91.325 103.782C89.7159 107.78 90.6826 111.407 91.325 113.568C91.9674 115.73 94.369 118.257 96.8366 119.416C99.3042 120.575 103.495 121.055 106.023 119.86C108.55 118.666 111.12 116.402 112.177 114.397C113.233 112.391 113.786 109.45 113.515 107.865C113.245 106.279 112.255 105.547 112.255 105.547V105.535Z" fill="#231F20"/>
<path d="M82.0251 96.9134C79.4314 98.4564 77.4381 97.6339 76.9218 95.5506C76.4054 93.4672 78.6449 91.9662 80.35 92.3265C80.35 92.3265 77.288 90.3752 75.3908 92.5486C74.0699 94.0616 74.6403 96.3131 74.9705 96.9134C75.3007 97.5138 77.1679 99.6092 79.2513 99.0809C81.3286 98.5525 82.0311 96.9134 82.0311 96.9134H82.0251Z" fill="#231F20"/>
<path d="M100.066 85.0733C101.537 85.7157 103.914 85.9138 104.779 83.6624C105.608 81.519 104.395 80.1381 102.654 79.0394C102.654 79.0394 104.761 78.409 105.764 79.5077C106.766 80.6064 106.91 81.573 107.049 82.7558C107.187 83.9386 106.538 85.4515 105.8 86.136C105.061 86.8144 102.119 86.8625 101.231 86.5323C100.342 86.202 100.066 85.0673 100.066 85.0673V85.0733Z" fill="#231F20"/>
<path d="M128.65 96.7212C128.518 94.944 127.293 93.6171 125.21 93.9534C123.415 94.2416 122.268 96.6491 123.283 98.2762C123.283 98.2762 121.884 97.7238 121.788 96.0367C121.692 94.3496 121.854 92.8667 124.051 91.9721C126.255 91.0775 128.014 92.0922 128.464 92.5004C128.915 92.9087 129.557 95.2982 129.557 95.2982L128.65 96.7152V96.7212Z" fill="#231F20"/>
<path d="M127.973 122.405C126.436 125.467 124.418 125.167 123.464 124.765C122.047 124.17 120.858 122.531 122.023 120.232C122.023 120.232 120.029 121.426 120.155 123.786C120.276 126.146 122.479 126.926 123.362 127.052C124.244 127.178 126.225 126.704 126.862 125.839C127.498 124.975 127.973 122.411 127.973 122.411V122.405Z" fill="#231F20"/>
<path d="M105.271 138.143C102.888 139.001 101.057 138.071 100.492 136.456C99.8498 134.619 100.985 132.751 102.455 132.229C102.455 132.229 100.186 131.617 98.4449 134.006C96.6977 136.396 98.3008 138.371 98.7751 138.815C99.2494 139.26 100.156 140.202 101.399 140.244C102.642 140.286 104.329 139.974 104.527 139.566C104.725 139.157 105.277 138.143 105.277 138.143H105.271Z" fill="#231F20"/>
<path d="M82.0006 124.699C82.4629 122.838 81.082 120.538 78.6384 120.844C77.1134 121.036 75.2943 122.495 75.6305 125.005C75.6305 125.005 74.1235 123.504 74.7059 121.301C75.2883 119.097 77.6478 118.353 78.9626 118.785C80.2775 119.217 81.6764 119.283 82.0547 120.076C82.4329 120.862 82.7811 123.294 82.7811 123.294L81.9886 124.705L82.0006 124.699Z" fill="#231F20"/>
<path d="M101.645 93.6456C101.723 93.0752 101.783 92.4928 101.819 91.9045C101.831 91.6883 101.789 91.4782 101.807 91.262C101.855 90.4995 101.933 89.731 102.011 88.9625C102.041 88.6203 102.023 88.2781 102.011 87.9419C101.999 87.7257 102.005 87.5096 102.017 87.2935C102.023 87.1854 102.041 87.0773 102.059 86.9693C102.071 86.8612 102.167 86.7471 102.215 86.639C102.3 86.5009 102.36 86.519 102.534 86.627C102.666 86.7051 102.792 86.7831 102.9 86.8432C103.026 86.9332 103.11 87.0413 103.152 87.1614C103.218 87.3775 103.302 87.5877 103.356 87.8038C103.392 88.0199 103.428 88.2361 103.452 88.4462C103.5 88.8785 103.524 89.3108 103.488 89.7551C103.416 90.2894 103.548 90.8298 103.572 91.3761C103.596 91.9765 103.596 92.5829 103.584 93.1893C103.584 93.5615 103.554 93.9398 103.53 94.312C103.494 94.8764 103.422 95.4468 103.416 96.0051C103.416 96.4434 103.494 96.8757 103.506 97.314C103.506 97.41 103.524 97.5061 103.518 97.6022C103.5 97.7823 103.458 97.8964 103.338 97.9624C103.254 97.9924 103.176 98.0164 103.086 98.0345C103.02 98.0525 102.936 98.0645 102.846 98.0705C102.762 98.0765 102.684 98.0885 102.606 98.0885C102.48 98.0885 102.366 98.0465 102.252 97.9684C102.173 97.9144 102.095 97.8663 102.029 97.8243C101.921 97.7643 101.927 97.7102 101.891 97.6442C101.747 97.2599 101.651 96.8757 101.585 96.4914C101.531 96.1132 101.549 95.735 101.543 95.3507C101.561 94.7803 101.579 94.21 101.597 93.6396H101.645V93.6456Z" fill="#231F20"/>
<path d="M103.488 125.258C103.41 125.828 103.338 126.404 103.296 126.987C103.278 127.197 103.32 127.407 103.296 127.623C103.236 128.374 103.152 129.142 103.068 129.905C103.038 130.241 103.05 130.583 103.068 130.913C103.08 131.13 103.074 131.346 103.062 131.556C103.056 131.664 103.038 131.772 103.02 131.88C103.008 131.988 102.912 132.102 102.864 132.21C102.78 132.348 102.72 132.33 102.545 132.228C102.413 132.15 102.281 132.072 102.179 132.012C102.053 131.922 101.969 131.814 101.921 131.694C101.855 131.484 101.771 131.268 101.717 131.057C101.681 130.841 101.651 130.631 101.621 130.415C101.573 129.983 101.555 129.55 101.597 129.106C101.675 128.578 101.549 128.037 101.531 127.491C101.513 126.897 101.525 126.296 101.543 125.69C101.543 125.318 101.585 124.945 101.603 124.579C101.639 124.015 101.711 123.457 101.717 122.898C101.711 122.466 101.633 122.034 101.621 121.601C101.621 121.505 101.603 121.409 101.609 121.319C101.627 121.145 101.663 121.031 101.783 120.959C101.867 120.929 101.945 120.905 102.035 120.887C102.101 120.869 102.185 120.857 102.275 120.845C102.359 120.839 102.437 120.821 102.509 120.821C102.635 120.821 102.75 120.857 102.864 120.935C102.942 120.989 103.02 121.031 103.092 121.079C103.2 121.139 103.194 121.193 103.236 121.259C103.386 121.643 103.482 122.028 103.554 122.406C103.608 122.784 103.596 123.168 103.596 123.547C103.578 124.111 103.554 124.681 103.536 125.252H103.488V125.258Z" fill="#231F20"/>
<path d="M115.046 100.318C115.658 100.054 116.277 99.7598 116.883 99.4536C117.105 99.3396 117.297 99.1775 117.519 99.0694C118.306 98.6731 119.117 98.2889 119.933 97.9166C120.287 97.7425 120.63 97.5384 120.96 97.3343C121.176 97.2022 121.398 97.0881 121.626 96.974C121.74 96.92 121.86 96.872 121.98 96.8299C122.094 96.7819 122.257 96.8059 122.395 96.7879C122.575 96.7879 122.587 96.8539 122.557 97.0641C122.539 97.2202 122.515 97.3763 122.503 97.5084C122.467 97.6705 122.395 97.8026 122.293 97.9046C122.106 98.0847 121.932 98.2709 121.74 98.439C121.542 98.5891 121.344 98.7452 121.134 98.8893C120.726 99.1775 120.299 99.4476 119.837 99.6698C119.267 99.9159 118.786 100.342 118.252 100.684C117.664 101.051 117.057 101.399 116.451 101.747C116.073 101.957 115.688 102.155 115.298 102.348C114.716 102.648 114.097 102.9 113.521 103.212C113.071 103.452 112.65 103.758 112.182 103.981C112.08 104.029 111.984 104.101 111.876 104.137C111.672 104.203 111.528 104.221 111.401 104.143C111.329 104.077 111.275 104.017 111.215 103.945C111.167 103.891 111.119 103.818 111.077 103.74C111.035 103.668 110.987 103.602 110.957 103.536C110.903 103.422 110.903 103.302 110.933 103.158C110.951 103.098 110.969 102.996 110.993 102.888C111.011 102.762 111.071 102.744 111.119 102.678C111.45 102.378 111.792 102.101 112.14 101.855C112.5 101.621 112.878 101.423 113.263 101.219C113.845 100.907 114.427 100.594 115.004 100.282L115.028 100.324L115.046 100.318Z" fill="#231F20"/>
<path d="M114.907 117.698C115.442 118.052 115.976 118.407 116.523 118.749C116.721 118.875 116.943 118.947 117.135 119.073C117.831 119.517 118.51 119.992 119.194 120.46C119.5 120.658 119.825 120.82 120.149 120.976C120.359 121.078 120.563 121.187 120.761 121.307C120.863 121.367 120.959 121.433 121.049 121.505C121.146 121.565 121.212 121.709 121.29 121.805C121.38 121.949 121.338 121.997 121.158 122.099C121.025 122.177 120.887 122.255 120.779 122.315C120.635 122.381 120.491 122.399 120.353 122.381C120.113 122.333 119.873 122.297 119.639 122.237C119.416 122.159 119.194 122.075 118.972 121.985C118.534 121.805 118.114 121.595 117.711 121.325C117.243 120.982 116.673 120.808 116.15 120.544C115.58 120.256 115.016 119.944 114.451 119.638L113.419 119.061C112.896 118.773 112.38 118.467 111.833 118.233C111.407 118.058 110.951 117.968 110.519 117.818C110.423 117.788 110.321 117.77 110.23 117.728C110.062 117.65 109.96 117.572 109.93 117.434C109.93 117.338 109.93 117.26 109.936 117.17C109.936 117.098 109.954 117.014 109.972 116.924C109.99 116.84 110.002 116.762 110.02 116.69C110.056 116.57 110.134 116.473 110.248 116.389C110.327 116.329 110.399 116.281 110.465 116.227C110.561 116.149 110.615 116.173 110.699 116.161C111.149 116.161 111.581 116.221 112.002 116.317C112.416 116.425 112.812 116.6 113.202 116.774C113.785 117.038 114.355 117.338 114.92 117.638L114.901 117.68L114.907 117.698Z" fill="#231F20"/>
<path d="M88.1007 101.133C87.5783 100.827 87.05 100.52 86.5096 100.238C86.3115 100.136 86.0954 100.082 85.8972 99.9741C85.2008 99.6018 84.5043 99.1996 83.8139 98.8033C83.5017 98.6292 83.1775 98.5031 82.8533 98.371C82.6431 98.287 82.439 98.1969 82.2409 98.0889C82.1388 98.0348 82.0427 97.9748 81.9467 97.9147C81.8506 97.8607 81.7846 97.7226 81.7005 97.6326C81.6044 97.4945 81.6465 97.4464 81.8146 97.3324C81.9407 97.2483 82.0667 97.1583 82.1688 97.0922C82.3069 97.0142 82.445 96.9841 82.5771 96.9961C82.8052 97.0262 83.0454 97.0382 83.2675 97.0802C83.4837 97.1402 83.7058 97.2003 83.9219 97.2663C84.3542 97.4044 84.7745 97.5725 85.1768 97.7947C85.6511 98.0889 86.2154 98.2029 86.7378 98.4131C87.3081 98.6472 87.8785 98.9054 88.4489 99.1636C88.7971 99.3197 89.1393 99.4998 89.4876 99.6679C90.0099 99.9261 90.5202 100.214 91.0546 100.436C91.4749 100.598 91.9191 100.695 92.3394 100.851C92.4355 100.881 92.5315 100.905 92.6216 100.947C92.7837 101.031 92.8798 101.109 92.9038 101.247C92.9038 101.337 92.9038 101.421 92.8798 101.511C92.8738 101.583 92.8558 101.661 92.8317 101.751C92.8077 101.829 92.7957 101.913 92.7657 101.979C92.7237 102.099 92.6456 102.19 92.5255 102.268C92.4475 102.322 92.3754 102.376 92.3034 102.424C92.2073 102.502 92.1533 102.472 92.0753 102.484C91.649 102.472 91.2407 102.418 90.8445 102.328C90.4542 102.232 90.088 102.063 89.7157 101.913C89.1694 101.679 88.623 101.421 88.0766 101.169L88.0947 101.121L88.1007 101.133Z" fill="#231F20"/>
<path d="M89.331 119.134C88.7727 119.38 88.2023 119.638 87.6379 119.908C87.4338 120.004 87.2537 120.148 87.0435 120.244C86.3051 120.581 85.5306 120.869 84.7621 121.133C84.4198 121.247 84.1016 121.415 83.7774 121.559C83.5733 121.655 83.3632 121.745 83.141 121.811C83.0329 121.848 82.9189 121.878 82.8048 121.902C82.6967 121.932 82.5526 121.884 82.4265 121.884C82.2644 121.854 82.2584 121.793 82.3005 121.589C82.3305 121.439 82.3545 121.289 82.3785 121.163C82.4205 121.007 82.4926 120.893 82.5947 120.803C82.7748 120.659 82.9429 120.497 83.123 120.365L83.6934 120.022C84.0776 119.806 84.4739 119.596 84.8941 119.44C85.4165 119.266 85.8548 118.906 86.3291 118.623L87.9381 117.705C88.2683 117.513 88.6166 117.339 88.9588 117.158C89.4751 116.882 90.0155 116.636 90.5198 116.33C90.9041 116.09 91.2523 115.79 91.6425 115.543C91.7266 115.489 91.8046 115.423 91.8947 115.381C92.0628 115.303 92.1889 115.273 92.315 115.339C92.387 115.399 92.4471 115.453 92.5071 115.519C92.5611 115.567 92.6092 115.633 92.6632 115.706C92.7112 115.772 92.7653 115.832 92.8013 115.898C92.8673 116.006 92.8854 116.126 92.8793 116.264C92.8733 116.324 92.8673 116.426 92.8613 116.534C92.8613 116.66 92.8133 116.684 92.7713 116.75C92.5011 117.074 92.2129 117.369 91.9067 117.627C91.6005 117.879 91.2523 118.071 90.9161 118.281C90.4057 118.581 89.8774 118.87 89.349 119.176L89.325 119.134H89.331Z" fill="#231F20"/>
<path d="M105.38 80.6596C105.037 80.2633 104.587 79.9571 104.083 79.7169C103.566 79.5128 103.014 79.4168 102.462 79.4408C102.263 79.4708 102.071 79.5188 101.879 79.5668C101.705 79.6569 101.519 79.723 101.339 79.807C100.12 80.4314 99.1955 82.0585 99.5978 83.5294C99.7599 84.1779 100.132 84.8023 100.666 85.2225C100.841 85.3546 101.015 85.4807 101.213 85.5768C101.393 85.7028 101.597 85.7809 101.789 85.889L102.42 86.1291C102.636 86.2312 102.858 86.3272 103.104 86.3993C103.41 86.5194 103.386 86.5494 103.116 86.7355C102.984 86.8196 102.78 87.0057 102.51 87.1198C102.378 87.1798 102.221 87.2639 102.053 87.2999C101.891 87.3239 101.717 87.3119 101.543 87.2999C101.225 87.2699 100.925 87.1678 100.612 87.0717C100.312 86.9517 100.036 86.7835 99.7779 86.5854C99.2555 86.2012 98.8052 85.7088 98.487 85.1385C98.1568 84.5741 97.9707 83.9257 97.9287 83.2713C97.8866 82.947 97.9287 82.6228 97.9527 82.2986C98.0247 81.9864 98.0668 81.6622 98.1989 81.374C98.3189 81.0138 98.499 80.6836 98.6672 80.3534C98.8833 80.0532 99.0634 79.723 99.3156 79.4408C99.5858 79.1706 99.8199 78.8644 100.156 78.6663C100.318 78.5582 100.468 78.4381 100.636 78.3481L101.165 78.1199C101.951 77.8437 102.798 77.7297 103.596 77.8798C104.395 78.0058 105.169 78.282 105.818 78.7503C106.634 79.3027 107.289 80.1012 107.649 81.0378L107.823 81.5782C107.877 81.7583 107.877 81.9504 107.907 82.1365C107.979 82.5088 107.925 82.881 107.901 83.2472C107.835 83.9857 107.577 84.6702 107.241 85.3186C106.706 86.3092 105.818 87.2098 104.665 87.5941C104.413 87.6721 104.167 87.7622 103.903 87.7862C102.93 87.8222 102.654 87.5761 102.528 87.1498C102.498 87.0477 102.462 86.9517 102.45 86.8556C102.42 86.5254 102.792 86.3212 103.29 86.1531C103.662 86.0271 103.987 85.895 104.281 85.7449C104.575 85.5948 104.809 85.3906 105.025 85.1685C105.241 84.9464 105.416 84.6822 105.572 84.388C105.734 84.0998 105.872 83.7756 105.962 83.4454C106.04 83.1992 106.034 82.9531 106.07 82.7069C106.1 82.5808 106.058 82.4667 106.058 82.3467C106.04 82.2326 106.07 82.1005 106.016 81.9924C105.932 81.5181 105.674 81.0918 105.35 80.6956L105.38 80.6656V80.6596Z" fill="#231F20"/>
<path d="M99.7302 138.196C100.072 138.586 100.529 138.899 101.027 139.133C101.543 139.331 102.096 139.433 102.648 139.403C102.846 139.373 103.038 139.325 103.23 139.277C103.405 139.187 103.591 139.121 103.765 139.037C104.984 138.412 105.896 136.779 105.494 135.302C105.332 134.654 104.954 134.029 104.419 133.615C104.245 133.483 104.071 133.357 103.873 133.267C103.693 133.141 103.489 133.069 103.296 132.961L102.666 132.721C102.45 132.618 102.222 132.528 101.982 132.45C101.675 132.33 101.699 132.306 101.964 132.114C102.096 132.03 102.294 131.844 102.564 131.73C102.696 131.67 102.852 131.586 103.02 131.544C103.182 131.52 103.357 131.526 103.531 131.544C103.849 131.574 104.149 131.676 104.461 131.766C104.761 131.886 105.044 132.054 105.302 132.252C105.824 132.636 106.28 133.123 106.599 133.693C106.935 134.258 107.121 134.906 107.163 135.554C107.205 135.879 107.163 136.203 107.145 136.527C107.073 136.839 107.031 137.163 106.905 137.452C106.785 137.812 106.611 138.142 106.443 138.472C106.226 138.772 106.046 139.103 105.8 139.391C105.53 139.661 105.296 139.967 104.966 140.165C104.809 140.273 104.653 140.394 104.485 140.484L103.957 140.712C103.17 140.988 102.33 141.108 101.525 140.964C100.727 140.838 99.9523 140.568 99.2979 140.099C98.4814 139.547 97.8209 138.754 97.4607 137.824L97.2866 137.283C97.2325 137.103 97.2325 136.911 97.2025 136.725C97.1305 136.353 97.1785 135.981 97.2025 135.614C97.2686 134.876 97.5207 134.191 97.8509 133.543C98.3793 132.552 99.2619 131.646 100.421 131.256C100.673 131.178 100.919 131.081 101.177 131.057C102.15 131.015 102.426 131.262 102.552 131.688C102.582 131.79 102.618 131.886 102.63 131.982C102.66 132.312 102.288 132.516 101.79 132.684C101.417 132.811 101.093 132.943 100.799 133.093C100.505 133.243 100.271 133.453 100.054 133.675C99.8442 133.903 99.6641 134.167 99.508 134.462C99.3459 134.75 99.2078 135.074 99.1238 135.41C99.0517 135.656 99.0577 135.903 99.0217 136.149C98.9917 136.275 99.0337 136.389 99.0337 136.509C99.0517 136.623 99.0277 136.755 99.0757 136.863C99.1598 137.338 99.424 137.764 99.7482 138.154L99.7182 138.184L99.7302 138.196Z" fill="#231F20"/>
<path d="M75.955 93.8752C75.7389 94.2775 75.6368 94.7578 75.5888 95.2381C75.5888 95.7124 75.6248 96.2227 75.829 96.661C75.883 96.8351 75.9851 96.9792 76.0931 97.1173C76.1472 97.1894 76.1892 97.2614 76.2492 97.3275C76.3153 97.3875 76.3753 97.4475 76.4353 97.5136C76.6215 97.7657 76.9037 97.9278 77.1558 98.114C77.2939 98.174 77.426 98.2641 77.5701 98.3121C77.7202 98.3481 77.8643 98.4142 78.0204 98.4382C78.6448 98.5583 79.3412 98.4562 79.9777 98.18C80.542 97.9278 81.0644 97.5376 81.4426 97.0573C81.5507 96.8952 81.6828 96.7451 81.7548 96.571C81.7968 96.4869 81.8569 96.4089 81.9049 96.3308L82.025 96.0786C82.121 95.9105 82.1391 95.7364 82.2291 95.5623C82.2952 95.3882 82.3792 95.1901 82.4032 94.9799C82.4693 94.7038 82.4933 94.6977 82.7274 94.8959C82.8415 94.9979 83.0517 95.148 83.1957 95.4002C83.2678 95.5203 83.3879 95.6764 83.4119 95.8325C83.4359 95.9886 83.4479 96.1567 83.4359 96.3308C83.3518 96.9192 83.1597 97.5136 82.7935 97.9459C82.4633 98.4142 82.055 98.7984 81.6107 99.1286C80.6981 99.759 79.5754 100.107 78.4407 100.035C77.7622 99.9632 77.0778 99.8191 76.4534 99.5069C76.1532 99.3448 75.871 99.1526 75.5948 98.9605C75.3546 98.7204 75.0785 98.5042 74.8923 98.222C74.436 97.6277 74.1599 96.9372 74.0038 96.2347C73.8897 95.5263 73.8597 94.7998 74.0398 94.1034C74.2319 93.2508 74.6402 92.4343 75.2586 91.7859C75.7509 91.3296 76.3273 90.9213 76.9817 90.7532C77.1438 90.7052 77.2999 90.6451 77.462 90.6151L77.9543 90.5611C78.2846 90.501 78.6028 90.537 78.921 90.549L79.2932 90.5671C79.4253 90.5911 79.5634 90.6031 79.6955 90.6391C79.9596 90.6931 80.2058 90.7892 80.452 90.8913C80.9383 91.1074 81.3826 91.4136 81.7608 91.8279C81.9229 92.014 82.085 92.2001 82.2051 92.4283C82.4032 92.8666 82.4152 93.2088 82.3552 93.4369C82.2952 93.6651 82.1511 93.7912 81.9349 93.8812C81.8389 93.9172 81.7428 93.9653 81.6467 93.9773C81.3225 94.0193 81.0764 93.7371 80.8302 93.4609C80.6261 93.2568 80.44 93.0767 80.2178 92.9146C80.0017 92.7585 79.7555 92.6264 79.5093 92.5483C79.3893 92.5063 79.2692 92.4763 79.1551 92.4583C79.1011 92.4463 79.047 92.4523 78.993 92.4403C78.915 92.4403 78.8369 92.4463 78.7649 92.4403C78.6148 92.4403 78.4587 92.4103 78.3086 92.4103C78.1705 92.4283 78.0264 92.4403 77.8823 92.4523C77.7682 92.4463 77.6902 92.5063 77.5881 92.5243C77.498 92.5544 77.384 92.5604 77.2999 92.6084C77.1318 92.7045 76.9337 92.7585 76.7836 92.9026C76.4414 93.1247 76.1892 93.491 75.9851 93.8872L75.943 93.8692L75.955 93.8752Z" fill="#231F20"/>
<path d="M127.384 93.1301C126.634 92.6618 125.589 92.4036 124.659 92.6798C124.31 92.7578 124.022 92.9619 123.74 93.1541L123.374 93.4303L123.062 93.7785C122.863 94.0186 122.713 94.2888 122.605 94.577C122.395 95.1534 122.383 95.8318 122.599 96.4742C122.785 97.0386 123.14 97.5729 123.59 97.9572C123.746 98.0653 123.884 98.2034 124.052 98.2754C124.13 98.3234 124.202 98.3835 124.286 98.4315L124.527 98.5576C124.689 98.6537 124.863 98.6837 125.031 98.7797C125.205 98.8578 125.391 98.9478 125.601 98.9899C125.871 99.0739 125.871 99.1039 125.661 99.3201C125.553 99.4221 125.391 99.6203 125.145 99.7524C125.025 99.8184 124.869 99.9265 124.719 99.9505C124.569 99.9685 124.4 99.9745 124.232 99.9565C123.656 99.8544 123.074 99.6503 122.653 99.266C122.419 99.0979 122.239 98.8818 122.035 98.6897C121.867 98.4675 121.675 98.2574 121.537 98.0112C120.966 97.0566 120.708 95.8618 120.984 94.7391C121.278 93.4002 122.089 92.2055 123.26 91.539C124.539 90.8005 126.076 90.7525 127.396 91.2088C128.213 91.503 128.957 92.0013 129.522 92.6798C129.708 92.9559 129.93 93.2141 130.044 93.5323L130.242 93.9946L130.35 94.4809C130.446 94.8051 130.428 95.1294 130.44 95.4536C130.47 95.7838 130.386 96.084 130.356 96.4022C130.23 97.4228 129.69 98.4135 128.825 99.0739C128.627 99.218 128.429 99.3621 128.195 99.4582C127.745 99.6143 127.408 99.5963 127.192 99.5182C126.97 99.4342 126.862 99.2841 126.796 99.0619C126.766 98.9598 126.73 98.8638 126.724 98.7677C126.712 98.4435 127.012 98.2214 127.3 97.9992C127.522 97.8191 127.715 97.645 127.889 97.4469C128.063 97.2487 128.213 97.0206 128.315 96.7864C128.363 96.6724 128.411 96.5523 128.435 96.4442C128.471 96.3361 128.471 96.2401 128.489 96.072C128.507 95.9219 128.537 95.7718 128.567 95.6277C128.567 95.4836 128.561 95.3455 128.567 95.2074C128.579 95.0993 128.561 95.0033 128.537 94.9072C128.519 94.8111 128.501 94.7151 128.489 94.613L128.381 94.3428C128.351 94.2468 128.315 94.1567 128.255 94.0787C128.201 93.9946 128.147 93.9106 128.099 93.8205L127.883 93.5924L127.775 93.4723L127.643 93.3762L127.378 93.1781L127.396 93.1361L127.384 93.1301Z" fill="#231F20"/>
<path d="M122.503 125.678C123.265 126.134 124.328 126.206 125.235 125.894C125.565 125.774 125.847 125.564 126.111 125.347C126.567 124.963 126.97 124.447 127.156 123.835C127.348 123.234 127.342 122.556 127.138 121.919C126.952 121.361 126.604 120.839 126.147 120.466C125.997 120.358 125.847 120.238 125.679 120.16C125.601 120.118 125.523 120.058 125.445 120.01L125.199 119.89C125.036 119.8 124.856 119.764 124.682 119.674C124.502 119.596 124.316 119.5 124.1 119.446C123.836 119.35 123.842 119.32 124.058 119.115C124.166 119.013 124.334 118.827 124.574 118.695C124.694 118.629 124.838 118.527 124.988 118.497C125.139 118.473 125.301 118.467 125.463 118.485C125.739 118.539 126.045 118.587 126.309 118.695C126.591 118.791 126.82 118.965 127.054 119.133C127.504 119.482 127.906 119.896 128.195 120.376C128.801 121.331 128.987 122.532 128.771 123.618C128.621 124.267 128.411 124.897 128.056 125.468C127.918 125.774 127.666 126.008 127.468 126.272C127.246 126.524 126.97 126.716 126.718 126.921C125.493 127.689 123.998 127.953 122.641 127.587C121.8 127.389 121.002 126.945 120.407 126.296C120.155 126.074 120.005 125.768 119.813 125.498C119.651 125.209 119.549 124.891 119.435 124.585C119.381 124.267 119.297 123.949 119.267 123.63C119.267 123.312 119.249 123.006 119.249 122.682C119.363 121.613 119.753 120.694 120.462 119.902C120.618 119.728 120.78 119.554 120.99 119.416C121.392 119.181 121.722 119.121 121.956 119.157C122.191 119.193 122.335 119.32 122.443 119.53C122.491 119.62 122.545 119.716 122.563 119.806C122.623 120.124 122.389 120.388 122.161 120.67C121.986 120.893 121.818 121.097 121.668 121.343C121.518 121.583 121.386 121.853 121.296 122.123C121.2 122.388 121.152 122.664 121.146 122.85C121.14 122.964 121.146 123.138 121.146 123.282V123.51C121.146 123.582 121.164 123.648 121.176 123.72C121.284 124.537 121.692 125.251 122.497 125.642L122.479 125.684L122.503 125.678Z" fill="#231F20"/>
<path d="M75.7027 121.896C75.5286 122.365 75.5106 122.899 75.5586 123.433C75.6487 123.962 75.8348 124.49 76.135 124.952C76.249 125.114 76.3931 125.253 76.5252 125.403C76.6813 125.523 76.8374 125.631 76.9875 125.763C77.5459 126.159 78.2423 126.345 78.9748 126.309C79.7133 126.309 80.4037 126.027 80.9741 125.529C81.4845 125.09 81.8447 124.472 82.0308 123.824C82.0968 123.619 82.1269 123.397 82.1569 123.187C82.1929 122.971 82.2229 122.761 82.2349 122.539C82.259 122.317 82.2349 122.1 82.259 121.872C82.277 121.638 82.301 121.398 82.301 121.146C82.319 120.828 82.355 120.84 82.6132 121.026C82.7393 121.122 82.9614 121.254 83.1655 121.464C83.2616 121.566 83.3997 121.68 83.4838 121.824C83.5498 121.968 83.6158 122.124 83.6579 122.287C83.9701 123.493 83.5678 124.778 82.8954 125.811C82.1929 126.838 81.0402 127.6 79.7853 127.78C79.4191 127.822 79.0589 127.822 78.6926 127.852C78.3264 127.804 77.9481 127.816 77.5879 127.714C77.2277 127.612 76.8554 127.528 76.5312 127.336C76.183 127.186 75.8888 126.952 75.6006 126.717C74.3878 125.637 73.7454 124.046 73.8475 122.467C73.9015 121.5 74.2557 120.539 74.8681 119.771C75.3605 119.213 75.9188 118.756 76.6033 118.444C77.2817 118.162 77.9962 118.024 78.7166 118.024C79.8214 118.036 80.9741 118.33 81.8867 119.038C82.0968 119.183 82.283 119.345 82.4571 119.525C83.0335 120.263 83.0034 120.617 82.7393 120.978C82.6732 121.062 82.6192 121.152 82.5471 121.212C82.301 121.428 81.9107 121.272 81.4845 120.966L81.2503 120.804C81.1662 120.756 81.0882 120.714 81.0161 120.66C80.8721 120.545 80.716 120.473 80.5719 120.383C80.2657 120.227 79.9655 120.095 79.6473 120.035C79.3351 119.963 79.0168 119.921 78.6926 119.933C78.3684 119.927 78.0442 119.957 77.732 120.041C77.4919 120.095 77.2997 120.179 77.1076 120.287C76.9215 120.437 76.6693 120.527 76.5252 120.714C76.147 121.008 75.9308 121.446 75.7627 121.902L75.7207 121.89L75.7027 121.896Z" fill="#231F20"/>
<path d="M112.254 109.84C112.398 108.093 112.092 106.304 111.474 104.665C110.837 103.032 109.763 101.591 108.376 100.51C107.379 99.6937 106.154 99.2014 104.923 98.8111C102.732 98.1267 100.306 98.1747 98.097 98.8892C96.9983 99.2734 95.9596 99.8198 95.029 100.522C94.1224 101.243 93.3419 102.125 92.7235 103.128C92.2012 104.035 91.8049 105.019 91.5527 106.046C91.3426 107.079 91.1925 108.135 91.2585 109.186C91.3006 110.537 91.6068 111.864 92.009 113.148L92.3633 114.097C92.4954 114.409 92.6695 114.697 92.7835 115.022C93.0657 115.64 93.3959 116.24 93.7622 116.835C94.0984 117.681 94.1164 117.537 93.42 117.141C93.2278 117.057 93.0417 116.907 92.8016 116.751C92.5914 116.577 92.3513 116.373 92.0931 116.132C91.8229 115.904 91.5708 115.622 91.3306 115.304C91.2165 115.142 91.0964 114.974 90.9824 114.794C90.8803 114.607 90.7842 114.415 90.6942 114.217C89.3193 111.395 89.1752 108.057 90.0398 105.031C90.478 103.512 91.2105 102.059 92.2252 100.816C93.2398 99.5676 94.5427 98.559 95.9716 97.8925C99.3578 96.2415 103.549 95.9713 107.103 97.5143C109.048 98.3368 110.771 99.7177 111.996 101.447C113.233 103.17 113.959 105.193 114.254 107.247C114.566 109.774 114.278 112.41 113.179 114.733C112.789 115.628 112.236 116.439 111.642 117.207C110.999 117.94 110.297 118.624 109.498 119.17C109.102 119.447 108.7 119.723 108.268 119.933L107.631 120.275L106.935 120.557C106.004 120.875 105.068 121.044 104.125 121.146C102.66 121.29 101.189 121.254 99.7421 121.002C98.2951 120.743 96.8662 120.269 95.5754 119.489C95.2752 119.344 95.023 119.134 94.7468 118.954C94.4766 118.762 94.1945 118.588 93.9603 118.348C93.0417 117.501 92.6214 116.787 92.3453 116.295C92.2432 116.024 92.1832 115.796 92.1591 115.598C92.1411 115.394 92.1591 115.214 92.1832 115.052C92.2072 114.902 92.2012 114.733 92.2372 114.643C92.2912 114.487 92.4954 114.577 92.8796 114.812C93.0837 114.92 93.2759 115.094 93.498 115.31C93.7201 115.52 94.0023 115.736 94.2785 116.012C95.9656 117.567 98.043 118.63 100.348 119.002C101.495 119.182 102.684 119.218 103.855 119.092C104.437 119.038 105.013 118.924 105.566 118.786C105.83 118.708 106.106 118.63 106.346 118.534L106.701 118.39L107.073 118.186C110.105 116.631 112.074 113.395 112.224 109.846H112.278L112.254 109.84Z" fill="#231F20"/>
<path d="M96.2174 95.172C96.3075 95.232 96.2174 95.3641 96.0493 95.5262C95.9953 95.5802 95.8091 95.6703 95.7671 95.6643C95.6831 95.6463 95.599 95.6343 95.527 95.6103C95.5029 95.6043 95.3889 95.5142 95.2508 95.4121C95.1247 95.3101 95.0106 95.178 94.9386 95.1179C94.8065 94.9979 94.7164 94.8598 94.6324 94.7157L94.104 93.8451C94.068 93.7791 94.038 93.707 94.026 93.629C93.9839 93.3588 93.8579 93.1366 93.7138 92.9205C93.6898 92.8845 93.6778 92.8425 93.6117 92.8304C93.5096 92.8064 93.1794 92.194 93.1734 92.092C93.1554 91.8518 93.1014 91.6237 93.0654 91.3895C93.0654 91.3535 93.0293 91.3355 93.0654 91.2814C93.1554 91.1554 93.1014 91.1073 93.0834 91.0413C93.0533 90.9512 93.0293 90.8552 93.0233 90.7471C93.0233 90.6931 93.0714 90.615 93.1074 90.543C93.1374 90.4769 93.3355 90.4049 93.3595 90.4049C93.4376 90.4109 93.5096 90.3388 93.5877 90.2908C93.6117 90.2788 93.6477 90.2548 93.6657 90.2488C93.7138 90.2308 94.2841 90.555 94.3082 90.615C94.3082 90.615 94.4282 90.7891 94.5543 90.9692C94.6804 91.1494 94.8125 91.3355 94.8425 91.3655C94.8785 91.4015 94.8725 91.4616 94.8725 91.5096C94.8725 91.5336 95.2688 92.0559 95.2748 92.086C95.3228 92.212 95.4249 92.3081 95.3769 92.4822C95.3648 92.5182 95.3829 92.5363 95.4009 92.5603C95.5149 92.7584 95.575 92.9866 95.647 93.2087C95.6831 93.3228 95.7491 93.4188 95.7971 93.5269C95.8031 93.5449 95.7971 93.5749 95.7971 93.5929C95.7971 93.623 95.7971 93.653 95.8091 93.677C95.9412 93.9232 96.0073 94.1993 96.1694 94.4335C96.1994 94.4875 96.2354 94.8177 96.2654 94.8838C96.2834 94.9198 96.1694 95.1299 96.2114 95.154L96.2174 95.172Z" fill="#231F20"/>
<path d="M110.609 96.3311C110.585 96.4212 110.441 96.4091 110.267 96.3551C110.213 96.3371 110.086 96.235 110.08 96.199C110.068 96.127 110.056 96.0549 110.05 95.9829C110.038 95.9348 110.201 95.4305 110.249 95.2564C110.291 95.0763 110.363 94.9262 110.471 94.8061L111.065 94.0016C111.113 93.9415 111.167 93.8935 111.233 93.8515C111.455 93.7074 111.623 93.5153 111.762 93.3051C111.786 93.2691 111.822 93.2391 111.81 93.179C111.798 93.077 112.236 92.5486 112.32 92.5006C112.536 92.3985 112.722 92.2725 112.926 92.1584C112.956 92.1404 112.962 92.1043 113.022 92.1224C113.16 92.1584 113.191 92.0983 113.245 92.0563C113.317 91.9963 113.401 91.9422 113.497 91.9002C113.545 91.8822 113.629 91.9002 113.701 91.9002C113.767 91.9062 113.893 92.0563 113.899 92.0803C113.911 92.1524 114.001 92.1884 114.061 92.2424C114.079 92.2605 114.109 92.2845 114.121 92.3025C114.151 92.3385 114.025 92.9569 113.989 92.9929C113.989 92.9929 113.869 93.161 113.749 93.3291C113.635 93.4973 113.521 93.6774 113.485 93.7194C113.461 93.7614 113.407 93.7734 113.365 93.7975C113.341 93.8095 112.998 94.3318 112.98 94.3438C112.884 94.4279 112.83 94.5539 112.662 94.578C112.632 94.578 112.614 94.608 112.602 94.626C112.464 94.8001 112.29 94.9382 112.122 95.0883C112.038 95.1663 111.972 95.2564 111.9 95.3405C111.888 95.3585 111.858 95.3585 111.84 95.3705C111.816 95.3825 111.786 95.3945 111.774 95.4125C111.599 95.6166 111.401 95.8028 111.227 96.0069C111.185 96.0549 110.885 96.193 110.849 96.253C110.825 96.2891 110.609 96.2831 110.603 96.3251L110.609 96.3311Z" fill="#231F20"/>
<path d="M86.4378 109.384C86.5578 109.366 86.6239 109.504 86.6359 109.702C86.6359 109.768 86.5759 109.93 86.5458 109.948C86.4738 109.985 86.4077 110.027 86.3597 110.051C86.3237 110.051 85.8314 110.165 85.6633 110.261C85.5012 110.345 85.339 110.369 85.1649 110.393C84.8107 110.447 84.4505 110.519 84.0902 110.585C84.0122 110.603 83.9281 110.585 83.8501 110.573C83.5679 110.507 83.2917 110.531 83.0155 110.591C82.9675 110.603 82.9195 110.597 82.8835 110.657C82.8174 110.747 82.0729 110.849 81.9709 110.825C81.7187 110.759 81.4665 110.735 81.2144 110.681C81.1783 110.675 81.1423 110.699 81.1063 110.639C81.0162 110.501 80.9442 110.537 80.8661 110.531C80.7581 110.531 80.65 110.513 80.5419 110.477C80.4879 110.459 80.4279 110.381 80.3678 110.327C80.3138 110.273 80.3138 110.057 80.3258 110.033C80.3678 109.96 80.3138 109.864 80.3018 109.774C80.3018 109.744 80.2898 109.708 80.2898 109.684C80.2898 109.63 80.8481 109.18 80.9142 109.174C80.9142 109.174 80.9742 109.156 81.0583 109.138C81.1423 109.12 81.2564 109.09 81.3765 109.066C81.6106 109.012 81.8568 108.958 81.9048 108.94C81.9589 108.922 82.0129 108.952 82.0669 108.964C82.0909 108.964 82.7994 108.796 82.8294 108.802C82.9795 108.802 83.1236 108.742 83.2857 108.856C83.3157 108.88 83.3458 108.868 83.3758 108.862C83.6339 108.826 83.8921 108.85 84.1503 108.886C84.2824 108.904 84.4144 108.886 84.5465 108.886C84.5705 108.886 84.5946 108.904 84.6186 108.91C84.6486 108.922 84.6786 108.934 84.7086 108.934C85.0208 108.934 85.333 108.976 85.6753 108.988C85.7533 108.988 86.1196 109.18 86.2096 109.192C86.2637 109.198 86.3957 109.384 86.4438 109.378L86.4378 109.384Z" fill="#231F20"/>
<path d="M113.443 127.604C113.539 127.646 113.485 127.778 113.359 127.953C113.317 128.007 113.155 128.121 113.113 128.115C113.035 128.109 112.963 128.097 112.897 128.079C112.861 128.067 112.452 127.748 112.296 127.646C112.152 127.55 112.032 127.43 111.918 127.31C111.696 127.058 111.438 126.824 111.24 126.542C111.192 126.482 111.162 126.416 111.138 126.338C111.059 126.079 110.915 125.863 110.747 125.659C110.717 125.623 110.699 125.581 110.639 125.575C110.531 125.563 110.135 124.957 110.117 124.861C110.063 124.584 110.021 124.374 109.973 124.14C109.973 124.104 109.931 124.086 109.973 124.032C110.063 123.906 110.009 123.852 109.991 123.786C109.961 123.69 109.937 123.588 109.937 123.48C109.937 123.426 109.985 123.348 110.027 123.282C110.063 123.221 110.255 123.161 110.285 123.167C110.363 123.179 110.435 123.113 110.513 123.071C110.537 123.059 110.573 123.041 110.597 123.035C110.645 123.023 111.18 123.342 111.204 123.39C111.204 123.39 111.318 123.552 111.438 123.714C111.564 123.876 111.69 124.044 111.72 124.074C111.756 124.104 111.75 124.164 111.756 124.212C111.756 124.236 112.158 124.71 112.17 124.734C112.224 124.855 112.332 124.933 112.302 125.107C112.302 125.143 112.314 125.161 112.332 125.179C112.464 125.359 112.548 125.569 112.651 125.773C112.705 125.875 112.771 125.965 112.831 126.067C112.843 126.085 112.837 126.115 112.843 126.133C112.843 126.163 112.849 126.193 112.861 126.217C113.005 126.452 113.101 126.716 113.275 126.932C113.311 126.98 113.383 127.304 113.431 127.358C113.455 127.388 113.407 127.586 113.449 127.604H113.443Z" fill="#231F20"/>
<path d="M129.071 88.3035C129.125 88.3815 129.017 88.4716 128.837 88.5556C128.777 88.5857 128.603 88.6037 128.573 88.5796C128.513 88.5376 128.447 88.4956 128.399 88.4536C128.375 88.4295 128.122 87.9612 128.008 87.8051C127.906 87.649 127.828 87.4929 127.792 87.3308C127.75 87.0006 127.696 86.6704 127.666 86.3402C127.66 86.2681 127.666 86.1901 127.69 86.118C127.774 85.8599 127.762 85.6137 127.726 85.3555C127.72 85.3135 127.726 85.2715 127.672 85.2295C127.582 85.1634 127.564 84.473 127.606 84.3829C127.708 84.1668 127.774 83.9446 127.882 83.7345C127.894 83.7045 127.882 83.6685 127.948 83.6444C128.104 83.5904 128.086 83.5184 128.104 83.4523C128.128 83.3623 128.164 83.2662 128.218 83.1821C128.248 83.1401 128.332 83.0981 128.405 83.0621C128.471 83.026 128.681 83.0681 128.705 83.0861C128.771 83.1341 128.873 83.1101 128.963 83.1161C128.993 83.1161 129.035 83.1161 129.059 83.1221C129.107 83.1341 129.461 83.6745 129.467 83.7285C129.479 83.7465 129.551 84.491 129.569 84.575C129.581 84.6171 129.545 84.6651 129.521 84.7071C129.509 84.7311 129.599 85.3195 129.593 85.3435C129.569 85.4636 129.623 85.5897 129.491 85.7098C129.467 85.7338 129.473 85.7578 129.473 85.7818C129.491 85.992 129.437 86.2081 129.413 86.4182C129.395 86.5263 129.413 86.6344 129.413 86.7425C129.413 86.7605 129.395 86.7845 129.389 86.8025C129.377 86.8265 129.365 86.8505 129.365 86.8805C129.377 87.0066 129.365 87.1387 129.365 87.2708C129.341 87.4029 129.323 87.535 129.329 87.661C129.329 87.7211 129.185 88.0213 129.197 88.0873C129.197 88.1233 129.047 88.2674 129.077 88.3035H129.071Z" fill="#231F20"/>
<path d="M131.527 89.4263C131.515 89.5044 131.413 89.4443 131.251 89.3062C131.203 89.2642 131.083 89.1081 131.077 89.0721C131.071 89.006 131.065 88.946 131.065 88.892C131.065 88.8619 131.257 88.5617 131.317 88.4537C131.377 88.3456 131.455 88.2675 131.539 88.1955C131.707 88.0514 131.875 87.8953 132.055 87.7572C132.097 87.7272 132.14 87.7032 132.194 87.6972C132.374 87.6672 132.512 87.5711 132.65 87.469C132.674 87.451 132.704 87.445 132.704 87.391C132.704 87.3009 133.112 87.0728 133.184 87.0788C133.352 87.0848 133.508 87.0668 133.67 87.0668C133.695 87.0668 133.707 87.0428 133.749 87.0848C133.839 87.1808 133.875 87.1448 133.917 87.1328C133.977 87.1208 134.043 87.1148 134.115 87.1328C134.151 87.1388 134.205 87.1989 134.259 87.2409C134.301 87.2769 134.361 87.463 134.361 87.487C134.361 87.5531 134.415 87.6311 134.445 87.7032C134.457 87.7272 134.469 87.7632 134.475 87.7812C134.487 87.8293 134.307 88.2555 134.277 88.2675C134.277 88.2675 134.175 88.3396 134.061 88.4116C133.953 88.4897 133.845 88.5677 133.827 88.5918C133.809 88.6158 133.767 88.5978 133.737 88.5918C133.719 88.5918 133.424 88.8439 133.406 88.8499C133.328 88.8739 133.28 88.952 133.154 88.886C133.13 88.8739 133.118 88.886 133.106 88.892C132.992 88.964 132.842 88.982 132.71 89.024C132.638 89.0421 132.584 89.0901 132.518 89.1201C132.506 89.1201 132.488 89.1201 132.47 89.1201C132.452 89.1201 132.428 89.1201 132.416 89.1201C132.272 89.2042 132.097 89.2462 131.977 89.3663C131.947 89.3903 131.731 89.4023 131.701 89.4383C131.683 89.4563 131.533 89.3903 131.527 89.4203V89.4263Z" fill="#231F20"/>
<rect x="237.38" y="58.3802" width="105.24" height="97.2396" fill="white" stroke="#E5E5E5" stroke-width="0.760417"/>
<rect x="242.38" y="63.3802" width="94.2396" height="87.2396" fill="#EDEDED" stroke="#E5E5E5" stroke-width="0.760417"/>
<path d="M269.387 101.258C269.569 100.398 269.762 99.5387 270.08 98.6636C270.163 98.4448 270.247 98.226 270.366 97.9968C270.419 97.8874 270.486 97.7676 270.564 97.6478C270.627 97.5332 270.747 97.403 270.861 97.2832C271.257 96.9706 271.632 96.6737 272.044 96.4653C272.19 96.382 272.336 96.2934 272.487 96.2153L272.935 96.0069L273.383 95.7985L273.841 95.6318C274.924 95.2464 276.029 94.9911 277.128 94.7775C278.232 94.5588 279.337 94.4129 280.446 94.2723C281.431 94.1576 282.415 94.0326 283.389 93.9389C284.64 93.8243 285.905 93.6367 287.176 93.8243C287.572 93.9076 287.515 94.0639 287.187 94.3087C287.025 94.4389 286.796 94.5588 286.52 94.6838C286.244 94.814 285.921 94.9026 285.567 94.9286C284.311 95.0276 283.056 95.1474 281.801 95.288C280.545 95.4131 279.29 95.5589 278.029 95.7308C276.529 95.9444 274.997 96.3924 273.612 96.9758L273.044 97.2259C272.856 97.3144 272.69 97.4238 272.513 97.5176L272.247 97.6686L272.013 97.8457L271.778 98.0229L271.664 98.1114C271.664 98.1114 271.622 98.1583 271.601 98.1791C271.408 98.3979 271.242 98.8042 271.106 99.1793C270.971 99.5648 270.851 99.9711 270.747 100.383C270.481 101.393 270.294 102.44 270.132 103.487C269.887 105.076 269.684 106.681 269.549 108.275C269.439 109.514 269.45 110.738 269.366 111.963C269.351 112.233 269.34 112.499 269.325 112.77C269.241 113.775 269.075 114.088 268.871 114.296C268.825 114.343 268.778 114.406 268.731 114.437C268.601 114.531 268.444 114.109 268.345 113.353C268.278 112.796 268.278 112.233 268.252 111.666C268.231 111.098 268.225 110.52 268.262 109.947C268.319 108.795 268.408 107.629 268.538 106.457C268.736 104.722 268.996 102.987 269.34 101.247H269.371L269.387 101.258Z" fill="#231F20"/>
<path d="M286.844 138.808C284.365 127.598 291.699 128.614 291.928 128.494C291.928 128.494 289.048 126.504 286.61 128.457C284.047 130.515 284.083 131.718 283.927 134.125C283.771 136.532 283.927 138.72 283.927 138.72L286.839 138.808H286.844Z" fill="#231F20"/>
<path d="M276.316 102.773C276.238 102.93 274.852 106.93 275.472 107.785C275.748 108.165 282.536 108.097 283.078 107.748C283.619 107.399 284.166 109.222 282.416 109.379C280.666 109.535 274.206 109.254 274.061 108.795C273.915 108.337 273.461 103.346 274.061 103.091C274.66 102.836 276.311 102.779 276.311 102.779L276.316 102.773Z" fill="#231F20"/>
<path d="M276.837 117.313C276.759 117.469 275.373 121.47 275.993 122.324C276.269 122.705 283.056 122.637 283.598 122.288C284.14 121.939 284.687 123.762 282.937 123.918C281.186 124.075 274.727 123.793 274.581 123.335C274.435 122.876 273.982 117.886 274.581 117.631C275.18 117.376 276.831 117.318 276.831 117.318L276.837 117.313Z" fill="#231F20"/>
<path d="M296.965 117.313C296.887 117.469 295.502 121.47 296.122 122.324C296.398 122.705 303.185 122.637 303.727 122.288C304.269 121.939 304.816 123.762 303.065 123.918C301.32 124.075 294.856 123.793 294.71 123.335C294.564 122.876 294.111 117.886 294.71 117.631C295.309 117.376 296.96 117.318 296.96 117.318L296.965 117.313Z" fill="#231F20"/>
<path d="M296.965 102.773C296.887 102.93 296.007 106.852 296.627 107.707C296.903 108.087 303.185 108.097 303.727 107.743C304.269 107.389 304.816 109.217 303.065 109.373C301.315 109.53 294.856 109.248 294.71 108.79C294.564 108.332 294.111 103.341 294.71 103.086C295.309 102.831 296.96 102.773 296.96 102.773H296.965Z" fill="#231F20"/>
<path d="M268.368 107.962C268.498 105.899 268.639 103.842 268.857 101.779C268.904 101.263 268.972 100.747 269.035 100.232C269.097 99.7161 269.154 99.2004 269.243 98.6847L269.363 97.9085L269.394 97.7157L269.41 97.6168L269.451 97.4501C269.503 97.2261 269.613 97.0386 269.717 96.8667C270.181 96.2155 270.728 95.9342 271.238 95.6738C271.993 95.3091 272.743 95.0747 273.494 94.8611C274.244 94.6528 274.994 94.4913 275.749 94.3662C278.406 93.9183 281.063 93.7151 283.719 93.5849C286.376 93.4598 289.027 93.4286 291.679 93.4651C294.033 93.5015 296.398 93.5432 298.732 93.6891C300.232 93.788 301.733 93.9026 303.233 94.1058C303.983 94.1996 304.728 94.3298 305.468 94.5069C306.207 94.6736 306.942 94.882 307.65 95.1945C308.093 95.382 308.26 95.5227 308.228 95.5591C308.192 95.606 307.958 95.5696 307.556 95.5487C306.749 95.5018 305.301 95.5487 303.613 95.4029C300.623 95.0903 297.591 95.0174 294.565 94.8872C291.533 94.7934 288.486 94.7778 285.428 94.8403C283.599 94.8767 281.74 95.0018 279.88 95.2101C278.026 95.4237 276.161 95.6998 274.379 96.127C273.41 96.3614 272.431 96.6531 271.634 97.0959C271.238 97.3042 270.915 97.6064 270.863 97.8043C270.853 97.8199 270.827 97.9658 270.811 98.096L270.754 98.4763L270.639 99.2316C270.368 101.258 270.17 103.31 270.024 105.368C269.852 107.9 269.712 110.442 269.649 112.979C269.54 116.828 269.503 120.699 269.618 124.517C269.712 127.486 269.931 130.393 270.201 133.31C270.269 133.951 270.332 134.581 270.394 135.227C270.451 135.826 270.488 136.326 270.498 136.743C270.519 137.16 270.53 137.498 270.514 137.78C270.477 138.342 270.384 138.676 270.227 138.957C270.155 139.082 270.092 139.249 270.024 139.327C269.904 139.457 269.764 139.285 269.602 138.858C269.441 138.431 269.243 137.753 269.097 136.873C268.331 131.628 268.092 126.048 268.045 120.459C268.019 116.307 268.107 112.135 268.326 107.973H268.363L268.368 107.962Z" fill="#231F20"/>
<path d="M309.264 122.801C309.353 120.655 309.4 118.499 309.4 116.347C309.4 115.561 309.343 114.779 309.353 113.993C309.353 111.221 309.322 108.45 309.166 105.684C309.098 104.455 308.973 103.225 308.822 102.017C308.712 101.246 308.608 100.47 308.499 99.6935L308.353 98.537C308.316 98.3495 308.327 98.1516 308.332 97.9536C308.332 97.7609 308.342 97.5629 308.332 97.3754C308.316 96.9482 308.358 96.9014 308.712 97.2504C308.879 97.4275 309.113 97.6827 309.369 98.0109C309.593 98.3443 309.733 98.7558 309.832 99.209C310.004 100.011 310.108 100.819 310.202 101.621C310.296 102.428 310.374 103.231 310.437 104.038C310.562 105.653 310.634 107.273 310.645 108.898C310.661 110.846 310.832 112.862 310.874 114.847C310.9 117.035 310.874 119.223 310.812 121.405C310.775 122.749 310.713 124.093 310.65 125.437C310.551 127.474 310.39 129.511 310.239 131.532C310.129 133.1 310.051 134.642 309.916 136.199C309.879 136.543 309.858 136.877 309.817 137.22C309.759 137.861 309.598 138.267 309.488 138.549C309.426 138.689 309.363 138.799 309.285 138.882C309.197 138.965 309.098 139.028 309.014 139.085C308.936 139.137 308.863 139.205 308.816 139.236C308.697 139.341 308.363 138.757 308.41 137.83C308.52 135.074 308.764 132.199 308.926 129.292C309.051 127.135 309.171 124.968 309.228 122.801H309.264Z" fill="#231F20"/>
<path d="M276.197 109.566L275.228 109.514L274.561 109.473C274.405 109.473 274.29 109.421 274.165 109.384C274.04 109.342 273.92 109.306 273.801 109.259C273.728 109.144 273.676 109.014 273.618 108.894C273.571 108.764 273.551 108.597 273.514 108.452C273.488 108.311 273.488 108.097 273.483 107.993L273.472 107.717L273.457 106.623C273.457 106.123 273.42 105.623 273.426 105.123L273.462 103.675L273.483 103.399C273.499 103.315 273.525 103.232 273.545 103.154C273.556 103.065 273.613 103.013 273.681 102.956C273.743 102.899 273.811 102.852 273.884 102.805C274.009 102.69 274.197 102.654 274.363 102.596C274.556 102.524 274.634 102.524 274.754 102.492C275.66 102.305 276.546 102.206 277.442 102.164C278.234 102.128 279.031 102.086 279.822 102.096C280.328 102.117 280.838 102.143 281.349 102.216C281.854 102.31 282.349 102.487 282.802 102.742C283.089 102.899 283.026 102.94 282.734 103.029C282.443 103.107 281.917 103.362 281.375 103.399C281.13 103.414 280.896 103.388 280.656 103.388H279.932C279.447 103.404 278.968 103.393 278.484 103.414C277.515 103.456 276.535 103.519 275.567 103.617C275.426 103.638 275.275 103.654 275.134 103.68L274.811 103.748C274.764 103.758 274.712 103.769 274.676 103.8C274.655 103.841 274.66 103.894 274.66 103.946L274.65 104.295V104.758C274.65 105.071 274.65 105.378 274.65 105.691V107.222L274.665 107.978C274.671 108.071 274.65 108.202 274.697 108.285C274.853 108.311 274.895 108.321 275.317 108.332C276.15 108.353 276.994 108.363 277.838 108.363C279.114 108.363 280.395 108.379 281.661 108.327C281.906 108.316 282.151 108.301 282.391 108.28L282.578 108.254L282.667 108.238C282.698 108.238 282.724 108.228 282.729 108.186C282.75 108.123 282.755 108.061 282.76 108.004V107.915L282.766 107.879L282.776 107.795C282.802 107.566 282.818 107.332 282.833 107.097C282.844 106.889 282.854 106.686 282.859 106.477C282.891 106.092 282.917 105.842 282.99 105.665C283.073 105.488 283.182 105.389 283.344 105.3C283.417 105.264 283.49 105.212 283.563 105.185C283.682 105.144 283.792 105.206 283.896 105.357C283.995 105.508 284.089 105.748 284.11 106.055C284.146 106.514 284.167 106.972 284.136 107.446C284.12 107.696 284.104 107.889 284.058 108.191C284.021 108.41 283.974 108.618 283.906 108.816C283.849 109.03 283.709 109.155 283.583 109.301C283.307 109.514 282.818 109.561 282.411 109.572L281.719 109.603C281.26 109.613 280.797 109.629 280.333 109.639C278.958 109.665 277.577 109.645 276.197 109.603V109.572V109.566Z" fill="#231F20"/>
<path d="M297.055 109.52L295.82 109.484L295.117 109.463C294.721 109.478 294.43 109.348 294.127 109.249C294.008 109.041 293.909 108.838 293.867 108.556C293.83 108.431 293.825 108.285 293.82 108.14L293.81 107.843L293.789 106.879C293.784 106.342 293.747 105.811 293.752 105.28L293.778 103.785C293.81 103.389 293.81 102.998 294.153 102.811C294.44 102.623 294.924 102.524 295.102 102.488C296.065 102.305 297.003 102.201 297.956 102.154C298.8 102.113 299.644 102.071 300.483 102.076C301.019 102.092 301.566 102.113 302.103 102.185C302.639 102.279 303.171 102.456 303.66 102.717C303.962 102.883 303.9 102.92 303.592 103.003C303.441 103.045 303.223 103.113 302.973 103.201C302.723 103.279 302.446 103.342 302.15 103.368C301.634 103.368 301.123 103.347 300.608 103.368C300.092 103.373 299.576 103.368 299.055 103.394C298.019 103.441 296.966 103.509 295.925 103.608C295.768 103.623 295.612 103.644 295.461 103.67L295.122 103.733C295.075 103.743 295.013 103.748 294.982 103.79C294.971 103.842 294.971 103.894 294.971 103.946L294.961 104.368V104.863C294.961 105.196 294.961 105.525 294.961 105.858V107.29L294.982 107.962C294.987 108.051 294.966 108.166 295.013 108.244C295.117 108.265 295.19 108.265 295.341 108.275L296.081 108.285C296.977 108.285 297.873 108.275 298.769 108.254L300.811 108.218L301.827 108.186L302.332 108.166L302.743 108.14C302.837 108.134 302.905 108.124 302.973 108.119C303.004 108.108 303.051 108.119 303.066 108.087C303.082 108.051 303.082 108.015 303.087 107.978C303.092 107.905 303.092 107.837 303.092 107.759V107.462C303.087 106.952 303.061 106.441 303.046 105.926C303.035 105.696 303.019 105.478 303.019 105.248C303.009 104.399 303.129 104.134 303.457 103.946C303.53 103.904 303.603 103.847 303.676 103.821C303.796 103.779 303.905 103.847 304.009 103.998C304.108 104.155 304.212 104.399 304.249 104.717C304.379 105.655 304.431 106.613 304.41 107.613C304.379 107.863 304.421 108.52 304.186 108.822C304.134 108.911 304.077 108.978 304.014 109.062L303.994 109.093V109.098C304.046 109.155 304.004 109.114 304.02 109.129H304.014L303.999 109.145L303.947 109.187C303.915 109.218 303.874 109.244 303.816 109.254C303.613 109.322 303.4 109.39 303.186 109.39L302.212 109.447L301.472 109.478C300.009 109.536 298.54 109.546 297.065 109.536V109.504L297.055 109.52Z" fill="#231F20"/>
<path d="M276.614 123.991L275.645 123.939L274.978 123.897C274.822 123.897 274.707 123.845 274.582 123.809C274.457 123.767 274.337 123.731 274.217 123.684C274.145 123.569 274.092 123.439 274.035 123.319C273.988 123.189 273.967 123.022 273.931 122.876C273.905 122.736 273.905 122.522 273.9 122.418L273.889 122.142L273.874 121.048C273.874 120.548 273.837 120.048 273.842 119.548L273.879 118.099L273.9 117.823C273.915 117.74 273.941 117.657 273.962 117.578C273.973 117.49 274.03 117.438 274.098 117.381C274.16 117.323 274.228 117.276 274.301 117.229C274.426 117.115 274.613 117.078 274.78 117.021C274.973 116.948 275.051 116.948 275.171 116.917C276.077 116.729 276.963 116.63 277.859 116.589C278.65 116.552 279.447 116.511 280.239 116.521C280.745 116.542 281.255 116.568 281.766 116.641C282.271 116.735 282.766 116.912 283.219 117.167C283.505 117.323 283.443 117.365 283.151 117.453C282.859 117.532 282.333 117.787 281.792 117.823C281.547 117.839 281.312 117.813 281.073 117.813H280.349C279.864 117.829 279.385 117.818 278.9 117.839C277.932 117.881 276.952 117.943 275.983 118.042C275.843 118.063 275.692 118.079 275.551 118.105L275.228 118.172C275.181 118.183 275.129 118.193 275.093 118.224C275.072 118.266 275.077 118.318 275.077 118.37L275.067 118.719V119.183C275.067 119.495 275.067 119.803 275.067 120.115V121.647L275.082 122.402C275.087 122.496 275.067 122.626 275.113 122.71C275.27 122.736 275.311 122.746 275.733 122.756C276.567 122.777 277.411 122.788 278.255 122.788C279.531 122.788 280.812 122.803 282.078 122.751C282.323 122.741 282.568 122.725 282.807 122.704L282.995 122.678L283.083 122.663C283.115 122.663 283.141 122.652 283.146 122.611C283.167 122.548 283.172 122.486 283.177 122.428V122.34L283.182 122.303L283.193 122.22C283.219 121.991 283.235 121.756 283.25 121.522C283.261 121.313 283.271 121.11 283.276 120.902C283.307 120.516 283.333 120.266 283.406 120.089C283.49 119.912 283.599 119.813 283.761 119.725C283.834 119.688 283.907 119.636 283.979 119.61C284.099 119.568 284.209 119.631 284.313 119.782C284.412 119.933 284.506 120.173 284.526 120.48C284.563 120.938 284.584 121.397 284.552 121.871C284.537 122.121 284.521 122.314 284.474 122.616C284.438 122.835 284.391 123.043 284.323 123.241C284.266 123.454 284.125 123.579 284 123.725C283.724 123.939 283.235 123.986 282.828 123.996L282.135 124.027C281.677 124.038 281.213 124.054 280.75 124.064C279.375 124.09 277.994 124.069 276.614 124.027V123.996V123.991Z" fill="#231F20"/>
<path d="M297.47 123.949L296.236 123.913L295.532 123.892C295.136 123.908 294.845 123.778 294.543 123.679C294.423 123.47 294.324 123.267 294.282 122.986C294.246 122.861 294.24 122.715 294.235 122.569L294.225 122.272L294.204 121.308C294.199 120.772 294.162 120.24 294.168 119.709L294.194 118.214C294.225 117.818 294.225 117.428 294.569 117.24C294.855 117.052 295.34 116.953 295.517 116.917C296.48 116.735 297.418 116.631 298.371 116.584C299.215 116.542 300.059 116.5 300.898 116.506C301.434 116.521 301.981 116.542 302.518 116.615C303.054 116.709 303.586 116.886 304.075 117.146C304.378 117.313 304.315 117.349 304.008 117.433C303.857 117.474 303.638 117.542 303.388 117.631C303.138 117.709 302.862 117.771 302.565 117.797C302.049 117.797 301.539 117.777 301.023 117.797C300.507 117.803 299.991 117.797 299.47 117.823C298.434 117.87 297.382 117.938 296.34 118.037C296.183 118.053 296.027 118.073 295.876 118.1L295.538 118.162C295.491 118.172 295.428 118.178 295.397 118.219C295.386 118.271 295.386 118.324 295.386 118.376L295.376 118.798V119.292C295.376 119.626 295.376 119.954 295.376 120.287V121.72L295.397 122.392C295.402 122.48 295.381 122.595 295.428 122.673C295.532 122.694 295.605 122.694 295.756 122.704L296.496 122.715C297.392 122.715 298.288 122.704 299.184 122.684L301.226 122.647L302.242 122.616L302.747 122.595L303.159 122.569C303.252 122.564 303.32 122.553 303.388 122.548C303.419 122.538 303.466 122.548 303.482 122.517C303.497 122.48 303.497 122.444 303.502 122.408C303.508 122.335 303.508 122.267 303.508 122.189V121.892C303.502 121.381 303.476 120.871 303.461 120.355C303.45 120.126 303.435 119.907 303.435 119.678C303.424 118.829 303.544 118.563 303.872 118.376C303.945 118.334 304.018 118.277 304.091 118.251C304.211 118.209 304.32 118.277 304.424 118.428C304.523 118.584 304.628 118.829 304.664 119.147C304.794 120.084 304.846 121.043 304.825 122.043C304.794 122.293 304.836 122.949 304.601 123.251C304.549 123.34 304.492 123.408 304.43 123.491L304.409 123.522V123.527C304.461 123.585 304.419 123.543 304.435 123.559H304.43L304.414 123.574L304.362 123.616C304.331 123.647 304.289 123.673 304.232 123.684C304.028 123.751 303.815 123.819 303.601 123.819L302.627 123.876L301.888 123.908C300.424 123.965 298.955 123.975 297.481 123.965V123.934L297.47 123.949Z" fill="#231F20"/>
<path d="M312.953 137.986C313.276 138.033 313.604 138.07 313.937 138.096C314.057 138.106 314.177 138.075 314.302 138.085C314.734 138.132 315.172 138.148 315.609 138.195C315.802 138.21 315.995 138.195 316.188 138.184C316.432 138.174 316.682 138.195 316.938 138.278C317.016 138.304 317.016 138.403 316.964 138.533C316.912 138.658 316.813 138.851 316.677 138.935C316.557 138.997 316.443 139.07 316.323 139.122C316.203 139.153 316.078 139.179 315.953 139.2C315.708 139.237 315.458 139.273 315.198 139.216C314.89 139.164 314.583 139.252 314.271 139.268C313.927 139.284 313.583 139.278 313.234 139.268C313.02 139.268 312.807 139.247 312.588 139.237C312.26 139.221 311.937 139.174 311.609 139.169C311.353 139.159 311.088 139.216 310.827 139.185C310.77 139.174 310.713 139.185 310.655 139.153C310.452 139.054 310.411 138.945 310.437 138.7C310.442 138.643 310.447 138.591 310.457 138.539C310.489 138.367 310.614 138.231 310.77 138.148C311.004 138.013 311.202 137.95 311.406 137.924C311.609 137.887 311.807 137.898 312.015 137.908C312.328 137.924 312.645 137.945 312.963 137.96V137.992L312.953 137.986Z" fill="#231F20"/>
<path d="M292.58 129.401L292.2 129.141L291.778 128.948C291.507 128.792 291.173 128.76 290.871 128.662C290.553 128.599 290.22 128.589 289.892 128.547H289.392C289.225 128.557 289.069 128.583 288.902 128.594C288.433 128.667 287.991 128.823 287.579 129.016C287.22 129.198 286.881 129.427 286.579 129.703C286.282 129.99 286.022 130.323 285.787 130.688C285.334 131.428 285.032 132.287 284.829 133.178C284.646 133.97 284.594 134.798 284.553 135.616C284.526 136.142 284.537 136.673 284.532 137.205C284.532 137.736 284.526 138.272 284.375 138.819C284.25 139.163 284.131 139.101 283.891 138.819C283.766 138.679 283.631 138.481 283.485 138.241C283.36 138.002 283.287 137.715 283.266 137.403C283.125 135.199 283.276 132.813 284.407 130.657C284.75 130.021 285.157 129.391 285.688 128.839C286.219 128.292 286.891 127.854 287.61 127.604C288.402 127.328 289.225 127.245 290.017 127.276C290.809 127.333 291.621 127.443 292.372 127.781C293.294 128.167 294.122 128.813 294.695 129.62C295.586 130.834 295.976 132.277 296.232 133.662C296.409 134.746 296.565 135.824 296.581 136.908C296.591 137.147 296.596 137.382 296.575 137.621C296.554 137.845 296.539 138.028 296.502 138.179C296.461 138.33 296.393 138.45 296.341 138.549C296.226 138.741 296.112 138.845 295.966 138.924C295.903 138.96 295.841 139.007 295.789 139.028C295.627 139.09 295.445 138.71 295.299 138.074C295.174 137.142 295.169 136.215 295.049 135.288C294.934 134.366 294.789 133.449 294.554 132.574C294.351 131.943 294.143 131.308 293.799 130.776C293.653 130.485 293.439 130.271 293.252 130.016C293.148 129.901 293.028 129.808 292.918 129.703L292.752 129.547C292.689 129.5 292.622 129.464 292.559 129.422L292.575 129.391L292.58 129.401Z" fill="#231F20"/>
<path d="M289.114 139.547L282.139 139.401L279.597 139.391C276.607 139.323 273.622 139.25 270.632 139.234C269.309 139.234 267.975 139.276 266.663 139.323C264.975 139.365 263.298 139.51 261.605 139.37C261.068 139.318 261.136 139.338 261.558 139.141C261.974 138.911 262.777 138.469 263.756 138.302C267.225 137.88 270.689 137.927 274.174 138.021C276.258 138.093 278.43 138.01 280.561 138.015C282.905 138.015 285.249 138.057 287.593 138.088C289.036 138.109 290.479 138.125 291.917 138.146C294.099 138.166 296.293 138.208 298.46 138.177C300.142 138.156 301.793 138.041 303.46 137.963C303.825 137.948 304.184 137.916 304.554 137.906C305.924 137.869 306.362 137.958 306.659 138.37C306.727 138.458 306.815 138.547 306.857 138.63C306.992 138.906 306.435 139.219 305.429 139.302C302.45 139.594 299.309 139.635 296.157 139.641C293.813 139.641 291.464 139.604 289.114 139.583V139.547Z" fill="#231F20"/>
<path d="M284.047 87.4041C286.902 85.534 290.46 85.409 293.262 87.4458C293.596 87.6854 294.101 87.4979 294.294 87.1749C294.523 86.7946 294.351 86.3779 294.023 86.1435C290.819 83.8098 286.542 83.9608 283.282 86.1018C282.474 86.6332 283.229 87.9407 284.042 87.4041H284.047Z" fill="#231F20"/>
<path d="M276.848 83.7949C280.307 81.5081 284.329 80.112 288.491 80.0287C292.653 79.9454 296.982 81.3362 300.477 83.8991C301.357 84.5451 302.201 83.0761 301.331 82.4353C295.544 78.1847 288.006 77.247 281.276 79.6745C279.416 80.3465 277.64 81.2372 275.994 82.3259C275.088 82.925 275.937 84.3888 276.848 83.7897V83.7949Z" fill="#231F20"/>
<path d="M268.684 80.5597C277.852 74.4805 289.479 72.35 299.975 76.0746C303.08 77.1789 305.981 78.7833 308.633 80.7368C309.508 81.3827 310.357 79.9137 309.487 79.273C304.684 75.7255 299.069 73.47 293.136 72.7511C287.202 72.0322 281.722 72.8292 276.404 74.7618C273.382 75.861 270.502 77.3143 267.824 79.0907C266.918 79.6897 267.767 81.1587 268.679 80.5545L268.684 80.5597Z" fill="#231F20"/>
<path d="M288.912 88.707H288.829C288.688 88.7018 288.553 88.7331 288.433 88.7956C288.308 88.8373 288.193 88.9102 288.1 89.0092C288.001 89.1029 287.928 89.2123 287.886 89.3426C287.824 89.4676 287.792 89.5978 287.798 89.7385L287.834 90.0145C287.881 90.1864 287.969 90.3427 288.1 90.4677L288.308 90.6292C288.47 90.723 288.641 90.7699 288.829 90.7699H288.912C289.053 90.7751 289.188 90.7438 289.308 90.6813C289.433 90.6396 289.548 90.5667 289.642 90.4677C289.741 90.374 289.814 90.2646 289.855 90.1344C289.918 90.0093 289.949 89.8791 289.944 89.7385L289.907 89.4624C289.86 89.2905 289.772 89.1342 289.642 89.0092L289.433 88.8477C289.272 88.7539 289.1 88.707 288.912 88.707Z" fill="#231F20"/>
<path d="M288 50V34H102" stroke="#C7C7C7" stroke-dasharray="2 2"/>
<path d="M105 167V181L288 181" stroke="#C7C7C7" stroke-dasharray="2 2"/>
</svg>
