<svg width="350" height="210" viewBox="0 0 350 210" fill="none" xmlns="http://www.w3.org/2000/svg">
<rect width="350" height="210" rx="4" fill="white"/>
<path opacity="0.2" d="M116.457 127.874C116.457 127.874 124.509 124.164 127.63 121.084C130.751 118.003 137.922 105.06 140.052 101.285C142.182 97.5026 157.09 92.4922 158.108 93.0132C159.126 93.5341 157.762 96.2941 156.515 97.0745C155.269 97.8549 154.14 98.4562 154.14 98.4562C154.14 98.4562 162.881 99.1242 162.894 100.237C162.907 101.349 161.912 103.083 159.147 102.784C156.382 102.485 150.964 103.301 147.792 106.859C147.792 106.859 146.668 109.023 148.487 108.487C150.305 107.951 155.449 104.647 156.771 105.705C158.083 106.771 158.458 107.362 157.398 108.399C156.339 109.437 151.839 112.004 150.354 112.576C148.87 113.14 147.32 117.159 145.393 117.776C143.466 118.401 143.052 118.84 142.21 118.467C141.36 118.094 118.592 140.771 118.592 140.771L116.455 127.89L116.457 127.874Z" fill="black"/>
<path d="M118.691 132.699C118.838 133.557 118.962 134.413 119.087 135.269C119.131 135.58 119.213 135.888 119.249 136.198C119.379 137.292 119.508 138.401 119.637 139.495C119.709 139.977 119.788 140.461 119.86 140.943C119.912 141.248 119.964 141.56 120.016 141.864C120.045 142.173 120.042 142.495 120.039 142.809C120.026 143.006 119.919 143.003 119.742 142.869C119.572 142.736 119.277 142.483 119.113 142.144C118.909 141.533 118.753 140.911 118.604 140.29C118.509 139.659 118.447 139.017 118.407 138.377C118.358 137.606 118.163 136.834 118.03 136.062C117.882 135.211 117.749 134.37 117.585 133.525C117.486 133.009 117.38 132.492 117.266 131.974C117.079 131.196 116.902 130.411 116.643 129.664C116.436 129.083 116.172 128.542 115.94 127.981L115.779 127.619C115.613 127.15 115.665 126.956 115.885 126.757C115.936 126.709 115.988 126.653 116.037 126.62C116.219 126.493 116.466 126.619 116.709 126.928C117.059 127.394 117.318 127.912 117.577 128.437C117.804 128.974 117.974 129.544 118.136 130.112C118.376 130.957 118.553 131.826 118.73 132.688L118.699 132.7L118.691 132.699Z" fill="black"/>
<path d="M118.468 141.877C118.468 141.877 121.312 150.152 123.101 149.238C125.385 148.069 120.88 139.488 120.88 139.488L118.468 141.877Z" fill="black"/>
<path d="M92.4362 133.411C96.6192 130.795 100.874 128.224 105.412 126.098C107.064 125.322 108.751 124.58 110.532 124.032L111.118 123.856C111.323 123.801 111.468 123.732 111.804 123.676C112.084 123.629 112.33 123.624 112.523 123.614C112.73 123.613 112.801 123.589 113.175 123.598C113.791 123.571 114.413 123.851 114.884 124.184C115.321 124.544 115.645 124.954 115.886 125.355C116.368 126.164 116.65 126.975 116.88 127.773C117.11 128.571 117.295 129.365 117.449 130.155C118.066 133.315 118.427 136.441 119.062 139.503C119.34 140.858 119.682 142.196 120.137 143.478C120.584 144.758 121.16 145.984 121.954 146.956C122.074 147.122 122.212 147.267 122.352 147.396L122.56 147.602C122.629 147.671 122.652 147.673 122.694 147.708C122.844 147.816 123.028 147.958 123.212 147.885C123.39 147.797 123.443 147.58 123.477 147.408C123.506 147.28 123.567 146.773 123.585 146.377C123.62 145.538 123.589 144.669 123.528 143.797C123.482 143.363 123.482 142.926 123.482 142.482C123.476 142.037 123.461 141.598 123.431 141.151C123.356 140.047 123.484 140.145 123.998 141.011C124.251 141.444 124.591 142.07 124.982 142.862C125.312 143.663 125.516 144.634 125.584 145.737C125.601 146.229 125.609 146.728 125.569 147.26L125.547 147.465L125.508 147.767C125.488 147.957 125.425 148.187 125.378 148.412C125.242 148.835 125.061 149.245 124.8 149.539C124.292 150.144 123.376 150.4 122.627 150.092C122.432 150.048 122.248 149.906 122.07 149.78L121.519 149.408L121.247 149.226L121.094 149.08L120.789 148.779C119.26 147.147 118.539 145.263 117.957 143.44C116.866 139.762 116.465 136.081 115.926 132.469C115.763 131.394 115.579 130.31 115.321 129.264C115.063 128.225 114.736 127.187 114.252 126.393C114.009 126.015 113.732 125.733 113.496 125.647C113.435 125.641 113.377 125.611 113.317 125.598C113.247 125.605 113.178 125.606 113.11 125.599C112.786 125.626 112.479 125.632 112.292 125.658C112.175 125.676 112.16 125.675 112.025 125.722L111.636 125.849L110.851 126.096C110.329 126.256 109.816 126.47 109.306 126.654C104.794 128.4 100.51 130.883 96.3011 133.45C93.7127 135.039 91.149 136.685 88.5988 138.347C84.7257 140.858 80.8138 143.372 76.8438 145.712C73.7433 147.508 70.6814 149.3 67.1977 150.442C66.8096 150.562 66.4224 150.674 66.0419 150.795C65.6419 150.883 65.2427 150.964 64.8351 151.051C63.3024 151.273 62.22 151.22 61.5018 150.983C61.1469 150.862 60.8653 150.771 60.6607 150.603C60.4661 150.414 60.3338 150.217 60.2217 150.044C60.124 149.88 59.9876 149.72 59.945 149.616C59.8724 149.432 60.154 149.378 60.6844 149.288C60.8156 149.279 60.9676 149.218 61.1099 149.249C61.2639 149.242 61.4406 149.238 61.6172 149.233C61.8015 149.23 61.9909 149.25 62.1979 149.248C62.4141 149.233 62.6378 149.218 62.8767 149.205C65.7178 148.999 68.6321 147.735 71.4698 146.326C74.3123 144.871 77.1392 143.2 79.937 141.441C84.0965 138.83 88.2333 136.071 92.4235 133.387L92.4574 133.429L92.4362 133.411Z" fill="black"/>
<path d="M148.98 97.1848C147.28 97.9097 145.577 98.6573 143.937 99.4576C143.525 99.6593 143.121 99.8619 142.731 100.074L142.169 100.39C142.005 100.488 141.8 100.619 141.757 100.661C141.594 100.896 141.34 101.13 141.144 101.531L140.834 102.08L140.547 102.694C139.992 103.884 139.519 105.182 138.959 106.426C137.005 110.863 134.422 115.157 131.031 118.692C130.254 119.453 129.538 120.281 128.692 120.966L127.476 122.041C127.084 122.413 126.617 122.701 126.199 123.032C125.643 123.441 125.099 123.874 124.529 124.266L122.726 125.31L121.823 125.812C121.508 125.963 121.194 126.106 120.868 126.217L119.889 126.566C119.563 126.677 119.219 126.748 118.888 126.836C118.048 127.031 118.152 126.981 118.698 126.456C119.233 125.892 120.177 124.857 121.455 124.065C122.563 123.293 123.703 122.586 124.754 121.769C125.28 121.357 125.854 121.004 126.346 120.55L127.856 119.231C129.797 117.39 131.58 115.371 133.155 113.154C135.045 110.488 136.418 107.346 137.75 104.222C138.132 103.359 138.492 102.492 138.922 101.611C139.113 101.179 139.383 100.725 139.629 100.283C139.736 100.065 139.96 99.8277 140.121 99.6071C140.217 99.4947 140.29 99.3874 140.402 99.269C140.554 99.1318 140.662 99.0588 140.778 98.9715C141.667 98.3909 142.504 98.0042 143.369 97.5743C144.225 97.1588 145.094 96.7677 145.953 96.3909C148.083 95.4507 150.237 94.5667 152.402 93.7223C153.504 93.2945 154.621 92.8758 155.749 92.4967L156.606 92.2192L157.041 92.0888L157.569 91.9453C157.979 91.8428 158.394 91.7487 158.759 91.7795C158.941 91.7986 159.115 91.817 159.263 91.9399C159.362 92.0882 159.436 92.2645 159.519 92.4189L159.651 92.9844C159.661 93.1846 159.678 93.3856 159.68 93.5774C159.651 93.7812 159.638 93.979 159.594 94.1812C159.527 94.381 159.496 94.531 159.426 94.6845C159.169 95.3086 158.77 95.8183 158.348 96.2641C157.326 97.3133 156.145 98.047 154.961 98.742C153.771 99.421 152.558 100.021 151.327 100.581C150.787 100.831 150.263 101.082 149.705 101.291C148.681 101.697 147.992 101.907 147.471 101.983C146.964 102.067 146.644 102.056 146.346 101.972C146.212 101.934 146.045 101.917 145.959 101.869C145.652 101.722 146.371 101.078 147.784 100.254C149.863 99.1319 152.08 98.2316 154.118 97.0749C155.128 96.4995 156.106 95.8746 156.856 95.1568C157.223 94.7971 157.523 94.4227 157.682 94.0718C157.729 93.9924 157.763 93.8887 157.777 93.8289C157.787 93.807 157.777 93.8289 157.779 93.8137C157.779 93.8137 157.818 93.8026 157.731 93.8241L157.415 93.921L156.772 94.1291C155.914 94.4217 155.045 94.7439 154.174 95.0812C152.441 95.749 150.711 96.4707 149 97.2175L148.974 97.1765L148.98 97.1848Z" fill="black"/>
<path d="M159.883 101.336C160.153 101.319 160.415 101.301 160.679 101.267L161.038 101.213L161.13 101.207C161.239 101.196 161.396 101.159 161.523 101.042C161.54 101.021 161.558 101 161.576 100.979C161.624 100.884 161.497 100.855 161.445 100.835C161.387 100.805 161.306 100.774 161.202 100.74C161.142 100.726 161.121 100.708 161.008 100.689L160.443 100.599C159.69 100.481 158.93 100.347 158.179 100.207C157.502 100.082 156.825 99.9647 156.149 99.8398C155.712 99.7632 155.271 99.663 154.852 99.4887C154.64 99.3974 154.426 99.3212 154.233 99.1859C154.041 99.0432 153.859 98.886 153.693 98.7153C153.495 98.4876 153.6 98.4373 153.889 98.3835C154.029 98.36 154.233 98.3125 154.446 98.2583C154.676 98.183 154.902 98.1455 155.119 98.199C155.922 98.2836 156.727 98.4986 157.564 98.6251C158.398 98.7744 159.259 98.8957 160.119 99.0936C160.681 99.2141 161.006 99.256 162.074 99.3762C162.512 99.4376 162.981 99.4947 163.296 99.6275C163.612 99.7604 163.85 99.9004 163.95 100.11C163.998 100.169 163.992 100.291 164.06 100.375C164.049 100.481 164.061 100.589 164.027 100.693C163.862 101.311 163.485 101.831 162.84 102.215C162.223 102.61 161.331 102.861 160.896 102.922C160.123 103.055 159.358 103.12 158.6 103.117C157.45 103.118 156.313 103.006 155.192 102.88C154.321 102.788 153.452 102.75 152.565 102.58C152.371 102.537 152.173 102.524 151.982 102.442C151.267 102.183 151.098 101.89 151.151 101.466C151.161 101.368 151.171 101.269 151.195 101.187C151.285 100.913 151.652 100.783 152.115 100.817C153.514 100.918 154.997 101.174 156.512 101.265C157.629 101.352 158.762 101.356 159.849 101.295L159.845 101.333L159.883 101.336Z" fill="black"/>
<path d="M151.835 110.67C153.578 109.981 155.342 109.239 156.513 108.083C156.711 107.874 156.882 107.639 156.991 107.406C157.071 107.292 157.092 107.171 157.142 107.054C157.173 106.981 157.176 106.958 157.186 106.936C157.188 106.913 157.199 106.884 157.201 106.861C157.217 106.786 157.195 106.699 157.133 106.639C157.069 106.587 157.013 106.542 156.749 106.499C156.282 106.419 155.695 106.465 155.149 106.56C154.137 106.707 153.036 107.418 151.875 107.893C150.847 108.344 149.787 108.8 148.628 109.038C147.887 109.166 147.063 109.279 146.26 108.98C146.058 108.928 145.878 108.817 145.698 108.706C145.519 108.595 145.33 108.499 145.201 108.339C144.877 108.068 144.778 107.621 144.614 107.289C144.439 106.842 144.541 106.891 144.922 107.061C145.13 107.121 145.332 107.311 145.745 107.247C145.931 107.229 146.03 107.308 146.181 107.324C146.325 107.339 146.461 107.354 146.586 107.405C147.07 107.471 147.574 107.555 148.167 107.457C148.752 107.357 149.37 107.162 149.984 106.936C150.608 106.687 151.234 106.416 151.871 106.115C152.53 105.825 153.151 105.523 153.969 105.256C154.467 105.102 154.934 105.036 155.416 104.972C155.897 104.915 156.391 104.883 156.935 104.948C157.452 104.987 158.333 105.279 158.653 105.949C158.999 106.591 158.775 107.486 158.563 107.893C158.048 109.003 157.177 109.708 156.334 110.294C155.476 110.87 154.571 111.319 153.663 111.721C153.108 111.969 152.548 112.193 151.996 112.419L151.193 112.763L150.83 112.939C150.74 112.991 150.65 113.051 150.581 113.12C150.342 113.355 150.056 113.739 149.796 114.095C149.528 114.457 149.252 114.826 148.961 115.187C148.386 115.915 147.76 116.623 147.044 117.237C146.494 117.731 145.876 118.148 145.209 118.515C144.524 118.833 143.783 119.1 142.996 119.155C142.657 119.173 142.313 119.244 141.975 119.178C141.657 119.144 141.394 119.093 141.176 119.047C140.97 118.972 140.82 118.864 140.691 118.782C140.441 118.61 140.348 118.401 140.305 118.159C140.285 118.057 140.242 117.953 140.243 117.876C140.221 117.644 140.807 117.392 141.543 117.462C142.637 117.547 143.658 117.386 144.59 116.902C145.523 116.41 146.371 115.634 147.141 114.719C147.727 114.03 148.242 113.287 148.874 112.45L149.155 112.112C149.227 112.012 149.421 111.841 149.557 111.717C149.701 111.587 149.887 111.492 150.034 111.4L150.422 111.211C150.912 110.994 151.352 110.819 151.801 110.628L151.82 110.669L151.835 110.67Z" fill="black"/>
<path d="M124.795 133.748L127.703 130.951C128.053 130.605 128.368 130.232 128.726 129.894C129.992 128.71 131.258 127.526 132.525 126.341C133.1 125.827 133.648 125.28 134.187 124.739C134.53 124.392 134.91 124.064 135.281 123.743L135.566 123.505L135.893 123.31C136.113 123.188 136.325 123.064 136.553 122.935C136.829 122.788 136.837 122.858 136.754 123.14C136.694 123.341 136.642 123.55 136.584 123.735C136.538 123.876 136.502 124.002 136.466 124.129C136.444 124.195 136.414 124.261 136.398 124.336L136.28 124.508C135.978 124.905 135.682 125.31 135.367 125.691C135.036 126.062 134.699 126.425 134.355 126.779C133.688 127.514 132.951 128.187 132.178 128.833C131.261 129.61 130.461 130.583 129.603 131.458L126.747 134.344L124.99 136.12C124.105 137.023 123.186 137.899 122.338 138.821C121.673 139.533 121.1 140.315 120.464 141.045C120.317 141.206 120.192 141.369 120.038 141.521C119.466 142.081 119.19 142.159 118.752 141.945C118.65 141.896 118.547 141.854 118.454 141.798C118.161 141.599 118.184 141.157 118.512 140.663C119.443 139.175 120.703 137.906 121.938 136.58C122.861 135.597 123.834 134.658 124.786 133.693L124.821 133.72L124.795 133.748Z" fill="black"/>
<path d="M86.2679 169.421C88.9756 167.355 91.809 165.332 94.7413 163.534C95.8062 162.88 96.8523 162.185 97.9367 161.564C101.776 159.379 105.776 157.479 109.891 155.875C111.719 155.171 113.561 154.484 115.411 153.874C116.594 153.478 117.796 153.122 119.022 152.83L120.827 152.423C121.134 152.348 121.453 152.297 121.792 152.279C122.13 152.269 122.486 152.237 122.843 152.344C123.279 152.497 123.414 152.664 123.385 152.723C123.354 152.796 123.131 152.811 122.808 152.961C122.493 153.119 122.119 153.325 121.664 153.637C121.229 153.921 120.523 154.214 119.876 154.399C117.496 155.098 115.127 155.837 112.793 156.686C110.451 157.535 108.144 158.487 105.831 159.5C103.068 160.71 100.367 162.349 97.7112 163.923C94.7837 165.676 91.9611 167.524 89.2382 169.589C87.5575 170.852 85.8964 172.148 84.2276 173.443C81.6918 175.405 79.0781 177.306 76.3752 179.036C74.2733 180.37 72.1822 181.674 69.8993 182.69C69.406 182.937 68.9031 183.129 68.391 183.336C67.4382 183.726 66.7709 183.878 66.2856 183.903C65.7994 183.936 65.4943 183.85 65.2224 183.668C65.0932 183.586 64.9404 183.508 64.8591 183.408C64.5787 183.087 65.2739 182.525 66.5877 181.981C68.5391 181.129 70.5038 180.226 72.4262 179.141C74.341 178.056 76.2299 176.853 78.0829 175.554C80.8309 173.614 83.5131 171.498 86.234 169.379L86.2687 169.414L86.2679 169.421Z" fill="black"/>
<rect x="177.748" y="23.1505" width="105.24" height="97.2396" fill="white" stroke="#E5E5E5" stroke-width="0.760417"/>
<path d="M257.008 111.69L258.754 104.761L260.282 104.761L262.038 111.69L260.823 111.69L260.444 110.01L258.602 110.01L258.223 111.69L257.008 111.69ZM258.821 109.042L260.225 109.042L259.808 107.181C259.738 106.871 259.678 106.593 259.628 106.346C259.577 106.093 259.542 105.909 259.523 105.795C259.504 105.909 259.469 106.093 259.419 106.346C259.374 106.593 259.314 106.868 259.238 107.172L258.821 109.042ZM264.996 111.69L264.996 104.761L267.302 104.761C267.764 104.761 268.166 104.849 268.508 105.027C268.856 105.204 269.125 105.454 269.315 105.776C269.505 106.093 269.599 106.466 269.599 106.896C269.599 107.32 269.501 107.694 269.305 108.016C269.115 108.339 268.85 108.589 268.508 108.766C268.166 108.943 267.764 109.032 267.302 109.032L266.182 109.032L266.182 111.69L264.996 111.69ZM266.182 107.96L267.302 107.96C267.632 107.96 267.894 107.865 268.09 107.675C268.293 107.479 268.394 107.219 268.394 106.896C268.394 106.567 268.293 106.308 268.09 106.118C267.894 105.928 267.632 105.833 267.302 105.833L266.182 105.833L266.182 107.96ZM272.586 111.69L272.586 104.761L274.892 104.761C275.354 104.761 275.756 104.849 276.097 105.027C276.445 105.204 276.714 105.454 276.904 105.776C277.094 106.093 277.189 106.466 277.189 106.896C277.189 107.32 277.091 107.694 276.895 108.016C276.705 108.339 276.439 108.589 276.097 108.766C275.756 108.943 275.354 109.032 274.892 109.032L273.772 109.032L273.772 111.69L272.586 111.69ZM273.772 107.96L274.892 107.96C275.221 107.96 275.484 107.865 275.68 107.675C275.882 107.479 275.984 107.219 275.984 106.896C275.984 106.567 275.882 106.308 275.68 106.118C275.484 105.928 275.221 105.833 274.892 105.833L273.772 105.833L273.772 107.96Z" fill="black"/>
<rect x="182.671" y="28.128" width="94.2396" height="69.2396" fill="#FFEAEB" stroke="#E5E5E5" stroke-width="0.760417"/>
<path d="M212.899 82.7278C215.759 81.4048 218.602 80.0112 221.425 78.6001L224.504 77.0091C228.156 75.2105 231.797 73.3799 235.412 71.5006C237.017 70.6661 238.597 69.7753 240.174 68.9148C241.183 68.3546 242.185 67.7859 243.194 67.2257C244.21 66.6739 245.226 66.122 246.383 65.8302C247.107 65.646 247.018 65.6903 246.611 66.2067C246.401 66.4603 246.149 66.8858 245.77 67.2826C245.58 67.4848 245.388 67.7097 245.153 67.9071C244.911 68.0961 244.653 68.2835 244.367 68.4526C242.347 69.6648 240.334 70.8853 238.268 72.0237C236.196 73.1462 234.089 74.2344 231.957 75.2738C229.398 76.5135 226.849 78.0148 224.271 79.3597C221.441 80.8466 218.566 82.2446 215.684 83.6417C213.901 84.4882 212.113 85.3188 210.311 86.1326C209.635 86.4444 208.931 86.7227 208.241 87.0177C207.896 87.1653 207.551 87.3128 207.193 87.436L206.068 87.8614C205.555 88.0831 205.123 88.1066 204.679 88.1748L204.018 88.2736C203.911 88.27 203.787 88.3489 203.702 88.2863C203.642 88.2034 203.62 88.1168 203.591 88.0295C203.475 87.6801 203.45 87.1872 203.506 86.6568L203.63 85.2601C203.832 82.9829 203.884 80.7436 203.78 78.5338C203.754 78.0484 203.696 77.5826 203.655 77.1032C203.434 75.3408 203.455 74.8527 203.71 74.3203C203.769 74.2039 203.791 74.0607 203.839 73.9738C203.915 73.8286 204.1 73.894 204.399 74.1784C204.7 74.4552 204.996 74.992 205.227 75.7059C205.769 77.8317 205.833 79.9912 205.789 82.1472C205.76 83.2244 205.7 84.306 205.618 85.3776L205.575 85.7792L205.572 85.8785L206.41 85.5607C207.128 85.2916 207.853 84.9543 208.574 84.6548C210.013 84.0173 211.461 83.3653 212.891 82.6656L212.917 82.7066L212.899 82.7278Z" fill="black"/>
<path d="M196.465 75.4717C196.484 74.9298 197.162 77.292 198.432 77.5254C200.852 77.9719 239.833 66.9247 241.271 65.6358C241.763 65.1896 241.617 65.6953 241.788 65.3148C242.158 64.4957 220.46 70.3154 215.336 71.4611C210.213 72.6068 196.465 75.4717 196.465 75.4717Z" fill="black"/>
<path d="M206.247 72.2278C210.134 71.4804 214.017 70.6943 217.882 69.8603C219.292 69.5646 220.688 69.183 222.099 68.8797C227.066 67.7711 232.039 66.6708 236.951 65.3572C239.138 64.8063 241.296 64.1066 243.441 63.4591C244.799 62.997 246.165 62.5433 247.543 62.1139C248.238 61.919 248.896 61.6359 249.604 61.4653C250.304 61.2863 251.011 61.1232 251.722 60.9913C252.621 60.8255 252.52 60.9068 251.888 61.3841C251.572 61.619 251.134 61.9942 250.571 62.387C250.291 62.5796 249.998 62.8093 249.657 62.9955C249.316 63.1741 248.946 63.342 248.563 63.4931C247.169 63.9899 245.787 64.5337 244.376 64.9827C242.965 65.424 241.542 65.841 240.119 66.2581C237.269 67.061 234.401 67.8161 231.49 68.4595C228.02 69.2583 224.447 70.2303 220.906 71.0447C217.011 71.9445 213.093 72.7728 209.176 73.586C206.766 74.0675 204.347 74.5558 201.937 75.0374L197.589 75.874L195.384 76.293C194.385 76.4712 193.384 76.6569 192.392 76.8359C192.035 76.8135 191.669 76.7979 191.311 76.7755C191.152 76.7588 191.038 76.7468 190.888 76.7157C190.795 76.6523 190.823 76.5326 190.83 76.4644C190.838 76.3886 190.869 76.3153 190.892 76.2411C190.99 75.9679 191.111 75.6896 191.314 75.3661C191.516 75.0427 191.823 74.6766 192.153 74.3054C192.484 73.9341 192.837 73.5652 193.199 73.182L194.047 72.329C195.057 71.3245 196.081 70.3368 197.125 69.3666C197.584 68.9399 198.027 68.5116 198.5 68.0941C200.258 66.5401 200.954 66.1844 201.599 66.1757C201.744 66.1757 201.916 66.1478 202.02 66.1742C202.199 66.2236 202.131 66.431 201.893 66.7967C201.655 67.1624 201.239 67.6932 200.64 68.2965C199.064 69.9462 197.454 71.6231 195.819 73.3279L195.215 73.9691L194.913 74.2897C194.845 74.3591 194.888 74.31 194.878 74.332L194.873 74.3774C194.872 74.3926 194.912 74.3738 194.912 74.3738C194.944 74.3619 194.999 74.3523 195.046 74.342C196.805 74.0063 198.564 73.6707 200.331 73.3359L206.207 72.1775L206.225 72.2254L206.247 72.2278Z" fill="black"/>
<path d="M221.706 62.8472L229.027 62.1551L231.695 61.8463L241.128 60.9555C242.523 60.8113 243.919 60.6443 245.302 60.4682C247.073 60.2334 248.858 60.0155 250.659 60.0826C251.224 60.1038 251.162 60.2582 250.719 60.5333C250.498 60.6709 250.181 60.8443 249.794 61.0257C249.408 61.1996 248.949 61.3351 248.441 61.4272C246.656 61.7908 244.846 61.9525 243.036 62.1908C241.228 62.4064 239.408 62.5976 237.576 62.7494C235.389 62.9327 233.133 63.3233 230.897 63.6086C228.443 63.917 225.984 64.2095 223.521 64.4633L218.974 64.9343C216.68 65.1753 214.37 65.361 212.091 65.6112C210.318 65.7921 208.593 66.093 206.834 66.2755C206.447 66.3189 206.073 66.3791 205.68 66.399C204.235 66.5149 203.762 66.3502 203.421 65.9465C203.347 65.8544 203.25 65.7599 203.199 65.6626C203.04 65.3471 203.611 65.0165 204.654 64.7893C206.206 64.5314 207.793 64.2313 209.412 64.0647C211.033 63.8754 212.674 63.7189 214.324 63.5479C216.771 63.3001 219.232 63.0615 221.695 62.8153L221.705 62.8623L221.706 62.8472Z" fill="black"/>
<path d="M185.179 148.776C189.672 148.383 194.103 147.992 198.374 146.94C202.622 145.886 206.731 144.197 210.061 141.46C212.496 139.51 214.298 136.873 215.488 134.01C216.544 131.486 216.969 128.688 216.554 126.009C216.147 123.323 214.752 120.855 212.77 118.876C210.804 116.876 208.391 115.274 205.903 113.808C203.45 112.294 200.818 111.097 198.217 109.75C195.912 108.573 193.606 107.334 191.43 105.886C189.261 104.44 187.153 102.777 185.657 100.536C184.688 99.1233 184.126 97.325 184.29 95.5495C184.492 93.778 185.335 92.1812 186.379 90.8509C187.418 89.497 188.738 88.3873 190.137 87.4697C191.536 86.5522 193.025 85.7974 194.517 85.0964C196.385 84.236 196.198 84.4844 194.719 85.4243C193.988 85.8988 192.939 86.5468 191.73 87.4001C190.529 88.2542 189.192 89.3161 188.014 90.6784C186.997 91.8966 186.138 93.2848 185.794 94.7273C185.436 96.1682 185.639 97.6606 186.356 98.9927C187.05 100.338 188.143 101.518 189.366 102.566C190.588 103.622 191.938 104.553 193.34 105.421C196.154 107.15 199.172 108.61 202.201 110.109C203.709 110.85 205.269 111.681 206.709 112.553C208.173 113.419 209.64 114.332 211.049 115.354C212.72 116.58 214.349 117.993 215.667 119.733C217.012 121.445 217.94 123.543 218.37 125.71C218.807 127.894 218.684 130.149 218.213 132.298C217.733 134.446 216.896 136.503 215.721 138.348C214.443 140.367 212.794 142.2 210.904 143.641C209.032 145.114 206.961 146.297 204.809 147.235C200.488 149.124 195.884 150.064 191.313 150.625C185.681 151.288 180.059 151.416 174.572 152.232C166.268 153.387 158.278 156.79 151.673 161.886C146.509 165.816 142.335 170.747 139.049 176.193C138.382 177.433 137.662 178.598 137.089 179.894C136.513 181.067 136.027 182.042 135.7 182.889C135.344 183.725 135.028 184.396 134.764 184.943C134.301 186.066 133.922 186.678 133.49 187.145C133.292 187.354 133.069 187.653 132.912 187.759C132.639 187.945 132.586 187.502 132.736 186.522C132.81 186.032 132.945 185.41 133.122 184.67C133.3 183.931 133.624 183.107 133.96 182.169C136.002 176.607 139.313 171.363 143.403 166.722C145.489 164.445 147.736 162.245 150.234 160.348C151.443 159.341 152.766 158.492 154.064 157.595C154.709 157.142 155.406 156.778 156.079 156.359C156.764 155.964 157.422 155.535 158.14 155.197C162.286 152.998 166.769 151.387 171.384 150.417C175.997 149.463 180.629 149.131 185.162 148.72L185.178 148.783L185.179 148.776Z" fill="black"/>
<path d="M256.777 52.1845C256.76 52.3512 256.559 52.3683 256.25 52.3129C256.152 52.3025 255.908 52.1465 255.899 52.0843C255.873 51.9667 255.855 51.8498 255.852 51.7346C255.844 51.6648 256.186 50.8197 256.301 50.5254C256.408 50.2379 256.564 49.9862 256.72 49.7422C257.063 49.2572 257.369 48.7456 257.761 48.2966C257.841 48.1977 257.942 48.1088 258.057 48.0366C258.444 47.7786 258.746 47.458 259.029 47.1047C259.073 47.048 259.139 47.0014 259.142 46.9021C259.143 46.7413 260.01 45.8597 260.162 45.799C260.547 45.6328 260.905 45.4406 261.276 45.2651C261.332 45.2404 261.361 45.1822 261.45 45.2069C261.651 45.2664 261.73 45.1751 261.836 45.1097C261.983 45.0255 262.15 44.9665 262.331 44.9243C262.424 44.9111 262.543 44.9466 262.656 44.9586C262.755 44.969 262.834 45.1612 262.83 45.1991C262.812 45.2968 262.914 45.3459 262.969 45.4129C262.989 45.438 263.009 45.4631 263.022 45.4875C263.032 45.5345 262.654 46.506 262.573 46.551C262.573 46.551 262.512 46.6212 262.426 46.7118C262.339 46.8099 262.227 46.9283 262.112 47.0695C261.892 47.3374 261.663 47.6198 261.611 47.6832C261.566 47.7474 261.479 47.7689 261.399 47.7988C261.36 47.81 260.698 48.6367 260.664 48.6713C260.489 48.8061 260.383 49.0095 260.125 49.0589C260.07 49.0685 260.051 49.1048 260.017 49.1395C259.772 49.4278 259.471 49.6643 259.184 49.9175C259.04 50.0479 258.917 50.1958 258.78 50.3346C258.754 50.3625 258.715 50.3737 258.683 50.3856C258.642 50.412 258.594 50.4299 258.568 50.4578C258.264 50.8012 257.904 51.0927 257.656 51.4803C257.601 51.5664 257.163 51.8651 257.113 51.9748C257.084 52.033 256.772 52.092 256.771 52.1686L256.777 52.1845Z" fill="black"/>
<path d="M260.621 57.5156C260.479 57.5542 260.396 57.3999 260.346 57.1419C260.332 57.0561 260.38 56.8236 260.429 56.7981C260.511 56.7454 260.586 56.6844 260.666 56.6545C260.705 56.6434 261.402 56.5713 261.638 56.5194C261.872 56.4752 262.095 56.468 262.317 56.4684C262.777 56.4709 263.239 56.4506 263.7 56.4379C263.8 56.4331 263.906 56.4443 264.002 56.4774C264.342 56.5975 264.693 56.6115 265.048 56.5876C265.109 56.5864 265.161 56.5995 265.222 56.5369C265.315 56.4472 266.265 56.4477 266.382 56.4984C266.684 56.622 266.983 56.6918 267.288 56.7776C267.332 56.79 267.373 56.7712 267.419 56.8374C267.51 56.9926 267.604 56.9794 267.695 56.989C267.823 57.0026 267.957 57.0397 268.083 57.0836C268.15 57.1059 268.217 57.1897 268.279 57.2575C268.342 57.3177 268.326 57.5383 268.309 57.5594C268.255 57.6304 268.313 57.7361 268.327 57.8218C268.331 57.8529 268.335 57.8916 268.333 57.9143C268.335 57.9682 267.542 58.4363 267.458 58.4351C267.443 58.4335 266.318 58.5678 266.155 58.5889C266.084 58.6045 266.019 58.567 265.952 58.5446C265.907 58.5398 265.005 58.5904 264.974 58.5948C264.786 58.5597 264.598 58.6011 264.415 58.4515C264.379 58.4248 264.34 58.4284 264.302 58.4244C263.981 58.4212 263.661 58.3338 263.34 58.254C263.175 58.2137 263.015 58.2121 262.849 58.187C262.819 58.1838 262.791 58.1579 262.761 58.1471C262.725 58.1279 262.689 58.1088 262.651 58.1048C262.264 58.0641 261.879 57.9392 261.49 57.9212C261.399 57.9117 260.991 57.7154 260.884 57.7118C260.823 57.7054 260.661 57.4968 260.605 57.5215L260.621 57.5156Z" fill="black"/>
<rect x="0.5" y="0.5" width="349" height="209" rx="3.5" stroke="black" stroke-opacity="0.1"/>
</svg>
