<svg width="384" height="207" viewBox="0 0 384 207" fill="none" xmlns="http://www.w3.org/2000/svg">
<rect width="383.667" height="206.75" rx="4" fill="white"/>
<rect x="0.5" y="0.5" width="382.667" height="205.75" rx="3.5" stroke="black" stroke-opacity="0.1"/>
<path opacity="0.2" d="M133.29 127.875C133.29 127.875 141.342 124.164 144.463 121.084C147.584 118.003 154.756 105.06 156.885 101.285C159.015 97.5027 173.923 92.4923 174.941 93.0132C175.959 93.5342 174.595 96.2942 173.349 97.0746C172.102 97.8549 170.974 98.4562 170.974 98.4562C170.974 98.4562 179.714 99.1243 179.727 100.237C179.74 101.349 178.745 103.083 175.98 102.784C173.215 102.485 167.797 103.301 164.626 106.859C164.626 106.859 163.501 109.023 165.32 108.487C167.138 107.951 172.283 104.647 173.604 105.705C174.917 106.771 175.291 107.362 174.232 108.399C173.172 109.437 168.673 112.004 167.187 112.576C165.703 113.14 164.153 117.159 162.227 117.776C160.299 118.401 159.885 118.84 159.043 118.467C158.194 118.094 135.425 140.772 135.425 140.772L133.288 127.89L133.29 127.875Z" fill="black"/>
<path d="M135.524 132.699C135.671 133.557 135.795 134.413 135.92 135.269C135.964 135.58 136.046 135.888 136.082 136.198C136.212 137.292 136.341 138.401 136.47 139.495C136.542 139.977 136.621 140.461 136.693 140.943C136.745 141.248 136.797 141.56 136.849 141.864C136.878 142.173 136.875 142.495 136.872 142.809C136.859 143.006 136.752 143.003 136.575 142.869C136.405 142.736 136.11 142.483 135.946 142.144C135.742 141.533 135.586 140.911 135.437 140.29C135.342 139.659 135.28 139.017 135.24 138.377C135.191 137.606 134.996 136.834 134.863 136.062C134.715 135.211 134.582 134.37 134.418 133.525C134.319 133.009 134.213 132.492 134.099 131.974C133.912 131.196 133.735 130.411 133.476 129.664C133.269 129.083 133.005 128.542 132.773 127.981L132.611 127.619C132.446 127.15 132.497 126.956 132.718 126.757C132.769 126.709 132.821 126.653 132.87 126.62C133.052 126.493 133.299 126.619 133.542 126.928C133.892 127.394 134.151 127.912 134.41 128.437C134.637 128.974 134.807 129.544 134.969 130.112C135.209 130.957 135.386 131.826 135.563 132.688L135.531 132.7L135.524 132.699Z" fill="black"/>
<path d="M135.301 141.877C135.301 141.877 138.144 150.152 139.934 149.238C142.218 148.069 137.713 139.488 137.713 139.488L135.301 141.877Z" fill="black"/>
<path d="M109.269 133.411C113.452 130.795 117.707 128.224 122.245 126.098C123.897 125.322 125.584 124.58 127.365 124.032L127.951 123.856C128.156 123.801 128.301 123.732 128.637 123.676C128.917 123.629 129.163 123.624 129.356 123.614C129.563 123.612 129.634 123.589 130.008 123.598C130.624 123.571 131.246 123.851 131.717 124.184C132.154 124.544 132.478 124.954 132.719 125.355C133.201 126.164 133.483 126.975 133.713 127.773C133.943 128.571 134.128 129.365 134.282 130.155C134.899 133.315 135.26 136.44 135.895 139.503C136.173 140.858 136.515 142.196 136.97 143.478C137.417 144.758 137.993 145.984 138.787 146.956C138.907 147.122 139.045 147.267 139.185 147.396L139.393 147.602C139.462 147.671 139.485 147.673 139.527 147.708C139.677 147.816 139.861 147.958 140.045 147.885C140.223 147.797 140.276 147.58 140.31 147.408C140.339 147.28 140.4 146.773 140.418 146.377C140.453 145.538 140.422 144.669 140.361 143.797C140.315 143.363 140.315 142.926 140.316 142.482C140.309 142.037 140.294 141.598 140.264 141.151C140.189 140.047 140.317 140.145 140.831 141.011C141.084 141.444 141.424 142.07 141.815 142.862C142.145 143.663 142.349 144.634 142.417 145.737C142.434 146.229 142.442 146.728 142.402 147.26L142.38 147.465L142.341 147.767C142.321 147.956 142.258 148.187 142.211 148.412C142.075 148.835 141.894 149.245 141.633 149.539C141.125 150.144 140.209 150.4 139.46 150.091C139.265 150.048 139.081 149.906 138.903 149.78L138.352 149.408L138.08 149.226L137.927 149.08L137.622 148.779C136.093 147.147 135.372 145.263 134.79 143.44C133.699 139.762 133.298 136.081 132.759 132.469C132.596 131.394 132.412 130.31 132.154 129.264C131.896 128.225 131.569 127.187 131.085 126.393C130.842 126.015 130.565 125.733 130.329 125.647C130.268 125.641 130.21 125.611 130.15 125.597C130.08 125.605 130.011 125.606 129.943 125.599C129.619 125.626 129.312 125.632 129.125 125.658C129.008 125.676 128.993 125.675 128.858 125.722L128.469 125.849L127.684 126.096C127.162 126.256 126.649 126.47 126.139 126.654C121.627 128.4 117.343 130.883 113.134 133.45C110.546 135.039 107.982 136.685 105.432 138.347C101.559 140.858 97.6469 143.372 93.6768 145.712C90.5763 147.508 87.5144 149.299 84.0307 150.442C83.6426 150.562 83.2554 150.674 82.8749 150.795C82.4749 150.883 82.0757 150.964 81.6681 151.051C80.1354 151.272 79.053 151.22 78.3348 150.983C77.9799 150.861 77.6983 150.771 77.4937 150.603C77.2991 150.414 77.1668 150.217 77.0547 150.044C76.957 149.88 76.8206 149.72 76.778 149.616C76.7054 149.432 76.987 149.378 77.5174 149.288C77.6486 149.279 77.8006 149.218 77.9429 149.249C78.0969 149.242 78.2736 149.238 78.4502 149.233C78.6345 149.23 78.8239 149.25 79.0309 149.248C79.2471 149.233 79.4708 149.218 79.7097 149.205C82.5508 148.999 85.4651 147.735 88.3028 146.326C91.1453 144.871 93.9722 143.199 96.7701 141.441C100.93 138.83 105.066 136.071 109.256 133.387L109.29 133.428L109.269 133.411Z" fill="black"/>
<path d="M165.814 97.1849C164.113 97.9098 162.41 98.6574 160.77 99.4576C160.358 99.6594 159.954 99.8619 159.564 100.074L159.002 100.39C158.838 100.488 158.633 100.619 158.59 100.661C158.428 100.896 158.173 101.13 157.978 101.531L157.667 102.08L157.38 102.694C156.826 103.884 156.352 105.183 155.792 106.426C153.838 110.863 151.256 115.157 147.865 118.692C147.087 119.453 146.372 120.281 145.526 120.966L144.309 122.041C143.918 122.413 143.45 122.701 143.032 123.032C142.476 123.441 141.932 123.874 141.363 124.266L139.559 125.31L138.656 125.812C138.341 125.963 138.027 126.106 137.702 126.217L136.723 126.566C136.397 126.677 136.052 126.748 135.721 126.836C134.881 127.031 134.986 126.981 135.531 126.456C136.066 125.892 137.01 124.857 138.289 124.065C139.396 123.293 140.536 122.586 141.587 121.769C142.113 121.357 142.687 121.004 143.179 120.55L144.69 119.231C146.63 117.39 148.414 115.371 149.988 113.154C151.878 110.488 153.251 107.346 154.584 104.222C154.966 103.359 155.325 102.492 155.755 101.611C155.946 101.179 156.216 100.725 156.462 100.283C156.569 100.065 156.793 99.8277 156.955 99.6072C157.051 99.4948 157.123 99.3875 157.235 99.269C157.388 99.1319 157.495 99.0589 157.611 98.9716C158.5 98.391 159.338 98.0042 160.203 97.5744C161.059 97.1589 161.927 96.7678 162.787 96.391C164.916 95.4508 167.07 94.5668 169.235 93.7223C170.338 93.2945 171.454 92.8759 172.582 92.4967L173.439 92.2192L173.874 92.0889L174.403 91.9453C174.812 91.8429 175.228 91.7488 175.592 91.7795C175.774 91.7987 175.948 91.8171 176.096 91.9399C176.196 92.0883 176.269 92.2646 176.352 92.4189L176.484 92.9844C176.494 93.1847 176.511 93.3857 176.514 93.5775C176.485 93.7813 176.471 93.9791 176.427 94.1813C176.36 94.3811 176.329 94.531 176.259 94.6846C176.002 95.3087 175.603 95.8183 175.181 96.2642C174.159 97.3133 172.978 98.047 171.794 98.742C170.604 99.4211 169.391 100.021 168.16 100.581C167.621 100.831 167.096 101.082 166.538 101.291C165.514 101.697 164.826 101.908 164.304 101.983C163.798 102.067 163.477 102.057 163.179 101.972C163.045 101.934 162.879 101.917 162.792 101.869C162.485 101.722 163.205 101.078 164.617 100.254C166.696 99.132 168.913 98.2317 170.951 97.0749C171.961 96.4995 172.939 95.8747 173.689 95.1569C174.056 94.7972 174.356 94.4228 174.516 94.0718C174.562 93.9925 174.596 93.8888 174.61 93.8289C174.62 93.807 174.61 93.8289 174.612 93.8138C174.612 93.8138 174.651 93.8026 174.565 93.8242L174.248 93.921L173.606 94.1292C172.747 94.4218 171.878 94.744 171.008 95.0813C169.275 95.7491 167.544 96.4708 165.833 97.2176L165.807 97.1765L165.814 97.1849Z" fill="black"/>
<path d="M176.716 101.336C176.986 101.319 177.248 101.301 177.512 101.267L177.87 101.213L177.963 101.207C178.071 101.196 178.229 101.159 178.356 101.042C178.373 101.021 178.391 101 178.408 100.978C178.457 100.884 178.329 100.855 178.278 100.834C178.22 100.805 178.139 100.774 178.035 100.74C177.975 100.726 177.954 100.708 177.841 100.689L177.276 100.599C176.522 100.481 175.763 100.347 175.011 100.207C174.335 100.082 173.658 99.9646 172.981 99.8397C172.545 99.7631 172.104 99.663 171.685 99.4886C171.473 99.3973 171.259 99.3211 171.066 99.1859C170.874 99.0431 170.692 98.8859 170.526 98.7152C170.327 98.4875 170.432 98.4373 170.722 98.3834C170.862 98.3599 171.066 98.3125 171.279 98.2583C171.509 98.1829 171.735 98.1454 171.951 98.1989C172.755 98.2835 173.559 98.4986 174.397 98.6251C175.231 98.7743 176.092 98.8956 176.952 99.0935C177.514 99.214 177.839 99.2559 178.907 99.3761C179.345 99.4376 179.814 99.4946 180.129 99.6275C180.444 99.7603 180.683 99.9003 180.783 100.11C180.83 100.169 180.825 100.291 180.893 100.375C180.882 100.481 180.893 100.589 180.86 100.693C180.695 101.311 180.318 101.831 179.673 102.215C179.056 102.61 178.164 102.86 177.729 102.922C176.956 103.055 176.191 103.12 175.433 103.117C174.283 103.118 173.146 103.006 172.025 102.88C171.154 102.788 170.284 102.75 169.398 102.58C169.204 102.537 169.006 102.524 168.815 102.442C168.099 102.183 167.931 101.89 167.983 101.466C167.994 101.367 168.004 101.269 168.028 101.187C168.118 100.913 168.484 100.783 168.948 100.817C170.347 100.918 171.83 101.174 173.345 101.265C174.462 101.352 175.595 101.356 176.682 101.295L176.678 101.332L176.716 101.336Z" fill="black"/>
<path d="M168.669 110.67C170.412 109.981 172.175 109.239 173.347 108.083C173.545 107.874 173.715 107.639 173.824 107.406C173.905 107.292 173.925 107.171 173.976 107.054C174.007 106.981 174.009 106.958 174.019 106.936C174.022 106.913 174.032 106.884 174.035 106.861C174.05 106.786 174.029 106.699 173.966 106.639C173.903 106.587 173.846 106.542 173.583 106.499C173.116 106.419 172.529 106.465 171.982 106.561C170.971 106.707 169.869 107.418 168.708 107.893C167.68 108.344 166.621 108.8 165.462 109.038C164.721 109.166 163.897 109.279 163.093 108.98C162.892 108.928 162.712 108.817 162.532 108.706C162.352 108.595 162.163 108.499 162.034 108.339C161.711 108.068 161.612 107.621 161.448 107.289C161.273 106.842 161.375 106.891 161.755 107.061C161.963 107.121 162.166 107.311 162.578 107.248C162.764 107.229 162.863 107.308 163.015 107.324C163.159 107.339 163.295 107.354 163.42 107.405C163.903 107.471 164.408 107.555 165 107.457C165.585 107.358 166.204 107.162 166.817 106.936C167.441 106.687 168.067 106.416 168.704 106.116C169.363 105.825 169.985 105.523 170.802 105.256C171.301 105.102 171.768 105.036 172.249 104.972C172.73 104.915 173.224 104.883 173.769 104.948C174.286 104.987 175.167 105.279 175.487 105.949C175.833 106.591 175.608 107.487 175.397 107.893C174.882 109.004 174.011 109.709 173.167 110.294C172.31 110.87 171.405 111.319 170.496 111.721C169.942 111.969 169.382 112.193 168.829 112.419L168.027 112.763L167.664 112.939C167.574 112.991 167.483 113.051 167.415 113.12C167.175 113.355 166.89 113.739 166.63 114.095C166.362 114.457 166.086 114.827 165.795 115.187C165.22 115.915 164.594 116.623 163.878 117.237C163.328 117.731 162.709 118.148 162.042 118.515C161.358 118.833 160.617 119.1 159.83 119.155C159.491 119.173 159.146 119.244 158.808 119.178C158.49 119.144 158.227 119.093 158.01 119.048C157.803 118.972 157.654 118.864 157.525 118.782C157.275 118.61 157.182 118.401 157.138 118.159C157.118 118.057 157.076 117.953 157.076 117.877C157.055 117.644 157.641 117.392 158.376 117.462C159.471 117.547 160.491 117.386 161.423 116.902C162.356 116.41 163.204 115.634 163.975 114.719C164.561 114.03 165.076 113.287 165.708 112.45L165.989 112.112C166.06 112.012 166.255 111.841 166.39 111.717C166.534 111.587 166.72 111.492 166.868 111.4L167.256 111.211C167.746 110.994 168.186 110.819 168.635 110.628L168.654 110.669L168.669 110.67Z" fill="black"/>
<path d="M141.628 133.748L144.536 130.951C144.886 130.605 145.201 130.232 145.559 129.894C146.825 128.71 148.091 127.526 149.358 126.341C149.933 125.827 150.481 125.28 151.02 124.739C151.363 124.392 151.743 124.064 152.114 123.743L152.399 123.505L152.726 123.31C152.946 123.187 153.158 123.064 153.386 122.935C153.662 122.788 153.67 122.858 153.587 123.14C153.528 123.341 153.475 123.55 153.417 123.735C153.372 123.876 153.335 124.002 153.299 124.129C153.277 124.195 153.247 124.261 153.231 124.336L153.113 124.508C152.811 124.905 152.516 125.31 152.2 125.691C151.869 126.062 151.532 126.425 151.189 126.779C150.521 127.514 149.784 128.187 149.011 128.833C148.094 129.61 147.294 130.583 146.436 131.458L143.58 134.344L141.823 136.12C140.938 137.023 140.019 137.899 139.171 138.821C138.506 139.533 137.933 140.315 137.297 141.045C137.15 141.205 137.025 141.369 136.871 141.521C136.299 142.081 136.023 142.159 135.586 141.945C135.483 141.896 135.381 141.854 135.287 141.798C134.994 141.599 135.017 141.157 135.345 140.663C136.276 139.175 137.536 137.906 138.771 136.58C139.694 135.597 140.667 134.658 141.619 133.693L141.654 133.72L141.628 133.748Z" fill="black"/>
<path d="M103.101 169.421C105.808 167.355 108.642 165.332 111.574 163.534C112.639 162.88 113.685 162.186 114.769 161.564C118.608 159.379 122.609 157.479 126.723 155.875C128.552 155.171 130.394 154.484 132.243 153.875C133.427 153.478 134.629 153.122 135.855 152.83L137.66 152.423C137.966 152.348 138.286 152.297 138.625 152.279C138.963 152.269 139.319 152.237 139.675 152.344C140.111 152.497 140.247 152.665 140.218 152.723C140.187 152.796 139.963 152.811 139.641 152.961C139.326 153.119 138.951 153.325 138.497 153.637C138.061 153.921 137.356 154.214 136.708 154.399C134.329 155.098 131.96 155.837 129.626 156.686C127.284 157.535 124.977 158.487 122.664 159.5C119.901 160.711 117.2 162.349 114.544 163.923C111.616 165.676 108.794 167.524 106.071 169.589C104.39 170.852 102.729 172.148 101.06 173.443C98.5245 175.406 95.9108 177.306 93.2079 179.036C91.106 180.37 89.0149 181.674 86.732 182.69C86.2387 182.937 85.7358 183.129 85.2237 183.336C84.2709 183.726 83.6036 183.878 83.1183 183.903C82.6321 183.936 82.327 183.85 82.0551 183.668C81.9259 183.586 81.7731 183.509 81.6918 183.408C81.4115 183.087 82.1066 182.525 83.4204 181.981C85.3719 181.13 87.3365 180.226 89.2589 179.141C91.1737 178.056 93.0626 176.853 94.9156 175.554C97.6636 173.614 100.346 171.499 103.067 169.379L103.101 169.414L103.101 169.421Z" fill="black"/>
<rect x="194.581" y="23.1505" width="105.24" height="97.2396" fill="white" stroke="#E5E5E5" stroke-width="0.760417"/>
<path d="M273.841 111.69L275.588 104.761L277.116 104.761L278.872 111.69L277.657 111.69L277.277 110.01L275.436 110.01L275.056 111.69L273.841 111.69ZM275.654 109.042L277.059 109.042L276.641 107.181C276.572 106.871 276.512 106.593 276.461 106.346C276.411 106.093 276.376 105.909 276.357 105.795C276.338 105.909 276.303 106.093 276.252 106.346C276.208 106.593 276.148 106.868 276.072 107.172L275.654 109.042ZM281.83 111.69L281.83 104.761L284.136 104.761C284.598 104.761 285 104.849 285.342 105.027C285.69 105.204 285.958 105.454 286.148 105.776C286.338 106.093 286.433 106.466 286.433 106.896C286.433 107.32 286.335 107.694 286.139 108.016C285.949 108.339 285.683 108.589 285.342 108.766C285 108.943 284.598 109.032 284.136 109.032L283.016 109.032L283.016 111.69L281.83 111.69ZM283.016 107.96L284.136 107.96C284.465 107.96 284.728 107.865 284.924 107.675C285.126 107.479 285.228 107.219 285.228 106.896C285.228 106.567 285.126 106.308 284.924 106.118C284.728 105.928 284.465 105.833 284.136 105.833L283.016 105.833L283.016 107.96ZM289.419 111.69L289.419 104.761L291.726 104.761C292.188 104.761 292.589 104.849 292.931 105.027C293.279 105.204 293.548 105.454 293.738 105.776C293.928 106.093 294.023 106.466 294.023 106.896C294.023 107.32 293.924 107.694 293.728 108.016C293.538 108.339 293.273 108.589 292.931 108.766C292.589 108.943 292.188 109.032 291.726 109.032L290.606 109.032L290.606 111.69L289.419 111.69ZM290.606 107.96L291.726 107.96C292.055 107.96 292.317 107.865 292.513 107.675C292.716 107.479 292.817 107.219 292.817 106.896C292.817 106.567 292.716 106.308 292.513 106.118C292.317 105.928 292.055 105.833 291.726 105.833L290.606 105.833L290.606 107.96Z" fill="black"/>
<rect x="199.505" y="28.128" width="94.2396" height="69.2396" fill="#FFEAEB" stroke="#E5E5E5" stroke-width="0.760417"/>
<path d="M229.733 82.7278C232.592 81.4048 235.436 80.0112 238.258 78.6001L241.337 77.0091C244.99 75.2105 248.63 73.3799 252.245 71.5006C253.85 70.6661 255.43 69.7753 257.007 68.9148C258.017 68.3546 259.019 67.7859 260.028 67.2257C261.044 66.6739 262.059 66.122 263.216 65.8302C263.941 65.646 263.852 65.6903 263.445 66.2067C263.234 66.4603 262.983 66.8858 262.604 67.2826C262.414 67.4848 262.222 67.7097 261.986 67.9071C261.744 68.0961 261.487 68.2835 261.201 68.4526C259.181 69.6648 257.168 70.8853 255.102 72.0237C253.03 73.1462 250.923 74.2344 248.791 75.2738C246.232 76.5135 243.683 78.0148 241.105 79.3597C238.274 80.8466 235.4 82.2446 232.517 83.6417C230.735 84.4882 228.947 85.3188 227.145 86.1326C226.468 86.4444 225.765 86.7227 225.075 87.0177C224.73 87.1653 224.385 87.3128 224.027 87.436L222.902 87.8614C222.388 88.0831 221.957 88.1066 221.513 88.1748L220.851 88.2736C220.744 88.27 220.621 88.3489 220.536 88.2863C220.476 88.2034 220.454 88.1168 220.425 88.0295C220.308 87.6801 220.284 87.1872 220.34 86.6568L220.464 85.2601C220.665 82.9829 220.718 80.7436 220.613 78.5338C220.588 78.0484 220.53 77.5826 220.488 77.1032C220.268 75.3408 220.289 74.8527 220.544 74.3203C220.602 74.2039 220.625 74.0607 220.672 73.9738C220.749 73.8286 220.934 73.894 221.233 74.1784C221.533 74.4552 221.829 74.992 222.06 75.7059C222.603 77.8317 222.666 79.9912 222.623 82.1472C222.594 83.2244 222.533 84.306 222.451 85.3776L222.409 85.7792L222.406 85.8785L223.244 85.5607C223.962 85.2916 224.687 84.9543 225.408 84.6548C226.847 84.0173 228.294 83.3653 229.724 82.6656L229.75 82.7066L229.733 82.7278Z" fill="black"/>
<path d="M213.298 75.4717C213.317 74.9298 213.995 77.292 215.265 77.5254C217.685 77.9719 256.666 66.9247 258.105 65.6358C258.596 65.1896 258.451 65.6953 258.621 65.3148C258.991 64.4957 237.293 70.3154 232.17 71.4611C227.046 72.6068 213.298 75.4717 213.298 75.4717Z" fill="black"/>
<path d="M223.08 72.2277C226.967 71.4803 230.85 70.6942 234.715 69.8603C236.125 69.5645 237.521 69.183 238.932 68.8796C243.899 67.771 248.872 66.6708 253.784 65.3572C255.972 64.8062 258.129 64.1065 260.274 63.4591C261.632 62.997 262.998 62.5433 264.376 62.1139C265.071 61.9189 265.729 61.6358 266.437 61.4652C267.137 61.2862 267.844 61.1232 268.555 60.9912C269.454 60.8254 269.353 60.9067 268.721 61.3841C268.405 61.6189 267.967 61.9942 267.405 62.387C267.124 62.5796 266.831 62.8092 266.49 62.9954C266.149 63.1741 265.779 63.342 265.396 63.4931C264.003 63.9898 262.62 64.5337 261.209 64.9826C259.798 65.424 258.375 65.841 256.952 66.258C254.102 67.0609 251.234 67.816 248.324 68.4594C244.853 69.2583 241.28 70.2302 237.739 71.0447C233.844 71.9444 229.926 72.7727 226.009 73.5859C223.599 74.0675 221.18 74.5558 218.77 75.0373L214.422 75.874L212.217 76.2929C211.218 76.4711 210.217 76.6568 209.226 76.8358C208.868 76.8134 208.502 76.7978 208.144 76.7755C207.985 76.7587 207.871 76.7467 207.721 76.7156C207.628 76.6522 207.656 76.5326 207.663 76.4644C207.671 76.3886 207.702 76.3152 207.725 76.241C207.823 75.9678 207.944 75.6895 208.147 75.3661C208.35 75.0427 208.656 74.6766 208.987 74.3053C209.317 73.9341 209.67 73.5652 210.032 73.182L210.88 72.329C211.89 71.3245 212.914 70.3367 213.958 69.3665C214.417 68.9398 214.86 68.5115 215.333 68.094C217.091 66.54 217.787 66.1844 218.432 66.1757C218.577 66.1757 218.749 66.1478 218.853 66.1741C219.032 66.2236 218.964 66.4309 218.726 66.7966C218.489 67.1623 218.073 67.6931 217.473 68.2964C215.897 69.9462 214.287 71.623 212.652 73.3278L212.048 73.969L211.746 74.2896C211.678 74.359 211.721 74.31 211.711 74.3319L211.706 74.3774C211.705 74.3925 211.745 74.3738 211.745 74.3738C211.777 74.3618 211.832 74.3523 211.879 74.3419C213.638 74.0063 215.397 73.6706 217.164 73.3358L223.04 72.1774L223.058 72.2253L223.08 72.2277Z" fill="black"/>
<path d="M238.54 62.8472L245.861 62.1551L248.529 61.8463L257.962 60.9555C259.356 60.8113 260.753 60.6443 262.135 60.4682C263.907 60.2334 265.692 60.0155 267.493 60.0826C268.057 60.1038 267.995 60.2582 267.553 60.5333C267.331 60.6709 267.014 60.8443 266.627 61.0257C266.241 61.1996 265.783 61.3351 265.275 61.4272C263.49 61.7908 261.68 61.9525 259.87 62.1908C258.062 62.4064 256.241 62.5976 254.409 62.7494C252.222 62.9327 249.967 63.3233 247.73 63.6086C245.277 63.917 242.817 64.2095 240.354 64.4633L235.807 64.9343C233.514 65.1753 231.204 65.361 228.925 65.6112C227.151 65.7921 225.426 66.093 223.668 66.2755C223.28 66.3189 222.906 66.3791 222.513 66.399C221.068 66.5149 220.595 66.3502 220.255 65.9465C220.18 65.8544 220.083 65.7599 220.032 65.6626C219.874 65.3471 220.445 65.0165 221.488 64.7893C223.039 64.5314 224.626 64.2313 226.245 64.0647C227.866 63.8754 229.507 63.7189 231.157 63.5479C233.604 63.3001 236.066 63.0615 238.528 62.8153L238.538 62.8623L238.54 62.8472Z" fill="black"/>
<path d="M202.013 148.776C206.505 148.383 210.937 147.992 215.208 146.94C219.456 145.886 223.564 144.197 226.894 141.46C229.329 139.51 231.132 136.873 232.322 134.01C233.377 131.486 233.802 128.688 233.387 126.009C232.981 123.323 231.586 120.855 229.603 118.876C227.638 116.876 225.225 115.274 222.736 113.808C220.283 112.294 217.651 111.097 215.05 109.75C212.745 108.573 210.44 107.334 208.263 105.886C206.094 104.44 203.986 102.777 202.491 100.536C201.521 99.1233 200.96 97.325 201.124 95.5495C201.326 93.778 202.168 92.1812 203.212 90.8509C204.251 89.497 205.571 88.3873 206.97 87.4697C208.369 86.5522 209.859 85.7974 211.35 85.0964C213.218 84.236 213.031 84.4844 211.553 85.4243C210.821 85.8988 209.772 86.5468 208.564 87.4001C207.363 88.2542 206.025 89.3161 204.847 90.6784C203.83 91.8966 202.971 93.2848 202.628 94.7273C202.269 96.1682 202.472 97.6606 203.19 98.9927C203.883 100.338 204.977 101.518 206.2 102.566C207.421 103.622 208.771 104.553 210.174 105.421C212.987 107.15 216.005 108.61 219.035 110.109C220.542 110.85 222.102 111.681 223.542 112.553C225.006 113.419 226.473 114.332 227.882 115.354C229.554 116.58 231.182 117.993 232.501 119.733C233.845 121.445 234.773 123.543 235.204 125.71C235.64 127.894 235.518 130.149 235.046 132.298C234.567 134.446 233.729 136.503 232.554 138.348C231.277 140.367 229.628 142.2 227.737 143.641C225.866 145.114 223.795 146.297 221.643 147.235C217.322 149.124 212.718 150.064 208.146 150.625C202.514 151.288 196.892 151.416 191.405 152.232C183.101 153.387 175.112 156.79 168.507 161.886C163.342 165.816 159.168 170.747 155.882 176.193C155.216 177.433 154.495 178.598 153.922 179.894C153.346 181.067 152.86 182.042 152.534 182.889C152.178 183.725 151.862 184.396 151.597 184.943C151.134 186.066 150.755 186.678 150.323 187.145C150.125 187.354 149.902 187.653 149.745 187.759C149.473 187.945 149.42 187.502 149.569 186.522C149.644 186.032 149.778 185.41 149.956 184.67C150.133 183.931 150.458 183.107 150.794 182.169C152.835 176.607 156.146 171.363 160.236 166.722C162.322 164.445 164.569 162.245 167.068 160.348C168.277 159.341 169.6 158.492 170.897 157.595C171.543 157.142 172.24 156.778 172.912 156.359C173.597 155.964 174.255 155.535 174.973 155.197C179.12 152.998 183.603 151.387 188.218 150.417C192.831 149.463 197.463 149.131 201.995 148.72L202.012 148.783L202.013 148.776Z" fill="black"/>
<path d="M273.611 52.1845C273.593 52.3512 273.392 52.3683 273.084 52.3129C272.985 52.3025 272.741 52.1465 272.733 52.0843C272.707 51.9667 272.688 51.8498 272.685 51.7346C272.677 51.6648 273.019 50.8197 273.134 50.5254C273.241 50.2379 273.398 49.9862 273.554 49.7422C273.896 49.2572 274.203 48.7456 274.595 48.2966C274.674 48.1977 274.776 48.1088 274.89 48.0366C275.278 47.7786 275.58 47.458 275.862 47.1047C275.906 47.048 275.973 47.0014 275.975 46.9021C275.977 46.7413 276.844 45.8597 276.996 45.799C277.381 45.6328 277.738 45.4406 278.109 45.2651C278.165 45.2404 278.195 45.1822 278.284 45.2069C278.484 45.2664 278.563 45.1751 278.669 45.1097C278.816 45.0255 278.983 44.9665 279.164 44.9243C279.257 44.9111 279.376 44.9466 279.49 44.9586C279.588 44.969 279.668 45.1612 279.664 45.1991C279.646 45.2968 279.748 45.3459 279.802 45.4129C279.822 45.438 279.843 45.4631 279.856 45.4875C279.866 45.5345 279.488 46.506 279.406 46.551C279.406 46.551 279.345 46.6212 279.259 46.7118C279.172 46.8099 279.06 46.9283 278.946 47.0695C278.726 47.3374 278.497 47.6198 278.444 47.6832C278.399 47.7474 278.313 47.7689 278.233 47.7988C278.193 47.81 277.532 48.6367 277.497 48.6713C277.322 48.8061 277.217 49.0095 276.959 49.0589C276.904 49.0685 276.885 49.1048 276.851 49.1395C276.606 49.4278 276.305 49.6643 276.018 49.9175C275.874 50.0479 275.751 50.1958 275.614 50.3346C275.588 50.3625 275.548 50.3737 275.516 50.3856C275.475 50.412 275.427 50.4299 275.402 50.4578C275.097 50.8012 274.737 51.0927 274.489 51.4803C274.434 51.5664 273.997 51.8651 273.947 51.9748C273.918 52.033 273.605 52.092 273.605 52.1686L273.611 52.1845Z" fill="black"/>
<path d="M277.455 57.5156C277.313 57.5542 277.23 57.3999 277.18 57.1419C277.166 57.0561 277.214 56.8236 277.262 56.7981C277.344 56.7454 277.42 56.6844 277.5 56.6545C277.539 56.6434 278.236 56.5713 278.472 56.5194C278.706 56.4752 278.929 56.468 279.151 56.4684C279.611 56.4709 280.072 56.4506 280.533 56.4379C280.633 56.4331 280.74 56.4443 280.836 56.4774C281.175 56.5975 281.526 56.6115 281.881 56.5876C281.943 56.5864 281.995 56.5995 282.055 56.5369C282.149 56.4472 283.099 56.4477 283.216 56.4984C283.517 56.622 283.816 56.6918 284.121 56.7776C284.166 56.79 284.206 56.7712 284.253 56.8374C284.344 56.9926 284.437 56.9794 284.528 56.989C284.657 57.0026 284.791 57.0397 284.917 57.0836C284.983 57.1059 285.051 57.1897 285.113 57.2575C285.175 57.3177 285.16 57.5383 285.142 57.5594C285.089 57.6304 285.147 57.7361 285.161 57.8218C285.165 57.8529 285.169 57.8916 285.166 57.9143C285.168 57.9682 284.376 58.4363 284.292 58.4351C284.276 58.4335 283.151 58.5678 282.988 58.5889C282.918 58.6045 282.853 58.567 282.786 58.5446C282.741 58.5398 281.839 58.5904 281.808 58.5948C281.62 58.5597 281.432 58.6011 281.248 58.4515C281.213 58.4248 281.174 58.4284 281.136 58.4244C280.815 58.4212 280.495 58.3338 280.173 58.254C280.009 58.2137 279.848 58.2121 279.683 58.187C279.652 58.1838 279.624 58.1579 279.595 58.1471C279.559 58.1279 279.522 58.1088 279.484 58.1048C279.098 58.0641 278.713 57.9392 278.324 57.9212C278.233 57.9117 277.825 57.7154 277.718 57.7118C277.657 57.7054 277.495 57.4968 277.439 57.5215L277.455 57.5156Z" fill="black"/>
</svg>
