<svg width="19" height="18" viewBox="0 0 19 18" fill="none" xmlns="http://www.w3.org/2000/svg">
<g id="github">
<path id="Vector" d="M12.2618 16.5201V14.3676C12.2899 14.01 12.2416 13.6504 12.12 13.3129C11.9985 12.9754 11.8065 12.6677 11.5568 12.4101C13.9118 12.1476 16.3868 11.2551 16.3868 7.1601C16.3866 6.11297 15.9838 5.10599 15.2618 4.34759C15.6037 3.43147 15.5795 2.41886 15.1943 1.52009C15.1943 1.52009 14.3093 1.25759 12.2618 2.63009C10.5428 2.16421 8.73077 2.16421 7.01178 2.63009C4.96428 1.25759 4.07928 1.52009 4.07928 1.52009C3.69406 2.41886 3.66988 3.43147 4.01178 4.34759C3.28437 5.11162 2.88117 6.12769 2.88678 7.18259C2.88678 11.2476 5.36178 12.1401 7.71678 12.4326C7.47002 12.6876 7.27972 12.9916 7.15826 13.325C7.03679 13.6584 6.98688 14.0136 7.01178 14.3676V16.5201" stroke="black" stroke-width="1.125" stroke-linecap="round" stroke-linejoin="round"/>
<path id="Vector_2" d="M7.01172 15.02C4.76172 15.7499 2.88672 15.02 1.76172 12.77" stroke="black" stroke-width="1.125" stroke-linecap="round" stroke-linejoin="round"/>
</g>
</svg>
