<svg width="350" height="252" viewBox="0 0 350 252" fill="none" xmlns="http://www.w3.org/2000/svg">
<rect x="0.5" y="0.5" width="349" height="251" rx="3.5" fill="white"/>
<rect x="37.1654" y="81.1911" width="78.0785" height="78.0785" fill="white" stroke="#E5E5E5" stroke-width="0.623825"/>
<rect x="40.1762" y="90.8281" width="72.0554" height="65.2291" fill="white" stroke="#E5E5E5" stroke-width="0.623825"/>
<rect x="40.1762" y="84.0019" width="72.0554" height="2.78929" fill="white" stroke="#E5E5E5" stroke-width="0.623825"/>
<path d="M63.333 119.407C63.333 112.896 67.5831 108.013 73.9582 108.013C77.304 108.013 79.9264 109.415 81.2376 111.811L81.5541 108.736H86.6633V129.942C86.6633 137.402 82.1871 142.059 74.9529 142.059C68.5326 142.059 64.1469 138.397 63.4686 132.428H68.9847C69.3464 135.322 71.5619 137.04 74.9529 137.04C78.7509 137.04 81.1924 134.644 81.1924 130.936V127.229C79.7908 129.309 77.0328 130.62 73.8226 130.62C67.4927 130.62 63.333 125.872 63.333 119.407ZM68.8943 119.271C68.8943 123.024 71.2906 125.827 74.9077 125.827C78.7057 125.827 81.0568 123.16 81.0568 119.271C81.0568 115.473 78.7509 112.851 74.9077 112.851C71.2454 112.851 68.8943 115.609 68.8943 119.271Z" fill="black"/>
<rect x="104.626" y="111.106" width="78.2793" height="78.0785" fill="white" stroke="#E5E5E5" stroke-width="0.623825"/>
<rect x="107.637" y="120.743" width="72.0554" height="65.2291" fill="#FFEAEB" stroke="#E5E5E5" stroke-width="0.623825"/>
<rect x="107.637" y="113.917" width="66.0322" height="2.78929" fill="white" stroke="#E5E5E5" stroke-width="0.623825"/>
<rect x="176.091" y="113.705" width="3.81465" height="3.21234" fill="white" stroke="#C7C7C7" stroke-width="0.200771"/>
<path d="M132.86 171.742V139.053H137.969L138.331 142.444C139.688 139.867 142.627 138.375 146.018 138.375C152.302 138.375 156.462 142.941 156.462 149.949C156.462 156.912 152.664 161.976 146.018 161.976C142.672 161.976 139.778 160.665 138.376 158.404V171.742H132.86ZM138.422 150.221C138.422 154.245 140.908 157.003 144.706 157.003C148.595 157.003 150.901 154.199 150.901 150.221C150.901 146.242 148.595 143.393 144.706 143.393C140.908 143.393 138.422 146.197 138.422 150.221Z" fill="black"/>
<rect x="168.07" y="63.724" width="78.0785" height="78.0785" fill="white" stroke="#E5E5E5" stroke-width="0.623825"/>
<rect x="171.08" y="73.361" width="72.0554" height="65.2291" fill="white" stroke="#E5E5E5" stroke-width="0.623825"/>
<rect x="171.08" y="66.5348" width="72.0554" height="2.78929" fill="white" stroke="#E5E5E5" stroke-width="0.623825"/>
<path d="M212.086 95.2849H217.602V117.62H212.493L212.086 114.636C210.729 116.761 207.836 118.208 204.852 118.208C199.697 118.208 196.668 114.727 196.668 109.256V95.2849H202.184V107.312C202.184 111.562 203.857 113.28 206.931 113.28C210.413 113.28 212.086 111.245 212.086 106.995V95.2849Z" fill="black"/>
<rect x="235.958" y="111.135" width="76.7301" height="76.7301" fill="white" stroke="#C7C7C7" stroke-width="0.623825"/>
<rect x="238.918" y="120.607" width="70.8101" height="64.1009" fill="#EDEDED" stroke="#C7C7C7" stroke-width="0.623825"/>
<path d="M255.893 174.41L255.236 174.184L254.745 174.759L254.752 173.992L254.089 173.746C254.278 173.658 254.714 173.482 254.714 173.482C254.714 173.482 254.84 173.016 254.833 172.772L255.28 173.281C255.28 173.281 255.887 173.231 255.923 173.225C255.881 173.326 255.536 173.758 255.536 173.758C255.536 173.758 255.744 174.105 255.894 174.41H255.893Z" fill="#231F20"/>
<path d="M284.538 173.92L284.351 173.213L283.629 173.096L284.233 172.678L284.057 171.954C284.231 172.071 284.61 172.361 284.61 172.361C284.61 172.361 285.045 172.215 285.232 172.072L285.081 172.752C285.081 172.752 285.456 173.262 285.48 173.29C285.378 173.308 284.849 173.242 284.849 173.242C284.849 173.242 284.693 173.62 284.538 173.92Z" fill="#231F20"/>
<path d="M295.401 168.457L295.242 167.851L294.625 167.751L295.141 167.394L294.991 166.775C295.14 166.875 295.463 167.123 295.463 167.123C295.463 167.123 295.835 166.998 295.995 166.877L295.866 167.457C295.866 167.457 296.187 167.894 296.208 167.917C296.121 167.933 295.669 167.877 295.669 167.877C295.669 167.877 295.535 168.198 295.403 168.457H295.401Z" fill="#231F20"/>
<path d="M259.664 132.729L258.787 132.864L258.558 133.831L258.127 132.936L257.232 133.053C257.396 132.837 257.791 132.367 257.791 132.367C257.791 132.367 257.667 131.749 257.518 131.469L258.319 131.789C258.319 131.789 258.98 131.363 259.017 131.336C259.027 131.478 258.882 132.189 258.882 132.189C258.882 132.189 259.318 132.466 259.664 132.73V132.729Z" fill="#231F20"/>
<path d="M256.653 143.25H256.66L256.66 143.259C256.732 143.225 256.799 143.201 256.867 143.177L256.904 143.164C257.192 143.072 257.465 143.024 257.738 142.981C258.282 142.901 258.818 142.861 259.352 142.831C261.486 142.728 270.447 142.66 272.564 142.731C273.406 142.761 275.494 142.793 277.711 142.827C280.444 142.868 283.373 142.913 284.401 142.961C285.33 143.017 285.878 143.014 286.34 143.012C287.066 143.008 287.579 143.005 289.028 143.232C289.341 143.287 289.681 143.408 289.921 143.532C289.94 143.523 289.961 143.517 289.985 143.513C290.168 143.513 290.328 143.575 290.489 143.641L290.847 143.793L290.844 143.801L290.845 143.803C290.903 143.829 290.962 143.856 291.021 143.883C291.08 143.91 291.139 143.937 291.198 143.963C291.221 143.974 291.245 143.981 291.269 143.989C291.29 143.996 291.311 144.003 291.331 144.011C291.345 144.018 291.359 144.024 291.373 144.03C291.512 144.093 291.652 144.156 291.794 144.209C291.864 144.234 291.935 144.26 292.005 144.279C292.021 144.283 292.036 144.287 292.051 144.291C292.082 144.299 292.113 144.307 292.142 144.319C292.186 144.34 292.229 144.364 292.272 144.39C292.298 144.407 292.29 144.428 292.259 144.455C292.229 144.478 292.175 144.52 292.116 144.529C292.032 144.534 291.951 144.521 291.869 144.508C291.853 144.506 291.836 144.503 291.82 144.501C291.731 144.485 291.648 144.448 291.564 144.41C291.555 144.407 291.546 144.403 291.537 144.399C291.469 144.365 291.396 144.345 291.322 144.325C291.278 144.312 291.233 144.3 291.189 144.285C291.061 144.242 290.936 144.19 290.814 144.137C290.776 144.121 290.738 144.104 290.7 144.088C290.662 144.071 290.624 144.055 290.586 144.038C290.55 144.023 290.515 144.007 290.479 143.992C290.401 143.957 290.322 143.922 290.242 143.893C290.221 143.885 290.2 143.879 290.179 143.873C290.144 143.888 290.092 143.899 290.021 143.904L289.89 143.915C289.747 143.926 289.669 143.932 289.592 143.934C289.501 143.937 289.409 143.934 289.209 143.928C289.036 143.922 288.782 143.914 288.376 143.904L284.719 143.776C284.11 143.749 281.948 143.722 279.786 143.695C277.625 143.668 275.464 143.641 274.854 143.613C272.416 143.515 263.13 143.543 260.685 143.551C259.956 143.556 259.217 143.581 258.49 143.651C258.127 143.686 257.764 143.734 257.425 143.811C257.257 143.849 257.092 143.899 256.974 143.957L256.97 143.959C256.914 143.99 256.904 143.995 256.882 144.022C256.877 144.03 256.873 144.039 256.868 144.05C256.863 144.06 256.857 144.073 256.849 144.087C256.834 144.112 256.819 144.137 256.807 144.18C256.694 144.468 256.631 144.844 256.574 145.2C256.521 145.564 256.481 145.935 256.448 146.306C256.383 147.051 256.343 147.803 256.313 148.55C256.19 151.847 256.228 155.165 256.343 158.472C256.383 159.49 256.426 160.508 256.506 161.516C256.526 161.766 256.551 162.02 256.584 162.26C256.61 162.472 256.644 162.488 256.86 162.591L256.882 162.601C257.303 162.774 257.811 162.86 258.3 162.932C259.808 163.135 261.358 163.196 269.738 163.118C271.279 163.158 272.82 163.163 274.35 163.153C275.61 163.144 275.987 163.116 276.412 163.085C276.79 163.058 277.206 163.027 278.317 163.005C278.49 163.002 279.403 162.998 280.316 162.995C281.754 162.99 283.192 162.984 281.739 162.979C284.626 162.998 289.195 163.071 289.517 163.231C289.572 163.257 289.584 163.284 289.596 163.31C289.604 163.328 289.613 163.346 289.635 163.364C289.816 163.501 289.182 163.617 287.766 163.649C284.092 163.748 277.503 163.87 272.917 163.874C272.916 163.898 272.911 163.923 272.907 163.947L272.904 163.964C272.894 164.007 272.901 164.05 272.909 164.094C272.914 164.12 272.919 164.146 272.92 164.172C272.924 164.249 272.916 164.326 272.904 164.402C272.901 164.425 272.897 164.449 272.894 164.473L272.888 164.512L272.883 164.543C272.88 164.565 272.877 164.587 272.873 164.609C272.865 164.658 272.856 164.707 272.856 164.755C272.855 164.784 272.864 164.813 272.873 164.842C272.88 164.868 272.888 164.894 272.889 164.92C272.889 164.925 272.89 164.93 272.891 164.935C272.893 164.942 272.894 164.949 272.893 164.955C272.893 164.977 272.879 164.992 272.847 165C272.82 165.01 272.784 165.014 272.734 165.017C272.722 165.017 272.71 165.018 272.698 165.019C272.688 165.019 272.678 165.02 272.669 165.02C272.6 165.021 272.534 165.001 272.488 164.967C272.404 164.869 272.41 164.771 272.419 164.672L272.448 164.451H272.46L272.462 164.45C272.468 164.413 272.475 164.377 272.483 164.34C272.49 164.303 272.497 164.267 272.504 164.23C272.507 164.216 272.505 164.201 272.504 164.187C272.503 164.174 272.502 164.162 272.504 164.149L272.509 164.123C272.524 164.04 272.539 163.956 272.542 163.874C272.025 163.873 271.536 163.871 271.084 163.868C270.594 163.862 269.508 163.865 268.177 163.869C266.391 163.874 264.166 163.881 262.347 163.868L262.344 163.894C262.323 164.051 262.302 164.208 262.315 164.366C262.328 164.552 262.355 164.743 262.459 164.916C262.472 164.943 262.489 164.968 262.512 164.991C262.532 165.016 262.557 165.039 262.583 165.059L262.59 165.065C262.601 165.074 262.614 165.085 262.62 165.085C262.626 165.089 262.641 165.095 262.662 165.1C262.698 165.112 262.746 165.123 262.798 165.133C263.003 165.171 263.237 165.195 263.465 165.219C263.971 165.267 264.487 165.304 265.003 165.335C265.321 165.353 265.641 165.369 265.959 165.382L266.127 165.388L266.337 165.391C266.809 165.394 267.28 165.394 267.752 165.388C268.467 165.378 269.186 165.363 269.891 165.326C270.31 165.305 270.719 165.27 271.126 165.235C271.253 165.224 271.38 165.213 271.507 165.202C271.624 165.191 271.739 165.18 271.858 165.17C272.299 165.138 272.441 165.14 272.56 165.187C272.569 165.191 272.578 165.194 272.588 165.197C272.608 165.204 272.627 165.211 272.64 165.219C272.703 165.255 272.539 165.317 272.217 165.369C271.258 165.523 270.215 165.578 269.174 165.613C268.4 165.639 267.619 165.649 266.839 165.649V165.645C266.067 165.64 265.295 165.623 264.525 165.582L264.4 165.575C264.16 165.563 263.918 165.551 263.678 165.531C263.429 165.508 263.182 165.483 262.934 165.447C262.687 165.41 262.44 165.369 262.2 165.287C262.19 165.283 262.18 165.28 262.17 165.276C262.15 165.27 262.129 165.263 262.106 165.25L262.095 165.244C262.065 165.227 262.033 165.21 262.016 165.193L261.964 165.137C261.953 165.12 261.943 165.103 261.934 165.085C261.897 165.017 261.88 164.953 261.866 164.888C261.843 164.761 261.842 164.635 261.847 164.509C261.862 164.294 261.888 164.077 261.956 163.865C260.713 163.855 259.705 163.834 259.234 163.795C258.813 163.757 257.964 163.649 257.964 163.649C257.536 163.579 257.11 163.509 256.646 163.336C256.624 163.326 256.602 163.317 256.58 163.308C256.544 163.293 256.507 163.278 256.466 163.256L256.443 163.244C256.388 163.217 256.34 163.193 256.263 163.14C256.1 163.02 255.942 162.88 255.892 162.679C255.87 162.633 255.855 162.578 255.846 162.529C255.801 162.55 255.755 162.562 255.709 162.574C255.697 162.578 255.685 162.581 255.673 162.584C255.609 162.599 255.542 162.593 255.476 162.586L255.455 162.584C255.4 162.576 255.345 162.582 255.289 162.588C255.256 162.591 255.222 162.595 255.189 162.595C255.091 162.598 254.993 162.593 254.896 162.584C254.866 162.581 254.836 162.579 254.806 162.576C254.776 162.574 254.746 162.571 254.716 162.569C254.688 162.566 254.66 162.564 254.632 162.561C254.569 162.555 254.507 162.549 254.445 162.549C254.408 162.548 254.371 162.555 254.334 162.561C254.301 162.567 254.268 162.572 254.235 162.573C254.228 162.573 254.222 162.574 254.215 162.574C254.207 162.575 254.198 162.576 254.19 162.576C254.162 162.576 254.143 162.566 254.132 162.542C254.12 162.522 254.115 162.495 254.112 162.459C254.111 162.45 254.11 162.441 254.109 162.433C254.108 162.425 254.107 162.418 254.107 162.411C254.105 162.36 254.131 162.312 254.175 162.279C254.3 162.217 254.425 162.221 254.552 162.228L254.833 162.249V162.258L254.835 162.259C254.881 162.264 254.928 162.269 254.975 162.274C255.022 162.28 255.069 162.285 255.115 162.29C255.134 162.292 255.152 162.291 255.17 162.29C255.186 162.289 255.202 162.289 255.218 162.29L255.252 162.293C255.362 162.305 255.473 162.317 255.583 162.318C255.637 162.318 255.693 162.318 255.745 162.312C255.757 162.311 255.768 162.31 255.78 162.308C255.789 162.307 255.799 162.306 255.808 162.305L255.807 162.29L255.802 162.253C255.787 162.143 255.774 162.032 255.764 161.927C255.722 161.501 255.692 161.084 255.664 160.666L255.684 160.661L255.689 160.663C255.581 158.714 255.517 156.769 255.49 154.824C255.309 154.81 255.127 154.799 254.944 154.807C254.707 154.817 254.463 154.837 254.242 154.913C254.208 154.923 254.176 154.935 254.147 154.952C254.115 154.966 254.085 154.984 254.06 155.004L254.052 155.009C254.04 155.017 254.026 155.026 254.026 155.031C254.022 155.035 254.014 155.046 254.007 155.062C253.992 155.089 253.977 155.124 253.965 155.162C253.916 155.312 253.886 155.484 253.856 155.652C253.795 156.023 253.747 156.402 253.708 156.781C253.685 157.014 253.664 157.25 253.648 157.483C253.644 157.536 253.641 157.589 253.637 157.643L253.635 157.761C253.63 158.107 253.63 158.453 253.639 158.799C253.651 159.325 253.67 159.852 253.717 160.37C253.744 160.678 253.789 160.978 253.834 161.277C253.848 161.37 253.862 161.464 253.875 161.557C253.89 161.643 253.903 161.728 253.917 161.815C253.957 162.139 253.955 162.243 253.895 162.33C253.89 162.337 253.886 162.344 253.881 162.351C253.873 162.365 253.864 162.38 253.854 162.389C253.808 162.436 253.729 162.315 253.662 162.078C253.466 161.374 253.396 160.608 253.351 159.844C253.317 159.275 253.305 158.702 253.305 158.129H253.31C253.316 157.563 253.338 156.996 253.391 156.43L253.399 156.338C253.414 156.162 253.43 155.984 253.456 155.808C253.485 155.625 253.517 155.443 253.563 155.262C253.61 155.08 253.663 154.899 253.767 154.723C253.772 154.715 253.776 154.708 253.781 154.7C253.789 154.686 253.798 154.67 253.814 154.654L253.822 154.645C253.843 154.623 253.866 154.6 253.887 154.587L253.958 154.549C253.98 154.541 254.003 154.534 254.025 154.527C254.112 154.5 254.194 154.488 254.276 154.478C254.439 154.461 254.599 154.459 254.76 154.464C255.003 154.473 255.246 154.489 255.486 154.527C255.48 153.951 255.476 153.375 255.475 152.798C255.411 152.809 255.345 152.805 255.279 152.8L255.258 152.798C255.203 152.793 255.148 152.797 255.092 152.801C255.059 152.804 255.025 152.806 254.992 152.806C254.894 152.808 254.796 152.804 254.699 152.798C254.669 152.796 254.639 152.795 254.609 152.793C254.579 152.791 254.549 152.789 254.519 152.787C254.49 152.786 254.462 152.784 254.434 152.782C254.372 152.778 254.309 152.773 254.248 152.773C254.211 152.773 254.174 152.777 254.137 152.782C254.104 152.786 254.071 152.79 254.038 152.79C254.031 152.79 254.024 152.791 254.018 152.791C254.009 152.792 254.001 152.793 253.993 152.792C253.965 152.792 253.946 152.785 253.935 152.768C253.923 152.754 253.918 152.735 253.914 152.709C253.914 152.703 253.913 152.696 253.912 152.69C253.911 152.685 253.91 152.68 253.909 152.675C253.908 152.639 253.934 152.605 253.978 152.58C254.103 152.536 254.228 152.539 254.354 152.544L254.636 152.559V152.565L254.637 152.566C254.684 152.57 254.731 152.574 254.778 152.577C254.825 152.581 254.871 152.585 254.918 152.588C254.936 152.59 254.955 152.589 254.973 152.589C254.989 152.588 255.005 152.588 255.021 152.588L255.055 152.591C255.165 152.599 255.276 152.608 255.386 152.609C255.416 152.609 255.446 152.609 255.475 152.608C255.476 151.991 255.479 151.374 255.486 150.757C255.489 150.567 255.492 150.377 255.495 150.187L255.495 150.186C255.509 149.22 255.523 148.255 255.586 147.288L255.478 147.273L255.47 147.272L255.465 147.272C255.426 147.27 255.387 147.268 255.348 147.266C255.148 147.255 254.947 147.244 254.746 147.251C254.509 147.258 254.265 147.272 254.044 147.326C254.01 147.334 253.978 147.343 253.949 147.355C253.917 147.365 253.887 147.378 253.862 147.392L253.854 147.395C253.842 147.401 253.828 147.408 253.828 147.411C253.824 147.414 253.816 147.422 253.809 147.433C253.794 147.452 253.779 147.477 253.767 147.504C253.718 147.612 253.687 147.734 253.658 147.854C253.597 148.119 253.549 148.389 253.51 148.659C253.486 148.826 253.466 148.994 253.45 149.16C253.446 149.194 253.443 149.227 253.44 149.261L253.438 149.357C253.433 149.604 253.433 149.851 253.441 150.098C253.454 150.473 253.473 150.85 253.52 151.219C253.547 151.439 253.592 151.653 253.637 151.866C253.65 151.933 253.664 151.999 253.678 152.066C253.693 152.127 253.706 152.187 253.72 152.25C253.76 152.481 253.758 152.555 253.697 152.617C253.693 152.622 253.689 152.627 253.684 152.632C253.676 152.642 253.667 152.653 253.657 152.659C253.61 152.693 253.532 152.606 253.465 152.437C253.269 151.935 253.199 151.389 253.153 150.844C253.12 150.438 253.108 150.029 253.108 149.62H253.113C253.119 149.216 253.141 148.812 253.194 148.408L253.202 148.343C253.217 148.217 253.233 148.09 253.259 147.964C253.288 147.834 253.32 147.704 253.365 147.575C253.413 147.445 253.466 147.316 253.57 147.19C253.575 147.185 253.579 147.18 253.584 147.174C253.592 147.164 253.601 147.153 253.617 147.141L253.625 147.135C253.646 147.119 253.668 147.102 253.69 147.094L253.761 147.066C253.783 147.06 253.805 147.055 253.827 147.05C253.914 147.031 253.997 147.022 254.079 147.015C254.242 147.003 254.402 147.002 254.563 147.005C254.846 147.013 255.13 147.027 255.408 147.065C255.467 147.074 255.526 147.082 255.585 147.092L255.599 147.094C255.634 146.574 255.681 146.054 255.744 145.531L255.763 145.399C255.833 144.903 255.902 144.416 256.1 143.882C256.11 143.846 256.128 143.809 256.153 143.766L256.204 143.673C256.213 143.444 256.213 143.215 256.206 142.987C256.205 142.956 256.204 142.925 256.203 142.894C256.199 142.859 256.194 142.824 256.189 142.79C256.168 142.623 256.139 142.455 256.107 142.288C256.053 142.018 255.987 141.748 255.903 141.483C255.862 141.364 255.82 141.241 255.753 141.134C255.736 141.106 255.716 141.081 255.695 141.062C255.685 141.051 255.675 141.043 255.668 141.04C255.668 141.037 255.649 141.03 255.633 141.025L255.623 141.021C255.587 141.007 255.547 140.994 255.503 140.984C255.463 140.972 255.419 140.963 255.371 140.956C255.068 140.902 254.732 140.887 254.405 140.88C254.128 140.874 253.852 140.885 253.577 140.895C253.523 140.897 253.47 140.9 253.417 140.902L253.409 140.902L253.398 140.903L253.241 140.918C253.223 140.919 253.205 140.921 253.187 140.924L253.164 140.927L253.145 140.929V140.928C253.09 140.931 253.042 140.937 253 140.941C252.914 140.95 252.857 140.956 252.84 140.939L252.84 140.931C252.84 140.902 252.84 140.861 252.855 140.829C252.869 140.792 252.921 140.77 252.978 140.76L253.069 140.745L253.13 140.736L253.251 140.721C253.332 140.711 253.413 140.703 253.494 140.695C253.877 140.657 254.268 140.643 254.658 140.634C254.879 140.631 255.1 140.632 255.324 140.645C255.437 140.652 255.55 140.661 255.67 140.68C255.7 140.685 255.731 140.69 255.761 140.696L255.859 140.723C255.889 140.732 255.92 140.748 255.949 140.764L255.96 140.77C255.982 140.782 255.994 140.793 256.006 140.803C256.012 140.809 256.017 140.814 256.024 140.819C256.168 140.945 256.24 141.074 256.306 141.204C256.368 141.333 256.412 141.463 256.453 141.594C256.489 141.719 256.51 141.846 256.531 141.972L256.542 142.037C256.614 142.441 256.645 142.845 256.653 143.25Z" fill="#231F20"/>
<path d="M279.868 162.975C280.741 162.976 281.346 162.978 281.739 162.979C280.949 162.974 280.285 162.973 279.868 162.975Z" fill="#231F20"/>
<path d="M293.198 153.432C293.205 153.243 293.204 153.053 293.203 152.863C293.203 152.711 293.202 152.558 293.206 152.407C293.22 151.876 293.24 151.346 293.259 150.815C293.284 150.14 293.309 149.464 293.323 148.789C293.325 148.629 293.327 148.469 293.329 148.308V148.305C293.334 147.93 293.339 147.555 293.336 147.184C293.336 147.032 293.334 146.88 293.332 146.727V146.722C293.326 146.193 293.32 145.664 293.386 145.136C293.416 144.922 293.439 144.948 293.521 145.123C293.609 145.299 293.762 145.627 293.814 146.021C293.879 146.718 293.935 147.417 293.97 148.117C293.99 148.816 293.97 149.518 293.937 150.223C293.914 150.737 293.915 151.262 293.915 151.79C293.915 152.128 293.915 152.466 293.91 152.803C293.882 154.123 293.828 154.977 293.772 155.875C293.725 156.618 293.676 157.391 293.639 158.483C293.629 158.824 293.621 159.162 293.619 159.498C293.614 159.834 293.596 160.173 293.576 160.511C293.574 160.548 293.573 160.585 293.571 160.622C293.566 160.733 293.561 160.844 293.551 160.955C293.484 161.512 293.406 161.682 293.246 161.783L293.234 161.79L293.228 161.794L293.215 161.803L293.207 161.808C293.183 161.825 293.159 161.841 293.138 161.848C293.023 161.885 292.948 161.65 292.93 161.246C292.912 160.647 292.902 160.033 292.892 159.408C292.904 159.078 292.916 158.744 292.927 158.409C292.937 158.114 292.947 157.819 292.958 157.523C292.991 156.611 293.035 156.072 293.078 155.548C293.124 154.978 293.169 154.426 293.198 153.432Z" fill="#231F20"/>
<path fill-rule="evenodd" clip-rule="evenodd" d="M282.789 154.842C282.521 154.723 282.292 154.532 282.12 154.316C281.948 154.099 281.816 153.855 281.744 153.585C281.693 153.394 281.657 153.169 281.691 152.974C281.733 152.624 281.876 152.288 282.101 152.023C282.162 151.951 282.228 151.884 282.3 151.824C282.196 151.635 282.091 151.447 281.979 151.267C281.911 151.157 281.836 151.051 281.762 150.945C281.694 150.849 281.626 150.753 281.564 150.654C281.552 150.635 281.54 150.616 281.528 150.598C281.51 150.571 281.491 150.543 281.475 150.513C281.431 150.45 281.409 150.374 281.411 150.297C281.413 150.246 281.434 150.197 281.469 150.159C281.482 150.141 281.496 150.125 281.512 150.11C281.562 150.068 281.653 150.11 281.777 150.202C282.087 150.534 282.377 150.883 282.647 151.247C282.712 151.336 282.777 151.425 282.842 151.514C282.879 151.502 282.917 151.49 282.955 151.48C283.246 151.405 283.554 151.405 283.841 151.473C283.87 151.482 283.899 151.49 283.929 151.498C283.991 151.515 284.053 151.531 284.109 151.56C284.136 151.573 284.163 151.586 284.191 151.599C284.249 151.626 284.307 151.653 284.361 151.686C284.378 151.699 284.396 151.711 284.414 151.723C284.473 151.763 284.531 151.803 284.584 151.851L284.597 151.866C284.653 151.931 284.709 151.996 284.744 152.08C284.749 152.106 284.754 152.125 284.758 152.139C284.763 152.16 284.765 152.17 284.762 152.173C284.759 152.176 284.751 152.175 284.738 152.173C284.723 152.17 284.701 152.166 284.669 152.165C284.608 152.165 284.525 152.165 284.444 152.15C284.423 152.145 284.401 152.142 284.378 152.139C284.357 152.136 284.335 152.133 284.313 152.129C284.272 152.117 284.232 152.1 284.194 152.08C283.917 151.94 283.632 151.853 283.346 151.862C283.267 151.864 283.189 151.874 283.112 151.892C283.158 151.956 283.204 152.02 283.251 152.084L283.213 152.082L283.276 152.178C283.393 152.355 283.511 152.535 283.623 152.715C283.736 152.743 283.848 152.819 283.915 152.94C283.928 152.963 283.939 152.99 283.947 153.014L283.962 153.082C283.973 153.126 283.973 153.177 283.97 153.228L283.969 153.23L283.981 153.247L284.448 154.016C284.461 153.998 284.473 153.981 284.485 153.963C284.576 153.838 284.625 153.691 284.659 153.543C284.695 153.392 284.705 153.242 284.691 153.103C284.686 153.058 284.676 153.016 284.665 152.974C284.661 152.958 284.657 152.941 284.654 152.925C284.645 152.884 284.636 152.848 284.628 152.815C284.615 152.762 284.605 152.72 284.603 152.681C284.595 152.62 284.612 152.567 284.635 152.515C284.638 152.505 284.641 152.495 284.644 152.485C284.649 152.471 284.653 152.457 284.659 152.446C284.674 152.416 284.708 152.416 284.776 152.435C284.844 152.454 284.922 152.513 284.994 152.615C285.365 153.186 285.209 153.963 284.725 154.466C284.796 154.571 284.873 154.668 284.954 154.77L285.012 154.844C286.051 156.39 286.26 156.692 286.343 156.812C286.358 156.833 286.368 156.848 286.379 156.864C286.448 156.976 286.5 157.099 286.532 157.227C286.552 157.314 286.453 157.356 286.315 157.372C286.16 157.401 286.001 157.375 285.863 157.3C285.576 157.027 284.632 155.668 284.124 154.87C283.699 155.038 283.208 155.036 282.787 154.853L282.791 154.842H282.789ZM282.252 152.63C282.305 152.471 282.397 152.327 282.514 152.216L282.765 152.674C282.844 152.825 282.931 152.982 283.02 153.134C283.008 153.184 283.003 153.236 283.006 153.288C283.01 153.392 283.068 153.515 283.169 153.593C283.22 153.634 283.283 153.654 283.341 153.664C283.4 153.752 283.463 153.838 283.526 153.922C283.633 154.067 283.74 154.211 283.822 154.367C283.831 154.384 283.841 154.402 283.852 154.423C283.728 154.462 283.598 154.481 283.469 154.479C283.208 154.483 282.955 154.39 282.753 154.237C282.422 153.989 282.194 153.568 282.169 153.18C282.166 153.125 282.171 153.064 282.176 153.002C282.178 152.969 282.181 152.935 282.183 152.902C282.19 152.873 282.196 152.843 282.201 152.814C282.213 152.751 282.225 152.688 282.252 152.63Z" fill="#231F20"/>
<path fill-rule="evenodd" clip-rule="evenodd" d="M265.732 154.366C265.718 154.349 265.705 154.333 265.691 154.316C265.519 154.099 265.387 153.855 265.315 153.585C265.264 153.394 265.229 153.169 265.263 152.974C265.304 152.624 265.448 152.288 265.672 152.023C265.895 151.758 266.198 151.565 266.526 151.48C266.817 151.405 267.125 151.405 267.412 151.473C267.441 151.482 267.47 151.49 267.5 151.498C267.562 151.515 267.624 151.531 267.681 151.56C267.707 151.573 267.734 151.585 267.761 151.598C267.83 151.506 267.898 151.414 267.963 151.321C268.038 151.216 268.106 151.105 268.174 150.995C268.236 150.895 268.297 150.795 268.364 150.698C268.377 150.68 268.389 150.662 268.401 150.643C268.419 150.616 268.437 150.589 268.459 150.561C268.5 150.496 268.56 150.446 268.631 150.418C268.68 150.4 268.733 150.4 268.781 150.418C268.803 150.422 268.824 150.428 268.843 150.437C268.902 150.467 268.899 150.568 268.863 150.718C268.68 151.133 268.473 151.537 268.243 151.928L268.234 151.945C268.266 151.986 268.294 152.029 268.315 152.08C268.321 152.106 268.325 152.125 268.329 152.139C268.334 152.16 268.336 152.17 268.333 152.173C268.33 152.176 268.323 152.175 268.309 152.173C268.295 152.17 268.272 152.166 268.24 152.165C268.202 152.165 268.155 152.165 268.106 152.161C268.052 152.251 267.998 152.34 267.943 152.429C267.866 152.557 267.788 152.684 267.712 152.813L267.699 152.777L267.635 152.873C267.598 152.929 267.561 152.985 267.524 153.041L267.533 153.082C267.544 153.126 267.544 153.177 267.541 153.228C267.531 153.33 267.484 153.434 267.42 153.508L267.414 153.502V153.508C267.32 153.607 267.206 153.658 267.088 153.671C267.061 153.713 267.036 153.758 267.01 153.804C266.985 153.849 266.959 153.895 266.93 153.941L266.604 154.396C266.742 154.451 266.89 154.481 267.04 154.479C267.431 154.485 267.836 154.294 268.057 153.963C268.147 153.838 268.196 153.691 268.23 153.543C268.266 153.392 268.276 153.242 268.263 153.103C268.257 153.058 268.247 153.016 268.237 152.974C268.232 152.958 268.228 152.941 268.225 152.925C268.216 152.884 268.207 152.848 268.2 152.815C268.187 152.762 268.176 152.72 268.174 152.681C268.166 152.62 268.183 152.567 268.206 152.515C268.21 152.505 268.213 152.495 268.216 152.485C268.22 152.471 268.225 152.457 268.23 152.446C268.246 152.416 268.28 152.416 268.348 152.435C268.416 152.454 268.493 152.513 268.565 152.615C268.992 153.271 268.722 154.199 268.058 154.672C267.573 155.022 266.906 155.092 266.358 154.853L266.362 154.842H266.36C266.341 154.834 266.322 154.825 266.304 154.816L266.164 155.012C266.067 155.147 265.992 155.287 265.911 155.435C265.897 155.462 265.882 155.49 265.867 155.517C265.811 155.629 265.749 155.738 265.681 155.844C265.605 155.952 265.512 156.047 265.407 156.128C265.336 156.18 265.257 156.105 265.189 155.984C265.102 155.853 265.063 155.697 265.078 155.54C265.235 155.117 265.456 154.721 265.732 154.366ZM266.036 153.946C265.866 153.717 265.757 153.441 265.741 153.18C265.737 153.125 265.742 153.064 265.747 153.002C265.75 152.969 265.752 152.935 265.754 152.902C265.761 152.873 265.767 152.843 265.772 152.814C265.785 152.751 265.797 152.688 265.824 152.63C265.882 152.452 265.99 152.293 266.128 152.178C266.356 151.987 266.632 151.868 266.917 151.862C267.106 151.856 267.295 151.892 267.481 151.957C267.446 152.002 267.411 152.047 267.376 152.091L266.979 152.597C266.919 152.671 266.858 152.747 266.798 152.825C266.73 152.865 266.683 152.934 266.641 153.003C266.629 153.026 266.618 153.051 266.608 153.076C266.517 153.2 266.43 153.322 266.349 153.436C266.269 153.55 266.199 153.669 266.13 153.788C266.099 153.841 266.068 153.894 266.036 153.946Z" fill="#231F20"/>
<path d="M267.467 160.065C267.54 160.06 267.613 160.055 267.686 160.049C268.077 160.01 268.469 159.956 268.852 159.867C269.238 159.787 269.624 159.656 269.991 159.5C270.726 159.183 271.389 158.712 271.942 158.144C272.496 157.574 272.954 156.912 273.272 156.185L273.302 156.108C273.374 155.927 273.443 155.754 273.481 155.578L273.506 155.472C273.521 155.41 273.536 155.35 273.55 155.291C273.561 155.224 273.57 155.157 273.578 155.092C273.581 155.067 273.584 155.043 273.587 155.018C273.611 154.844 273.623 154.685 273.607 154.541C273.606 154.517 273.605 154.494 273.604 154.471C273.599 154.359 273.595 154.261 273.57 154.176C273.547 154.062 273.537 153.977 273.531 153.923C273.526 153.882 273.523 153.86 273.519 153.856C273.51 153.849 273.485 153.952 273.43 154.176C273.221 155.618 272.533 156.984 271.471 157.983C270.643 158.756 269.596 159.304 268.465 159.492C267.83 159.605 267.185 159.652 266.542 159.621C265.9 159.58 265.264 159.465 264.657 159.267C263.435 158.884 262.357 158.101 261.625 157.074C261.209 156.492 260.91 155.824 260.728 155.126C260.236 153.21 260.694 151.086 261.91 149.537L261.908 149.534L261.917 149.538C262.223 149.149 262.558 148.781 262.945 148.471C263.087 148.343 263.243 148.235 263.399 148.127C263.446 148.094 263.493 148.061 263.54 148.028C263.602 147.98 263.67 147.942 263.739 147.904C263.778 147.882 263.818 147.86 263.856 147.836C263.896 147.815 263.934 147.792 263.973 147.769C264.04 147.729 264.108 147.689 264.181 147.659L264.516 147.502C264.587 147.467 264.662 147.441 264.737 147.414C264.778 147.4 264.82 147.385 264.861 147.369C265.035 147.298 265.215 147.249 265.395 147.201C265.452 147.186 265.51 147.17 265.567 147.154C265.642 147.135 265.718 147.122 265.795 147.109C265.84 147.101 265.884 147.094 265.928 147.085C266.049 147.062 266.171 147.039 266.293 147.032L266.659 146.998L267.027 146.995C268.348 147.007 269.643 147.48 270.669 148.279C271.687 149.098 272.548 150.143 272.906 151.344C272.917 151.386 272.93 151.428 272.942 151.468C272.958 151.524 272.974 151.578 272.987 151.63C272.997 151.672 273.007 151.713 273.016 151.752C273.028 151.798 273.038 151.842 273.049 151.885C273.069 151.989 273.091 152.083 273.11 152.165C273.12 152.207 273.129 152.247 273.137 152.283C273.185 152.493 273.232 152.588 273.278 152.53C273.296 152.506 273.315 152.461 273.333 152.415C273.341 152.395 273.349 152.375 273.357 152.356C273.42 152.221 273.451 152.052 273.431 151.761C273.424 151.689 273.414 151.609 273.403 151.52C273.39 151.44 273.371 151.354 273.349 151.261L273.342 151.227C273.324 151.151 273.299 151.072 273.273 150.987C273.262 150.953 273.25 150.917 273.239 150.88C273.225 150.845 273.211 150.808 273.197 150.77C273.163 150.678 273.126 150.579 273.078 150.478C272.941 150.167 272.77 149.885 272.581 149.61C272.366 149.298 272.125 149.008 271.867 148.737C271.739 148.602 271.604 148.471 271.468 148.345C271.383 148.264 271.292 148.19 271.2 148.115C271.146 148.071 271.092 148.027 271.039 147.981C270.452 147.517 269.785 147.147 269.068 146.902C268.148 146.572 267.146 146.485 266.173 146.598C265.196 146.715 264.254 147.071 263.419 147.583C263.37 147.615 263.322 147.646 263.273 147.679C262.168 148.3 260.946 149.401 260.215 151.388C259.241 154.038 259.954 157.952 263.946 159.455C264.395 159.649 264.86 159.796 265.33 159.898C266.005 160.05 266.701 160.103 267.389 160.069C267.511 160.072 267.635 160.073 267.76 160.073L267.759 160.072L267.467 160.065Z" fill="#231F20"/>
<path d="M263.953 148.963C263.497 149.277 263.081 149.658 262.749 150.108L262.711 150.163C262.665 150.228 262.62 150.293 262.577 150.361C262.526 150.449 262.475 150.537 262.421 150.624C262.244 150.936 262.098 151.266 261.98 151.608C261.872 151.954 261.787 152.307 261.74 152.669C261.722 152.802 261.714 152.937 261.707 153.07L261.702 153.154C261.702 153.194 261.702 153.235 261.702 153.276C261.703 153.397 261.703 153.519 261.709 153.64C261.722 153.847 261.736 154.053 261.764 154.259C261.771 154.307 261.775 154.355 261.78 154.404C261.785 154.459 261.79 154.514 261.798 154.569L261.803 154.608C261.815 154.698 261.827 154.789 261.808 154.885C261.784 154.957 261.771 154.989 261.764 154.988C261.76 154.988 261.756 154.982 261.749 154.972C261.739 154.959 261.722 154.938 261.693 154.911C261.594 154.817 261.462 154.628 261.422 154.381C261.259 153.513 261.293 152.59 261.567 151.732C261.73 151.221 261.93 150.695 262.224 150.229C262.542 149.715 262.961 149.27 263.428 148.897C263.719 148.669 264.031 148.472 264.357 148.304C264.854 148.053 265.386 147.872 265.927 147.766C266.347 147.682 266.769 147.625 267.199 147.631C267.234 147.632 267.269 147.633 267.305 147.633C267.363 147.634 267.422 147.635 267.481 147.641C267.835 147.678 267.941 147.739 267.988 147.86L267.992 147.87L267.998 147.882C268.007 147.902 268.016 147.922 268.019 147.939C268.032 148.023 267.88 148.066 267.643 148.044C266.933 147.993 266.184 148.054 265.464 148.264C264.929 148.414 264.417 148.658 263.956 148.973L263.95 148.966L263.953 148.963Z" fill="#231F20"/>
<path d="M284.171 160.049C284.098 160.055 284.025 160.061 283.952 160.065L284.245 160.072L284.246 160.074C284.12 160.074 283.997 160.072 283.875 160.069C283.186 160.104 282.49 160.05 281.814 159.898C281.343 159.796 280.876 159.648 280.426 159.453C276.439 157.948 275.727 154.037 276.701 151.389C277.431 149.405 278.65 148.304 279.754 147.682C279.804 147.649 279.854 147.616 279.904 147.584C280.739 147.071 281.681 146.716 282.658 146.598C283.631 146.486 284.633 146.572 285.553 146.902C286.27 147.148 286.937 147.517 287.524 147.982C287.577 148.027 287.631 148.071 287.685 148.116C287.777 148.19 287.868 148.265 287.953 148.345C288.089 148.472 288.224 148.602 288.352 148.737C288.61 149.009 288.851 149.298 289.066 149.611C289.255 149.885 289.426 150.168 289.562 150.479C289.611 150.58 289.648 150.678 289.682 150.77C289.696 150.808 289.71 150.845 289.724 150.881C289.735 150.918 289.747 150.953 289.758 150.988C289.784 151.073 289.809 151.152 289.826 151.228L289.834 151.262C289.855 151.355 289.875 151.44 289.888 151.52C289.899 151.61 289.909 151.689 289.916 151.762C289.936 152.053 289.905 152.222 289.842 152.357C289.834 152.375 289.826 152.395 289.818 152.415C289.8 152.461 289.781 152.506 289.763 152.53C289.717 152.588 289.67 152.493 289.622 152.283C289.614 152.247 289.605 152.208 289.595 152.166L289.595 152.165C289.576 152.083 289.554 151.99 289.534 151.885C289.523 151.843 289.513 151.799 289.502 151.753C289.492 151.714 289.482 151.673 289.472 151.631C289.459 151.578 289.443 151.525 289.427 151.469C289.415 151.428 289.402 151.387 289.391 151.344C289.033 150.144 288.172 149.098 287.154 148.28C286.128 147.48 284.833 147.007 283.512 146.996L283.144 146.999L282.778 147.033C282.656 147.04 282.534 147.063 282.413 147.085C282.369 147.094 282.325 147.102 282.28 147.109C282.203 147.122 282.127 147.135 282.051 147.155C281.995 147.171 281.937 147.186 281.88 147.202C281.7 147.25 281.52 147.298 281.346 147.369C281.305 147.386 281.263 147.4 281.222 147.415C281.147 147.441 281.072 147.467 281.001 147.503L280.666 147.659C280.593 147.689 280.525 147.729 280.458 147.77C280.419 147.793 280.381 147.816 280.341 147.837C280.303 147.861 280.263 147.883 280.224 147.905C280.155 147.943 280.087 147.981 280.025 148.029C279.978 148.062 279.931 148.094 279.884 148.127C279.728 148.236 279.572 148.344 279.43 148.472C279.043 148.781 278.708 149.149 278.402 149.539L278.392 149.534L278.395 149.537C277.179 151.087 276.721 153.211 277.213 155.127C277.395 155.824 277.694 156.492 278.11 157.074C278.842 158.101 279.92 158.884 281.142 159.268C281.749 159.465 282.385 159.58 283.027 159.621C283.669 159.653 284.315 159.606 284.95 159.492C286.081 159.305 287.128 158.756 287.956 157.984C289.017 156.985 289.706 155.618 289.914 154.177C289.97 153.952 289.995 153.85 290.004 153.857C290.008 153.86 290.011 153.883 290.016 153.923C290.022 153.977 290.032 154.063 290.055 154.177C290.08 154.262 290.084 154.359 290.089 154.472L290.09 154.504L290.092 154.542C290.108 154.685 290.096 154.844 290.072 155.019C290.069 155.043 290.066 155.068 290.063 155.093C290.055 155.157 290.046 155.224 290.035 155.292C290.021 155.35 290.006 155.41 289.991 155.472L289.966 155.579C289.928 155.754 289.859 155.928 289.787 156.108L289.757 156.185C289.439 156.912 288.981 157.574 288.427 158.144C287.874 158.712 287.211 159.184 286.475 159.501C286.109 159.657 285.723 159.788 285.337 159.867C284.954 159.957 284.562 160.011 284.171 160.049Z" fill="#231F20"/>
<path d="M279.084 150.263C279.333 149.903 279.641 149.589 279.971 149.305L279.978 149.311C280.306 149.02 280.682 148.778 281.071 148.576C281.461 148.376 281.874 148.22 282.298 148.122C283.441 147.834 284.649 147.984 285.656 148.46C285.724 148.487 285.784 148.515 285.838 148.541C285.926 148.581 285.997 148.615 286.059 148.626C286.157 148.65 286.214 148.643 286.216 148.596C286.217 148.576 286.209 148.551 286.202 148.526L286.198 148.514C286.196 148.507 286.194 148.501 286.193 148.495C286.156 148.345 286.03 148.204 285.523 147.971C285.483 147.957 285.444 147.941 285.405 147.926C285.306 147.887 285.209 147.848 285.106 147.821C284.461 147.62 283.789 147.562 283.119 147.613C282.687 147.647 282.259 147.736 281.843 147.862C281.425 147.988 281.028 148.174 280.649 148.388C280.152 148.674 279.688 149.025 279.288 149.444C278.969 149.788 278.686 150.166 278.449 150.574C278.222 150.986 278.04 151.423 277.91 151.878C277.803 152.294 277.734 152.724 277.722 153.156C277.714 153.587 277.735 154.017 277.813 154.433C278.049 155.827 278.866 157.125 280.067 157.882C280.405 158.098 280.75 158.165 280.943 158.152C280.997 158.15 281.037 158.153 281.061 158.156C281.08 158.157 281.091 158.158 281.093 158.155C281.099 158.149 281.063 158.115 280.984 158.043C280.966 158.022 280.946 158.011 280.925 158C280.91 157.992 280.895 157.984 280.882 157.973C280.869 157.965 280.856 157.957 280.843 157.948C280.822 157.934 280.8 157.92 280.778 157.909C280.724 157.881 280.671 157.85 280.618 157.818L280.57 157.789C280.432 157.706 280.297 157.617 280.166 157.523C279.905 157.335 279.66 157.124 279.44 156.889C279.271 156.705 279.108 156.512 278.963 156.303C278.82 156.094 278.692 155.874 278.581 155.646C278.343 155.129 278.177 154.58 278.111 154.017C278.045 153.455 278.072 152.884 278.185 152.331C278.255 152.018 278.33 151.707 278.452 151.41C278.608 151 278.831 150.618 279.084 150.263Z" fill="#231F20"/>
<path d="M291.157 162.714C291.099 162.742 291.04 162.77 290.982 162.797C290.923 162.825 290.865 162.853 290.807 162.881C290.784 162.891 290.763 162.905 290.741 162.918C290.723 162.93 290.704 162.942 290.684 162.951L290.642 162.972C290.505 163.037 290.367 163.104 290.235 163.179C290.171 163.216 290.105 163.254 290.045 163.295C290.032 163.304 290.019 163.313 290.006 163.322C289.98 163.34 289.955 163.359 289.926 163.373C289.882 163.394 289.835 163.411 289.788 163.427C289.758 163.436 289.747 163.417 289.747 163.376C289.748 163.338 289.752 163.269 289.783 163.219C289.833 163.151 289.895 163.097 289.957 163.043C289.97 163.032 289.983 163.021 289.995 163.01C290.064 162.952 290.146 162.912 290.229 162.872L290.255 162.86C290.325 162.828 290.387 162.786 290.45 162.742C290.489 162.716 290.527 162.69 290.567 162.667C290.682 162.597 290.802 162.534 290.921 162.475C290.958 162.456 290.996 162.438 291.033 162.419C291.07 162.401 291.107 162.382 291.144 162.364C291.178 162.347 291.213 162.33 291.248 162.313C291.325 162.275 291.403 162.237 291.476 162.195C291.521 162.17 291.562 162.139 291.603 162.108C291.639 162.08 291.675 162.053 291.714 162.029C291.722 162.025 291.73 162.019 291.738 162.014C291.747 162.007 291.757 162.001 291.767 161.996C291.8 161.976 291.827 161.972 291.852 161.985C291.877 161.994 291.896 162.014 291.919 162.043C291.924 162.05 291.929 162.057 291.935 162.064C291.939 162.069 291.944 162.075 291.948 162.081C291.975 162.124 291.968 162.183 291.933 162.243C291.815 162.383 291.664 162.465 291.51 162.546L291.163 162.722L291.159 162.714L291.157 162.714Z" fill="#231F20"/>
<path d="M292.178 135.811C292.19 135.903 292.109 135.954 291.977 135.985C291.938 136.007 291.82 135.961 291.809 135.935C291.789 135.882 291.772 135.828 291.76 135.772C291.745 135.747 291.815 135.267 291.829 135.105C291.849 134.947 291.882 134.791 291.928 134.638C292.01 134.333 292.094 134.025 292.184 133.72C292.203 133.652 292.229 133.586 292.261 133.522C292.368 133.304 292.454 133.075 292.516 132.84C292.532 132.803 292.539 132.763 292.537 132.722C292.591 132.459 292.675 132.202 292.789 131.958C292.904 131.775 293.003 131.589 293.111 131.406C293.125 131.38 293.129 131.348 293.162 131.329C293.221 131.292 293.264 131.235 293.283 131.169C293.323 131.087 293.371 131.01 293.425 130.937C293.459 130.901 293.495 130.868 293.533 130.838C293.572 130.816 293.612 130.848 293.615 130.865C293.617 130.882 293.662 130.889 293.686 130.893C293.691 130.899 293.695 130.906 293.697 130.913C293.707 131.114 293.7 131.316 293.676 131.516C293.676 131.516 293.624 131.707 293.569 131.9C293.514 132.092 293.459 132.297 293.451 132.334C293.436 132.377 293.415 132.418 293.388 132.455C293.371 132.464 293.223 133.051 293.213 133.072C293.183 133.193 293.132 133.308 293.063 133.411C293.05 133.427 293.04 133.445 293.034 133.464C292.977 133.666 292.896 133.863 292.819 134.061C292.782 134.163 292.755 134.27 292.727 134.374L292.698 134.427C292.685 134.448 292.674 134.47 292.666 134.493C292.601 134.744 292.503 134.983 292.45 135.237C292.439 135.295 292.306 135.555 292.302 135.619C292.299 135.683 292.185 135.785 292.178 135.811Z" fill="#221F1F"/>
<path d="M297.752 142.079C297.726 142.123 297.676 142.093 297.594 142.027C297.561 141.992 297.537 141.951 297.524 141.905C297.534 141.87 297.547 141.836 297.561 141.803C297.578 141.794 297.782 141.618 297.848 141.562C297.917 141.511 297.991 141.469 298.069 141.435L298.523 141.216C298.557 141.201 298.595 141.192 298.632 141.189C298.758 141.174 298.881 141.137 298.995 141.081C299.017 141.075 299.037 141.064 299.053 141.047C299.172 140.972 299.303 140.917 299.44 140.884C299.559 140.884 299.677 140.878 299.795 140.864C299.795 140.864 299.823 140.849 299.845 140.869C299.868 140.889 299.922 140.887 299.956 140.882C300.005 140.872 300.056 140.872 300.105 140.881C300.135 140.888 300.163 140.899 300.19 140.913C300.216 140.92 300.22 140.966 300.221 140.969C300.223 140.971 300.24 141.002 300.25 141.018C300.255 141.024 300.259 141.031 300.261 141.038C300.23 141.085 300.196 141.13 300.159 141.173C300.121 141.22 300.079 141.262 300.033 141.3L299.641 141.525C299.621 141.536 299.597 141.539 299.574 141.534C299.574 141.534 299.297 141.692 299.269 141.687C299.206 141.705 299.155 141.752 299.074 141.725C299.068 141.726 299.062 141.728 299.057 141.731C299.052 141.734 299.047 141.738 299.044 141.742C298.942 141.782 298.836 141.812 298.728 141.831C298.674 141.848 298.62 141.868 298.568 141.89L298.535 141.891L298.505 141.908C298.377 141.948 298.252 141.995 298.131 142.049C298.103 142.065 297.95 142.079 297.924 142.098C297.898 142.116 297.761 142.063 297.752 142.079Z" fill="#221F1F"/>
<path d="M294.302 139.565C294.297 139.584 294.288 139.601 294.275 139.616C294.262 139.63 294.246 139.641 294.228 139.648C294.182 139.66 294.134 139.668 294.087 139.67C294.048 139.674 293.957 139.642 293.959 139.607C293.96 139.546 293.968 139.485 293.983 139.425C293.989 139.385 294.244 138.971 294.33 138.833C294.412 138.701 294.504 138.574 294.605 138.456C294.805 138.209 295.006 137.965 295.217 137.738C295.263 137.685 295.314 137.637 295.369 137.593C295.553 137.437 295.722 137.264 295.873 137.077C295.901 137.048 295.925 137.015 295.941 136.979C296.1 136.765 296.276 136.564 296.467 136.38C296.637 136.253 296.793 136.116 296.972 135.981C296.992 135.956 297.021 135.94 297.052 135.935C297.119 135.924 297.18 135.889 297.223 135.837C297.289 135.775 297.36 135.719 297.435 135.668C297.477 135.644 297.522 135.626 297.57 135.616C297.609 135.594 297.653 135.671 297.648 135.689C297.643 135.706 297.678 135.741 297.712 135.755C297.717 135.764 297.723 135.773 297.728 135.783C297.649 135.965 297.556 136.141 297.449 136.309L296.903 136.956C296.873 136.99 296.838 137.02 296.8 137.044C296.783 137.054 296.405 137.52 296.387 137.534C296.308 137.632 296.215 137.717 296.109 137.785C296.089 137.798 296.071 137.815 296.056 137.833C295.914 137.995 295.759 138.14 295.606 138.289C295.529 138.367 295.463 138.449 295.379 138.533C295.362 138.545 295.345 138.555 295.327 138.563L295.263 138.6C295.093 138.789 294.903 138.964 294.749 139.169C294.714 139.215 294.507 139.385 294.456 139.451C294.406 139.517 294.307 139.536 294.302 139.565Z" fill="#221F1F"/>
<rect x="238.918" y="113.897" width="70.8101" height="2.73081" fill="white" stroke="#C7C7C7" stroke-width="0.623825"/>
<rect x="0.5" y="0.5" width="349" height="251" rx="3.5" stroke="#E5E5E5"/>
</svg>
