<svg width="350" height="210" viewBox="0 0 350 210" fill="none" xmlns="http://www.w3.org/2000/svg">
<rect x="0.5" y="0.5" width="349" height="209" rx="3.5" fill="white"/>
<rect x="37.1654" y="59.779" width="78.0785" height="78.0785" fill="white" stroke="#E5E5E5" stroke-width="0.623825"/>
<rect x="40.1762" y="69.416" width="72.0554" height="65.2291" fill="white" stroke="#E5E5E5" stroke-width="0.623825"/>
<rect x="40.1762" y="62.5897" width="72.0554" height="2.78929" fill="white" stroke="#E5E5E5" stroke-width="0.623825"/>
<path d="M63.333 97.9947C63.333 91.4839 67.5831 86.6008 73.9582 86.6008C77.304 86.6008 79.9264 88.0025 81.2376 90.3988L81.5541 87.3243H86.6633V108.529C86.6633 115.99 82.1871 120.647 74.9529 120.647C68.5326 120.647 64.1469 116.984 63.4686 111.016H68.9847C69.3464 113.91 71.5619 115.628 74.9529 115.628C78.7509 115.628 81.1924 113.232 81.1924 109.524V105.817C79.7908 107.896 77.0328 109.208 73.8226 109.208C67.4927 109.208 63.333 104.46 63.333 97.9947ZM68.8943 97.859C68.8943 101.612 71.2906 104.415 74.9077 104.415C78.7057 104.415 81.0568 101.747 81.0568 97.859C81.0568 94.0611 78.7509 91.4387 74.9077 91.4387C71.2454 91.4387 68.8943 94.1967 68.8943 97.859Z" fill="black"/>
<rect x="104.626" y="89.6937" width="78.2793" height="78.0785" fill="white" stroke="#E5E5E5" stroke-width="0.623825"/>
<rect x="107.637" y="99.3308" width="72.0554" height="65.2291" fill="#FFEAEB" stroke="#E5E5E5" stroke-width="0.623825"/>
<rect x="107.637" y="92.5047" width="66.0322" height="2.78929" fill="white" stroke="#E5E5E5" stroke-width="0.623825"/>
<rect x="176.091" y="92.2932" width="3.81465" height="3.21234" fill="white" stroke="#C7C7C7" stroke-width="0.200771"/>
<path d="M132.86 150.33V117.641H137.969L138.331 121.032C139.688 118.455 142.627 116.963 146.018 116.963C152.302 116.963 156.462 121.529 156.462 128.537C156.462 135.5 152.664 140.564 146.018 140.564C142.672 140.564 139.778 139.253 138.376 136.992V150.33H132.86ZM138.422 128.809C138.422 132.833 140.908 135.591 144.706 135.591C148.595 135.591 150.901 132.787 150.901 128.809C150.901 124.83 148.595 121.981 144.706 121.981C140.908 121.981 138.422 124.784 138.422 128.809Z" fill="black"/>
<rect x="168.07" y="42.3119" width="78.0785" height="78.0785" fill="white" stroke="#E5E5E5" stroke-width="0.623825"/>
<rect x="171.08" y="51.9489" width="72.0554" height="65.2291" fill="white" stroke="#E5E5E5" stroke-width="0.623825"/>
<rect x="171.08" y="45.1227" width="72.0554" height="2.78929" fill="white" stroke="#E5E5E5" stroke-width="0.623825"/>
<path d="M212.086 73.8727H217.602V96.2083H212.493L212.086 93.2242C210.729 95.3492 207.836 96.7961 204.852 96.7961C199.697 96.7961 196.668 93.3146 196.668 87.8438V73.8727H202.184V85.8996C202.184 90.1497 203.857 91.8678 206.931 91.8678C210.413 91.8678 212.086 89.8332 212.086 85.5831V73.8727Z" fill="black"/>
<rect x="235.958" y="89.7226" width="76.7301" height="76.7301" fill="white" stroke="#C7C7C7" stroke-width="0.623825"/>
<rect x="238.918" y="99.1945" width="70.8101" height="64.1009" fill="#EDEDED" stroke="#C7C7C7" stroke-width="0.623825"/>
<path d="M255.893 152.998L255.236 152.772L254.745 153.347L254.752 152.58L254.089 152.334C254.278 152.246 254.714 152.07 254.714 152.07C254.714 152.07 254.84 151.603 254.833 151.359L255.28 151.869C255.28 151.869 255.887 151.818 255.923 151.813C255.881 151.913 255.536 152.346 255.536 152.346C255.536 152.346 255.744 152.693 255.894 152.998H255.893Z" fill="#231F20"/>
<path d="M284.538 152.508L284.351 151.801L283.629 151.684L284.233 151.266L284.057 150.542C284.231 150.659 284.61 150.949 284.61 150.949C284.61 150.949 285.045 150.803 285.232 150.66L285.081 151.34C285.081 151.34 285.456 151.85 285.48 151.878C285.378 151.896 284.849 151.83 284.849 151.83C284.849 151.83 284.693 152.207 284.538 152.508Z" fill="#231F20"/>
<path d="M295.401 147.045L295.242 146.439L294.625 146.339L295.141 145.982L294.991 145.363C295.14 145.463 295.463 145.711 295.463 145.711C295.463 145.711 295.835 145.586 295.995 145.465L295.866 146.045C295.866 146.045 296.187 146.482 296.208 146.505C296.121 146.521 295.669 146.464 295.669 146.464C295.669 146.464 295.535 146.786 295.403 147.045H295.401Z" fill="#231F20"/>
<path d="M259.664 111.316L258.787 111.452L258.558 112.419L258.127 111.524L257.232 111.641C257.396 111.425 257.791 110.955 257.791 110.955C257.791 110.955 257.667 110.336 257.518 110.057L258.319 110.377C258.319 110.377 258.98 109.951 259.017 109.924C259.027 110.066 258.882 110.777 258.882 110.777C258.882 110.777 259.318 111.054 259.664 111.318V111.316Z" fill="#231F20"/>
<path d="M256.653 121.838H256.66L256.66 121.847C256.732 121.813 256.799 121.789 256.867 121.765L256.904 121.752C257.192 121.66 257.465 121.612 257.738 121.569C258.282 121.489 258.818 121.449 259.352 121.419C261.486 121.316 270.447 121.248 272.564 121.318C273.406 121.349 275.494 121.381 277.711 121.414C280.444 121.456 283.373 121.501 284.401 121.549C285.33 121.605 285.878 121.602 286.34 121.6C287.066 121.596 287.579 121.593 289.028 121.82C289.341 121.875 289.681 121.996 289.921 122.12C289.94 122.111 289.961 122.105 289.985 122.101C290.168 122.101 290.328 122.163 290.489 122.229L290.847 122.381L290.844 122.389L290.845 122.391C290.903 122.417 290.962 122.444 291.021 122.471C291.08 122.498 291.139 122.525 291.198 122.551C291.221 122.562 291.245 122.569 291.269 122.577C291.29 122.584 291.311 122.59 291.331 122.599C291.345 122.605 291.359 122.612 291.373 122.618C291.512 122.681 291.652 122.744 291.794 122.796C291.864 122.822 291.935 122.847 292.005 122.867C292.021 122.871 292.036 122.875 292.051 122.879C292.082 122.887 292.113 122.895 292.142 122.907C292.186 122.928 292.229 122.952 292.272 122.978C292.298 122.995 292.29 123.016 292.259 123.042C292.229 123.066 292.175 123.108 292.116 123.116C292.032 123.122 291.951 123.109 291.869 123.096C291.853 123.094 291.836 123.091 291.82 123.089C291.731 123.073 291.648 123.036 291.564 122.998C291.555 122.994 291.546 122.99 291.537 122.987C291.469 122.953 291.396 122.933 291.322 122.913C291.278 122.9 291.233 122.888 291.189 122.873C291.061 122.829 290.936 122.778 290.814 122.725C290.776 122.708 290.738 122.692 290.7 122.676C290.662 122.659 290.624 122.643 290.586 122.626C290.55 122.611 290.515 122.595 290.479 122.58C290.401 122.545 290.322 122.51 290.242 122.481C290.221 122.473 290.2 122.467 290.179 122.461C290.144 122.476 290.092 122.487 290.021 122.492L289.89 122.502C289.747 122.514 289.669 122.52 289.592 122.522C289.501 122.525 289.409 122.522 289.209 122.515C289.036 122.51 288.782 122.502 288.376 122.492L284.719 122.364C284.11 122.336 281.948 122.31 279.786 122.283C277.625 122.256 275.464 122.229 274.854 122.201C272.416 122.103 263.13 122.131 260.685 122.138C259.956 122.143 259.217 122.169 258.49 122.239C258.127 122.274 257.764 122.321 257.425 122.399C257.257 122.437 257.092 122.487 256.974 122.545L256.97 122.547C256.914 122.578 256.904 122.583 256.882 122.61C256.877 122.618 256.873 122.627 256.868 122.637C256.863 122.648 256.857 122.661 256.849 122.675C256.834 122.7 256.819 122.725 256.807 122.768C256.694 123.056 256.631 123.432 256.574 123.788C256.521 124.152 256.481 124.523 256.448 124.894C256.383 125.639 256.343 126.391 256.313 127.138C256.19 130.435 256.228 133.752 256.343 137.06C256.383 138.078 256.426 139.096 256.506 140.104C256.526 140.354 256.551 140.608 256.584 140.848C256.61 141.059 256.644 141.076 256.86 141.179L256.882 141.189C257.303 141.362 257.811 141.448 258.3 141.52C259.808 141.723 261.358 141.783 269.738 141.706C271.279 141.746 272.82 141.751 274.35 141.741C275.61 141.732 275.987 141.704 276.412 141.673C276.79 141.646 277.206 141.615 278.317 141.593C278.49 141.59 279.403 141.586 280.316 141.583C281.754 141.578 283.192 141.572 281.739 141.567C284.626 141.586 289.195 141.659 289.517 141.819C289.572 141.845 289.584 141.872 289.596 141.898C289.604 141.916 289.613 141.934 289.635 141.951C289.816 142.089 289.182 142.205 287.766 142.237C284.092 142.336 277.503 142.458 272.917 142.461C272.916 142.486 272.911 142.511 272.907 142.535L272.904 142.552C272.894 142.595 272.901 142.638 272.909 142.681C272.914 142.708 272.919 142.734 272.92 142.76C272.924 142.837 272.916 142.914 272.904 142.99C272.901 143.013 272.897 143.037 272.894 143.06L272.888 143.1L272.883 143.131C272.88 143.153 272.877 143.175 272.873 143.197C272.865 143.246 272.856 143.295 272.856 143.343C272.855 143.372 272.864 143.401 272.873 143.43C272.88 143.456 272.888 143.482 272.889 143.507C272.889 143.513 272.89 143.518 272.891 143.523C272.893 143.53 272.894 143.537 272.893 143.543C272.893 143.565 272.879 143.579 272.847 143.588C272.82 143.598 272.784 143.602 272.734 143.604C272.722 143.605 272.71 143.606 272.698 143.607C272.688 143.607 272.678 143.608 272.669 143.608C272.6 143.609 272.534 143.589 272.488 143.555C272.404 143.457 272.41 143.359 272.419 143.26L272.448 143.039H272.46L272.462 143.038C272.468 143.001 272.475 142.965 272.483 142.928C272.49 142.891 272.497 142.854 272.504 142.818C272.507 142.804 272.505 142.789 272.504 142.775C272.503 142.762 272.502 142.75 272.504 142.737L272.509 142.711C272.524 142.628 272.539 142.544 272.542 142.461C272.025 142.461 271.536 142.459 271.084 142.455C270.594 142.449 269.508 142.453 268.177 142.457C266.391 142.462 264.166 142.469 262.347 142.456L262.344 142.482C262.323 142.638 262.302 142.796 262.315 142.954C262.328 143.14 262.355 143.331 262.459 143.504C262.472 143.531 262.489 143.556 262.512 143.579C262.532 143.604 262.557 143.627 262.583 143.647L262.59 143.653C262.601 143.662 262.614 143.673 262.62 143.673C262.626 143.677 262.641 143.683 262.662 143.688C262.698 143.7 262.746 143.711 262.798 143.721C263.003 143.759 263.237 143.783 263.465 143.806C263.971 143.854 264.487 143.892 265.003 143.923C265.321 143.941 265.641 143.957 265.959 143.97L266.127 143.976L266.337 143.979C266.809 143.982 267.28 143.982 267.752 143.976C268.467 143.966 269.186 143.951 269.891 143.914C270.31 143.893 270.719 143.858 271.126 143.823C271.253 143.812 271.38 143.801 271.507 143.79C271.624 143.779 271.739 143.768 271.858 143.758C272.299 143.726 272.441 143.728 272.56 143.775C272.569 143.778 272.578 143.782 272.588 143.785C272.608 143.792 272.627 143.799 272.64 143.807C272.703 143.843 272.539 143.905 272.217 143.957C271.258 144.111 270.215 144.166 269.174 144.201C268.4 144.227 267.619 144.237 266.839 144.237V144.233C266.067 144.228 265.295 144.211 264.525 144.17L264.4 144.163C264.16 144.151 263.918 144.139 263.678 144.119C263.429 144.096 263.182 144.071 262.934 144.035C262.687 143.998 262.44 143.956 262.2 143.875C262.19 143.871 262.18 143.868 262.17 143.864C262.15 143.858 262.129 143.851 262.106 143.838L262.095 143.832C262.065 143.815 262.033 143.798 262.016 143.781L261.964 143.725C261.953 143.708 261.943 143.69 261.934 143.673C261.897 143.605 261.88 143.541 261.866 143.476C261.843 143.348 261.842 143.223 261.847 143.097C261.862 142.882 261.888 142.665 261.956 142.453C260.713 142.443 259.705 142.421 259.234 142.383C258.813 142.345 257.964 142.237 257.964 142.237C257.536 142.167 257.11 142.097 256.646 141.924C256.624 141.914 256.602 141.905 256.58 141.896C256.544 141.881 256.507 141.866 256.466 141.844L256.443 141.832C256.388 141.805 256.34 141.781 256.263 141.728C256.1 141.608 255.942 141.468 255.892 141.267C255.87 141.22 255.855 141.166 255.846 141.117C255.801 141.138 255.755 141.15 255.709 141.162C255.697 141.166 255.685 141.169 255.673 141.172C255.609 141.187 255.542 141.181 255.476 141.174L255.455 141.172C255.4 141.164 255.345 141.17 255.289 141.176C255.256 141.179 255.222 141.183 255.189 141.183C255.091 141.186 254.993 141.18 254.896 141.172C254.866 141.169 254.836 141.167 254.806 141.164C254.776 141.162 254.746 141.159 254.716 141.157C254.688 141.154 254.66 141.152 254.632 141.149C254.569 141.143 254.507 141.137 254.445 141.137C254.408 141.136 254.371 141.142 254.334 141.149C254.301 141.154 254.268 141.16 254.235 141.161C254.228 141.161 254.222 141.162 254.215 141.162C254.207 141.163 254.198 141.164 254.19 141.164C254.162 141.164 254.143 141.154 254.132 141.13C254.12 141.11 254.115 141.083 254.112 141.047C254.111 141.038 254.11 141.029 254.109 141.021C254.108 141.013 254.107 141.006 254.107 140.999C254.105 140.948 254.131 140.9 254.175 140.867C254.3 140.805 254.425 140.809 254.552 140.816L254.833 140.837V140.845L254.835 140.847C254.881 140.852 254.928 140.857 254.975 140.862C255.022 140.868 255.069 140.873 255.115 140.878C255.134 140.88 255.152 140.879 255.17 140.878C255.186 140.877 255.202 140.876 255.218 140.878L255.252 140.881C255.362 140.893 255.473 140.905 255.583 140.906C255.637 140.906 255.693 140.906 255.745 140.9C255.757 140.899 255.768 140.898 255.78 140.896C255.789 140.895 255.799 140.894 255.808 140.893L255.807 140.878L255.802 140.841C255.787 140.73 255.774 140.62 255.764 140.515C255.722 140.089 255.692 139.672 255.664 139.254L255.684 139.249L255.689 139.251C255.581 137.302 255.517 135.357 255.49 133.412C255.309 133.398 255.127 133.386 254.944 133.395C254.707 133.405 254.463 133.425 254.242 133.501C254.208 133.51 254.176 133.523 254.147 133.54C254.115 133.554 254.085 133.572 254.06 133.592L254.052 133.597C254.04 133.605 254.026 133.614 254.026 133.619C254.022 133.623 254.014 133.634 254.007 133.65C253.992 133.677 253.977 133.712 253.965 133.75C253.916 133.9 253.886 134.072 253.856 134.24C253.795 134.611 253.747 134.99 253.708 135.369C253.685 135.602 253.664 135.837 253.648 136.071C253.644 136.124 253.641 136.177 253.637 136.23L253.635 136.348C253.63 136.695 253.63 137.041 253.639 137.387C253.651 137.912 253.67 138.44 253.717 138.958C253.744 139.266 253.789 139.566 253.834 139.865C253.848 139.958 253.862 140.052 253.875 140.145C253.89 140.231 253.903 140.315 253.917 140.403C253.957 140.727 253.955 140.831 253.895 140.918C253.89 140.925 253.886 140.932 253.881 140.939C253.873 140.953 253.864 140.968 253.854 140.977C253.808 141.024 253.729 140.902 253.662 140.666C253.466 139.962 253.396 139.196 253.351 138.432C253.317 137.863 253.305 137.29 253.305 136.717H253.31C253.316 136.15 253.338 135.584 253.391 135.018L253.399 134.926C253.414 134.75 253.43 134.572 253.456 134.396C253.485 134.213 253.517 134.031 253.563 133.85C253.61 133.668 253.663 133.486 253.767 133.311C253.772 133.303 253.776 133.296 253.781 133.288C253.789 133.274 253.798 133.258 253.814 133.242L253.822 133.233C253.843 133.211 253.866 133.188 253.887 133.175L253.958 133.137C253.98 133.129 254.003 133.122 254.025 133.115C254.112 133.088 254.194 133.075 254.276 133.066C254.439 133.049 254.599 133.047 254.76 133.051C255.003 133.061 255.246 133.077 255.486 133.115C255.48 132.539 255.476 131.963 255.475 131.386C255.411 131.397 255.345 131.392 255.279 131.388L255.258 131.386C255.203 131.381 255.148 131.385 255.092 131.389C255.059 131.391 255.025 131.394 254.992 131.394C254.894 131.396 254.796 131.392 254.699 131.386C254.669 131.384 254.639 131.382 254.609 131.381C254.579 131.379 254.549 131.377 254.519 131.375C254.49 131.374 254.462 131.372 254.434 131.37C254.372 131.365 254.309 131.361 254.248 131.361C254.211 131.361 254.174 131.365 254.137 131.37C254.104 131.374 254.071 131.378 254.038 131.378C254.031 131.378 254.024 131.379 254.018 131.379C254.009 131.38 254.001 131.381 253.993 131.38C253.965 131.38 253.946 131.373 253.935 131.356C253.923 131.342 253.918 131.323 253.914 131.297C253.914 131.29 253.913 131.284 253.912 131.278C253.911 131.273 253.91 131.268 253.909 131.263C253.908 131.227 253.934 131.192 253.978 131.168C254.103 131.124 254.228 131.127 254.354 131.132L254.636 131.147V131.153L254.637 131.154C254.684 131.158 254.731 131.162 254.778 131.165C254.825 131.169 254.871 131.173 254.918 131.176C254.936 131.178 254.955 131.177 254.973 131.177C254.989 131.176 255.005 131.175 255.021 131.176L255.055 131.179C255.165 131.187 255.276 131.196 255.386 131.196C255.416 131.196 255.446 131.196 255.475 131.196C255.476 130.579 255.479 129.962 255.486 129.345C255.489 129.155 255.492 128.965 255.495 128.775L255.495 128.773C255.509 127.808 255.523 126.842 255.586 125.876L255.478 125.861L255.47 125.86L255.465 125.86C255.426 125.858 255.387 125.856 255.348 125.854C255.148 125.843 254.947 125.832 254.746 125.839C254.509 125.846 254.265 125.86 254.044 125.914C254.01 125.921 253.978 125.93 253.949 125.942C253.917 125.953 253.887 125.966 253.862 125.98L253.854 125.983C253.842 125.989 253.828 125.995 253.828 125.999C253.824 126.002 253.816 126.01 253.809 126.021C253.794 126.04 253.779 126.065 253.767 126.092C253.718 126.2 253.687 126.322 253.658 126.442C253.597 126.707 253.549 126.977 253.51 127.247C253.486 127.414 253.466 127.581 253.45 127.748C253.446 127.782 253.443 127.815 253.44 127.849L253.438 127.945C253.433 128.192 253.433 128.439 253.441 128.686C253.454 129.061 253.473 129.438 253.52 129.807C253.547 130.027 253.592 130.241 253.637 130.454C253.65 130.52 253.664 130.587 253.678 130.654C253.693 130.715 253.706 130.775 253.72 130.838C253.76 131.069 253.758 131.143 253.697 131.205C253.693 131.21 253.689 131.215 253.684 131.22C253.676 131.23 253.667 131.241 253.657 131.247C253.61 131.28 253.532 131.194 253.465 131.025C253.269 130.523 253.199 129.977 253.153 129.432C253.12 129.026 253.108 128.617 253.108 128.208H253.113C253.119 127.804 253.141 127.4 253.194 126.996L253.202 126.931C253.217 126.805 253.233 126.678 253.259 126.552C253.288 126.422 253.32 126.292 253.365 126.163C253.413 126.033 253.466 125.903 253.57 125.778C253.575 125.773 253.579 125.767 253.584 125.762C253.592 125.752 253.601 125.741 253.617 125.729L253.625 125.723C253.646 125.707 253.668 125.69 253.69 125.682L253.761 125.654C253.783 125.648 253.805 125.643 253.827 125.638C253.914 125.619 253.997 125.61 254.079 125.603C254.242 125.591 254.402 125.59 254.563 125.593C254.846 125.601 255.13 125.615 255.408 125.653C255.467 125.661 255.526 125.669 255.585 125.679L255.599 125.682C255.634 125.162 255.681 124.642 255.744 124.119L255.763 123.987C255.833 123.491 255.902 123.004 256.1 122.469C256.11 122.434 256.128 122.397 256.153 122.354L256.204 122.261C256.213 122.032 256.213 121.803 256.206 121.574C256.205 121.544 256.204 121.513 256.203 121.482C256.199 121.447 256.194 121.412 256.189 121.377C256.168 121.211 256.139 121.043 256.107 120.876C256.053 120.606 255.987 120.336 255.903 120.071C255.862 119.951 255.82 119.829 255.753 119.721C255.736 119.694 255.716 119.669 255.695 119.65C255.685 119.639 255.675 119.631 255.668 119.628C255.668 119.625 255.649 119.618 255.633 119.612L255.623 119.609C255.587 119.595 255.547 119.582 255.503 119.572C255.463 119.56 255.419 119.551 255.371 119.544C255.068 119.489 254.732 119.475 254.405 119.468C254.128 119.462 253.852 119.472 253.577 119.483C253.523 119.485 253.47 119.487 253.417 119.489L253.409 119.49L253.398 119.491L253.241 119.506C253.223 119.507 253.205 119.509 253.187 119.512L253.164 119.515L253.145 119.517V119.516C253.09 119.519 253.042 119.524 253 119.529C252.914 119.538 252.857 119.544 252.84 119.527L252.84 119.519C252.84 119.49 252.84 119.449 252.855 119.417C252.869 119.38 252.921 119.358 252.978 119.348L253.069 119.333L253.13 119.324L253.251 119.309C253.332 119.299 253.413 119.291 253.494 119.283C253.877 119.244 254.268 119.23 254.658 119.222C254.879 119.219 255.1 119.22 255.324 119.232C255.437 119.239 255.55 119.248 255.67 119.268C255.7 119.273 255.731 119.278 255.761 119.284L255.859 119.311C255.889 119.32 255.92 119.336 255.949 119.352L255.96 119.358C255.982 119.37 255.994 119.381 256.006 119.391C256.012 119.397 256.017 119.402 256.024 119.407C256.168 119.533 256.24 119.662 256.306 119.792C256.368 119.921 256.412 120.051 256.453 120.181C256.489 120.307 256.51 120.434 256.531 120.56L256.542 120.625C256.614 121.029 256.645 121.433 256.653 121.838Z" fill="#231F20"/>
<path d="M279.868 141.563C280.741 141.564 281.346 141.566 281.739 141.567C280.949 141.562 280.285 141.561 279.868 141.563Z" fill="#231F20"/>
<path d="M293.198 132.02C293.205 131.831 293.204 131.641 293.203 131.45C293.203 131.299 293.202 131.146 293.206 130.995C293.22 130.464 293.24 129.934 293.259 129.403C293.284 128.727 293.309 128.052 293.323 127.377C293.325 127.217 293.327 127.057 293.329 126.896V126.893C293.334 126.518 293.339 126.143 293.336 125.772C293.336 125.62 293.334 125.468 293.332 125.315V125.31C293.326 124.781 293.32 124.252 293.386 123.724C293.416 123.51 293.439 123.535 293.521 123.711C293.609 123.886 293.762 124.215 293.814 124.609C293.879 125.306 293.935 126.005 293.97 126.705C293.99 127.404 293.97 128.106 293.937 128.811C293.914 129.325 293.915 129.85 293.915 130.378C293.915 130.716 293.915 131.054 293.91 131.391C293.882 132.711 293.828 133.565 293.772 134.463C293.725 135.206 293.676 135.979 293.639 137.071C293.629 137.412 293.621 137.75 293.619 138.086C293.614 138.422 293.596 138.761 293.576 139.099C293.574 139.136 293.573 139.173 293.571 139.21C293.566 139.321 293.561 139.432 293.551 139.543C293.484 140.1 293.406 140.27 293.246 140.371L293.234 140.378L293.228 140.382L293.215 140.391L293.207 140.396C293.183 140.413 293.159 140.429 293.138 140.436C293.023 140.473 292.948 140.238 292.93 139.834C292.912 139.235 292.902 138.62 292.892 137.996C292.904 137.665 292.916 137.332 292.927 136.997C292.937 136.702 292.947 136.406 292.958 136.111C292.991 135.199 293.035 134.66 293.078 134.136C293.124 133.566 293.169 133.013 293.198 132.02Z" fill="#231F20"/>
<path fill-rule="evenodd" clip-rule="evenodd" d="M282.789 133.43C282.521 133.311 282.292 133.12 282.12 132.904C281.948 132.687 281.816 132.443 281.744 132.173C281.693 131.982 281.657 131.757 281.691 131.562C281.733 131.212 281.876 130.876 282.101 130.611C282.162 130.539 282.228 130.472 282.3 130.412C282.196 130.223 282.091 130.035 281.979 129.855C281.911 129.745 281.836 129.639 281.762 129.533C281.694 129.437 281.626 129.341 281.564 129.242C281.552 129.222 281.54 129.204 281.528 129.186C281.51 129.159 281.491 129.131 281.475 129.101C281.431 129.038 281.409 128.962 281.411 128.885C281.413 128.834 281.434 128.785 281.469 128.747C281.482 128.729 281.496 128.713 281.512 128.698C281.562 128.656 281.653 128.698 281.777 128.79C282.087 129.121 282.377 129.47 282.647 129.835C282.712 129.924 282.777 130.013 282.842 130.102C282.879 130.089 282.917 130.078 282.955 130.068C283.246 129.993 283.554 129.993 283.841 130.061C283.87 130.07 283.899 130.078 283.929 130.086C283.991 130.102 284.053 130.119 284.109 130.148C284.136 130.161 284.163 130.174 284.191 130.186C284.249 130.214 284.307 130.241 284.361 130.274C284.378 130.287 284.396 130.299 284.414 130.311C284.473 130.351 284.531 130.391 284.584 130.439L284.597 130.454C284.653 130.519 284.709 130.583 284.744 130.668C284.749 130.693 284.754 130.713 284.758 130.727C284.763 130.748 284.765 130.758 284.762 130.761C284.759 130.764 284.751 130.763 284.738 130.761C284.723 130.758 284.701 130.754 284.669 130.753C284.608 130.753 284.525 130.753 284.444 130.737C284.423 130.733 284.401 130.73 284.378 130.727C284.357 130.724 284.335 130.721 284.313 130.717C284.272 130.705 284.232 130.688 284.194 130.668C283.917 130.528 283.632 130.441 283.346 130.45C283.267 130.452 283.189 130.462 283.112 130.48C283.158 130.544 283.204 130.608 283.251 130.671L283.213 130.669L283.276 130.766C283.393 130.943 283.511 131.123 283.623 131.303C283.736 131.331 283.848 131.406 283.915 131.528C283.928 131.551 283.939 131.577 283.947 131.602L283.962 131.67C283.973 131.714 283.973 131.765 283.97 131.816L283.969 131.818L283.981 131.835L284.448 132.603C284.461 132.586 284.473 132.569 284.485 132.551C284.576 132.426 284.625 132.278 284.659 132.131C284.695 131.98 284.705 131.83 284.691 131.69C284.686 131.646 284.676 131.604 284.665 131.562C284.661 131.546 284.657 131.529 284.654 131.513C284.645 131.471 284.636 131.435 284.628 131.403C284.615 131.35 284.605 131.308 284.603 131.269C284.595 131.208 284.612 131.155 284.635 131.102C284.638 131.093 284.641 131.083 284.644 131.073C284.649 131.059 284.653 131.045 284.659 131.034C284.674 131.004 284.708 131.004 284.776 131.023C284.844 131.042 284.922 131.101 284.994 131.203C285.365 131.774 285.209 132.551 284.725 133.054C284.796 133.159 284.873 133.256 284.954 133.358L285.012 133.432C286.051 134.978 286.26 135.28 286.343 135.4C286.358 135.421 286.368 135.436 286.379 135.451C286.448 135.564 286.5 135.687 286.532 135.815C286.552 135.901 286.453 135.944 286.315 135.96C286.16 135.989 286.001 135.963 285.863 135.888C285.576 135.615 284.632 134.256 284.124 133.458C283.699 133.625 283.208 133.624 282.787 133.441L282.791 133.43H282.789ZM282.252 131.218C282.305 131.059 282.397 130.915 282.514 130.804L282.765 131.262C282.844 131.413 282.931 131.57 283.02 131.722C283.008 131.772 283.003 131.824 283.006 131.876C283.01 131.98 283.068 132.103 283.169 132.181C283.22 132.222 283.283 132.241 283.341 132.252C283.4 132.34 283.463 132.425 283.526 132.51C283.633 132.655 283.74 132.799 283.822 132.955C283.831 132.972 283.841 132.99 283.852 133.011C283.728 133.049 283.598 133.069 283.469 133.067C283.208 133.071 282.955 132.978 282.753 132.825C282.422 132.577 282.194 132.156 282.169 131.768C282.166 131.713 282.171 131.652 282.176 131.59C282.178 131.557 282.181 131.523 282.183 131.49C282.19 131.461 282.196 131.431 282.201 131.401C282.213 131.339 282.225 131.276 282.252 131.218Z" fill="#231F20"/>
<path fill-rule="evenodd" clip-rule="evenodd" d="M265.732 132.954C265.718 132.937 265.705 132.921 265.691 132.904C265.519 132.687 265.387 132.443 265.315 132.173C265.264 131.982 265.229 131.757 265.263 131.562C265.304 131.212 265.448 130.876 265.672 130.611C265.895 130.346 266.198 130.153 266.526 130.068C266.817 129.993 267.125 129.993 267.412 130.061C267.441 130.07 267.47 130.078 267.5 130.086C267.562 130.102 267.624 130.119 267.681 130.148C267.707 130.161 267.734 130.173 267.761 130.186C267.83 130.094 267.898 130.002 267.963 129.909C268.038 129.803 268.106 129.693 268.174 129.583C268.236 129.483 268.297 129.383 268.364 129.286C268.377 129.268 268.389 129.25 268.401 129.231C268.419 129.204 268.437 129.177 268.459 129.149C268.5 129.084 268.56 129.034 268.631 129.006C268.68 128.988 268.733 128.988 268.781 129.006C268.803 129.01 268.824 129.016 268.843 129.025C268.902 129.055 268.899 129.156 268.863 129.306C268.68 129.721 268.473 130.125 268.243 130.516L268.234 130.533C268.266 130.573 268.294 130.617 268.315 130.668C268.321 130.693 268.325 130.713 268.329 130.727C268.334 130.748 268.336 130.758 268.333 130.761C268.33 130.764 268.323 130.763 268.309 130.761C268.295 130.758 268.272 130.754 268.24 130.753C268.202 130.753 268.155 130.753 268.106 130.749C268.052 130.839 267.998 130.928 267.943 131.017C267.866 131.144 267.788 131.272 267.712 131.4L267.699 131.365L267.635 131.461C267.598 131.517 267.561 131.573 267.524 131.629L267.533 131.67C267.544 131.714 267.544 131.765 267.541 131.816C267.531 131.918 267.484 132.022 267.42 132.095L267.414 132.09V132.095C267.32 132.195 267.206 132.246 267.088 132.258C267.061 132.301 267.036 132.346 267.01 132.392C266.985 132.437 266.959 132.483 266.93 132.529L266.604 132.984C266.742 133.039 266.89 133.069 267.04 133.067C267.431 133.073 267.836 132.882 268.057 132.551C268.147 132.426 268.196 132.278 268.23 132.131C268.266 131.98 268.276 131.83 268.263 131.69C268.257 131.646 268.247 131.604 268.237 131.562C268.232 131.546 268.228 131.529 268.225 131.513C268.216 131.471 268.207 131.435 268.2 131.403C268.187 131.35 268.176 131.308 268.174 131.269C268.166 131.208 268.183 131.155 268.206 131.102C268.21 131.093 268.213 131.083 268.216 131.073C268.22 131.059 268.225 131.045 268.23 131.034C268.246 131.004 268.28 131.004 268.348 131.023C268.416 131.042 268.493 131.101 268.565 131.203C268.992 131.859 268.722 132.787 268.058 133.26C267.573 133.61 266.906 133.68 266.358 133.441L266.362 133.43H266.36C266.341 133.422 266.322 133.413 266.304 133.404L266.164 133.6C266.067 133.735 265.992 133.875 265.911 134.023C265.897 134.05 265.882 134.078 265.867 134.105C265.811 134.217 265.749 134.326 265.681 134.432C265.605 134.54 265.512 134.635 265.407 134.715C265.336 134.768 265.257 134.693 265.189 134.572C265.102 134.441 265.063 134.284 265.078 134.128C265.235 133.705 265.456 133.309 265.732 132.954ZM266.036 132.534C265.866 132.305 265.757 132.029 265.741 131.768C265.737 131.713 265.742 131.652 265.747 131.59C265.75 131.557 265.752 131.523 265.754 131.49C265.761 131.461 265.767 131.431 265.772 131.401C265.785 131.339 265.797 131.276 265.824 131.218C265.882 131.04 265.99 130.881 266.128 130.766C266.356 130.575 266.632 130.456 266.917 130.45C267.106 130.444 267.295 130.48 267.481 130.545C267.446 130.59 267.411 130.635 267.376 130.679L266.979 131.185C266.919 131.259 266.858 131.335 266.798 131.413C266.73 131.453 266.683 131.522 266.641 131.591C266.629 131.614 266.618 131.639 266.608 131.664C266.517 131.787 266.43 131.91 266.349 132.024C266.269 132.138 266.199 132.257 266.13 132.375C266.099 132.429 266.068 132.482 266.036 132.534Z" fill="#231F20"/>
<path d="M267.467 138.652C267.54 138.648 267.613 138.643 267.686 138.636C268.077 138.598 268.469 138.544 268.852 138.455C269.238 138.375 269.624 138.244 269.991 138.088C270.726 137.771 271.389 137.3 271.942 136.731C272.496 136.162 272.954 135.5 273.272 134.773L273.302 134.696C273.374 134.515 273.443 134.342 273.481 134.166L273.506 134.059C273.521 133.998 273.536 133.938 273.55 133.879C273.561 133.811 273.57 133.745 273.578 133.68C273.581 133.655 273.584 133.63 273.587 133.606C273.611 133.432 273.623 133.273 273.607 133.129C273.606 133.105 273.605 133.082 273.604 133.059C273.599 132.947 273.595 132.849 273.57 132.764C273.547 132.65 273.537 132.565 273.531 132.511C273.526 132.47 273.523 132.447 273.519 132.444C273.51 132.437 273.485 132.54 273.43 132.764C273.221 134.206 272.533 135.572 271.471 136.571C270.643 137.344 269.596 137.892 268.465 138.08C267.83 138.193 267.185 138.24 266.542 138.209C265.9 138.168 265.264 138.053 264.657 137.855C263.435 137.472 262.357 136.689 261.625 135.662C261.209 135.079 260.91 134.412 260.728 133.714C260.236 131.798 260.694 129.674 261.91 128.125L261.908 128.122L261.917 128.126C262.223 127.737 262.558 127.369 262.945 127.059C263.087 126.931 263.243 126.823 263.399 126.714C263.446 126.682 263.493 126.649 263.54 126.616C263.602 126.568 263.67 126.53 263.739 126.492C263.778 126.47 263.818 126.448 263.856 126.424C263.896 126.403 263.934 126.38 263.973 126.357C264.04 126.317 264.108 126.277 264.181 126.247L264.516 126.09C264.587 126.055 264.662 126.028 264.737 126.002C264.778 125.988 264.82 125.973 264.861 125.957C265.035 125.886 265.215 125.837 265.395 125.789C265.452 125.774 265.51 125.758 265.567 125.742C265.642 125.723 265.718 125.71 265.795 125.697C265.84 125.689 265.884 125.682 265.928 125.673C266.049 125.65 266.171 125.627 266.293 125.62L266.659 125.586L267.027 125.583C268.348 125.595 269.643 126.068 270.669 126.867C271.687 127.686 272.548 128.731 272.906 129.931C272.917 129.974 272.93 130.016 272.942 130.056C272.958 130.112 272.974 130.166 272.987 130.218C272.997 130.26 273.007 130.301 273.016 130.34C273.028 130.386 273.038 130.43 273.049 130.473C273.069 130.577 273.091 130.671 273.11 130.753C273.12 130.795 273.129 130.835 273.137 130.87C273.185 131.081 273.232 131.176 273.278 131.118C273.296 131.094 273.315 131.049 273.333 131.003C273.341 130.983 273.349 130.963 273.357 130.944C273.42 130.809 273.451 130.64 273.431 130.349C273.424 130.277 273.414 130.197 273.403 130.108C273.39 130.028 273.371 129.942 273.349 129.849L273.342 129.815C273.324 129.739 273.299 129.66 273.273 129.575C273.262 129.541 273.25 129.505 273.239 129.468C273.225 129.433 273.211 129.396 273.197 129.358C273.163 129.266 273.126 129.167 273.078 129.066C272.941 128.755 272.77 128.473 272.581 128.198C272.366 127.886 272.125 127.596 271.867 127.325C271.739 127.19 271.604 127.059 271.468 126.933C271.383 126.852 271.292 126.778 271.2 126.703C271.146 126.659 271.092 126.614 271.039 126.569C270.452 126.105 269.785 125.735 269.068 125.489C268.148 125.16 267.146 125.073 266.173 125.185C265.196 125.303 264.254 125.658 263.419 126.171C263.37 126.202 263.322 126.234 263.273 126.266C262.168 126.888 260.946 127.989 260.215 129.976C259.241 132.626 259.954 136.54 263.946 138.043C264.395 138.237 264.86 138.384 265.33 138.486C266.005 138.637 266.701 138.691 267.389 138.657C267.511 138.66 267.635 138.661 267.76 138.661L267.759 138.66L267.467 138.652Z" fill="#231F20"/>
<path d="M263.953 127.551C263.497 127.865 263.081 128.246 262.749 128.696L262.711 128.751C262.665 128.816 262.62 128.881 262.577 128.949C262.526 129.037 262.475 129.125 262.421 129.212C262.244 129.524 262.098 129.854 261.98 130.196C261.872 130.541 261.787 130.895 261.74 131.257C261.722 131.39 261.714 131.525 261.707 131.658L261.702 131.742C261.702 131.782 261.702 131.823 261.702 131.863C261.703 131.985 261.703 132.107 261.709 132.228C261.722 132.435 261.736 132.641 261.764 132.847C261.771 132.895 261.775 132.943 261.78 132.992C261.785 133.047 261.79 133.102 261.798 133.157L261.803 133.196C261.815 133.286 261.827 133.376 261.808 133.473C261.784 133.544 261.771 133.577 261.764 133.576C261.76 133.576 261.756 133.57 261.749 133.56C261.739 133.547 261.722 133.526 261.693 133.499C261.594 133.405 261.462 133.216 261.422 132.969C261.259 132.101 261.293 131.178 261.567 130.32C261.73 129.808 261.93 129.283 262.224 128.817C262.542 128.303 262.961 127.858 263.428 127.484C263.719 127.257 264.031 127.06 264.357 126.892C264.854 126.641 265.386 126.46 265.927 126.354C266.347 126.27 266.769 126.213 267.199 126.219C267.234 126.22 267.269 126.221 267.305 126.221C267.363 126.222 267.422 126.222 267.481 126.229C267.835 126.266 267.941 126.327 267.988 126.447L267.992 126.458L267.998 126.47C268.007 126.49 268.016 126.51 268.019 126.527C268.032 126.611 267.88 126.653 267.643 126.632C266.933 126.581 266.184 126.642 265.464 126.852C264.929 127.001 264.417 127.246 263.956 127.561L263.95 127.554L263.953 127.551Z" fill="#231F20"/>
<path d="M284.171 138.637C284.098 138.643 284.025 138.649 283.952 138.653L284.245 138.66L284.246 138.662C284.12 138.662 283.997 138.66 283.875 138.657C283.186 138.692 282.49 138.638 281.814 138.486C281.343 138.384 280.876 138.236 280.426 138.041C276.439 136.536 275.727 132.625 276.701 129.977C277.431 127.993 278.65 126.892 279.754 126.27C279.804 126.237 279.854 126.204 279.904 126.172C280.739 125.659 281.681 125.304 282.658 125.186C283.631 125.074 284.633 125.16 285.553 125.49C286.27 125.736 286.937 126.105 287.524 126.57C287.577 126.615 287.631 126.659 287.685 126.703C287.777 126.778 287.868 126.853 287.953 126.933C288.089 127.06 288.224 127.19 288.352 127.325C288.61 127.597 288.851 127.886 289.066 128.199C289.255 128.473 289.426 128.756 289.562 129.067C289.611 129.167 289.648 129.266 289.682 129.358C289.696 129.396 289.71 129.433 289.724 129.469C289.735 129.505 289.747 129.541 289.758 129.576C289.784 129.66 289.809 129.74 289.826 129.815L289.834 129.85C289.855 129.943 289.875 130.028 289.888 130.108C289.899 130.198 289.909 130.277 289.916 130.35C289.936 130.641 289.905 130.81 289.842 130.945C289.834 130.963 289.826 130.983 289.818 131.003C289.8 131.049 289.781 131.094 289.763 131.118C289.717 131.176 289.67 131.081 289.622 130.871C289.614 130.835 289.605 130.796 289.595 130.753L289.595 130.753C289.576 130.671 289.554 130.578 289.534 130.473C289.523 130.431 289.513 130.387 289.502 130.341C289.492 130.302 289.482 130.261 289.472 130.219C289.459 130.166 289.443 130.112 289.427 130.057C289.415 130.016 289.402 129.975 289.391 129.932C289.033 128.732 288.172 127.686 287.154 126.868C286.128 126.068 284.833 125.595 283.512 125.584L283.144 125.587L282.778 125.621C282.656 125.628 282.534 125.65 282.413 125.673C282.369 125.682 282.325 125.69 282.28 125.697C282.203 125.71 282.127 125.723 282.051 125.743C281.995 125.759 281.937 125.774 281.88 125.789C281.7 125.838 281.52 125.886 281.346 125.957C281.305 125.974 281.263 125.988 281.222 126.003C281.147 126.029 281.072 126.055 281.001 126.091L280.666 126.247C280.593 126.277 280.525 126.317 280.458 126.358C280.419 126.381 280.381 126.404 280.341 126.425C280.303 126.449 280.263 126.471 280.224 126.493C280.155 126.531 280.087 126.569 280.025 126.616C279.978 126.65 279.931 126.682 279.884 126.715C279.728 126.823 279.572 126.932 279.43 127.06C279.043 127.369 278.708 127.737 278.402 128.126L278.392 128.122L278.395 128.125C277.179 129.675 276.721 131.798 277.213 133.715C277.395 134.412 277.694 135.08 278.11 135.662C278.842 136.689 279.92 137.472 281.142 137.856C281.749 138.053 282.385 138.168 283.027 138.209C283.669 138.241 284.315 138.194 284.95 138.08C286.081 137.893 287.128 137.344 287.956 136.571C289.017 135.573 289.706 134.206 289.914 132.764C289.97 132.54 289.995 132.438 290.004 132.445C290.008 132.448 290.011 132.47 290.016 132.511C290.022 132.565 290.032 132.651 290.055 132.764C290.08 132.85 290.084 132.947 290.089 133.06L290.09 133.092L290.092 133.13C290.108 133.273 290.096 133.432 290.072 133.607C290.069 133.631 290.066 133.656 290.063 133.68C290.055 133.745 290.046 133.812 290.035 133.88C290.021 133.938 290.006 133.998 289.991 134.06L289.966 134.167C289.928 134.342 289.859 134.516 289.787 134.696L289.757 134.773C289.439 135.5 288.981 136.162 288.427 136.732C287.874 137.3 287.211 137.772 286.475 138.089C286.109 138.245 285.723 138.376 285.337 138.455C284.954 138.545 284.562 138.599 284.171 138.637Z" fill="#231F20"/>
<path d="M279.084 128.851C279.333 128.491 279.641 128.177 279.971 127.893L279.978 127.899C280.306 127.608 280.682 127.366 281.071 127.164C281.461 126.964 281.874 126.808 282.298 126.71C283.441 126.421 284.649 126.572 285.656 127.048C285.724 127.075 285.784 127.103 285.838 127.129C285.926 127.169 285.997 127.203 286.059 127.214C286.157 127.238 286.214 127.231 286.216 127.184C286.217 127.164 286.209 127.139 286.202 127.114L286.198 127.101C286.196 127.095 286.194 127.089 286.193 127.083C286.156 126.933 286.03 126.792 285.523 126.559C285.483 126.544 285.444 126.529 285.405 126.514C285.306 126.475 285.209 126.436 285.106 126.409C284.461 126.208 283.789 126.15 283.119 126.201C282.687 126.235 282.259 126.323 281.843 126.45C281.425 126.576 281.028 126.762 280.649 126.975C280.152 127.262 279.688 127.613 279.288 128.032C278.969 128.376 278.686 128.754 278.449 129.162C278.222 129.574 278.04 130.011 277.91 130.466C277.803 130.882 277.734 131.312 277.722 131.744C277.714 132.175 277.735 132.605 277.813 133.021C278.049 134.415 278.866 135.713 280.067 136.47C280.405 136.686 280.75 136.753 280.943 136.74C280.997 136.738 281.037 136.741 281.061 136.743C281.08 136.745 281.091 136.746 281.093 136.743C281.099 136.737 281.063 136.703 280.984 136.631C280.966 136.61 280.946 136.599 280.925 136.588C280.91 136.58 280.895 136.572 280.882 136.561C280.869 136.553 280.856 136.545 280.843 136.536C280.822 136.522 280.8 136.508 280.778 136.497C280.724 136.469 280.671 136.437 280.618 136.406L280.57 136.376C280.432 136.294 280.297 136.205 280.166 136.111C279.905 135.923 279.66 135.712 279.44 135.477C279.271 135.293 279.108 135.099 278.963 134.891C278.82 134.682 278.692 134.462 278.581 134.234C278.343 133.717 278.177 133.168 278.111 132.605C278.045 132.042 278.072 131.471 278.185 130.919C278.255 130.606 278.33 130.295 278.452 129.998C278.608 129.588 278.831 129.206 279.084 128.851Z" fill="#231F20"/>
<path d="M291.157 141.302C291.099 141.33 291.04 141.357 290.982 141.385C290.923 141.413 290.865 141.441 290.807 141.468C290.784 141.479 290.763 141.492 290.741 141.506C290.723 141.518 290.704 141.529 290.684 141.539L290.642 141.559C290.505 141.625 290.367 141.692 290.235 141.766C290.171 141.804 290.105 141.842 290.045 141.883C290.032 141.891 290.019 141.901 290.006 141.91C289.98 141.928 289.955 141.947 289.926 141.961C289.882 141.982 289.835 141.999 289.788 142.015C289.758 142.024 289.747 142.004 289.747 141.964C289.748 141.926 289.752 141.857 289.783 141.807C289.833 141.739 289.895 141.685 289.957 141.631C289.97 141.62 289.983 141.609 289.995 141.598C290.064 141.54 290.146 141.5 290.229 141.46L290.255 141.447C290.325 141.416 290.387 141.373 290.45 141.33C290.489 141.304 290.527 141.278 290.567 141.255C290.682 141.185 290.802 141.122 290.921 141.063C290.958 141.044 290.996 141.026 291.033 141.007C291.07 140.989 291.107 140.97 291.144 140.952C291.178 140.934 291.213 140.917 291.248 140.901C291.325 140.863 291.403 140.825 291.476 140.782C291.521 140.758 291.562 140.727 291.603 140.696C291.639 140.668 291.675 140.641 291.714 140.617C291.722 140.613 291.73 140.607 291.738 140.602C291.747 140.595 291.757 140.589 291.767 140.584C291.8 140.564 291.827 140.56 291.852 140.573C291.877 140.582 291.896 140.602 291.919 140.631C291.924 140.638 291.929 140.645 291.935 140.651C291.939 140.657 291.944 140.663 291.948 140.669C291.975 140.712 291.968 140.771 291.933 140.831C291.815 140.971 291.664 141.053 291.51 141.134L291.163 141.31L291.159 141.302L291.157 141.302Z" fill="#231F20"/>
<path d="M292.178 114.399C292.19 114.491 292.109 114.542 291.977 114.573C291.938 114.595 291.82 114.549 291.809 114.523C291.789 114.47 291.772 114.415 291.76 114.36C291.745 114.335 291.815 113.855 291.829 113.693C291.849 113.535 291.882 113.378 291.928 113.226C292.01 112.921 292.094 112.613 292.184 112.308C292.203 112.24 292.229 112.174 292.261 112.11C292.368 111.892 292.454 111.663 292.516 111.428C292.532 111.391 292.539 111.351 292.537 111.31C292.591 111.047 292.675 110.79 292.789 110.546C292.904 110.363 293.003 110.177 293.111 109.994C293.125 109.968 293.129 109.936 293.162 109.917C293.221 109.88 293.264 109.823 293.283 109.756C293.323 109.675 293.371 109.598 293.425 109.525C293.459 109.489 293.495 109.456 293.533 109.426C293.572 109.404 293.612 109.436 293.615 109.453C293.617 109.47 293.662 109.477 293.686 109.481C293.691 109.487 293.695 109.494 293.697 109.501C293.707 109.702 293.7 109.904 293.676 110.104C293.676 110.104 293.624 110.295 293.569 110.488C293.514 110.68 293.459 110.885 293.451 110.922C293.436 110.965 293.415 111.006 293.388 111.043C293.371 111.052 293.223 111.639 293.213 111.66C293.183 111.781 293.132 111.896 293.063 111.999C293.05 112.015 293.04 112.033 293.034 112.052C292.977 112.254 292.896 112.451 292.819 112.649C292.782 112.751 292.755 112.858 292.727 112.962L292.698 113.015C292.685 113.036 292.674 113.058 292.666 113.081C292.601 113.332 292.503 113.571 292.45 113.825C292.439 113.883 292.306 114.143 292.302 114.207C292.299 114.271 292.185 114.373 292.178 114.399Z" fill="#221F1F"/>
<path d="M297.752 120.667C297.726 120.711 297.676 120.681 297.594 120.615C297.561 120.58 297.537 120.539 297.524 120.493C297.534 120.458 297.547 120.424 297.561 120.391C297.578 120.382 297.782 120.206 297.848 120.15C297.917 120.099 297.991 120.057 298.069 120.023L298.523 119.804C298.557 119.789 298.595 119.78 298.632 119.777C298.758 119.762 298.881 119.725 298.995 119.668C299.017 119.663 299.037 119.651 299.053 119.635C299.172 119.56 299.303 119.505 299.44 119.472C299.559 119.472 299.677 119.466 299.795 119.452C299.795 119.452 299.823 119.436 299.845 119.457C299.868 119.477 299.922 119.475 299.956 119.47C300.005 119.46 300.056 119.46 300.105 119.469C300.135 119.476 300.163 119.487 300.19 119.501C300.216 119.508 300.22 119.554 300.221 119.557C300.223 119.559 300.24 119.59 300.25 119.606C300.255 119.612 300.259 119.618 300.261 119.626C300.23 119.673 300.196 119.718 300.159 119.761C300.121 119.808 300.079 119.85 300.033 119.888L299.641 120.113C299.621 120.124 299.597 120.127 299.574 120.122C299.574 120.122 299.297 120.28 299.269 120.275C299.206 120.293 299.155 120.34 299.074 120.313C299.068 120.314 299.062 120.315 299.057 120.318C299.052 120.321 299.047 120.325 299.044 120.33C298.942 120.37 298.836 120.4 298.728 120.419C298.674 120.436 298.62 120.456 298.568 120.478L298.535 120.479L298.505 120.496C298.377 120.536 298.252 120.583 298.131 120.637C298.103 120.653 297.95 120.667 297.924 120.686C297.898 120.704 297.761 120.651 297.752 120.667Z" fill="#221F1F"/>
<path d="M294.302 118.153C294.297 118.172 294.288 118.189 294.275 118.204C294.262 118.218 294.246 118.229 294.228 118.236C294.182 118.248 294.134 118.256 294.087 118.258C294.048 118.262 293.957 118.23 293.959 118.195C293.96 118.134 293.968 118.072 293.983 118.013C293.989 117.972 294.244 117.559 294.33 117.421C294.412 117.288 294.504 117.162 294.605 117.044C294.805 116.797 295.006 116.553 295.217 116.326C295.263 116.273 295.314 116.224 295.369 116.181C295.553 116.025 295.722 115.852 295.873 115.664C295.901 115.636 295.925 115.603 295.941 115.566C296.1 115.353 296.276 115.152 296.467 114.968C296.637 114.841 296.793 114.704 296.972 114.568C296.992 114.544 297.021 114.528 297.052 114.523C297.119 114.512 297.18 114.477 297.223 114.425C297.289 114.363 297.36 114.307 297.435 114.256C297.477 114.231 297.522 114.214 297.57 114.204C297.609 114.182 297.653 114.259 297.648 114.277C297.643 114.294 297.678 114.329 297.712 114.343C297.717 114.352 297.723 114.361 297.728 114.37C297.649 114.553 297.556 114.729 297.449 114.897L296.903 115.544C296.873 115.578 296.838 115.608 296.8 115.632C296.783 115.642 296.405 116.108 296.387 116.122C296.308 116.22 296.215 116.304 296.109 116.373C296.089 116.386 296.071 116.403 296.056 116.421C295.914 116.583 295.759 116.728 295.606 116.877C295.529 116.954 295.463 117.037 295.379 117.121C295.362 117.133 295.345 117.143 295.327 117.151L295.263 117.188C295.093 117.377 294.903 117.552 294.749 117.757C294.714 117.803 294.507 117.973 294.456 118.039C294.406 118.104 294.307 118.124 294.302 118.153Z" fill="#221F1F"/>
<rect x="238.918" y="92.4851" width="70.8101" height="2.73081" fill="white" stroke="#C7C7C7" stroke-width="0.623825"/>
<rect x="0.5" y="0.5" width="349" height="209" rx="3.5" stroke="#E5E5E5"/>
</svg>
