<svg width="586" height="210" viewBox="0 0 586 210" fill="none" xmlns="http://www.w3.org/2000/svg">
<rect x="0.5" y="0.5" width="584.5" height="208.193" rx="3.5" fill="white"/>
<rect x="125.374" y="50.375" width="93.8707" height="93.8707" fill="white" stroke="#E5E5E5" stroke-width="0.75"/>
<rect x="128.995" y="61.9612" width="86.6293" height="78.4224" fill="white" stroke="#E5E5E5" stroke-width="0.75"/>
<rect x="128.995" y="53.7543" width="86.6293" height="3.35345" fill="white" stroke="#E5E5E5" stroke-width="0.75"/>
<path d="M156.834 96.3202C156.834 88.4926 161.944 82.6218 169.608 82.6218C173.631 82.6218 176.784 84.3069 178.36 87.188L178.741 83.4916H184.883V108.986C184.883 117.955 179.502 123.554 170.804 123.554C163.085 123.554 157.812 119.151 156.997 111.975H163.629C164.064 115.454 166.727 117.52 170.804 117.52C175.37 117.52 178.306 114.639 178.306 110.182V105.724C176.621 108.225 173.305 109.801 169.445 109.801C161.835 109.801 156.834 104.093 156.834 96.3202ZM163.52 96.1571C163.52 100.669 166.401 104.039 170.75 104.039C175.316 104.039 178.143 100.832 178.143 96.1571C178.143 91.591 175.37 88.4382 170.75 88.4382C166.347 88.4382 163.52 91.7541 163.52 96.1571Z" fill="black"/>
<rect x="206.479" y="86.3404" width="94.1121" height="93.8707" fill="white" stroke="#E5E5E5" stroke-width="0.75"/>
<rect x="210.099" y="97.9266" width="86.6293" height="78.4224" fill="#FFEAEB" stroke="#E5E5E5" stroke-width="0.75"/>
<rect x="210.099" y="89.7198" width="79.3879" height="3.35345" fill="white" stroke="#E5E5E5" stroke-width="0.75"/>
<rect x="292.397" y="89.4655" width="4.58621" height="3.86207" fill="white" stroke="#C7C7C7" stroke-width="0.241379"/>
<path d="M240.424 159.241V119.94H246.566L247.001 124.017C248.632 120.918 252.165 119.124 256.242 119.124C263.798 119.124 268.799 124.615 268.799 133.04C268.799 141.411 264.233 147.5 256.242 147.5C252.22 147.5 248.741 145.923 247.056 143.205V159.241H240.424ZM247.11 133.366C247.11 138.204 250.1 141.52 254.666 141.52C259.341 141.52 262.113 138.15 262.113 133.366C262.113 128.583 259.341 125.158 254.666 125.158C250.1 125.158 247.11 128.528 247.11 133.366Z" fill="black"/>
<rect x="282.754" y="29.375" width="93.8707" height="93.8707" fill="white" stroke="#E5E5E5" stroke-width="0.75"/>
<rect x="286.375" y="40.9612" width="86.6293" height="78.4224" fill="white" stroke="#E5E5E5" stroke-width="0.75"/>
<rect x="286.375" y="32.7543" width="86.6293" height="3.35345" fill="white" stroke="#E5E5E5" stroke-width="0.75"/>
<path d="M335.674 67.3193H342.306V94.1724H336.163L335.674 90.5848C334.043 93.1396 330.564 94.8791 326.977 94.8791C320.78 94.8791 317.138 90.6935 317.138 84.1161V67.3193H323.769V81.7787C323.769 86.8884 325.781 88.954 329.477 88.954C333.663 88.954 335.674 86.5079 335.674 81.3982V67.3193Z" fill="black"/>
<rect x="364.375" y="86.375" width="92.2495" height="92.2495" fill="white" stroke="#C7C7C7" stroke-width="0.75"/>
<rect x="367.935" y="97.7627" width="85.1322" height="77.0659" fill="#EDEDED" stroke="#C7C7C7" stroke-width="0.75"/>
<path opacity="0.45" d="M388.675 162.448L387.885 162.177L387.293 162.868L387.302 161.945L386.505 161.65C386.731 161.544 387.256 161.333 387.256 161.333C387.256 161.333 387.408 160.772 387.399 160.479L387.937 161.091C387.937 161.091 388.668 161.03 388.711 161.024C388.66 161.145 388.246 161.665 388.246 161.665C388.246 161.665 388.496 162.082 388.677 162.448L388.675 162.448Z" fill="#231F20"/>
<path d="M423.143 161.86L422.918 161.01L422.049 160.869L422.776 160.366L422.565 159.495C422.773 159.636 423.229 159.985 423.229 159.985C423.229 159.985 423.753 159.809 423.978 159.638L423.796 160.455C423.796 160.455 424.247 161.068 424.276 161.102C424.154 161.124 423.517 161.045 423.517 161.045C423.517 161.045 423.329 161.498 423.143 161.86Z" fill="#231F20"/>
<path opacity="0.45" d="M436.215 155.291L436.023 154.563L435.28 154.443L435.902 154.013L435.722 153.269C435.9 153.39 436.289 153.688 436.289 153.688C436.289 153.688 436.737 153.537 436.929 153.392L436.774 154.089C436.774 154.089 437.16 154.614 437.185 154.643C437.081 154.662 436.537 154.594 436.537 154.594C436.537 154.594 436.376 154.98 436.216 155.291L436.215 155.291Z" fill="#231F20"/>
<path d="M393.212 112.336L392.157 112.5L391.881 113.662L391.362 112.585L390.286 112.727C390.483 112.466 390.958 111.902 390.958 111.902C390.958 111.902 390.809 111.158 390.63 110.822L391.593 111.207C391.593 111.207 392.389 110.695 392.434 110.662C392.446 110.833 392.272 111.688 392.272 111.688C392.272 111.688 392.796 112.021 393.212 112.338L393.212 112.336Z" fill="#231F20"/>
<path d="M388.429 145.921C388.209 141.945 388.14 137.984 388.185 134.011C388.209 132.561 388.215 131.111 388.318 129.658C388.36 129.016 388.417 128.374 388.495 127.729C388.589 127.078 388.664 126.445 388.924 125.745C388.936 125.703 388.957 125.658 388.987 125.607L389.068 125.459C389.119 125.356 389.213 125.245 389.318 125.166C389.545 124.998 389.713 124.946 389.891 124.883C390.238 124.772 390.566 124.714 390.895 124.663C391.549 124.567 392.194 124.518 392.836 124.482C395.405 124.359 406.187 124.277 408.735 124.362C410.995 124.443 420.737 124.533 422.977 124.639C425.853 124.811 425.693 124.518 428.545 124.964C429.434 125.121 430.509 125.715 429.741 125.772C428.975 125.833 429.419 125.811 427.761 125.772L423.36 125.619C421.895 125.552 412.958 125.489 411.49 125.423C408.557 125.305 397.382 125.338 394.44 125.347C393.563 125.353 392.674 125.383 391.799 125.468C391.362 125.51 390.925 125.567 390.518 125.661C390.316 125.706 390.117 125.766 389.976 125.836C389.903 125.875 389.891 125.881 389.864 125.914C389.852 125.935 389.843 125.959 389.825 125.992C389.807 126.023 389.789 126.053 389.774 126.104C389.638 126.451 389.563 126.903 389.493 127.331C389.43 127.768 389.382 128.214 389.343 128.66C389.264 129.556 389.216 130.46 389.18 131.358C389.032 135.322 389.077 139.31 389.216 143.286C389.264 144.51 389.315 145.734 389.412 146.946C389.436 147.248 389.466 147.552 389.505 147.841C389.538 148.104 389.581 148.116 389.864 148.251C390.37 148.459 390.982 148.562 391.57 148.649C393.385 148.893 395.251 148.966 405.334 148.872C407.188 148.92 409.042 148.927 410.884 148.914C413.751 148.893 412.821 148.794 415.657 148.737C416.281 148.725 424.926 148.712 417.523 148.7C419.86 148.688 428.64 148.764 429.134 149.008C429.246 149.062 429.21 149.116 429.276 149.168C429.493 149.333 428.73 149.472 427.027 149.511C421.972 149.647 412.334 149.819 406.953 149.774C404.954 149.749 394.717 149.852 392.695 149.686C392.188 149.641 391.166 149.511 391.166 149.511C390.651 149.427 390.138 149.343 389.581 149.135C389.508 149.101 389.442 149.08 389.364 149.038C389.285 148.999 389.225 148.972 389.119 148.899C388.924 148.755 388.734 148.586 388.673 148.345C388.622 148.239 388.607 148.098 388.595 148.04C388.58 147.962 388.574 147.902 388.565 147.832C388.547 147.7 388.532 147.567 388.52 147.44C388.468 146.928 388.432 146.428 388.399 145.924L388.423 145.918L388.429 145.921Z" fill="#231F20"/>
<path d="M433.563 137.228C433.578 136.818 433.563 136.405 433.572 135.995C433.611 134.545 433.684 133.095 433.714 131.645C433.72 131.003 433.735 130.355 433.729 129.716C433.729 128.896 433.687 128.073 433.789 127.253C433.825 126.997 433.852 127.027 433.952 127.238C434.057 127.449 434.241 127.844 434.305 128.317C434.383 129.155 434.449 129.996 434.492 130.837C434.516 131.678 434.492 132.522 434.452 133.369C434.407 134.382 434.437 135.434 434.419 136.471C434.358 139.373 434.193 140.4 434.094 143.3C434.082 143.71 434.073 144.117 434.07 144.521C434.063 144.925 434.042 145.332 434.018 145.739C434.009 145.917 434.003 146.094 433.988 146.272C433.907 146.941 433.813 147.146 433.62 147.267C433.575 147.294 433.53 147.333 433.491 147.345C433.352 147.391 433.262 147.107 433.241 146.622C433.219 145.901 433.207 145.163 433.195 144.412C433.222 143.665 433.247 142.905 433.274 142.145C433.359 139.859 433.496 139.521 433.563 137.228Z" fill="#231F20"/>
<path d="M385.439 131.589L385.431 131.589L385.422 131.672C385.383 132.004 385.352 132.338 385.336 132.672L385.336 132.672L385.336 132.672C385.318 133.117 385.307 133.575 385.397 134.009L385.397 134.009C385.415 134.097 385.455 134.163 385.476 134.198L385.476 134.198L385.478 134.2C385.489 134.218 385.506 134.243 385.53 134.26C385.543 134.27 385.564 134.281 385.59 134.283C385.619 134.286 385.643 134.277 385.662 134.264L385.662 134.264L385.663 134.264C385.671 134.258 385.677 134.253 385.682 134.249C385.686 134.245 385.69 134.24 385.693 134.237C385.695 134.235 385.697 134.233 385.698 134.232C385.701 134.229 385.702 134.227 385.704 134.226L385.704 134.226L385.706 134.223C385.736 134.194 385.767 134.155 385.786 134.091C385.804 134.031 385.81 133.955 385.802 133.854L385.794 133.703C385.794 133.703 385.794 133.703 385.794 133.703C385.791 133.657 385.788 133.612 385.785 133.567C385.774 133.379 385.763 133.197 385.767 133.01L385.767 133.01C385.773 132.709 385.798 132.405 385.827 132.101L385.827 132.101C385.846 131.902 385.871 131.702 385.899 131.502C385.946 131.18 386.003 130.858 386.076 130.543C386.112 130.398 386.147 130.259 386.201 130.139L386.201 130.139C386.214 130.112 386.228 130.088 386.24 130.072L386.241 130.072L386.244 130.067C386.245 130.065 386.246 130.064 386.247 130.063L386.263 130.053L386.271 130.049L386.271 130.049L386.275 130.047C386.301 130.033 386.331 130.02 386.363 130.01L386.363 130.01L386.37 130.007C386.399 129.995 386.431 129.986 386.468 129.978L386.468 129.979L386.472 129.978C386.727 129.915 387.012 129.898 387.297 129.89L387.298 129.89C387.535 129.882 387.772 129.895 388.013 129.908C388.059 129.91 388.107 129.913 388.154 129.915C388.242 129.92 388.325 129.912 388.394 129.904C388.419 129.901 388.441 129.898 388.461 129.896C388.499 129.891 388.528 129.887 388.551 129.886L388.551 129.886L388.558 129.886C388.579 129.883 388.6 129.881 388.618 129.877C388.626 129.875 388.638 129.872 388.65 129.867C388.658 129.863 388.684 129.851 388.7 129.823C388.71 129.806 388.715 129.785 388.713 129.763C388.711 129.742 388.702 129.727 388.695 129.717C388.683 129.698 388.667 129.688 388.659 129.683C388.641 129.672 388.619 129.663 388.597 129.655C388.306 129.542 387.989 129.526 387.696 129.519M385.439 131.589L387.696 129.519C387.696 129.519 387.696 129.519 387.696 129.519M385.439 131.589C385.481 131.287 385.529 130.983 385.599 130.68C385.603 130.664 385.606 130.648 385.61 130.631C385.633 130.529 385.656 130.421 385.689 130.316C385.723 130.207 385.763 130.098 385.821 129.986L385.821 129.986C385.851 129.93 385.886 129.865 385.963 129.797L385.963 129.796C386.002 129.762 386.044 129.742 386.066 129.731C386.072 129.729 386.076 129.727 386.079 129.725L386.081 129.724L386.081 129.724C386.113 129.708 386.149 129.691 386.19 129.678C386.46 129.582 386.732 129.552 386.995 129.534L386.995 129.534C387.229 129.519 387.465 129.515 387.696 129.519M385.439 131.589L387.696 129.519M386.166 130.015C386.149 130.038 386.131 130.068 386.116 130.101L388.159 129.822C388.112 129.819 388.065 129.817 388.019 129.814C387.778 129.801 387.536 129.788 387.295 129.796C387.008 129.805 386.715 129.822 386.45 129.887C386.408 129.895 386.37 129.906 386.335 129.921C386.296 129.933 386.261 129.949 386.23 129.965C386.227 129.967 386.224 129.968 386.221 129.97C386.207 129.976 386.19 129.984 386.19 129.988C386.184 129.992 386.175 130.002 386.166 130.015Z" fill="#231F20" stroke="#231F20" stroke-width="0.186807"/>
<path d="M387.589 136.475C387.471 136.478 387.353 136.473 387.237 136.466C387.201 136.463 387.165 136.461 387.128 136.459C387.092 136.457 387.056 136.455 387.02 136.452L387.589 136.475ZM387.589 136.475L387.59 136.569C387.591 136.569 387.591 136.569 387.591 136.569M387.589 136.475L387.591 136.569C387.591 136.569 387.591 136.569 387.591 136.569M387.591 136.569C387.469 136.571 387.349 136.566 387.231 136.559L387.231 136.559L387.231 136.559C387.195 136.556 387.159 136.554 387.123 136.552L387.123 136.552C387.087 136.55 387.051 136.548 387.014 136.546L386.442 136.456C386.434 136.456 386.426 136.457 386.418 136.457C386.407 136.458 386.397 136.459 386.387 136.458L386.387 136.552C386.386 136.552 386.385 136.552 386.384 136.552C386.338 136.551 386.281 136.539 386.243 136.486C386.213 136.447 386.205 136.402 386.201 136.371L386.2 136.368L386.2 136.368C386.2 136.363 386.199 136.359 386.198 136.352C386.198 136.352 386.198 136.351 386.198 136.351C386.197 136.345 386.195 136.336 386.194 136.327L386.194 136.32L386.194 136.32C386.191 136.226 386.257 136.159 386.325 136.122L386.332 136.118L386.339 136.116C386.508 136.056 386.675 136.061 386.826 136.067L386.828 136.067L386.828 136.067L387.167 136.085L387.255 136.09L387.255 136.1C387.283 136.102 387.311 136.105 387.339 136.107L387.339 136.107C387.396 136.111 387.452 136.116 387.508 136.12L387.509 136.12L387.509 136.12C387.523 136.121 387.538 136.121 387.559 136.12C387.561 136.12 387.562 136.12 387.564 136.12C387.583 136.119 387.606 136.119 387.63 136.12L387.632 136.12L387.632 136.12C387.645 136.121 387.659 136.122 387.672 136.123C387.805 136.133 387.936 136.143 388.065 136.144C388.13 136.144 388.193 136.144 388.252 136.139L388.253 136.139L388.253 136.139C388.265 136.139 388.276 136.138 388.289 136.136C388.296 136.136 388.304 136.135 388.313 136.134C388.335 136.132 388.361 136.13 388.388 136.132L388.391 136.132L388.391 136.132C388.438 136.136 388.485 136.144 388.529 136.153L388.532 136.154L388.532 136.154C388.548 136.157 388.57 136.165 388.589 136.182C388.61 136.202 388.622 136.227 388.625 136.252C388.63 136.295 388.61 136.331 388.6 136.347L388.599 136.35L388.599 136.35C388.598 136.351 388.598 136.352 388.598 136.352C388.581 136.379 388.537 136.448 388.468 136.484L388.461 136.488L388.461 136.487C388.383 136.521 388.301 136.536 388.23 136.55C388.216 136.552 388.203 136.555 388.19 136.557L388.187 136.558L388.187 136.558C388.098 136.573 388.007 136.566 387.929 136.561C387.92 136.56 387.911 136.559 387.903 136.559L387.9 136.559L387.9 136.559C387.855 136.554 387.808 136.556 387.756 136.559C387.744 136.56 387.732 136.561 387.72 136.562C387.679 136.565 387.634 136.568 387.591 136.569ZM387.501 136.213C387.445 136.209 387.388 136.204 387.332 136.2C387.276 136.195 387.219 136.191 387.163 136.187L387.501 136.213ZM387.501 136.213C387.523 136.215 387.545 136.214 387.567 136.214M387.501 136.213L387.567 136.214M387.567 136.214C387.586 136.213 387.605 136.212 387.625 136.213L387.567 136.214Z" fill="#231F20" stroke="#231F20" stroke-width="0.186807"/>
<path d="M385.237 132.551L385.23 132.551L385.23 132.645C385.23 133.138 385.245 133.632 385.285 134.123L385.285 134.123C385.339 134.78 385.424 135.449 385.665 136.066L385.665 136.066L385.666 136.066C385.708 136.173 385.757 136.26 385.807 136.318C385.832 136.346 385.863 136.374 385.9 136.389C385.942 136.406 385.993 136.407 386.038 136.375L385.984 136.299M385.237 132.551L387.33 129.852L387.329 129.852C387.142 129.844 386.956 129.841 386.773 129.846L386.772 129.846C386.589 129.851 386.405 129.863 386.263 129.896L386.26 129.897L386.26 129.897C386.255 129.898 386.25 129.899 386.242 129.902C386.241 129.902 386.241 129.903 386.24 129.903C386.236 129.904 386.23 129.907 386.224 129.909L386.187 129.953L386.151 130.01C386.106 130.089 386.071 130.182 386.041 130.28C385.983 130.478 385.946 130.69 385.916 130.904C385.85 131.373 385.825 131.85 385.813 132.331C385.807 132.626 385.807 132.922 385.818 133.216L385.818 133.217C385.832 133.666 385.856 134.115 385.911 134.555L385.911 134.556C385.944 134.815 385.996 135.067 386.05 135.323C386.067 135.403 386.084 135.484 386.1 135.565C386.118 135.639 386.134 135.711 386.15 135.786L386.151 135.79L386.151 135.79C386.175 135.928 386.189 136.03 386.184 136.108C386.18 136.195 386.153 136.258 386.1 136.313L386.033 136.248M385.237 132.551C385.247 132.094 385.274 131.634 385.334 131.176C385.334 131.176 385.334 131.176 385.334 131.175L385.237 132.551ZM385.984 136.299C385.996 136.29 386.006 136.278 386.017 136.266C386.022 136.26 386.027 136.253 386.033 136.248M385.984 136.299L386.037 136.376C386.056 136.363 386.07 136.347 386.079 136.337C386.084 136.331 386.088 136.327 386.09 136.324C386.094 136.319 386.096 136.316 386.1 136.312L386.033 136.248M385.984 136.299C385.928 136.338 385.833 136.235 385.752 136.032L386.059 135.806C386.108 136.084 386.105 136.173 386.033 136.248M387.889 129.888C387.958 129.894 388.025 129.901 388.095 129.908C388.118 129.911 388.141 129.913 388.164 129.916L388.3 129.934L388.3 129.934L388.303 129.934C388.303 129.934 388.303 129.934 388.303 129.934C388.305 130.133 388.338 130.316 388.383 130.427C388.394 130.455 388.408 130.482 388.424 130.505C388.438 130.524 388.467 130.556 388.512 130.565C388.57 130.577 388.612 130.544 388.633 130.516C388.653 130.489 388.665 130.456 388.673 130.425L388.673 130.425L388.673 130.423C388.702 130.305 388.726 130.184 388.741 130.06L388.741 130.06L388.742 130.055C388.749 129.997 388.757 129.934 388.757 129.867C388.757 129.864 388.757 129.861 388.757 129.858C388.757 129.826 388.758 129.761 388.739 129.707C388.712 129.614 388.623 129.575 388.564 129.561L388.564 129.561L388.563 129.561L388.484 129.542L388.484 129.542L388.482 129.542L388.429 129.531L388.429 129.531L388.426 129.531L388.319 129.513C388.247 129.5 388.175 129.49 388.105 129.481L388.104 129.481C387.764 129.434 387.418 129.417 387.076 129.407L387.075 129.407C386.881 129.404 386.684 129.405 386.484 129.42L386.484 129.42L386.483 129.42C386.383 129.428 386.28 129.44 386.169 129.464L386.168 129.464L386.167 129.464C386.141 129.47 386.113 129.477 386.085 129.484L386.085 129.484L386.076 129.487L385.99 129.52L385.99 129.52L385.988 129.521C385.95 129.536 385.913 129.564 385.889 129.582C385.886 129.584 385.883 129.586 385.88 129.588L385.88 129.589C385.857 129.605 385.842 129.621 385.831 129.635C385.824 129.643 385.821 129.647 385.819 129.65C385.816 129.653 385.815 129.655 385.812 129.658L385.812 129.657L385.807 129.663C385.671 129.827 385.603 129.996 385.545 130.153L385.545 130.153L385.545 130.154C385.488 130.315 385.449 130.475 385.414 130.633L385.414 130.633L385.413 130.635C385.381 130.79 385.362 130.947 385.343 131.098L387.889 129.888ZM385.879 129.723C385.885 129.717 385.89 129.71 385.896 129.704C385.905 129.691 385.916 129.678 385.935 129.664C385.939 129.661 385.942 129.659 385.945 129.656C385.97 129.638 385.998 129.618 386.024 129.607L385.879 129.723Z" fill="#231F20" stroke="#231F20" stroke-width="0.186807"/>
<path d="M386.334 121.954C385.979 121.959 385.615 121.973 385.275 122.048C385.233 122.044 385.195 122.041 385.163 122.04C385.148 122.039 385.135 122.038 385.124 122.037L385.112 121.993C385.112 121.993 385.112 121.993 385.112 121.993C385.082 122.001 385.056 122.009 385.036 122.018C385.028 122.021 385.01 122.03 384.994 122.046C384.986 122.055 384.972 122.073 384.968 122.1C384.963 122.131 384.974 122.157 384.988 122.175C385 122.19 385.013 122.198 385.021 122.202C385.029 122.206 385.037 122.209 385.042 122.211C385.054 122.215 385.066 122.217 385.076 122.219C385.097 122.222 385.123 122.225 385.152 122.227L385.157 122.227L385.157 122.227C385.192 122.228 385.236 122.232 385.291 122.237C385.317 122.24 385.346 122.242 385.378 122.245C385.471 122.253 385.582 122.26 385.698 122.256L387.292 121.875L387.292 121.875C387.652 121.893 388.021 121.922 388.386 122.016M386.334 121.954L386.332 121.86C386.332 121.86 386.332 121.86 386.332 121.86L386.334 121.954ZM386.334 121.954C386.648 121.949 386.969 121.954 387.288 121.968C387.647 121.986 388.008 122.015 388.363 122.107M388.363 122.107L388.385 122.016C388.385 122.016 388.385 122.016 388.386 122.016M388.363 122.107C388.41 122.118 388.453 122.132 388.495 122.148L389.056 122.647C389.01 122.538 388.954 122.428 388.874 122.316L388.873 122.315C388.832 122.258 388.783 122.195 388.682 122.129L388.682 122.129C388.633 122.097 388.585 122.081 388.553 122.069C388.544 122.066 388.536 122.064 388.53 122.061L388.528 122.06L388.528 122.06C388.484 122.044 388.437 122.028 388.386 122.016M388.363 122.107L388.387 122.017C388.386 122.016 388.386 122.016 388.386 122.016M389.114 125.349C389.106 125.045 389.072 124.738 389.031 124.432L389.114 125.349ZM389.114 125.349C389.121 125.54 389.105 125.727 389.089 125.915C389.085 125.96 389.081 126.004 389.078 126.049L389.114 125.349ZM385.281 122.142C385.289 122.143 385.296 122.144 385.304 122.145C385.413 122.155 385.55 122.168 385.695 122.162C385.759 122.16 385.823 122.158 385.887 122.155C386.218 122.142 386.551 122.129 386.884 122.137L385.281 122.142ZM385.281 122.142C385.241 122.152 385.201 122.162 385.162 122.173L385.162 122.173L385.161 122.173C385.16 122.173 385.159 122.174 385.158 122.174C385.157 122.174 385.156 122.174 385.156 122.174C385.13 122.181 385.117 122.186 385.113 122.188C385.108 122.19 385.119 122.186 385.13 122.175C385.135 122.169 385.146 122.156 385.151 122.136C385.151 122.136 385.151 122.135 385.151 122.134C385.151 122.134 385.151 122.133 385.151 122.133C385.151 122.133 385.151 122.133 385.151 122.133C385.15 122.133 385.15 122.133 385.15 122.133C385.044 122.124 385.022 122.113 385.136 122.083M385.281 122.142L385.123 122.037C385.116 122.036 385.111 122.035 385.106 122.034C385.101 122.033 385.099 122.033 385.099 122.033C385.099 122.033 385.099 122.033 385.099 122.033C385.1 122.033 385.103 122.034 385.108 122.037C385.112 122.039 385.119 122.043 385.128 122.052L385.136 122.083M385.136 122.083L385.128 122.052C385.13 122.054 385.132 122.056 385.134 122.059C385.139 122.065 385.143 122.072 385.147 122.08C385.143 122.081 385.14 122.082 385.136 122.083ZM389.403 123.93L389.413 123.93L389.426 124.008C389.479 124.341 389.522 124.676 389.544 125.011L389.544 125.011L389.544 125.012C389.569 125.456 389.584 125.918 389.46 126.356L389.46 126.356C389.434 126.448 389.377 126.516 389.348 126.55L389.348 126.55L389.346 126.552C389.33 126.571 389.307 126.593 389.28 126.608C389.247 126.625 389.204 126.632 389.161 126.611L389.161 126.611L389.16 126.611C389.145 126.603 389.132 126.593 389.125 126.588L389.125 126.588C389.122 126.586 389.12 126.584 389.118 126.583C389.114 126.579 389.111 126.578 389.108 126.576L389.108 126.576L389.106 126.574C389.069 126.546 389.025 126.508 388.997 126.441C388.97 126.376 388.962 126.296 388.973 126.193L388.985 126.042C388.985 126.042 388.985 126.042 388.985 126.042C388.988 125.996 388.992 125.95 388.996 125.905C389.012 125.718 389.027 125.537 389.021 125.352L389.021 125.351C389.013 125.052 388.979 124.749 388.938 124.445L388.938 124.445C388.912 124.247 388.878 124.047 388.84 123.848C388.776 123.526 388.697 123.205 388.597 122.891C388.548 122.746 388.501 122.609 388.426 122.491L388.426 122.491C388.41 122.464 388.39 122.44 388.372 122.424L388.372 122.424L388.368 122.419C388.365 122.416 388.362 122.414 388.361 122.412L388.33 122.399C388.327 122.397 388.322 122.396 388.318 122.394L388.318 122.394L388.315 122.393C388.276 122.378 388.232 122.364 388.184 122.353L388.184 122.353L388.178 122.351C388.135 122.338 388.087 122.328 388.033 122.32L388.033 122.32L388.03 122.32C387.673 122.256 387.275 122.239 386.882 122.231L386.882 122.231C386.552 122.223 386.222 122.235 385.892 122.248L389.403 123.93ZM389.277 126.49C389.305 126.456 389.35 126.402 389.37 126.331C389.49 125.909 389.476 125.462 389.451 125.017L389.277 126.49Z" fill="#231F20" stroke="#231F20" stroke-width="0.186807"/>
<path d="M389.681 124.892L389.691 124.892L389.691 124.986C389.691 125.48 389.671 125.975 389.615 126.467L389.615 126.467C389.54 127.125 389.423 127.797 389.089 128.417L389.089 128.417L389.089 128.417C389.03 128.525 388.962 128.612 388.894 128.669C388.833 128.72 388.738 128.77 388.646 128.723C388.646 128.722 388.646 128.722 388.646 128.722L388.688 128.639M389.681 124.892L388.565 127.899M389.681 124.892C389.668 124.433 389.63 123.973 389.548 123.512L389.681 124.892ZM388.688 128.639C388.672 128.631 388.658 128.619 388.643 128.606C388.636 128.6 388.629 128.594 388.621 128.589C388.522 128.514 388.518 128.424 388.585 128.147C388.607 128.072 388.63 127.999 388.654 127.926M388.688 128.639C388.766 128.679 388.895 128.575 389.007 128.372M388.688 128.639L389.007 128.372M388.654 127.926L388.564 127.901C388.564 127.9 388.564 127.899 388.565 127.899M388.654 127.926L388.565 127.896C388.565 127.897 388.565 127.898 388.565 127.899M388.654 127.926C388.676 127.845 388.699 127.765 388.722 127.685C388.797 127.429 388.871 127.172 388.916 126.908C388.993 126.463 389.025 126.011 389.046 125.56C389.06 125.263 389.06 124.966 389.052 124.669M388.565 127.899C388.587 127.817 388.611 127.736 388.634 127.656C388.708 127.401 388.78 127.151 388.824 126.892L388.824 126.892C388.9 126.453 388.932 126.005 388.952 125.556L388.952 125.556C388.966 125.262 388.966 124.967 388.958 124.672M389.052 124.669L388.958 124.672C388.958 124.672 388.958 124.672 388.958 124.672M389.052 124.669C389.035 124.187 389.001 123.706 388.91 123.231L388.958 124.672M389.052 124.669L388.958 124.672C388.958 124.672 388.958 124.672 388.958 124.672M385.788 121.914L385.779 121.821L385.779 121.821L385.779 121.821C385.682 121.831 385.583 121.84 385.485 121.853L385.338 121.871L385.336 121.871L385.336 121.871L385.263 121.882L385.262 121.882L385.262 121.882L385.152 121.9L385.151 121.9C385.111 121.907 385.068 121.919 385.03 121.939C384.995 121.957 384.954 121.988 384.933 122.039C384.917 122.073 384.912 122.108 384.909 122.136C384.907 122.16 384.907 122.184 384.907 122.2C384.907 122.203 384.907 122.205 384.907 122.207L384.907 122.246L384.935 122.273C384.969 122.308 385.015 122.312 385.037 122.314C385.065 122.315 385.097 122.313 385.129 122.31C385.154 122.308 385.18 122.305 385.207 122.303C385.228 122.3 385.251 122.298 385.275 122.295L385.275 122.299L385.378 122.288L385.401 122.286L385.402 122.286C385.413 122.284 385.424 122.283 385.434 122.281C385.454 122.279 385.471 122.277 385.491 122.275L385.493 122.275L385.493 122.275L385.681 122.257C385.713 122.254 385.745 122.252 385.777 122.249C385.872 122.242 385.967 122.235 386.061 122.229L389.171 122.526C389.092 122.37 389.005 122.215 388.833 122.064C388.824 122.057 388.817 122.051 388.81 122.044C388.796 122.032 388.782 122.019 388.755 122.004C388.751 122.002 388.746 122 388.742 121.997C388.707 121.978 388.67 121.958 388.634 121.948L388.516 121.915C388.479 121.908 388.443 121.902 388.406 121.896C388.262 121.873 388.126 121.862 387.99 121.854C387.72 121.839 387.455 121.838 387.189 121.841C386.72 121.851 386.249 121.868 385.788 121.914ZM385.788 121.914C385.691 121.924 385.593 121.933 385.496 121.945L385.35 121.963L385.277 121.974L385.788 121.914ZM389.007 128.372C389.332 127.769 389.447 127.112 389.523 126.456L389.007 128.372ZM385.484 122.182C385.476 122.183 385.469 122.183 385.462 122.184L385.462 122.194L385.462 122.195L385.391 122.195L385.391 122.195L385.368 122.195L385.484 122.182ZM385.484 122.182L385.673 122.164L385.484 122.182ZM388.426 122.168C388.428 122.169 388.429 122.169 388.431 122.17L388.394 122.255C388.395 122.255 388.396 122.255 388.397 122.256C388.398 122.256 388.399 122.256 388.401 122.256L388.403 122.24L388.403 122.239L388.404 122.234L388.414 122.164C388.42 122.166 388.423 122.167 388.426 122.168ZM385.001 122.199C385.001 122.202 385.001 122.204 385.001 122.207L385.167 121.992C385.098 122.004 385.035 122.031 385.019 122.076C385 122.113 385.001 122.163 385.001 122.199Z" fill="#231F20" stroke="#231F20" stroke-width="0.186807"/>
<path d="M399.912 151.85L399.912 151.855L400 151.859C400.633 151.89 401.268 151.914 401.901 151.927L401.902 151.927C402.753 151.94 403.611 151.949 404.421 151.88L404.421 151.88C404.565 151.868 404.674 151.841 404.74 151.824L404.74 151.824L404.742 151.824C404.772 151.816 404.807 151.806 404.831 151.792C404.838 151.788 404.848 151.782 404.857 151.773C404.866 151.764 404.881 151.747 404.887 151.72C404.901 151.653 404.848 151.617 404.838 151.611L404.838 151.611L404.837 151.611C404.829 151.606 404.821 151.602 404.815 151.6C404.809 151.597 404.803 151.595 404.798 151.593C404.795 151.592 404.792 151.591 404.789 151.59C404.782 151.587 404.776 151.585 404.771 151.582L404.771 151.582L404.769 151.581C404.666 151.54 404.533 151.509 404.164 151.52L404.019 151.524L403.873 151.527C403.873 151.527 403.873 151.527 403.873 151.527C403.787 151.529 403.702 151.531 403.616 151.534C403.258 151.543 402.902 151.552 402.539 151.548L402.538 151.548C401.959 151.543 401.374 151.524 400.791 151.501L400.791 151.501C400.408 151.486 400.024 151.466 399.641 151.444C399.022 151.407 398.402 151.362 397.795 151.305C397.52 151.277 397.242 151.249 397 151.203L397 151.203C396.94 151.192 396.887 151.179 396.847 151.167L396.847 151.167L396.844 151.166C396.833 151.163 396.825 151.16 396.819 151.158L396.816 151.157L396.797 151.144L396.796 151.144L396.785 151.134L396.785 151.134L396.781 151.131C396.753 151.111 396.73 151.089 396.713 151.067L396.714 151.067L396.705 151.058C396.685 151.038 396.67 151.016 396.658 150.992L396.659 150.992L396.655 150.986C396.542 150.798 396.511 150.587 396.495 150.366L396.495 150.365C396.48 150.186 396.504 150.008 396.528 149.82C396.533 149.783 396.538 149.746 396.543 149.708M399.912 151.85L398.026 151.713C397.831 151.695 397.631 151.677 397.435 151.652L397.447 151.559C397.246 151.534 397.048 151.504 396.847 151.461C396.745 151.439 396.644 151.416 396.536 151.367C396.488 151.345 396.467 151.326 396.446 151.309C396.439 151.302 396.431 151.296 396.423 151.289C396.393 151.265 396.365 151.241 396.344 151.214M399.912 151.85C399.315 151.817 398.717 151.778 398.121 151.722L399.912 151.85ZM396.543 149.708C396.543 149.708 396.543 149.708 396.543 149.708L396.45 149.696L396.543 149.707C396.543 149.707 396.543 149.707 396.543 149.708ZM396.543 149.708C396.553 149.626 396.536 149.551 396.52 149.494C396.515 149.477 396.509 149.458 396.504 149.443C396.501 149.434 396.499 149.426 396.497 149.42C396.49 149.399 396.488 149.389 396.488 149.384L396.487 149.376L396.485 149.368C396.481 149.35 396.474 149.328 396.463 149.308C396.453 149.288 396.429 149.255 396.384 149.244C396.34 149.234 396.304 149.252 396.285 149.265C396.265 149.278 396.246 149.297 396.229 149.315M396.229 149.315C396.23 149.315 396.23 149.315 396.23 149.314L396.298 149.378L396.228 149.316C396.229 149.316 396.229 149.315 396.229 149.315ZM396.229 149.315C396.003 149.555 395.97 149.82 395.958 150.055C395.958 150.055 395.958 150.055 395.958 150.055L396.051 150.06C396.042 150.239 396.051 150.421 396.079 150.602C396.113 150.807 396.169 151.012 396.344 151.214M396.344 151.214L396.271 151.272C396.271 151.272 396.272 151.273 396.272 151.274C396.273 151.274 396.273 151.275 396.274 151.275L396.344 151.214ZM396.983 151.295C396.921 151.284 396.863 151.27 396.819 151.256C396.794 151.249 396.775 151.242 396.769 151.237C396.761 151.237 396.746 151.224 396.733 151.213C396.73 151.211 396.727 151.208 396.725 151.206C396.692 151.182 396.662 151.154 396.639 151.124C396.612 151.096 396.591 151.066 396.575 151.034C396.45 150.826 396.418 150.597 396.402 150.373L396.983 151.295ZM396.983 151.295C397.23 151.341 397.511 151.37 397.786 151.398L396.983 151.295Z" fill="#231F20" stroke="#231F20" stroke-width="0.186807"/>
<path d="M408.571 150.19C408.571 150.19 408.571 150.188 408.571 150.186C408.571 150.182 408.571 150.177 408.57 150.169C408.57 150.168 408.57 150.167 408.57 150.165C408.568 150.152 408.566 150.126 408.57 150.099L408.57 150.096L408.57 150.096C408.572 150.085 408.574 150.075 408.576 150.065C408.595 149.96 408.613 149.863 408.615 149.767C408.615 149.715 408.615 149.672 408.607 149.633L408.607 149.629L408.607 149.629C408.606 149.622 408.605 149.618 408.603 149.61C408.602 149.605 408.6 149.598 408.597 149.587C408.593 149.568 408.588 149.539 408.593 149.506L408.594 149.5L408.594 149.5C408.603 149.455 408.621 149.414 408.638 149.378L408.64 149.373L408.641 149.373C408.67 149.32 408.724 149.31 408.754 149.309C408.785 149.307 408.819 149.313 408.85 149.321L408.852 149.321L408.852 149.321C408.879 149.328 408.919 149.339 408.959 149.353C408.996 149.366 409.044 149.385 409.079 149.413L409.087 149.419L409.086 149.419C409.156 149.485 409.19 149.559 409.215 149.615C409.22 149.625 409.224 149.635 409.229 149.643L409.231 149.648L409.231 149.648C409.267 149.736 409.251 149.826 409.24 149.886C409.239 149.893 409.238 149.899 409.237 149.905L409.235 149.912L409.235 149.912C409.229 149.934 409.231 149.96 409.237 149.999C409.238 150.006 409.24 150.015 409.241 150.023C409.247 150.056 409.255 150.097 409.256 150.136M408.571 150.19L409.163 150.14M408.571 150.19L408.571 150.19L408.57 150.193C408.562 150.236 408.554 150.279 408.545 150.324L408.545 150.324C408.541 150.343 408.538 150.362 408.534 150.382L408.513 150.382L408.503 150.463L408.468 150.728L408.468 150.728L408.468 150.732C408.456 150.853 408.444 151.006 408.573 151.156L408.58 151.164L408.588 151.17C408.662 151.225 408.761 151.254 408.862 151.253L408.862 151.253L408.865 151.253C408.878 151.252 408.891 151.252 408.903 151.251C408.904 151.251 408.904 151.251 408.905 151.251C408.918 151.25 408.93 151.249 408.943 151.248L408.943 151.248L408.944 151.248C409.002 151.245 409.057 151.24 409.103 151.225C409.129 151.217 409.159 151.205 409.184 151.18C409.211 151.153 409.222 151.12 409.224 151.088C409.226 151.067 409.222 151.049 409.221 151.042C409.221 151.042 409.221 151.042 409.221 151.042L409.219 151.035C409.218 150.991 409.205 150.949 409.196 150.92C409.196 150.918 409.195 150.915 409.194 150.913C409.184 150.879 409.18 150.86 409.18 150.844L409.18 150.844L409.18 150.841C409.18 150.806 409.184 150.769 409.191 150.728C409.193 150.714 409.196 150.699 409.198 150.683C409.203 150.656 409.208 150.627 409.211 150.6M408.571 150.19L409.087 150.841C409.087 150.783 409.097 150.724 409.107 150.665C409.111 150.639 409.115 150.612 409.119 150.586M409.256 150.136C409.256 150.137 409.256 150.137 409.256 150.138L409.163 150.14M409.256 150.136C409.256 150.136 409.256 150.136 409.256 150.135L409.163 150.14M409.256 150.136C409.261 150.237 409.251 150.336 409.237 150.43L409.237 150.431L409.237 150.431C409.232 150.458 409.228 150.486 409.224 150.514L409.224 150.515C409.22 150.542 409.216 150.571 409.211 150.6M409.163 150.14C409.167 150.233 409.158 150.325 409.144 150.416C409.14 150.444 409.136 150.473 409.132 150.501C409.128 150.529 409.124 150.558 409.119 150.586M409.211 150.6C409.211 150.599 409.212 150.599 409.212 150.598L409.119 150.586M409.211 150.6C409.211 150.6 409.211 150.6 409.211 150.601L409.119 150.586" fill="#231F20" stroke="#231F20" stroke-width="0.186807"/>
<path d="M401.752 152.003L401.752 152.009L401.846 152.009C402.785 152.009 403.725 151.997 404.658 151.966L404.658 151.966C405.911 151.923 407.171 151.857 408.331 151.672L408.331 151.672C408.526 151.639 408.68 151.604 408.776 151.569C408.82 151.553 408.869 151.532 408.899 151.502C408.915 151.486 408.942 151.45 408.934 151.4C408.925 151.352 408.89 151.328 408.872 151.317L408.826 151.398M401.752 152.003L402.942 151.508L402.942 151.508C403.802 151.496 404.666 151.478 405.513 151.434L405.513 151.434C406.016 151.409 406.505 151.367 406.994 151.324C407.147 151.311 407.3 151.298 407.454 151.285C407.595 151.272 407.733 151.259 407.876 151.246L407.878 151.246L407.878 151.246C408.401 151.208 408.596 151.207 408.763 151.273L408.729 151.36M401.752 152.003C400.853 151.997 399.954 151.976 399.056 151.928C399.006 151.925 398.956 151.923 398.906 151.92C398.617 151.906 398.324 151.891 398.034 151.866L398.033 151.866L398.033 151.866C397.733 151.839 397.433 151.808 397.133 151.765L397.133 151.765C396.835 151.72 396.53 151.67 396.233 151.568L396.228 151.567L396.228 151.567C396.219 151.563 396.212 151.561 396.201 151.557C396.195 151.555 396.188 151.553 396.179 151.55C396.158 151.543 396.132 151.533 396.105 151.518L396.105 151.518C396.101 151.515 396.096 151.513 396.092 151.511C396.076 151.502 396.058 151.492 396.042 151.482C396.021 151.47 395.996 151.453 395.976 151.433L395.973 151.431L395.973 151.43L395.911 151.364L395.906 151.358L395.902 151.352C395.886 151.328 395.873 151.304 395.862 151.284L395.861 151.283L395.86 151.282L395.86 151.282C395.81 151.188 395.787 151.101 395.77 151.02L395.77 151.017L395.77 151.017C395.74 150.854 395.738 150.695 395.745 150.541L395.746 150.538L395.746 150.538C395.764 150.269 395.797 149.992 395.889 149.719L401.752 152.003ZM408.826 151.398C408.811 151.389 408.787 151.381 408.764 151.373C408.765 151.371 408.766 151.371 408.766 151.37C408.767 151.37 408.767 151.37 408.765 151.371C408.765 151.371 408.764 151.371 408.762 151.372C408.751 151.368 408.739 151.364 408.729 151.36M408.826 151.398C408.857 151.416 408.842 151.439 408.788 151.464C408.787 151.464 408.786 151.465 408.786 151.465C408.781 151.467 408.775 151.469 408.77 151.472C408.773 151.475 408.776 151.477 408.778 151.478C408.778 151.479 408.779 151.479 408.779 151.479L408.778 151.478L408.778 151.478C408.776 151.477 408.773 151.476 408.767 151.473M408.826 151.398L408.874 151.318C408.853 151.306 408.829 151.297 408.812 151.291C408.805 151.288 408.798 151.286 408.791 151.283C408.781 151.28 408.772 151.277 408.763 151.273L408.729 151.36M408.729 151.36C408.586 151.303 408.415 151.301 407.885 151.339L408.767 151.473M396.655 149.509L396.656 149.602C396.656 149.602 396.656 149.602 396.656 149.602C396.623 149.603 396.598 149.603 396.578 149.603L396.578 149.604L396.578 149.604L396.544 149.708C396.54 149.727 396.535 149.745 396.53 149.763C396.516 149.817 396.503 149.867 396.493 149.918C396.466 150.065 396.439 150.208 396.425 150.35L396.425 150.352C396.409 150.496 396.403 150.637 396.414 150.775L396.414 150.777L396.414 150.777C396.423 150.918 396.445 151.05 396.501 151.15L396.504 151.154C396.504 151.155 396.506 151.157 396.508 151.159L396.509 151.16C396.511 151.163 396.516 151.168 396.52 151.172C396.52 151.173 396.52 151.173 396.52 151.173L396.522 151.174L396.524 151.175L396.524 151.175L396.624 151.209L396.742 151.239C396.906 151.277 397.093 151.307 397.287 151.331C397.676 151.378 398.089 151.406 398.499 151.431C399.404 151.483 400.322 151.502 401.242 151.511L397.527 149.454C397.339 149.484 397.016 149.508 396.655 149.509ZM396.655 149.509C396.64 149.509 396.626 149.509 396.614 149.509L396.655 149.509ZM396.286 149.31C396.358 149.3 396.454 149.3 396.521 149.3C396.527 149.3 396.532 149.3 396.538 149.3C396.655 149.3 396.766 149.306 396.88 149.311L396.886 149.312C397.102 149.323 397.314 149.34 397.524 149.36C397.524 149.36 397.525 149.36 397.526 149.36C397.538 149.358 397.55 149.356 397.561 149.354C397.561 149.354 397.561 149.354 397.561 149.354C397.588 149.348 397.609 149.343 397.624 149.339C397.629 149.337 397.633 149.336 397.636 149.335L397.64 149.334C397.64 149.333 397.641 149.333 397.641 149.333L397.639 149.334C397.638 149.335 397.636 149.336 397.634 149.338C397.63 149.341 397.621 149.349 397.613 149.364C397.612 149.366 397.612 149.368 397.611 149.37L396.127 149.395C396.15 149.355 396.201 149.32 396.286 149.31ZM396.286 149.31L396.276 149.218C396.276 149.218 396.275 149.218 396.274 149.218C396.274 149.218 396.273 149.218 396.273 149.218L396.286 149.31ZM408.767 151.473C408.681 151.507 408.527 151.545 408.316 151.579L408.767 151.473ZM397.647 149.473C397.647 149.473 397.646 149.473 397.646 149.473L397.647 149.473Z" fill="#231F20" stroke="#231F20" stroke-width="0.186807"/>
<path d="M385.674 141.431L385.667 141.431L385.66 141.517C385.621 141.981 385.59 142.448 385.574 142.914L385.574 142.914L385.574 142.915C385.556 143.538 385.546 144.172 385.634 144.772L385.634 144.772C385.651 144.885 385.687 144.97 385.709 145.019L385.708 145.019L385.71 145.021C385.72 145.044 385.735 145.075 385.757 145.097C385.768 145.108 385.791 145.128 385.825 145.132C385.865 145.137 385.895 145.119 385.913 145.103L385.913 145.103L385.913 145.102C385.921 145.095 385.926 145.088 385.93 145.083C385.934 145.077 385.938 145.072 385.94 145.068C385.942 145.065 385.944 145.063 385.945 145.061C385.949 145.056 385.95 145.053 385.952 145.05L385.953 145.05L385.955 145.048C385.982 145.008 386.01 144.959 386.026 144.882C386.042 144.808 386.048 144.711 386.041 144.573L386.032 144.36C386.032 144.36 386.032 144.36 386.032 144.36C386.029 144.297 386.027 144.234 386.024 144.171C386.012 143.908 386.001 143.649 386.006 143.384L386.006 143.384C386.011 142.96 386.036 142.532 386.066 142.104L386.066 142.104C386.085 141.825 386.11 141.543 386.138 141.263C386.185 140.809 386.242 140.356 386.315 139.912C386.351 139.709 386.387 139.51 386.443 139.336L386.443 139.336C386.457 139.294 386.472 139.258 386.487 139.232L386.487 139.232L386.489 139.227C386.491 139.222 386.494 139.218 386.495 139.215L386.514 139.199L386.521 139.194L386.521 139.195L386.525 139.192C386.551 139.172 386.58 139.154 386.611 139.14L386.611 139.141L386.619 139.136C386.647 139.12 386.678 139.108 386.714 139.097L386.714 139.097L386.718 139.096C386.97 139.009 387.251 138.986 387.537 138.974L387.537 138.974C387.773 138.963 388.008 138.981 388.248 138.999L385.674 141.431ZM385.674 141.431C385.716 140.999 385.765 140.566 385.836 140.133C385.84 140.11 385.843 140.087 385.847 140.064C385.87 139.921 385.893 139.773 385.926 139.627L386.017 139.647M385.674 141.431L387.932 138.623L387.935 138.53C387.935 138.53 387.935 138.53 387.935 138.53C387.703 138.523 387.466 138.53 387.231 138.551L387.231 138.551L387.23 138.551C386.967 138.576 386.691 138.618 386.418 138.754C386.376 138.773 386.34 138.797 386.308 138.82L386.308 138.82L386.305 138.822C386.302 138.824 386.298 138.827 386.292 138.831C386.27 138.846 386.229 138.873 386.191 138.92L386.19 138.921C386.117 139.012 386.083 139.098 386.055 139.174L386.055 139.175C385.998 139.327 385.959 139.478 385.926 139.627L386.017 139.647M386.017 139.647C386.049 139.5 386.088 139.355 386.142 139.207L386.017 139.647ZM388.909 138.762C388.892 138.747 388.869 138.733 388.846 138.722L388.637 138.994C388.658 138.99 388.68 138.986 388.699 138.983C388.711 138.981 388.721 138.979 388.73 138.977C388.758 138.972 388.777 138.969 388.79 138.969L388.79 138.969L388.8 138.968C388.821 138.965 388.844 138.961 388.864 138.955C388.873 138.952 388.886 138.947 388.899 138.939C388.911 138.932 388.932 138.916 388.944 138.887C388.957 138.855 388.951 138.824 388.941 138.802C388.931 138.783 388.918 138.77 388.909 138.762Z" fill="#231F20" stroke="#231F20" stroke-width="0.186807"/>
<path d="M388.496 147.904C388.433 147.911 388.366 147.911 388.302 147.911L388.301 147.911M388.496 147.904L387.738 147.877C387.76 147.88 387.782 147.878 387.804 147.877C387.823 147.876 387.843 147.875 387.862 147.877C387.876 147.878 387.889 147.88 387.903 147.881C388.035 147.895 388.169 147.909 388.301 147.911M388.496 147.904C388.51 147.903 388.524 147.901 388.537 147.899M388.496 147.904L388.537 147.899M388.301 147.911L388.303 147.817C388.302 147.817 388.302 147.817 388.302 147.817M388.301 147.911L388.301 147.817C388.302 147.817 388.302 147.817 388.302 147.817M388.302 147.817C388.368 147.817 388.429 147.817 388.486 147.811L388.489 147.811L388.489 147.811C388.5 147.81 388.51 147.809 388.521 147.807C388.529 147.806 388.537 147.805 388.547 147.804C388.569 147.801 388.597 147.798 388.628 147.801L388.631 147.801L388.631 147.801C388.681 147.807 388.729 147.819 388.773 147.831L388.777 147.832L388.777 147.832C388.797 147.839 388.82 147.851 388.837 147.873C388.854 147.895 388.861 147.919 388.862 147.939C388.866 147.976 388.853 148.011 388.843 148.035L388.842 148.037L388.842 148.037C388.833 148.057 388.819 148.089 388.8 148.12C388.781 148.151 388.754 148.188 388.717 148.216L388.71 148.221L388.71 148.221C388.63 148.269 388.544 148.292 388.473 148.31C388.459 148.314 388.446 148.317 388.434 148.321L388.431 148.322L388.431 148.322C388.337 148.344 388.241 148.334 388.163 148.326C388.155 148.325 388.146 148.324 388.138 148.324L388.133 148.323L388.133 148.323C388.092 148.317 388.048 148.319 387.996 148.324C387.985 148.325 387.973 148.326 387.96 148.328C387.92 148.332 387.874 148.337 387.829 148.338C387.706 148.341 387.584 148.334 387.466 148.324L387.465 148.324L387.465 148.324C387.43 148.32 387.394 148.317 387.358 148.314L387.358 148.314C387.322 148.311 387.286 148.308 387.249 148.305C387.212 148.302 387.176 148.299 387.142 148.295C387.069 148.288 387.001 148.282 386.931 148.282L386.93 148.282L386.93 148.282C386.898 148.281 386.864 148.286 386.821 148.294C386.818 148.294 386.815 148.294 386.812 148.295C386.774 148.302 386.728 148.31 386.681 148.31L386.679 148.311L386.679 148.31C386.677 148.31 386.674 148.311 386.665 148.312C386.664 148.312 386.663 148.312 386.662 148.312L386.662 148.312C386.654 148.313 386.638 148.315 386.621 148.314C386.594 148.313 386.564 148.308 386.536 148.292C386.507 148.275 386.486 148.251 386.473 148.224C386.448 148.181 386.442 148.131 386.437 148.089L386.437 148.087L386.437 148.087C386.437 148.079 386.436 148.071 386.435 148.061C386.435 148.061 386.434 148.06 386.434 148.059C386.433 148.051 386.432 148.04 386.431 148.03L386.431 148.025L386.431 148.025C386.429 147.929 386.478 147.845 386.55 147.789L386.557 147.784L386.566 147.78C386.74 147.693 386.914 147.701 387.065 147.709L387.067 147.709L387.067 147.709L387.406 147.735L387.492 147.741L387.492 147.756C387.521 147.759 387.551 147.762 387.58 147.765L387.58 147.765C387.636 147.772 387.692 147.778 387.748 147.784L387.75 147.784L387.75 147.784C387.761 147.786 387.774 147.785 387.795 147.784C387.797 147.784 387.798 147.784 387.8 147.784C387.818 147.783 387.844 147.782 387.87 147.784L387.872 147.784L387.872 147.784C387.885 147.785 387.899 147.787 387.912 147.788C388.045 147.802 388.174 147.816 388.302 147.817ZM388.537 147.899C388.565 147.895 388.593 147.892 388.62 147.894L388.537 147.899Z" fill="#231F20" stroke="#231F20" stroke-width="0.186807"/>
<path d="M385.474 142.781L385.467 142.781L385.467 142.875C385.467 143.565 385.482 144.256 385.522 144.942L385.522 144.942C385.576 145.862 385.661 146.791 385.9 147.647L385.9 147.647L385.9 147.648C385.941 147.793 385.988 147.911 386.036 147.986C386.058 148.023 386.088 148.061 386.127 148.083C386.148 148.094 386.175 148.104 386.208 148.101C386.241 148.098 386.268 148.082 386.287 148.062L386.221 147.996M385.474 142.781L388.54 139.038C388.539 139.038 388.538 139.038 388.537 139.037L388.533 139.037L388.533 139.037L388.397 139.012C388.374 139.008 388.351 139.005 388.328 139.001C388.258 138.991 388.191 138.981 388.124 138.973C387.936 138.953 387.751 138.933 387.566 138.923L387.565 138.923C387.378 138.911 387.193 138.906 387.011 138.915L387.011 138.915C386.827 138.921 386.647 138.938 386.508 138.983L386.504 138.984L386.504 138.984C386.501 138.985 386.498 138.986 386.49 138.99C386.487 138.992 386.48 138.996 386.474 138.999C386.473 138.999 386.473 138.999 386.472 138.999L386.431 139.068L386.394 139.151C386.347 139.267 386.31 139.401 386.28 139.541C386.221 139.824 386.184 140.125 386.153 140.425C386.087 141.086 386.062 141.759 386.051 142.433C386.045 142.848 386.045 143.263 386.055 143.678L386.055 143.678C386.07 144.309 386.093 144.941 386.149 145.561L386.149 145.561C386.181 145.928 386.235 146.285 386.289 146.643C386.305 146.756 386.322 146.868 386.339 146.981C386.356 147.085 386.373 147.187 386.389 147.291L386.389 147.294L386.389 147.294C386.413 147.488 386.426 147.624 386.422 147.726C386.418 147.832 386.395 147.908 386.347 147.978L386.27 147.925M385.474 142.781C385.483 142.129 385.51 141.476 385.571 140.824M385.474 142.781L385.571 140.824M386.221 147.996C386.233 147.985 386.244 147.968 386.254 147.95C386.259 147.942 386.264 147.933 386.27 147.925M386.221 147.996L386.286 148.064C386.304 148.047 386.317 148.026 386.325 148.013C386.33 148.006 386.333 148 386.336 147.996C386.34 147.989 386.343 147.984 386.347 147.978L386.27 147.925M386.221 147.996C386.165 148.052 386.071 147.907 385.99 147.622C385.754 146.776 385.67 145.855 385.615 144.936C385.577 144.287 385.562 143.633 385.561 142.979L385.472 143.013L386.296 147.306C386.345 147.695 386.342 147.82 386.27 147.925M385.664 140.832C385.603 141.481 385.576 142.131 385.568 142.781L385.87 139.427C385.816 139.646 385.777 139.864 385.742 140.084C385.711 140.296 385.692 140.509 385.673 140.722C385.67 140.758 385.667 140.795 385.664 140.832ZM385.664 140.832L385.571 140.823C385.571 140.823 385.571 140.823 385.571 140.824M385.664 140.832L385.571 140.824C385.571 140.824 385.571 140.824 385.571 140.824M385.571 140.824C385.574 140.787 385.577 140.751 385.58 140.714C385.599 140.502 385.618 140.285 385.65 140.07L385.65 140.069L385.65 140.069C385.685 139.848 385.724 139.627 385.78 139.405L385.78 139.403L385.78 139.403C385.838 139.184 385.904 138.955 386.036 138.731L386.04 138.726L386.04 138.726C386.044 138.72 386.046 138.717 386.049 138.711C386.051 138.706 386.055 138.701 386.06 138.692C386.07 138.675 386.084 138.653 386.105 138.631L386.106 138.631C386.108 138.628 386.111 138.625 386.114 138.622C386.138 138.597 386.176 138.558 386.215 138.536L386.217 138.534L386.217 138.534L386.303 138.489L386.313 138.483L386.313 138.484C386.342 138.473 386.371 138.463 386.397 138.455L386.398 138.455L386.399 138.455C386.511 138.42 386.617 138.404 386.717 138.392L386.719 138.392L386.719 138.392C386.921 138.371 387.118 138.369 387.313 138.374L387.315 138.374C387.657 138.388 388.004 138.412 388.346 138.477L388.346 138.477L388.329 138.569L385.571 140.824ZM388.669 138.548L388.673 138.549L388.673 138.549L388.726 138.564L388.729 138.565L388.729 138.565L388.808 138.59L388.81 138.591C388.881 138.615 388.958 138.673 388.979 138.776C388.995 138.841 388.994 138.921 388.994 138.968C388.994 138.972 388.994 138.977 388.994 138.98C388.994 139.071 388.987 139.156 388.98 139.238L388.979 139.244L388.979 139.244C388.964 139.415 388.94 139.582 388.912 139.746L388.912 139.747C388.904 139.788 388.894 139.826 388.878 139.856C388.87 139.87 388.857 139.89 388.835 139.905C388.81 139.923 388.777 139.931 388.743 139.922C388.713 139.913 388.694 139.895 388.682 139.883C388.671 139.869 388.661 139.854 388.654 139.841C388.64 139.813 388.628 139.779 388.617 139.742C388.575 139.595 388.542 139.344 388.54 139.067C388.54 139.067 388.54 139.067 388.54 139.067L388.669 138.548ZM388.669 138.548L388.563 138.522L388.541 138.613L388.669 138.548Z" fill="#231F20" stroke="#231F20" stroke-width="0.186807"/>
<path d="M421.038 138.923C420.715 138.779 420.44 138.55 420.233 138.291C420.026 138.029 419.867 137.736 419.781 137.411C419.719 137.181 419.676 136.911 419.717 136.677C419.767 136.256 419.94 135.852 420.211 135.533C420.479 135.215 420.842 134.983 421.238 134.881C421.588 134.79 421.959 134.79 422.304 134.872C422.411 134.906 422.527 134.926 422.627 134.976C422.727 135.026 422.834 135.07 422.929 135.129C423.02 135.192 423.116 135.251 423.197 135.326C423.27 135.411 423.345 135.492 423.391 135.602C423.423 135.763 423.443 135.708 423.3 135.704C423.227 135.704 423.127 135.704 423.029 135.686C422.982 135.674 422.925 135.672 422.872 135.661C422.822 135.647 422.775 135.627 422.729 135.602C422.395 135.433 422.052 135.329 421.709 135.34C421.365 135.347 421.033 135.49 420.758 135.72C420.592 135.858 420.463 136.049 420.392 136.263C420.345 136.365 420.336 136.481 420.308 136.59C420.304 136.702 420.286 136.822 420.292 136.925C420.322 137.391 420.597 137.897 420.995 138.195C421.238 138.379 421.543 138.491 421.856 138.486C422.327 138.493 422.813 138.263 423.079 137.866C423.188 137.716 423.247 137.538 423.288 137.361C423.332 137.179 423.343 137 423.327 136.831C423.318 136.756 423.297 136.688 423.282 136.618C423.254 136.486 423.225 136.399 423.22 136.324C423.211 136.252 423.232 136.188 423.259 136.124C423.27 136.095 423.277 136.063 423.288 136.043C423.307 136.006 423.348 136.006 423.429 136.029C423.511 136.052 423.604 136.122 423.691 136.245C424.205 137.034 423.879 138.15 423.082 138.718C422.497 139.139 421.695 139.223 421.036 138.936L421.04 138.923H421.038Z" fill="#231F20"/>
<path d="M422.306 137.318C422.142 137.491 421.931 137.541 421.722 137.509C421.647 137.498 421.563 137.475 421.494 137.421C421.374 137.327 421.303 137.18 421.299 137.055C421.292 136.934 421.319 136.816 421.376 136.711C421.428 136.625 421.488 136.539 421.576 136.491C421.683 136.425 421.819 136.407 421.926 136.459C421.958 136.475 421.947 136.495 421.919 136.525C421.89 136.552 421.849 136.607 421.822 136.639C421.76 136.689 421.76 136.766 421.735 136.8C421.717 136.848 421.704 136.875 421.697 136.943C421.676 137.021 421.713 137.048 421.751 137.071C421.797 137.102 421.901 137.127 421.979 137.089C422.024 137.068 422.074 137.039 422.079 136.986C422.085 136.968 422.079 136.948 422.085 136.927C422.083 136.907 422.076 136.884 422.072 136.861C422.063 136.823 422.035 136.791 421.999 136.77C421.942 136.734 421.86 136.748 421.815 136.775C421.804 136.78 421.797 136.791 421.788 136.791C421.756 136.795 421.738 136.782 421.658 136.714L421.606 136.675C421.556 136.641 421.522 136.545 421.597 136.47C421.701 136.354 421.869 136.332 422.013 136.359C422.158 136.386 422.306 136.48 422.392 136.636C422.408 136.664 422.422 136.695 422.431 136.725L422.449 136.807C422.463 136.859 422.463 136.921 422.458 136.982C422.447 137.105 422.39 137.23 422.313 137.318L422.306 137.312V137.318Z" fill="#231F20"/>
<path d="M401.269 138.923C400.947 138.779 400.672 138.55 400.465 138.291C400.258 138.029 400.099 137.736 400.012 137.411C399.951 137.181 399.908 136.911 399.949 136.677C399.999 136.256 400.171 135.852 400.442 135.533C400.71 135.215 401.074 134.983 401.469 134.881C401.82 134.79 402.19 134.79 402.536 134.872C402.642 134.906 402.758 134.926 402.858 134.976C402.958 135.026 403.065 135.07 403.161 135.129C403.252 135.192 403.347 135.251 403.429 135.326C403.502 135.411 403.577 135.492 403.622 135.602C403.654 135.763 403.674 135.708 403.531 135.704C403.458 135.704 403.358 135.704 403.261 135.686C403.213 135.674 403.156 135.672 403.104 135.661C403.054 135.647 403.006 135.627 402.961 135.602C402.626 135.433 402.283 135.329 401.94 135.34C401.597 135.347 401.265 135.49 400.99 135.72C400.824 135.858 400.694 136.049 400.624 136.263C400.576 136.365 400.567 136.481 400.54 136.59C400.535 136.702 400.517 136.822 400.524 136.925C400.553 137.391 400.828 137.897 401.226 138.195C401.469 138.379 401.774 138.491 402.088 138.486C402.558 138.493 403.045 138.263 403.311 137.866C403.42 137.716 403.479 137.538 403.52 137.361C403.563 137.179 403.574 137 403.558 136.831C403.549 136.756 403.529 136.688 403.513 136.618C403.486 136.486 403.456 136.399 403.452 136.324C403.443 136.252 403.463 136.188 403.49 136.124C403.502 136.095 403.508 136.063 403.52 136.043C403.538 136.006 403.579 136.006 403.661 136.029C403.743 136.052 403.836 136.122 403.922 136.245C404.436 137.034 404.111 138.15 403.313 138.718C402.729 139.139 401.926 139.223 401.267 138.936L401.272 138.923H401.269Z" fill="#231F20"/>
<path d="M402.537 137.318C402.374 137.491 402.162 137.541 401.953 137.509C401.878 137.498 401.794 137.475 401.726 137.421C401.605 137.327 401.535 137.18 401.53 137.055C401.524 136.934 401.551 136.816 401.608 136.711C401.66 136.625 401.719 136.539 401.808 136.491C401.914 136.425 402.051 136.407 402.158 136.459C402.19 136.475 402.178 136.495 402.151 136.525C402.121 136.552 402.08 136.607 402.053 136.639C401.992 136.689 401.992 136.766 401.967 136.8C401.949 136.848 401.935 136.875 401.928 136.943C401.908 137.02 401.944 137.048 401.983 137.07C402.028 137.102 402.133 137.127 402.21 137.089C402.255 137.068 402.305 137.039 402.31 136.986C402.317 136.968 402.31 136.948 402.317 136.927C402.315 136.907 402.308 136.884 402.303 136.861C402.294 136.823 402.267 136.791 402.23 136.77C402.174 136.734 402.092 136.748 402.046 136.775C402.035 136.78 402.028 136.791 402.019 136.791C401.987 136.795 401.969 136.782 401.889 136.714L401.837 136.675C401.787 136.641 401.753 136.545 401.828 136.47C401.933 136.354 402.101 136.332 402.244 136.359C402.39 136.386 402.537 136.479 402.624 136.636C402.64 136.664 402.653 136.695 402.662 136.725L402.681 136.807C402.694 136.859 402.694 136.92 402.69 136.982C402.678 137.105 402.621 137.23 402.544 137.318L402.537 137.311V137.318Z" fill="#231F20"/>
<path d="M402.954 145.286L403.132 145.286L403.006 145.16L403.004 145.158L402.984 145.137L402.954 145.137L402.209 145.118L399.214 144.669C399.117 144.641 399.021 144.613 398.927 144.584C398.856 144.543 398.755 144.484 398.631 144.409C398.378 144.257 398.03 144.04 397.649 143.778C396.886 143.253 395.997 142.554 395.471 141.85C394.418 140.437 394.163 138.778 394.027 137.778C393.893 136.797 394.185 134.669 395.5 132.664C396.153 131.667 397.034 131.01 397.754 130.602C398.113 130.398 398.432 130.256 398.66 130.166C398.774 130.121 398.866 130.088 398.928 130.067C398.96 130.057 398.984 130.049 399 130.044L399.018 130.039L399.023 130.037L399.024 130.037L399.024 130.037L399.024 130.037L399.024 130.038L399.036 130.032L400.324 129.399L400.276 129.261C400.244 129.268 400.208 129.275 400.168 129.284C399.12 129.508 395.444 130.295 393.806 134.745L393.806 134.745C393.061 136.771 393.128 139.407 394.495 141.538C395.376 142.91 396.792 144.068 398.867 144.719C398.898 144.737 398.922 144.75 398.939 144.76L398.961 144.772L398.966 144.775L398.968 144.776L398.968 144.776L398.968 144.776L398.98 144.754C398.98 144.754 398.98 144.754 398.981 144.754L398.968 144.776L398.98 144.783L398.993 144.784L399.183 144.813C400.265 145.116 401.517 145.286 402.954 145.286Z" fill="#231F20" stroke="#231F20" stroke-width="0.147394"/>
<path d="M400.764 129.669C400.706 129.68 400.651 129.69 400.597 129.699C400.507 129.714 400.422 129.728 400.334 129.751C400.263 129.771 400.194 129.79 400.124 129.808C399.908 129.866 399.698 129.922 399.494 130.006L399.493 130.007L399.493 130.007C399.442 130.027 399.39 130.045 399.339 130.063C399.32 130.07 399.3 130.076 399.281 130.083C399.212 130.108 399.146 130.133 399.084 130.164L399.082 130.165L399.082 130.165L398.679 130.353L398.675 130.355L398.675 130.355C398.611 130.381 398.55 130.414 398.487 130.452C398.47 130.461 398.453 130.472 398.436 130.482C398.39 130.509 398.342 130.538 398.293 130.564C398.246 130.593 398.197 130.62 398.149 130.647C398.132 130.656 398.116 130.666 398.099 130.675C398.035 130.711 397.975 130.747 397.921 130.789L397.918 130.791L397.918 130.79C397.861 130.831 397.803 130.871 397.746 130.911C397.559 131.041 397.376 131.168 397.209 131.318L397.206 131.321L397.206 131.321C396.746 131.688 396.347 132.126 395.982 132.591L395.947 132.636L395.939 132.633C394.515 134.474 393.982 136.982 394.564 139.246C394.78 140.077 395.137 140.871 395.632 141.563L395.632 141.563C396.504 142.785 397.787 143.716 399.242 144.173L399.242 144.173C399.967 144.408 400.726 144.545 401.492 144.595C402.259 144.632 403.031 144.576 403.789 144.44L403.79 144.44C405.135 144.217 406.383 143.565 407.369 142.645L400.764 129.669ZM400.764 129.669C400.91 129.641 401.052 129.615 401.193 129.607L401.193 129.607L401.196 129.607L401.633 129.566L402.072 129.563C403.645 129.576 405.186 130.139 406.408 131.091C407.626 132.068 408.65 133.313 409.075 134.737C409.089 134.789 409.104 134.839 409.118 134.888C409.121 134.897 409.124 134.906 409.126 134.915C409.143 134.972 409.159 135.026 409.171 135.078L409.171 135.078L409.172 135.079C409.184 135.128 409.196 135.177 409.207 135.224C409.22 135.28 409.234 135.333 409.246 135.383C409.27 135.51 409.297 135.625 409.321 135.724C409.332 135.774 409.343 135.82 409.352 135.861L409.352 135.862C409.381 135.988 409.412 136.089 409.445 136.15C409.46 136.178 409.486 136.216 409.528 136.231C409.552 136.239 409.579 136.238 409.603 136.228C409.624 136.218 409.64 136.202 409.651 136.188L400.764 129.669ZM409.704 138.104L409.704 138.104C409.738 137.97 409.762 137.871 409.78 137.806C409.788 137.774 409.796 137.749 409.803 137.731C409.805 137.723 409.81 137.711 409.816 137.701C409.819 137.697 409.827 137.685 409.843 137.675C409.851 137.669 409.866 137.663 409.884 137.664C409.902 137.664 409.916 137.67 409.927 137.678M409.704 138.104L410.063 138.557C410.063 138.556 410.063 138.556 410.063 138.555C410.062 138.529 410.06 138.502 410.059 138.477C410.054 138.343 410.048 138.215 410.017 138.105C409.994 137.988 409.982 137.897 409.974 137.834C409.973 137.826 409.972 137.818 409.971 137.81C409.969 137.789 409.966 137.771 409.964 137.757C409.963 137.747 409.961 137.737 409.959 137.728C409.958 137.724 409.956 137.717 409.953 137.711C409.951 137.706 409.944 137.69 409.927 137.678M409.704 138.104L409.703 138.111M409.704 138.104L409.703 138.111M409.927 137.678C409.928 137.679 409.93 137.68 409.931 137.681L409.883 137.738L409.926 137.678C409.927 137.678 409.927 137.678 409.927 137.678ZM409.703 138.111C409.454 139.829 408.633 141.456 407.369 142.645L409.703 138.111ZM409.318 135.367C409.305 135.316 409.292 135.263 409.279 135.208C409.267 135.16 409.256 135.112 409.243 135.062C409.228 134.998 409.209 134.934 409.189 134.867C409.174 134.818 409.159 134.768 409.146 134.717C408.715 133.273 407.679 132.016 406.454 131.033C405.219 130.071 403.662 129.502 402.072 129.489L401.629 129.492L401.189 129.533C401.042 129.542 400.895 129.569 400.75 129.596L409.318 135.367ZM409.691 140.472C409.777 140.256 409.863 140.041 409.909 139.824L409.756 135.965C409.838 135.787 409.876 135.571 409.851 135.214L409.851 135.214L409.851 135.211C409.842 135.123 409.83 135.026 409.817 134.919L409.817 134.919L409.816 134.917C409.801 134.818 409.777 134.713 409.751 134.602C409.748 134.588 409.745 134.574 409.742 134.56C409.721 134.466 409.689 134.366 409.656 134.263C409.643 134.222 409.63 134.18 409.618 134.138L409.618 134.138L409.616 134.133C409.6 134.092 409.583 134.049 409.567 134.004C409.525 133.893 409.479 133.769 409.419 133.646C409.253 133.266 409.044 132.923 408.815 132.591C408.555 132.212 408.262 131.86 407.949 131.532C407.794 131.368 407.631 131.21 407.466 131.057C407.363 130.96 407.248 130.866 407.137 130.775C407.072 130.722 407.008 130.67 406.948 130.618L406.948 130.618L406.946 130.616C406.232 130.053 405.422 129.605 404.552 129.307C403.434 128.906 402.216 128.801 401.035 128.937L401.035 128.937C399.848 129.081 398.704 129.512 397.692 130.133L397.692 130.133L397.691 130.134C396.368 130.975 395.25 132.166 394.557 133.588C394.446 133.788 394.36 134.003 394.276 134.212C394.241 134.298 394.207 134.383 394.172 134.466L394.172 134.465L394.17 134.471C394.138 134.565 394.107 134.661 394.077 134.756C394.059 134.813 394.041 134.87 394.023 134.926L394.022 134.927L393.951 135.154L393.951 135.154L393.949 135.159L393.895 135.39C393.727 136.014 393.671 136.659 393.652 137.298L393.652 137.298L393.652 137.302C393.653 137.35 393.654 137.398 393.655 137.446C393.659 137.715 393.664 137.991 393.704 138.263C393.724 138.535 393.777 138.801 393.83 139.063C393.84 139.113 393.85 139.164 393.86 139.214L393.86 139.214L393.861 139.218C394.017 139.84 394.213 140.459 394.519 141.034C395.049 142.085 395.846 143.024 396.823 143.694C397.791 144.373 398.893 144.83 400.013 145.073C400.95 145.283 401.919 145.338 402.871 145.256L402.871 145.256C403.344 145.209 403.819 145.144 404.284 145.036C404.754 144.939 405.223 144.78 405.667 144.591L405.667 144.591C406.561 144.206 407.367 143.633 408.039 142.943L408.039 142.943C408.711 142.253 409.267 141.45 409.654 140.566L409.654 140.566L409.655 140.564C409.667 140.533 409.679 140.503 409.691 140.472Z" fill="#231F20" stroke="#231F20" stroke-width="0.147394"/>
<path d="M395.746 137.473C395.74 137.33 395.739 137.186 395.738 137.04C395.738 136.992 395.738 136.944 395.738 136.895C395.74 136.862 395.742 136.829 395.744 136.796C395.753 136.636 395.762 136.477 395.783 136.32L395.783 136.32C395.839 135.89 395.94 135.469 396.069 135.058C396.209 134.651 396.383 134.26 396.593 133.889C396.658 133.784 396.72 133.678 396.781 133.573C396.83 133.494 396.883 133.418 396.938 133.34C396.953 133.319 396.969 133.297 396.984 133.274C397.363 132.761 397.835 132.323 398.354 131.957L398.361 131.966L398.418 131.928C398.966 131.553 399.576 131.263 400.211 131.086L400.211 131.086L400.212 131.085C401.068 130.835 401.961 130.763 402.807 130.823C402.953 130.836 403.08 130.831 403.172 130.805C403.217 130.792 403.261 130.773 403.292 130.743C403.327 130.71 403.346 130.664 403.338 130.612L403.338 130.612L403.338 130.611C403.334 130.587 403.325 130.565 403.318 130.548C403.313 130.536 403.309 130.529 403.306 130.523C403.303 130.516 403.3 130.509 403.296 130.5C403.296 130.5 403.296 130.5 403.296 130.499L403.228 130.528C403.172 130.383 403.043 130.309 402.618 130.265C402.547 130.257 402.476 130.257 402.406 130.256C402.364 130.255 402.321 130.255 402.278 130.253L395.746 137.473ZM395.746 137.473C395.761 137.722 395.778 137.967 395.812 138.212L395.746 137.473ZM395.431 135.161C395.628 134.544 395.871 133.905 396.23 133.337C396.618 132.711 397.127 132.17 397.695 131.717L397.695 131.716L397.695 131.717C398.049 131.44 398.429 131.2 398.826 130.997L398.826 130.997C399.43 130.691 400.077 130.472 400.734 130.343L395.812 138.212C395.82 138.271 395.826 138.331 395.831 138.389L395.832 138.401C395.838 138.464 395.844 138.524 395.853 138.583L395.853 138.585L395.853 138.585C395.855 138.6 395.857 138.615 395.859 138.63C395.873 138.739 395.889 138.86 395.864 138.989L395.862 138.999L395.862 138.999C395.847 139.041 395.835 139.075 395.826 139.098C395.821 139.109 395.815 139.121 395.809 139.131C395.805 139.136 395.799 139.145 395.79 139.153C395.781 139.16 395.76 139.174 395.732 139.171C395.712 139.169 395.698 139.161 395.691 139.155C395.683 139.15 395.677 139.143 395.674 139.14C395.67 139.135 395.665 139.128 395.661 139.122C395.659 139.121 395.658 139.119 395.657 139.118C395.647 139.104 395.631 139.084 395.604 139.06L395.603 139.059C395.474 138.937 395.306 138.696 395.255 138.381C395.057 137.327 395.098 136.205 395.431 135.161ZM395.431 135.161C395.431 135.161 395.431 135.161 395.431 135.161L395.502 135.183L395.431 135.161Z" fill="#231F20" stroke="#231F20" stroke-width="0.147394"/>
<path d="M402.881 136.44C402.657 136.777 402.429 137.126 402.19 137.448C402.104 137.565 402.041 137.703 401.955 137.84L401.033 139.127C400.896 139.319 400.794 139.519 400.676 139.735C400.608 139.869 400.533 140 400.452 140.127C400.36 140.257 400.249 140.372 400.123 140.468C400.037 140.531 399.942 140.441 399.86 140.296C399.755 140.139 399.708 139.95 399.727 139.762C399.939 139.191 400.248 138.66 400.641 138.193C400.876 137.903 401.033 137.55 401.256 137.232C401.48 136.914 401.751 136.545 402.014 136.224L402.492 135.616C402.731 135.31 402.979 135.004 403.198 134.69C403.371 134.447 403.512 134.184 403.681 133.941C403.72 133.886 403.751 133.831 403.795 133.776C403.844 133.698 403.917 133.638 404.002 133.603C404.061 133.582 404.125 133.582 404.183 133.603C404.209 133.608 404.234 133.616 404.257 133.627C404.328 133.662 404.324 133.784 404.281 133.964C404.061 134.463 403.812 134.949 403.536 135.42C403.328 135.777 403.108 136.126 402.896 136.483L402.881 136.44Z" fill="#231F20"/>
<path d="M421.548 135.604C421.77 135.942 422.002 136.288 422.204 136.634C422.278 136.76 422.38 136.872 422.473 137.005L423.294 138.358C423.417 138.559 423.561 138.732 423.713 138.925C425.182 141.109 425.273 141.229 425.358 141.353C425.441 141.489 425.503 141.636 425.542 141.79C425.566 141.894 425.446 141.945 425.28 141.964C425.095 141.999 424.903 141.968 424.737 141.877C424.295 141.458 422.557 138.896 422.282 138.352C422.107 138.022 421.844 137.739 421.639 137.408C421.435 137.078 421.202 136.684 421.009 136.316L420.638 135.638C420.45 135.298 420.266 134.95 420.063 134.625C419.907 134.371 419.721 134.138 419.563 133.887C419.528 133.83 419.49 133.779 419.457 133.718C419.404 133.642 419.377 133.551 419.379 133.459C419.382 133.397 419.407 133.338 419.45 133.293C419.465 133.271 419.482 133.251 419.501 133.234C419.561 133.183 419.672 133.234 419.821 133.344C420.193 133.743 420.543 134.162 420.867 134.601C421.113 134.932 421.348 135.271 421.594 135.606L421.548 135.604Z" fill="#231F20"/>
<path d="M422.791 145.286L422.969 145.286L422.843 145.16L422.841 145.159L422.821 145.138L422.791 145.137L422.046 145.119L419.05 144.669C418.954 144.642 418.858 144.614 418.764 144.584C418.693 144.544 418.592 144.485 418.467 144.41C418.215 144.258 417.867 144.04 417.486 143.779C416.723 143.253 415.833 142.555 415.308 141.85C414.255 140.437 414 138.779 413.864 137.779C413.73 136.797 414.022 134.67 415.336 132.664C415.99 131.668 416.871 131.011 417.591 130.602C417.95 130.398 418.269 130.257 418.497 130.167C418.611 130.121 418.702 130.089 418.765 130.068C418.797 130.057 418.821 130.05 418.837 130.045L418.855 130.039L418.86 130.038L418.861 130.038L418.861 130.038L418.861 130.038L418.861 130.039L418.873 130.033L420.161 129.399L420.113 129.261C420.081 129.268 420.045 129.276 420.005 129.284C418.957 129.509 415.281 130.296 413.643 134.745L413.643 134.745C412.897 136.772 412.965 139.407 414.332 141.538C415.213 142.911 416.629 144.069 418.704 144.72C418.735 144.737 418.759 144.751 418.776 144.761L418.798 144.773L418.803 144.776L418.805 144.776L418.805 144.777L418.805 144.777L418.817 144.755C418.817 144.755 418.817 144.755 418.817 144.755L418.805 144.777L418.817 144.783L418.83 144.785L419.02 144.814C420.102 145.117 421.354 145.287 422.791 145.286Z" fill="#231F20" stroke="#231F20" stroke-width="0.147394"/>
<path d="M420.6 129.669C420.542 129.681 420.487 129.69 420.432 129.699C420.343 129.714 420.258 129.729 420.17 129.752C420.099 129.772 420.029 129.79 419.96 129.809C419.744 129.867 419.534 129.923 419.33 130.007L419.329 130.007L419.329 130.007C419.278 130.027 419.226 130.045 419.175 130.063C419.155 130.07 419.136 130.077 419.117 130.084C419.048 130.108 418.982 130.134 418.92 130.165L418.918 130.166L418.918 130.166L418.515 130.354L418.511 130.355L418.511 130.355C418.447 130.381 418.386 130.415 418.323 130.452C418.306 130.462 418.289 130.472 418.272 130.482C418.226 130.51 418.178 130.538 418.129 130.564C418.082 130.594 418.033 130.621 417.985 130.647C417.968 130.657 417.951 130.666 417.935 130.675C417.871 130.712 417.811 130.747 417.756 130.789L417.754 130.791L417.754 130.791C417.697 130.832 417.639 130.872 417.582 130.912C417.395 131.042 417.212 131.168 417.045 131.319L417.042 131.322L417.042 131.321C416.582 131.689 416.183 132.127 415.817 132.592L415.783 132.637L415.775 132.633C414.351 134.475 413.817 136.983 414.4 139.247C414.616 140.077 414.973 140.872 415.468 141.564L415.468 141.564C416.34 142.785 417.622 143.717 419.078 144.173L419.078 144.173C419.803 144.409 420.562 144.546 421.328 144.595C422.095 144.632 422.867 144.576 423.625 144.441L423.626 144.441C424.971 144.218 426.219 143.566 427.205 142.646L420.6 129.669ZM420.6 129.669C420.746 129.642 420.888 129.616 421.029 129.607L421.029 129.607L421.032 129.607L421.469 129.567L421.908 129.563C423.48 129.577 425.022 130.139 426.244 131.091C427.462 132.069 428.486 133.314 428.911 134.737C428.925 134.789 428.94 134.84 428.954 134.888C428.957 134.897 428.96 134.906 428.962 134.915C428.979 134.972 428.995 135.027 429.007 135.079L429.007 135.079L429.007 135.08C429.02 135.129 429.031 135.177 429.043 135.225C429.056 135.28 429.069 135.334 429.082 135.384C429.106 135.51 429.133 135.626 429.156 135.725C429.168 135.775 429.179 135.821 429.188 135.862L429.188 135.863C429.217 135.989 429.248 136.09 429.281 136.151C429.296 136.178 429.322 136.217 429.364 136.231C429.388 136.24 429.415 136.239 429.439 136.228C429.46 136.218 429.476 136.203 429.487 136.189L420.6 129.669ZM429.54 138.105L429.54 138.105C429.573 137.97 429.598 137.871 429.616 137.807C429.624 137.775 429.632 137.749 429.639 137.731C429.641 137.723 429.646 137.712 429.652 137.702C429.655 137.698 429.663 137.685 429.679 137.676C429.687 137.67 429.702 137.664 429.72 137.664C429.738 137.665 429.752 137.671 429.763 137.679M429.54 138.105L429.899 138.558C429.899 138.557 429.899 138.556 429.899 138.556C429.898 138.529 429.896 138.503 429.895 138.477C429.89 138.343 429.884 138.216 429.853 138.105C429.83 137.989 429.818 137.898 429.81 137.834C429.809 137.826 429.808 137.818 429.807 137.811C429.804 137.79 429.802 137.771 429.8 137.757C429.799 137.748 429.797 137.738 429.795 137.729C429.794 137.725 429.792 137.718 429.789 137.711C429.787 137.706 429.78 137.691 429.763 137.679M429.54 138.105L429.539 138.112M429.54 138.105L429.539 138.112M429.763 137.679C429.764 137.68 429.765 137.681 429.767 137.682L429.719 137.738L429.762 137.678C429.763 137.679 429.763 137.679 429.763 137.679ZM429.539 138.112C429.29 139.83 428.469 141.457 427.205 142.646L429.539 138.112ZM429.154 135.368C429.141 135.317 429.128 135.264 429.115 135.208C429.103 135.161 429.092 135.112 429.079 135.062C429.064 134.999 429.045 134.934 429.025 134.867C429.01 134.818 428.995 134.768 428.982 134.717C428.551 133.274 427.515 132.017 426.29 131.033C425.055 130.072 423.498 129.503 421.908 129.489L421.465 129.493L421.025 129.534C420.878 129.542 420.731 129.57 420.586 129.597L429.154 135.368ZM429.527 140.473C429.613 140.256 429.699 140.042 429.745 139.825L429.592 135.965C429.674 135.788 429.711 135.571 429.687 135.214L429.687 135.214L429.687 135.212C429.678 135.124 429.666 135.027 429.652 134.92L429.653 134.92L429.652 134.917C429.637 134.819 429.613 134.714 429.587 134.602C429.584 134.588 429.581 134.575 429.578 134.561C429.556 134.467 429.525 134.367 429.492 134.263C429.479 134.222 429.466 134.181 429.454 134.139L429.454 134.139L429.452 134.133C429.436 134.093 429.419 134.05 429.403 134.005C429.361 133.893 429.315 133.77 429.255 133.646C429.089 133.267 428.88 132.923 428.651 132.592C428.391 132.212 428.098 131.861 427.785 131.532C427.63 131.369 427.467 131.211 427.302 131.058C427.199 130.96 427.084 130.867 426.973 130.776C426.908 130.723 426.844 130.671 426.784 130.619L426.784 130.619L426.782 130.617C426.068 130.053 425.258 129.605 424.388 129.307C423.269 128.907 422.052 128.802 420.871 128.938L420.871 128.938C419.684 129.081 418.54 129.512 417.528 130.134L417.528 130.134L417.527 130.134C416.204 130.976 415.086 132.167 414.393 133.588C414.282 133.789 414.196 134.003 414.112 134.213C414.077 134.299 414.043 134.383 414.008 134.466L414.008 134.466L414.006 134.471C413.974 134.566 413.943 134.662 413.913 134.757C413.895 134.814 413.877 134.871 413.859 134.927L413.858 134.927L413.787 135.154L413.787 135.154L413.785 135.16L413.731 135.391C413.563 136.015 413.507 136.66 413.488 137.299L413.488 137.299L413.488 137.303C413.489 137.345 413.49 137.387 413.49 137.43C413.495 137.705 413.501 137.986 413.539 138.264C413.56 138.536 413.613 138.802 413.666 139.064C413.676 139.114 413.686 139.164 413.696 139.214L413.696 139.214L413.697 139.218C413.853 139.84 414.049 140.46 414.355 141.034C414.885 142.086 415.681 143.024 416.659 143.694C417.627 144.373 418.729 144.831 419.849 145.074C420.786 145.284 421.755 145.339 422.707 145.256L422.707 145.256C423.18 145.21 423.655 145.145 424.12 145.036C424.59 144.939 425.059 144.781 425.503 144.591L425.503 144.591C426.397 144.206 427.203 143.634 427.875 142.944L427.875 142.944C428.547 142.253 429.103 141.45 429.49 140.567L429.49 140.567L429.491 140.565C429.503 140.534 429.515 140.503 429.527 140.473Z" fill="#231F20" stroke="#231F20" stroke-width="0.147394"/>
<path d="M416.639 133.46L416.639 133.46C416.338 133.883 416.073 134.337 415.888 134.823L415.888 134.825L415.888 134.825C415.743 135.175 415.654 135.544 415.57 135.919C415.435 136.576 415.403 137.254 415.483 137.922L415.483 137.922C415.56 138.59 415.757 139.243 416.041 139.858C416.173 140.128 416.325 140.389 416.495 140.637C416.666 140.884 416.86 141.113 417.062 141.334C417.323 141.612 417.615 141.863 417.925 142.086C418.081 142.198 418.242 142.304 418.405 142.402C418.426 142.414 418.446 142.426 418.466 142.438C418.528 142.475 418.589 142.512 418.652 142.544C418.652 142.545 418.652 142.545 418.653 142.545L416.639 133.46ZM416.639 133.46L416.64 133.459M416.639 133.46L416.64 133.459M416.64 133.459C416.924 133.05 417.273 132.69 417.649 132.362L417.658 132.369L417.704 132.328C418.093 131.983 418.54 131.696 419.004 131.455M416.64 133.459L419.004 131.455M414.868 136.894L414.868 136.894C414.882 136.368 414.966 135.845 415.096 135.341L415.096 135.338L415.096 135.338C415.255 134.787 415.476 134.255 415.751 133.755L415.752 133.754L415.752 133.754C416.04 133.259 416.383 132.8 416.771 132.383L416.772 132.382L416.772 132.382C417.259 131.873 417.823 131.447 418.426 131.099L418.427 131.098L418.427 131.098C418.886 130.84 419.369 130.614 419.878 130.46L419.899 130.531L419.878 130.46C420.383 130.307 420.904 130.2 421.429 130.158L421.429 130.158C422.243 130.096 423.061 130.167 423.846 130.41C423.974 130.445 424.097 130.493 424.217 130.54C424.263 130.558 424.309 130.576 424.354 130.593L424.359 130.595L424.359 130.595C424.967 130.875 425.152 131.056 425.206 131.275M414.868 136.894L425.206 131.275C425.206 131.275 425.206 131.275 425.206 131.275M414.868 136.894C414.858 137.415 414.883 137.937 414.978 138.444C415.265 140.138 416.26 141.718 417.723 142.64C418.141 142.907 418.571 142.992 418.821 142.976C418.874 142.974 418.914 142.976 418.942 142.979C418.945 142.979 418.948 142.979 418.951 142.98C418.961 142.98 418.972 142.981 418.98 142.982C418.985 142.982 418.994 142.982 419.003 142.981L419.003 142.981C419.009 142.98 419.033 142.976 419.052 142.956C419.082 142.923 419.07 142.885 419.067 142.877C419.063 142.864 419.056 142.855 419.053 142.85C419.045 142.84 419.034 142.828 419.023 142.817C419 142.793 418.965 142.761 418.919 142.719L414.868 136.894ZM425.206 131.275C425.208 131.286 425.211 131.295 425.214 131.305C425.217 131.314 425.22 131.323 425.223 131.336C425.229 131.357 425.236 131.387 425.235 131.417C425.234 131.446 425.223 131.476 425.199 131.5C425.177 131.522 425.148 131.532 425.124 131.536C425.076 131.544 425.018 131.536 424.958 131.522M425.206 131.275L424.96 131.522C424.959 131.522 424.959 131.522 424.958 131.522M424.958 131.522C424.888 131.508 424.812 131.476 424.734 131.44C424.715 131.431 424.695 131.422 424.675 131.413C424.61 131.383 424.54 131.35 424.461 131.318L424.457 131.316L424.457 131.316C423.259 130.751 421.823 130.572 420.466 130.915L420.464 130.915L420.464 130.915C419.96 131.031 419.469 131.217 419.004 131.455M424.958 131.522L419.004 131.455" fill="#231F20" stroke="#231F20" stroke-width="0.147394"/>
<path d="M431.107 148.387C431.037 148.42 430.967 148.454 430.896 148.487C430.826 148.52 430.756 148.554 430.686 148.587C430.658 148.6 430.632 148.616 430.607 148.632C430.584 148.646 430.562 148.66 430.538 148.672C430.521 148.68 430.505 148.688 430.488 148.696C430.323 148.776 430.156 148.855 429.997 148.945M431.107 148.387L431.106 148.389L431.029 148.434L431.034 148.443L431.071 148.507M431.107 148.387L431.108 148.388L431.107 148.387ZM431.071 148.507C431.026 148.529 430.981 148.55 430.936 148.571L430.936 148.571C430.866 148.605 430.796 148.638 430.726 148.671L430.725 148.672L430.725 148.672C430.705 148.681 430.686 148.693 430.661 148.708C430.66 148.709 430.658 148.71 430.656 148.712C430.634 148.725 430.608 148.742 430.58 148.756L430.579 148.756L430.579 148.756C430.562 148.764 430.545 148.772 430.528 148.781C430.363 148.86 430.199 148.938 430.044 149.026M431.071 148.507L431.078 148.519L431.157 148.479L431.574 148.268L431.574 148.268L431.575 148.267C431.759 148.171 431.957 148.064 432.112 147.881L432.117 147.875L432.121 147.868C432.173 147.782 432.197 147.67 432.139 147.576L432.139 147.576L432.135 147.571C432.128 147.562 432.121 147.553 432.116 147.546C432.115 147.546 432.115 147.545 432.114 147.545C432.108 147.537 432.104 147.531 432.1 147.526L432.1 147.525L432.097 147.523C432.071 147.488 432.035 147.446 431.981 147.425C431.914 147.393 431.849 147.412 431.797 147.441C431.78 147.449 431.766 147.459 431.756 147.466C431.755 147.467 431.753 147.468 431.752 147.469C431.743 147.475 431.737 147.479 431.731 147.483L431.731 147.483L431.73 147.484C431.678 147.514 431.631 147.55 431.588 147.583C431.585 147.585 431.582 147.587 431.579 147.59C431.532 147.625 431.49 147.656 431.446 147.681L431.446 147.681L431.445 147.681C431.359 147.731 431.271 147.774 431.179 147.818C431.137 147.839 431.094 147.86 431.05 147.882C431.005 147.904 430.96 147.927 430.916 147.949L430.916 147.949C430.871 147.971 430.827 147.993 430.782 148.015L430.782 148.015L430.782 148.015C430.637 148.087 430.491 148.164 430.349 148.25C430.298 148.28 430.249 148.314 430.202 148.345C430.188 148.355 430.174 148.365 430.16 148.374C430.1 148.415 430.043 148.45 429.984 148.476L429.984 148.476L429.981 148.478C429.971 148.483 429.96 148.488 429.949 148.493C429.851 148.541 429.742 148.594 429.649 148.671L429.649 148.671L429.647 148.672C429.634 148.684 429.619 148.697 429.605 148.71C429.529 148.775 429.445 148.847 429.378 148.938L429.378 148.938L429.374 148.944C429.322 149.028 429.319 149.134 429.317 149.177L429.317 149.179L429.317 149.179L429.317 149.183C429.317 149.209 429.319 149.255 429.347 149.291C429.363 149.313 429.387 149.33 429.416 149.337C429.444 149.343 429.468 149.339 429.487 149.333L429.487 149.333L429.49 149.332C429.548 149.313 429.608 149.291 429.666 149.264L429.666 149.264L429.668 149.263C429.7 149.247 429.728 149.228 429.753 149.211C429.762 149.204 429.771 149.198 429.779 149.192C429.793 149.182 429.806 149.173 429.82 149.163L429.82 149.163L429.822 149.162C429.89 149.115 429.966 149.071 430.044 149.026M431.071 148.507L429.769 149.085M430.044 149.026C430.044 149.026 430.044 149.026 430.044 149.026L429.997 148.945M430.044 149.026C430.044 149.026 430.044 149.027 430.043 149.027L429.997 148.945M429.997 148.945L429.997 148.945C429.92 148.99 429.841 149.036 429.769 149.085M429.769 149.085C429.753 149.096 429.738 149.107 429.722 149.118C429.691 149.14 429.66 149.162 429.626 149.179C429.573 149.204 429.517 149.225 429.46 149.244L429.769 149.085Z" fill="#231F20" stroke="#231F20" stroke-width="0.186807"/>
<path d="M430.732 125.65C430.802 125.682 430.873 125.715 430.944 125.747C431.015 125.779 431.086 125.812 431.156 125.843C431.184 125.856 431.213 125.865 431.241 125.875C431.267 125.883 431.292 125.891 431.316 125.901C431.333 125.909 431.35 125.916 431.367 125.924C431.534 125.999 431.703 126.075 431.874 126.138M430.732 125.65L430.733 125.649L430.818 125.68L430.822 125.67L430.847 125.6M430.732 125.65L430.732 125.649L430.732 125.65ZM430.847 125.6C430.892 125.621 430.937 125.641 430.982 125.662L430.983 125.662C431.053 125.694 431.124 125.726 431.194 125.758L431.195 125.759L431.195 125.759C431.215 125.768 431.237 125.775 431.264 125.784C431.266 125.784 431.268 125.785 431.27 125.786C431.295 125.794 431.325 125.803 431.353 125.815L431.355 125.816L431.355 125.816C431.372 125.824 431.389 125.831 431.405 125.839C431.573 125.914 431.738 125.989 431.906 126.051M430.847 125.6L430.852 125.587L430.77 125.553L430.34 125.37L430.34 125.37L430.339 125.37C430.146 125.291 429.937 125.209 429.697 125.209L429.689 125.209L429.682 125.21C429.582 125.226 429.481 125.279 429.447 125.384L429.447 125.384L429.445 125.391C429.442 125.402 429.44 125.413 429.439 125.421C429.438 125.422 429.438 125.423 429.438 125.423C429.436 125.433 429.435 125.44 429.433 125.447L429.433 125.447L429.432 125.45C429.423 125.493 429.414 125.548 429.433 125.602C429.451 125.675 429.508 125.712 429.564 125.733C429.581 125.74 429.597 125.745 429.609 125.748C429.611 125.748 429.612 125.749 429.614 125.749C429.625 125.752 429.631 125.754 429.638 125.756L429.638 125.756L429.64 125.757C429.696 125.776 429.754 125.789 429.807 125.801C429.81 125.802 429.814 125.803 429.818 125.804C429.875 125.817 429.926 125.829 429.973 125.847L429.973 125.847L429.974 125.847C430.067 125.881 430.157 125.92 430.25 125.962C430.294 125.981 430.337 126 430.383 126.02C430.429 126.04 430.475 126.059 430.52 126.079L430.52 126.079C430.566 126.099 430.611 126.118 430.657 126.138L430.657 126.138L430.657 126.138C430.805 126.203 430.958 126.265 431.116 126.318C431.171 126.338 431.229 126.354 431.283 126.369C431.3 126.373 431.316 126.378 431.333 126.383C431.402 126.402 431.465 126.423 431.524 126.451L431.524 126.451L431.527 126.452C431.538 126.457 431.548 126.462 431.559 126.467C431.659 126.511 431.77 126.561 431.888 126.582L431.888 126.582L431.891 126.582C431.909 126.585 431.928 126.588 431.947 126.591C432.045 126.606 432.155 126.624 432.268 126.616L432.268 126.617L432.275 126.615C432.372 126.601 432.455 126.536 432.49 126.509L432.491 126.508L432.491 126.508L432.494 126.505C432.514 126.488 432.547 126.457 432.558 126.413C432.564 126.386 432.562 126.357 432.548 126.33C432.535 126.305 432.516 126.289 432.499 126.278L432.499 126.278L432.497 126.277C432.445 126.245 432.389 126.213 432.331 126.187L432.331 126.187L432.329 126.186C432.296 126.172 432.264 126.162 432.235 126.154C432.223 126.152 432.213 126.149 432.204 126.147C432.186 126.142 432.171 126.138 432.154 126.133L432.154 126.133L432.153 126.133C432.073 126.111 431.99 126.081 431.906 126.051M430.847 125.6L432.128 126.223M431.906 126.051C431.906 126.051 431.906 126.051 431.905 126.051L431.874 126.138M431.906 126.051C431.906 126.051 431.906 126.051 431.906 126.051L431.874 126.138M431.874 126.138L431.874 126.138C431.958 126.169 432.044 126.2 432.128 126.223M432.128 126.223C432.146 126.228 432.165 126.233 432.183 126.238C432.22 126.247 432.257 126.256 432.292 126.271C432.345 126.296 432.397 126.326 432.449 126.357L432.128 126.223Z" fill="#231F20" stroke="#231F20" stroke-width="0.186807"/>
<path d="M429.05 114.581C429.026 114.532 429.011 114.479 429.007 114.424C429.004 114.369 429.012 114.315 429.03 114.263C429.048 114.211 429.076 114.164 429.114 114.124C429.151 114.083 429.195 114.051 429.245 114.028C430.271 113.578 429.536 115.653 429.05 114.581Z" stroke="#231F20" stroke-width="0.382765" stroke-miterlimit="10"/>
<path d="M436.064 114.635C436.041 114.585 436.027 114.532 436.024 114.477C436.021 114.422 436.029 114.368 436.047 114.316C436.066 114.264 436.095 114.217 436.131 114.176C436.168 114.136 436.213 114.103 436.263 114.08C437.285 113.623 436.551 115.701 436.064 114.635Z" stroke="#231F20" stroke-width="0.382765" stroke-miterlimit="10"/>
<path d="M440.556 125.78C440.532 125.731 440.517 125.678 440.514 125.623C440.511 125.569 440.519 125.514 440.537 125.463C440.555 125.411 440.583 125.364 440.62 125.323C440.657 125.283 440.701 125.25 440.751 125.227C441.79 124.769 441.055 126.844 440.556 125.78Z" stroke="#231F20" stroke-width="0.382765" stroke-miterlimit="10"/>
<path d="M432.336 116.043C432.351 116.153 432.253 116.214 432.094 116.252C432.048 116.279 431.906 116.223 431.892 116.191C431.868 116.128 431.848 116.062 431.833 115.996C431.816 115.966 431.9 115.389 431.916 115.194C431.941 115.004 431.98 114.816 432.035 114.632C432.135 114.266 432.236 113.895 432.343 113.529C432.367 113.447 432.398 113.367 432.436 113.291C432.565 113.028 432.668 112.753 432.743 112.471C432.762 112.426 432.77 112.378 432.768 112.329C432.833 112.012 432.935 111.704 433.071 111.41C433.209 111.19 433.329 110.967 433.459 110.747C433.476 110.715 433.481 110.677 433.52 110.654C433.591 110.61 433.642 110.541 433.666 110.461C433.714 110.363 433.772 110.27 433.837 110.182C433.877 110.14 433.921 110.1 433.967 110.063C434.014 110.037 434.062 110.075 434.065 110.096C434.068 110.116 434.122 110.125 434.151 110.13C434.157 110.137 434.161 110.145 434.164 110.153C434.176 110.395 434.167 110.638 434.138 110.878C434.138 110.878 434.076 111.108 434.01 111.34C433.944 111.572 433.877 111.817 433.868 111.862C433.85 111.914 433.824 111.963 433.792 112.007C433.772 112.019 433.594 112.725 433.582 112.749C433.545 112.895 433.484 113.033 433.401 113.157C433.385 113.176 433.373 113.198 433.367 113.221C433.298 113.463 433.2 113.7 433.107 113.939C433.063 114.061 433.031 114.19 432.996 114.315L432.962 114.379C432.946 114.404 432.933 114.43 432.924 114.458C432.845 114.759 432.727 115.047 432.664 115.352C432.651 115.422 432.49 115.734 432.486 115.812C432.482 115.889 432.345 116.012 432.336 116.043Z" fill="#221F1F"/>
<path d="M439.043 123.578C439.011 123.631 438.951 123.595 438.852 123.515C438.813 123.474 438.784 123.424 438.769 123.369C438.781 123.327 438.796 123.286 438.813 123.247C438.833 123.235 439.078 123.024 439.159 122.956C439.241 122.896 439.33 122.845 439.424 122.804L439.97 122.54C440.012 122.523 440.057 122.512 440.102 122.509C440.254 122.49 440.402 122.446 440.539 122.378C440.565 122.371 440.589 122.357 440.608 122.338C440.752 122.247 440.909 122.181 441.074 122.142C441.217 122.142 441.359 122.134 441.501 122.118C441.501 122.118 441.535 122.099 441.562 122.123C441.589 122.147 441.654 122.145 441.695 122.139C441.754 122.127 441.815 122.127 441.874 122.138C441.91 122.146 441.944 122.159 441.976 122.177C442.007 122.185 442.012 122.24 442.014 122.243C442.016 122.247 442.037 122.283 442.048 122.303C442.054 122.31 442.059 122.318 442.062 122.326C442.024 122.383 441.983 122.438 441.939 122.489C441.894 122.545 441.843 122.596 441.788 122.642L441.316 122.912C441.291 122.925 441.262 122.929 441.235 122.923C441.235 122.923 440.902 123.113 440.868 123.107C440.792 123.128 440.732 123.185 440.634 123.153C440.627 123.153 440.62 123.156 440.613 123.159C440.607 123.163 440.602 123.168 440.597 123.173C440.474 123.221 440.347 123.257 440.218 123.281C440.152 123.3 440.087 123.324 440.024 123.351L439.985 123.352L439.948 123.373C439.795 123.42 439.645 123.477 439.498 123.542C439.465 123.561 439.281 123.579 439.25 123.601C439.218 123.623 439.054 123.559 439.043 123.578Z" fill="#221F1F"/>
<path d="M434.891 120.556C434.886 120.578 434.875 120.599 434.859 120.617C434.844 120.634 434.824 120.647 434.803 120.655C434.747 120.67 434.69 120.679 434.633 120.682C434.587 120.686 434.476 120.648 434.479 120.607C434.48 120.533 434.49 120.459 434.508 120.387C434.516 120.339 434.822 119.841 434.926 119.676C435.024 119.516 435.135 119.365 435.257 119.222C435.497 118.926 435.74 118.632 435.993 118.359C436.049 118.296 436.11 118.237 436.176 118.184C436.397 117.997 436.6 117.79 436.782 117.564C436.816 117.53 436.844 117.49 436.864 117.446C437.055 117.189 437.267 116.948 437.498 116.726C437.702 116.574 437.889 116.409 438.105 116.246C438.129 116.217 438.163 116.197 438.201 116.191C438.282 116.178 438.355 116.136 438.407 116.073C438.487 115.999 438.572 115.931 438.661 115.87C438.712 115.841 438.767 115.82 438.824 115.808C438.871 115.781 438.924 115.874 438.918 115.895C438.913 115.916 438.954 115.958 438.995 115.975C439.002 115.986 439.008 115.997 439.014 116.008C438.919 116.227 438.807 116.439 438.679 116.641L438.022 117.419C437.986 117.46 437.944 117.496 437.897 117.525C437.878 117.536 437.422 118.097 437.401 118.114C437.306 118.231 437.193 118.333 437.066 118.415C437.043 118.432 437.021 118.451 437.003 118.474C436.832 118.669 436.645 118.842 436.461 119.022C436.369 119.115 436.288 119.214 436.188 119.315C436.168 119.329 436.147 119.341 436.125 119.351L436.048 119.395C435.843 119.623 435.615 119.833 435.43 120.08C435.387 120.135 435.138 120.34 435.077 120.419C435.017 120.497 434.898 120.521 434.891 120.556Z" fill="#221F1F"/>
<rect x="367.935" y="89.6964" width="85.1322" height="3.28314" fill="white" stroke="#C7C7C7" stroke-width="0.75"/>
<rect x="0.5" y="0.5" width="584.5" height="208.193" rx="3.5" stroke="#E5E5E5"/>
</svg>
