<svg width="586" height="252" viewBox="0 0 586 252" fill="none" xmlns="http://www.w3.org/2000/svg">
<rect x="0.5" y="0.5" width="584.5" height="251" rx="3.5" fill="white"/>
<rect x="111.406" y="67.1777" width="101.787" height="101.787" fill="white" stroke="#E5E5E5" stroke-width="0.813253"/>
<rect x="115.332" y="79.7411" width="93.9354" height="85.0363" fill="white" stroke="#E5E5E5" stroke-width="0.813253"/>
<rect x="115.332" y="70.8419" width="93.9354" height="3.63627" fill="white" stroke="#E5E5E5" stroke-width="0.813253"/>
<path d="M145.52 116.998C145.52 108.51 151.06 102.144 159.371 102.144C163.733 102.144 167.152 103.971 168.861 107.095L169.274 103.087H175.934V130.731C175.934 140.457 170.099 146.528 160.668 146.528C152.298 146.528 146.581 141.754 145.696 133.973H152.887C153.359 137.746 156.247 139.986 160.668 139.986C165.619 139.986 168.802 136.862 168.802 132.028V127.195C166.975 129.906 163.379 131.616 159.194 131.616C150.942 131.616 145.52 125.427 145.52 116.998ZM152.77 116.821C152.77 121.713 155.894 125.368 160.609 125.368C165.56 125.368 168.625 121.89 168.625 116.821C168.625 111.87 165.619 108.451 160.609 108.451C155.835 108.451 152.77 112.047 152.77 116.821Z" fill="black"/>
<rect x="199.35" y="106.176" width="102.049" height="101.787" fill="white" stroke="#E5E5E5" stroke-width="0.813253"/>
<rect x="203.275" y="118.74" width="93.9354" height="85.0363" fill="#FFEAEB" stroke="#E5E5E5" stroke-width="0.813253"/>
<rect x="203.275" y="109.841" width="86.0833" height="3.63627" fill="white" stroke="#E5E5E5" stroke-width="0.813253"/>
<rect x="292.515" y="109.565" width="4.97299" height="4.18778" fill="white" stroke="#C7C7C7" stroke-width="0.261737"/>
<path d="M236.158 185.225V142.609H242.819L243.29 147.03C245.059 143.67 248.89 141.725 253.311 141.725C261.504 141.725 266.926 147.679 266.926 156.815C266.926 165.892 261.975 172.494 253.311 172.494C248.949 172.494 245.176 170.784 243.349 167.837V185.225H236.158ZM243.408 157.168C243.408 162.414 246.65 166.01 251.601 166.01C256.67 166.01 259.676 162.355 259.676 157.168C259.676 151.981 256.67 148.268 251.601 148.268C246.65 148.268 243.408 151.922 243.408 157.168Z" fill="black"/>
<rect x="282.058" y="44.4066" width="101.787" height="101.787" fill="white" stroke="#E5E5E5" stroke-width="0.813253"/>
<rect x="285.985" y="56.97" width="93.9354" height="85.0363" fill="white" stroke="#E5E5E5" stroke-width="0.813253"/>
<rect x="285.985" y="48.0709" width="93.9354" height="3.63627" fill="white" stroke="#E5E5E5" stroke-width="0.813253"/>
<path d="M339.441 85.551H346.632V114.669H339.972L339.441 110.779C337.673 113.549 333.901 115.435 330.01 115.435C323.291 115.435 319.342 110.897 319.342 103.764V85.551H326.533V101.23C326.533 106.771 328.714 109.01 332.722 109.01C337.26 109.01 339.441 106.358 339.441 100.817V85.551Z" fill="black"/>
<rect x="370.563" y="106.214" width="100.03" height="100.03" fill="white" stroke="#C7C7C7" stroke-width="0.813253"/>
<rect x="374.422" y="118.562" width="92.312" height="83.5654" fill="#EDEDED" stroke="#C7C7C7" stroke-width="0.813253"/>
<path d="M396.552 188.703L395.696 188.409L395.054 189.158L395.064 188.158L394.2 187.838C394.446 187.723 395.014 187.494 395.014 187.494C395.014 187.494 395.179 186.885 395.169 186.567L395.752 187.231C395.752 187.231 396.543 187.165 396.59 187.159C396.535 187.289 396.086 187.853 396.086 187.853C396.086 187.853 396.358 188.305 396.553 188.703H396.552Z" fill="#231F20"/>
<path d="M433.895 188.065L433.651 187.143L432.709 186.99L433.498 186.445L433.268 185.501C433.494 185.654 433.988 186.032 433.988 186.032C433.988 186.032 434.555 185.841 434.799 185.656L434.602 186.541C434.602 186.541 435.091 187.207 435.122 187.243C434.99 187.267 434.3 187.181 434.3 187.181C434.3 187.181 434.097 187.673 433.895 188.065Z" fill="#231F20"/>
<path d="M448.057 180.942L447.849 180.153L447.044 180.022L447.718 179.556L447.522 178.75C447.716 178.881 448.138 179.204 448.138 179.204C448.138 179.204 448.622 179.04 448.83 178.882L448.662 179.639C448.662 179.639 449.081 180.208 449.108 180.239C448.995 180.26 448.406 180.186 448.406 180.186C448.406 180.186 448.231 180.605 448.058 180.942H448.057Z" fill="#231F20"/>
<path d="M401.468 134.365L400.324 134.542L400.025 135.802L399.463 134.635L398.297 134.788C398.511 134.506 399.026 133.894 399.026 133.894C399.026 133.894 398.864 133.087 398.67 132.723L399.714 133.14C399.714 133.14 400.576 132.585 400.625 132.549C400.637 132.735 400.449 133.661 400.449 133.661C400.449 133.661 401.017 134.023 401.468 134.366V134.365Z" fill="#231F20"/>
<path d="M397.543 148.081H397.552L397.552 148.093C397.646 148.049 397.733 148.018 397.822 147.987L397.87 147.97C398.245 147.849 398.601 147.787 398.957 147.731C399.666 147.626 400.365 147.574 401.061 147.535C403.843 147.401 415.525 147.312 418.285 147.404C419.382 147.444 422.104 147.485 424.994 147.529C428.558 147.583 432.376 147.642 433.716 147.705C434.927 147.777 435.641 147.774 436.244 147.77C437.19 147.766 437.86 147.762 439.748 148.058C440.156 148.13 440.6 148.287 440.913 148.448C440.937 148.437 440.965 148.429 440.995 148.424C441.234 148.424 441.443 148.505 441.653 148.591L442.119 148.789L442.115 148.799L442.117 148.802C442.193 148.836 442.27 148.871 442.347 148.906C442.423 148.941 442.5 148.976 442.577 149.011C442.607 149.025 442.638 149.035 442.669 149.045C442.697 149.053 442.724 149.062 442.75 149.074C442.769 149.082 442.787 149.09 442.806 149.098C442.987 149.18 443.169 149.262 443.354 149.331C443.445 149.364 443.538 149.397 443.63 149.422C443.649 149.428 443.669 149.433 443.689 149.438C443.729 149.449 443.769 149.459 443.807 149.475C443.865 149.502 443.922 149.534 443.977 149.568C444.011 149.59 444.001 149.617 443.961 149.651C443.922 149.682 443.851 149.736 443.774 149.748C443.665 149.755 443.559 149.739 443.453 149.722C443.431 149.718 443.409 149.715 443.388 149.712C443.272 149.691 443.163 149.643 443.054 149.594C443.043 149.589 443.031 149.584 443.019 149.579C442.93 149.535 442.835 149.509 442.739 149.482C442.681 149.466 442.623 149.45 442.566 149.43C442.399 149.374 442.236 149.307 442.076 149.238C442.027 149.216 441.977 149.195 441.928 149.173C441.878 149.152 441.829 149.131 441.779 149.109C441.733 149.089 441.687 149.069 441.64 149.048C441.538 149.003 441.435 148.957 441.331 148.92C441.304 148.909 441.277 148.901 441.249 148.893C441.203 148.913 441.135 148.927 441.043 148.934L440.871 148.947C440.685 148.962 440.584 148.971 440.484 148.973C440.364 148.977 440.245 148.973 439.985 148.964C439.759 148.957 439.428 148.946 438.899 148.934L434.13 148.767C433.337 148.731 430.518 148.696 427.7 148.661C424.882 148.626 422.065 148.591 421.27 148.555C418.092 148.427 405.986 148.463 402.798 148.473C401.848 148.479 400.884 148.512 399.937 148.604C399.464 148.649 398.99 148.712 398.549 148.813C398.33 148.862 398.115 148.927 397.961 149.002L397.955 149.006C397.882 149.045 397.869 149.052 397.84 149.087C397.834 149.098 397.829 149.11 397.822 149.123C397.816 149.138 397.808 149.154 397.798 149.172C397.778 149.205 397.759 149.238 397.742 149.293C397.595 149.669 397.514 150.16 397.439 150.624C397.37 151.098 397.318 151.581 397.275 152.065C397.191 153.036 397.138 154.017 397.099 154.991C396.939 159.289 396.988 163.614 397.138 167.925C397.191 169.252 397.246 170.579 397.351 171.893C397.377 172.22 397.409 172.55 397.452 172.864C397.487 173.139 397.531 173.16 397.812 173.295L397.84 173.309C398.389 173.534 399.052 173.645 399.689 173.74C401.655 174.005 403.677 174.083 414.601 173.982C416.61 174.034 418.618 174.041 420.614 174.028C422.255 174.016 422.748 173.98 423.301 173.939C423.795 173.904 424.337 173.864 425.785 173.835C426.011 173.83 427.201 173.826 428.391 173.822C430.266 173.815 432.14 173.808 430.246 173.801C434.01 173.826 439.966 173.921 440.386 174.129C440.457 174.164 440.473 174.198 440.489 174.232C440.499 174.256 440.51 174.279 440.54 174.302C440.775 174.482 439.949 174.632 438.103 174.675C433.313 174.804 424.723 174.962 418.745 174.967C418.743 174.999 418.738 175.031 418.732 175.063L418.728 175.085C418.714 175.141 418.725 175.197 418.735 175.254C418.741 175.288 418.748 175.322 418.748 175.357C418.753 175.457 418.743 175.557 418.728 175.656C418.723 175.687 418.719 175.717 418.715 175.748L418.707 175.8L418.701 175.84C418.697 175.869 418.692 175.897 418.687 175.926C418.677 175.99 418.666 176.054 418.666 176.117C418.665 176.154 418.676 176.192 418.687 176.23C418.697 176.264 418.707 176.297 418.709 176.331C418.709 176.338 418.71 176.345 418.711 176.351C418.713 176.36 418.715 176.369 418.714 176.377C418.714 176.406 418.696 176.425 418.654 176.436C418.619 176.448 418.571 176.453 418.506 176.457C418.49 176.458 418.475 176.459 418.46 176.46C418.447 176.461 418.434 176.462 418.421 176.462C418.331 176.463 418.246 176.437 418.186 176.392C418.076 176.264 418.084 176.137 418.096 176.008L418.134 175.72H418.149L418.151 175.719C418.16 175.671 418.169 175.623 418.179 175.575C418.188 175.527 418.197 175.479 418.206 175.432C418.21 175.413 418.208 175.394 418.207 175.376C418.205 175.359 418.204 175.343 418.206 175.327L418.212 175.292C418.232 175.184 418.252 175.075 418.256 174.967C417.582 174.967 416.945 174.964 416.355 174.959C415.716 174.952 414.3 174.956 412.565 174.961C410.238 174.968 407.336 174.977 404.965 174.96L404.961 174.994C404.934 175.198 404.907 175.403 404.924 175.609C404.941 175.852 404.976 176.101 405.111 176.326C405.129 176.361 405.151 176.394 405.181 176.424C405.206 176.456 405.239 176.486 405.274 176.513L405.282 176.52C405.296 176.532 405.313 176.546 405.321 176.546C405.329 176.551 405.349 176.559 405.376 176.566C405.423 176.582 405.486 176.597 405.553 176.609C405.821 176.659 406.126 176.69 406.423 176.72C407.083 176.783 407.755 176.832 408.427 176.872C408.842 176.896 409.26 176.917 409.675 176.933L409.893 176.942L410.167 176.945C410.782 176.95 411.396 176.95 412.011 176.941C412.943 176.929 413.881 176.909 414.8 176.861C415.347 176.833 415.879 176.787 416.41 176.742C416.576 176.727 416.741 176.713 416.907 176.699C417.06 176.684 417.21 176.671 417.364 176.657C417.939 176.616 418.124 176.618 418.279 176.679C418.291 176.684 418.304 176.688 418.316 176.693C418.342 176.702 418.367 176.711 418.384 176.721C418.467 176.768 418.252 176.848 417.832 176.917C416.582 177.118 415.223 177.189 413.866 177.235C412.856 177.269 411.839 177.282 410.822 177.282V177.277C409.815 177.27 408.809 177.248 407.805 177.194L407.642 177.186C407.329 177.17 407.014 177.154 406.701 177.128C406.376 177.098 406.053 177.065 405.731 177.019C405.409 176.97 405.086 176.916 404.774 176.81C404.761 176.804 404.748 176.8 404.734 176.796C404.708 176.787 404.681 176.779 404.651 176.762L404.636 176.754C404.597 176.732 404.556 176.709 404.534 176.687L404.466 176.614C404.451 176.592 404.439 176.569 404.426 176.547C404.379 176.458 404.356 176.374 404.339 176.29C404.309 176.124 404.306 175.96 404.314 175.795C404.333 175.515 404.367 175.233 404.456 174.957C402.835 174.942 401.521 174.915 400.907 174.865C400.358 174.815 399.251 174.675 399.251 174.675C398.693 174.583 398.138 174.492 397.533 174.266C397.504 174.253 397.476 174.241 397.448 174.23C397.4 174.21 397.352 174.19 397.298 174.162L397.269 174.147C397.197 174.112 397.134 174.08 397.034 174.011C396.821 173.854 396.616 173.671 396.55 173.41C396.521 173.349 396.503 173.278 396.49 173.215C396.432 173.242 396.372 173.258 396.312 173.274C396.296 173.278 396.28 173.282 396.265 173.286C396.181 173.306 396.094 173.297 396.008 173.289L395.98 173.286C395.909 173.276 395.837 173.283 395.765 173.291C395.721 173.296 395.677 173.3 395.634 173.301C395.506 173.305 395.378 173.297 395.252 173.286C395.213 173.282 395.173 173.279 395.134 173.276C395.095 173.273 395.056 173.27 395.017 173.266C394.98 173.263 394.944 173.26 394.907 173.256C394.826 173.248 394.744 173.24 394.664 173.24C394.616 173.239 394.567 173.248 394.519 173.256C394.476 173.263 394.433 173.271 394.391 173.271C394.381 173.271 394.373 173.273 394.364 173.274C394.353 173.275 394.342 173.276 394.331 173.275C394.295 173.275 394.271 173.262 394.256 173.231C394.24 173.205 394.234 173.171 394.229 173.123C394.228 173.111 394.227 173.1 394.226 173.089C394.225 173.079 394.223 173.07 394.223 173.06C394.221 172.994 394.255 172.932 394.312 172.888C394.475 172.807 394.638 172.813 394.803 172.822L395.17 172.849V172.86L395.172 172.862C395.233 172.869 395.294 172.876 395.355 172.882C395.416 172.889 395.477 172.896 395.538 172.903C395.562 172.906 395.585 172.904 395.609 172.903C395.63 172.902 395.651 172.901 395.672 172.903L395.716 172.907C395.86 172.922 396.005 172.938 396.148 172.939C396.218 172.939 396.29 172.939 396.359 172.932C396.374 172.931 396.389 172.929 396.404 172.927C396.416 172.925 396.429 172.923 396.441 172.922L396.439 172.902L396.433 172.854C396.413 172.71 396.397 172.567 396.384 172.429C396.328 171.874 396.289 171.331 396.253 170.785L396.279 170.779L396.286 170.782C396.145 168.241 396.062 165.705 396.026 163.169C395.79 163.152 395.553 163.136 395.315 163.148C395.005 163.16 394.687 163.186 394.399 163.285C394.355 163.298 394.313 163.315 394.275 163.337C394.233 163.355 394.195 163.379 394.161 163.405L394.152 163.411C394.137 163.421 394.118 163.433 394.118 163.439C394.112 163.445 394.102 163.46 394.093 163.48C394.073 163.515 394.054 163.561 394.038 163.61C393.974 163.806 393.934 164.03 393.896 164.249C393.816 164.733 393.754 165.227 393.703 165.721C393.672 166.025 393.645 166.332 393.625 166.636C393.62 166.706 393.615 166.775 393.611 166.844L393.608 166.998C393.601 167.449 393.601 167.901 393.613 168.352C393.628 169.037 393.654 169.725 393.715 170.4C393.75 170.802 393.809 171.192 393.867 171.582C393.885 171.704 393.903 171.826 393.921 171.947C393.94 172.059 393.958 172.169 393.975 172.283C394.028 172.705 394.025 172.841 393.946 172.955C393.941 172.964 393.935 172.973 393.929 172.982C393.918 173.001 393.906 173.02 393.894 173.032C393.833 173.093 393.731 172.935 393.643 172.626C393.387 171.709 393.296 170.71 393.237 169.714C393.194 168.973 393.178 168.226 393.178 167.479H393.184C393.192 166.74 393.221 166.001 393.29 165.264L393.3 165.144C393.32 164.914 393.34 164.682 393.374 164.452C393.413 164.214 393.454 163.977 393.513 163.74C393.576 163.504 393.644 163.267 393.78 163.037C393.787 163.028 393.792 163.018 393.798 163.008C393.809 162.989 393.82 162.969 393.841 162.948L393.852 162.936C393.879 162.908 393.909 162.878 393.937 162.861L394.03 162.812C394.058 162.801 394.087 162.792 394.116 162.782C394.229 162.748 394.336 162.731 394.443 162.718C394.656 162.696 394.865 162.694 395.074 162.7C395.391 162.712 395.709 162.733 396.021 162.783C396.013 162.032 396.008 161.28 396.007 160.529C395.924 160.543 395.837 160.537 395.751 160.531L395.723 160.529C395.651 160.522 395.58 160.527 395.508 160.532C395.464 160.536 395.42 160.539 395.376 160.539C395.249 160.542 395.121 160.537 394.995 160.529C394.955 160.526 394.916 160.524 394.877 160.522C394.838 160.519 394.799 160.517 394.76 160.515C394.723 160.512 394.687 160.51 394.65 160.507C394.568 160.502 394.487 160.496 394.407 160.496C394.358 160.495 394.31 160.501 394.262 160.507C394.219 160.513 394.176 160.518 394.133 160.518C394.124 160.518 394.116 160.519 394.107 160.52C394.096 160.521 394.085 160.522 394.074 160.521C394.038 160.521 394.014 160.512 393.999 160.49C393.983 160.471 393.977 160.446 393.972 160.412C393.971 160.404 393.97 160.396 393.969 160.388C393.968 160.381 393.966 160.375 393.966 160.368C393.964 160.321 393.998 160.276 394.055 160.245C394.218 160.187 394.381 160.191 394.546 160.198L394.913 160.217V160.225L394.915 160.226C394.975 160.231 395.036 160.236 395.098 160.241C395.159 160.246 395.22 160.251 395.281 160.255C395.304 160.257 395.328 160.256 395.352 160.256C395.373 160.255 395.394 160.254 395.415 160.255L395.459 160.259C395.603 160.269 395.747 160.28 395.891 160.281C395.929 160.281 395.968 160.281 396.007 160.281C396.007 159.476 396.012 158.672 396.021 157.867C396.025 157.62 396.029 157.372 396.033 157.125L396.033 157.123C396.051 155.865 396.07 154.605 396.152 153.345L396.011 153.326L396 153.325L395.993 153.325C395.942 153.322 395.892 153.319 395.841 153.317C395.581 153.303 395.319 153.288 395.057 153.297C394.747 153.306 394.429 153.325 394.141 153.395C394.097 153.405 394.055 153.416 394.017 153.432C393.975 153.445 393.937 153.462 393.903 153.481L393.894 153.485C393.878 153.492 393.86 153.501 393.86 153.505C393.854 153.509 393.844 153.52 393.834 153.534C393.815 153.559 393.796 153.592 393.78 153.627C393.716 153.767 393.676 153.927 393.638 154.083C393.558 154.428 393.496 154.781 393.445 155.133C393.414 155.35 393.387 155.569 393.366 155.786C393.362 155.83 393.358 155.873 393.354 155.917L393.351 156.043C393.344 156.365 393.344 156.687 393.355 157.009C393.371 157.498 393.397 157.988 393.458 158.47C393.493 158.757 393.552 159.035 393.61 159.313C393.628 159.4 393.646 159.487 393.664 159.574C393.683 159.654 393.701 159.732 393.718 159.814C393.771 160.115 393.768 160.212 393.689 160.293C393.684 160.299 393.678 160.306 393.672 160.312C393.661 160.326 393.649 160.339 393.637 160.348C393.576 160.391 393.474 160.278 393.386 160.058C393.13 159.404 393.039 158.692 392.98 157.981C392.937 157.452 392.921 156.919 392.921 156.386H392.927C392.935 155.859 392.964 155.332 393.033 154.806L393.043 154.72C393.063 154.556 393.083 154.391 393.117 154.227C393.156 154.057 393.197 153.888 393.256 153.719C393.319 153.55 393.387 153.381 393.523 153.218C393.53 153.211 393.535 153.204 393.541 153.197C393.552 153.183 393.563 153.169 393.584 153.153L393.595 153.146C393.622 153.125 393.652 153.103 393.68 153.092L393.772 153.057C393.801 153.049 393.83 153.042 393.859 153.036C393.972 153.011 394.079 152.999 394.186 152.99C394.399 152.974 394.608 152.973 394.817 152.977C395.186 152.987 395.557 153.005 395.92 153.055C395.996 153.066 396.073 153.076 396.15 153.089L396.169 153.092C396.214 152.414 396.275 151.736 396.358 151.055L396.382 150.882C396.474 150.237 396.564 149.601 396.821 148.904C396.835 148.859 396.857 148.81 396.89 148.754L396.957 148.633C396.969 148.335 396.968 148.036 396.96 147.738C396.959 147.697 396.957 147.657 396.956 147.617C396.95 147.572 396.944 147.526 396.938 147.481C396.909 147.264 396.872 147.045 396.83 146.828C396.76 146.475 396.674 146.123 396.564 145.778C396.511 145.622 396.457 145.462 396.369 145.322C396.347 145.287 396.32 145.254 396.294 145.229C396.281 145.215 396.267 145.204 396.259 145.2C396.259 145.196 396.233 145.187 396.212 145.18L396.199 145.175C396.153 145.157 396.1 145.14 396.043 145.127C395.99 145.111 395.933 145.099 395.872 145.09C395.476 145.02 395.038 145.001 394.612 144.992C394.251 144.983 393.89 144.997 393.532 145.011C393.462 145.014 393.393 145.017 393.323 145.02L393.313 145.02L393.299 145.021L393.095 145.041C393.07 145.042 393.047 145.045 393.024 145.048L392.994 145.052L392.969 145.055V145.054C392.898 145.058 392.834 145.065 392.78 145.071C392.668 145.083 392.594 145.091 392.571 145.068L392.571 145.059C392.571 145.021 392.571 144.966 392.591 144.925C392.609 144.877 392.677 144.848 392.752 144.835L392.87 144.815L392.95 144.804L393.108 144.784C393.213 144.771 393.319 144.76 393.424 144.75C393.924 144.7 394.434 144.682 394.942 144.671C395.23 144.667 395.518 144.669 395.81 144.684C395.957 144.694 396.105 144.705 396.261 144.73C396.3 144.737 396.34 144.743 396.38 144.751L396.507 144.787C396.546 144.798 396.587 144.82 396.624 144.84L396.639 144.848C396.668 144.864 396.684 144.878 396.698 144.892C396.706 144.899 396.714 144.906 396.723 144.912C396.91 145.076 397.004 145.245 397.09 145.414C397.171 145.583 397.228 145.752 397.281 145.922C397.328 146.086 397.356 146.251 397.383 146.415L397.398 146.5C397.492 147.026 397.532 147.553 397.543 148.081Z" fill="#231F20"/>
<path d="M427.807 173.796C428.945 173.797 429.733 173.799 430.246 173.801C429.216 173.794 428.351 173.793 427.807 173.796Z" fill="#231F20"/>
<path d="M445.184 161.355C445.194 161.109 445.193 160.861 445.192 160.613C445.191 160.415 445.19 160.216 445.194 160.019C445.213 159.327 445.239 158.635 445.264 157.943C445.297 157.063 445.329 156.182 445.348 155.302C445.35 155.093 445.353 154.885 445.355 154.675V154.671C445.362 154.183 445.369 153.694 445.364 153.21C445.364 153.011 445.362 152.813 445.359 152.614V152.608C445.351 151.918 445.343 151.228 445.429 150.539C445.469 150.261 445.498 150.294 445.606 150.523C445.72 150.752 445.919 151.18 445.988 151.693C446.073 152.602 446.145 153.514 446.19 154.426C446.217 155.338 446.19 156.253 446.148 157.172C446.118 157.841 446.119 158.527 446.119 159.214C446.119 159.655 446.12 160.096 446.112 160.535C446.076 162.256 446.006 163.369 445.932 164.54C445.871 165.508 445.808 166.516 445.759 167.94C445.746 168.384 445.736 168.825 445.733 169.264C445.727 169.702 445.704 170.143 445.678 170.584C445.675 170.632 445.673 170.681 445.671 170.729C445.664 170.873 445.657 171.018 445.645 171.163C445.557 171.888 445.456 172.111 445.247 172.241L445.232 172.251L445.223 172.256L445.206 172.268L445.196 172.275C445.165 172.296 445.134 172.318 445.106 172.326C444.956 172.375 444.858 172.068 444.835 171.542C444.812 170.761 444.799 169.96 444.786 169.146C444.802 168.715 444.816 168.28 444.831 167.844C444.844 167.459 444.857 167.073 444.871 166.688C444.915 165.5 444.972 164.797 445.028 164.113C445.088 163.37 445.146 162.65 445.184 161.355Z" fill="#231F20"/>
<path fill-rule="evenodd" clip-rule="evenodd" d="M431.615 163.193C431.265 163.038 430.967 162.789 430.743 162.508C430.519 162.224 430.346 161.906 430.253 161.554C430.186 161.305 430.139 161.012 430.184 160.758C430.238 160.302 430.425 159.863 430.718 159.518C430.797 159.424 430.884 159.337 430.977 159.258C430.841 159.012 430.704 158.767 430.559 158.533C430.47 158.389 430.373 158.251 430.275 158.113C430.187 157.988 430.098 157.862 430.017 157.733C430.002 157.708 429.986 157.684 429.97 157.66C429.947 157.625 429.923 157.589 429.901 157.549C429.845 157.467 429.815 157.369 429.818 157.269C429.821 157.201 429.848 157.137 429.894 157.089C429.91 157.065 429.929 157.044 429.95 157.024C430.015 156.969 430.134 157.025 430.296 157.144C430.699 157.576 431.078 158.031 431.429 158.507C431.515 158.622 431.599 158.738 431.683 158.855C431.732 158.838 431.781 158.823 431.831 158.811C432.211 158.712 432.612 158.712 432.986 158.801C433.024 158.813 433.062 158.823 433.1 158.833C433.181 158.855 433.263 158.877 433.336 158.914C433.371 158.931 433.406 158.948 433.442 158.965C433.517 159 433.593 159.036 433.664 159.079C433.687 159.095 433.71 159.111 433.733 159.127C433.81 159.179 433.886 159.231 433.954 159.294L433.972 159.314C434.045 159.398 434.118 159.482 434.164 159.592C434.17 159.626 434.176 159.651 434.181 159.669C434.188 159.697 434.191 159.71 434.186 159.714C434.182 159.718 434.173 159.716 434.156 159.713C434.137 159.71 434.107 159.704 434.065 159.703C433.986 159.703 433.878 159.703 433.772 159.683C433.745 159.677 433.716 159.673 433.686 159.669C433.658 159.666 433.63 159.662 433.602 159.656C433.548 159.641 433.496 159.619 433.447 159.592C433.085 159.41 432.713 159.296 432.341 159.308C432.238 159.311 432.136 159.324 432.036 159.348C432.096 159.431 432.156 159.514 432.217 159.597L432.167 159.594L432.25 159.721C432.402 159.951 432.556 160.185 432.702 160.42C432.849 160.457 432.995 160.555 433.082 160.714C433.1 160.744 433.114 160.778 433.124 160.81L433.144 160.899C433.159 160.956 433.159 161.022 433.154 161.089L433.153 161.092L433.169 161.114L433.777 162.116C433.794 162.093 433.811 162.07 433.826 162.047C433.944 161.884 434.008 161.692 434.053 161.5C434.1 161.303 434.112 161.108 434.095 160.925C434.088 160.867 434.074 160.812 434.061 160.758C434.055 160.737 434.05 160.715 434.045 160.694C434.034 160.64 434.023 160.593 434.013 160.551C433.996 160.482 433.982 160.426 433.979 160.376C433.969 160.297 433.991 160.228 434.021 160.159C434.026 160.146 434.03 160.133 434.034 160.121C434.04 160.102 434.045 160.084 434.053 160.07C434.072 160.031 434.117 160.031 434.205 160.055C434.294 160.08 434.395 160.156 434.489 160.289C434.973 161.034 434.769 162.047 434.138 162.704C434.231 162.84 434.332 162.967 434.438 163.1L434.513 163.195C435.867 165.211 436.14 165.605 436.248 165.761C436.267 165.788 436.281 165.808 436.295 165.829C436.385 165.975 436.452 166.135 436.495 166.302C436.521 166.415 436.391 166.471 436.211 166.491C436.01 166.529 435.802 166.496 435.623 166.397C435.248 166.042 434.018 164.27 433.355 163.229C432.801 163.448 432.161 163.446 431.612 163.208L431.617 163.193H431.615ZM430.915 160.309C430.984 160.102 431.103 159.914 431.256 159.769L431.583 160.367C431.686 160.564 431.8 160.768 431.916 160.967C431.9 161.032 431.894 161.099 431.898 161.168C431.903 161.303 431.979 161.463 432.109 161.564C432.177 161.618 432.259 161.644 432.334 161.657C432.411 161.773 432.493 161.884 432.575 161.994C432.716 162.183 432.854 162.371 432.962 162.574C432.973 162.596 432.986 162.62 433 162.647C432.838 162.697 432.669 162.722 432.501 162.72C432.161 162.725 431.831 162.604 431.568 162.404C431.137 162.081 430.839 161.532 430.807 161.027C430.802 160.955 430.809 160.875 430.815 160.795C430.819 160.751 430.822 160.707 430.824 160.664C430.834 160.626 430.841 160.587 430.848 160.549C430.864 160.467 430.88 160.385 430.915 160.309Z" fill="#231F20"/>
<path fill-rule="evenodd" clip-rule="evenodd" d="M409.378 162.572C409.36 162.551 409.343 162.53 409.325 162.508C409.101 162.224 408.929 161.906 408.835 161.554C408.769 161.305 408.722 161.012 408.766 160.758C408.82 160.302 409.008 159.863 409.301 159.518C409.591 159.173 409.985 158.921 410.414 158.811C410.793 158.712 411.195 158.712 411.569 158.801C411.606 158.813 411.644 158.823 411.683 158.833C411.764 158.855 411.845 158.877 411.919 158.914C411.953 158.931 411.988 158.948 412.023 158.964C412.114 158.845 412.202 158.725 412.287 158.604C412.385 158.465 412.473 158.322 412.562 158.178C412.642 158.047 412.723 157.917 412.81 157.791C412.827 157.767 412.842 157.743 412.858 157.72C412.881 157.684 412.905 157.648 412.933 157.612C412.986 157.528 413.065 157.462 413.158 157.425C413.221 157.402 413.291 157.402 413.354 157.425C413.381 157.431 413.409 157.439 413.434 157.451C413.511 157.489 413.507 157.621 413.46 157.817C413.221 158.358 412.952 158.885 412.652 159.395L412.64 159.416C412.681 159.469 412.719 159.526 412.746 159.592C412.753 159.626 412.759 159.651 412.764 159.669C412.77 159.697 412.774 159.71 412.769 159.714C412.765 159.718 412.755 159.716 412.738 159.713C412.719 159.71 412.69 159.704 412.648 159.703C412.598 159.703 412.537 159.703 412.473 159.698C412.403 159.815 412.332 159.931 412.261 160.048C412.16 160.214 412.059 160.38 411.96 160.547L411.943 160.501L411.859 160.627C411.811 160.699 411.763 160.773 411.714 160.845L411.726 160.899C411.741 160.956 411.741 161.022 411.736 161.089C411.724 161.222 411.662 161.357 411.579 161.453L411.571 161.446V161.453C411.448 161.583 411.3 161.649 411.145 161.666C411.11 161.721 411.078 161.78 411.044 161.839C411.011 161.898 410.978 161.959 410.94 162.019L410.516 162.612C410.694 162.684 410.887 162.723 411.084 162.72C411.594 162.727 412.121 162.478 412.409 162.047C412.527 161.884 412.591 161.692 412.635 161.5C412.682 161.303 412.694 161.108 412.677 160.925C412.67 160.867 412.657 160.812 412.643 160.758C412.638 160.737 412.633 160.715 412.628 160.694C412.617 160.64 412.605 160.593 412.595 160.551C412.578 160.482 412.564 160.426 412.561 160.376C412.552 160.297 412.574 160.228 412.603 160.159C412.608 160.146 412.612 160.133 412.616 160.121C412.622 160.102 412.628 160.084 412.635 160.07C412.655 160.031 412.699 160.031 412.788 160.055C412.877 160.08 412.978 160.156 413.071 160.289C413.628 161.145 413.276 162.355 412.411 162.971C411.778 163.427 410.909 163.519 410.195 163.208L410.2 163.193H410.197C410.172 163.182 410.148 163.171 410.124 163.159L409.941 163.414C409.815 163.591 409.717 163.773 409.612 163.967C409.593 164.002 409.574 164.038 409.554 164.074C409.481 164.219 409.4 164.361 409.312 164.499C409.212 164.64 409.092 164.764 408.955 164.869C408.861 164.937 408.759 164.839 408.67 164.682C408.557 164.512 408.505 164.307 408.526 164.103C408.73 163.552 409.018 163.036 409.378 162.572ZM409.775 162.025C409.553 161.727 409.411 161.367 409.389 161.027C409.385 160.955 409.391 160.875 409.398 160.795C409.401 160.751 409.405 160.707 409.407 160.664C409.416 160.626 409.423 160.587 409.431 160.549C409.447 160.467 409.463 160.385 409.498 160.309C409.574 160.078 409.714 159.87 409.894 159.72C410.192 159.471 410.552 159.316 410.924 159.308C411.17 159.3 411.416 159.347 411.659 159.433C411.613 159.491 411.567 159.549 411.522 159.607L411.003 160.267C410.925 160.362 410.846 160.462 410.768 160.563C410.679 160.616 410.618 160.706 410.564 160.795C410.547 160.826 410.533 160.858 410.521 160.891C410.402 161.052 410.288 161.211 410.183 161.36C410.079 161.508 409.988 161.664 409.897 161.818C409.857 161.888 409.817 161.957 409.775 162.025Z" fill="#231F20"/>
<path d="M411.64 170.002C411.735 169.996 411.83 169.989 411.925 169.981C412.436 169.931 412.946 169.86 413.446 169.744C413.949 169.64 414.453 169.469 414.93 169.266C415.888 168.853 416.752 168.238 417.474 167.497C418.196 166.755 418.793 165.892 419.208 164.944L419.247 164.844C419.341 164.608 419.431 164.382 419.48 164.153L419.513 164.014C419.533 163.934 419.552 163.855 419.57 163.779C419.585 163.691 419.596 163.603 419.606 163.519C419.61 163.487 419.614 163.455 419.619 163.423C419.65 163.195 419.665 162.988 419.644 162.801C419.643 162.77 419.642 162.739 419.64 162.71C419.634 162.563 419.629 162.436 419.596 162.325C419.567 162.177 419.554 162.066 419.545 161.995C419.539 161.942 419.535 161.912 419.53 161.908C419.519 161.899 419.485 162.032 419.413 162.325C419.141 164.205 418.244 165.986 416.86 167.288C415.781 168.295 414.416 169.01 412.941 169.255C412.114 169.403 411.272 169.464 410.434 169.423C409.597 169.369 408.768 169.219 407.976 168.962C406.383 168.462 404.979 167.442 404.024 166.103C403.482 165.344 403.092 164.473 402.855 163.564C402.213 161.066 402.81 158.297 404.396 156.277L404.392 156.273L404.405 156.279C404.803 155.771 405.24 155.292 405.745 154.888C405.93 154.721 406.133 154.58 406.337 154.438C406.398 154.396 406.46 154.353 406.52 154.31C406.601 154.248 406.69 154.198 406.78 154.149C406.831 154.12 406.883 154.091 406.933 154.06C406.984 154.033 407.034 154.003 407.084 153.973C407.173 153.92 407.261 153.868 407.357 153.829L407.793 153.625C407.886 153.578 407.983 153.544 408.081 153.51C408.135 153.491 408.189 153.472 408.243 153.451C408.469 153.358 408.704 153.295 408.939 153.232C409.014 153.212 409.088 153.192 409.163 153.171C409.261 153.145 409.361 153.128 409.46 153.112C409.518 153.102 409.577 153.092 409.634 153.08C409.792 153.051 409.951 153.021 410.11 153.012L410.587 152.967L411.066 152.964C412.789 152.979 414.477 153.595 415.814 154.638C417.141 155.704 418.264 157.067 418.73 158.632C418.745 158.688 418.761 158.742 418.777 158.795C418.799 158.867 418.82 158.938 418.836 159.006C418.849 159.061 418.862 159.114 418.875 159.165C418.889 159.225 418.903 159.283 418.917 159.338C418.943 159.474 418.972 159.596 418.997 159.703C419.01 159.758 419.022 159.81 419.032 159.856C419.095 160.13 419.156 160.255 419.215 160.179C419.24 160.148 419.263 160.089 419.287 160.029C419.298 160.003 419.308 159.977 419.319 159.953C419.4 159.777 419.441 159.556 419.415 159.177C419.406 159.082 419.393 158.979 419.378 158.862C419.362 158.758 419.336 158.647 419.309 158.525L419.298 158.48C419.276 158.382 419.243 158.278 419.209 158.168C419.194 158.123 419.18 158.076 419.165 158.029C419.147 157.982 419.129 157.934 419.11 157.885C419.065 157.764 419.017 157.636 418.954 157.505C418.777 157.099 418.553 156.73 418.307 156.373C418.027 155.966 417.713 155.588 417.376 155.234C417.209 155.058 417.034 154.888 416.856 154.723C416.746 154.618 416.626 154.521 416.507 154.423C416.437 154.366 416.366 154.308 416.297 154.249C415.531 153.643 414.662 153.162 413.727 152.841C412.528 152.412 411.222 152.299 409.953 152.445C408.68 152.599 407.451 153.062 406.363 153.73C406.299 153.771 406.236 153.812 406.173 153.854C404.732 154.665 403.139 156.1 402.186 158.691C400.916 162.145 401.845 167.247 407.05 169.206C407.635 169.459 408.242 169.652 408.854 169.784C409.734 169.982 410.641 170.052 411.539 170.007C411.698 170.011 411.859 170.013 412.022 170.013L412.02 170.011L411.64 170.002Z" fill="#231F20"/>
<path d="M407.059 155.529C406.465 155.939 405.923 156.435 405.49 157.022L405.44 157.093C405.38 157.178 405.321 157.263 405.266 157.352C405.199 157.466 405.132 157.581 405.062 157.694C404.831 158.102 404.64 158.531 404.487 158.978C404.346 159.428 404.235 159.889 404.174 160.361C404.151 160.534 404.141 160.709 404.131 160.883L404.124 160.992C404.125 161.045 404.125 161.098 404.125 161.151C404.126 161.31 404.126 161.469 404.133 161.626C404.15 161.896 404.168 162.165 404.205 162.433C404.214 162.495 404.22 162.559 404.226 162.622C404.232 162.694 404.239 162.766 404.25 162.837L404.256 162.888C404.272 163.006 404.287 163.123 404.263 163.25C404.231 163.342 404.215 163.385 404.205 163.383C404.201 163.383 404.195 163.376 404.185 163.363C404.172 163.346 404.151 163.318 404.113 163.283C403.983 163.161 403.811 162.915 403.76 162.592C403.547 161.461 403.591 160.257 403.948 159.139C404.161 158.472 404.422 157.787 404.805 157.179C405.219 156.509 405.765 155.929 406.374 155.442C406.753 155.146 407.16 154.889 407.586 154.67C408.234 154.342 408.927 154.107 409.632 153.968C410.18 153.859 410.73 153.785 411.29 153.792C411.337 153.794 411.383 153.795 411.428 153.795C411.505 153.796 411.581 153.797 411.658 153.805C412.119 153.853 412.258 153.933 412.319 154.09L412.325 154.104L412.332 154.12C412.344 154.146 412.356 154.171 412.36 154.194C412.376 154.303 412.178 154.359 411.869 154.331C410.944 154.264 409.967 154.344 409.029 154.618C408.332 154.813 407.664 155.131 407.062 155.542L407.055 155.533L407.059 155.529Z" fill="#231F20"/>
<path d="M433.416 169.981C433.321 169.989 433.226 169.996 433.13 170.002L433.512 170.012L433.514 170.014C433.35 170.014 433.189 170.012 433.03 170.008C432.132 170.053 431.225 169.983 430.344 169.785C429.73 169.652 429.121 169.458 428.534 169.204C423.336 167.243 422.409 162.144 423.678 158.691C424.629 156.105 426.219 154.67 427.658 153.859C427.723 153.815 427.788 153.773 427.854 153.731C428.942 153.062 430.17 152.6 431.443 152.446C432.713 152.3 434.019 152.412 435.218 152.842C436.152 153.162 437.022 153.644 437.788 154.25C437.857 154.309 437.927 154.366 437.998 154.424C438.117 154.522 438.236 154.619 438.347 154.724C438.524 154.888 438.7 155.059 438.867 155.235C439.203 155.588 439.518 155.966 439.797 156.374C440.043 156.731 440.267 157.1 440.445 157.505C440.508 157.636 440.556 157.765 440.601 157.885C440.62 157.935 440.638 157.983 440.656 158.029C440.67 158.077 440.685 158.123 440.699 158.168C440.734 158.279 440.767 158.382 440.789 158.481L440.799 158.526C440.827 158.647 440.852 158.759 440.869 158.863C440.883 158.979 440.896 159.083 440.906 159.177C440.932 159.557 440.891 159.777 440.809 159.953C440.799 159.977 440.788 160.003 440.778 160.029C440.754 160.089 440.73 160.148 440.706 160.179C440.647 160.255 440.586 160.131 440.523 159.857C440.513 159.81 440.501 159.759 440.488 159.704L440.487 159.703C440.462 159.596 440.433 159.475 440.408 159.339C440.394 159.284 440.38 159.226 440.365 159.166C440.353 159.115 440.34 159.061 440.327 159.007C440.311 158.939 440.29 158.868 440.268 158.796C440.252 158.743 440.236 158.688 440.221 158.633C439.755 157.068 438.632 155.705 437.305 154.638C435.967 153.596 434.28 152.979 432.557 152.964L432.078 152.968L431.601 153.012C431.441 153.022 431.282 153.051 431.125 153.081C431.067 153.093 431.009 153.102 430.951 153.112C430.851 153.129 430.752 153.146 430.653 153.172C430.579 153.193 430.504 153.213 430.43 153.233C430.195 153.296 429.96 153.359 429.734 153.451C429.68 153.473 429.626 153.492 429.572 153.511C429.474 153.545 429.377 153.579 429.284 153.625L428.847 153.829C428.752 153.868 428.664 153.921 428.575 153.973C428.525 154.003 428.475 154.033 428.424 154.061C428.374 154.092 428.322 154.121 428.27 154.149C428.181 154.199 428.092 154.248 428.011 154.311C427.95 154.354 427.889 154.396 427.828 154.439C427.624 154.58 427.421 154.722 427.236 154.888C426.731 155.292 426.294 155.772 425.896 156.279L425.883 156.274L425.887 156.277C424.301 158.298 423.703 161.066 424.346 163.564C424.582 164.474 424.973 165.344 425.515 166.103C426.47 167.442 427.874 168.463 429.467 168.963C430.259 169.22 431.088 169.37 431.924 169.424C432.763 169.465 433.604 169.403 434.432 169.255C435.906 169.011 437.272 168.296 438.35 167.289C439.734 165.987 440.632 164.205 440.904 162.326C440.976 162.033 441.009 161.9 441.02 161.909C441.026 161.913 441.03 161.942 441.036 161.996C441.044 162.066 441.058 162.177 441.087 162.326C441.119 162.436 441.125 162.564 441.131 162.71L441.133 162.753L441.135 162.802C441.155 162.989 441.141 163.196 441.109 163.424C441.105 163.455 441.101 163.487 441.097 163.52C441.087 163.604 441.076 163.691 441.061 163.779C441.042 163.856 441.023 163.934 441.004 164.014L440.97 164.153C440.922 164.382 440.832 164.608 440.738 164.844L440.698 164.944C440.284 165.892 439.686 166.755 438.965 167.498C438.243 168.239 437.379 168.853 436.421 169.266C435.943 169.47 435.44 169.64 434.937 169.744C434.437 169.861 433.926 169.931 433.416 169.981Z" fill="#231F20"/>
<path d="M426.784 157.223C427.11 156.755 427.511 156.345 427.94 155.975L427.95 155.982C428.377 155.603 428.867 155.288 429.374 155.025C429.883 154.764 430.422 154.56 430.975 154.432C432.464 154.056 434.039 154.253 435.353 154.873C435.441 154.909 435.519 154.945 435.59 154.978C435.704 155.031 435.797 155.075 435.878 155.09C436.006 155.121 436.08 155.112 436.082 155.051C436.083 155.025 436.073 154.992 436.063 154.959L436.059 154.943C436.056 154.935 436.054 154.927 436.052 154.919C436.004 154.723 435.839 154.54 435.179 154.236C435.127 154.217 435.076 154.197 435.026 154.177C434.897 154.126 434.769 154.076 434.635 154.04C433.795 153.779 432.918 153.703 432.044 153.769C431.482 153.814 430.923 153.929 430.381 154.093C429.837 154.258 429.319 154.501 428.825 154.779C428.177 155.153 427.572 155.61 427.05 156.156C426.634 156.605 426.266 157.097 425.957 157.629C425.661 158.166 425.424 158.736 425.254 159.329C425.115 159.871 425.024 160.432 425.01 160.995C424.998 161.557 425.026 162.118 425.128 162.66C425.435 164.477 426.501 166.17 428.066 167.157C428.507 167.438 428.956 167.525 429.208 167.508C429.279 167.505 429.33 167.51 429.362 167.513C429.387 167.515 429.401 167.516 429.404 167.512C429.411 167.505 429.365 167.46 429.262 167.366C429.239 167.339 429.211 167.324 429.184 167.31C429.165 167.3 429.146 167.29 429.128 167.275C429.111 167.265 429.094 167.254 429.078 167.243C429.05 167.224 429.022 167.206 428.993 167.192C428.922 167.155 428.854 167.114 428.785 167.072L428.721 167.034C428.542 166.927 428.366 166.81 428.196 166.688C427.855 166.444 427.535 166.168 427.248 165.862C427.028 165.621 426.815 165.37 426.627 165.097C426.44 164.825 426.273 164.538 426.129 164.242C425.818 163.568 425.602 162.851 425.517 162.118C425.43 161.384 425.465 160.64 425.613 159.92C425.703 159.512 425.801 159.107 425.961 158.719C426.164 158.184 426.455 157.686 426.784 157.223Z" fill="#231F20"/>
<path d="M442.523 173.456C442.448 173.492 442.372 173.528 442.295 173.564C442.219 173.6 442.143 173.636 442.067 173.673C442.037 173.686 442.009 173.704 441.982 173.721C441.957 173.737 441.933 173.752 441.907 173.765L441.852 173.791C441.674 173.877 441.493 173.964 441.321 174.061C441.238 174.109 441.152 174.159 441.074 174.213C441.057 174.224 441.04 174.236 441.023 174.248C440.99 174.272 440.956 174.296 440.919 174.315C440.861 174.342 440.801 174.364 440.739 174.385C440.7 174.397 440.685 174.371 440.685 174.318C440.687 174.269 440.691 174.179 440.732 174.113C440.797 174.025 440.878 173.955 440.96 173.884C440.976 173.87 440.993 173.856 441.009 173.841C441.099 173.766 441.206 173.714 441.314 173.662L441.348 173.645C441.439 173.605 441.52 173.549 441.603 173.493C441.652 173.459 441.702 173.425 441.754 173.394C441.904 173.302 442.06 173.221 442.216 173.143C442.265 173.12 442.313 173.095 442.361 173.071C442.41 173.047 442.458 173.023 442.506 172.999C442.551 172.976 442.597 172.954 442.642 172.932C442.743 172.883 442.844 172.834 442.94 172.778C442.998 172.746 443.051 172.705 443.105 172.665C443.152 172.629 443.199 172.593 443.25 172.563C443.261 172.557 443.271 172.55 443.28 172.543C443.293 172.534 443.305 172.526 443.319 172.519C443.363 172.494 443.397 172.488 443.43 172.506C443.462 172.517 443.487 172.543 443.517 172.581C443.524 172.59 443.531 172.599 443.538 172.608C443.544 172.615 443.55 172.623 443.555 172.63C443.59 172.686 443.582 172.764 443.535 172.841C443.381 173.023 443.184 173.131 442.983 173.236L442.532 173.466L442.526 173.456L442.523 173.456Z" fill="#231F20"/>
<path d="M443.854 138.384C443.87 138.504 443.765 138.569 443.592 138.611C443.542 138.639 443.388 138.579 443.373 138.545C443.347 138.476 443.326 138.405 443.309 138.333C443.291 138.3 443.382 137.674 443.4 137.463C443.426 137.257 443.469 137.053 443.529 136.854C443.636 136.457 443.746 136.055 443.863 135.658C443.888 135.569 443.922 135.482 443.963 135.399C444.103 135.115 444.214 134.817 444.296 134.511C444.316 134.462 444.325 134.409 444.322 134.357C444.393 134.013 444.503 133.679 444.651 133.36C444.801 133.121 444.93 132.88 445.071 132.641C445.089 132.607 445.094 132.566 445.138 132.541C445.214 132.492 445.27 132.418 445.295 132.331C445.348 132.225 445.41 132.124 445.48 132.029C445.524 131.983 445.572 131.94 445.622 131.9C445.672 131.871 445.725 131.913 445.728 131.935C445.731 131.957 445.789 131.967 445.821 131.972C445.827 131.98 445.832 131.988 445.835 131.998C445.848 132.26 445.839 132.523 445.807 132.784C445.807 132.784 445.739 133.033 445.668 133.284C445.597 133.536 445.524 133.802 445.514 133.851C445.495 133.907 445.467 133.96 445.432 134.008C445.41 134.02 445.218 134.786 445.204 134.813C445.165 134.97 445.098 135.12 445.008 135.255C444.991 135.275 444.978 135.298 444.971 135.324C444.897 135.587 444.791 135.844 444.69 136.102C444.642 136.235 444.607 136.374 444.57 136.51L444.533 136.579C444.516 136.606 444.502 136.635 444.491 136.665C444.406 136.992 444.278 137.304 444.21 137.635C444.195 137.71 444.021 138.049 444.017 138.133C444.012 138.217 443.864 138.35 443.854 138.384Z" fill="#221F1F"/>
<path d="M451.121 146.555C451.087 146.612 451.022 146.573 450.915 146.486C450.872 146.442 450.841 146.387 450.824 146.328C450.837 146.283 450.853 146.238 450.872 146.195C450.894 146.183 451.16 145.954 451.247 145.88C451.336 145.815 451.433 145.759 451.535 145.715L452.126 145.429C452.171 145.41 452.22 145.398 452.269 145.395C452.433 145.374 452.593 145.326 452.742 145.253C452.771 145.246 452.797 145.231 452.817 145.21C452.973 145.111 453.143 145.04 453.322 144.997C453.477 144.997 453.631 144.988 453.785 144.971C453.785 144.971 453.821 144.95 453.85 144.977C453.879 145.003 453.95 145.001 453.994 144.995C454.058 144.981 454.125 144.981 454.189 144.993C454.228 145.002 454.265 145.016 454.299 145.035C454.333 145.044 454.338 145.103 454.34 145.107C454.342 145.111 454.365 145.15 454.377 145.172C454.384 145.179 454.389 145.188 454.392 145.197C454.352 145.259 454.307 145.318 454.259 145.374C454.21 145.434 454.155 145.49 454.095 145.539L453.584 145.832C453.557 145.846 453.526 145.851 453.496 145.844C453.496 145.844 453.136 146.051 453.098 146.043C453.016 146.067 452.951 146.128 452.845 146.093C452.837 146.094 452.83 146.096 452.823 146.1C452.816 146.104 452.81 146.109 452.805 146.116C452.672 146.168 452.535 146.207 452.394 146.232C452.323 146.253 452.253 146.279 452.185 146.309L452.142 146.309L452.102 146.332C451.936 146.384 451.774 146.445 451.615 146.516C451.579 146.536 451.379 146.555 451.345 146.579C451.312 146.603 451.133 146.534 451.121 146.555Z" fill="#221F1F"/>
<path d="M446.623 143.277C446.617 143.302 446.605 143.324 446.588 143.343C446.572 143.362 446.551 143.376 446.527 143.385C446.467 143.401 446.405 143.411 446.343 143.414C446.293 143.419 446.174 143.377 446.177 143.332C446.178 143.252 446.188 143.172 446.208 143.094C446.216 143.042 446.548 142.503 446.66 142.323C446.767 142.15 446.887 141.986 447.019 141.831C447.279 141.51 447.542 141.192 447.817 140.895C447.877 140.827 447.943 140.763 448.014 140.706C448.254 140.503 448.474 140.278 448.671 140.033C448.709 139.996 448.739 139.953 448.761 139.905C448.967 139.626 449.197 139.365 449.447 139.125C449.668 138.96 449.871 138.781 450.105 138.604C450.131 138.572 450.168 138.551 450.209 138.545C450.296 138.53 450.376 138.485 450.432 138.417C450.518 138.337 450.61 138.263 450.708 138.197C450.762 138.165 450.822 138.142 450.884 138.129C450.934 138.1 450.992 138.201 450.986 138.224C450.98 138.246 451.025 138.292 451.069 138.31C451.076 138.322 451.083 138.334 451.089 138.346C450.986 138.584 450.865 138.813 450.727 139.032L450.015 139.875C449.975 139.92 449.93 139.959 449.88 139.991C449.858 140.003 449.365 140.611 449.342 140.629C449.239 140.757 449.117 140.867 448.98 140.956C448.954 140.974 448.93 140.995 448.911 141.02C448.726 141.231 448.523 141.419 448.324 141.614C448.224 141.715 448.137 141.822 448.028 141.932C448.006 141.947 447.983 141.96 447.959 141.971L447.877 142.019C447.655 142.266 447.407 142.493 447.207 142.761C447.16 142.821 446.89 143.043 446.825 143.128C446.759 143.214 446.63 143.24 446.623 143.277Z" fill="#221F1F"/>
<rect x="374.422" y="109.815" width="92.312" height="3.56003" fill="white" stroke="#C7C7C7" stroke-width="0.813253"/>
<rect x="0.5" y="0.5" width="584.5" height="251" rx="3.5" stroke="#E5E5E5"/>
</svg>
