<svg width="586" height="240" viewBox="0 0 586 240" fill="none" xmlns="http://www.w3.org/2000/svg">
<rect x="0.5" y="0.5" width="584.5" height="239" rx="3.5" fill="white"/>
<rect x="117.274" y="62.4204" width="98.4618" height="98.4618" fill="white" stroke="#E5E5E5" stroke-width="0.786682"/>
<rect x="121.072" y="74.5733" width="90.8663" height="82.258" fill="white" stroke="#E5E5E5" stroke-width="0.786682"/>
<rect x="121.072" y="65.9649" width="90.8663" height="3.51746" fill="white" stroke="#E5E5E5" stroke-width="0.786682"/>
<path d="M150.273 110.613C150.273 102.402 155.633 96.2444 163.672 96.2444C167.892 96.2444 171.199 98.0119 172.852 101.034L173.251 97.1567H179.694V123.898C179.694 133.306 174.05 139.178 164.927 139.178C156.83 139.178 151.3 134.56 150.444 127.034H157.401C157.857 130.683 160.651 132.849 164.927 132.849C169.716 132.849 172.795 129.828 172.795 125.152V120.477C171.028 123.1 167.55 124.753 163.501 124.753C155.519 124.753 150.273 118.766 150.273 110.613ZM157.287 110.442C157.287 115.174 160.308 118.709 164.87 118.709C169.659 118.709 172.624 115.345 172.624 110.442C172.624 105.652 169.716 102.345 164.87 102.345C160.251 102.345 157.287 105.823 157.287 110.442Z" fill="black"/>
<rect x="202.345" y="100.145" width="98.715" height="98.4618" fill="white" stroke="#E5E5E5" stroke-width="0.786682"/>
<rect x="206.141" y="112.298" width="90.8663" height="82.258" fill="#FFEAEB" stroke="#E5E5E5" stroke-width="0.786682"/>
<rect x="206.141" y="103.69" width="83.2707" height="3.51746" fill="white" stroke="#E5E5E5" stroke-width="0.786682"/>
<rect x="292.465" y="103.423" width="4.81051" height="4.05096" fill="white" stroke="#C7C7C7" stroke-width="0.253185"/>
<path d="M237.949 176.611V135.388H244.392L244.848 139.664C246.559 136.414 250.265 134.532 254.541 134.532C262.467 134.532 267.712 140.291 267.712 149.129C267.712 157.909 262.923 164.295 254.541 164.295C250.322 164.295 246.673 162.642 244.905 159.791V176.611H237.949ZM244.962 149.471C244.962 154.545 248.098 158.023 252.888 158.023C257.791 158.023 260.699 154.488 260.699 149.471C260.699 144.453 257.791 140.861 252.888 140.861C248.098 140.861 244.962 144.396 244.962 149.471Z" fill="black"/>
<rect x="282.35" y="40.3933" width="98.4618" height="98.4618" fill="white" stroke="#E5E5E5" stroke-width="0.786682"/>
<rect x="286.148" y="52.5463" width="90.8663" height="82.258" fill="white" stroke="#E5E5E5" stroke-width="0.786682"/>
<rect x="286.148" y="43.9379" width="90.8663" height="3.51746" fill="white" stroke="#E5E5E5" stroke-width="0.786682"/>
<path d="M337.858 80.1935H344.814V108.36H338.371L337.858 104.597C336.147 107.277 332.498 109.101 328.735 109.101C322.235 109.101 318.415 104.711 318.415 97.8118V80.1935H325.371V95.3601C325.371 100.72 327.481 102.886 331.358 102.886C335.748 102.886 337.858 100.321 337.858 94.961V80.1935Z" fill="black"/>
<rect x="367.964" y="100.181" width="96.7614" height="96.7614" fill="white" stroke="#C7C7C7" stroke-width="0.786682"/>
<rect x="371.697" y="112.126" width="89.296" height="80.8352" fill="#EDEDED" stroke="#C7C7C7" stroke-width="0.786682"/>
<path d="M392.449 179.975L391.623 179.69L391.003 180.416L391.013 179.448L390.178 179.138C390.415 179.027 390.964 178.806 390.964 178.806C390.964 178.806 391.124 178.217 391.114 177.909L391.677 178.551C391.677 178.551 392.441 178.488 392.487 178.481C392.434 178.608 392 179.153 392 179.153C392 179.153 392.262 179.591 392.451 179.975H392.449Z" fill="#231F20"/>
<path d="M428.511 179.358L428.275 178.466L427.366 178.318L428.127 177.791L427.906 176.878C428.124 177.026 428.601 177.392 428.601 177.392C428.601 177.392 429.149 177.207 429.384 177.027L429.194 177.884C429.194 177.884 429.666 178.528 429.696 178.563C429.568 178.586 428.902 178.503 428.902 178.503C428.902 178.503 428.706 178.978 428.511 179.358Z" fill="#231F20"/>
<path d="M442.187 172.468L441.985 171.705L441.209 171.578L441.859 171.127L441.67 170.347C441.858 170.474 442.265 170.786 442.265 170.786C442.265 170.786 442.732 170.628 442.934 170.475L442.771 171.207C442.771 171.207 443.175 171.758 443.202 171.788C443.093 171.808 442.523 171.736 442.523 171.736C442.523 171.736 442.355 172.142 442.188 172.468H442.187Z" fill="#231F20"/>
<path d="M397.196 127.412L396.092 127.584L395.804 128.803L395.261 127.673L394.135 127.822C394.341 127.549 394.838 126.957 394.838 126.957C394.838 126.957 394.682 126.176 394.495 125.824L395.503 126.228C395.503 126.228 396.336 125.691 396.382 125.656C396.395 125.836 396.212 126.732 396.212 126.732C396.212 126.732 396.761 127.081 397.196 127.414V127.412Z" fill="#231F20"/>
<path d="M393.406 140.68H393.415L393.415 140.692C393.506 140.649 393.59 140.619 393.676 140.589L393.722 140.573C394.085 140.456 394.429 140.396 394.772 140.342C395.457 140.241 396.132 140.19 396.803 140.152C399.491 140.022 410.772 139.937 413.437 140.026C414.496 140.064 417.125 140.104 419.916 140.147C423.357 140.199 427.044 140.255 428.338 140.316C429.508 140.387 430.197 140.383 430.779 140.38C431.693 140.375 432.339 140.372 434.163 140.658C434.557 140.728 434.985 140.879 435.288 141.036C435.311 141.025 435.338 141.017 435.368 141.012C435.598 141.012 435.8 141.091 436.002 141.174L436.453 141.365L436.449 141.375L436.45 141.377C436.524 141.411 436.598 141.445 436.672 141.479C436.747 141.513 436.821 141.546 436.895 141.58C436.923 141.593 436.954 141.603 436.984 141.613C437.01 141.621 437.037 141.63 437.062 141.641C437.08 141.649 437.098 141.657 437.116 141.665C437.291 141.743 437.467 141.823 437.645 141.889C437.733 141.921 437.823 141.954 437.911 141.978C437.93 141.984 437.95 141.989 437.969 141.993C438.008 142.003 438.046 142.013 438.083 142.029C438.139 142.055 438.193 142.086 438.247 142.118C438.28 142.14 438.27 142.166 438.231 142.2C438.193 142.229 438.125 142.282 438.051 142.293C437.945 142.3 437.843 142.284 437.74 142.267C437.719 142.264 437.699 142.261 437.678 142.258C437.566 142.238 437.461 142.191 437.356 142.144C437.345 142.139 437.333 142.134 437.322 142.129C437.236 142.087 437.144 142.062 437.051 142.036C436.995 142.02 436.939 142.005 436.884 141.985C436.723 141.931 436.566 141.866 436.411 141.799C436.364 141.778 436.316 141.758 436.268 141.737C436.22 141.716 436.172 141.696 436.124 141.675C436.08 141.656 436.035 141.636 435.99 141.616C435.891 141.572 435.792 141.528 435.691 141.492C435.666 141.482 435.639 141.474 435.612 141.466C435.568 141.485 435.503 141.499 435.414 141.505L435.248 141.519C435.068 141.533 434.971 141.541 434.873 141.544C434.758 141.547 434.643 141.543 434.391 141.535C434.174 141.528 433.853 141.517 433.343 141.505L428.738 141.344C427.972 141.309 425.25 141.275 422.528 141.241C419.808 141.207 417.087 141.173 416.319 141.139C413.25 141.015 401.559 141.05 398.481 141.06C397.564 141.066 396.633 141.097 395.719 141.186C395.261 141.23 394.804 141.29 394.378 141.388C394.167 141.436 393.959 141.499 393.81 141.572L393.805 141.575C393.734 141.613 393.721 141.62 393.694 141.654C393.688 141.665 393.682 141.676 393.676 141.689C393.67 141.703 393.663 141.718 393.653 141.736C393.634 141.768 393.615 141.799 393.599 141.853C393.457 142.217 393.378 142.691 393.306 143.14C393.24 143.599 393.189 144.067 393.148 144.534C393.066 145.474 393.016 146.422 392.978 147.364C392.823 151.522 392.871 155.706 393.016 159.876C393.066 161.16 393.12 162.444 393.221 163.715C393.246 164.031 393.277 164.35 393.318 164.654C393.352 164.92 393.395 164.94 393.666 165.071L393.694 165.084C394.224 165.302 394.864 165.409 395.479 165.501C397.377 165.757 399.33 165.833 409.879 165.735C411.819 165.786 413.758 165.792 415.685 165.779C417.271 165.768 417.746 165.733 418.281 165.694C418.757 165.659 419.281 165.621 420.68 165.593C420.897 165.589 422.047 165.584 423.196 165.58C425.006 165.574 426.816 165.567 424.987 165.56C428.622 165.584 434.373 165.676 434.779 165.877C434.848 165.911 434.863 165.944 434.878 165.977C434.889 166 434.899 166.023 434.928 166.045C435.155 166.219 434.357 166.364 432.575 166.405C427.949 166.53 419.654 166.683 413.881 166.688C413.879 166.719 413.874 166.75 413.868 166.781L413.865 166.802C413.851 166.857 413.861 166.911 413.871 166.966C413.877 166.999 413.883 167.032 413.884 167.065C413.889 167.162 413.879 167.259 413.865 167.354C413.86 167.384 413.856 167.414 413.852 167.443L413.844 167.494L413.838 167.532C413.835 167.56 413.83 167.588 413.825 167.616C413.815 167.677 413.805 167.739 413.805 167.8C413.803 167.837 413.814 167.873 413.825 167.91C413.835 167.942 413.844 167.975 413.846 168.007C413.846 168.014 413.847 168.021 413.848 168.027C413.85 168.036 413.852 168.044 413.85 168.052C413.85 168.08 413.834 168.098 413.792 168.109C413.759 168.121 413.713 168.126 413.65 168.13C413.635 168.13 413.62 168.131 413.606 168.132C413.593 168.133 413.58 168.134 413.568 168.134C413.481 168.136 413.399 168.11 413.341 168.067C413.235 167.943 413.242 167.819 413.254 167.695L413.291 167.416H413.305L413.307 167.415C413.316 167.369 413.325 167.323 413.334 167.276C413.343 167.23 413.352 167.184 413.361 167.138C413.364 167.12 413.363 167.101 413.361 167.083C413.36 167.068 413.358 167.052 413.361 167.036L413.367 167.003C413.386 166.898 413.405 166.793 413.408 166.688C412.757 166.688 412.142 166.685 411.573 166.68C410.956 166.673 409.589 166.677 407.913 166.682C405.666 166.689 402.864 166.697 400.574 166.682L400.57 166.714C400.544 166.911 400.518 167.11 400.534 167.309C400.551 167.544 400.585 167.785 400.715 168.003C400.732 168.037 400.753 168.068 400.782 168.097C400.807 168.129 400.838 168.158 400.872 168.183L400.88 168.19C400.894 168.202 400.91 168.216 400.918 168.216C400.925 168.221 400.944 168.228 400.971 168.235C401.017 168.25 401.077 168.264 401.142 168.276C401.4 168.325 401.695 168.355 401.982 168.384C402.619 168.445 403.268 168.492 403.917 168.531C404.318 168.554 404.721 168.574 405.122 168.59L405.332 168.598L405.597 168.601C406.191 168.606 406.785 168.606 407.378 168.598C408.278 168.585 409.183 168.566 410.072 168.52C410.599 168.493 411.113 168.449 411.626 168.405C411.786 168.391 411.946 168.377 412.106 168.364C412.253 168.349 412.398 168.336 412.548 168.323C413.103 168.283 413.281 168.285 413.431 168.344C413.442 168.349 413.455 168.353 413.467 168.358C413.492 168.366 413.516 168.375 413.532 168.384C413.612 168.43 413.404 168.508 412.999 168.575C411.792 168.768 410.479 168.837 409.169 168.882C408.194 168.915 407.212 168.927 406.229 168.927V168.922C405.258 168.916 404.286 168.894 403.317 168.842L403.159 168.834C402.856 168.819 402.552 168.804 402.25 168.778C401.936 168.749 401.625 168.718 401.313 168.673C401.002 168.625 400.691 168.573 400.389 168.47C400.377 168.465 400.364 168.461 400.351 168.457C400.326 168.449 400.299 168.44 400.271 168.424L400.256 168.416C400.219 168.396 400.179 168.373 400.157 168.352L400.092 168.282C400.078 168.26 400.066 168.238 400.054 168.216C400.008 168.13 399.986 168.049 399.969 167.968C399.94 167.807 399.938 167.648 399.945 167.489C399.964 167.218 399.996 166.945 400.082 166.678C398.517 166.664 397.248 166.638 396.655 166.589C396.125 166.541 395.056 166.405 395.056 166.405C394.517 166.317 393.981 166.228 393.397 166.01C393.369 165.997 393.342 165.986 393.314 165.975C393.268 165.956 393.222 165.937 393.17 165.909L393.142 165.895C393.072 165.86 393.012 165.83 392.915 165.764C392.71 165.612 392.511 165.435 392.448 165.182C392.42 165.123 392.402 165.054 392.39 164.993C392.333 165.019 392.275 165.035 392.217 165.05C392.202 165.054 392.187 165.058 392.172 165.062C392.091 165.081 392.008 165.073 391.924 165.065L391.897 165.062C391.828 165.052 391.759 165.059 391.689 165.067C391.647 165.071 391.605 165.076 391.563 165.076C391.439 165.08 391.316 165.073 391.194 165.062C391.156 165.059 391.118 165.055 391.081 165.052C391.043 165.049 391.005 165.046 390.967 165.043C390.932 165.04 390.896 165.036 390.861 165.033C390.783 165.025 390.704 165.018 390.626 165.018C390.58 165.017 390.533 165.025 390.486 165.033C390.445 165.04 390.404 165.047 390.362 165.048C390.353 165.048 390.345 165.049 390.337 165.05C390.326 165.051 390.316 165.052 390.305 165.051C390.27 165.051 390.247 165.039 390.233 165.009C390.217 164.984 390.211 164.95 390.206 164.904C390.206 164.893 390.204 164.882 390.203 164.871C390.202 164.862 390.201 164.853 390.2 164.844C390.199 164.78 390.231 164.719 390.287 164.677C390.444 164.599 390.601 164.604 390.76 164.613L391.115 164.64V164.65L391.117 164.652C391.175 164.658 391.234 164.665 391.293 164.672C391.352 164.678 391.411 164.685 391.47 164.691C391.493 164.694 391.516 164.693 391.539 164.691C391.559 164.69 391.579 164.689 391.6 164.691L391.642 164.696C391.781 164.71 391.921 164.725 392.059 164.727C392.127 164.727 392.197 164.727 392.263 164.719C392.277 164.718 392.292 164.716 392.306 164.714C392.318 164.713 392.331 164.711 392.343 164.71L392.34 164.691L392.334 164.644C392.316 164.505 392.3 164.366 392.287 164.233C392.234 163.696 392.196 163.171 392.161 162.643L392.186 162.636L392.193 162.64C392.057 160.181 391.976 157.729 391.942 155.276C391.714 155.259 391.484 155.244 391.255 155.255C390.956 155.267 390.649 155.292 390.371 155.388C390.328 155.4 390.288 155.416 390.251 155.438C390.21 155.455 390.173 155.478 390.141 155.503L390.132 155.509C390.117 155.519 390.099 155.531 390.099 155.537C390.093 155.542 390.084 155.557 390.075 155.576C390.056 155.61 390.038 155.654 390.022 155.702C389.96 155.892 389.922 156.109 389.885 156.32C389.808 156.789 389.748 157.266 389.698 157.744C389.669 158.038 389.643 158.335 389.623 158.63C389.618 158.696 389.613 158.763 389.609 158.83L389.606 158.979C389.6 159.416 389.6 159.853 389.611 160.289C389.626 160.952 389.651 161.617 389.71 162.271C389.744 162.659 389.8 163.037 389.857 163.414C389.874 163.532 389.892 163.649 389.909 163.767C389.927 163.875 389.944 163.982 389.961 164.092C390.012 164.5 390.009 164.632 389.933 164.742C389.928 164.75 389.922 164.759 389.917 164.768C389.906 164.786 389.895 164.804 389.882 164.816C389.824 164.875 389.725 164.722 389.64 164.424C389.393 163.536 389.305 162.571 389.248 161.607C389.207 160.889 389.191 160.167 389.191 159.444H389.197C389.205 158.73 389.233 158.015 389.299 157.302L389.309 157.186C389.329 156.963 389.348 156.739 389.381 156.517C389.418 156.286 389.458 156.057 389.515 155.828C389.575 155.599 389.642 155.37 389.773 155.148C389.779 155.139 389.785 155.13 389.79 155.12C389.8 155.102 389.811 155.082 389.832 155.061L389.842 155.051C389.868 155.023 389.897 154.993 389.924 154.978L390.014 154.93C390.041 154.919 390.069 154.91 390.097 154.901C390.207 154.868 390.31 154.852 390.413 154.839C390.618 154.818 390.821 154.816 391.023 154.822C391.328 154.834 391.635 154.854 391.937 154.902C391.929 154.175 391.924 153.449 391.923 152.722C391.843 152.735 391.759 152.729 391.676 152.723L391.649 152.722C391.58 152.715 391.511 152.72 391.441 152.725C391.399 152.728 391.357 152.731 391.314 152.732C391.191 152.734 391.068 152.729 390.946 152.722C390.908 152.719 390.87 152.717 390.832 152.715C390.794 152.712 390.757 152.71 390.719 152.708C390.683 152.706 390.648 152.703 390.613 152.701C390.534 152.695 390.456 152.69 390.378 152.69C390.331 152.689 390.285 152.695 390.238 152.701C390.197 152.706 390.155 152.711 390.114 152.711C390.105 152.711 390.097 152.712 390.088 152.713C390.078 152.714 390.067 152.715 390.057 152.714C390.021 152.714 389.998 152.705 389.984 152.684C389.969 152.666 389.963 152.642 389.958 152.609C389.957 152.601 389.956 152.593 389.955 152.586C389.954 152.579 389.953 152.572 389.952 152.566C389.95 152.52 389.983 152.477 390.038 152.447C390.196 152.391 390.353 152.395 390.512 152.401L390.867 152.42V152.428L390.868 152.429C390.927 152.434 390.986 152.438 391.045 152.443C391.104 152.448 391.163 152.452 391.222 152.457C391.245 152.459 391.268 152.458 391.291 152.457C391.311 152.457 391.331 152.456 391.351 152.457L391.394 152.46C391.533 152.471 391.673 152.481 391.811 152.482C391.848 152.482 391.886 152.482 391.923 152.481C391.924 151.704 391.928 150.925 391.937 150.147C391.941 149.908 391.945 149.668 391.948 149.429L391.948 149.427C391.966 148.21 391.984 146.992 392.063 145.772L391.927 145.754L391.916 145.753L391.91 145.753C391.861 145.75 391.812 145.748 391.763 145.745C391.512 145.731 391.259 145.718 391.006 145.726C390.706 145.735 390.399 145.753 390.122 145.821C390.078 145.83 390.038 145.841 390.001 145.857C389.961 145.869 389.924 145.886 389.892 145.904L389.883 145.908C389.868 145.915 389.85 145.923 389.85 145.928C389.844 145.931 389.835 145.942 389.825 145.955C389.807 145.98 389.788 146.011 389.773 146.045C389.711 146.181 389.673 146.335 389.636 146.486C389.558 146.82 389.498 147.161 389.449 147.502C389.42 147.712 389.393 147.924 389.373 148.134C389.369 148.176 389.365 148.218 389.361 148.261L389.358 148.382C389.352 148.694 389.352 149.005 389.363 149.317C389.378 149.789 389.403 150.264 389.461 150.73C389.496 151.007 389.552 151.277 389.608 151.546C389.626 151.63 389.644 151.714 389.66 151.798C389.679 151.875 389.696 151.951 389.713 152.03C389.764 152.321 389.761 152.415 389.685 152.493C389.68 152.499 389.674 152.506 389.669 152.512C389.658 152.525 389.647 152.538 389.634 152.546C389.576 152.588 389.477 152.479 389.392 152.266C389.145 151.633 389.057 150.944 389 150.257C388.958 149.745 388.943 149.229 388.943 148.714H388.949C388.957 148.204 388.985 147.694 389.051 147.185L389.061 147.103C389.081 146.944 389.1 146.784 389.133 146.626C389.17 146.461 389.21 146.298 389.267 146.134C389.327 145.971 389.394 145.807 389.525 145.649C389.531 145.643 389.536 145.636 389.542 145.629C389.552 145.616 389.563 145.602 389.583 145.587L389.594 145.579C389.62 145.56 389.649 145.539 389.676 145.528L389.765 145.493C389.793 145.486 389.821 145.479 389.849 145.473C389.958 145.449 390.062 145.438 390.165 145.429C390.37 145.414 390.572 145.412 390.774 145.416C391.131 145.426 391.489 145.444 391.839 145.492C391.913 145.502 391.987 145.512 392.061 145.525L392.079 145.528C392.123 144.872 392.182 144.216 392.262 143.557L392.286 143.39C392.374 142.766 392.461 142.151 392.71 141.477C392.722 141.433 392.744 141.385 392.776 141.331L392.84 141.214C392.852 140.926 392.852 140.637 392.844 140.348C392.842 140.309 392.841 140.27 392.839 140.232C392.834 140.188 392.828 140.144 392.822 140.1C392.795 139.89 392.759 139.678 392.718 139.468C392.65 139.127 392.568 138.787 392.461 138.452C392.41 138.302 392.357 138.147 392.272 138.012C392.251 137.977 392.226 137.946 392.2 137.922C392.187 137.908 392.175 137.898 392.166 137.894C392.166 137.89 392.142 137.881 392.121 137.874L392.109 137.87C392.064 137.852 392.013 137.835 391.958 137.823C391.907 137.808 391.852 137.796 391.793 137.787C391.41 137.719 390.988 137.701 390.576 137.692C390.228 137.684 389.879 137.698 389.533 137.711C389.466 137.714 389.399 137.717 389.332 137.719L389.322 137.719L389.308 137.72L389.111 137.739C389.087 137.741 389.065 137.744 389.043 137.747L389.013 137.751L388.99 137.753V137.752C388.921 137.757 388.86 137.763 388.807 137.769C388.699 137.78 388.628 137.788 388.606 137.766L388.605 137.757C388.605 137.72 388.605 137.668 388.625 137.628C388.642 137.581 388.707 137.553 388.78 137.541L388.894 137.522L388.971 137.51L389.124 137.491C389.226 137.478 389.327 137.468 389.429 137.458C389.911 137.41 390.404 137.392 390.894 137.382C391.173 137.378 391.451 137.38 391.733 137.395C391.875 137.404 392.018 137.415 392.168 137.439C392.207 137.446 392.245 137.452 392.283 137.459L392.406 137.494C392.444 137.505 392.483 137.526 392.519 137.546L392.534 137.553C392.562 137.568 392.577 137.582 392.591 137.595C392.598 137.602 392.606 137.609 392.614 137.615C392.795 137.774 392.886 137.937 392.969 138.1C393.047 138.264 393.103 138.427 393.154 138.592C393.199 138.75 393.226 138.91 393.252 139.069L393.266 139.151C393.357 139.66 393.396 140.17 393.406 140.68Z" fill="#231F20"/>
<path d="M422.632 165.555C423.731 165.557 424.492 165.558 424.987 165.56C423.993 165.554 423.157 165.552 422.632 165.555Z" fill="#231F20"/>
<path d="M439.413 153.521C439.422 153.282 439.421 153.042 439.42 152.803C439.419 152.611 439.418 152.419 439.422 152.228C439.44 151.559 439.465 150.89 439.49 150.22C439.521 149.369 439.553 148.517 439.571 147.665C439.572 147.464 439.575 147.262 439.578 147.059V147.055C439.584 146.583 439.591 146.11 439.586 145.642C439.586 145.45 439.584 145.258 439.582 145.066V145.059C439.574 144.392 439.566 143.724 439.649 143.058C439.687 142.79 439.716 142.821 439.82 143.043C439.93 143.264 440.122 143.678 440.189 144.175C440.271 145.054 440.34 145.936 440.384 146.818C440.409 147.7 440.384 148.585 440.343 149.474C440.314 150.122 440.315 150.785 440.315 151.45C440.316 151.876 440.316 152.303 440.309 152.728C440.273 154.393 440.206 155.469 440.135 156.601C440.076 157.538 440.015 158.513 439.968 159.89C439.955 160.32 439.946 160.747 439.943 161.171C439.936 161.595 439.914 162.021 439.889 162.448C439.887 162.495 439.885 162.542 439.882 162.588C439.876 162.728 439.869 162.868 439.858 163.008C439.772 163.71 439.675 163.925 439.473 164.051L439.458 164.06L439.45 164.066L439.434 164.077L439.424 164.084C439.394 164.105 439.364 164.125 439.337 164.134C439.192 164.181 439.097 163.884 439.075 163.375C439.053 162.619 439.041 161.844 439.028 161.057C439.043 160.64 439.057 160.22 439.072 159.797C439.084 159.426 439.097 159.052 439.11 158.679C439.153 157.53 439.208 156.85 439.261 156.189C439.32 155.47 439.376 154.774 439.413 153.521Z" fill="#231F20"/>
<path fill-rule="evenodd" clip-rule="evenodd" d="M426.309 155.299C425.971 155.149 425.683 154.908 425.467 154.636C425.25 154.362 425.084 154.054 424.994 153.713C424.929 153.472 424.884 153.189 424.927 152.943C424.979 152.502 425.16 152.078 425.443 151.744C425.519 151.653 425.603 151.569 425.693 151.493C425.562 151.254 425.43 151.018 425.289 150.791C425.204 150.651 425.109 150.518 425.015 150.385C424.93 150.263 424.845 150.142 424.766 150.017C424.751 149.993 424.736 149.97 424.721 149.947C424.698 149.912 424.675 149.878 424.654 149.839C424.6 149.76 424.571 149.665 424.573 149.568C424.577 149.503 424.603 149.441 424.648 149.394C424.663 149.371 424.681 149.35 424.701 149.332C424.764 149.278 424.879 149.332 425.035 149.448C425.425 149.866 425.79 150.306 426.13 150.766C426.212 150.877 426.294 150.99 426.375 151.102C426.422 151.086 426.47 151.072 426.518 151.059C426.884 150.964 427.272 150.964 427.633 151.05C427.669 151.061 427.706 151.071 427.744 151.082C427.822 151.103 427.9 151.124 427.971 151.16C428.005 151.176 428.039 151.192 428.073 151.209C428.146 151.243 428.22 151.277 428.287 151.319C428.31 151.335 428.332 151.35 428.354 151.365C428.428 151.416 428.502 151.466 428.568 151.527L428.585 151.546C428.656 151.628 428.726 151.709 428.77 151.815C428.777 151.848 428.783 151.872 428.787 151.89C428.794 151.917 428.797 151.929 428.792 151.934C428.788 151.937 428.779 151.936 428.763 151.933C428.744 151.929 428.716 151.924 428.675 151.923C428.599 151.923 428.494 151.923 428.392 151.903C428.366 151.897 428.338 151.894 428.309 151.89C428.282 151.887 428.255 151.883 428.228 151.877C428.176 151.863 428.126 151.841 428.078 151.815C427.729 151.639 427.369 151.529 427.01 151.541C426.911 151.543 426.812 151.556 426.716 151.579C426.773 151.659 426.831 151.74 426.89 151.82L426.842 151.818L426.922 151.94C427.069 152.163 427.218 152.389 427.359 152.616C427.501 152.652 427.642 152.747 427.726 152.901C427.743 152.929 427.757 152.963 427.766 152.994L427.785 153.08C427.8 153.134 427.8 153.199 427.795 153.263L427.795 153.266L427.81 153.287L428.397 154.257C428.413 154.235 428.429 154.213 428.444 154.19C428.559 154.033 428.62 153.847 428.663 153.661C428.708 153.47 428.72 153.282 428.704 153.105C428.697 153.049 428.684 152.996 428.671 152.943C428.666 152.923 428.661 152.902 428.656 152.881C428.645 152.829 428.634 152.784 428.624 152.743C428.608 152.676 428.595 152.623 428.592 152.573C428.582 152.497 428.604 152.43 428.632 152.364C428.637 152.351 428.641 152.339 428.645 152.327C428.651 152.308 428.656 152.291 428.663 152.278C428.682 152.24 428.725 152.24 428.811 152.264C428.896 152.287 428.994 152.361 429.084 152.49C429.552 153.21 429.355 154.19 428.746 154.825C428.835 154.957 428.933 155.08 429.035 155.209L429.108 155.301C430.415 157.25 430.679 157.632 430.783 157.783C430.802 157.809 430.815 157.829 430.828 157.848C430.915 157.99 430.981 158.145 431.021 158.306C431.046 158.416 430.921 158.469 430.747 158.489C430.553 158.526 430.352 158.493 430.179 158.398C429.818 158.054 428.629 156.34 427.989 155.334C427.454 155.545 426.836 155.544 426.306 155.313L426.311 155.299H426.309ZM425.633 152.509C425.699 152.308 425.815 152.127 425.963 151.987L426.279 152.565C426.378 152.756 426.488 152.953 426.599 153.145C426.584 153.208 426.578 153.274 426.582 153.339C426.587 153.471 426.661 153.626 426.787 153.723C426.852 153.776 426.931 153.8 427.004 153.813C427.078 153.925 427.157 154.032 427.236 154.139C427.372 154.322 427.506 154.503 427.61 154.7C427.62 154.721 427.633 154.744 427.647 154.77C427.49 154.819 427.327 154.843 427.165 154.841C426.837 154.846 426.518 154.729 426.264 154.536C425.847 154.223 425.56 153.692 425.529 153.203C425.524 153.134 425.53 153.056 425.537 152.979C425.54 152.936 425.544 152.894 425.545 152.852C425.554 152.816 425.562 152.778 425.569 152.741C425.584 152.661 425.599 152.582 425.633 152.509Z" fill="#231F20"/>
<path fill-rule="evenodd" clip-rule="evenodd" d="M404.836 154.698C404.818 154.678 404.801 154.657 404.784 154.636C404.568 154.362 404.402 154.054 404.311 153.713C404.247 153.472 404.202 153.189 404.245 152.943C404.297 152.502 404.478 152.078 404.761 151.744C405.041 151.41 405.422 151.167 405.836 151.059C406.202 150.964 406.59 150.964 406.951 151.05C406.987 151.061 407.024 151.071 407.061 151.082C407.139 151.103 407.218 151.124 407.289 151.16C407.322 151.176 407.356 151.192 407.39 151.208C407.477 151.092 407.563 150.976 407.644 150.859C407.739 150.726 407.824 150.586 407.91 150.447C407.988 150.321 408.065 150.195 408.149 150.073C408.166 150.05 408.181 150.027 408.196 150.004C408.218 149.97 408.241 149.935 408.268 149.9C408.32 149.819 408.396 149.755 408.486 149.719C408.547 149.697 408.614 149.697 408.674 149.719C408.701 149.725 408.728 149.733 408.752 149.744C408.826 149.781 408.822 149.909 408.777 150.098C408.547 150.621 408.286 151.131 407.997 151.624L407.985 151.645C408.025 151.697 408.061 151.751 408.088 151.815C408.094 151.848 408.1 151.872 408.105 151.89C408.111 151.917 408.114 151.929 408.11 151.934C408.106 151.937 408.097 151.936 408.08 151.933C408.062 151.929 408.034 151.924 407.993 151.923C407.945 151.923 407.886 151.923 407.824 151.918C407.756 152.031 407.688 152.144 407.619 152.256C407.522 152.417 407.424 152.577 407.328 152.74L407.312 152.694L407.232 152.816C407.185 152.886 407.138 152.957 407.092 153.028L407.103 153.079C407.117 153.134 407.117 153.199 407.113 153.263C407.101 153.392 407.041 153.523 406.96 153.616L406.953 153.609V153.616C406.834 153.742 406.692 153.805 406.542 153.822C406.508 153.875 406.477 153.932 406.444 153.989C406.413 154.046 406.38 154.105 406.343 154.163L405.934 154.736C406.106 154.806 406.293 154.844 406.483 154.841C406.975 154.848 407.484 154.607 407.762 154.19C407.876 154.033 407.938 153.847 407.981 153.661C408.026 153.47 408.038 153.282 408.021 153.105C408.014 153.049 408.001 152.996 407.989 152.943C407.983 152.923 407.978 152.902 407.974 152.881C407.963 152.829 407.952 152.784 407.942 152.743C407.926 152.676 407.912 152.623 407.909 152.573C407.9 152.497 407.921 152.43 407.95 152.364C407.955 152.352 407.958 152.339 407.962 152.327C407.968 152.308 407.974 152.291 407.981 152.278C408 152.24 408.043 152.24 408.128 152.264C408.214 152.287 408.311 152.361 408.402 152.49C408.939 153.317 408.599 154.488 407.764 155.084C407.153 155.525 406.314 155.614 405.624 155.313L405.629 155.299H405.626C405.602 155.288 405.579 155.277 405.555 155.266L405.379 155.513C405.257 155.683 405.162 155.86 405.061 156.047C405.043 156.081 405.024 156.116 405.005 156.151C404.934 156.292 404.856 156.429 404.772 156.562C404.675 156.698 404.559 156.819 404.427 156.92C404.336 156.986 404.238 156.891 404.152 156.739C404.042 156.574 403.993 156.376 404.012 156.179C404.21 155.646 404.488 155.147 404.836 154.698ZM405.219 154.169C405.004 153.881 404.867 153.532 404.846 153.203C404.842 153.134 404.848 153.056 404.854 152.979C404.858 152.937 404.861 152.894 404.863 152.852C404.872 152.816 404.879 152.778 404.886 152.741C404.902 152.661 404.917 152.582 404.951 152.509C405.025 152.285 405.16 152.085 405.334 151.939C405.622 151.698 405.969 151.548 406.328 151.541C406.566 151.533 406.803 151.579 407.038 151.661C406.994 151.718 406.95 151.774 406.906 151.83L406.405 152.468C406.329 152.561 406.253 152.657 406.178 152.755C406.092 152.806 406.033 152.893 405.98 152.979C405.964 153.009 405.95 153.04 405.939 153.072C405.824 153.228 405.714 153.381 405.613 153.525C405.512 153.669 405.424 153.82 405.337 153.969C405.298 154.036 405.259 154.103 405.219 154.169Z" fill="#231F20"/>
<path d="M407.019 161.885C407.111 161.879 407.203 161.873 407.295 161.865C407.788 161.816 408.281 161.748 408.764 161.635C409.25 161.535 409.736 161.37 410.197 161.173C411.122 160.774 411.957 160.179 412.654 159.462C413.35 158.744 413.927 157.909 414.328 156.992L414.366 156.895C414.457 156.667 414.543 156.449 414.59 156.227L414.623 156.093C414.641 156.015 414.66 155.939 414.678 155.865C414.692 155.78 414.703 155.696 414.713 155.614C414.717 155.583 414.72 155.552 414.724 155.521C414.755 155.301 414.769 155.1 414.749 154.919C414.748 154.889 414.747 154.86 414.745 154.831C414.739 154.69 414.734 154.566 414.703 154.459C414.675 154.316 414.662 154.208 414.654 154.14C414.647 154.089 414.644 154.06 414.639 154.056C414.628 154.047 414.596 154.176 414.526 154.459C414.263 156.277 413.397 158.001 412.06 159.26C411.019 160.234 409.7 160.926 408.276 161.162C407.477 161.306 406.664 161.365 405.855 161.325C405.047 161.273 404.247 161.128 403.482 160.879C401.943 160.396 400.587 159.409 399.665 158.113C399.142 157.379 398.765 156.537 398.536 155.657C397.916 153.241 398.493 150.563 400.024 148.608L400.021 148.605L400.033 148.61C400.418 148.119 400.839 147.655 401.327 147.265C401.506 147.104 401.702 146.967 401.899 146.83C401.958 146.789 402.017 146.748 402.076 146.706C402.154 146.646 402.24 146.598 402.326 146.55C402.376 146.522 402.426 146.494 402.474 146.464C402.524 146.438 402.572 146.409 402.621 146.38C402.706 146.329 402.791 146.278 402.883 146.24L403.305 146.043C403.395 145.998 403.489 145.965 403.583 145.932C403.635 145.914 403.688 145.895 403.739 145.875C403.958 145.785 404.185 145.724 404.412 145.663C404.483 145.644 404.556 145.624 404.627 145.604C404.722 145.579 404.819 145.563 404.915 145.547C404.971 145.537 405.027 145.528 405.083 145.516C405.235 145.488 405.388 145.459 405.542 145.45L406.003 145.407L406.466 145.404C408.129 145.418 409.759 146.014 411.051 147.023C412.332 148.055 413.416 149.373 413.867 150.887C413.881 150.941 413.897 150.993 413.912 151.044C413.933 151.114 413.953 151.183 413.969 151.249C413.982 151.301 413.994 151.353 414.006 151.402C414.02 151.46 414.034 151.516 414.047 151.57C414.072 151.702 414.1 151.82 414.124 151.923C414.137 151.976 414.148 152.026 414.158 152.071C414.219 152.336 414.278 152.456 414.335 152.383C414.359 152.353 414.381 152.296 414.405 152.238C414.415 152.213 414.425 152.187 414.435 152.164C414.514 151.994 414.553 151.781 414.528 151.414C414.519 151.322 414.506 151.222 414.492 151.109C414.476 151.009 414.452 150.901 414.425 150.783L414.415 150.74C414.394 150.645 414.362 150.545 414.328 150.438C414.315 150.394 414.301 150.349 414.287 150.303C414.269 150.258 414.252 150.212 414.234 150.164C414.19 150.047 414.144 149.923 414.083 149.796C413.911 149.404 413.695 149.047 413.458 148.702C413.188 148.307 412.884 147.942 412.559 147.6C412.398 147.43 412.228 147.265 412.057 147.105C411.95 147.004 411.835 146.91 411.72 146.816C411.652 146.76 411.584 146.704 411.517 146.647C410.777 146.061 409.938 145.595 409.035 145.285C407.877 144.87 406.616 144.76 405.39 144.902C404.161 145.051 402.974 145.499 401.924 146.145C401.862 146.185 401.801 146.225 401.74 146.265C400.349 147.049 398.81 148.438 397.89 150.943C396.664 154.285 397.561 159.22 402.587 161.116C403.152 161.36 403.738 161.546 404.329 161.675C405.179 161.866 406.055 161.934 406.922 161.89C407.076 161.894 407.231 161.896 407.389 161.896L407.387 161.894L407.019 161.885Z" fill="#231F20"/>
<path d="M402.596 147.885C402.022 148.281 401.498 148.761 401.08 149.329L401.032 149.398C400.975 149.48 400.917 149.563 400.864 149.648C400.8 149.759 400.736 149.87 400.668 149.979C400.444 150.374 400.26 150.789 400.112 151.221C399.976 151.656 399.869 152.102 399.81 152.559C399.788 152.726 399.778 152.896 399.768 153.065L399.762 153.17C399.762 153.221 399.762 153.272 399.763 153.323C399.763 153.477 399.764 153.631 399.771 153.783C399.787 154.044 399.805 154.304 399.84 154.564C399.849 154.624 399.854 154.685 399.86 154.746C399.866 154.816 399.873 154.885 399.883 154.954L399.889 155.003C399.904 155.117 399.919 155.231 399.896 155.354C399.865 155.443 399.849 155.484 399.84 155.483C399.836 155.483 399.831 155.476 399.821 155.463C399.808 155.447 399.788 155.42 399.751 155.386C399.626 155.268 399.46 155.029 399.41 154.718C399.204 153.623 399.247 152.459 399.592 151.377C399.797 150.732 400.049 150.069 400.419 149.481C400.819 148.833 401.347 148.272 401.934 147.801C402.301 147.515 402.694 147.266 403.105 147.054C403.73 146.737 404.4 146.51 405.081 146.375C405.61 146.27 406.141 146.198 406.682 146.205C406.727 146.207 406.771 146.208 406.815 146.208C406.889 146.209 406.963 146.21 407.038 146.218C407.482 146.264 407.616 146.341 407.675 146.493L407.681 146.507L407.688 146.522C407.699 146.547 407.711 146.572 407.715 146.594C407.731 146.699 407.54 146.753 407.241 146.726C406.348 146.662 405.404 146.739 404.498 147.004C403.825 147.192 403.18 147.5 402.599 147.898L402.592 147.889L402.596 147.885Z" fill="#231F20"/>
<path d="M428.048 161.865C427.956 161.873 427.864 161.88 427.772 161.885L428.141 161.895L428.143 161.896C427.985 161.896 427.829 161.895 427.675 161.891C426.808 161.934 425.932 161.866 425.082 161.675C424.489 161.546 423.901 161.359 423.334 161.113C418.315 159.216 417.419 154.284 418.644 150.944C419.563 148.442 421.099 147.054 422.488 146.27C422.55 146.228 422.613 146.186 422.677 146.146C423.728 145.499 424.914 145.051 426.143 144.903C427.369 144.761 428.63 144.87 429.788 145.286C430.691 145.596 431.53 146.062 432.27 146.647C432.337 146.705 432.405 146.76 432.473 146.816C432.588 146.911 432.703 147.005 432.81 147.106C432.981 147.265 433.151 147.43 433.312 147.6C433.637 147.943 433.941 148.308 434.211 148.702C434.448 149.048 434.664 149.404 434.836 149.797C434.897 149.924 434.943 150.048 434.987 150.164C435.005 150.212 435.022 150.259 435.04 150.304C435.054 150.35 435.068 150.395 435.082 150.438C435.115 150.545 435.147 150.645 435.168 150.741L435.178 150.784C435.205 150.901 435.229 151.009 435.245 151.11C435.259 151.223 435.272 151.323 435.281 151.414C435.306 151.782 435.267 151.995 435.188 152.165C435.178 152.188 435.168 152.213 435.158 152.238C435.135 152.296 435.112 152.353 435.088 152.383C435.031 152.457 434.972 152.337 434.911 152.072C434.901 152.026 434.89 151.977 434.877 151.924L434.877 151.922C434.853 151.82 434.825 151.702 434.8 151.57C434.787 151.517 434.773 151.461 434.759 151.403C434.747 151.354 434.735 151.302 434.722 151.249C434.706 151.183 434.686 151.115 434.665 151.045C434.65 150.994 434.634 150.941 434.62 150.888C434.17 149.374 433.085 148.055 431.804 147.024C430.512 146.015 428.882 145.419 427.219 145.404L426.756 145.408L426.295 145.451C426.141 145.46 425.988 145.488 425.836 145.517C425.78 145.528 425.724 145.538 425.668 145.547C425.572 145.564 425.475 145.58 425.38 145.605C425.309 145.625 425.237 145.644 425.165 145.664C424.938 145.725 424.711 145.786 424.492 145.875C424.441 145.896 424.388 145.914 424.336 145.933C424.242 145.966 424.148 145.999 424.058 146.044L423.636 146.241C423.544 146.279 423.459 146.329 423.374 146.38C423.325 146.409 423.277 146.438 423.227 146.465C423.179 146.495 423.129 146.523 423.079 146.55C422.993 146.598 422.907 146.646 422.829 146.707C422.77 146.748 422.711 146.79 422.652 146.831C422.455 146.968 422.259 147.104 422.08 147.265C421.592 147.656 421.171 148.12 420.786 148.611L420.774 148.605L420.778 148.609C419.246 150.563 418.669 153.241 419.289 155.658C419.518 156.538 419.895 157.38 420.418 158.114C421.34 159.409 422.697 160.396 424.235 160.88C425 161.129 425.8 161.274 426.608 161.326C427.417 161.365 428.23 161.306 429.029 161.163C430.453 160.926 431.772 160.235 432.813 159.26C434.15 158.001 435.016 156.278 435.279 154.46C435.349 154.177 435.381 154.048 435.392 154.057C435.397 154.06 435.401 154.089 435.407 154.14C435.415 154.208 435.428 154.316 435.456 154.46C435.487 154.567 435.492 154.69 435.499 154.832L435.5 154.873L435.502 154.92C435.522 155.101 435.508 155.302 435.477 155.522C435.473 155.552 435.47 155.583 435.466 155.615C435.456 155.696 435.445 155.781 435.431 155.866C435.413 155.94 435.395 156.015 435.376 156.093L435.343 156.228C435.296 156.449 435.21 156.668 435.119 156.896L435.081 156.993C434.681 157.91 434.103 158.745 433.407 159.463C432.71 160.179 431.875 160.774 430.95 161.174C430.489 161.371 430.003 161.536 429.517 161.636C429.034 161.749 428.541 161.817 428.048 161.865Z" fill="#231F20"/>
<path d="M421.644 149.524C421.958 149.071 422.346 148.675 422.761 148.317L422.77 148.324C423.182 147.956 423.656 147.652 424.145 147.398C424.637 147.145 425.157 146.948 425.691 146.824C427.129 146.461 428.65 146.651 429.919 147.251C430.004 147.285 430.079 147.32 430.148 147.352C430.257 147.404 430.348 147.446 430.426 147.46C430.549 147.491 430.621 147.482 430.623 147.423C430.624 147.397 430.614 147.366 430.605 147.334L430.6 147.318C430.598 147.311 430.596 147.303 430.594 147.295C430.547 147.106 430.388 146.928 429.751 146.634C429.701 146.616 429.652 146.596 429.603 146.577C429.478 146.528 429.355 146.479 429.225 146.445C428.414 146.192 427.567 146.119 426.724 146.183C426.181 146.226 425.641 146.337 425.117 146.496C424.592 146.656 424.092 146.891 423.615 147.159C422.989 147.521 422.405 147.964 421.901 148.492C421.499 148.926 421.144 149.402 420.845 149.916C420.559 150.436 420.331 150.987 420.166 151.561C420.032 152.086 419.945 152.628 419.93 153.173C419.92 153.716 419.946 154.259 420.045 154.783C420.341 156.541 421.371 158.178 422.882 159.133C423.307 159.405 423.742 159.489 423.985 159.473C424.053 159.47 424.103 159.475 424.134 159.477C424.158 159.479 424.171 159.481 424.174 159.477C424.181 159.47 424.136 159.427 424.036 159.335C424.014 159.309 423.988 159.295 423.962 159.281C423.943 159.271 423.925 159.262 423.908 159.247C423.891 159.237 423.875 159.227 423.859 159.216C423.832 159.198 423.805 159.18 423.777 159.167C423.709 159.131 423.643 159.091 423.576 159.051L423.515 159.015C423.341 158.911 423.172 158.798 423.007 158.68C422.678 158.443 422.369 158.176 422.092 157.881C421.88 157.648 421.674 157.404 421.492 157.141C421.312 156.877 421.151 156.6 421.011 156.313C420.711 155.661 420.502 154.968 420.42 154.259C420.336 153.549 420.37 152.829 420.513 152.132C420.6 151.738 420.695 151.346 420.849 150.971C421.045 150.454 421.326 149.972 421.644 149.524Z" fill="#231F20"/>
<path d="M436.843 165.226C436.77 165.261 436.696 165.296 436.623 165.331C436.549 165.366 436.475 165.401 436.403 165.436C436.374 165.449 436.347 165.466 436.32 165.483C436.296 165.498 436.273 165.513 436.248 165.525L436.195 165.551C436.022 165.634 435.848 165.717 435.682 165.812C435.602 165.858 435.519 165.906 435.443 165.958C435.427 165.969 435.41 165.981 435.394 165.993C435.362 166.016 435.33 166.039 435.294 166.057C435.238 166.083 435.179 166.105 435.12 166.125C435.082 166.136 435.068 166.112 435.068 166.061C435.07 166.013 435.074 165.926 435.113 165.862C435.176 165.777 435.254 165.709 435.333 165.641C435.349 165.627 435.365 165.613 435.381 165.599C435.468 165.526 435.571 165.476 435.675 165.425L435.708 165.409C435.796 165.37 435.875 165.316 435.954 165.262C436.002 165.229 436.05 165.196 436.1 165.166C436.245 165.078 436.396 164.999 436.547 164.924C436.593 164.901 436.64 164.878 436.687 164.854C436.733 164.831 436.78 164.807 436.827 164.784C436.87 164.762 436.914 164.741 436.958 164.72C437.055 164.672 437.153 164.624 437.245 164.571C437.301 164.539 437.353 164.5 437.404 164.461C437.45 164.427 437.496 164.392 437.545 164.363C437.555 164.357 437.565 164.35 437.574 164.343C437.586 164.335 437.598 164.326 437.611 164.32C437.653 164.296 437.687 164.29 437.719 164.307C437.75 164.318 437.774 164.343 437.802 164.38C437.809 164.389 437.816 164.397 437.823 164.406C437.828 164.413 437.834 164.42 437.84 164.428C437.873 164.482 437.865 164.557 437.82 164.632C437.671 164.808 437.481 164.912 437.287 165.014L436.851 165.236L436.846 165.226L436.843 165.226Z" fill="#231F20"/>
<path d="M438.128 131.3C438.144 131.416 438.042 131.479 437.875 131.519C437.827 131.547 437.678 131.489 437.664 131.456C437.639 131.389 437.618 131.32 437.602 131.251C437.584 131.219 437.672 130.614 437.689 130.41C437.715 130.21 437.756 130.013 437.814 129.82C437.918 129.436 438.023 129.047 438.136 128.663C438.161 128.577 438.193 128.493 438.233 128.413C438.368 128.138 438.476 127.85 438.555 127.553C438.574 127.506 438.583 127.455 438.58 127.404C438.648 127.072 438.755 126.749 438.897 126.441C439.042 126.209 439.167 125.976 439.303 125.745C439.321 125.712 439.326 125.672 439.368 125.648C439.441 125.601 439.495 125.529 439.519 125.445C439.571 125.343 439.631 125.245 439.699 125.153C439.741 125.108 439.787 125.066 439.835 125.028C439.884 125 439.934 125.04 439.937 125.062C439.94 125.083 439.997 125.093 440.027 125.098C440.034 125.105 440.038 125.114 440.041 125.123C440.054 125.376 440.044 125.631 440.014 125.883C440.014 125.883 439.949 126.124 439.88 126.367C439.811 126.61 439.741 126.868 439.731 126.915C439.712 126.969 439.686 127.02 439.652 127.067C439.631 127.079 439.445 127.82 439.432 127.845C439.394 127.998 439.33 128.143 439.243 128.273C439.226 128.293 439.214 128.316 439.207 128.34C439.135 128.594 439.032 128.843 438.935 129.093C438.889 129.221 438.855 129.356 438.819 129.488L438.784 129.555C438.767 129.581 438.753 129.608 438.744 129.638C438.661 129.954 438.538 130.255 438.472 130.576C438.458 130.648 438.29 130.976 438.285 131.057C438.281 131.139 438.137 131.267 438.128 131.3Z" fill="#221F1F"/>
<path d="M445.146 139.204C445.113 139.26 445.05 139.222 444.947 139.138C444.906 139.095 444.876 139.042 444.859 138.985C444.872 138.941 444.887 138.898 444.906 138.856C444.926 138.844 445.183 138.623 445.267 138.551C445.353 138.488 445.447 138.434 445.545 138.392L446.116 138.115C446.16 138.097 446.207 138.086 446.254 138.082C446.413 138.062 446.567 138.016 446.711 137.945C446.739 137.938 446.764 137.923 446.784 137.903C446.934 137.808 447.098 137.738 447.271 137.697C447.42 137.697 447.57 137.689 447.718 137.672C447.718 137.672 447.753 137.652 447.781 137.677C447.809 137.703 447.877 137.701 447.92 137.695C447.982 137.682 448.046 137.681 448.108 137.693C448.146 137.702 448.181 137.715 448.215 137.734C448.248 137.743 448.253 137.8 448.255 137.804C448.257 137.807 448.278 137.845 448.29 137.866C448.297 137.873 448.301 137.882 448.304 137.891C448.265 137.95 448.222 138.008 448.176 138.062C448.129 138.12 448.076 138.174 448.018 138.222L447.524 138.505C447.498 138.519 447.468 138.523 447.439 138.517C447.439 138.517 447.091 138.716 447.055 138.709C446.976 138.732 446.913 138.791 446.81 138.757C446.803 138.758 446.796 138.761 446.789 138.764C446.782 138.768 446.777 138.773 446.772 138.779C446.644 138.83 446.511 138.867 446.375 138.892C446.306 138.912 446.239 138.937 446.173 138.966L446.132 138.967L446.093 138.989C445.933 139.038 445.776 139.098 445.623 139.166C445.588 139.186 445.395 139.204 445.362 139.228C445.33 139.251 445.157 139.184 445.146 139.204Z" fill="#221F1F"/>
<path d="M440.802 136.034C440.796 136.057 440.785 136.079 440.769 136.097C440.752 136.116 440.732 136.13 440.709 136.138C440.651 136.154 440.592 136.163 440.531 136.166C440.483 136.17 440.368 136.13 440.371 136.087C440.372 136.009 440.382 135.932 440.401 135.857C440.409 135.806 440.729 135.284 440.838 135.111C440.941 134.943 441.057 134.784 441.184 134.635C441.436 134.324 441.69 134.016 441.955 133.73C442.013 133.663 442.077 133.602 442.146 133.546C442.377 133.35 442.59 133.132 442.78 132.895C442.816 132.86 442.845 132.818 442.866 132.772C443.066 132.502 443.287 132.25 443.529 132.017C443.742 131.857 443.939 131.684 444.164 131.513C444.19 131.482 444.225 131.462 444.265 131.456C444.349 131.442 444.426 131.398 444.48 131.332C444.564 131.254 444.653 131.183 444.746 131.119C444.799 131.088 444.857 131.066 444.917 131.054C444.965 131.026 445.021 131.123 445.015 131.145C445.009 131.167 445.053 131.211 445.095 131.229C445.102 131.24 445.109 131.252 445.115 131.264C445.016 131.494 444.899 131.715 444.765 131.927L444.077 132.743C444.039 132.786 443.996 132.824 443.947 132.855C443.926 132.867 443.45 133.455 443.428 133.472C443.329 133.596 443.21 133.702 443.078 133.789C443.053 133.806 443.03 133.826 443.011 133.85C442.832 134.054 442.636 134.236 442.444 134.425C442.348 134.522 442.264 134.626 442.159 134.732C442.138 134.747 442.116 134.76 442.092 134.77L442.013 134.816C441.798 135.055 441.559 135.275 441.366 135.534C441.321 135.593 441.06 135.807 440.997 135.89C440.933 135.972 440.809 135.997 440.802 136.034Z" fill="#221F1F"/>
<rect x="371.697" y="103.665" width="89.296" height="3.44372" fill="white" stroke="#C7C7C7" stroke-width="0.786682"/>
<rect x="0.5" y="0.5" width="584.5" height="239" rx="3.5" stroke="#E5E5E5"/>
</svg>
