<svg width="410" height="282" viewBox="0 0 410 282" fill="none" xmlns="http://www.w3.org/2000/svg">
<path d="M140.613 174.772C138.932 174.772 137.229 174.69 135.533 174.556C134.915 174.489 134.306 174.4 133.688 174.333C132.608 174.241 131.533 174.094 130.467 173.894C129.405 173.685 128.354 173.417 127.321 173.091C126.413 172.791 125.532 172.416 124.688 171.968C123.658 171.367 122.665 170.706 121.713 169.989C121.408 169.781 121.14 170.086 121.11 170.606C121.103 170.943 121.179 171.276 121.332 171.576C121.485 171.876 121.711 172.133 121.988 172.325C124.235 173.802 126.771 174.785 129.426 175.211L131.799 175.642C132.61 175.761 133.383 175.88 134.179 175.969C135.92 176.155 137.668 176.267 139.386 176.326C140.464 176.326 141.55 176.326 142.629 176.326C144.281 176.268 145.922 176.047 147.53 175.664C148.823 175.409 150.054 174.904 151.153 174.177C151.401 173.997 151.635 173.798 151.852 173.582C152.596 172.696 152.596 172.22 152.328 171.871C152.269 171.785 152.202 171.705 152.127 171.633C151.845 171.439 151.45 171.7 151.064 172.168C150.401 172.871 149.576 173.4 148.661 173.708C147.663 174.07 146.628 174.319 145.574 174.452C143.916 174.682 142.242 174.784 140.568 174.757L140.613 174.772Z" fill="black"/>
<path d="M106.903 233.979C106.903 233.979 105.988 234.41 105.297 234.723C103.567 235.381 101.698 235.585 99.8669 235.318C96.4825 234.745 98.7214 232.99 98.7214 232.99L106.903 233.979Z" fill="black"/>
<path d="M43.4049 254.181C46.8115 262.95 54.5174 266.082 56.2876 263.53C57.0909 262.377 55.038 258.867 53.7364 255.118C53.0504 252.981 52.5942 250.776 52.3752 248.542L43.4049 254.181Z" fill="black"/>
<path d="M48.3359 267.637C45.9094 265.998 43.7536 263.99 41.9466 261.686C36.0482 254.248 29.3762 240.116 31.7043 225.492C32.1574 222.198 33.3639 219.052 35.23 216.299C35.23 216.299 9.70987 229.308 4.18336 228.839C4.18336 228.839 -1.3357 230.825 6.95778 243.716C15.2513 256.606 5.55197 259.715 7.90241 264.26C9.45697 267.272 12.9529 269.466 15.4893 271.832C17.0739 273.283 18.0205 275.301 18.1224 277.447C18.1893 278.935 18.6728 280.795 20.7406 281.122C24.1844 281.672 38.592 269.429 48.3359 267.696V267.637Z" fill="black"/>
<path d="M131.315 189.216C134.357 187.178 131.315 182.834 131.315 182.834L128.6 185.75L118.269 188.978C121.065 190.763 116.201 194.483 116.201 194.483L133.346 189.216C132.671 189.294 131.99 189.294 131.315 189.216Z" fill="black"/>
<path d="M116.187 202.709C116.187 202.709 113.479 200.939 113.598 199.734C113.717 198.529 113.01 201.965 110.191 202.709C107.372 203.453 116.187 203.988 116.187 203.988V202.709Z" fill="black"/>
<path d="M106.903 214.089L104.441 212.096C104.441 212.096 103.586 214.825 102.44 214.892C101.295 214.959 106.903 214.892 106.903 214.892V214.089Z" fill="black"/>
<path d="M102.292 224.54L99.473 223.134C99.2244 224.185 98.5864 225.102 97.6878 225.7C96.2002 226.652 102.292 224.54 102.292 224.54Z" fill="black"/>
<path d="M109.41 189.633C110.89 189.838 112.38 189.955 113.873 189.983C114.423 189.983 114.966 190.02 115.517 190.02C117.444 189.957 119.362 189.734 121.252 189.35L122.516 189.105L123.751 188.785C124.819 188.556 125.852 188.186 126.823 187.684C127.128 187.536 127.024 187.402 126.689 187.335C126.194 187.247 125.685 187.273 125.201 187.409C124.941 187.476 124.688 187.565 124.457 187.655L123.676 187.855C123.156 187.982 122.643 188.138 122.114 188.264C121.058 188.45 120.002 188.726 118.916 188.845C118.263 188.961 117.601 189.02 116.938 189.023C116.268 189.023 115.591 189.075 114.922 189.023C113.447 189.008 111.975 188.911 110.511 188.733L109.157 188.562L107.811 188.324C106.457 188.076 105.119 187.75 103.802 187.35C102.802 187.019 101.822 186.634 100.864 186.197L100.232 185.921C99.4432 185.587 99.1828 185.527 98.9002 185.676C98.8329 185.702 98.7681 185.735 98.7068 185.773C98.5431 185.899 98.7886 186.226 99.3539 186.561C101.108 187.537 102.987 188.268 104.94 188.733C105.684 188.941 106.428 189.09 107.171 189.261C107.915 189.432 108.659 189.544 109.403 189.648L109.41 189.633Z" fill="black"/>
<path d="M131.293 178.06C134.112 179.272 141.706 178.803 143.432 178.528C147.039 177.993 149.739 174.772 149.739 174.772C149.739 174.772 136.648 175.88 135.443 174.936C135.443 174.936 135.525 178.528 131.293 178.06Z" fill="black"/>
<path d="M99.6294 167.058C98.3429 166.594 97.0079 166.277 95.65 166.114C94.9608 166.041 94.2674 166.016 93.5747 166.039C92.8838 166.054 92.195 166.121 91.5144 166.24C90.8301 166.329 90.1755 166.538 89.5135 166.686C88.8515 166.835 88.2639 167.096 87.5796 167.363C86.9218 167.667 86.2963 168.035 85.7127 168.464C85.1623 168.858 84.6416 169.26 84.1432 169.677C82.1872 171.34 80.3225 173.108 78.5572 174.973C76.7869 176.817 75.0911 178.692 73.4324 180.648C71.0522 183.497 68.7687 186.375 66.4629 189.209C62.477 194.241 58.0431 198.902 53.2156 203.133C48.2781 207.251 42.932 210.852 37.2609 213.881C32.2382 216.62 27.0738 219.09 21.7896 221.282C15.0953 224.153 8.17789 226.69 1.3869 229.427C-0.72551 230.282 -0.27179 230.647 1.72163 230.461C4.97707 230.042 8.16928 229.228 11.2275 228.036C18.2943 225.435 25.2211 222.468 31.9798 219.147C35.3716 217.481 38.7113 215.689 41.9618 213.725C45.238 211.781 48.3881 209.632 51.3933 207.291C55.0333 204.41 58.4681 201.278 61.6727 197.919C64.9157 194.55 67.9207 190.927 70.7918 187.32C72.3836 185.334 73.9456 183.348 75.582 181.444C77.2183 179.54 78.9291 177.68 80.6845 175.88C82.4149 174.078 84.2583 172.389 86.2036 170.822C86.687 170.45 87.178 170.078 87.6912 169.788C87.9303 169.643 88.1788 169.514 88.435 169.401C88.6656 169.29 88.9929 169.208 89.2681 169.104L90.1309 168.814L91.0086 168.606C91.5894 168.47 92.1782 168.37 92.7714 168.308C95.762 168.14 98.7413 168.796 101.385 170.205C104.167 171.492 106.896 173.061 109.723 174.437L111.337 175.181C111.631 175.323 111.934 175.444 112.244 175.545C112.549 175.642 112.847 175.731 113.144 175.806C114.327 176.111 115.495 176.326 116.655 176.549C118.983 177.003 121.304 177.442 123.558 178.037C124.676 178.316 125.774 178.669 126.845 179.093C127.36 179.301 127.858 179.549 128.333 179.837C128.766 180.078 129.147 180.402 129.456 180.789C129.573 180.961 129.651 181.157 129.685 181.363C129.718 181.568 129.706 181.779 129.65 181.979C129.577 182.463 129.399 182.925 129.129 183.333C128.503 184.187 127.657 184.855 126.682 185.267C125.09 185.986 123.396 186.455 121.661 186.658C119.908 186.89 118.14 186.992 116.373 186.963C112.831 186.902 109.304 186.481 105.848 185.706C104.36 185.371 102.872 184.962 101.385 184.486C99.4495 183.865 97.5562 183.119 95.7169 182.254C94.8956 181.829 94.0301 181.495 93.1359 181.258C92.8404 181.156 92.5368 181.079 92.2284 181.027C91.8565 181.027 92.0574 181.473 92.8309 182.321C94.0797 183.523 95.5234 184.504 97.1004 185.222C100.154 186.652 103.375 187.692 106.688 188.316C110.052 188.992 113.477 189.323 116.908 189.306C118.668 189.306 120.426 189.176 122.167 188.919C123.995 188.672 125.78 188.171 127.47 187.431C127.923 187.213 128.36 186.964 128.779 186.688L129.419 186.264L130.021 185.743C130.893 184.971 131.519 183.959 131.821 182.835C131.898 182.547 131.945 182.253 131.963 181.957L132 181.511C132.001 181.317 131.988 181.123 131.963 180.93C131.837 180.193 131.495 179.51 130.981 178.967C130.225 178.21 129.328 177.608 128.34 177.197C125.876 176.196 123.317 175.448 120.701 174.965L116.982 174.221C115.748 173.976 114.498 173.73 113.39 173.425C113.136 173.361 112.888 173.279 112.646 173.18C112.445 173.098 112.103 172.927 111.843 172.808C111.277 172.54 110.712 172.272 110.154 171.99C109.031 171.432 107.923 170.844 106.785 170.257C104.5 168.984 102.129 167.874 99.6889 166.932L99.6294 167.058Z" fill="black"/>
<path d="M89.4908 201.296C88.9999 202.178 88.4455 203.023 87.8321 203.825C87.2176 204.599 86.5163 205.301 85.742 205.915C85.4649 206.147 85.166 206.351 84.8494 206.525C84.537 206.711 84.232 206.912 83.9048 207.076C82.7831 207.732 81.5769 208.233 80.3196 208.563C79.047 208.919 77.7279 209.079 76.4072 209.039C75.8182 209.021 75.2314 208.959 74.6518 208.853C74.079 208.736 73.5148 208.579 72.9633 208.385C71.5696 207.813 70.2154 207.15 68.9096 206.399C68.4781 206.19 68.3145 206.466 68.4335 207.009C68.5071 207.408 68.6619 207.789 68.8884 208.127C69.1148 208.464 69.4081 208.752 69.7501 208.972C72.7596 210.822 76.3603 211.458 79.8213 210.75C81.9133 210.388 83.9267 209.666 85.7717 208.615L86.5155 208.154L87.2147 207.626C87.6776 207.27 88.1173 206.885 88.5313 206.473C89.3431 205.66 90.0754 204.77 90.7181 203.818C91.4872 202.672 92.1804 201.476 92.7933 200.24C93.7379 198.41 94.5413 196.521 95.5157 194.795C96.2753 193.496 97.1677 192.28 98.1785 191.165C98.3867 190.92 98.6099 190.697 98.833 190.466C99.1288 190.167 99.3794 189.826 99.5768 189.455C99.6879 189.173 99.6879 188.859 99.5768 188.577C99.5326 188.423 99.4805 188.272 99.4207 188.123C99.2049 187.677 98.5281 187.707 97.6727 188.294C96.4475 189.22 95.3908 190.35 94.5487 191.634C93.7091 192.892 92.9633 194.209 92.3173 195.576C91.3503 197.547 90.5024 199.511 89.4462 201.281L89.4908 201.296Z" fill="black"/>
<path d="M124.368 204.353C129.047 204.344 133.706 203.757 138.24 202.605C139.928 202.195 141.576 201.635 143.164 200.931C144.61 200.27 145.95 199.4 147.144 198.35C147.449 198.075 147.724 197.763 148.014 197.473C148.304 197.183 148.527 196.855 148.758 196.528C149.233 195.871 149.641 195.168 149.978 194.43C150.658 192.91 150.915 191.235 150.721 189.581C150.62 188.76 150.407 187.957 150.089 187.193C149.767 186.448 149.357 185.744 148.869 185.096C148.024 183.956 146.987 182.972 145.805 182.187C144.651 181.422 143.401 180.814 142.086 180.38C138.806 179.301 135.347 178.691 131.992 179.316C130.944 179.502 131.1 179.77 131.992 180.253C132.424 180.499 133.026 180.811 133.74 181.183C134.52 181.517 135.333 181.766 136.165 181.927C139.204 182.274 142.134 183.268 144.756 184.843C145.917 185.634 146.871 186.693 147.538 187.93C148.184 189.152 148.419 190.55 148.207 191.916C147.843 193.704 146.909 195.324 145.545 196.535C144.036 197.757 142.317 198.692 140.472 199.295C136.228 200.702 131.804 201.488 127.336 201.631C124.588 201.793 121.83 201.686 119.102 201.311C118.708 201.244 118.314 201.162 117.942 201.065C117.646 200.992 117.362 200.874 117.101 200.716C116.563 200.292 116.147 199.732 115.896 199.094C115.817 198.801 115.811 198.492 115.877 198.196C115.943 197.899 116.08 197.623 116.276 197.391C116.742 196.79 117.308 196.275 117.949 195.866C118.621 195.414 119.327 195.016 120.062 194.676C122.987 193.409 126.054 192.495 129.196 191.954C129.887 191.82 130.572 191.73 131.256 191.574C132.166 191.413 133.065 191.197 133.949 190.927C134.394 190.782 134.796 190.526 135.116 190.183C135.25 190.064 135.374 189.935 135.488 189.796C135.615 189.596 135.406 189.41 134.886 189.239C134.121 189.029 133.327 188.949 132.535 189.001C129.468 189.132 126.429 189.65 123.491 190.54C121.946 190.981 120.437 191.538 118.976 192.206C117.346 192.915 115.865 193.924 114.609 195.182C114.138 195.687 113.758 196.271 113.486 196.907C113.419 197.093 113.338 197.264 113.286 197.45C113.233 197.636 113.204 197.859 113.174 198.06C113.114 198.475 113.114 198.895 113.174 199.31C113.252 199.7 113.369 200.081 113.524 200.448C113.676 200.771 113.857 201.08 114.067 201.37C114.257 201.63 114.463 201.879 114.684 202.114C114.914 202.337 115.093 202.516 115.368 202.761C115.813 203.1 116.318 203.352 116.856 203.505C117.238 203.631 117.628 203.733 118.024 203.81C118.739 203.952 119.462 204.056 120.188 204.122C121.594 204.271 122.985 204.323 124.361 204.338L124.368 204.353Z" fill="black"/>
<path d="M109.254 215.547C111.283 216.268 113.379 216.788 115.509 217.102C116.558 217.221 117.592 217.37 118.655 217.474C119.734 217.558 120.817 217.575 121.899 217.526C123.453 217.459 124.993 217.347 126.488 217.132C129.136 216.745 131.694 216.261 134.246 216.098C136.98 216.029 139.689 215.558 142.286 214.699C144.721 213.903 146.783 212.248 148.088 210.043C148.873 208.592 149.2 206.937 149.027 205.297C148.855 203.656 148.19 202.106 147.121 200.85C146.429 200.106 146.31 200.478 146.474 201.303C146.704 202.508 146.838 203.73 146.876 204.956C146.927 206.208 146.671 207.454 146.132 208.585C145.869 209.134 145.52 209.636 145.098 210.073C144.905 210.311 144.659 210.504 144.443 210.728C144.207 210.938 143.959 211.134 143.7 211.315C141.587 212.803 138.679 213.398 135.741 213.74C135.295 213.792 134.848 213.829 134.395 213.859C133.941 213.889 133.428 213.926 132.952 213.971C131.992 214.052 131.047 214.171 130.095 214.283C128.206 214.521 126.339 214.781 124.509 214.982C122.536 215.234 120.541 215.277 118.559 215.109C117.562 214.975 116.551 214.871 115.584 214.714L114.096 214.424L113.352 214.283L112.608 214.082C110.237 213.577 108.003 212.562 106.063 211.107C105.386 210.568 104.814 209.91 104.374 209.166C103.976 208.472 103.817 207.667 103.921 206.875C103.975 206.528 104.116 206.2 104.33 205.923L104.501 205.774C104.558 205.704 104.632 205.65 104.717 205.618L105.282 205.313C106.098 204.967 106.96 204.741 107.841 204.643C110.678 204.465 113.522 204.842 116.216 205.751C116.811 205.937 117.398 206.138 117.986 206.346C120.218 207.142 120.961 207.254 121.646 206.956C121.81 206.9 121.969 206.831 122.122 206.748C122.523 206.48 121.809 205.647 120.173 204.77C118.924 204.174 117.631 203.677 116.305 203.282C114.943 202.85 113.543 202.543 112.125 202.367C110.646 202.162 109.148 202.135 107.662 202.285C106.865 202.375 106.078 202.54 105.312 202.776C104.91 202.905 104.517 203.062 104.136 203.245L103.556 203.55C103.45 203.605 103.348 203.667 103.251 203.736L102.872 204.041C102.534 204.344 102.247 204.701 102.024 205.097C101.841 205.46 101.699 205.841 101.6 206.235C101.444 206.971 101.444 207.731 101.6 208.466C101.665 208.811 101.76 209.149 101.883 209.478C102.016 209.798 102.158 210.103 102.299 210.415C102.624 210.969 103.005 211.488 103.437 211.962C105.068 213.639 107.067 214.912 109.276 215.681L109.254 215.547Z" fill="black"/>
<path d="M120.382 226.519C118.619 226.34 116.856 226.072 115.108 225.73C113.36 225.388 111.575 224.986 109.812 224.555C108.525 224.242 107.261 223.848 105.974 223.521L104.278 223.082L103.423 222.859C103.177 222.785 102.924 222.725 102.679 222.628C101.663 222.267 100.701 221.766 99.8227 221.141C98.9738 220.604 98.2851 219.849 97.8293 218.954C97.657 218.566 97.6267 218.13 97.7436 217.722C97.8606 217.314 98.1174 216.96 98.469 216.723C99.1815 216.153 100.045 215.804 100.953 215.718C101.939 215.581 102.937 215.554 103.929 215.637C106.496 215.902 109.032 216.416 111.501 217.169C112.244 217.399 112.304 217.169 111.806 216.544C111.455 216.136 111.064 215.764 110.638 215.436C110.037 215.018 109.371 214.704 108.667 214.506C105.894 213.585 102.943 213.33 100.053 213.762C99.2282 213.927 98.4396 214.24 97.7252 214.685C97.3477 214.924 97.0027 215.212 96.6987 215.54C96.5312 215.705 96.3839 215.89 96.2599 216.09C96.1066 216.286 95.9837 216.505 95.8954 216.737C95.7908 216.978 95.7062 217.227 95.6425 217.481C95.6425 217.742 95.583 218.002 95.5681 218.262C95.5876 218.753 95.6933 219.236 95.8805 219.69C96.2089 220.47 96.701 221.17 97.3235 221.743C97.9822 222.381 98.7108 222.942 99.4955 223.417C100.262 223.904 101.074 224.315 101.92 224.644C102.82 224.986 103.601 225.18 104.412 225.425L106.837 226.117C110.399 227.14 114.012 227.981 117.659 228.638C119.932 229.016 122.229 229.237 124.532 229.3C128.106 229.497 131.676 228.839 134.945 227.381C136.231 226.765 137.389 225.912 138.36 224.867L139.044 224.019C139.25 223.72 139.438 223.41 139.609 223.09L139.877 222.614C139.959 222.45 140.003 222.271 140.07 222.108C140.197 221.766 140.323 221.423 140.435 221.074C140.561 220.456 140.673 219.847 140.747 219.214C140.813 218.393 140.733 217.567 140.509 216.775C140.395 216.366 140.129 216.018 139.765 215.8C139.639 215.71 139.508 215.628 139.371 215.555C138.962 215.421 138.627 216.358 138.59 217.786C138.502 218.835 138.251 219.864 137.846 220.836L137.564 221.535L137.184 222.167C136.926 222.581 136.63 222.969 136.299 223.328C134.742 224.745 132.829 225.714 130.765 226.132C129.102 226.519 127.4 226.721 125.692 226.734C123.925 226.758 122.159 226.663 120.404 226.452L120.382 226.519Z" fill="black"/>
<path d="M89.6844 245.002C91.5142 244.943 93.3291 244.757 95.1365 244.556L97.844 244.266C98.7291 244.169 99.5994 244.072 100.492 243.991C101.779 243.872 103.088 243.842 104.404 243.708C106.739 243.466 109.059 243.094 111.352 242.592C113.685 242.093 115.938 241.272 118.046 240.153C118.522 239.907 118.976 239.624 119.429 239.334C119.886 239.054 120.327 238.751 120.753 238.427C121.621 237.774 122.412 237.026 123.111 236.196C123.565 235.644 123.949 235.04 124.257 234.395C124.602 233.734 124.815 233.011 124.881 232.268C124.975 231.49 124.846 230.7 124.51 229.992C124.343 229.647 124.136 229.322 123.892 229.025C123.624 228.772 123.33 228.548 123.015 228.356C122.271 227.895 122.271 228.162 122.531 228.862C122.611 229.067 122.663 229.282 122.687 229.501C122.691 229.566 122.691 229.63 122.687 229.695L122.732 229.866L122.777 230.238C122.821 230.732 122.821 231.23 122.777 231.725C122.661 232.767 122.233 233.75 121.549 234.544C121.194 234.994 120.798 235.41 120.367 235.786C119.89 236.144 119.393 236.475 118.879 236.776C118.388 237.133 117.838 237.408 117.31 237.72C116.781 238.033 116.224 238.293 115.636 238.516C114.488 239.052 113.308 239.516 112.103 239.907C109.128 240.867 105.847 241.06 102.597 241.462C100.804 241.685 98.9895 241.923 97.1895 242.205C95.3894 242.488 93.6415 242.689 91.8638 242.808C89.6762 242.978 87.4801 243.01 85.2885 242.905C81.9664 242.768 78.6692 242.269 75.4553 241.417C73.0025 240.721 70.5911 239.887 68.2329 238.918C67.7123 238.71 67.2065 238.479 66.6783 238.278C64.7147 237.534 64.0155 237.482 63.4056 237.802C63.2686 237.855 63.1367 237.919 63.0114 237.996C62.7064 238.211 63.361 238.91 64.7445 239.639C69.1081 241.765 73.7282 243.318 78.4901 244.258C82.178 244.936 85.9318 245.185 89.677 245.002H89.6844Z" fill="black"/>
<path d="M101.34 224.176C100.218 224.238 99.1053 224.405 98.0149 224.674C97.7323 224.763 97.4496 224.823 97.167 224.897C96.8843 224.972 96.5868 225.113 96.2967 225.217C95.7073 225.478 95.1607 225.827 94.6752 226.251C93.8531 226.884 93.2666 227.775 93.0091 228.78C92.9345 229.273 92.962 229.777 93.09 230.259C93.2179 230.741 93.4436 231.192 93.7529 231.584C94.2564 232.243 94.8892 232.792 95.6124 233.198C96.2674 233.578 96.967 233.875 97.6951 234.083C98.3837 234.298 99.0909 234.447 99.8075 234.529C100.432 234.611 101.065 234.663 101.689 234.701C102.314 234.738 102.939 234.701 103.556 234.701C104.35 234.685 105.143 234.62 105.929 234.507C106.321 234.443 106.708 234.356 107.089 234.247L107.647 234.046C107.829 233.947 108.006 233.837 108.175 233.719C108.607 233.458 108.488 233.302 108.012 233.072C107.386 232.66 106.648 232.452 105.899 232.477C105.175 232.546 104.448 232.578 103.72 232.573C103.355 232.573 102.976 232.573 102.641 232.536C102.459 232.543 102.278 232.515 102.106 232.454C101.934 232.405 101.757 232.377 101.578 232.372C100.88 232.294 100.187 232.177 99.5025 232.023C98.8205 231.911 98.147 231.752 97.4868 231.547C96.7612 231.328 96.1218 230.888 95.6571 230.29C95.4846 230.074 95.3788 229.813 95.3523 229.538C95.3259 229.264 95.3801 228.987 95.5083 228.743C95.698 228.379 95.9497 228.052 96.2521 227.776C96.4 227.621 96.5676 227.486 96.7505 227.374L97.0034 227.188L97.3158 227.047C97.742 226.835 98.1912 226.673 98.6546 226.563C99.1455 226.481 99.6216 226.355 100.142 226.318C101.401 226.176 102.669 226.124 103.936 226.162C105.881 226.204 107.821 226.373 109.745 226.667C111.232 226.92 112.661 227.307 114.104 227.686C114.423 227.768 114.728 227.872 115.048 227.954C116.246 228.207 116.662 228.11 117.034 227.686C117.121 227.607 117.201 227.52 117.272 227.426C117.458 227.158 117.064 226.682 116.209 226.288C113.536 225.323 110.756 224.686 107.93 224.391C105.762 224.121 103.575 224.034 101.392 224.131L101.34 224.176Z" fill="black"/>
<path d="M46.1867 258.1C43.9483 255.103 42.0849 251.843 40.6379 248.394C40.0949 247.129 39.6635 245.82 39.2023 244.518C37.5633 239.923 36.5063 235.14 36.056 230.282C35.8924 228.125 35.8924 225.96 36.056 223.803C36.2983 221.048 36.7357 218.314 37.3651 215.621C37.5362 214.773 37.2015 214.773 36.6585 215.391C36.3202 215.81 36.0237 216.26 35.7733 216.737C35.4343 217.413 35.1627 218.12 34.9626 218.849C34.2515 221.713 33.8967 224.654 33.9064 227.604C33.8945 230.552 34.2013 233.492 34.8213 236.374C35.4919 239.904 36.4065 243.383 37.5585 246.787C38.8919 250.52 40.6382 254.093 42.7651 257.438C44.0777 259.527 45.6305 261.454 47.3916 263.181C48.776 264.588 50.5164 265.593 52.4273 266.089C53.4789 266.291 54.5671 266.163 55.5438 265.724C56.0486 265.505 56.5058 265.189 56.8901 264.795C57.2614 264.391 57.5585 263.925 57.7678 263.419C58.2459 261.964 58.3758 260.418 58.1471 258.904C57.9822 257.499 57.7338 256.106 57.4033 254.731L57.0091 252.961C56.4587 250.774 56.3099 250.32 55.6851 249.859C55.5438 249.747 55.4322 249.591 55.2983 249.487C55.2474 249.447 55.1845 249.426 55.1198 249.426C55.0552 249.426 54.9923 249.447 54.9413 249.487C54.7674 249.608 54.6391 249.783 54.5769 249.985C54.3524 250.679 54.3013 251.417 54.4281 252.135C54.7702 254.709 55.4471 257.133 55.6703 259.476C55.8207 260.471 55.7521 261.486 55.4694 262.452C55.3582 262.748 55.1646 263.006 54.9116 263.195C54.8396 263.233 54.77 263.275 54.7033 263.322L54.4504 263.433C54.2712 263.513 54.0803 263.563 53.8851 263.582C53.7438 263.582 53.6322 263.649 53.4834 263.582H53.0446C52.707 263.507 52.378 263.397 52.0628 263.255C51.3263 262.922 50.6363 262.494 50.0099 261.983C48.6255 260.831 47.3889 259.511 46.328 258.056L46.1867 258.1Z" fill="black"/>
<path d="M51.0951 249.465C52.1811 248.721 53.267 247.977 54.4125 247.33C54.829 247.085 55.2753 246.921 55.6993 246.691C56.4431 246.282 57.1869 245.947 57.9754 245.56L59.1431 245.039L60.3332 244.571C61.0479 244.318 61.7784 244.111 62.52 243.953C63.4647 243.745 64.4316 243.619 65.3688 243.321C65.6589 243.224 65.5845 242.979 65.2944 242.748C64.8897 242.454 64.3961 242.307 63.8961 242.332C61.8355 242.483 59.8107 242.952 57.8935 243.723C57.3282 243.968 56.7406 244.199 56.153 244.467C55.5654 244.734 54.9629 244.935 54.3902 245.21C53.141 245.806 51.9288 246.477 50.7604 247.219C50.0166 247.672 49.3397 248.148 48.6331 248.617C47.5769 249.361 46.5504 250.105 45.4942 250.811C44.6835 251.362 43.8058 251.786 42.9727 252.299C42.7867 252.411 42.6008 252.507 42.4223 252.634C41.7752 253.095 41.6785 253.377 41.8644 253.928C41.9165 254.054 41.9462 254.188 42.0057 254.307C42.2066 254.701 42.6901 254.798 43.2405 254.568C44.8702 253.837 46.4101 252.921 47.8298 251.838C48.9232 251.094 50.0091 250.291 51.1174 249.562L51.0951 249.465Z" fill="black"/>
<path d="M34.449 275.238C35.8176 274.405 37.2457 273.528 38.6068 272.732C39.1126 272.442 39.6556 272.219 40.1614 271.936C41.9358 270.9 43.7771 269.983 45.673 269.191C46.5196 268.857 47.3898 268.586 48.2764 268.38C49.3995 268.083 50.545 267.912 51.6533 267.533C51.9954 267.414 51.9062 267.042 51.5343 266.692C51.3033 266.477 51.0295 266.314 50.7307 266.212C50.432 266.111 50.1152 266.074 49.8012 266.104C48.559 266.247 47.335 266.519 46.1491 266.915C44.9655 267.306 43.8141 267.789 42.7052 268.358C41.3887 269.057 39.9308 269.563 38.592 270.285C37.1044 271.066 35.7209 271.921 34.3076 272.732L31.682 274.264C30.358 275.045 29.0638 275.893 27.7621 276.719C26.758 277.366 25.7018 277.924 24.7199 278.638C24.4979 278.789 24.2867 278.955 24.0877 279.136C23.8001 279.366 23.5878 279.677 23.4778 280.029C23.4035 280.277 23.4302 280.544 23.5521 280.772C23.5943 280.882 23.644 280.989 23.7009 281.092C23.8943 281.397 24.4447 281.36 25.0621 281.092C25.3005 280.994 25.5296 280.875 25.7464 280.735L26.4084 280.363L27.6952 279.523C28.558 278.957 29.4431 278.385 30.3431 277.819C31.6894 276.979 33.058 276.138 34.4713 275.335L34.449 275.238Z" fill="black"/>
<path d="M144.615 165.146C146.088 165.728 147.503 166.447 148.84 167.296C149.446 167.686 150.003 168.148 150.498 168.672C150.68 168.873 150.833 169.098 150.952 169.341C151.034 169.542 151.034 169.602 151.012 169.691C150.773 170.212 150.367 170.639 149.859 170.903C148.622 171.562 147.289 172.022 145.909 172.265C143.326 172.779 140.695 173.014 138.062 172.964C135.398 172.94 132.74 172.691 130.118 172.22C127.797 171.781 125.526 171.105 123.342 170.204C121.965 169.633 120.63 168.965 119.348 168.203C118.715 167.824 118.098 167.46 117.525 167.006C116.998 166.648 116.525 166.218 116.12 165.727C116.1 165.686 116.071 165.65 116.034 165.623C115.998 165.596 115.956 165.578 115.911 165.57C115.837 165.57 115.725 165.526 115.606 165.511C115.535 165.503 115.463 165.511 115.395 165.535C115.326 165.558 115.264 165.595 115.212 165.645C115.055 165.824 114.966 166.053 114.959 166.292C114.955 167.014 115.179 167.72 115.599 168.308C116.099 169.053 116.753 169.682 117.518 170.152C120.353 171.834 123.421 173.088 126.622 173.871C129.785 174.672 133.03 175.101 136.292 175.151C138.233 175.151 140.212 175.151 142.205 175.069C144.23 174.972 146.239 174.65 148.193 174.109C149.151 173.835 150.073 173.445 150.937 172.949C151.976 172.41 152.787 171.515 153.221 170.427C153.368 169.963 153.392 169.468 153.288 168.992C153.188 168.586 153.022 168.199 152.797 167.846C152.404 167.255 151.925 166.726 151.376 166.277C150.378 165.459 149.293 164.753 148.141 164.172C145.744 162.974 143.235 162.015 140.65 161.308C136.768 160.187 132.753 159.589 128.712 159.531C125.578 159.437 122.449 159.833 119.437 160.706C118.752 160.913 118.085 161.177 117.444 161.494C116.506 161.919 115.705 162.596 115.13 163.45C114.97 163.669 114.874 163.928 114.85 164.198C114.826 164.468 114.877 164.739 114.996 164.983C115.076 165.157 115.192 165.312 115.339 165.436C115.569 165.578 115.8 165.436 116.082 165.184C116.488 164.826 116.918 164.498 117.369 164.202C118.416 163.569 119.552 163.097 120.739 162.803C122.006 162.455 123.3 162.206 124.606 162.06C127.3 161.747 130.02 161.747 132.714 162.06C136.799 162.56 140.801 163.598 144.615 165.146Z" fill="black"/>
<path d="M127.024 178.959C128.31 179.408 129.639 179.727 130.989 179.911C132.283 180.075 133.584 180.179 134.886 180.231C135.838 180.268 136.79 180.358 137.735 180.328C141.107 180.268 144.453 179.714 147.665 178.684C149.201 178.221 150.603 177.398 151.756 176.282C152.51 175.51 153.061 174.565 153.362 173.53C153.667 172.51 153.682 171.426 153.407 170.398C153.325 170.086 153.102 169.959 152.879 170.034C152.594 170.161 152.34 170.349 152.135 170.584C151.565 171.148 151.141 171.842 150.9 172.607C150.737 173.293 150.425 173.934 149.985 174.484C149.545 175.034 148.989 175.481 148.356 175.791C147.622 176.184 146.849 176.503 146.051 176.743C145.21 177.018 144.332 177.249 143.447 177.487C141.243 177.917 138.996 178.084 136.753 177.985C135.511 177.985 134.261 177.911 133.034 177.806C132.409 177.747 131.792 177.68 131.174 177.598C130.582 177.513 129.995 177.389 129.419 177.226C127.934 176.808 126.471 176.311 125.038 175.739C122.807 174.846 120.434 174.296 118.545 173.113C117.852 172.717 117.263 172.163 116.825 171.496C116.387 170.829 116.112 170.068 116.023 169.275C115.983 168.929 115.966 168.582 115.971 168.234C115.971 166.91 115.971 166.456 115.339 166.054C115.211 165.953 115.074 165.863 114.93 165.786C114.483 165.563 113.955 166.106 113.74 167.274C113.66 167.731 113.623 168.194 113.628 168.658C113.583 170.209 114.059 171.731 114.982 172.979C115.62 173.794 116.395 174.491 117.273 175.039C118.079 175.535 118.925 175.963 119.802 176.319C121.044 176.832 122.293 177.226 123.431 177.65C124.569 178.074 125.797 178.573 127.054 179.019L127.024 178.959Z" fill="black"/>
<path d="M144.138 178.059C145.269 176.75 145.5 174.437 143.432 173.827L144.138 178.059Z" fill="black"/>
<path d="M137.266 173.514C139.341 175.166 138.977 178.438 136.344 179.219C136.153 179.272 135.95 179.246 135.779 179.149C135.607 179.051 135.481 178.889 135.429 178.699C135.377 178.508 135.402 178.305 135.5 178.133C135.597 177.962 135.759 177.836 135.95 177.784C137.593 177.3 137.355 175.471 136.21 174.571C135.466 173.976 136.522 172.927 137.266 173.514Z" fill="black"/>
<path d="M127.894 173.939C126.756 174.296 127.098 176.044 127.351 176.914C127.377 177.008 127.384 177.107 127.372 177.204C127.36 177.301 127.329 177.394 127.28 177.479C127.232 177.564 127.167 177.639 127.09 177.699C127.013 177.759 126.925 177.803 126.83 177.829C126.736 177.855 126.638 177.862 126.541 177.85C126.444 177.837 126.35 177.806 126.265 177.758C126.18 177.71 126.106 177.645 126.046 177.568C125.986 177.491 125.941 177.402 125.915 177.308C125.402 175.568 125.447 173.173 127.492 172.518C128.407 172.228 128.801 173.663 127.894 173.954V173.939Z" fill="black"/>
<path d="M120.917 171.938C120.821 171.938 120.843 171.938 120.917 171.856C120.871 171.921 120.845 171.999 120.843 172.079C120.835 172.415 120.858 172.751 120.91 173.083C121.014 173.664 121.193 174.221 121.349 174.787C121.401 174.977 121.376 175.18 121.278 175.352C121.18 175.524 121.018 175.649 120.828 175.702C120.638 175.754 120.434 175.728 120.263 175.631C120.091 175.533 119.965 175.371 119.913 175.181C119.497 173.693 118.507 170.041 121.297 170.502C122.241 170.666 121.84 172.094 120.902 171.938H120.917Z" fill="black"/>
<path d="M146.407 106.274C146.556 108.565 144.577 109.993 142.569 110.514C142.386 110.547 142.198 110.51 142.041 110.412C141.884 110.313 141.769 110.159 141.72 109.98C141.67 109.801 141.69 109.61 141.774 109.444C141.858 109.279 142.001 109.151 142.175 109.086C143.558 108.729 145.024 107.896 144.92 106.274C144.853 105.322 146.34 105.322 146.407 106.274Z" fill="black"/>
<path d="M209.548 47.9266C209.306 48.7518 209.008 49.5595 208.656 50.344C208.522 50.6341 208.328 50.8795 208.195 51.1696C207.957 51.6754 207.674 52.1515 207.406 52.6573C207.138 53.163 206.833 53.6242 206.491 54.0779C206.206 54.4873 205.877 54.864 205.509 55.2011C205.011 55.6087 204.56 56.0702 204.163 56.5771C204.044 56.7482 204.29 57.0085 204.654 57.1647C204.833 57.2617 205.034 57.3125 205.238 57.3125C205.442 57.3125 205.642 57.2617 205.822 57.1647C206.962 56.3221 207.91 55.2472 208.604 54.011C208.998 53.2672 209.563 52.5903 209.965 51.8242C210.414 50.9962 210.806 50.1388 211.14 49.258C211.333 48.7076 211.534 48.1721 211.69 47.6142C211.943 46.7812 212.1 45.9183 212.315 45.0853C212.471 44.4307 212.665 43.7985 212.784 43.1365C212.784 42.9877 212.843 42.8464 212.858 42.6976C212.903 42.1472 212.762 41.9538 212.397 41.8274C212.315 41.8274 212.233 41.7604 212.152 41.7381C211.876 41.6786 211.616 41.8869 211.452 42.2439C211.006 43.3045 210.622 44.3898 210.3 45.4944C210.047 46.3125 209.786 47.1233 209.504 47.9341L209.548 47.9266Z" fill="black"/>
<path d="M192.523 61.985C192.523 61.985 200.593 67.266 212.204 54.5469C212.204 54.5469 207.399 57.5891 204.461 55.7072L192.523 61.985Z" fill="black"/>
<path d="M179.93 45.4425C180.112 40.2597 182.236 35.3348 185.88 31.6449C187.215 30.3326 188.739 29.2292 190.403 28.3721C193.287 26.7896 196.628 26.2485 199.864 26.8398C201.474 27.1574 203.009 27.7784 204.386 28.6696C205.793 29.5199 206.994 30.6705 207.905 32.0391C208.72 33.2716 209.338 34.6244 209.734 36.0482C210.113 37.4801 210.3 38.9557 210.292 40.4367C210.165 44.2524 209.053 47.9703 207.064 51.2294C206.484 52.2633 207.064 52.531 208.128 51.9732C208.446 51.8054 208.749 51.6113 209.035 51.393C209.376 51.102 209.692 50.7836 209.98 50.4409C210.143 50.2624 210.307 50.0616 210.463 49.8533C210.62 49.6451 210.753 49.3996 210.895 49.1542C211.205 48.6496 211.454 48.1103 211.639 47.5475C213.151 43.3519 213.206 38.769 211.795 34.5383C211.063 32.3951 209.864 30.4414 208.284 28.8184C206.682 27.2326 204.742 26.0298 202.609 25.3002C200.062 24.4033 197.334 24.1478 194.665 24.5563C192.007 24.9843 189.478 26.0009 187.264 27.5316C184.888 29.1932 182.866 31.3092 181.313 33.7573C179.737 36.1729 178.627 38.8622 178.041 41.6863C177.711 43.4286 177.589 45.2038 177.676 46.9748C177.791 48.7501 178.147 50.5016 178.732 52.1815C179.654 54.7318 181.208 57.0068 183.247 58.7939C183.508 59.0096 183.746 59.2477 183.991 59.4485L184.824 60.0212C185.389 60.4007 185.983 60.7341 186.602 61.0179C186.913 61.1561 187.23 61.2777 187.554 61.3824C187.867 61.5077 188.187 61.612 188.513 61.6948C189.167 61.8714 189.833 61.9933 190.507 62.0593C194.653 62.4096 198.792 61.2934 202.2 58.9055C202.584 58.6814 202.955 58.433 203.308 58.1617C203.657 57.8939 204.052 57.6262 204.372 57.3286C206.886 55.0972 207.31 53.9889 207.257 53.0815C207.257 52.8739 207.234 52.667 207.191 52.4641C207.086 52.1963 206.752 52.2633 206.253 52.598C205.954 52.826 205.671 53.0746 205.405 53.3418C205.071 53.6245 204.662 53.9517 204.282 54.3459C201.848 56.6628 198.91 58.3839 195.699 59.3741C194.151 59.8511 192.522 60.0009 190.913 59.8139C189.305 59.6269 187.753 59.1073 186.356 58.2881C184.297 56.9362 182.636 55.0592 181.544 52.8509C180.476 50.5644 179.952 48.062 180.012 45.5392L179.93 45.4425Z" fill="black"/>
<path d="M208.195 60.6456C211.262 58.303 213.7 55.2362 215.291 51.7199L216.079 49.7934C216.316 49.1334 216.514 48.4604 216.674 47.7777C217.204 45.3659 217.282 42.8767 216.905 40.4363C216.501 38.0117 215.605 35.6954 214.272 33.6305C213.688 32.7183 213.045 31.8461 212.345 31.0197C211.614 30.2206 210.826 29.4749 209.987 28.7883C209.47 28.3327 208.916 27.9221 208.329 27.561L207.451 27.0105C207.166 26.8162 206.865 26.647 206.551 26.5048C205.926 26.2147 205.294 25.9395 204.662 25.6791C204.029 25.4188 203.338 25.3147 202.676 25.1659C201.835 24.9874 201.82 25.6271 202.304 26.4081C202.994 27.3716 203.921 28.1403 204.996 28.6395C207.216 29.6789 209.206 31.1506 210.85 32.9685C212.492 34.8202 213.704 37.0123 214.398 39.3875C215.159 42.4092 215.03 45.5865 214.026 48.5364C213.9 48.9455 213.721 49.3397 213.573 49.7414C213.435 50.1484 213.271 50.546 213.082 50.9315C212.708 51.7128 212.296 52.4749 211.847 53.215C209.758 56.5471 206.776 59.227 203.241 60.9506C200.308 62.3938 197.006 62.9125 193.772 62.4382C191.342 61.9883 189.065 60.9316 187.152 59.3663C186.736 59.0093 186.334 58.682 185.94 58.3026C184.452 56.9415 183.969 56.5175 183.18 56.6068C183.001 56.6143 182.822 56.6342 182.645 56.6663C182.392 56.7481 182.333 57.0158 182.459 57.4101C182.677 58.0071 183.013 58.5536 183.448 59.0167C185.098 60.9665 187.168 62.5177 189.503 63.5539C191.966 64.6324 194.652 65.1018 197.335 64.9225C199.318 64.7817 201.267 64.3377 203.115 63.606C204.932 62.8679 206.649 61.9033 208.225 60.7349L208.195 60.6456Z" fill="black"/>
<path d="M215.886 42.0951C214.599 43.6645 212.457 43.5083 210.865 42.4967C210.054 41.9835 210.805 40.6967 211.609 41.2099C212.672 41.8868 213.952 42.1099 214.829 41.0389C215.439 40.295 216.481 41.3587 215.878 42.0951H215.886Z" fill="black"/>
<path d="M213.84 51.8687C212.494 53.7803 209.08 54.0035 207.235 52.6869C206.491 52.1291 207.235 50.8423 207.979 51.4002C209.095 52.2035 211.698 52.3745 212.546 51.1175C213.096 50.3365 214.383 51.0803 213.833 51.8613L213.84 51.8687Z" fill="black"/>
<path d="M205.74 60.5786C204.806 60.7591 203.839 60.6491 202.97 60.2635C202.1 59.8778 201.369 59.235 200.876 58.4216C200.787 58.2516 200.767 58.0538 200.821 57.8696C200.874 57.6853 200.997 57.5289 201.163 57.4329C201.329 57.3368 201.526 57.3087 201.712 57.3544C201.898 57.4 202.06 57.5159 202.163 57.6778C202.484 58.2157 202.959 58.645 203.526 58.9102C204.094 59.1754 204.728 59.2643 205.346 59.1654C206.283 58.9571 206.678 60.3927 205.74 60.601V60.5786Z" fill="black"/>
<path d="M139.75 105.984C145.061 115.46 139.75 120.607 139.75 120.607C139.75 120.607 147.657 121.537 147.3 112.931C146.943 104.325 142.376 100.524 142.376 100.524C142.376 100.524 143.253 105.642 139.75 105.984Z" fill="black"/>
<path d="M131.047 95.0498C132.187 95.9888 133.258 97.0079 134.253 98.0994C134.617 98.5011 134.945 98.9325 135.294 99.349C136.553 100.807 137.715 102.345 138.775 103.953C139.25 104.673 139.684 105.417 140.077 106.185C140.546 107.166 141.051 108.119 141.565 109.093C141.728 109.398 141.84 109.316 141.907 108.981C142.013 108.459 141.998 107.92 141.862 107.404C141.139 105.205 140.017 103.158 138.552 101.365C137.704 100.286 136.916 99.0887 136.016 98.0027C135.033 96.7959 133.956 95.6691 132.795 94.6333C132.051 93.9936 131.352 93.3911 130.564 92.8109C129.415 91.9367 128.218 91.1271 126.979 90.3861C126.046 89.7953 125.082 89.2541 124.093 88.7646C123.876 88.6504 123.653 88.551 123.423 88.4671C122.56 88.1696 122.248 88.1844 121.935 88.3778C121.872 88.4114 121.812 88.4513 121.757 88.4968C121.623 88.6233 121.891 88.958 122.441 89.3002L127.417 92.439C128.656 93.2466 129.838 94.1362 130.958 95.1019L131.047 95.0498Z" fill="black"/>
<path d="M139.244 109.131C140.055 111.27 140.474 113.537 140.479 115.825C140.475 116.839 140.219 117.835 139.735 118.726C139.521 119.087 139.22 119.389 138.861 119.606C138.501 119.823 138.094 119.947 137.675 119.968H137.407H137.124H136.559C136.164 119.92 135.771 119.851 135.384 119.76C134.984 119.669 134.589 119.557 134.201 119.425C133.807 119.291 133.413 119.157 133.026 118.986C131.627 118.423 130.29 117.715 129.039 116.874C128.384 116.48 127.789 115.989 127.165 115.55C126.54 115.111 125.952 114.598 125.387 114.062C123.076 111.985 121.003 109.657 119.206 107.122C117.602 104.871 116.243 102.455 115.152 99.9149C114.462 98.3141 113.912 96.6567 113.508 94.9611C113.312 94.1439 113.176 93.3137 113.099 92.4768C113.001 91.73 113.054 90.9712 113.255 90.2454C113.382 89.8958 113.382 89.6949 113.203 89.5015C113.025 89.3082 112.616 89.2858 112.095 89.6577C111.463 90.1899 111.026 90.9174 110.853 91.7255C110.617 92.7586 110.617 93.8314 110.853 94.8644C111.738 98.6196 113.247 102.2 115.316 105.456C117.29 108.708 119.686 111.684 122.441 114.308C124.121 115.914 125.924 117.386 127.834 118.711C129.786 120.1 131.952 121.16 134.246 121.85C135.59 122.253 137.005 122.365 138.396 122.177C138.769 122.107 139.137 122.013 139.497 121.894C139.865 121.732 140.219 121.538 140.553 121.314C141.181 120.843 141.691 120.232 142.041 119.529C142.635 118.259 142.928 116.87 142.896 115.468C142.889 114.157 142.744 112.851 142.465 111.57C141.759 108.492 140.593 105.538 139.006 102.808C136.651 98.6863 133.498 95.0754 129.731 92.1867C126.879 89.8653 123.591 88.138 120.061 87.1065C119.25 86.8932 118.421 86.7563 117.584 86.6974C116.403 86.5822 115.213 86.8067 114.155 87.3445C113.89 87.4637 113.657 87.6448 113.476 87.8725C113.294 88.1003 113.17 88.3681 113.114 88.6536C113.082 88.8556 113.082 89.0615 113.114 89.2635C113.188 89.5313 113.508 89.5239 113.962 89.4049C114.61 89.2267 115.272 89.0998 115.94 89.0255C117.365 88.946 118.792 89.1404 120.143 89.5982C121.598 90.0584 123.004 90.664 124.338 91.4057C127.103 92.9359 129.627 94.8658 131.828 97.133C135.108 100.564 137.609 104.661 139.162 109.146L139.244 109.131Z" fill="black"/>
<path d="M145.054 101.231C143.19 97.9478 140.897 94.9284 138.233 92.2534C135.602 89.5052 132.523 87.224 129.129 85.507C128.057 84.9417 126.964 84.4508 125.841 84.0194C124.664 83.5709 123.434 83.2759 122.181 83.1417C119.962 82.8606 117.707 83.1156 115.606 83.8855C114.195 84.4091 112.955 85.3095 112.021 86.4888C111.799 86.8003 111.593 87.1231 111.404 87.4558C111.247 87.8054 111.099 88.1624 110.965 88.512C110.753 89.2364 110.656 89.9891 110.675 90.7434C110.675 91.6732 111.314 91.4872 111.969 90.8476C112.138 90.6791 112.297 90.5002 112.445 90.312C112.594 90.1112 112.802 89.9178 112.958 89.7021C113.042 89.5978 113.119 89.4885 113.189 89.3748L113.456 89.055C113.628 88.8318 113.739 88.5864 113.925 88.3632C114.989 86.6525 117.235 85.6781 119.608 85.4921C120.813 85.3884 122.026 85.4485 123.215 85.6706L124.1 85.864L124.963 86.1392C125.558 86.3698 126.183 86.6078 126.786 86.883C129.735 88.2301 132.449 90.0406 134.826 92.2459C137.523 94.6136 139.865 97.3566 141.781 100.391C142.991 102.25 144.041 104.208 144.92 106.244C145.585 107.768 146.083 109.359 146.407 110.99C146.73 112.578 146.71 114.216 146.348 115.795C146.066 116.933 145.434 117.953 144.54 118.711C143.616 119.432 142.544 119.94 141.401 120.198C140.886 120.313 140.365 120.397 139.839 120.451C139.126 120.511 138.416 120.608 137.712 120.741C137.319 120.821 136.967 121.04 136.723 121.359C136.602 121.491 136.493 121.633 136.396 121.783C136.158 122.251 137.028 122.757 138.724 122.809C140.021 122.85 141.317 122.697 142.569 122.355C143.955 121.993 145.231 121.298 146.288 120.332C147.4 119.292 148.189 117.955 148.564 116.479C148.909 115.109 149.03 113.693 148.921 112.284C148.579 108.201 146.965 104.586 145.12 101.268L145.054 101.231Z" fill="black"/>
<path d="M121.727 83.6697C122.644 84.2701 123.285 85.209 123.511 86.2809C123.736 87.3528 123.529 88.4706 122.932 89.3896C122.419 90.1929 121.125 89.4417 121.646 88.6458C121.844 88.3603 121.984 88.0385 122.058 87.6987C122.132 87.3589 122.138 87.0079 122.076 86.6658C122.014 86.3237 121.884 85.9973 121.696 85.7052C121.507 85.4131 121.262 85.1612 120.976 84.9639C120.158 84.4656 120.909 83.1788 121.72 83.6771L121.727 83.6697Z" fill="black"/>
<path d="M131.271 87.6939C131.832 88.6744 132.108 89.7924 132.067 90.9215C132.027 92.0507 131.671 93.1459 131.04 94.0833C130.937 94.2452 130.776 94.3611 130.589 94.4067C130.403 94.4523 130.206 94.4242 130.04 94.3282C129.874 94.2322 129.751 94.0757 129.698 93.8915C129.644 93.7072 129.664 93.5095 129.753 93.3395C130.255 92.6324 130.544 91.7961 130.585 90.9299C130.626 90.0636 130.417 89.2038 129.984 88.4526C129.537 87.6121 130.824 86.8534 131.271 87.7088V87.6939Z" fill="black"/>
<path d="M140.301 96.6491C140.301 98.821 139.252 100.695 137.05 101.238C136.956 101.264 136.858 101.271 136.761 101.259C136.664 101.247 136.57 101.216 136.485 101.168C136.4 101.119 136.326 101.055 136.266 100.977C136.206 100.9 136.161 100.812 136.135 100.718C136.11 100.623 136.102 100.525 136.115 100.428C136.127 100.331 136.158 100.237 136.206 100.152C136.255 100.067 136.319 99.9929 136.396 99.9329C136.474 99.8729 136.562 99.8287 136.656 99.8028C138.218 99.4235 138.828 98.1739 138.813 96.6491C138.813 96.4518 138.892 96.2626 139.031 96.1231C139.171 95.9836 139.36 95.9053 139.557 95.9053C139.754 95.9053 139.943 95.9836 140.083 96.1231C140.222 96.2626 140.301 96.4518 140.301 96.6491Z" fill="black"/>
<path d="M125.41 104.467L126.786 104.98L126.972 105.04C127.068 105.04 127.18 105.092 127.284 105.122C127.48 105.186 127.682 105.231 127.887 105.255C128.24 105.289 128.596 105.289 128.95 105.255C129.1 105.254 129.249 105.239 129.396 105.211C129.248 104.809 129.106 104.467 128.943 104.08C128.588 103.369 128.109 102.727 127.53 102.184C127.062 101.732 126.565 101.312 126.042 100.926C125.588 100.584 125.142 100.242 124.673 99.9298C124.088 99.4933 123.435 99.1565 122.739 98.9331C122.516 98.8735 122.486 99.0595 122.583 99.305C122.719 99.6148 122.948 99.8748 123.238 100.049C124.429 100.77 125.552 101.599 126.592 102.526C126.905 102.807 127.187 103.122 127.433 103.463L127.604 103.701L127.663 103.798C127.663 103.857 127.73 103.924 127.768 103.991L127.812 104.103C127.864 104.162 127.812 104.103 127.768 104.155H127.656C127.579 104.165 127.502 104.165 127.425 104.155L127.284 104.11L126.994 103.998L126.399 103.753C125.829 103.482 125.23 103.275 124.614 103.136C124.486 103.109 124.357 103.095 124.227 103.091C124.094 103.076 123.959 103.076 123.825 103.091C123.658 103.096 123.494 103.134 123.342 103.203C123.187 103.243 123.039 103.305 122.903 103.388C122.501 103.463 122.68 103.879 122.702 104.132C122.733 104.289 122.775 104.443 122.829 104.593C122.87 104.716 122.919 104.835 122.977 104.95C123.296 105.611 123.674 106.241 124.108 106.832C124.205 106.959 124.287 107.093 124.383 107.212C124.74 107.658 124.904 107.732 125.239 107.613L125.469 107.539C125.707 107.427 125.722 107.093 125.469 106.721C125.142 106.17 124.763 105.672 124.443 105.174C124.285 104.937 124.146 104.688 124.026 104.43C123.87 104.095 123.937 104.229 123.929 104.199C124.008 104.188 124.089 104.188 124.168 104.199C124.58 104.233 124.984 104.334 125.365 104.497L125.41 104.467Z" fill="black"/>
<path d="M210.583 71.5872C210.367 71.4087 210.121 71.5872 209.779 71.974C209.675 72.1004 209.549 72.5244 209.616 72.6062C209.736 72.7641 209.874 72.9087 210.025 73.0376C210.772 73.3437 211.558 73.5464 212.36 73.6401C212.915 73.7183 213.479 73.7183 214.034 73.6401C215.142 73.4842 216.231 73.215 217.284 72.8368C217.521 72.7627 217.744 72.6523 217.946 72.5095C218.69 72.0558 219.434 71.6765 220.178 71.2822C220.291 71.1955 220.424 71.1369 220.565 71.1112C221 70.9393 221.398 70.687 221.74 70.3674C222.109 70.0568 222.455 69.7186 222.774 69.3558C223.198 68.7235 223.622 68.121 223.979 67.4665C224.023 67.3698 224.112 67.3028 224.112 67.1764C224.127 66.9432 224.207 66.7188 224.343 66.5293C224.494 66.2577 224.609 65.9676 224.685 65.6665C224.719 65.5101 224.734 65.3503 224.73 65.1904C224.73 65.0565 224.544 65.0491 224.507 65.0789C224.47 65.1086 224.358 65.0417 224.298 65.0045C224.277 64.9864 224.251 64.9737 224.224 64.9673C224.224 64.9673 223.912 65.2871 223.622 65.5921C223.331 65.8971 222.952 66.1648 222.878 66.2318C222.803 66.2987 222.454 66.6632 222.008 67.0648L221.331 67.5929C221.192 67.6896 221.048 67.779 220.899 67.8607C220.789 67.9366 220.691 68.0295 220.609 68.1359C220.565 68.1954 218.965 69.0508 218.906 69.0806C218.608 69.3037 218.236 69.4004 217.984 69.7277C217.928 69.7809 217.862 69.8215 217.79 69.8467C217.195 70.0921 216.63 70.412 216.02 70.65C215.713 70.7677 215.397 70.8597 215.075 70.9252C215.017 70.945 214.962 70.9725 214.912 71.007C214.846 71.0443 214.776 71.0743 214.703 71.0963C213.956 71.2928 213.185 71.3805 212.412 71.3566C212.212 71.3691 212.013 71.3965 211.817 71.4384C211.615 71.4645 211.41 71.4645 211.207 71.4384C211.088 71.431 210.672 71.6839 210.583 71.5872Z" fill="black"/>
<path d="M230.13 27.5984C230.078 27.9331 230.316 28.1637 230.732 28.3422C230.866 28.4017 231.231 28.3422 231.268 28.238C231.345 28.043 231.405 27.8413 231.446 27.6356C231.412 26.7447 231.315 25.8574 231.156 24.9802C231.053 24.3572 230.886 23.7465 230.658 23.1578C230.229 21.9585 229.701 20.7967 229.081 19.6842C228.947 19.4214 228.788 19.1722 228.605 18.9404C227.995 18.1966 227.437 17.3859 226.85 16.6197C226.742 16.4975 226.655 16.3595 226.589 16.2106C226.299 15.7686 225.968 15.3551 225.6 14.9759C225.223 14.5739 224.826 14.1916 224.41 13.8304L223.361 13.0866L222.29 12.4172C222.198 12.3373 222.089 12.2812 221.97 12.2536C221.712 12.2038 221.471 12.0885 221.271 11.9189C220.971 11.7261 220.658 11.5546 220.334 11.4056C220.165 11.3414 219.991 11.2916 219.813 11.2569C219.649 11.2197 219.62 11.4279 219.657 11.48C219.694 11.5321 219.597 11.6213 219.545 11.6808C219.523 11.7018 219.505 11.7271 219.493 11.7552C219.728 12.0158 219.977 12.264 220.237 12.499C220.609 12.8709 220.981 13.2875 221.063 13.347C221.145 13.4065 221.219 13.4734 221.427 13.6668L222.171 14.366C222.692 14.9164 223.264 15.452 223.354 15.5858C223.466 15.7104 223.593 15.8203 223.733 15.9131C224.265 16.5135 224.762 17.1443 225.221 17.8024C225.482 18.2021 225.778 18.578 226.106 18.9255C226.178 18.9835 226.237 19.0572 226.277 19.1412C226.701 19.8181 227.162 20.4652 227.564 21.157C227.779 21.5066 227.921 21.9008 228.107 22.2578C228.144 22.3232 228.186 22.3854 228.233 22.4438C228.282 22.5216 228.325 22.6038 228.359 22.6892C228.772 23.5666 229.093 24.4837 229.319 25.4264C229.378 25.6347 229.788 26.6389 229.81 26.9141C229.825 27.0405 230.16 27.4794 230.13 27.5984Z" fill="black"/>
<ellipse cx="292.001" cy="31.457" rx="19" ry="17" fill="#FDC4C4"/>
<path d="M286.799 19.4017C287.584 19.0501 288.392 18.7527 289.218 18.5114C289.525 18.4249 289.838 18.4127 290.145 18.3262C290.684 18.1789 291.23 18.0849 291.788 17.9602C292.347 17.8355 292.896 17.7681 293.463 17.7339C293.959 17.6848 294.46 17.6908 294.955 17.7516C295.588 17.8658 296.232 17.9097 296.875 17.8824C297.083 17.8618 297.121 17.5061 297.004 17.1275C296.961 16.9281 296.869 16.7425 296.737 16.5874C296.605 16.4323 296.436 16.3126 296.246 16.2392C294.865 15.9191 293.431 15.8957 292.041 16.1705C291.219 16.3535 290.337 16.3629 289.494 16.5547C288.573 16.7508 287.666 17.0087 286.779 17.3267C286.235 17.5369 285.697 17.7318 285.171 17.9751C284.373 18.3235 283.616 18.7648 282.842 19.1415C282.243 19.4476 281.636 19.711 281.055 20.0502C280.942 20.1468 280.796 20.1932 280.673 20.2785C280.226 20.6019 280.17 20.8349 280.311 21.1942C280.364 21.2564 280.366 21.3621 280.402 21.4389C280.536 21.6868 280.863 21.7496 281.241 21.6423C282.337 21.2931 283.412 20.8814 284.462 20.4092C285.248 20.0704 286.034 19.7422 286.834 19.4308L286.799 19.4017Z" fill="black"/>
<path d="M308.545 23.2264C308.545 23.2264 307.323 13.6594 290.111 13.0845C290.111 13.0845 295.545 14.7645 296.02 18.221L308.545 23.2264Z" fill="black"/>
<path d="M304.137 43.5436C300.076 46.7694 294.952 48.3509 289.779 47.9744C287.915 47.8114 286.086 47.3679 284.354 46.659C281.278 45.4925 278.698 43.3024 277.047 40.457C276.243 39.0263 275.719 37.4558 275.503 35.8292C275.236 34.2073 275.332 32.5466 275.782 30.9658C276.19 29.5451 276.818 28.1973 277.643 26.9714C278.487 25.7541 279.488 24.6535 280.619 23.6982C283.605 21.3183 287.155 19.7506 290.924 19.1474C292.087 18.9176 291.914 18.3024 290.8 17.8555C290.466 17.7225 290.121 17.6176 289.769 17.5419C289.327 17.4719 288.88 17.4382 288.432 17.4414C288.19 17.4328 287.931 17.4387 287.671 17.4551C287.411 17.4715 287.138 17.529 286.859 17.5808C286.274 17.6726 285.702 17.8328 285.154 18.058C280.981 19.6313 277.459 22.5644 275.157 26.3844C274.002 28.3325 273.295 30.5129 273.086 32.768C272.919 35.0161 273.264 37.2727 274.094 39.3688C275.065 41.8881 276.642 44.1293 278.685 45.8941C280.736 47.638 283.15 48.9014 285.752 49.5922C288.558 50.3204 291.481 50.4851 294.351 50.0769C297.211 49.7077 299.978 48.8062 302.506 47.4191C304.046 46.5386 305.475 45.4793 306.766 44.2632C308.041 43.0231 309.143 41.6158 310.041 40.0798C311.382 37.723 312.104 35.0646 312.139 32.353C312.134 32.0149 312.161 31.6794 312.154 31.3623L312.049 30.3568C311.971 29.6809 311.839 29.0123 311.653 28.3576C311.557 28.0316 311.443 27.7108 311.313 27.3968C311.205 27.0777 311.076 26.7661 310.927 26.4641C310.638 25.8527 310.297 25.2663 309.91 24.7113C307.485 21.3297 303.95 18.9067 299.921 17.8645C299.501 17.7173 299.071 17.597 298.636 17.5044C298.205 17.4123 297.746 17.2863 297.312 17.2361C293.982 16.7724 292.864 17.1693 292.208 17.798C292.05 17.9333 291.907 18.0847 291.781 18.2497C291.645 18.5027 291.914 18.7139 292.492 18.8757C292.86 18.9555 293.233 19.0096 293.608 19.0378C294.04 19.1089 294.555 19.2076 295.101 19.2403C298.443 19.5878 301.66 20.7053 304.498 22.5052C305.865 23.3726 307.037 24.515 307.939 25.8597C308.841 27.2045 309.453 28.7222 309.736 30.3164C310.045 32.7605 309.696 35.2426 308.725 37.5066C307.678 39.8031 306.115 41.8264 304.158 43.4186L304.137 43.5436Z" fill="black"/>
<path d="M297.353 12.175C293.58 11.3627 289.665 11.4991 285.958 12.5717L283.98 13.2226C283.325 13.4712 282.684 13.757 282.061 14.0785C279.882 15.2411 277.938 16.7975 276.327 18.6689C274.745 20.5499 273.564 22.7352 272.859 25.0899C272.544 26.1257 272.299 27.1815 272.124 28.25C271.991 29.3254 271.936 30.4088 271.957 31.4921C271.946 32.1811 271.994 32.8697 272.101 33.5505L272.252 34.5754C272.289 34.9182 272.356 35.2572 272.451 35.5884C272.636 36.2519 272.837 36.9115 273.05 37.5614C273.262 38.2113 273.632 38.8051 273.949 39.4052C274.358 40.1604 274.855 39.7565 275.135 38.8817C275.42 37.7313 275.402 36.5268 275.084 35.3851C274.434 33.0219 274.261 30.5528 274.577 28.1222C274.92 25.6713 275.801 23.3267 277.156 21.2564C278.961 18.716 281.461 16.7517 284.357 15.6001C284.75 15.4308 285.166 15.3106 285.568 15.163C285.967 15.0032 286.376 14.8699 286.792 14.7639C287.628 14.5406 288.476 14.3593 289.33 14.2207C293.221 13.6469 297.195 14.175 300.801 15.7451C303.803 17.039 306.341 19.2138 308.079 21.9817C309.315 24.1223 309.989 26.5403 310.04 29.0113C310.039 29.5599 310.051 30.0779 310.018 30.624C309.949 32.6392 309.94 33.2822 310.52 33.824C310.642 33.9557 310.773 34.0789 310.913 34.1927C311.139 34.3319 311.381 34.2034 311.599 33.8513C311.912 33.2982 312.109 32.6874 312.179 32.0558C312.591 29.535 312.427 26.9536 311.7 24.505C310.921 21.9314 309.534 19.5832 307.656 17.6589C306.262 16.2424 304.659 15.0481 302.903 14.1175C301.162 13.2142 299.313 12.5344 297.402 12.0944L297.353 12.175Z" fill="black"/>
<path d="M278.25 18.367C280.279 18.327 281.551 20.0578 281.815 21.9253C281.951 22.8751 280.484 23.139 280.353 22.1948C280.178 20.9464 279.517 19.8284 278.132 19.8561C277.171 19.875 277.304 18.3924 278.255 18.3727L278.25 18.367Z" fill="black"/>
<path d="M287.012 13.5781C289.34 13.3612 291.726 15.8133 291.922 18.0711C291.981 18.999 290.519 19.2685 290.461 18.3406C290.347 16.9705 288.787 14.8792 287.281 15.0502C286.329 15.1386 286.06 13.6769 287.011 13.5886L287.012 13.5781Z" fill="black"/>
<path d="M298.896 14.0854C299.64 14.6788 300.184 15.4857 300.455 16.3976C300.726 17.3095 300.711 18.2826 300.413 19.1859C300.341 19.3639 300.204 19.5074 300.029 19.5863C299.854 19.6653 299.656 19.6736 299.475 19.6096C299.294 19.5456 299.145 19.4141 299.058 19.2428C298.972 19.0714 298.956 18.8733 299.012 18.69C299.213 18.0966 299.231 17.4567 299.064 16.8528C298.898 16.249 298.554 15.709 298.077 15.3027C297.31 14.725 298.146 13.4933 298.913 14.071L298.896 14.0854Z" fill="black"/>
<path d="M305.396 58.6019C305.18 58.4233 304.935 58.6019 304.593 58.9886C304.489 59.1151 304.362 59.539 304.429 59.6209C304.55 59.7787 304.687 59.9233 304.838 60.0523C305.586 60.3584 306.371 60.5611 307.174 60.6548C307.729 60.7329 308.292 60.7329 308.847 60.6548C309.955 60.4988 311.045 60.2297 312.098 59.8514C312.334 59.7773 312.557 59.6669 312.76 59.5242C313.504 59.0704 314.247 58.6911 314.991 58.2969C315.105 58.2102 315.237 58.1516 315.378 58.1258C315.813 57.954 316.212 57.7016 316.553 57.382C316.923 57.0714 317.269 56.7332 317.587 56.3704C318.011 55.7382 318.435 55.1357 318.792 54.4811C318.837 54.3844 318.926 54.3175 318.926 54.1911C318.94 53.9579 319.02 53.7335 319.157 53.5439C319.307 53.2723 319.422 52.9823 319.499 52.6811C319.532 52.5247 319.547 52.365 319.543 52.2051C319.543 52.0712 319.357 52.0638 319.32 52.0935C319.283 52.1233 319.171 52.0563 319.112 52.0191C319.09 52.001 319.065 51.9883 319.038 51.9819C319.038 51.9819 318.725 52.3018 318.435 52.6067C318.145 52.9117 317.766 53.1795 317.691 53.2464C317.617 53.3134 317.267 53.6778 316.821 54.0795L316.144 54.6076C316.005 54.7043 315.861 54.7937 315.713 54.8754C315.602 54.9512 315.504 55.0441 315.423 55.1506C315.378 55.2101 313.779 56.0654 313.719 56.0952C313.422 56.3183 313.05 56.415 312.797 56.7423C312.742 56.7955 312.676 56.8362 312.604 56.8613C312.009 57.1068 311.443 57.4266 310.833 57.6646C310.527 57.7823 310.211 57.8744 309.889 57.9399C309.831 57.9596 309.776 57.9871 309.725 58.0217C309.659 58.059 309.589 58.0889 309.517 58.1109C308.77 58.3074 307.998 58.3951 307.226 58.3713C307.026 58.3838 306.827 58.4111 306.631 58.4531C306.428 58.4792 306.223 58.4792 306.021 58.4531C305.902 58.4457 305.485 58.6985 305.396 58.6019Z" fill="black"/>
<path d="M130.4 78.0692C130.586 78.3072 130.891 78.27 131.263 78.0692C131.39 78.0022 131.561 77.6972 131.516 77.6154C131.437 77.4483 131.342 77.2889 131.234 77.1394C131.167 77.0427 129.857 76.0609 129.389 75.7485C128.943 75.4367 128.47 75.1654 127.976 74.9377C126.972 74.4414 125.936 74.014 124.874 73.6584C124.633 73.5741 124.384 73.5168 124.13 73.4873C123.267 73.3683 122.434 73.1823 121.579 73.041C121.43 73.0355 121.284 73.0027 121.147 72.9443C120.681 72.827 120.201 72.772 119.719 72.7807C119.221 72.7738 118.724 72.8087 118.232 72.8848L117.109 73.2046L116.03 73.6137C115.92 73.6438 115.82 73.7029 115.74 73.7848C115.583 73.9664 115.376 74.0983 115.145 74.1642C114.846 74.2897 114.566 74.4548 114.312 74.6551C114.182 74.7591 114.071 74.885 113.985 75.027C113.895 75.146 114.074 75.3245 114.133 75.3245C114.193 75.3245 114.245 75.4807 114.282 75.57C114.319 75.6592 114.282 75.6443 114.327 75.6666C114.631 75.641 114.932 75.5888 115.227 75.5104C115.673 75.4212 116.134 75.3989 116.216 75.3542C116.341 75.3107 116.467 75.2735 116.595 75.2427L117.428 75.0865C117.894 75.0145 118.364 74.9772 118.834 74.9749C118.975 74.9714 119.116 74.9489 119.251 74.908C119.93 74.9162 120.607 74.9834 121.274 75.1088C121.664 75.18 122.06 75.2099 122.457 75.198C122.535 75.1794 122.616 75.1794 122.695 75.198C123.029 75.2947 123.364 75.3691 123.699 75.4435L124.71 75.7038C125.052 75.8005 125.38 75.9567 125.714 76.0757C125.774 76.0757 125.848 76.0757 125.908 76.1204C125.988 76.1383 126.068 76.1606 126.146 76.1873C126.944 76.5002 127.717 76.8732 128.459 77.303C128.63 77.3997 129.538 77.7196 129.731 77.8534C129.924 77.9873 130.319 77.9725 130.4 78.0692Z" fill="black"/>
<path d="M392.317 84.3687C401.815 89.6401 406.94 84.308 406.94 84.308C406.94 84.308 407.903 92.2108 399.295 91.8895C390.688 91.5681 386.868 87.0169 386.868 87.0169C386.868 87.0169 391.989 87.8734 392.317 84.3687Z" fill="black"/>
<path d="M381.346 75.7114C382.29 76.8473 383.313 77.9144 384.409 78.9045C384.812 79.2673 385.245 79.5928 385.663 79.9407C387.126 81.1929 388.669 82.3493 390.282 83.4026C391.003 83.8742 391.75 84.3057 392.518 84.695C393.502 85.1595 394.456 85.6614 395.433 86.1706C395.738 86.3329 395.657 86.4449 395.323 86.5132C394.801 86.6216 394.261 86.6086 393.746 86.4751C391.543 85.7612 389.491 84.6477 387.692 83.1902C386.61 82.3467 385.409 81.5633 384.32 80.6678C383.109 79.6904 381.978 78.6181 380.937 77.4611C380.294 76.7199 379.689 76.0232 379.105 75.2372C378.226 74.0918 377.412 72.8982 376.666 71.6621C376.071 70.7317 375.526 69.7707 375.032 68.7829C374.917 68.5672 374.817 68.344 374.732 68.1147C374.431 67.2531 374.444 66.9407 374.637 66.6275C374.67 66.5639 374.709 66.504 374.755 66.4485C374.881 66.314 375.217 66.5804 375.561 67.1294L378.72 72.0925C379.533 73.3274 380.428 74.5065 381.398 75.6219L381.346 75.7114Z" fill="black"/>
<path d="M395.46 83.8497C397.602 84.6521 399.872 85.061 402.159 85.0566C403.173 85.0485 404.169 84.7888 405.057 84.3008C405.417 84.085 405.718 83.7835 405.934 83.4231C406.149 83.0627 406.272 82.6547 406.291 82.2353L406.29 81.9676L406.289 81.6849L406.286 81.1196C406.237 80.7246 406.166 80.3325 406.073 79.9453C405.981 79.5459 405.867 79.1516 405.733 78.764C405.598 78.3704 405.462 77.9767 405.29 77.5906C404.721 76.1938 404.008 74.8605 403.161 73.6126C402.764 72.9597 402.27 72.3667 401.829 71.7437C401.388 71.1207 400.872 70.5352 400.334 69.9722C398.247 67.6701 395.911 65.6067 393.369 63.8199C391.111 62.2256 388.689 60.8767 386.145 59.7961C384.541 59.1129 382.881 58.5698 381.184 58.1728C380.366 57.9802 379.535 57.847 378.698 57.774C377.951 57.6792 377.192 57.7355 376.467 57.9394C376.118 58.0673 375.917 58.0682 375.723 57.8905C375.529 57.7128 375.505 57.3038 375.875 56.7815C376.404 56.1471 377.13 55.707 377.937 55.5308C378.969 55.291 380.042 55.2865 381.076 55.5178C384.835 56.3875 388.422 57.8812 391.687 59.9367C394.946 61.8978 397.933 64.2815 400.567 67.0257C402.18 68.699 403.66 70.4959 404.993 72.4C406.39 74.3462 407.459 76.5075 408.158 78.7986C408.568 80.1413 408.685 81.5559 408.503 82.9477C408.435 83.3208 408.342 83.6889 408.225 84.0497C408.064 84.4186 407.871 84.7728 407.649 85.1083C407.18 85.7383 406.571 86.2502 405.87 86.6033C404.603 87.2028 403.214 87.5013 401.812 87.4755C400.502 87.4735 399.195 87.3343 397.913 87.0602C394.832 86.3672 391.874 85.2134 389.137 83.6379C385.005 81.3001 381.381 78.1618 378.477 74.4067C376.144 71.5643 374.403 68.2837 373.357 64.7583C373.14 63.9481 373 63.1194 372.937 62.2831C372.817 61.1023 373.037 59.9118 373.57 58.8515C373.688 58.5855 373.868 58.3517 374.095 58.1695C374.322 57.9874 374.59 57.8623 374.875 57.8047C375.077 57.7717 375.283 57.7709 375.485 57.8022C375.753 57.8755 375.747 58.1953 375.63 58.6495C375.454 59.2988 375.33 59.9609 375.258 60.6296C375.185 62.0545 375.385 63.4803 375.849 64.8297C376.315 66.2833 376.926 67.6862 377.673 69.0173C379.215 71.7758 381.155 74.2917 383.432 76.4837C386.876 79.749 390.983 82.2335 395.475 83.7678L395.46 83.8497Z" fill="black"/>
<path d="M387.585 89.6915C384.294 87.8421 381.266 85.5607 378.579 82.9081C375.82 80.2887 373.526 77.2196 371.795 73.8319C371.226 72.7631 370.73 71.6718 370.294 70.5504C369.841 69.3752 369.541 68.1464 369.401 66.8945C369.111 64.676 369.357 62.4202 370.118 60.3162C370.636 58.9034 371.531 57.6597 372.706 56.7203C373.017 56.4968 373.339 56.2894 373.671 56.0989C374.02 55.9413 374.376 55.791 374.725 55.6557C375.449 55.4415 376.201 55.3405 376.955 55.3564C377.885 55.3525 377.702 55.993 377.065 56.6502C376.897 56.8205 376.719 56.9802 376.531 57.1284C376.331 57.278 376.138 57.4871 375.923 57.6442C375.82 57.7281 375.711 57.8056 375.597 57.8761L375.278 58.1452C375.056 58.3172 374.811 58.4298 374.589 58.6167C372.882 59.6874 371.917 61.9377 371.741 64.3112C371.642 65.5167 371.707 66.73 371.935 67.9179L372.132 68.8023L372.41 69.6639C372.643 70.258 372.884 70.8818 373.162 71.4832C374.521 74.4268 376.343 77.1338 378.558 79.5015C380.937 82.1881 383.689 84.5188 386.731 86.4223C388.595 87.6244 390.558 88.6663 392.598 89.5369C394.125 90.1955 395.718 90.6876 397.35 91.0048C398.939 91.3213 400.577 91.2942 402.154 90.9254C403.291 90.6394 404.308 90.0028 405.063 89.1058C405.78 88.1789 406.283 87.105 406.537 85.9608C406.65 85.445 406.732 84.9231 406.784 84.3978C406.841 83.6839 406.935 82.9735 407.065 82.2693C407.143 81.8756 407.361 81.5234 407.678 81.2775C407.81 81.1564 407.951 81.0463 408.101 80.9485C408.568 80.7085 409.078 81.5767 409.137 83.2723C409.183 84.5694 409.035 85.8661 408.699 87.1197C408.342 88.5066 407.653 89.7858 406.691 90.8471C405.656 91.9626 404.322 92.758 402.848 93.1391C401.479 93.4897 400.063 93.6162 398.654 93.5135C394.569 93.1883 390.948 91.5892 387.623 89.7583L387.585 89.6915Z" fill="black"/>
<path d="M369.928 66.4389C370.532 67.3526 371.473 67.9899 372.546 68.2113C373.619 68.4326 374.736 68.2201 375.652 67.6201C376.454 67.1036 375.697 65.8125 374.903 66.3365C374.619 66.5362 374.297 66.6777 373.958 66.7529C373.618 66.8281 373.267 66.8356 372.925 66.7748C372.583 66.714 372.256 66.5862 371.963 66.3987C371.67 66.2112 371.417 65.9678 371.219 65.6823C370.717 64.8662 369.433 65.6228 369.935 66.4314L369.928 66.4389Z" fill="black"/>
<path d="M373.991 75.9648C374.974 76.5223 376.093 76.7937 377.222 76.7483C378.351 76.7028 379.445 76.3424 380.38 75.7078C380.541 75.6042 380.656 75.4422 380.701 75.2557C380.746 75.0692 380.717 74.8725 380.621 74.7068C380.524 74.5411 380.367 74.4192 380.182 74.3665C379.998 74.3138 379.8 74.3345 379.631 74.4241C378.926 74.9292 378.091 75.2213 377.224 75.2658C376.358 75.3103 375.498 75.1052 374.745 74.6749C373.902 74.2321 373.149 75.522 374.006 75.9648L373.991 75.9648Z" fill="black"/>
<path d="M382.984 84.9579C385.156 84.9489 387.026 83.8923 387.56 81.6884C387.585 81.594 387.592 81.4956 387.579 81.3986C387.567 81.3017 387.535 81.2082 387.487 81.1234C387.438 81.0387 387.373 80.9644 387.296 80.9047C387.218 80.845 387.13 80.8012 387.035 80.7757C386.941 80.7502 386.843 80.7435 386.746 80.7561C386.649 80.7687 386.555 80.8002 386.47 80.8489C386.386 80.8976 386.311 80.9625 386.252 81.0399C386.192 81.1174 386.148 81.2058 386.123 81.3001C385.75 82.8637 384.503 83.4788 382.978 83.4702C382.781 83.4711 382.592 83.5502 382.453 83.6903C382.314 83.8304 382.236 84.0199 382.237 84.2171C382.238 84.4144 382.317 84.6033 382.457 84.7422C382.597 84.8811 382.787 84.9587 382.984 84.9579Z" fill="black"/>
<path d="M390.739 70.0342L391.258 71.4081L391.319 71.5938C391.319 71.6905 391.372 71.8018 391.402 71.9058C391.467 72.1016 391.513 72.3032 391.538 72.5078C391.573 72.8614 391.575 73.2175 391.543 73.5714C391.542 73.7212 391.527 73.8706 391.5 74.0179C391.098 73.8708 390.755 73.7309 390.367 73.5688C389.655 73.217 389.011 72.7412 388.465 72.1635C388.011 71.698 387.589 71.2028 387.202 70.6811C386.858 70.2288 386.514 69.7839 386.199 69.3166C385.76 68.7331 385.421 68.0811 385.195 67.3869C385.134 67.164 385.32 67.1334 385.566 67.2291C385.876 67.3635 386.137 67.5912 386.312 67.8806C387.039 69.069 387.872 70.1885 388.803 71.2249C389.086 71.5362 389.401 71.8167 389.744 72.0615L389.982 72.2316L390.079 72.2907C390.139 72.2904 390.206 72.3571 390.273 72.394L390.385 72.4382C390.445 72.49 390.385 72.4382 390.437 72.3933L390.436 72.2818C390.446 72.2052 390.446 72.1276 390.435 72.0512L390.39 71.91L390.277 71.6204L390.03 71.0264C389.756 70.4571 389.547 69.8593 389.405 69.2438C389.378 69.1166 389.363 68.9872 389.359 68.8572C389.343 68.7238 389.343 68.5891 389.357 68.4556C389.361 68.2887 389.399 68.1243 389.466 67.9716C389.506 67.8168 389.568 67.6687 389.651 67.532C389.723 67.1301 390.141 67.3069 390.394 67.3281C390.55 67.3582 390.705 67.3999 390.855 67.4527C390.978 67.4932 391.097 67.5424 391.213 67.5999C391.875 67.9158 392.506 68.2917 393.099 68.7227C393.226 68.8189 393.36 68.9002 393.48 68.9964C393.928 69.3515 394.003 69.5149 393.885 69.8501L393.812 70.0809C393.701 70.3194 393.366 70.3357 392.993 70.0843C392.442 69.7593 391.942 69.3821 391.442 69.0643C391.204 68.9079 390.955 68.7697 390.697 68.6509C390.361 68.496 390.495 68.5624 390.466 68.5551C390.454 68.6341 390.455 68.7143 390.467 68.7931C390.502 69.2056 390.605 69.6095 390.769 69.9894L390.739 70.0342Z" fill="black"/>
<path d="M364.363 75.1344C364.602 75.3194 364.566 75.6245 364.366 75.9972C364.3 76.124 363.996 76.2963 363.914 76.252C363.746 76.1735 363.586 76.0795 363.436 75.9713C363.34 75.9048 362.352 74.5998 362.038 74.1325C361.724 73.6877 361.451 73.2159 361.221 72.7226C360.721 71.721 360.289 70.6865 359.929 69.6262C359.844 69.3857 359.785 69.1365 359.755 68.8831C359.632 68.0208 359.443 67.1885 359.298 66.3338C359.292 66.1853 359.259 66.0392 359.2 65.9027C359.08 65.4365 359.023 64.9565 359.03 64.4753C359.021 63.9774 359.054 63.4797 359.128 62.9873L359.443 61.8628L359.848 60.7826C359.877 60.6722 359.936 60.5718 360.018 60.4918C360.199 60.3338 360.33 60.1265 360.395 59.8952C360.519 59.5962 360.683 59.3153 360.882 59.0601C360.986 58.9298 361.111 58.8186 361.253 58.7313C361.371 58.6415 361.55 58.8193 361.551 58.8788C361.551 58.9383 361.707 58.9897 361.797 59.0266C361.886 59.0634 361.871 59.0262 361.894 59.0708C361.869 59.3749 361.818 59.6763 361.741 59.9714C361.654 60.4181 361.633 60.8793 361.589 60.9613C361.546 61.086 361.509 61.2128 361.479 61.3411L361.326 62.1748C361.256 62.6403 361.221 63.1104 361.221 63.5811C361.218 63.7223 361.196 63.8625 361.155 63.9979C361.166 64.6768 361.236 65.3534 361.365 66.0202C361.437 66.4099 361.469 66.8062 361.459 67.2025C361.44 67.2808 361.441 67.3624 361.46 67.4405C361.558 67.7748 361.634 68.1092 361.709 68.4436L361.974 69.4541C362.072 69.7959 362.23 70.1225 362.35 70.4567C362.35 70.5162 362.351 70.5906 362.395 70.6499C362.414 70.7304 362.436 70.8097 362.463 70.8877C362.78 71.6845 363.156 72.4563 363.589 73.1963C363.686 73.3669 364.01 74.2731 364.144 74.4659C364.279 74.6587 364.266 75.053 364.363 75.1344Z" fill="black"/>
<path d="M130.192 151.222C130.066 151.438 130.304 151.609 130.772 151.803C130.989 151.866 131.218 151.866 131.434 151.803C131.56 151.681 131.673 151.547 131.769 151.401C131.913 150.754 131.986 150.093 131.985 149.43C131.992 148.959 131.926 148.49 131.791 148.039C131.533 147.127 131.179 146.244 130.735 145.406C130.637 145.224 130.515 145.056 130.371 144.907C129.908 144.386 129.481 143.835 129.091 143.256C129.008 143.171 128.953 143.062 128.935 142.944C128.765 142.609 128.547 142.301 128.288 142.029C128.044 141.734 127.775 141.461 127.485 141.211L125.997 140.236C125.93 140.192 125.886 140.11 125.774 140.125C125.506 140.125 125.402 140.013 125.261 139.902C125.067 139.746 124.858 139.612 124.636 139.5C124.498 139.46 124.355 139.44 124.212 139.44C124.078 139.44 123.915 139.708 123.915 139.753C123.915 139.797 123.766 139.954 123.677 140.043C123.643 140.071 123.613 140.104 123.587 140.14C123.779 140.662 124.028 141.161 124.331 141.627C124.383 141.627 125.662 143.115 125.774 143.323C125.848 143.413 125.942 143.485 126.049 143.531C126.109 143.531 126.986 144.818 127.001 144.87C127.217 145.101 127.343 145.391 127.656 145.54C127.712 145.568 127.757 145.616 127.782 145.674C128.058 146.127 128.385 146.536 128.667 146.983C128.802 147.22 128.914 147.469 129.002 147.726C129.03 147.769 129.063 147.809 129.099 147.846C129.142 147.89 129.175 147.943 129.196 148.002C129.45 148.57 129.616 149.175 129.686 149.794C129.803 150.112 129.895 150.437 129.962 150.769C129.939 150.828 130.237 151.133 130.192 151.222Z" fill="black"/>
</svg>
