<svg width="384" height="207" viewBox="0 0 384 207" fill="none" xmlns="http://www.w3.org/2000/svg">
<rect x="0.333008" width="383.667" height="206.75" rx="4" fill="white"/>
<rect x="121.25" y="54.25" width="74.0404" height="74.2272" fill="white" stroke="#C7C7C7" stroke-width="0.5"/>
<rect x="124.102" y="63.4006" width="68.3358" height="62.0269" fill="white" stroke="#D9D9D9" stroke-width="0.5"/>
<rect x="124.102" y="56.918" width="68.3358" height="2.74072" fill="white" stroke="#D9D9D9" stroke-width="0.5"/>
<rect x="111.25" y="46.25" width="74.0404" height="74.2272" fill="white" stroke="#C7C7C7" stroke-width="0.5"/>
<rect x="114.102" y="55.4006" width="68.3358" height="62.0269" fill="white" stroke="#D9D9D9" stroke-width="0.5"/>
<rect x="114.102" y="48.918" width="68.3358" height="2.74072" fill="white" stroke="#D9D9D9" stroke-width="0.5"/>
<rect x="101.25" y="38.25" width="74.0404" height="74.2272" fill="white" stroke="#C7C7C7" stroke-width="0.5"/>
<rect x="104.102" y="47.4006" width="68.3358" height="62.0269" fill="white" stroke="#D9D9D9" stroke-width="0.5"/>
<rect x="104.102" y="40.918" width="68.3358" height="2.74072" fill="white" stroke="#D9D9D9" stroke-width="0.5"/>
<rect x="90.25" y="30.2498" width="74.0404" height="74.2272" fill="white" stroke="#C7C7C7" stroke-width="0.5"/>
<rect x="93.1016" y="39.4004" width="68.3358" height="62.0269" fill="white" stroke="#D9D9D9" stroke-width="0.5"/>
<path d="M128.019 80.28H122.19V79.0722C122.19 74.2938 125.131 71.8258 127.914 69.6729C130.277 67.7825 132.43 65.9972 132.43 62.9516C132.43 59.3809 130.224 57.0179 126.549 57.0179C122.821 57.0179 120.248 59.801 120.248 63.8443H113.579C113.579 56.3353 119.092 51.0318 126.706 51.0318C134.53 51.0318 139.256 55.5477 139.256 62.5315C139.256 68.1501 135.633 70.8281 132.587 72.981C130.014 74.8189 128.019 76.3942 128.019 79.0722V80.28ZM125.341 90.782C122.978 90.782 121.088 88.8916 121.088 86.6337C121.088 84.3232 122.978 82.4329 125.341 82.4329C127.651 82.4329 129.594 84.3232 129.594 86.6337C129.594 88.8391 127.651 90.782 125.341 90.782Z" fill="black"/>
<rect x="93.1016" y="32.9177" width="68.3358" height="2.74072" fill="white" stroke="#D9D9D9" stroke-width="0.5"/>
<rect x="190.462" y="73.2959" width="105.5" height="97.5" fill="white" stroke="#C7C7C7" stroke-width="0.5"/>
<rect x="195.25" y="78.251" width="94.5" height="87.5" fill="#FFEAEB" stroke="#D9D9D9" stroke-width="0.5"/>
<path d="M241.501 147.447C240.269 147.436 239.043 147.273 237.85 146.963C237.399 146.848 236.958 146.697 236.531 146.51C235.756 146.157 235.062 145.647 234.492 145.013C234.218 144.699 233.977 144.357 233.773 143.994C233.552 143.601 233.415 143.167 233.371 142.719C233.322 142.325 233.35 141.925 233.454 141.541C233.565 141.163 233.737 140.806 233.964 140.483C234.248 140.089 234.627 139.772 235.065 139.563C235.504 139.353 235.989 139.258 236.474 139.285C236.767 139.285 236.722 139.451 236.538 139.68C236.306 139.981 236.051 140.263 235.773 140.521C235.529 140.729 235.315 140.969 235.136 141.235C234.969 141.466 234.858 141.732 234.811 142.012C234.733 142.288 234.722 142.579 234.779 142.86C234.861 143.195 234.999 143.513 235.187 143.803C235.44 144.194 235.766 144.531 236.149 144.796C236.551 145.052 236.978 145.265 237.423 145.434C238.471 145.814 239.572 146.029 240.685 146.071C241.392 146.112 242.1 146.112 242.807 146.071C243.885 146.029 244.955 145.858 245.993 145.561C246.765 145.332 247.509 145.016 248.21 144.618C248.369 144.535 248.509 144.44 248.662 144.351C249.229 144.019 249.439 143.955 249.694 144.051C249.753 144.066 249.81 144.085 249.866 144.108C250.007 144.178 249.905 144.503 249.51 144.873C248.912 145.429 248.241 145.9 247.515 146.275C247.146 146.468 246.765 146.638 246.375 146.784C245.973 146.912 245.566 147.014 245.158 147.103C243.948 147.343 242.715 147.454 241.482 147.434L241.501 147.447Z" fill="#231F20"/>
<path d="M244.764 147.905C244.111 148.074 243.449 148.208 242.782 148.307L242.05 148.402C241.183 148.469 240.311 148.444 239.45 148.326C239.068 148.275 238.685 148.211 238.31 148.128C237.816 148.039 237.346 147.85 236.927 147.574C236.8 147.479 236.927 147.364 237.086 147.294C237.293 147.224 237.517 147.224 237.723 147.294C238.604 147.597 239.521 147.779 240.45 147.835C241.036 147.865 241.624 147.831 242.202 147.733C242.847 147.653 243.485 147.532 244.114 147.37C244.502 147.275 244.885 147.147 245.267 147.026L246.133 146.72L246.968 146.364C247.395 146.153 247.784 145.905 248.198 145.682L248.51 145.535C248.848 145.351 248.981 145.338 249.147 145.395L249.236 145.433C249.313 145.484 249.236 145.631 248.994 145.828C248.317 146.414 247.554 146.893 246.732 147.249C246.116 147.537 245.477 147.772 244.821 147.95L244.764 147.905Z" fill="#231F20"/>
<path d="M246.038 152.015C246.255 151.815 246.44 151.583 246.586 151.327C246.65 151.231 246.669 151.11 246.726 151.015C246.932 150.639 247.117 150.252 247.28 149.855C247.363 149.683 247.427 149.492 247.497 149.307C247.556 149.034 247.704 148.788 247.918 148.607C247.994 148.543 248.077 148.664 248.16 148.81C248.242 148.957 248.332 149.091 248.306 149.212C248.226 149.689 248.074 150.151 247.854 150.582C247.695 150.849 247.631 151.174 247.491 151.474C247.336 151.808 247.148 152.126 246.93 152.423C246.782 152.606 246.616 152.772 246.433 152.92L246.229 153.092L245.987 153.219C245.832 153.308 245.667 153.378 245.496 153.43C245.372 153.488 245.241 153.535 245.108 153.57C244.975 153.616 244.838 153.652 244.7 153.678C244.641 153.684 244.581 153.684 244.522 153.678C244.299 153.678 244.235 153.582 244.216 153.359C244.216 153.309 244.216 153.264 244.216 153.219C244.22 153.144 244.244 153.07 244.284 153.006C244.324 152.941 244.379 152.888 244.445 152.85C244.847 152.652 245.14 152.589 245.426 152.448C245.648 152.332 245.85 152.181 246.025 152.002L246.038 152.015Z" fill="#231F20"/>
<path d="M236.003 140.77C235.82 140.835 235.646 140.925 235.487 141.037C235.43 141.082 235.398 141.146 235.334 141.197C235.113 141.365 234.918 141.564 234.755 141.789C234.697 141.89 234.669 142.004 234.672 142.12C234.672 142.267 234.723 142.35 234.608 142.464C234.437 142.566 234.245 142.63 234.047 142.649C233.786 142.694 233.41 142.566 233.41 142.388C233.35 142.114 233.379 141.829 233.493 141.572C233.586 141.347 233.727 141.145 233.907 140.98C234.117 140.789 234.213 140.534 234.398 140.343C234.605 140.136 234.836 139.954 235.086 139.801C235.247 139.707 235.415 139.626 235.589 139.559C235.717 139.502 235.869 139.476 236.003 139.432C236.137 139.387 236.296 139.387 236.443 139.374C236.589 139.362 236.679 139.343 236.8 139.343C236.924 139.34 237.047 139.351 237.169 139.374C237.224 139.379 237.275 139.402 237.316 139.438C237.475 139.559 237.481 139.674 237.367 139.903C237.343 139.954 237.315 140.003 237.284 140.05C237.196 140.191 237.073 140.307 236.927 140.387C236.57 140.585 236.551 140.642 236.405 140.681C236.271 140.71 236.143 140.757 236.022 140.821L236.003 140.77Z" fill="#231F20"/>
<path d="M225.076 130.06C223.53 128.304 222.186 126.381 221.068 124.326C220.858 123.95 220.673 123.561 220.495 123.172C220.303 122.789 220.133 122.396 219.985 121.994C218.863 119.177 218.396 116.142 218.622 113.119C218.66 112.481 218.768 111.787 218.851 111.124C218.934 110.462 219.074 109.812 219.259 109.175C219.614 107.5 220.298 105.913 221.272 104.505C221.584 104.071 221.61 104.18 221.457 104.607C221.304 105.033 221.036 105.779 220.686 106.671C220.527 107.059 220.393 107.455 220.272 107.856C220.151 108.257 220.062 108.671 219.941 109.079C219.822 109.483 219.727 109.894 219.654 110.309C219.577 110.723 219.469 111.131 219.424 111.583C219.165 113.27 219.124 114.983 219.303 116.68C219.536 118.735 220.113 120.736 221.011 122.599C221.977 124.696 223.196 126.667 224.643 128.467C225.522 129.582 226.464 130.645 227.465 131.653C228.977 133.202 230.568 134.674 232.231 136.062C233.505 137.145 234.779 138.145 236.098 139.19C236.378 139.426 236.665 139.642 236.939 139.891C237.971 140.795 238.213 141.165 238.347 141.464C238.378 141.53 238.403 141.598 238.424 141.668C238.424 141.828 237.978 141.509 237.207 140.885C234.913 139.05 232.422 137.145 230.058 135.055C228.284 133.505 226.615 131.839 225.063 130.066L225.076 130.06Z" fill="#231F20"/>
<path d="M222.037 103.275C223.042 101.95 224.208 100.755 225.509 99.7197C226.822 98.7219 228.238 97.8675 229.733 97.1712C233.828 95.2815 238.419 94.7459 242.839 95.6421C243.419 95.7568 244.005 95.897 244.578 96.069C245.152 96.241 245.719 96.4768 246.286 96.7061C248.242 97.5758 249.982 98.8658 251.383 100.484C252.765 102.079 253.845 103.912 254.569 105.893C255.975 109.813 256.391 114.02 255.779 118.139C255.549 119.946 255.189 121.735 254.702 123.491C254.219 125.225 253.64 126.93 252.969 128.601C252.138 130.756 251.161 132.853 250.045 134.876C248.947 136.903 247.712 138.853 246.35 140.712C245.502 141.872 245.464 141.598 245.942 140.47C246.184 139.91 246.534 139.12 246.974 138.183C247.414 137.247 247.93 136.157 248.535 134.997C249.612 132.952 250.536 130.837 251.415 128.715C252.298 126.597 253.031 124.419 253.607 122.198C254.837 117.79 254.974 113.15 254.008 108.678C253.684 107.345 253.218 106.051 252.619 104.817C252.011 103.581 251.235 102.436 250.313 101.414C249.399 100.384 248.323 99.51 247.127 98.8278C245.928 98.1569 244.641 97.6552 243.304 97.3369C240.31 96.6281 237.193 96.6169 234.194 97.304C231.194 97.9911 228.393 99.3582 226.006 101.3C224.55 102.491 223.324 103.937 222.387 105.569C222.177 105.989 221.954 106.403 221.75 106.843L221.266 108.162C220.993 109.073 220.781 110.001 220.629 110.94L220.54 111.468L220.495 112.01L220.412 113.087L220.412 114.705L220.463 115.24C220.576 116.682 220.854 118.105 221.291 119.483C221.728 120.865 222.289 122.204 222.967 123.485C223.657 124.761 224.43 125.991 225.28 127.167C227.943 130.812 231.218 133.844 234.582 136.813C235.321 137.45 236.06 138.088 236.799 138.776C239.552 141.267 240.297 142.363 240.437 143.236C240.476 143.422 240.493 143.612 240.488 143.803C240.488 143.904 240.412 143.898 240.303 143.803C240.195 143.707 240.074 143.541 239.838 143.312C239.399 142.86 238.672 142.146 237.666 141.26C234.646 138.667 231.396 136.036 228.427 132.978C225.309 129.935 222.75 126.368 220.865 122.44C220.19 120.925 219.674 119.345 219.323 117.725C218.987 116.087 218.855 114.413 218.928 112.743C219.011 111.074 219.289 109.421 219.756 107.818C220.264 106.19 221.02 104.652 221.999 103.256L222.037 103.275Z" fill="#231F20"/>
<path d="M238.507 146.421C240.177 146.708 241.883 146.708 243.553 146.421C244.19 146.313 244.789 146.141 245.382 146.013C246.419 145.722 247.414 145.294 248.338 144.739C249.265 144.206 250.079 143.496 250.733 142.649C250.994 142.311 251.15 141.904 251.181 141.478C251.213 141.052 251.119 140.627 250.912 140.254C250.582 139.771 250.146 139.37 249.638 139.081C249.11 138.764 248.553 138.497 247.975 138.285C247.612 138.164 247.663 138.043 248.038 137.941C248.662 137.783 249.319 137.832 249.912 138.081C250.627 138.374 251.26 138.835 251.759 139.425C252.026 139.767 252.228 140.153 252.358 140.566C252.479 140.998 252.494 141.452 252.403 141.891C252.23 142.682 251.85 143.412 251.301 144.006C250.819 144.55 250.261 145.02 249.644 145.402C248.933 145.874 248.193 146.299 247.427 146.676C247.037 146.864 246.637 147.032 246.229 147.179C246.031 147.256 245.809 147.313 245.592 147.377L244.955 147.511C243.155 147.936 241.301 148.088 239.456 147.963C238.308 147.866 237.178 147.611 236.099 147.205C235.276 146.853 234.518 146.366 233.856 145.765C233.166 145.165 232.655 144.387 232.378 143.516C232.164 142.807 232.164 142.052 232.378 141.343C232.631 140.657 233.057 140.047 233.614 139.572C233.849 139.367 234.1 139.182 234.366 139.018C234.712 138.801 235.101 138.66 235.506 138.604C235.612 138.59 235.72 138.598 235.823 138.627C235.926 138.657 236.022 138.707 236.105 138.776C236.179 138.82 236.246 138.876 236.303 138.941C236.455 139.145 236.099 139.445 235.506 139.82C234.661 140.266 234.013 141.011 233.69 141.91C233.582 142.306 233.582 142.725 233.69 143.121C233.825 143.557 234.041 143.963 234.327 144.319C235.435 145.459 236.898 146.189 238.475 146.389L238.507 146.421Z" fill="#231F20"/>
<path d="M236.806 143.408C237.744 143.79 238.73 144.041 239.737 144.153C240.112 144.198 240.488 144.191 240.864 144.204C242.211 144.276 243.561 144.151 244.872 143.834C245.449 143.682 246.009 143.469 246.541 143.197C247.188 142.86 247.782 142.431 248.306 141.923C248.472 141.77 248.593 141.859 248.618 142.133C248.631 142.342 248.597 142.55 248.517 142.744C248.438 142.937 248.315 143.109 248.159 143.248C246.832 144.36 245.19 145.029 243.464 145.16C242.452 145.296 241.433 145.369 240.412 145.376C239.278 145.359 238.151 145.181 237.067 144.847C236.394 144.633 235.752 144.334 235.156 143.955C234.693 143.656 234.28 143.287 233.932 142.86C233.76 142.64 233.609 142.406 233.48 142.159C233.309 141.876 233.219 141.552 233.219 141.222C233.237 140.752 233.39 140.296 233.658 139.91C233.905 139.545 234.216 139.228 234.576 138.973C234.731 138.856 234.898 138.753 235.073 138.667C235.755 138.361 236.067 138.483 236.22 138.75C236.259 138.808 236.291 138.87 236.315 138.935C236.366 139.139 236.143 139.33 235.818 139.508C235.314 139.772 234.889 140.166 234.589 140.649C234.477 140.822 234.418 141.023 234.417 141.229C234.423 141.295 234.442 141.36 234.474 141.42C234.474 141.49 234.601 141.643 234.659 141.757C235.193 142.503 235.942 143.067 236.806 143.376L236.806 143.408Z" fill="#231F20"/>
<path d="M240.475 149.237C241.349 149.428 242.248 149.477 243.138 149.384C243.473 149.346 243.804 149.288 244.132 149.212C245.323 149.01 246.483 148.659 247.585 148.167C248.071 147.941 248.533 147.666 248.962 147.345C249.487 146.937 249.977 146.485 250.427 145.994C250.58 145.854 250.714 145.937 250.784 146.204C250.82 146.375 250.82 146.55 250.784 146.721C250.727 146.928 250.632 147.122 250.503 147.294C249.479 148.451 248.157 149.306 246.681 149.766C245.806 150.076 244.915 150.335 244.011 150.543C242.995 150.735 241.957 150.785 240.927 150.69C240.276 150.619 239.634 150.474 239.016 150.257C238.107 149.912 237.275 149.39 236.569 148.721C235.996 148.225 235.51 147.637 235.13 146.982C235.053 146.829 234.977 146.682 234.913 146.529C234.728 145.892 234.836 145.695 235.091 145.51C235.143 145.466 235.199 145.425 235.257 145.389C235.435 145.293 235.703 145.478 235.939 145.803C236.283 146.287 236.576 146.746 236.926 147.167C237.271 147.588 237.677 147.955 238.13 148.256C238.842 148.719 239.636 149.042 240.469 149.205L240.475 149.237Z" fill="#231F20"/>
<path d="M247.803 151.907C247.461 152.427 247.029 152.882 246.529 153.251C246.334 153.401 246.119 153.523 245.891 153.614C245.488 153.777 245.047 153.828 244.617 153.761C244.223 153.698 243.844 153.567 243.496 153.372C243.203 153.213 242.916 153.054 242.642 152.875C242.47 152.761 242.292 152.646 242.132 152.518C241.98 152.374 241.85 152.209 241.744 152.028C241.674 151.913 241.795 151.818 241.992 151.76C242.2 151.697 242.422 151.697 242.629 151.76C243.204 152.176 243.827 152.523 244.483 152.792C244.67 152.849 244.867 152.864 245.059 152.835C245.252 152.807 245.436 152.735 245.598 152.627C246.011 152.378 246.365 152.043 246.637 151.646C246.825 151.382 246.997 151.108 247.153 150.824C247.389 150.384 247.631 149.932 247.835 149.46C247.994 149.097 248.102 148.708 248.274 148.332C248.312 148.25 248.344 148.167 248.389 148.084C248.574 147.797 248.727 147.765 248.994 147.874C249.052 147.874 249.109 147.912 249.153 147.937C249.241 147.996 249.308 148.08 249.346 148.178C249.385 148.276 249.393 148.383 249.37 148.485C249.199 149.164 248.944 149.819 248.612 150.435C248.363 150.919 248.089 151.423 247.771 151.926L247.803 151.907Z" fill="#231F20"/>
<path d="M236.965 110.13C236.942 109.804 236.942 109.476 236.965 109.149L237.003 108.633L237.041 108.264C237.079 108.123 237.13 107.996 237.169 107.862C237.246 107.618 237.387 107.398 237.578 107.226C237.768 107.053 238.001 106.934 238.252 106.881C238.504 106.839 238.762 106.857 239.007 106.932C239.251 107.007 239.475 107.138 239.66 107.314C239.76 107.408 239.853 107.508 239.94 107.614C240.018 107.7 240.086 107.794 240.144 107.894C240.241 108.046 240.328 108.203 240.405 108.366C240.55 108.662 240.674 108.969 240.775 109.283C240.983 109.904 241.13 110.545 241.214 111.194C241.543 113.711 241.136 116.269 240.042 118.56C239.837 118.98 239.601 119.385 239.335 119.77C239.191 119.976 239.036 120.174 238.87 120.363C238.686 120.55 238.488 120.722 238.277 120.879C237.845 121.177 237.356 121.382 236.84 121.48C236.325 121.579 235.794 121.569 235.283 121.452C234.458 121.268 233.672 120.938 232.963 120.477C232.275 120.039 231.643 119.517 231.084 118.923C230.53 118.305 230.064 117.612 229.701 116.865C229.315 116.143 229.036 115.368 228.873 114.565C228.679 113.713 228.754 112.823 229.09 112.016C229.281 111.596 229.564 111.223 229.918 110.927C230.315 110.622 230.807 110.468 231.307 110.494C232.194 110.581 233.015 111 233.607 111.666C234.176 112.242 234.674 112.883 235.091 113.577C236.576 115.954 237.411 118.623 238.194 121.185C238.734 122.853 239.159 124.556 239.469 126.282C239.745 127.999 239.786 129.746 239.59 131.474C239.462 132.564 239.297 132.392 239.131 131.474L238.78 129.607C238.615 128.849 238.443 127.97 238.283 127.021C237.969 125.325 237.543 123.652 237.009 122.013C236.506 120.331 236.009 118.662 235.397 117.069C234.853 115.485 234.033 114.01 232.976 112.711C232.727 112.42 232.445 112.159 232.135 111.934C231.881 111.751 231.581 111.643 231.269 111.621C231.135 111.619 231.002 111.645 230.879 111.698C230.756 111.751 230.646 111.829 230.555 111.927C230.32 112.167 230.145 112.46 230.045 112.781C229.847 113.704 229.959 114.667 230.364 115.521C230.741 116.462 231.287 117.325 231.976 118.069C232.69 118.799 233.529 119.395 234.454 119.828C234.864 120.043 235.313 120.173 235.774 120.21C236.235 120.246 236.699 120.187 237.137 120.038C237.581 119.83 237.963 119.509 238.245 119.108C238.562 118.647 238.835 118.159 239.061 117.649C239.51 116.601 239.802 115.493 239.927 114.361C240.065 113.228 240.033 112.082 239.832 110.959C239.722 110.409 239.564 109.869 239.36 109.347C239.259 109.102 239.137 108.865 238.997 108.64C238.932 108.505 238.828 108.394 238.698 108.321C238.66 108.302 238.62 108.292 238.578 108.29C238.536 108.289 238.495 108.296 238.456 108.312C238.418 108.327 238.383 108.351 238.354 108.381C238.326 108.411 238.304 108.447 238.29 108.487C238.255 108.561 238.231 108.641 238.22 108.722C238.181 108.879 238.158 109.039 238.15 109.2C238.123 109.903 238.178 110.607 238.315 111.296C238.444 111.992 238.642 112.673 238.908 113.329C239.12 113.956 239.493 114.517 239.991 114.953C240.368 115.197 240.823 115.29 241.265 115.215C241.737 115.113 242.175 114.894 242.54 114.578C243.333 113.904 243.92 113.021 244.234 112.029C244.37 111.548 244.4 111.044 244.323 110.551C244.28 110.095 244.09 109.666 243.782 109.328C243.719 109.269 243.644 109.223 243.562 109.194C243.481 109.164 243.394 109.152 243.308 109.157C243.221 109.163 243.137 109.186 243.059 109.225C242.982 109.264 242.914 109.318 242.858 109.385C242.513 109.752 242.246 110.186 242.074 110.659C241.934 111.018 241.828 111.389 241.756 111.768C241.647 112.187 241.562 112.613 241.501 113.042C241.378 113.865 241.306 114.695 241.284 115.527C241.247 117.192 241.373 118.856 241.66 120.496C241.794 121.216 241.947 121.917 242.132 122.631C242.457 123.962 242.769 124.816 242.896 125.434C243.032 125.866 243.079 126.321 243.036 126.772C243.026 126.926 243.004 127.08 242.973 127.231C242.871 127.581 242.081 126.658 241.374 124.682C240.317 121.649 239.844 118.443 239.978 115.234C240.019 114.41 240.104 113.589 240.233 112.775C240.31 112.367 240.361 111.946 240.456 111.538L240.59 110.901C240.654 110.666 240.724 110.455 240.8 110.264C240.964 109.817 241.178 109.39 241.437 108.99C241.768 108.437 242.285 108.021 242.896 107.818C243.285 107.712 243.697 107.738 244.069 107.894C244.414 108.023 244.718 108.243 244.948 108.531C245.316 108.97 245.564 109.497 245.668 110.06C245.823 110.793 245.812 111.55 245.636 112.278C245.445 112.959 245.144 113.605 244.744 114.189C244.353 114.766 243.876 115.28 243.33 115.712C242.726 116.2 241.993 116.501 241.221 116.578C241.009 116.598 240.795 116.598 240.584 116.578C240.373 116.546 240.176 116.483 239.946 116.432C239.717 116.381 239.577 116.266 239.398 116.177C239.207 116.061 239.03 115.924 238.87 115.769C238.39 115.244 238.016 114.632 237.767 113.966C237.289 112.771 236.995 111.51 236.895 110.226L236.965 110.13Z" fill="#231F20"/>
<path d="M262.208 111.672C262.208 111.781 262.042 111.736 261.813 111.602C261.714 111.53 261.629 111.439 261.564 111.335C261.555 111.254 261.555 111.173 261.564 111.093C261.685 110.874 261.817 110.661 261.959 110.455C262.054 110.302 262.175 110.166 262.316 110.054C262.589 109.821 262.879 109.608 263.183 109.417C263.253 109.372 263.331 109.34 263.412 109.321C263.683 109.248 263.94 109.135 264.177 108.984C264.221 108.984 264.266 108.945 264.291 108.882C264.548 108.691 264.844 108.56 265.158 108.499C265.417 108.483 265.676 108.483 265.935 108.499C265.973 108.499 266.005 108.499 266.05 108.499C266.075 108.537 266.112 108.565 266.154 108.58C266.196 108.595 266.242 108.595 266.285 108.582C266.393 108.581 266.501 108.596 266.604 108.627C266.665 108.664 266.718 108.712 266.763 108.767C266.791 108.852 266.791 108.943 266.763 109.028C266.725 109.092 266.763 109.175 266.763 109.258C266.766 109.285 266.766 109.313 266.763 109.34C266.607 109.506 266.436 109.657 266.254 109.793C266.254 109.793 266.075 109.863 265.903 109.927C265.769 109.977 265.639 110.039 265.515 110.111C265.476 110.111 265.425 110.111 265.381 110.111C265.336 110.111 264.865 110.404 264.846 110.417C264.731 110.455 264.648 110.545 264.489 110.5C264.489 110.5 264.438 110.5 264.419 110.5C264.236 110.601 264.047 110.688 263.852 110.761C263.754 110.811 263.662 110.871 263.578 110.94L263.514 110.94C263.491 110.936 263.467 110.936 263.444 110.94C263.216 111.07 263.002 111.223 262.807 111.398C262.769 111.437 262.469 111.532 262.424 111.589C262.38 111.647 262.208 111.628 262.208 111.672Z" fill="#231F20"/>
<path d="M256.066 97.4769C256.066 97.5916 255.894 97.5406 255.658 97.4005C255.554 97.3277 255.465 97.2345 255.397 97.1265C255.388 97.0418 255.388 96.9564 255.397 96.8716C255.397 96.827 255.671 96.3365 255.767 96.1581C255.854 95.9919 255.968 95.8412 256.104 95.7121C256.372 95.4572 256.652 95.2215 256.933 94.9921C256.996 94.9412 257.07 94.9043 257.149 94.8838C257.41 94.8012 257.647 94.6594 257.844 94.4697C257.882 94.4378 257.92 94.4187 257.927 94.355C257.933 94.2913 258.506 93.8198 258.596 93.8007C258.831 93.7497 259.048 93.6669 259.271 93.5968C259.309 93.5968 259.322 93.5522 259.386 93.5968C259.449 93.6414 259.57 93.5968 259.634 93.5968C259.725 93.5515 259.822 93.5173 259.921 93.4949C259.998 93.4983 260.073 93.5155 260.144 93.5458C260.214 93.5458 260.329 93.7434 260.335 93.7688C260.341 93.7943 260.431 93.909 260.488 93.9727L260.552 94.0428C260.508 94.3072 260.429 94.5645 260.316 94.8074C260.316 94.8074 259.679 95.4063 259.609 95.4827C259.539 95.5592 259.513 95.5273 259.456 95.5337C259.398 95.5401 258.94 96.0115 258.914 96.0179C258.793 96.0816 258.71 96.2027 258.526 96.1708C258.487 96.1708 258.468 96.1708 258.449 96.2027C258.25 96.338 258.036 96.4512 257.812 96.5403C257.71 96.5977 257.627 96.6805 257.532 96.7442C257.51 96.747 257.489 96.747 257.468 96.7442C257.441 96.7387 257.412 96.7387 257.385 96.7442C257.162 96.8913 256.949 97.053 256.748 97.2284C256.608 97.2843 256.472 97.3481 256.34 97.4196C256.34 97.4196 256.073 97.4259 256.066 97.4769Z" fill="#231F20"/>
<path d="M239.208 90.252C239.278 90.3539 239.138 90.4431 238.889 90.5259C238.772 90.5513 238.65 90.5513 238.532 90.5259C238.461 90.4771 238.395 90.4217 238.335 90.3603C238.303 90.3284 238.112 89.7869 238.016 89.6148C237.941 89.4477 237.885 89.2724 237.851 89.0924C237.774 88.7356 237.666 88.3916 237.602 88.0411C237.589 87.9609 237.589 87.8792 237.602 87.799C237.646 87.5246 237.617 87.2436 237.519 86.9835C237.519 86.9389 237.519 86.8879 237.436 86.8561C237.279 86.5875 237.195 86.2819 237.194 85.9705C237.253 85.7146 237.294 85.4549 237.315 85.1932C237.315 85.155 237.315 85.1231 237.315 85.0785C237.315 85.0339 237.398 84.9065 237.405 84.8237C237.406 84.7093 237.423 84.5957 237.456 84.486C237.494 84.4223 237.57 84.3458 237.615 84.2821C237.642 84.26 237.674 84.2435 237.708 84.2337C237.742 84.2238 237.777 84.2208 237.812 84.2248C237.876 84.263 237.933 84.2248 237.991 84.1865L238.054 84.1865C238.318 84.3212 238.554 84.505 238.749 84.7281C238.749 84.7281 238.844 84.9447 238.946 85.1741C239.015 85.3483 239.094 85.5185 239.182 85.6838C239.214 85.7347 239.182 85.7985 239.182 85.8558C239.182 85.9131 239.431 86.5821 239.431 86.614C239.431 86.7669 239.513 86.9134 239.431 87.0855C239.423 87.1002 239.419 87.1166 239.419 87.1332C239.419 87.1499 239.423 87.1663 239.431 87.181C239.467 87.4449 239.477 87.7116 239.463 87.9774C239.463 88.1176 239.463 88.245 239.463 88.3852C239.464 88.4106 239.464 88.4362 239.463 88.4616C239.46 88.4913 239.46 88.5211 239.463 88.5508C239.463 88.8694 239.424 89.188 239.463 89.5065C239.463 89.583 239.335 89.9334 239.354 90.0162C239.373 90.0991 239.176 90.2137 239.208 90.252Z" fill="#231F20"/>
<path d="M218.565 91.3797C218.431 91.3797 218.501 91.1758 218.699 90.9082C218.802 90.7932 218.923 90.6944 219.056 90.6151L219.336 90.5769C219.38 90.5769 219.846 90.8318 220.024 90.8827C220.179 90.9413 220.323 91.0253 220.451 91.1312L221.266 91.7046C221.332 91.7466 221.386 91.8034 221.426 91.8703C221.585 92.0946 221.806 92.2674 222.063 92.3672C222.107 92.3672 222.139 92.4182 222.203 92.3991C222.495 92.4824 222.766 92.6256 222.999 92.8196C223.152 93.0214 223.316 93.215 223.49 93.3994C223.49 93.3994 223.56 93.3994 223.554 93.5013C223.547 93.6033 223.617 93.6797 223.675 93.7307C223.762 93.7964 223.837 93.8761 223.898 93.9664C223.925 94.0398 223.94 94.1174 223.942 94.1958C223.942 94.2722 223.808 94.4506 223.783 94.4634C223.758 94.4761 223.687 94.6099 223.643 94.6927C223.63 94.7225 223.612 94.7504 223.592 94.7756C223.332 94.8292 223.066 94.8443 222.802 94.8202L222.388 94.6354C222.171 94.5462 221.942 94.457 221.891 94.4443C221.84 94.4315 221.808 94.3742 221.776 94.3296C221.744 94.285 221.082 94.0556 221.056 94.0301C221.031 94.0046 220.782 93.9091 220.725 93.7116C220.725 93.6797 220.687 93.667 220.661 93.6542C220.429 93.5179 220.215 93.3531 220.024 93.1636C219.92 93.0774 219.811 92.9966 219.699 92.9215C219.699 92.9215 219.699 92.8769 219.654 92.8578C219.645 92.8262 219.628 92.7976 219.603 92.775C219.349 92.5775 219.157 92.3099 218.89 92.1379C218.82 92.0996 218.686 91.7301 218.616 91.6791C218.546 91.6282 218.629 91.3797 218.565 91.3797Z" fill="#231F20"/>
<rect x="0.833008" y="0.5" width="382.667" height="205.75" rx="3.5" stroke="black" stroke-opacity="0.1"/>
</svg>
