<svg width="384" height="207" viewBox="0 0 384 207" fill="none" xmlns="http://www.w3.org/2000/svg">
<rect width="383.667" height="206.75" rx="4" fill="white"/>
<rect x="126.38" y="42.3802" width="105.24" height="97.2396" fill="white" stroke="#C7C7C7" stroke-width="0.760417"/>
<rect x="130.883" y="46.974" width="96.2396" height="88.2396" fill="#EDEDED" stroke="#D9D9D9" stroke-width="0.760417"/>
<path d="M176.808 88.5304C176.818 88.2036 176.945 87.8913 177.166 87.6504C177.387 87.4094 177.688 87.256 178.012 87.2179C178.261 87.1797 178.65 87.6193 178.72 87.6767C178.782 87.975 178.822 88.2773 178.841 88.5814C178.841 88.7343 178.446 91.939 178.204 93.1687C178.159 93.3917 178.108 93.6147 178.038 93.8504C177.99 94.0191 177.932 94.185 177.866 94.3474C177.792 94.5299 177.709 94.7085 177.617 94.8826C177.433 95.2209 177.179 95.5163 176.872 95.7491C176.548 95.948 176.185 96.0761 175.808 96.125L175.171 96.1759L174.814 96.2142C174.304 96.2779 173.795 96.3543 173.285 96.4435C173.036 96.4881 172.763 96.5391 172.54 96.5901C172.51 96.5958 172.483 96.6116 172.463 96.6347C172.456 96.6554 172.456 96.6777 172.463 96.6984C172.475 96.7174 172.49 96.7345 172.508 96.7493L172.571 96.7876L172.692 96.864C173.03 97.0743 173.381 97.2654 173.731 97.4438C174.081 97.6222 174.445 97.7942 174.808 97.9471C174.91 97.9917 175.356 98.1765 175.712 98.2912C176.079 98.3474 176.421 98.5115 176.694 98.7627C176.764 98.8328 176.821 98.9028 176.866 98.9538C176.928 99.0385 176.979 99.1305 177.019 99.2278C177.099 99.4352 177.165 99.6481 177.216 99.8649C177.259 100.472 177.196 101.082 177.031 101.668L176.948 102.082C176.948 102.139 176.948 102.082 176.948 102.12C176.948 102.12 176.948 102.171 176.866 102.26C176.792 102.368 176.726 102.481 176.668 102.598C176.639 102.642 176.621 102.692 176.617 102.745C176.617 102.808 176.681 102.821 176.796 102.808H176.872C176.917 102.808 176.961 102.719 177.012 102.808C177.152 103.006 177.369 102.808 177.649 102.636C178.146 102.279 178.661 101.947 179.191 101.642C179.486 101.512 179.794 101.412 180.109 101.343C180.389 101.267 180.472 101.642 180.414 101.732C180.255 101.987 180.535 101.993 180.644 102.095C180.684 102.131 180.716 102.174 180.739 102.222C180.342 102.711 179.916 103.177 179.465 103.618L178.975 104.127L178.853 104.255L178.707 104.395L178.35 104.72C177.917 105.115 177.458 105.523 177.331 105.618L176.999 105.879C176.757 106.09 176.362 106.395 175.693 107.001L175.056 107.568C174.993 107.629 174.925 107.684 174.852 107.733L174.687 107.81L174.323 107.976C174.261 108.004 174.197 108.03 174.132 108.052H173.986L173.686 108.109C173.571 108.099 173.458 108.067 173.355 108.014L173.291 107.963C173.247 107.963 173.164 107.905 173.119 107.88C173.012 107.824 172.922 107.74 172.858 107.638C172.795 107.53 172.746 107.414 172.712 107.294C172.667 107.185 172.616 107.122 172.597 107.071C172.498 106.625 172.54 106.16 172.718 105.739L173.674 101.63L173.744 101.286L173.782 101.095C173.782 101.044 173.782 100.942 173.782 100.935L173.648 100.878C173.225 100.698 172.827 100.464 172.463 100.183C172.315 100.078 172.154 99.9903 171.985 99.9222L171.456 99.6674L171.195 99.5272L170.858 99.3425C170.259 99.0186 169.686 98.6501 169.144 98.2402C168.683 97.9044 168.304 97.4688 168.035 96.966C167.938 96.7647 167.871 96.5499 167.838 96.3288C167.828 96.2144 167.828 96.0993 167.838 95.9848C167.838 95.8574 167.927 95.7236 167.92 95.6089C167.985 95.3868 168.108 95.1864 168.277 95.0291L168.519 94.7743C168.582 94.7204 168.65 94.6734 168.723 94.6341L169.074 94.4111C169.195 94.341 169.354 94.2837 169.494 94.22C169.798 94.0897 170.111 93.9811 170.431 93.895C170.676 93.8321 170.925 93.7832 171.176 93.7485L172.017 93.6083C172.546 93.4936 173.081 93.4044 173.616 93.3343L174.425 93.2388L174.833 93.2005H174.999C175.036 93.2103 175.076 93.2103 175.114 93.2005C175.148 93.1756 175.173 93.1396 175.184 93.0986C175.202 93.0625 175.215 93.0238 175.222 92.9839C175.26 92.8565 175.311 92.6845 175.349 92.5188C175.445 92.1939 176.133 90.3653 176.197 89.8747C176.235 89.5689 176.808 88.7853 176.808 88.5304Z" fill="#231F20"/>
<path d="M174.031 108.88C173.878 108.88 173.718 108.88 173.566 108.88C173.418 108.854 173.273 108.816 173.132 108.766C172.992 108.715 172.865 108.625 172.731 108.562C172.618 108.464 172.515 108.355 172.425 108.237C172.263 107.975 172.159 107.682 172.119 107.377C172.119 107.217 172.119 107.064 172.075 106.905V106.593C172.103 105.859 172.186 105.129 172.323 104.408C172.444 103.707 172.584 103.019 172.744 102.337L172.992 101.318L173.043 101.114V101.069L173.075 100.973C173.075 100.973 173.024 100.935 172.999 100.916H172.954L172.858 100.878L171.858 100.496C171.161 100.233 170.482 99.924 169.826 99.5718C169.188 99.2309 168.584 98.8298 168.023 98.374C167.736 98.1403 167.463 97.8892 167.207 97.6222L166.876 97.1826C166.704 96.9914 166.538 96.7175 166.366 96.4881C166.237 96.2461 166.163 95.9785 166.149 95.7044C166.201 95.4413 166.317 95.1953 166.489 94.9892C166.66 94.7832 166.881 94.6238 167.131 94.5257C167.519 94.3325 167.927 94.1809 168.348 94.0734C169.021 93.8938 169.704 93.7492 170.393 93.6401C171.074 93.5318 171.75 93.4426 172.431 93.3789C172.769 93.347 173.113 93.3152 173.457 93.2961H173.833H174.018L175.216 89.932C175.687 88.6578 176.146 87.3835 176.758 86.1475L176.872 85.9182C176.923 85.8226 176.987 85.727 177.051 85.6314C177.162 85.4424 177.314 85.2811 177.497 85.16C177.838 85.002 178.225 84.9726 178.586 85.0771C178.773 85.1334 178.949 85.2194 179.109 85.332C179.239 85.4129 179.363 85.5046 179.478 85.606C179.896 85.9692 180.282 86.3678 180.631 86.7974C181.313 87.6193 181.906 88.4475 182.543 89.2631C182.931 89.7728 183.333 90.2697 183.734 90.7667L184.371 91.4994C184.486 91.6332 184.581 91.7415 184.69 91.8498L184.926 91.7351L185.48 91.4994C185.9 91.3274 186.321 91.1681 186.754 91.0343C187.647 90.7158 188.591 90.5647 189.538 90.5883C189.766 90.5922 189.988 90.6631 190.175 90.7922C190.297 90.8814 190.328 90.9578 190.29 91.0279C190.252 91.098 189.908 91.2382 189.545 91.4229C188.812 91.767 187.633 92.436 186.085 93.0795L185.805 93.1941L185.352 93.3598C184.97 93.5318 184.588 93.723 184.212 93.9013L183.441 93.0221L183.065 92.5698L182.861 92.3213C182.594 91.9836 182.326 91.6523 182.071 91.3146L180.574 89.2886C180.071 88.6514 179.574 87.957 179.07 87.3772C178.851 87.1152 178.608 86.8742 178.344 86.6572C178.268 86.6126 178.299 86.619 178.293 86.619C178.287 86.6156 178.281 86.6139 178.274 86.6139C178.267 86.6139 178.261 86.6156 178.255 86.619L178.166 86.7846C178.045 87.0204 177.924 87.288 177.802 87.5556C177.567 88.0844 177.344 88.6387 177.121 89.193C176.681 90.308 176.254 91.442 175.846 92.5761L175.477 93.3598L175.044 94.634C174.18 94.6393 173.316 94.6882 172.457 94.7806C171.763 94.857 171.068 94.959 170.386 95.0864C169.711 95.2033 169.045 95.3672 168.392 95.577L168.163 95.6598L168.074 95.6917C168.021 95.7152 167.972 95.7452 167.927 95.7809C167.882 95.8127 167.831 95.8573 167.838 95.9147C167.844 95.972 167.889 96.0166 167.914 96.0676C167.962 96.1431 168.018 96.2135 168.08 96.2778C168.194 96.4198 168.315 96.5559 168.443 96.6856C169.225 97.4565 170.137 98.0822 171.138 98.5333C171.648 98.7754 172.17 98.992 172.718 99.1704L173.61 99.5081C174.037 99.6737 174.443 99.8874 174.821 100.145L174.521 101.247L174.336 101.993C174.228 102.432 174.126 102.878 174.031 103.324C173.837 104.201 173.693 105.088 173.597 105.981C173.579 106.27 173.579 106.559 173.597 106.848C173.585 107 173.628 107.151 173.718 107.275C173.782 107.317 173.854 107.343 173.93 107.349C174.006 107.356 174.082 107.343 174.152 107.313C174.193 107.305 174.234 107.292 174.273 107.275L174.451 107.192C174.572 107.141 174.7 107.052 174.827 106.988C175.862 106.298 176.8 105.473 177.618 104.535C178.076 104.044 178.503 103.528 178.93 103L179.567 102.203L180.383 101.005L181.581 101.719L182.403 102.203C182.95 102.522 183.505 102.84 184.059 103.127C184.613 103.414 185.168 103.719 185.735 103.987C186.015 104.127 186.295 104.255 186.582 104.376C186.722 104.446 186.862 104.49 187.003 104.554L187.213 104.631L187.353 104.682C187.457 104.717 187.564 104.744 187.672 104.764C187.767 104.764 187.901 104.809 187.946 104.688C188.031 104.501 188.062 104.293 188.035 104.089C187.971 103.395 187.811 102.713 187.557 102.063C187.303 101.39 187.005 100.734 186.665 100.101C186.493 99.782 186.314 99.4635 186.13 99.1513C186.066 99.0366 185.862 98.7053 185.735 98.4695L185.633 98.2784C185.633 98.2083 185.537 98.1446 185.633 98.0809L185.837 97.6923L186.041 97.3546L186.219 97.0806C186.321 96.9404 186.423 96.7939 186.531 96.6537C186.74 96.3933 186.964 96.1445 187.2 95.9083C187.857 95.2317 188.649 94.7019 189.526 94.3537C189.927 94.1766 190.377 94.1429 190.8 94.2581C190.944 94.293 191.083 94.3465 191.214 94.4174C191.533 94.685 190.615 95.0546 189.303 96.0485C188.811 96.4206 188.364 96.8482 187.971 97.3227C187.774 97.5585 187.589 97.8069 187.417 98.0554L187.359 98.151V98.1892C187.35 98.1987 187.345 98.2112 187.345 98.2243C187.345 98.2373 187.35 98.2498 187.359 98.2593C187.359 98.2593 187.359 98.2593 187.429 98.3676C187.5 98.4759 187.608 98.6734 187.697 98.8263C187.875 99.1322 188.041 99.4635 188.2 99.7757C188.537 100.431 188.825 101.11 189.06 101.808C189.191 102.171 189.299 102.541 189.385 102.917C189.43 103.108 189.462 103.305 189.494 103.503V103.815C189.497 103.868 189.497 103.921 189.494 103.974V104.191C189.54 104.837 189.345 105.477 188.946 105.988L188.793 106.16L188.716 106.243H188.608C188.469 106.281 188.326 106.307 188.181 106.319C187.865 106.328 187.549 106.29 187.245 106.204C186.815 106.093 186.396 105.949 185.99 105.771C185.652 105.624 185.314 105.472 184.989 105.312C184.352 104.994 183.715 104.675 183.078 104.318L181.53 103.458L180.835 103.057L179.994 104.14C179.51 104.777 178.981 105.344 178.446 105.924C177.89 106.509 177.298 107.06 176.675 107.574C176.345 107.84 176.001 108.087 175.643 108.313C175.445 108.421 175.26 108.536 175.005 108.638C174.87 108.709 174.727 108.762 174.579 108.797L174.05 108.925L174.031 108.88Z" fill="#221F1F"/>
<path d="M209.487 81.8914C209.487 82.0124 209.302 81.9869 209.079 81.8914C209.009 81.8595 208.85 81.7002 208.85 81.6556C208.843 81.5708 208.843 81.4856 208.85 81.4008C208.85 81.3562 209.207 80.8337 209.334 80.6553C209.447 80.4817 209.584 80.3251 209.742 80.1902C210.054 79.9163 210.379 79.6295 210.685 79.3747C210.757 79.3146 210.839 79.2672 210.927 79.2345C211.216 79.1042 211.486 78.9348 211.73 78.7312C211.768 78.6993 211.819 78.6739 211.838 78.6101C212.087 78.3587 212.384 78.1594 212.711 78.024C213.004 77.973 213.259 77.8711 213.545 77.8329C213.59 77.8329 213.622 77.8329 213.679 77.8329C213.722 77.8581 213.77 77.8714 213.819 77.8714C213.869 77.8714 213.917 77.8581 213.959 77.8329C214.082 77.8129 214.207 77.8129 214.329 77.8329C214.4 77.8468 214.471 77.866 214.539 77.8902C214.603 77.8902 214.622 78.0176 214.609 78.0367C214.597 78.0558 214.609 78.1323 214.667 78.1769V78.2215C214.667 78.2215 214.558 78.3935 214.463 78.5847C214.387 78.7059 214.302 78.8209 214.208 78.9287C214.208 78.9606 213.437 79.483 213.367 79.5658C213.319 79.5959 213.264 79.6134 213.208 79.6168L212.571 80.0883C212.43 80.152 212.328 80.2667 212.144 80.2603C212.11 80.262 212.079 80.2756 212.054 80.2985C211.835 80.4438 211.608 80.5757 211.373 80.6936C211.258 80.7636 211.156 80.8528 211.048 80.9293H210.978C210.946 80.9381 210.916 80.951 210.889 80.9675C210.627 81.1475 210.38 81.3478 210.149 81.5664C210.099 81.6174 209.761 81.7639 209.71 81.834C209.659 81.9041 209.493 81.8468 209.487 81.8914Z" fill="#231F20"/>
<path d="M209.321 95.7617C209.2 95.8318 209.124 95.6725 209.034 95.3731C208.998 95.2353 208.998 95.0903 209.034 94.9525C209.108 94.88 209.189 94.8159 209.277 94.7614C209.645 94.7013 210.019 94.6799 210.391 94.6977C210.648 94.7049 210.902 94.7522 211.143 94.8379C211.623 94.9988 212.093 95.186 212.551 95.3985C212.653 95.4466 212.745 95.5112 212.825 95.5897C213.109 95.8407 213.424 96.0547 213.762 96.2268C213.812 96.2686 213.875 96.2912 213.94 96.2905C214.324 96.449 214.676 96.6757 214.979 96.9595C215.187 97.2226 215.381 97.497 215.559 97.7814C215.559 97.8196 215.635 97.8387 215.629 97.9088C215.629 98.0745 215.705 98.1191 215.769 98.1955C215.857 98.3036 215.936 98.4186 216.005 98.5396C216.038 98.614 216.057 98.6939 216.062 98.7753C216.062 98.8454 215.947 98.941 215.922 98.941C215.896 98.941 215.833 99.0238 215.794 99.0748L215.75 99.1257C215.75 99.1257 214.921 98.9219 214.851 98.89L214.686 98.8008L214.335 98.6224C214.061 98.5077 213.826 98.3293 213.762 98.3166C213.698 98.3038 213.673 98.2274 213.634 98.17C213.596 98.1127 212.851 97.7623 212.825 97.7495C212.685 97.6349 212.507 97.5966 212.424 97.3991C212.424 97.3609 212.373 97.3481 212.341 97.329C212.08 97.1952 211.844 97.0105 211.589 96.8512C211.459 96.7739 211.323 96.7078 211.182 96.6537C211.182 96.6537 211.143 96.6155 211.118 96.5963C211.095 96.5697 211.067 96.5481 211.035 96.5326C210.722 96.3767 210.39 96.2611 210.047 96.1886C209.971 96.1886 209.633 95.9528 209.538 95.9656C209.442 95.9783 209.372 95.7235 209.321 95.7617Z" fill="#231F20"/>
<path d="M144.627 113.538C144.563 113.678 144.391 113.538 144.142 113.315C144.045 113.186 143.975 113.038 143.938 112.881C143.956 112.772 143.986 112.665 144.028 112.563C144.293 112.32 144.572 112.093 144.862 111.881C145.057 111.731 145.271 111.608 145.499 111.518L146.844 110.925C146.943 110.881 147.048 110.853 147.156 110.842C147.526 110.791 147.884 110.674 148.214 110.498C148.275 110.48 148.329 110.442 148.367 110.39C148.709 110.181 149.08 110.025 149.469 109.925C149.8 109.925 150.106 109.836 150.444 109.785C150.495 109.785 150.533 109.785 150.596 109.785C150.647 109.812 150.704 109.826 150.762 109.826C150.82 109.826 150.877 109.812 150.928 109.785C151.067 109.758 151.207 109.741 151.348 109.734C151.431 109.742 151.512 109.759 151.59 109.785C151.667 109.785 151.692 109.944 151.68 109.97C151.667 109.995 151.718 110.084 151.75 110.135V110.193C151.555 110.468 151.342 110.729 151.113 110.976C151.113 111.04 150.074 111.562 149.966 111.613C149.902 111.645 149.832 111.66 149.762 111.658C149.73 111.658 148.921 112.129 148.889 112.142C148.704 112.206 148.551 112.327 148.328 112.289C148.284 112.289 148.252 112.289 148.22 112.289C147.918 112.422 147.608 112.533 147.29 112.62C147.13 112.671 146.984 112.754 146.831 112.818C146.801 112.821 146.771 112.821 146.742 112.818C146.704 112.814 146.665 112.814 146.627 112.818C146.26 112.954 145.902 113.116 145.557 113.302C145.48 113.353 145.028 113.397 144.92 113.461C144.811 113.525 144.658 113.48 144.627 113.538Z" fill="#231F20"/>
<path d="M147.488 95.1691C147.596 95.1245 147.628 95.2774 147.622 95.5514C147.609 95.6762 147.572 95.7973 147.513 95.9082C147.451 95.9603 147.385 96.0072 147.316 96.0484C147.271 96.0484 146.761 96.0484 146.589 96.0484C146.428 96.0577 146.267 96.0405 146.112 95.9974C145.793 95.9337 145.474 95.8891 145.181 95.8572C145.112 95.8486 145.045 95.827 144.984 95.7935C144.771 95.6965 144.536 95.657 144.302 95.6788C144.281 95.6746 144.26 95.6759 144.24 95.6826C144.22 95.6893 144.202 95.7012 144.187 95.7171C143.95 95.7735 143.705 95.795 143.461 95.7808C143.254 95.7171 143.04 95.6765 142.824 95.6597C142.824 95.6597 142.767 95.6597 142.728 95.6597C142.69 95.6597 142.582 95.6024 142.518 95.6087C142.454 95.6151 142.346 95.6087 142.244 95.6087C142.185 95.5903 142.127 95.5669 142.072 95.5387C142.041 95.4938 142.026 95.4402 142.028 95.3858C142.028 95.322 141.983 95.2711 141.958 95.2137C141.952 95.1951 141.952 95.1751 141.958 95.1564C142.082 94.9591 142.237 94.7828 142.416 94.6339C142.732 94.485 143.057 94.3593 143.391 94.258C143.446 94.2459 143.502 94.2459 143.557 94.258C143.811 94.2027 144.069 94.1601 144.328 94.1306C144.481 94.1306 144.633 94.1306 144.767 94.2262C144.767 94.2262 144.825 94.2262 144.856 94.2262C145.104 94.2504 145.348 94.3039 145.583 94.3855C145.702 94.417 145.824 94.4426 145.946 94.4619L146.003 94.5001L146.08 94.5384C146.366 94.5893 146.628 94.7168 146.914 94.7486C146.978 94.7486 147.246 94.9589 147.322 94.9589C147.399 94.9589 147.443 95.1882 147.488 95.1691Z" fill="#231F20"/>
<path d="M151.285 85.8927C151.432 85.8927 151.413 86.1029 151.285 86.3641C151.209 86.4801 151.106 86.5761 150.986 86.6445C150.894 86.6502 150.803 86.6502 150.712 86.6445C150.68 86.6445 150.119 86.3514 149.922 86.2686C149.732 86.1824 149.553 86.0756 149.387 85.95C149.049 85.7015 148.692 85.4722 148.342 85.2364C148.266 85.1795 148.195 85.1155 148.131 85.0453C147.918 84.7854 147.656 84.569 147.36 84.4082C147.331 84.4012 147.301 84.4005 147.271 84.406C147.241 84.4114 147.213 84.423 147.188 84.44C146.853 84.3 146.541 84.1087 146.265 83.873C146.08 83.6372 145.87 83.4334 145.666 83.2359C145.666 83.2359 145.596 83.1976 145.589 83.1339C145.583 83.0702 145.5 82.9555 145.43 82.8982C145.332 82.8211 145.242 82.7335 145.162 82.637C145.122 82.571 145.096 82.4971 145.086 82.4203C145.086 82.3502 145.182 82.2228 145.207 82.2164C145.232 82.2101 145.29 82.1081 145.322 82.0444C145.332 82.0216 145.344 82.0002 145.36 81.9807C145.651 81.9828 145.94 82.0236 146.22 82.1018L146.723 82.3439L147.29 82.6115C147.354 82.6115 147.386 82.6879 147.431 82.7389C147.475 82.7899 148.201 83.1339 148.227 83.153C148.361 83.2613 148.533 83.3187 148.616 83.5098C148.623 83.525 148.634 83.5385 148.647 83.5494C148.661 83.5604 148.676 83.5686 148.692 83.5735C148.943 83.738 149.18 83.9234 149.399 84.1278C149.514 84.2234 149.648 84.2999 149.769 84.3891C149.791 84.4079 149.809 84.4319 149.82 84.4591C149.842 84.4877 149.868 84.5134 149.896 84.5356C150.196 84.7395 150.451 85.0007 150.769 85.1727C150.846 85.2173 151.081 85.5677 151.164 85.6251C151.247 85.6824 151.228 85.8863 151.285 85.8927Z" fill="#231F20"/>
<path d="M165.557 61.0765C166.092 62.0195 166.64 62.9433 167.233 63.848C167.825 64.7528 168.475 65.6193 169.144 66.4666C169.813 67.314 170.527 68.1359 171.221 68.9642C171.916 69.7924 172.648 70.5888 173.394 71.3661C173.48 71.4574 173.548 71.5649 173.592 71.6824C173.637 71.7999 173.658 71.9252 173.654 72.0508C173.65 72.1765 173.621 72.3001 173.568 72.4144C173.516 72.5287 173.441 72.6315 173.349 72.7169C173.262 72.8117 173.156 72.8873 173.038 72.9391C172.92 72.9909 172.793 73.0176 172.664 73.0176C172.535 73.0176 172.408 72.9909 172.29 72.9391C172.172 72.8873 172.066 72.8117 171.979 72.7169C171.215 71.8886 170.495 71.0285 169.807 70.1683C169.121 69.283 168.483 68.3621 167.895 67.4096C167.258 66.4666 166.723 65.4982 166.207 64.4979C165.658 63.4891 165.241 62.4143 164.964 61.2995C164.96 61.2289 164.979 61.1587 165.017 61.0993C165.056 61.0399 165.112 60.9944 165.178 60.9695C165.245 60.9445 165.317 60.9415 165.385 60.9608C165.453 60.98 165.514 61.0206 165.557 61.0765Z" fill="#231F20"/>
<path d="M186.945 60.503C186.576 61.2677 186.257 62.0551 185.989 62.8604C185.715 63.6759 185.479 64.5169 185.282 65.3707C184.876 67.0462 184.597 68.7501 184.447 70.4677C184.403 70.9328 183.81 71.1048 183.218 71.1048C182.625 71.1048 182.058 70.7417 182.141 70.1937C182.507 68.3816 183.027 66.6039 183.695 64.8801C184.017 64.0199 184.389 63.1796 184.81 62.3634C185.199 61.5009 185.746 60.7186 186.422 60.057C186.626 59.9041 186.989 60.2291 186.945 60.503Z" fill="#231F20"/>
<path d="M198.146 62.3189C197.751 63.3255 197.426 64.3832 197.095 65.4408L196.108 68.6264C195.77 69.6968 195.413 70.7672 194.999 71.8121C194.586 72.9176 194.074 73.9838 193.47 74.9977C193.389 75.1291 193.275 75.2374 193.14 75.3121C193.005 75.3869 192.853 75.4256 192.699 75.4246C192.407 75.4155 192.128 75.2999 191.915 75.0996C191.476 74.6919 191.195 74.1121 191.514 73.6661C192.117 72.8138 192.648 71.9122 193.1 70.971C193.591 70.0026 194.037 68.996 194.483 67.9893L195.814 64.9247C196.267 63.8989 196.726 62.8732 197.28 61.8665C197.458 61.6308 198.223 62.0194 198.146 62.3189Z" fill="#231F20"/>
<path d="M156.682 105.51C158.164 109.15 160.46 112.402 163.393 115.018C166.326 117.634 169.819 119.545 173.604 120.603C176.375 121.316 179.258 121.496 182.097 121.132C187.164 120.494 191.932 118.38 195.808 115.054C199.743 111.774 202.503 107.3 203.67 102.311C204.648 97.8535 204.446 93.2175 203.083 88.8616C202.224 86.1036 200.868 83.5256 199.082 81.2543C197.287 78.9808 195.107 77.04 192.641 75.5202C191.131 74.5517 191.52 74.2459 193.125 74.6218C193.604 74.746 194.076 74.8948 194.54 75.0678C195.062 75.2908 195.623 75.603 196.241 75.947C196.54 76.1318 196.878 76.3038 197.177 76.5268C197.477 76.7498 197.814 77.0047 198.108 77.2659C198.401 77.5271 198.745 77.8011 199.063 78.0878C199.382 78.3745 199.656 78.7249 199.955 79.069C202.057 81.4979 203.668 84.3105 204.702 87.3516C205.732 90.3628 206.236 93.5288 206.193 96.711C206.173 99.8978 205.588 103.056 204.466 106.039C203.299 109.015 201.568 111.739 199.369 114.06C196.748 116.873 193.604 119.148 190.112 120.756C186.575 122.399 182.715 123.231 178.815 123.19C176.685 123.125 174.571 122.798 172.521 122.215C170.489 121.585 168.533 120.73 166.691 119.667C164.86 118.578 163.151 117.297 161.594 115.844C160.059 114.389 158.689 112.77 157.51 111.014C156.069 108.853 154.953 106.492 154.197 104.006C153.456 101.512 153.11 98.9172 153.171 96.316C153.211 94.349 153.487 92.3939 153.993 90.4926C154.248 89.5432 154.553 88.6076 154.904 87.6893L155.522 86.3513C155.713 85.899 155.968 85.4785 156.159 85.0388C157.087 83.3142 158.195 81.6932 159.466 80.203C160.745 78.7351 162.167 77.397 163.709 76.2083C166.089 74.3699 168.747 72.9244 171.584 71.9268C174.424 70.9052 177.422 70.396 180.44 70.4231H181.428L182.415 70.4996C182.746 70.4996 183.052 70.5378 183.403 70.5888L184.397 70.7481C184.962 70.8345 185.521 70.9536 186.072 71.1049C186.537 71.2071 186.995 71.3412 187.442 71.5063L188.551 71.9077C188.846 72.0287 189.135 72.1648 189.417 72.3154C190.16 72.6264 190.816 73.1141 191.329 73.7362C191.497 73.9337 191.647 74.147 191.774 74.3733C191.889 74.6473 191.469 74.6282 190.64 74.3733C190.437 74.3096 190.207 74.2268 189.952 74.1312L189.092 73.8573L188.092 73.5196L186.932 73.1946C181.963 71.8158 176.686 72.0387 171.852 73.8318C169.382 74.72 167.061 75.9743 164.964 77.5526C163.915 78.3465 162.925 79.2153 162.002 80.1521C161.078 81.0986 160.226 82.1123 159.453 83.1848C158.32 84.7667 157.379 86.4777 156.65 88.2818C155.948 90.1211 155.479 92.041 155.254 93.9968C155 95.9403 155 97.9086 155.254 99.852C155.5 101.78 155.999 103.668 156.739 105.465L156.682 105.51Z" fill="#231F20"/>
<path d="M155.095 62.8286C155.789 63.9436 156.567 65.0076 157.331 66.0779C158.096 67.1483 158.924 68.1804 159.714 69.2253C161.326 71.3024 163.002 73.3284 164.754 75.2526C165.729 76.3675 163.69 78.2025 162.67 76.9855C161.039 74.8257 159.548 72.5957 158.134 70.3148C157.42 69.1807 156.777 68.0021 156.14 66.8234C155.503 65.6447 154.923 64.4341 154.369 63.2109C154.228 62.8604 154.866 62.5291 155.095 62.8286Z" fill="#231F20"/>
<path d="M158.185 70.4231C159.192 71.5254 160.218 72.6085 161.288 73.6088C161.823 74.1057 162.384 74.5708 162.964 75.0678C163.544 75.5647 164.098 76.1063 164.633 76.6479C165.226 77.285 163.951 78.3681 163.416 77.731C162.881 77.0938 162.486 76.6096 161.989 76.0744C161.492 75.5392 160.957 74.9913 160.46 74.4115C159.963 73.8317 159.511 73.2137 159.065 72.6021C158.619 71.9905 158.211 71.3278 157.79 70.7353C157.688 70.5123 158.026 70.2511 158.185 70.4231Z" fill="#231F20"/>
<path d="M186.811 60.6688C186.761 60.7834 186.62 60.7707 186.41 60.6688C186.346 60.6688 186.213 60.5095 186.219 60.4649C186.235 60.378 186.258 60.2927 186.289 60.21C186.511 59.9239 186.773 59.6707 187.066 59.4582C187.259 59.3037 187.474 59.1791 187.703 59.0887C188.184 58.9085 188.685 58.7887 189.194 58.7319C189.304 58.7127 189.416 58.7127 189.526 58.7319C189.908 58.7701 190.284 58.7701 190.653 58.7829C190.714 58.7958 190.777 58.7958 190.838 58.7829C191.251 58.7653 191.664 58.8147 192.061 58.9294L192.953 59.3053C192.998 59.3053 193.049 59.3053 193.074 59.3754C193.1 59.4455 193.24 59.4965 193.329 59.5347C193.458 59.5802 193.581 59.6378 193.699 59.7067C193.758 59.7486 193.811 59.7978 193.858 59.8532C193.903 59.8978 193.858 59.9934 193.814 59.9998C193.769 60.0062 193.775 60.0826 193.769 60.1272C193.763 60.1718 193.769 60.1591 193.769 60.1718C193.769 60.1845 192.998 60.2291 192.915 60.2291L192.361 60.1081C192.15 60.0751 191.937 60.0539 191.724 60.0444C191.662 60.0372 191.602 60.02 191.545 59.9934C191.245 59.9627 190.943 59.9478 190.641 59.9488C190.468 59.9453 190.297 59.9196 190.131 59.8724C190.098 59.8628 190.062 59.8628 190.029 59.8724C189.736 59.8724 189.449 59.8724 189.156 59.8724C189.01 59.888 188.865 59.9135 188.723 59.9488H188.64C188.606 59.9426 188.572 59.9426 188.538 59.9488C188.203 60.0216 187.883 60.1486 187.589 60.3247C187.416 60.3875 187.25 60.4664 187.092 60.5605C187.041 60.6051 186.831 60.6114 186.811 60.6688Z" fill="#231F20"/>
<path d="M165.601 61.5035C165.709 61.5672 165.69 61.7073 165.601 61.8602C165.543 61.9212 165.467 61.9615 165.384 61.9749C165.319 61.9614 165.255 61.9423 165.193 61.9176C165.026 61.7721 164.833 61.6578 164.626 61.5799C164.492 61.5226 164.346 61.4907 164.212 61.4334C163.896 61.3479 163.57 61.305 163.243 61.3059C163.167 61.3185 163.09 61.3185 163.014 61.3059C162.745 61.2519 162.468 61.2519 162.198 61.3059C162.151 61.3057 162.105 61.319 162.065 61.3442C161.763 61.4288 161.453 61.4822 161.141 61.5035H160.37C160.332 61.5035 160.293 61.5035 160.255 61.5035C160.182 61.4608 160.096 61.4472 160.013 61.4652C159.901 61.4716 159.788 61.4716 159.675 61.4652C159.616 61.4519 159.559 61.4327 159.503 61.4079C159.452 61.4079 159.465 61.2996 159.503 61.2868C159.542 61.2741 159.503 61.2104 159.503 61.1785C159.501 61.1659 159.501 61.1529 159.503 61.1403C159.597 61.0722 159.695 61.0105 159.796 60.9555C159.907 60.884 160.022 60.8202 160.14 60.7644L160.281 60.7134C160.37 60.6752 160.485 60.6433 160.599 60.6051L161.134 60.4458C161.191 60.4363 161.249 60.4363 161.306 60.4458C161.306 60.4458 162.001 60.2292 162.039 60.2292C162.196 60.1909 162.36 60.1909 162.517 60.2292C162.548 60.2356 162.581 60.2356 162.613 60.2292C162.893 60.1997 163.177 60.2147 163.454 60.2738C163.6 60.2738 163.747 60.2738 163.893 60.3311L163.97 60.363L164.072 60.3949C164.426 60.4825 164.765 60.622 165.078 60.809C165.159 60.8673 165.234 60.9335 165.301 61.0065C165.359 61.0897 165.423 61.1685 165.492 61.2422C165.543 61.2741 165.601 61.5035 165.601 61.5035Z" fill="#231F20"/>
<path d="M160.37 104.089C161.618 107.143 163.546 109.871 166.008 112.066C168.471 114.261 171.402 115.865 174.578 116.755C176.905 117.355 179.324 117.506 181.708 117.201C185.959 116.666 189.961 114.893 193.214 112.104C196.525 109.341 198.841 105.571 199.808 101.369C200.629 97.6288 200.46 93.7394 199.318 90.085C198.591 87.774 197.449 85.6149 195.947 83.7138C194.437 81.8191 192.606 80.204 190.538 78.9417C189.264 78.1325 189.595 77.8713 190.933 78.209C191.271 78.2982 191.666 78.4256 192.118 78.5849C192.571 78.7442 192.997 79.0373 193.539 79.3431C193.787 79.496 194.068 79.6425 194.323 79.8337L195.1 80.4708C195.359 80.6874 195.627 80.9168 195.903 81.1589C196.158 81.4137 196.4 81.6941 196.648 81.9808C200.136 86.095 201.994 91.3446 201.873 96.7367C201.853 99.3926 201.363 102.024 200.426 104.51C199.457 107.004 198.017 109.288 196.183 111.238C193.975 113.588 191.331 115.486 188.397 116.825C185.436 118.196 182.205 118.886 178.942 118.845C177.155 118.791 175.381 118.517 173.661 118.029C171.965 117.512 170.331 116.811 168.787 115.94C167.264 115.029 165.842 113.962 164.543 112.754C163.266 111.532 162.126 110.176 161.141 108.708C158.688 105.069 157.417 100.762 157.503 96.3735C157.536 94.7246 157.77 93.0858 158.198 91.4931C158.608 89.8976 159.213 88.359 160.001 86.9122C160.777 85.4662 161.706 84.1077 162.772 82.86C163.843 81.6275 165.034 80.5049 166.327 79.5087C168.325 77.9727 170.552 76.762 172.928 75.9217C175.301 75.0618 177.808 74.6304 180.331 74.6475H181.16L181.988 74.7112C182.544 74.7446 183.097 74.8127 183.644 74.9151C185.105 75.145 186.525 75.5894 187.856 76.2339C188.464 76.5041 188.999 76.9146 189.417 77.4317C189.558 77.5909 189.686 77.7614 189.799 77.9414C189.895 78.1644 189.544 78.1517 188.85 77.9414C188.506 77.8267 188.079 77.6674 187.576 77.5082L186.734 77.2215L185.766 76.9475C181.592 75.7929 177.161 75.9802 173.1 77.4827C171.042 78.2393 169.109 79.3002 167.366 80.6301C165.594 81.9521 164.041 83.5454 162.766 85.3512C161.808 86.6857 161.016 88.132 160.408 89.6582C159.81 91.1862 159.403 92.7828 159.198 94.4111C158.787 97.6888 159.226 101.017 160.472 104.076L160.37 104.089Z" fill="#231F20"/>
<rect x="213.667" y="119.125" width="44" height="44" fill="white" stroke="#E5E5E5"/>
<rect x="217.167" y="122.625" width="37" height="37" fill="#FF414C"/>
<path d="M238.604 143.263L241.675 147.757H241.709L242.145 148.538H236.089L233.06 143.263H238.604Z" fill="white"/>
<path d="M242.143 148.539L245.168 143.264L239.114 132.713H233.06L242.143 148.539Z" fill="white"/>
<path d="M230.033 137.986H236.087L230.035 148.537L227.006 143.263L230.033 137.986Z" fill="white"/>
<rect x="0.5" y="0.5" width="382.667" height="205.75" rx="3.5" stroke="black" stroke-opacity="0.1"/>
</svg>
