<svg width="307" height="148" viewBox="0 0 307 148" fill="none" xmlns="http://www.w3.org/2000/svg">
<g opacity="0.3">
<path d="M152.056 71.4753C137.837 79.3803 121.305 75.3598 119.012 72.8365C118.516 72.306 134.937 64.572 152.056 71.4753Z" fill="black"/>
</g>
<g opacity="0.3">
<path d="M129.182 117.83C128.728 116.434 128.24 115.021 127.723 113.642C127.542 113.133 127.304 112.648 127.112 112.141C126.435 110.358 125.734 108.578 124.97 106.83C124.621 106.051 124.247 105.294 123.86 104.547C123.35 103.598 122.788 102.669 122.369 101.685C122.244 101.375 122.534 101.252 122.935 101.336C123.196 101.408 123.439 101.532 123.651 101.702C123.862 101.871 124.036 102.081 124.163 102.32C125.223 104.293 126.136 106.34 126.896 108.445C127.35 109.709 127.943 110.972 128.449 112.25C128.997 113.646 129.496 115.073 129.999 116.501C130.299 117.377 130.578 118.263 130.864 119.146C131.067 119.82 131.273 120.493 131.475 121.167C131.677 121.84 131.855 122.521 132.044 123.194C132.18 123.721 132.334 124.241 132.491 124.751C132.648 125.261 132.77 125.798 132.902 126.318C132.97 126.548 133.026 126.781 133.07 127.016C133.213 127.903 133.171 128.199 132.875 128.412C132.811 128.466 132.743 128.515 132.672 128.559C132.435 128.663 132.18 128.335 132.023 127.725C131.548 125.913 131.063 124.001 130.491 122.088C130.083 120.668 129.639 119.24 129.154 117.83H129.182Z" fill="black"/>
</g>
<g opacity="0.3">
<path d="M149.051 123.959C147.809 124.657 146.608 125.4 145.397 126.185C144.957 126.472 144.542 126.789 144.102 127.075C142.556 128.091 141.01 129.124 139.356 130.032C138.619 130.451 137.849 130.807 137.052 131.096C136.786 131.184 136.516 131.259 136.242 131.319C135.955 131.372 135.662 131.392 135.37 131.379C135.066 131.365 134.766 131.307 134.48 131.204C134.344 131.138 134.208 131.068 134.075 130.995C133.948 130.916 133.831 130.823 133.726 130.716C133.443 130.461 133.695 130.318 134.058 130.269C134.152 130.254 134.248 130.245 134.344 130.241C134.442 130.241 134.557 130.216 134.658 130.216C134.759 130.216 134.857 130.216 134.969 130.216C135.08 130.216 135.178 130.237 135.293 130.237C135.733 130.268 136.175 130.22 136.598 130.094C137.077 129.954 137.544 129.777 137.994 129.564C138.919 129.138 139.837 128.615 140.766 128.084C141.875 127.445 142.943 126.632 144.043 125.899C145.247 125.09 146.486 124.294 147.732 123.55C148.507 123.093 149.295 122.657 150.098 122.249C151.317 121.628 152.576 121.089 153.867 120.636C154.858 120.277 155.871 119.983 156.9 119.757C157.13 119.718 157.357 119.673 157.598 119.642C157.905 119.587 158.219 119.587 158.526 119.642C158.61 119.652 158.69 119.68 158.761 119.724C158.833 119.768 158.895 119.827 158.942 119.896C158.989 119.952 159.03 120.013 159.064 120.078C159.144 120.287 158.802 120.476 158.212 120.56C157.317 120.713 156.43 120.916 155.556 121.167C155.11 121.282 154.67 121.446 154.223 121.586C153.776 121.725 153.337 121.903 152.904 122.095C151.593 122.639 150.318 123.269 149.089 123.98L149.051 123.959Z" fill="black"/>
</g>
<path d="M173.83 18.1368C172.052 16.9217 170.211 15.7999 168.316 14.7759C167.381 14.2747 166.416 13.833 165.426 13.4531C164.487 13.0715 163.49 12.8542 162.477 12.811C162.302 12.8118 162.126 12.8282 161.954 12.8598C161.775 12.877 161.598 12.9074 161.423 12.9506C161.054 13.0346 160.69 13.1371 160.331 13.2577C159.982 13.3763 159.598 13.4985 159.235 13.6451C158.872 13.7917 158.509 13.9173 158.146 14.0709C155.588 15.1179 153.085 16.3638 150.597 17.6307L146.873 19.5747L145.009 20.5519L144.542 20.7927C144.381 20.873 144.221 20.9567 144.106 21.023C143.839 21.1929 143.592 21.3919 143.369 21.6164C142.546 22.4988 141.841 23.4856 141.275 24.5515C140.681 25.6224 140.147 26.7258 139.677 27.8566C139.07 29.3034 138.546 30.7832 138.106 32.2889C137.886 33.0393 137.691 33.7966 137.534 34.5505C137.457 34.9274 137.387 35.3008 137.345 35.6743C137.295 36.0133 137.295 36.3579 137.345 36.6969C137.391 36.8784 137.373 36.8784 137.422 36.9586C137.471 37.0389 137.474 37.0598 137.447 37.1157C137.416 37.1537 137.377 37.1839 137.333 37.2039C137.289 37.224 137.24 37.2332 137.192 37.2308C137.09 37.2165 136.993 37.1771 136.91 37.1162C136.828 37.0553 136.761 36.9748 136.717 36.8818C136.416 36.3063 136.274 35.6601 136.309 35.0112C136.311 34.1525 136.428 33.2979 136.658 32.4704C137.105 30.8785 137.653 29.3165 138.298 27.7937C138.933 26.2594 139.68 24.7744 140.535 23.3509C140.973 22.6137 141.47 21.9133 142.022 21.2569C142.315 20.9113 142.64 20.5935 142.992 20.3076C143.185 20.1517 143.392 20.0138 143.61 19.8958L143.764 19.8155L143.896 19.7492L144.165 19.6131L148.513 17.3934C150.258 16.5139 152.031 15.5925 153.839 14.7061C155.651 13.7829 157.516 12.9671 159.423 12.263L160.23 12.0048C160.498 11.914 160.784 11.8617 161.064 11.7884C161.35 11.7157 161.642 11.6656 161.936 11.6383C162.235 11.5947 162.539 11.5841 162.84 11.6069C163.991 11.7107 165.119 11.9933 166.184 12.4445C168.237 13.3053 170.211 14.3422 172.085 15.5437C174.392 16.9816 176.622 18.5416 178.804 20.1366C182.116 22.5587 185.34 25.1169 188.534 27.6297C191.019 29.5807 193.476 31.4688 195.957 33.3499L197.598 34.5714C199.643 36.1105 200.26 36.5852 200.557 37.1436C200.634 37.2627 200.704 37.3862 200.767 37.5135C200.822 37.6811 200.578 37.6985 200.117 37.5135C199.448 37.2437 198.809 36.9032 198.212 36.4979C195.884 34.9065 193.619 33.151 191.322 31.3641L184.398 25.937C180.94 23.2567 177.446 20.5903 173.816 18.1647L173.83 18.1368Z" fill="black"/>
<path d="M143.205 29.3783L144.084 27.6088C144.379 26.9818 144.71 26.3723 145.076 25.7835C145.145 25.6788 145.222 25.5776 145.327 25.4345L145.529 25.2391L145.767 25.0855C145.929 25.0223 146.096 24.9699 146.266 24.9284C146.402 24.8866 146.527 24.8586 146.66 24.8307C148.308 24.505 149.934 24.0713 151.525 23.5324C151.874 23.4138 152.223 23.2602 152.572 23.1136C152.921 22.967 153.232 22.7925 153.546 22.6076C154.326 22.1331 155.071 21.6036 155.776 21.0231C156.003 20.859 156.223 21.0789 156.254 21.4733C156.269 21.7117 156.23 21.9503 156.139 22.1713C156.021 22.4279 155.844 22.6528 155.622 22.8274C154.776 23.4351 153.858 23.9368 152.89 24.3212C151.947 24.7011 150.975 25.0022 149.983 25.2216C148.817 25.4938 147.595 25.8463 146.454 26.122L146.311 26.1604C146.287 26.1706 146.265 26.1834 146.245 26.1988C146.215 26.2285 146.188 26.2613 146.164 26.2965C146.082 26.4083 146.006 26.5248 145.938 26.6455C145.791 26.8933 145.648 27.1656 145.508 27.4378C145.229 27.9857 144.96 28.5476 144.685 29.113C144.326 29.8529 143.955 30.5893 143.571 31.3222C142.988 32.4351 142.343 33.5151 141.641 34.5575C141.117 35.386 140.522 36.1682 139.865 36.8958C139.718 37.0592 139.562 37.2142 139.397 37.36C138.766 37.901 138.465 37.9533 138.158 37.7683C138.086 37.7299 138.017 37.6855 137.952 37.6357C137.908 37.5854 137.882 37.5224 137.876 37.4559C137.87 37.3894 137.886 37.3228 137.921 37.2658C138.024 37.0768 138.158 36.9068 138.319 36.7632C139.489 35.5821 140.505 34.2569 141.341 32.8194C142.008 31.7201 142.619 30.5614 143.194 29.3748L143.205 29.3783Z" fill="black"/>
<path d="M138.731 39.269V39.4645C138.734 39.4888 138.734 39.5134 138.731 39.5378V39.5761C138.731 39.6425 138.752 39.6215 138.765 39.6529C138.779 39.6843 138.804 39.6529 138.835 39.6808C138.89 39.6969 138.946 39.7075 139.003 39.7123C139.161 39.7263 139.32 39.7263 139.477 39.7123C139.826 39.6843 140.235 39.618 140.654 39.5692C141.026 39.5215 141.396 39.4504 141.76 39.3563C143.247 38.9759 144.688 38.2744 146.178 37.6112C146.304 37.5484 146.472 37.4856 146.625 37.4228C146.779 37.36 146.929 37.3181 147.082 37.2622C147.382 37.1645 147.679 37.0842 147.976 37.0075C148.566 36.8539 149.152 36.7283 149.742 36.6131C151.815 36.2222 153.891 35.936 155.923 35.5381C156.177 35.4858 156.429 35.4369 156.68 35.3776L156.865 35.3357L157.109 35.2938C157.263 35.2757 157.418 35.2676 157.573 35.2694C158.119 35.2972 158.663 35.3625 159.2 35.4649C160.247 35.6498 161.262 35.8662 162.288 36.0617C164.091 36.4317 165.922 36.6477 167.761 36.7073C168.906 36.7426 170.051 36.6133 171.16 36.3234C171.694 36.1771 172.209 35.971 172.696 35.7092C173.166 35.4266 173.59 35.0735 173.952 34.6621C174.416 34.1561 174.504 34.2573 174.347 34.9344C174.288 35.1325 174.207 35.3234 174.106 35.5033C173.968 35.7375 173.806 35.9574 173.624 36.1594C173.149 36.6597 172.567 37.0452 171.921 37.2867C170.693 37.6923 169.406 37.887 168.113 37.8625C166.868 37.8595 165.626 37.7592 164.396 37.5624C163.178 37.3809 161.978 37.1401 160.791 36.8923C160.194 36.7701 159.605 36.6445 159.018 36.5433C158.47 36.4244 157.911 36.3566 157.35 36.3409H157.176L156.903 36.4002C156.718 36.4421 156.537 36.484 156.352 36.5189L155.256 36.7387L153.05 37.154C151.584 37.4332 150.108 37.7159 148.684 38.051C148.293 38.1452 147.906 38.2464 147.532 38.3616C147.165 38.4759 146.807 38.6182 146.461 38.7874C145.721 39.1364 144.971 39.4854 144.199 39.8065C143.419 40.1384 142.612 40.4057 141.788 40.6057C141.578 40.6581 141.366 40.6964 141.156 40.7348L140.531 40.8186C140.108 40.8902 139.68 40.9345 139.251 40.9512C138.931 40.9654 138.612 40.9107 138.315 40.7907C138.139 40.7155 137.983 40.6018 137.856 40.4581C137.73 40.3144 137.638 40.1442 137.586 39.9601C137.5 39.6535 137.483 39.3316 137.537 39.0177C137.555 38.8709 137.587 38.7261 137.631 38.585C137.67 38.4486 137.716 38.3145 137.771 38.1836C138.223 37.2188 138.846 36.3438 139.61 35.601C139.887 35.3171 140.178 35.048 140.483 34.7948C140.791 34.5305 141.124 34.2967 141.477 34.0968C142.181 33.7466 142.91 33.4492 143.659 33.2068C145.114 32.7077 146.566 32.2505 147.976 31.7165C149.06 31.3196 150.117 30.8533 151.141 30.3205C152.145 29.8103 153.082 29.1798 153.933 28.4429C154.745 27.7215 155.38 26.8237 155.79 25.8184C155.904 25.5394 156.059 25.2794 156.251 25.0471C156.32 24.9548 156.396 24.8673 156.478 24.7853C156.603 24.6946 156.704 24.8411 156.774 25.225C156.805 25.4719 156.805 25.7216 156.774 25.9684C156.73 26.3148 156.637 26.6532 156.498 26.9736C156.386 27.244 156.253 27.5054 156.101 27.7553C155.945 27.9979 155.775 28.231 155.591 28.4533C155.226 28.8965 154.82 29.3033 154.376 29.6679C153.493 30.3748 152.536 30.9845 151.522 31.4862C149.511 32.4448 147.435 33.2611 145.309 33.9292C144.535 34.1945 143.763 34.4527 143.03 34.7389C142.685 34.8711 142.348 35.025 142.022 35.1996C141.955 35.2415 141.889 35.2764 141.819 35.3253L141.599 35.4823C141.453 35.594 141.306 35.7127 141.163 35.8313C140.586 36.3286 140.063 36.8854 139.603 37.4926C139.385 37.7813 139.192 38.0884 139.027 38.4105C138.878 38.6802 138.783 38.9767 138.748 39.283L138.731 39.269Z" fill="black"/>
<path d="M138.159 12.6818C135.618 13.5264 133.063 14.3989 130.617 15.4285C130.285 15.5681 129.964 15.7216 129.654 15.8787C129.503 15.959 129.343 16.0392 129.214 16.123C129.122 16.1729 129.036 16.2338 128.959 16.3045C128.881 16.4079 128.826 16.5269 128.799 16.6535C128.789 16.7214 128.807 16.7903 128.847 16.8454C128.925 16.9448 129.022 17.0268 129.134 17.0862C129.45 17.2515 129.797 17.3523 130.153 17.3829C130.976 17.4467 131.804 17.4292 132.624 17.3305C134.322 17.1558 136.003 16.8466 137.653 16.4057C139.116 16.0288 140.536 15.5001 141.89 14.8282L141.973 14.7863L142.106 14.7374C142.189 14.703 142.276 14.6795 142.364 14.6676C142.516 14.6416 142.671 14.6322 142.825 14.6397C143.093 14.652 143.36 14.6835 143.624 14.7339C144.127 14.8247 144.605 14.9364 145.08 15.0376C145.997 15.2525 146.931 15.3891 147.872 15.4459C148.437 15.4459 148.423 15.767 147.903 16.102C147.551 16.2967 147.165 16.42 146.765 16.465C146.227 16.5332 145.681 16.512 145.149 16.4022C144.64 16.2975 144.144 16.1753 143.673 16.0532C143.439 16.0008 143.212 15.959 143.007 15.9275C142.852 15.9082 142.696 15.9082 142.542 15.9275C142.532 15.9009 142.519 15.8753 142.504 15.8508L142.483 15.8124C142.605 16.0567 142.514 15.8822 142.542 15.938L142.497 15.959L142.41 16.0008L142.061 16.1649C141.827 16.28 141.583 16.3778 141.342 16.4755C140.864 16.6779 140.375 16.8454 139.886 17.0095C137.931 17.6462 135.918 18.0892 133.877 18.3322C132.681 18.4945 131.474 18.5622 130.268 18.5346C129.935 18.5148 129.605 18.461 129.284 18.3741C128.929 18.2822 128.595 18.1234 128.299 17.9064C128.126 17.7786 127.977 17.6201 127.86 17.4387C127.733 17.233 127.659 16.9993 127.643 16.7582C127.624 16.5416 127.648 16.3233 127.713 16.116C127.751 16.0218 127.797 15.931 127.842 15.8438L128.006 15.5925C128.076 15.5157 128.153 15.4354 128.226 15.3691L128.425 15.2226C129.039 14.8642 129.678 14.5504 130.338 14.2837C130.973 14.0185 131.608 13.7672 132.247 13.5229C133.524 13.0343 134.805 12.5771 136.086 12.1269C137.673 11.5824 139.266 11.0612 140.867 10.5633C142.078 10.1864 143.31 9.82693 144.539 9.51632C144.849 9.43954 145.163 9.36276 145.481 9.29994C145.638 9.26504 145.806 9.2406 145.966 9.21268L146.472 9.1708C147.133 9.14437 147.794 9.20183 148.441 9.34181C150.409 9.74666 152.213 10.4168 154.056 10.853C154.461 10.9507 154.859 11.0275 155.267 11.1043C155.675 11.1811 155.965 11.2195 156.216 11.2753C156.433 11.3051 156.647 11.3471 156.859 11.4009C157.12 11.4461 157.363 11.5675 157.557 11.75C157.639 11.8173 157.715 11.892 157.783 11.9733C157.86 12.1024 157.738 12.2141 157.434 12.2979C157.245 12.3493 157.051 12.3821 156.855 12.3956C156.585 12.4095 156.315 12.4095 156.045 12.3956C154.244 12.2525 152.475 11.7185 150.775 11.195C149.076 10.6715 147.362 10.1306 145.854 10.4377C144.608 10.6994 143.293 11.0903 142.015 11.4847C140.738 11.8791 139.454 12.2769 138.183 12.7097L138.159 12.6818Z" fill="black"/>
<path d="M140.416 5.82749C138.291 6.07179 136.166 6.3859 134.072 6.8047C133.311 6.95827 132.56 7.15371 131.817 7.35613C131.489 7.44338 131.168 7.53412 130.854 7.63534C130.697 7.68769 130.54 7.74004 130.393 7.79937L130.274 7.84125L130.201 7.87266C130.15 7.89495 130.101 7.92432 130.058 7.95991C130.047 7.96874 130.038 7.97991 130.032 7.99259C130.026 8.00527 130.023 8.01915 130.023 8.0332C130.023 8.04725 130.026 8.06113 130.032 8.07381C130.038 8.08649 130.047 8.09766 130.058 8.10649C130.095 8.14862 130.134 8.18826 130.177 8.22516C130.245 8.28417 130.32 8.33457 130.4 8.37523C131.468 8.97901 132.843 9.07324 134.155 8.93364C134.745 8.87779 135.31 8.72074 135.963 8.61255C136.616 8.50436 137.213 8.44503 137.83 8.39268C138.626 8.32288 139.422 8.27053 140.228 8.27751C141.047 8.26698 141.863 8.36915 142.654 8.58114C143.17 8.74866 142.975 9.02438 142.521 9.22331C141.877 9.5036 141.178 9.63711 140.476 9.6142C139.708 9.59326 138.926 9.6142 138.151 9.65259C137.377 9.69098 136.591 9.76427 135.855 9.87944L135.279 9.98414C135.07 10.0225 134.86 10.0644 134.647 10.0854C134.221 10.146 133.79 10.1787 133.36 10.1831C132.47 10.2066 131.584 10.0671 130.745 9.77125C130.488 9.67738 130.238 9.56662 129.995 9.43969L129.814 9.33499C129.74 9.29517 129.669 9.25088 129.601 9.20237C129.427 9.0906 129.263 8.96575 129.109 8.82894C129.034 8.76748 128.966 8.69847 128.906 8.62302C128.85 8.54973 128.767 8.48342 128.742 8.40664C128.647 8.26481 128.6 8.09571 128.61 7.92501C128.646 7.74923 128.722 7.5837 128.829 7.44016C128.937 7.29661 129.076 7.17857 129.234 7.09438C129.407 6.98411 129.588 6.88727 129.775 6.8047C129.883 6.75235 129.929 6.73839 129.995 6.71047L130.18 6.63718C130.424 6.54295 130.669 6.45919 130.913 6.38241C131.402 6.22885 131.89 6.09622 132.379 5.97756C134.525 5.4715 136.686 5.11901 138.853 4.82235C140.186 4.64087 141.524 4.49313 142.866 4.37912C143.376 4.33724 143.889 4.30234 144.406 4.28489C144.938 4.25619 145.472 4.27722 146.001 4.34771C147.03 4.55827 148.021 4.92551 148.939 5.4366C150.353 6.17999 151.658 7.00015 153.009 7.66675C153.305 7.82031 153.605 7.93548 153.905 8.07508C155.022 8.5602 155.368 8.67188 155.546 9.06626C155.595 9.14993 155.637 9.23747 155.671 9.32801C155.703 9.46413 155.584 9.55137 155.322 9.57929C155.164 9.59646 155.003 9.59646 154.844 9.57929C154.628 9.54612 154.413 9.4995 154.202 9.43969C153.503 9.21966 152.822 8.94303 152.167 8.61255C151.518 8.28449 150.887 7.91454 150.265 7.56554C149.03 6.84659 147.822 6.09971 146.562 5.72628C146.334 5.65564 146.1 5.59969 145.864 5.55876C145.76 5.53274 145.654 5.51638 145.547 5.5099H145.198C144.699 5.5099 144.151 5.53084 143.638 5.56574C142.573 5.63554 141.498 5.75071 140.43 5.88333L140.416 5.82749Z" fill="black"/>
<path d="M149.142 2.00223C150.22 2.45245 151.292 2.90964 152.367 3.39825C152.761 3.57624 153.162 3.71585 153.56 3.91478C154.995 4.61279 156.157 5.65981 157.281 6.644C157.776 7.07076 158.298 7.46481 158.844 7.82364C159.542 8.27385 160.278 8.6089 160.966 9.04865C161.179 9.19174 161.036 9.46745 160.708 9.65243C160.521 9.75797 160.312 9.81888 160.097 9.83042C159.855 9.83959 159.614 9.78546 159.399 9.67337C157.766 8.79038 156.478 7.53396 155.235 6.39272C154.858 6.05117 154.448 5.74835 154.01 5.48879C153.568 5.22972 153.111 4.99666 152.642 4.79078C151.595 4.31264 150.51 3.85894 149.431 3.39476C148.768 3.12254 148.102 2.84682 147.432 2.58856C146.416 2.19418 145.393 1.78236 144.371 1.46825C144.027 1.33801 143.657 1.29252 143.292 1.33563C143.163 1.35545 143.042 1.41107 142.943 1.49617C142.861 1.57444 142.801 1.6732 142.769 1.78236C142.739 1.90473 142.723 2.02993 142.72 2.15579C142.729 2.35864 142.72 2.56193 142.692 2.76306C142.653 2.90684 142.562 3.03115 142.437 3.11207C142.375 3.16314 142.309 3.2109 142.242 3.25516C142.184 3.28362 142.118 3.29187 142.055 3.27859C141.992 3.26531 141.935 3.23126 141.893 3.18187C141.738 3.01681 141.635 2.80889 141.6 2.58507C141.479 2.08288 141.529 1.55459 141.743 1.08435C141.895 0.793632 142.126 0.551707 142.409 0.386336C142.676 0.235314 142.973 0.146988 143.278 0.128071C143.54 0.106849 143.802 0.119755 144.06 0.166462C144.179 0.187403 144.294 0.215323 144.409 0.243244L144.713 0.330495C145.104 0.449157 145.481 0.574798 145.858 0.70742C146.971 1.09831 148.07 1.53107 149.166 1.96035L149.142 2.00223Z" fill="black"/>
<path d="M187.742 44.9368L187.295 44.4098L186.82 43.9038C186.513 43.5547 186.178 43.2372 185.846 42.9161C185.606 42.6753 185.333 42.4728 185.082 42.246C184.207 41.4292 183.274 40.6769 182.29 39.9949C182.072 39.8412 181.846 39.699 181.613 39.5691C181.386 39.4365 181.152 39.3039 180.915 39.1852C180.615 39.0282 180.311 38.8746 180.008 38.735C179.704 38.5954 179.404 38.4418 179.107 38.2743C178.926 38.1696 179.009 38.0056 179.243 37.9009C179.57 37.7674 179.936 37.7674 180.262 37.9009C181.606 38.4341 182.852 39.1853 183.951 40.124C184.614 40.6755 185.347 41.171 186.014 41.7609C186.38 42.0715 186.712 42.4135 187.078 42.7416C187.445 43.0696 187.755 43.4396 188.084 43.7886C188.474 44.2388 188.883 44.6716 189.246 45.1427C189.528 45.4917 189.811 45.8407 190.066 46.2142C190.321 46.5876 190.596 46.9401 190.837 47.3135C191.246 47.8789 191.633 48.4408 192.017 49.0237C192.098 49.1524 192.173 49.2852 192.24 49.4215C192.488 49.9381 192.495 50.1195 192.293 50.3534C192.251 50.4054 192.205 50.4544 192.156 50.5C191.982 50.6291 191.724 50.5 191.49 50.1684C191.141 49.6763 190.792 49.1842 190.485 48.6712C190.328 48.4129 190.136 48.1721 189.968 47.9138C189.801 47.6556 189.619 47.4008 189.438 47.1565C189.162 46.79 188.907 46.4061 188.607 46.0501C188.307 45.6942 188.035 45.3242 187.721 44.9822L187.742 44.9368Z" fill="black"/>
<path d="M185.239 34.9171C185.792 34.4089 186.315 33.8694 186.806 33.3012C186.988 33.0953 187.134 32.8614 187.312 32.652C187.94 31.908 188.523 31.1272 189.057 30.3137C189.293 29.9523 189.503 29.5744 189.685 29.1829C189.926 28.6908 190.08 28.1359 190.335 27.7311C190.404 27.6124 190.617 27.6159 190.82 27.8183C190.934 27.9373 191.02 28.0805 191.071 28.2371C191.125 28.4039 191.125 28.5834 191.071 28.7502C190.873 29.3205 190.627 29.8728 190.335 30.401C190.041 30.9167 189.7 31.4039 189.315 31.8563C188.862 32.4043 188.492 33.036 188.042 33.6013C187.548 34.2244 187.021 34.8208 186.464 35.3882C186.115 35.7373 185.766 36.0863 185.417 36.4004C184.862 36.8983 184.28 37.3644 183.672 37.7964C183.215 38.162 182.729 38.4911 182.22 38.7806C182.11 38.8495 181.993 38.9079 181.871 38.9551C181.71 39.0407 181.524 39.0702 181.344 39.0388C181.279 39.0179 181.22 38.9839 181.169 38.9388C181.118 38.8938 181.076 38.8387 181.048 38.7771C181.007 38.7146 180.971 38.6493 180.939 38.5816C180.907 38.4579 180.92 38.3267 180.975 38.2112C181.029 38.0957 181.123 38.0032 181.239 37.9499C182 37.4439 182.779 36.9588 183.56 36.3585C184.146 35.9083 184.704 35.4235 185.232 34.9066L185.239 34.9171Z" fill="black"/>
<path d="M187.103 34.1384C187.598 34.1834 188.076 34.3423 188.499 34.6026L188.883 34.8399L189.267 35.1122C189.393 35.2029 189.519 35.3006 189.641 35.4018L189.861 35.5833C190.402 36.044 190.908 36.5221 191.386 37.0073C191.864 37.4924 192.335 37.9915 192.782 38.4905L193.455 39.2269C193.651 39.4468 193.892 39.6702 194.122 39.8935C194.565 40.3242 195.045 40.7154 195.556 41.0627C195.766 41.2074 195.994 41.3247 196.233 41.4117C196.285 41.43 196.339 41.4405 196.394 41.4431C196.398 41.4869 196.406 41.5301 196.418 41.5723C196.424 41.5925 196.431 41.6124 196.439 41.6316C196.422 41.6073 196.401 41.5861 196.376 41.5688L196.317 41.5164L196.935 41.9038H196.917H196.862C196.837 41.8985 196.812 41.8985 196.788 41.9038C196.75 41.9004 196.711 41.9004 196.673 41.9038C196.635 41.9106 196.598 41.9211 196.561 41.9352C196.511 41.9459 196.46 41.9599 196.411 41.9771C196.361 41.9914 196.313 42.0089 196.265 42.0295C196.23 42.0295 196.247 42.0295 196.24 42.0295L196.219 41.9876C196.158 41.875 196.089 41.7666 196.014 41.663C195.839 41.4222 195.637 41.1709 195.431 40.9231C195.015 40.4275 194.572 39.9354 194.125 39.4468C192.817 38.0159 191.428 36.6548 190.101 35.1924C189.808 34.8714 189.519 34.5468 189.229 34.2082C189.086 34.0407 188.943 33.8592 188.8 33.6847C188.634 33.4821 188.486 33.2662 188.356 33.0391C188.293 32.9224 188.248 32.7964 188.224 32.6656C188.215 32.5856 188.215 32.5048 188.224 32.4248C188.232 32.3497 188.25 32.2759 188.276 32.205C188.276 32.1701 188.307 32.1352 188.321 32.1037C188.327 32.0937 188.334 32.0843 188.342 32.0758C188.374 32.0236 188.409 31.9735 188.447 31.9257C188.614 31.7207 188.841 31.573 189.096 31.5035C189.297 31.451 189.506 31.4403 189.71 31.472C189.864 31.4952 190.014 31.5326 190.161 31.5837C190.622 31.7613 191.059 31.9957 191.462 32.2817C192.191 32.7888 192.89 33.3365 193.557 33.9221C194.216 34.4874 194.858 35.0668 195.497 35.6427C196.136 36.2185 196.771 36.7979 197.413 37.3458C197.734 37.6215 198.059 37.8903 198.383 38.1276C198.536 38.2448 198.696 38.3532 198.861 38.4521C198.926 38.4893 198.992 38.5231 199.06 38.5534C199.097 38.5693 199.136 38.5765 199.175 38.5743C199.235 38.5743 199.266 38.5743 199.277 38.5743C199.315 38.6999 199.381 38.7279 199.336 38.6999C199.316 38.6878 199.295 38.6784 199.273 38.672C199.251 38.6671 199.228 38.6601 199.207 38.6511C199.207 38.6511 199.207 38.6511 199.207 38.6232C199.204 38.5676 199.195 38.5125 199.179 38.4591C199.134 38.3048 199.067 38.1579 198.98 38.0229C198.942 37.9575 198.896 37.8967 198.844 37.8414C198.786 37.7731 198.723 37.709 198.655 37.6494C198.029 37.1044 197.364 36.6052 196.666 36.1557C195.413 35.3076 194.108 34.5084 192.827 33.6568C192.185 33.2275 191.546 32.7983 190.922 32.3062C190.585 32.0491 190.277 31.7566 190.004 31.4337C189.964 31.3822 189.926 31.3286 189.892 31.2731C189.849 31.2116 189.813 31.1448 189.787 31.0742L189.738 30.9485L189.721 30.8822V30.7915C189.708 30.6744 189.718 30.556 189.749 30.4425C189.779 30.3274 189.832 30.2196 189.904 30.1254C189.977 30.0313 190.068 29.9527 190.171 29.8945C190.34 29.8069 190.529 29.7659 190.719 29.7759C191.026 29.7961 191.327 29.8693 191.609 29.9923C191.853 30.0889 192.092 30.1984 192.325 30.3203C192.778 30.5576 193.208 30.8159 193.626 31.0846C194.464 31.6221 195.274 32.184 196.048 32.7913C197.603 33.9897 199.083 35.281 200.481 36.6583C200.914 37.091 201.053 37.3563 200.983 37.461C200.88 37.4382 200.779 37.4078 200.68 37.3702C200.537 37.3144 200.331 37.2271 200.107 37.1085C198.575 36.3166 197.105 35.4101 195.71 34.3967L194.513 33.5486C194.115 33.2624 193.721 32.9832 193.319 32.7145C192.918 32.4458 192.516 32.1875 192.112 31.9502C191.74 31.7251 191.35 31.5313 190.946 31.3708C190.874 31.3439 190.801 31.3218 190.726 31.3045H190.681C190.681 31.3045 190.681 31.322 190.681 31.2836V31.0812C190.681 31.0009 190.66 30.9101 190.656 30.8648C190.614 30.6065 190.499 30.6274 190.656 30.6972C190.707 30.7214 190.761 30.7356 190.817 30.7391L190.492 30.6868H190.555H190.621C190.649 30.6868 190.639 30.6693 190.695 30.6658L190.827 30.6309C190.909 30.6032 190.986 30.5644 191.058 30.5158C191.232 30.432 191.169 30.4669 191.187 30.4669L191.25 30.5437C191.309 30.603 191.365 30.6693 191.445 30.7391C191.588 30.8787 191.766 31.0218 191.944 31.1649C192.674 31.7303 193.497 32.2748 194.321 32.8122L196.816 34.4525C197.683 35.0123 198.52 35.6156 199.326 36.2604C199.555 36.4529 199.771 36.6617 199.971 36.8851L200.149 37.1189L200.278 37.3283C200.36 37.4784 200.432 37.6334 200.495 37.7925C200.565 37.9749 200.614 38.1646 200.641 38.3579C200.676 38.6292 200.644 38.9048 200.547 39.1606C200.48 39.3253 200.381 39.4748 200.255 39.6001C200.129 39.7255 199.979 39.8241 199.814 39.89C199.584 39.9794 199.338 40.0163 199.092 39.9982C199.038 40.0013 198.985 40.0013 198.931 39.9982C198.859 39.9897 198.788 39.9757 198.718 39.9564C198.616 39.9265 198.515 39.8891 198.418 39.8447C198.272 39.7749 198.13 39.6968 197.992 39.6108C197.745 39.4503 197.528 39.2863 197.319 39.1222C196.903 38.7942 196.52 38.4556 196.139 38.1171C195.239 37.3039 194.352 36.4803 193.445 35.6741C192.565 34.8714 191.632 34.1287 190.653 33.4509C190.431 33.2974 190.197 33.1609 189.955 33.0426C189.852 32.9907 189.744 32.9486 189.634 32.9169C189.595 32.9063 189.555 32.8993 189.515 32.896C189.484 32.896 189.473 32.9169 189.47 32.8681C189.424 32.6168 189.354 32.6761 189.525 32.7773L189.012 32.4807C189.03 32.4807 189.033 32.4807 189.061 32.4807C189.089 32.4807 189.163 32.4807 189.271 32.4493C189.379 32.4178 189.428 32.3864 189.56 32.3411L189.62 32.3166C189.642 32.3594 189.668 32.4003 189.697 32.4388C189.836 32.6412 190.028 32.875 190.22 33.0984C191.002 34.0023 191.86 34.8888 192.698 35.7788C193.623 36.756 194.555 37.7332 195.469 38.7383C195.926 39.2409 196.38 39.7504 196.82 40.2949C197.057 40.5825 197.273 40.8869 197.465 41.2058C197.532 41.3219 197.586 41.4448 197.626 41.5723C197.669 41.7052 197.679 41.8462 197.657 41.9841C197.647 42.0521 197.625 42.118 197.595 42.1795C197.583 42.2099 197.569 42.2391 197.553 42.2668L197.535 42.2877L197.469 42.3785C197.267 42.6368 196.978 42.812 196.656 42.8706C196.397 42.9089 196.132 42.891 195.881 42.8182C195.679 42.7599 195.482 42.6828 195.295 42.5879C194.962 42.4184 194.646 42.2199 194.349 41.9945C193.788 41.5664 193.257 41.1 192.761 40.5985C192.241 40.0855 191.825 39.5934 191.365 39.1048C190.904 38.6162 190.443 38.138 189.969 37.6808C189.679 37.3981 189.382 37.1224 189.079 36.8607L188.848 36.6652L188.674 36.5221C188.601 36.4628 188.524 36.4035 188.444 36.3476C188.284 36.2264 188.106 36.131 187.917 36.065C187.82 36.0317 187.716 36.0317 187.62 36.065C187.574 36.0848 187.532 36.1144 187.499 36.1518C187.465 36.1891 187.44 36.2333 187.424 36.2813C187.428 36.4815 187.503 36.6737 187.637 36.8223C187.756 36.9933 187.878 37.1399 188.025 37.3144C188.541 37.8937 189.131 38.4975 189.71 39.0769C190.593 39.9564 191.501 40.8219 192.391 41.7328C192.838 42.183 193.277 42.6402 193.703 43.1288C193.924 43.3769 194.131 43.6379 194.321 43.9106C194.429 44.0602 194.523 44.219 194.604 44.3852C194.653 44.4864 194.69 44.593 194.715 44.7028C194.761 44.8774 194.75 45.0619 194.684 45.2298C194.641 45.3269 194.578 45.4141 194.5 45.4861C194.422 45.5582 194.33 45.6135 194.23 45.6486C194.163 45.672 194.094 45.6883 194.024 45.6975C193.956 45.7071 193.887 45.7071 193.818 45.6975C193.579 45.6767 193.349 45.5976 193.148 45.4672C192.857 45.2833 192.585 45.0718 192.335 44.8355C191.846 44.3992 191.407 43.9455 190.967 43.4988C190.091 42.5983 189.222 41.7014 188.325 40.8742C187.693 40.2867 187.015 39.751 186.297 39.2723C185.658 38.8147 184.911 38.5309 184.13 38.4487L184.273 38.0997C184.231 38.0299 184.235 38.0997 184.36 38.0997C184.395 38.1031 184.43 38.1031 184.465 38.0997C184.5 38.0997 184.566 38.0997 184.612 38.0822C184.646 38.1623 184.687 38.2393 184.734 38.3125C184.865 38.5077 185.007 38.6953 185.159 38.8744C185.474 39.2549 185.819 39.6283 186.168 40.0017L188.314 42.2249C188.901 42.8391 189.484 43.4359 190.059 44.0886C190.843 44.9481 191.5 45.9153 192.01 46.9609C192.152 47.2651 192.243 47.5905 192.279 47.9241C192.296 48.1716 192.253 48.4195 192.154 48.6466C192.095 48.8165 191.982 48.9624 191.832 49.0619C191.745 49.1003 191.707 49.041 191.679 48.9432C191.637 48.789 191.58 48.6393 191.508 48.4965C191.396 48.2976 191.25 48.0254 191.023 47.6938C190.796 47.3622 190.499 46.9783 190.15 46.5526C189.061 45.2752 187.833 44.0293 186.587 42.7519C185.962 42.1167 185.33 41.4745 184.706 40.794C184.392 40.445 184.078 40.096 183.767 39.7086C183.595 39.4925 183.437 39.2651 183.296 39.028C183.194 38.8546 183.115 38.6694 183.058 38.4766C183.039 38.396 183.024 38.3145 183.013 38.2323C183.009 38.1753 183.009 38.1182 183.013 38.0613C183.009 37.9974 183.009 37.9332 183.013 37.8693C183.043 37.6936 183.109 37.5262 183.208 37.3777C183.307 37.2293 183.435 37.1031 183.585 37.0073L183.833 36.8397H184.182C184.749 36.8697 185.306 37.0021 185.826 37.2306C186.29 37.4247 186.736 37.6582 187.159 37.9286C187.94 38.4524 188.678 39.0358 189.368 39.6737C190.726 40.8987 191.937 42.2668 193.152 43.4325C193.36 43.634 193.58 43.8228 193.811 43.9978C193.864 44.0362 193.899 44.0537 193.944 44.0851C193.955 44.0947 193.968 44.1018 193.982 44.106C193.982 44.106 194.024 44.106 193.982 44.1305C193.922 44.2591 193.88 44.3953 193.857 44.5353C193.827 44.6179 193.815 44.706 193.822 44.7936V44.8285C193.871 45.4392 193.755 44.0013 193.766 44.1549V44.1968V44.305C193.774 44.3803 193.788 44.455 193.808 44.5283C193.814 44.5821 193.827 44.6348 193.846 44.6854L193.895 44.811C193.968 44.9541 194.021 44.9157 193.895 44.8983C193.663 44.887 193.431 44.9288 193.218 45.0204C193.096 45.0623 193.145 45.0414 193.134 45.0414L193.11 44.996C193.089 44.9541 193.061 44.9087 193.03 44.8564C192.866 44.6136 192.689 44.3805 192.499 44.1584C191.668 43.2091 190.698 42.2668 189.742 41.3175C188.786 40.3682 187.808 39.4189 186.87 38.3649L186.587 38.0403L186.276 37.6634C186.08 37.4218 185.899 37.1677 185.735 36.9026C185.59 36.6778 185.473 36.4364 185.386 36.1836C185.324 35.985 185.294 35.7775 185.299 35.5694C185.302 35.477 185.317 35.3855 185.344 35.2971C185.363 35.198 185.395 35.1018 185.439 35.011C185.54 34.8005 185.677 34.6092 185.843 34.4456C186 34.3023 186.183 34.1915 186.383 34.1196C186.582 34.0477 186.794 34.0162 187.006 34.0268L187.103 34.1384Z" fill="black"/>
<path d="M147.721 8.98572C148.493 9.08344 149.25 9.24049 149.997 9.40802C150.269 9.46735 150.545 9.51272 150.814 9.58252C151.763 9.84078 152.691 10.1514 153.606 10.4864C154.014 10.626 154.426 10.7517 154.831 10.8843C155.089 10.9716 155.354 11.0414 155.609 11.1356C155.864 11.2298 156.118 11.3345 156.366 11.4497C156.523 11.523 156.474 11.6242 156.303 11.7149C156.055 11.8359 155.779 11.8877 155.504 11.865C155.218 11.8371 154.946 11.7708 154.67 11.7184C154.394 11.6661 154.119 11.6102 153.853 11.53C153.319 11.3659 152.806 11.181 152.269 10.996C151.628 10.7714 150.971 10.5963 150.304 10.4725C149.578 10.2945 148.849 10.1514 148.116 10.0362C147.889 9.99784 147.662 9.98038 147.418 9.95246C147.173 9.92454 146.961 9.89662 146.72 9.89313C146.032 9.84179 145.342 9.85698 144.657 9.93851C144.396 9.9747 144.137 10.0272 143.882 10.0956C143.635 10.1758 143.387 10.2561 143.135 10.3224C143.024 10.3503 142.93 10.4097 142.818 10.4411C142.413 10.5597 142.259 10.5318 142.088 10.3503C142.048 10.3123 142.011 10.2715 141.977 10.2282C141.872 10.0851 141.977 9.87917 142.291 9.70467C143.215 9.17516 144.259 8.88933 145.324 8.87404L145.917 8.84961C146.116 8.84961 146.315 8.84961 146.51 8.87055C146.908 8.87055 147.299 8.91941 147.69 8.9578L147.721 8.98572Z" fill="black"/>
<path d="M134.598 66.4458C137.541 66.2694 140.493 66.35 143.421 66.6866C146.363 67.004 149.26 67.655 152.055 68.6271C152.404 68.7458 152.753 68.8714 153.102 69.018C153.452 69.1646 153.801 69.2937 154.15 69.4438C154.823 69.7648 155.504 70.0685 156.149 70.4454C157.474 71.1623 158.705 72.0403 159.814 73.0595C160.097 73.3132 160.366 73.5823 160.62 73.8657L161.011 74.281C161.088 74.3892 161.168 74.5008 161.234 74.6125L161.384 74.9162C161.658 75.6477 161.848 76.4074 161.953 77.1812C162.184 78.654 162.302 80.1163 162.39 81.5752C162.637 85.833 162.686 90.0769 162.655 94.3174C162.581 101.793 162.306 109.262 161.932 116.72C161.744 120.443 161.521 124.171 161.262 127.906C161.126 129.769 160.983 131.633 160.816 133.49C160.728 134.422 160.638 135.353 160.526 136.282C160.47 136.749 160.411 137.214 160.334 137.678C160.295 137.912 160.25 138.149 160.187 138.404C160.166 138.485 160.141 138.566 160.111 138.645C160.074 138.725 160.027 138.8 159.971 138.868C159.879 138.984 159.775 139.091 159.66 139.185C158.986 139.714 158.265 140.181 157.507 140.581C156.75 141.025 155.982 141.409 155.235 141.758C153.711 142.453 152.148 143.06 150.555 143.576C147.381 144.614 144.105 145.309 140.783 145.649C136.521 146.104 132.215 145.892 128.019 145.021C123.824 144.133 119.811 142.534 116.153 140.295C115.019 139.597 114.597 139.199 114.691 139.126C114.785 139.053 115.413 139.273 116.436 139.705C119.796 141.207 123.272 142.435 126.829 143.377C135.021 145.471 143.826 144.735 151.79 141.845C153.78 141.136 155.703 140.251 157.535 139.199C157.969 138.948 158.385 138.667 158.781 138.358C158.846 138.305 158.909 138.247 158.969 138.187C158.98 138.171 158.986 138.151 158.987 138.131C159.046 137.893 159.092 137.652 159.126 137.409C159.287 136.362 159.402 135.315 159.51 134.23C159.926 129.94 160.208 125.616 160.501 121.285C160.829 116.102 161.063 110.815 161.22 105.479C161.377 100.142 161.458 94.792 161.416 89.4871C161.384 86.5694 161.325 83.6518 161.116 80.762C161.032 79.3267 160.853 77.8986 160.582 76.4867C160.514 76.1553 160.421 75.8298 160.302 75.513C160.276 75.4426 160.246 75.3738 160.212 75.307C160.194 75.2756 160.18 75.2372 160.163 75.2093L160.114 75.1395C160.099 75.1126 160.081 75.087 160.062 75.0627L159.971 74.9685L159.821 74.7486L159.472 74.3647C159.356 74.231 159.228 74.1073 159.091 73.9948L158.299 73.2968C157.18 72.4129 155.972 71.648 154.694 71.0143C153.403 70.3812 152.068 69.8446 150.698 69.4089C147.926 68.5609 145.071 68.0111 142.182 67.7685C140.405 67.6057 138.62 67.5405 136.835 67.5731C135.05 67.5935 133.268 67.71 131.496 67.9221C130.609 68.0163 129.73 68.1664 128.847 68.306C127.964 68.4456 127.102 68.6306 126.229 68.847C125.357 69.0633 124.502 69.2867 123.643 69.524C122.784 69.7614 121.94 70.0545 121.109 70.3756C120.474 70.5955 119.86 70.8747 119.235 71.1295C118.61 71.3842 118.014 71.6983 117.406 71.9915L116.52 72.4731L116.077 72.7139L115.647 72.9792L114.799 73.5027L113.976 74.0785L113.56 74.3682L113.166 74.6788L112.356 75.307C112.174 75.5087 112.036 75.7465 111.951 76.0051C111.845 76.3116 111.757 76.6238 111.686 76.9404C111.423 78.2603 111.251 79.5966 111.17 80.94C110.978 83.6448 110.932 86.3635 110.932 89.0788C110.932 91.7941 110.992 94.4988 111.086 97.2001C111.382 105.597 111.99 113.82 112.789 122.084C112.967 123.903 113.166 125.682 113.372 127.511C113.756 130.904 114.07 133.13 114.251 134.69C114.433 136.25 114.537 137.133 114.576 137.887C114.595 138.217 114.638 138.545 114.705 138.868C114.733 139.046 114.663 139.049 114.478 138.819C114.232 138.431 114.044 138.009 113.92 137.566C113.394 135.721 113.008 133.839 112.764 131.937C111.717 124.552 111.019 116.929 110.506 109.192C110.252 105.321 110.046 101.42 109.91 97.5003C109.773 93.581 109.7 89.6372 109.77 85.6795C109.798 84.2067 109.85 82.7374 109.948 81.2576C110.025 79.7555 110.206 78.2606 110.489 76.7833C110.571 76.3894 110.678 76.0011 110.81 75.6212C110.845 75.5167 110.886 75.4142 110.932 75.314C110.975 75.2038 111.028 75.0976 111.089 74.9964C111.151 74.8733 111.225 74.7564 111.309 74.6474C111.361 74.5846 111.414 74.5253 111.47 74.4659L111.553 74.3822L111.609 74.3333C112.206 73.8622 112.782 73.3701 113.414 72.9373C114.648 72.0708 115.949 71.304 117.305 70.6443C119.999 69.3382 122.831 68.3385 125.747 67.6638C128.646 66.973 131.599 66.5408 134.574 66.3725L134.598 66.4458Z" fill="black"/>
<path d="M141.111 62.1534C138.678 61.9731 136.235 61.9637 133.8 62.1255C133.356 62.1499 132.913 62.1953 132.47 62.2476C132.027 62.3 131.584 62.3454 131.144 62.3977C128.02 62.6982 124.944 63.3696 121.979 64.3975C120.688 64.8511 119.475 65.5022 118.384 66.3275C118.227 66.4671 118.06 66.5997 117.909 66.7463C117.759 66.8929 117.62 67.0499 117.491 67.2C117.258 67.5153 117.084 67.87 116.978 68.247C116.866 68.6204 116.813 69.009 116.821 69.3988C116.818 69.7585 116.911 70.1125 117.089 70.4248C117.198 70.5993 117.225 70.718 117.138 70.8157C117.051 70.9134 116.855 70.9518 116.573 70.8157C116.189 70.6298 115.892 70.3037 115.742 69.9048C115.528 69.3684 115.48 68.7795 115.606 68.2156C115.727 67.6662 115.947 67.1434 116.255 66.673C116.336 66.5514 116.425 66.4348 116.52 66.324L116.793 66.0378L117.068 65.7586L117.362 65.5178C118.128 64.8986 118.97 64.3791 119.867 63.9717C121.594 63.1847 123.406 62.5992 125.267 62.2267C127.498 61.7289 129.755 61.3503 132.027 61.0924C134.528 60.8454 137.043 60.7708 139.555 60.8691C141.102 60.9319 142.642 61.068 144.176 61.2774C145.338 61.4275 146.49 61.6648 147.634 61.93C148.774 62.2119 149.897 62.5615 150.995 62.9771C151.41 63.162 151.843 63.3086 152.248 63.5145L152.866 63.8077C153.068 63.9263 153.281 64.0276 153.477 64.1567C153.886 64.4149 154.257 64.7285 154.579 65.0885C154.918 65.4698 155.173 65.9181 155.326 66.4043C155.396 66.6229 155.446 66.8471 155.476 67.0744C155.5 67.3065 155.5 67.5403 155.476 67.7724C155.421 68.3644 155.198 68.9283 154.834 69.3988C154.733 69.5172 154.616 69.6207 154.485 69.7059C154.378 69.7661 154.259 69.8041 154.136 69.8176C154.039 69.837 153.939 69.8452 153.84 69.842C153.7 69.8176 153.683 69.6535 153.759 69.4022C153.836 69.151 153.99 68.7985 154.136 68.3552C154.353 67.7535 154.326 67.0906 154.059 66.509C153.748 65.9139 153.273 65.42 152.691 65.085C152.531 64.9943 152.384 64.9036 152.213 64.8163L151.683 64.5615C151.334 64.3766 150.957 64.2474 150.594 64.0904C150.231 63.9333 149.84 63.8182 149.463 63.6786L148.304 63.3296C147.133 63.0149 145.946 62.7621 144.748 62.5722C143.544 62.3837 142.305 62.2546 141.101 62.1674L141.111 62.1534Z" fill="black"/>
<path d="M125.912 64.8478C125.469 64.956 125.029 65.0851 124.593 65.2317C124.436 65.2875 124.282 65.3608 124.125 65.4132C123.567 65.6156 123.012 65.8285 122.471 66.0763C122.23 66.1884 121.997 66.3155 121.773 66.4567C121.499 66.6568 121.2 66.8199 120.883 66.9418C120.771 66.9418 120.719 66.8441 120.715 66.6591C120.708 66.5621 120.726 66.4649 120.765 66.376C120.805 66.2872 120.866 66.2094 120.942 66.1496C121.551 65.788 122.197 65.492 122.869 65.2666C123.274 65.1305 123.664 64.9176 124.069 64.778C124.474 64.6384 124.973 64.4673 125.434 64.3382C125.713 64.2545 126.003 64.1916 126.285 64.1218C126.722 64.0206 127.161 63.9438 127.594 63.8671C127.943 63.8077 128.264 63.7275 128.603 63.6716C128.676 63.6716 128.753 63.6437 128.826 63.6367C129.109 63.6367 129.203 63.6577 129.262 63.8252C129.278 63.8625 129.291 63.901 129.301 63.9404C129.329 64.0695 129.217 64.1812 129.022 64.2265C128.449 64.3522 127.852 64.4359 127.249 64.5755C126.805 64.6558 126.355 64.7605 125.912 64.8792V64.8478Z" fill="black"/>
<path d="M136.277 65.0045C135.457 65.0045 134.637 65.0673 133.834 65.1336L132.941 65.2453C131.894 65.3674 130.847 65.521 129.8 65.7444C129.34 65.8447 128.886 65.9682 128.439 66.1143C127.877 66.321 127.305 66.4981 126.725 66.6448C126.53 66.6448 126.512 66.5366 126.61 66.3342C126.753 66.0701 126.987 65.8677 127.269 65.7653C128.459 65.3733 129.682 65.094 130.924 64.9312C131.667 64.8404 132.431 64.6799 133.192 64.5822C134.03 64.481 134.871 64.4321 135.712 64.3937C136.228 64.3763 136.759 64.3623 137.261 64.3623C138.043 64.3623 138.832 64.3832 139.607 64.4112L141.401 64.4461C141.533 64.4461 141.662 64.4461 141.795 64.4461C142.287 64.4845 142.437 64.5438 142.521 64.7218C142.543 64.7607 142.562 64.8016 142.577 64.8439C142.608 64.98 142.399 65.0673 142.039 65.0673C140.992 65.0673 139.879 65.008 138.766 64.9835C138.354 64.9835 137.942 64.9661 137.527 64.9835C137.111 65.001 136.7 64.9835 136.284 65.0045H136.277Z" fill="black"/>
<path d="M149.616 123.177C148.314 123.798 147.037 124.489 145.777 125.219C145.316 125.487 144.873 125.788 144.412 126.056C142.786 127.006 141.163 127.976 139.477 128.88C138.731 129.278 137.98 129.689 137.181 130.031C136.658 130.276 136.104 130.447 135.534 130.541C135.219 130.587 134.899 130.579 134.588 130.517C134.253 130.453 133.942 130.3 133.687 130.073C133.377 129.766 133.687 129.623 134.071 129.543C134.267 129.487 134.459 129.438 134.644 129.368C134.833 129.297 135.032 129.251 135.234 129.232C135.692 129.182 136.142 129.071 136.57 128.901C137.038 128.723 137.509 128.51 137.966 128.283C138.916 127.822 139.868 127.309 140.842 126.807C142.004 126.203 143.132 125.411 144.29 124.713C145.564 123.952 146.862 123.215 148.189 122.535C149.005 122.113 149.839 121.718 150.68 121.348C151.961 120.789 153.28 120.323 154.628 119.952C155.665 119.635 156.727 119.409 157.804 119.275C158.041 119.247 158.278 119.226 158.523 119.216C159.43 119.216 159.72 119.348 159.866 119.687C159.905 119.761 159.936 119.838 159.961 119.917C160.002 120.183 159.636 120.322 159.036 120.368C157.186 120.514 155.363 120.9 153.612 121.516C152.25 121.988 150.921 122.552 149.633 123.201L149.616 123.177Z" fill="black"/>
<path d="M122.478 101.127C122.314 100.778 121.78 100.429 122.355 100.128L122.858 99.6572L123.231 99.3361C123.619 99.0081 124.013 98.701 124.418 98.4043C125.221 97.8145 126.048 97.27 126.889 96.75C128.577 95.7164 130.325 94.7841 132.124 93.958C133.429 93.3577 134.742 92.7748 136.092 92.2793C140.847 90.515 145.853 89.5252 150.922 89.3476C153.165 89.2711 155.41 89.3749 157.636 89.6582L158.701 89.8153L158.847 89.8362C158.913 89.8445 158.978 89.8561 159.043 89.8711C159.189 89.8711 159.284 89.9863 159.392 90.0666C159.553 90.2132 159.7 90.3744 159.832 90.5482C160.281 91.1319 160.684 91.7491 161.039 92.3944C161.399 93.0356 161.701 93.7071 161.943 94.4012C162.206 95.1175 162.337 95.8754 162.331 96.6383C162.334 96.7469 162.32 96.8554 162.289 96.9594C162.27 97.0328 162.245 97.1041 162.212 97.1723C162.159 97.2805 162.1 97.3154 162.041 97.2979C161.919 97.2561 161.821 96.9978 161.692 96.6523C161.402 95.9543 160.826 94.8375 160.114 93.4624C159.803 92.8588 159.453 92.276 159.067 91.7174C158.97 91.5847 158.872 91.4382 158.774 91.323C158.731 91.2634 158.684 91.2063 158.635 91.152L158.614 91.1275L157.888 91.0089C157.539 90.9495 157.19 90.8972 156.841 90.8623L155.794 90.7367C155.096 90.6878 154.398 90.611 153.679 90.5971C152.259 90.5302 150.836 90.5418 149.417 90.632C147.993 90.7052 146.569 90.8658 145.149 91.0787C141.672 91.6516 138.275 92.6321 135.028 93.9999C133.229 94.7277 131.472 95.555 129.765 96.4778C128.06 97.3885 126.427 98.4269 124.879 99.5839C124.641 99.7584 124.415 99.9329 124.181 100.132L123.863 100.404L123.703 100.544L123.622 100.617C123.622 100.648 123.664 100.69 123.685 100.725L123.832 100.945L123.905 101.057L124.024 101.256L124.258 101.65C124.882 102.697 125.427 103.786 125.978 104.868C127.594 108.162 129.053 111.544 130.376 114.933C131.405 117.568 132.4 120.168 133.199 122.856C133.367 123.456 133.527 124.039 133.695 124.643C133.862 125.246 133.915 125.69 133.991 126.084C134.058 126.412 134.1 126.744 134.117 127.079C134.155 127.464 134.097 127.852 133.949 128.209C133.906 128.332 133.847 128.45 133.775 128.558C133.667 128.681 133.527 128.513 133.381 128.119C133.234 127.724 133.105 127.1 132.885 126.3C131.642 121.515 129.807 116.629 127.758 111.806C127.015 109.998 126.198 108.253 125.357 106.48C124.938 105.601 124.495 104.735 124.048 103.873L123.35 102.606L123.001 101.992L122.806 101.667L122.457 101.14L122.478 101.127Z" fill="black"/>
<path d="M116.925 137.04C117.263 137.329 117.638 137.571 118.042 137.758C118.193 137.824 118.355 137.863 118.52 137.874C118.566 137.878 118.612 137.868 118.653 137.846C118.693 137.823 118.726 137.789 118.747 137.748C118.808 137.65 118.849 137.54 118.867 137.425C118.885 137.311 118.88 137.194 118.851 137.081C118.733 136.512 118.504 135.971 118.178 135.49C117.844 134.957 117.469 134.451 117.058 133.975C116.688 133.551 116.284 133.158 115.85 132.799C115.574 132.569 115.285 132.359 114.998 132.153C114.712 131.948 114.412 131.738 114.199 131.605C114.161 131.581 114.164 131.564 114.161 131.529C114.158 131.485 114.158 131.44 114.161 131.396C114.162 131.328 114.182 131.262 114.218 131.205C114.255 131.148 114.306 131.102 114.367 131.072C114.557 130.979 114.768 130.939 114.978 130.956C115.189 130.973 115.391 131.045 115.564 131.166C116.202 131.628 116.794 132.152 117.33 132.729C117.866 133.302 118.344 133.926 118.757 134.593C119.005 135.001 119.263 135.41 119.487 135.86C119.605 136.093 119.702 136.336 119.776 136.586C119.867 136.858 119.904 137.145 119.885 137.43C119.883 137.518 119.871 137.604 119.85 137.689C119.833 137.773 119.807 137.855 119.773 137.933L119.675 138.163C119.626 138.24 119.57 138.313 119.518 138.39C119.46 138.466 119.392 138.534 119.316 138.593C119.241 138.657 119.156 138.709 119.064 138.746C118.978 138.792 118.885 138.823 118.789 138.837C118.7 138.859 118.608 138.869 118.516 138.865C118.204 138.861 117.895 138.79 117.612 138.655C117.359 138.542 117.115 138.408 116.883 138.254C116.339 137.887 115.839 137.458 115.393 136.977C114.729 136.247 114.188 135.415 113.791 134.513C113.634 134.164 113.487 133.815 113.355 133.466C113.214 133.101 113.113 132.722 113.054 132.335C113.04 132.242 113.03 132.149 113.027 132.056C113.015 131.955 113.015 131.853 113.027 131.752C113.037 131.654 113.061 131.558 113.096 131.466C113.126 131.377 113.171 131.295 113.229 131.222C113.273 131.15 113.333 131.089 113.403 131.044C113.459 131.001 113.52 130.967 113.585 130.942C113.679 130.916 113.778 130.916 113.871 130.942C113.942 130.973 114.003 131.024 114.046 131.089C114.089 131.141 114.123 131.2 114.147 131.263C114.161 131.366 114.135 131.47 114.074 131.553C114.049 131.581 114.032 131.614 114.023 131.65C114.015 131.686 114.015 131.723 114.025 131.759C114.012 131.964 114.033 132.169 114.088 132.366C114.156 132.655 114.241 132.939 114.342 133.218C114.548 133.809 114.811 134.378 115.128 134.918C115.598 135.721 116.214 136.431 116.942 137.012L116.925 137.04Z" fill="black"/>
<path d="M123.494 134.886C123.094 134.971 122.711 135.119 122.359 135.326C122.283 135.371 122.211 135.423 122.143 135.479L122.104 135.514L122.077 135.542C122.06 135.563 122.051 135.589 122.051 135.615C122.051 135.642 122.06 135.668 122.077 135.689C122.255 135.802 122.449 135.887 122.652 135.943C123.206 136.127 123.773 136.266 124.349 136.359C124.935 136.46 125.535 136.533 126.135 136.582C126.668 136.619 127.202 136.619 127.734 136.582C128.083 136.561 128.408 136.519 128.732 136.477L129.207 136.411L129.413 136.376H129.486C129.486 136.376 129.486 136.359 129.507 136.404C129.54 136.454 129.58 136.5 129.626 136.54C129.723 136.603 129.681 136.558 129.65 136.586L129.601 136.613C129.644 136.574 129.7 136.55 129.758 136.547C129.824 136.547 129.912 136.627 129.894 136.76C129.848 136.985 129.725 137.186 129.545 137.329C129.381 137.473 129.179 137.567 128.962 137.598C128.228 137.687 127.488 137.709 126.75 137.664C126.022 137.627 125.297 137.536 124.582 137.392C123.724 137.203 122.837 137.14 121.913 136.764C121.805 136.717 121.7 136.664 121.598 136.606C121.464 136.524 121.339 136.426 121.228 136.313C121.183 136.252 121.141 136.188 121.103 136.121L121.047 136.027L121.012 135.919C120.987 135.849 120.975 135.774 120.977 135.699C120.972 135.624 120.979 135.549 120.998 135.476C121.01 135.402 121.034 135.33 121.068 135.263C121.095 135.191 121.132 135.124 121.18 135.064C121.256 134.944 121.349 134.834 121.455 134.739C121.79 134.463 122.17 134.247 122.579 134.101C123.168 133.888 123.786 133.762 124.411 133.727C126.095 133.654 127.753 134.16 129.109 135.162C129.231 135.263 129.364 135.354 129.479 135.469C129.908 135.895 129.954 136.107 129.828 136.362C129.799 136.423 129.765 136.481 129.727 136.537C129.584 136.704 129.311 136.624 129.029 136.376C128.18 135.63 127.158 135.109 126.055 134.861C125.217 134.691 124.352 134.708 123.521 134.91L123.494 134.886Z" fill="black"/>
<path d="M128.85 140.075C129.49 140.002 130.123 139.876 130.742 139.699C130.881 139.656 131.018 139.605 131.15 139.545C131.209 139.521 131.266 139.493 131.321 139.461L131.391 139.416C131.407 139.406 131.421 139.392 131.431 139.376C131.441 139.36 131.447 139.342 131.449 139.323C131.451 139.304 131.449 139.285 131.442 139.268C131.436 139.25 131.426 139.234 131.412 139.22C131.39 139.193 131.366 139.167 131.339 139.144C131.305 139.109 131.267 139.077 131.227 139.049C131.145 138.984 131.059 138.923 130.969 138.868C130.77 138.756 130.571 138.645 130.376 138.519C128.864 137.783 127.202 137.409 125.521 137.427C124.762 137.418 124.004 137.477 123.256 137.605C122.303 137.762 121.368 138.027 120.464 138.247C120.181 138.313 120.115 138.058 120.268 137.727C120.388 137.507 120.553 137.316 120.752 137.165C120.951 137.014 121.18 136.907 121.424 136.851C122.442 136.598 123.484 136.451 124.533 136.411C125.586 136.365 126.64 136.442 127.674 136.641C128.968 136.844 130.215 137.277 131.356 137.919C131.52 138.013 131.675 138.12 131.82 138.24C132.004 138.38 132.164 138.549 132.295 138.739C132.375 138.849 132.432 138.975 132.463 139.108C132.493 139.241 132.497 139.379 132.473 139.514C132.406 139.779 132.247 140.012 132.023 140.17C131.854 140.298 131.668 140.404 131.471 140.484C131.293 140.561 131.122 140.616 130.944 140.672C130.6 140.773 130.251 140.856 129.897 140.92C129.05 141.078 128.193 141.175 127.332 141.21C126.026 141.246 124.72 141.105 123.451 140.791C122.458 140.582 121.499 140.236 120.6 139.765C120.391 139.653 120.193 139.523 120.007 139.377C119.841 139.265 119.703 139.117 119.602 138.944C119.501 138.772 119.44 138.579 119.424 138.379C119.426 138.287 119.449 138.196 119.49 138.114C119.524 138.048 119.573 137.992 119.633 137.95C119.675 137.922 119.723 137.903 119.773 137.895C119.823 137.888 119.874 137.891 119.923 137.905C119.996 137.925 120.063 137.962 120.118 138.013C120.195 138.093 120.15 138.219 120.164 138.306V138.33C120.164 138.33 120.164 138.33 120.139 138.306H120.234C120.254 138.306 120.272 138.306 120.268 138.306H120.293L120.363 138.376C120.485 138.493 120.619 138.596 120.764 138.683C120.929 138.789 121.101 138.886 121.277 138.973C121.651 139.155 122.036 139.315 122.429 139.451C123.244 139.732 124.084 139.936 124.938 140.058C126.228 140.244 127.538 140.238 128.826 140.041L128.85 140.075Z" fill="black"/>
<path d="M137.439 138.449C137.995 138.408 138.547 138.332 139.094 138.223L139.268 138.181C139.297 138.173 139.325 138.158 139.348 138.139C139.401 138.09 139.348 138.02 139.317 137.971C139.286 137.923 139.251 137.916 139.202 137.877C139.124 137.822 139.044 137.771 138.961 137.724L138.451 137.427C136.581 136.483 134.453 136.178 132.393 136.558C131.58 136.704 130.791 136.959 130.019 137.169C129.782 137.231 129.67 136.987 129.796 136.659C129.877 136.45 130.005 136.263 130.171 136.113C130.338 135.962 130.536 135.853 130.752 135.794C132.523 135.295 134.388 135.238 136.186 135.626C137.3 135.839 138.372 136.233 139.359 136.792C139.496 136.871 139.629 136.959 139.757 137.053C139.823 137.099 139.914 137.172 139.987 137.235C140.074 137.313 140.157 137.396 140.235 137.483C140.385 137.645 140.486 137.848 140.525 138.066C140.539 138.173 140.53 138.281 140.5 138.385C140.469 138.488 140.417 138.584 140.347 138.666C140.045 138.954 139.663 139.144 139.251 139.21C138.94 139.28 138.636 139.326 138.34 139.364L137.258 139.486C136.888 139.531 136.518 139.566 136.148 139.58C135.021 139.628 133.893 139.533 132.791 139.298C131.926 139.142 131.087 138.871 130.295 138.491C130.114 138.399 129.939 138.294 129.772 138.177C129.499 138 129.296 137.734 129.199 137.423C129.189 137.354 129.189 137.283 129.199 137.214C129.21 137.146 129.231 137.08 129.262 137.019C129.284 136.978 129.315 136.944 129.353 136.918C129.39 136.891 129.433 136.874 129.479 136.868C129.524 136.861 129.57 136.865 129.614 136.879C129.657 136.893 129.697 136.917 129.73 136.949C129.76 136.989 129.781 137.036 129.793 137.085L129.814 137.148C129.814 137.148 129.814 137.127 129.782 137.12H129.807C129.833 137.124 129.86 137.124 129.887 137.12C129.918 137.12 129.949 137.115 129.978 137.102C130.012 137.102 130.047 137.141 130.121 137.197C130.375 137.387 130.652 137.545 130.944 137.668C131.266 137.813 131.597 137.938 131.936 138.041C132.636 138.262 133.356 138.414 134.085 138.495C135.2 138.621 136.327 138.598 137.436 138.429L137.439 138.449Z" fill="black"/>
<path d="M148.503 139.713C148.733 139.64 148.96 139.559 149.201 139.476L149.484 139.364C149.5 139.361 149.516 139.361 149.532 139.364H149.564C149.618 139.349 149.669 139.324 149.714 139.291C149.735 139.273 149.759 139.242 149.742 139.217C149.729 139.196 149.709 139.18 149.686 139.172C149.646 139.158 149.605 139.146 149.564 139.137C149.47 139.12 149.365 139.106 149.267 139.081C149.236 139.081 149.138 139.06 149.068 139.05L148.845 139.022C148.696 138.999 148.545 138.985 148.395 138.98C148.089 138.964 147.783 138.964 147.477 138.98C146.858 139.012 146.244 139.099 145.641 139.242C145.106 139.375 144.589 139.57 144.098 139.821C143.508 140.148 142.95 140.531 142.434 140.966C142.277 141.088 142.085 140.924 142.011 140.617C141.979 140.429 141.999 140.235 142.071 140.058C142.111 139.957 142.163 139.86 142.224 139.769C142.296 139.679 142.38 139.6 142.472 139.531C143.135 139.064 143.868 138.705 144.643 138.467C145.399 138.23 146.183 138.093 146.974 138.059C147.211 138.059 147.449 138.034 147.69 138.034H148.039H148.388C148.632 138.034 148.876 138.055 149.121 138.08H149.302C149.365 138.08 149.456 138.111 149.529 138.121L149.993 138.219C150.167 138.258 150.336 138.317 150.496 138.397L150.747 138.502L150.869 138.554C150.908 138.566 150.944 138.586 150.974 138.614C151.088 138.702 151.172 138.824 151.215 138.963C151.245 139.116 151.215 139.274 151.131 139.406C150.931 139.694 150.659 139.924 150.342 140.072C150.181 140.161 150.016 140.242 149.846 140.313C149.71 140.373 149.599 140.418 149.473 140.463C148.876 140.694 148.272 140.879 147.669 141.05C146.751 141.311 145.819 141.514 144.877 141.706C144.151 141.881 143.412 141.998 142.667 142.055C142.478 142.067 142.288 142.055 142.102 142.02C141.875 141.977 141.672 141.853 141.53 141.671C141.462 141.586 141.417 141.484 141.401 141.376C141.384 141.268 141.396 141.158 141.435 141.057C141.459 140.972 141.514 140.899 141.589 140.853C141.664 140.807 141.754 140.791 141.84 140.809C141.909 140.813 141.978 140.827 142.043 140.851C142.089 140.874 142.128 140.91 142.157 140.953C142.186 140.997 142.203 141.047 142.207 141.098C142.217 141.144 142.233 141.187 142.256 141.228C142.236 141.224 142.216 141.224 142.196 141.228C142.17 141.226 142.143 141.226 142.116 141.228C142.071 141.228 142.088 141.228 142.116 141.21C142.138 141.192 142.157 141.172 142.175 141.151L142.245 141.053C142.245 141.029 142.245 141.053 142.277 141.053H142.416C142.548 141.054 142.68 141.047 142.811 141.032C143.1 141.008 143.407 140.959 143.718 140.906C144.343 140.798 144.988 140.666 145.631 140.516C146.589 140.299 147.536 140.035 148.468 139.723L148.503 139.713Z" fill="black"/>
<path d="M140.333 142.62L138.965 142.711C138.508 142.739 138.05 142.739 137.593 142.753C137.136 142.767 136.675 142.781 136.218 142.781L134.847 142.756H133.845L132.847 142.704C131.671 142.651 130.501 142.491 129.336 142.355C128.174 142.156 127.011 142.006 125.87 141.699C124.844 141.493 123.839 141.189 122.834 140.92C122.199 140.721 121.567 140.495 120.935 140.271C120.62 140.156 120.313 140.019 120.017 139.859C119.717 139.709 119.42 139.556 119.127 139.392C118.778 139.186 118.925 139.011 119.34 138.959C119.941 138.915 120.542 139.03 121.085 139.291C123.557 140.254 126.12 140.964 128.735 141.409C130.352 141.676 131.984 141.832 133.622 141.877C134.525 141.919 135.436 141.912 136.34 141.933C137.248 141.901 138.159 141.898 139.062 141.842L140.738 141.727C141.296 141.688 141.848 141.604 142.406 141.545C144.087 141.356 145.755 141.07 147.404 140.69C148.657 140.379 149.893 139.996 151.103 139.545C151.368 139.444 151.63 139.357 151.895 139.249C152.873 138.854 153.208 138.791 153.511 138.928C153.583 138.952 153.652 138.984 153.717 139.022C153.885 139.151 153.532 139.448 152.81 139.786C150.573 140.765 148.231 141.481 145.83 141.922C144.919 142.072 144.011 142.243 143.09 142.358C142.169 142.473 141.254 142.596 140.333 142.648V142.62Z" fill="black"/>
<path d="M151.661 143.255C131.943 154.591 88.6835 142.519 113.969 134.53L114.451 139.032C114.451 139.032 127.922 149.303 151.661 143.255Z" fill="black"/>
<path d="M129.866 136.781C131.143 136.184 135.101 135.657 137.258 137.071C138.783 138.062 135.925 138.547 135.185 138.662C131.552 139.235 129.22 137.081 129.866 136.781Z" fill="black"/>
<path d="M115.072 132.827C115.77 132.827 119.413 136.174 118.977 137.664C118.628 138.885 117.138 137.817 116.59 137.343C115.828 136.684 115.243 135.844 114.89 134.9C114.723 134.47 114.143 132.83 115.072 132.827Z" fill="black"/>
<path d="M139.841 76.0923C138.02 76.2922 136.189 76.3807 134.358 76.3576C133.691 76.3401 133.025 76.3576 132.358 76.3227C130.017 76.1817 127.69 75.8608 125.399 75.3629C124.383 75.1465 123.361 74.9266 122.359 74.6649C121.717 74.4904 121.068 74.3159 120.436 74.082C119.763 73.8614 119.137 73.5169 118.59 73.0664C118.511 72.9949 118.455 72.9013 118.429 72.7977C118.422 72.7684 118.424 72.7374 118.436 72.7095C118.448 72.6817 118.469 72.6587 118.495 72.6441C118.659 72.5886 118.829 72.558 119.002 72.5534C119.577 72.4837 120.16 72.5556 120.701 72.7628C121.915 73.2162 123.155 73.5961 124.415 73.9006C125.685 74.2182 126.976 74.4974 128.285 74.7486C129.891 75.0118 131.516 75.1518 133.143 75.1675C134.938 75.2303 136.735 75.1849 138.525 75.0313C139.624 74.9266 140.724 74.8045 141.809 74.6021C143.468 74.3305 145.102 73.9255 146.695 73.391C147.306 73.1816 147.899 72.9373 148.482 72.693C149.065 72.4487 149.641 72.166 150.199 71.8624C150.447 71.7332 150.684 71.5936 150.939 71.4715C151.86 70.9829 152.185 70.8887 152.544 71.0701C152.628 71.1045 152.708 71.1453 152.785 71.1923C152.998 71.3633 152.712 71.7472 152.042 72.18C149.958 73.4726 147.692 74.4455 145.32 75.0662C143.53 75.5567 141.707 75.916 139.865 76.1412L139.841 76.0923Z" fill="black"/>
<path d="M135.566 73.3529C134.756 73.3529 133.946 73.3529 133.123 73.3215L132.236 73.2866C131.196 73.2238 130.161 73.1179 129.13 72.969C128.669 72.9131 128.212 72.8329 127.759 72.7701L126.886 72.613C126.596 72.5537 126.314 72.4734 126.031 72.3896C125.682 72.2849 126.202 72.1279 126.855 72.2535C128.02 72.4699 129.196 72.6235 130.39 72.7666C131.088 72.8573 131.852 72.8817 132.589 72.9097C133.395 72.948 134.205 72.955 135.032 72.9515C135.531 72.9515 136.026 72.9341 136.526 72.9027C137.276 72.8608 138.033 72.8119 138.773 72.7037C139.063 72.6688 139.346 72.6165 139.628 72.5572C139.911 72.4978 140.187 72.4385 140.462 72.3687L140.811 72.2814C141.265 72.1663 141.415 72.1558 141.544 72.2291C141.574 72.2414 141.602 72.2566 141.628 72.2745C141.694 72.3373 141.527 72.4525 141.195 72.5781C140.163 72.9217 139.093 73.1385 138.009 73.2238C137.196 73.304 136.372 73.3459 135.566 73.3634V73.3529Z" fill="black"/>
<path d="M130.468 45.0533C130.647 45.8475 130.992 46.5939 131.479 47.2427C131.966 47.8916 132.584 48.4279 133.293 48.816C133.826 49.081 134.392 49.2701 134.976 49.3779C136.019 49.5723 137.095 49.4752 138.087 49.097C138.589 48.91 139.061 48.6505 139.489 48.3265C139.924 48.0067 140.31 47.6237 140.634 47.1901C141.213 46.4109 141.58 45.4924 141.699 44.5255C141.799 43.2944 141.597 42.0572 141.11 40.9245C140.966 40.5712 141.257 40.4307 141.699 40.6052C142.01 40.754 142.282 40.9749 142.493 41.2501C142.703 41.5252 142.847 41.8468 142.911 42.1887C143.239 43.7061 143.052 45.2907 142.381 46.6878C142.054 47.3788 141.614 48.0091 141.08 48.5521C140.544 49.0868 139.926 49.5296 139.249 49.8631C137.621 50.7006 135.743 50.8919 133.983 50.3995C132.786 50.0375 131.71 49.3506 130.872 48.4133C130.034 47.4761 129.467 46.3245 129.231 45.0839C128.995 43.8432 129.101 42.5609 129.535 41.3765C129.97 40.1921 130.718 39.151 131.697 38.3663C132.768 37.4634 134.079 36.8994 135.465 36.7446C135.772 36.7119 136.082 36.7005 136.391 36.7105C137.553 36.8042 137.881 37.0766 137.999 37.4512C138.032 37.536 138.055 37.6246 138.066 37.7151C138.066 37.8513 137.953 37.9364 137.746 37.9705C137.626 37.984 137.505 37.984 137.384 37.9705C137.245 37.9705 137.081 37.9705 136.904 37.9449C136.38 37.9014 135.853 37.9243 135.334 38.013C135.073 38.0428 134.821 38.128 134.564 38.1833C134.314 38.2636 134.068 38.3574 133.827 38.4642C133.585 38.5703 133.348 38.6911 133.12 38.826C132.897 38.968 132.682 39.123 132.476 39.29C132.269 39.4577 132.072 39.6382 131.887 39.8306C131.707 40.0277 131.541 40.2367 131.39 40.4563C130.929 41.1112 130.61 41.858 130.457 42.647C130.303 43.4359 130.317 44.249 130.498 45.032L130.468 45.0533Z" fill="black"/>
<path d="M135.948 47.3392C138.003 47.3392 139.668 45.6737 139.668 43.6193C139.668 41.5649 138.003 39.8994 135.948 39.8994C133.894 39.8994 132.229 41.5649 132.229 43.6193C132.229 45.6737 133.894 47.3392 135.948 47.3392Z" fill="#FDC4C4"/>
<path d="M133.082 45.3012C133.334 45.7767 133.696 46.184 134.139 46.4883C134.581 46.7926 135.09 46.9849 135.623 47.0488C136.531 47.1436 137.441 46.8762 138.154 46.3041C138.868 45.732 139.329 44.9011 139.439 43.9906C139.504 43.348 139.379 42.7003 139.078 42.1295C138.671 41.4167 138.066 40.8383 137.337 40.465C137.115 40.3427 137.202 40.1505 137.507 40.0587C137.736 40.0019 137.975 40.0033 138.203 40.0628C138.431 40.1223 138.64 40.238 138.812 40.3995C139.605 41.0841 140.117 42.04 140.248 43.0819C140.369 44.113 140.102 45.1522 139.5 45.9959C139.149 46.5016 138.697 46.928 138.172 47.2477C137.648 47.5675 137.063 47.7736 136.454 47.8526C135.785 47.9234 135.109 47.8304 134.483 47.5817C133.866 47.3277 133.317 46.931 132.882 46.424C132.621 46.1101 132.404 45.7617 132.238 45.3886C132.082 45.0126 131.977 44.6174 131.925 44.2134C131.859 43.6052 131.927 42.9898 132.124 42.4108C132.321 41.8319 132.642 41.3033 133.065 40.8626C133.711 40.1664 134.57 39.7054 135.505 39.5519C135.711 39.5168 135.919 39.4992 136.128 39.4995C136.92 39.5345 137.146 39.7311 137.224 39.9713C137.249 40.0256 137.266 40.0829 137.276 40.1417C137.276 40.2291 137.198 40.2859 137.063 40.3077C136.876 40.3229 136.689 40.3229 136.502 40.3077C135.799 40.2581 135.098 40.4167 134.485 40.7638C133.871 41.111 133.373 41.6315 133.052 42.2606C132.822 42.7355 132.706 43.2575 132.712 43.7853C132.723 44.3155 132.86 44.8354 133.112 45.3012H133.082Z" fill="black"/>
<path d="M138.706 41.5934C138.493 41.5379 138.286 41.4643 138.085 41.3735C137.856 41.2765 137.644 41.1433 137.457 40.9792L137.258 40.7802C137.198 40.7108 137.143 40.6373 137.094 40.5603C136.837 40.0364 136.768 39.44 136.898 38.8712C136.936 38.6342 136.993 38.4008 137.069 38.1732C137.148 37.8604 137.346 37.5909 137.621 37.4228C137.715 37.3704 137.827 37.538 137.918 37.7299C138.008 37.9219 138.113 38.1243 138.075 38.2185C137.928 38.6015 137.818 38.9977 137.747 39.4017C137.736 39.5275 137.75 39.6543 137.79 39.7743C137.83 39.8943 137.893 40.005 137.977 40.0997C138.05 40.2006 138.143 40.286 138.249 40.3509C138.384 40.428 138.525 40.4922 138.671 40.5429C138.868 40.6055 139.07 40.6499 139.275 40.6755C139.593 40.7163 139.914 40.7045 140.228 40.6406C140.463 40.5697 140.684 40.4588 140.881 40.3126C140.922 40.2811 140.965 40.252 141.01 40.2253C141.181 40.1346 141.264 40.1695 141.435 40.3893L141.551 40.5394C141.612 40.6109 141.645 40.7018 141.645 40.7959C141.645 40.89 141.612 40.981 141.551 41.0524C141.132 41.4488 140.584 41.6817 140.008 41.7086C139.575 41.7475 139.139 41.7216 138.713 41.6318L138.706 41.5934Z" fill="black"/>
<path d="M134.309 44.9513C134.209 44.8008 134.13 44.6337 134.073 44.4555C134.043 44.3916 134.021 44.3231 134.008 44.2521C133.972 43.9966 134.013 43.7344 134.124 43.5105C134.178 43.4215 134.215 43.324 134.269 43.2435C134.32 43.126 134.406 43.0351 134.512 42.9893C134.548 42.9893 134.613 43.0994 134.664 43.2266C134.715 43.3537 134.762 43.4851 134.73 43.519C134.636 43.626 134.548 43.7407 134.468 43.8622C134.414 43.9427 134.468 44.0487 134.468 44.1461C134.498 44.2687 134.544 44.3848 134.606 44.4894C134.646 44.5614 134.692 44.6282 134.744 44.6885C134.825 44.7806 134.915 44.8616 135.012 44.9301C135.094 44.9703 135.177 45.0043 135.263 45.0318H135.317C135.382 45.0615 135.397 45.0996 135.389 45.2013V45.2691C135.386 45.3049 135.373 45.3384 135.351 45.3638C135.329 45.3893 135.3 45.4052 135.27 45.4089C135.063 45.4625 134.847 45.4232 134.664 45.2988C134.528 45.2041 134.405 45.0839 134.302 44.9428L134.309 44.9513Z" fill="black"/>
<path d="M125.982 49.3496C126.484 50.5223 127.378 51.5728 127.448 52.892C127.465 53.241 128.495 53.0246 128.46 52.6233C128.397 51.304 127.496 50.2535 126.99 49.0809C126.837 48.7319 125.839 49.0216 125.982 49.3496Z" fill="black"/>
<path d="M144.148 49.5297C142.846 51.0618 141.586 52.231 141.638 54.3878C141.638 54.7054 142.661 54.51 142.65 54.1156C142.602 52.1018 143.882 50.9746 145.093 49.5541C145.376 49.2051 144.364 49.2784 144.151 49.5297H144.148Z" fill="black"/>
</svg>
