<svg width="587" height="360" viewBox="0 0 587 360" fill="none" xmlns="http://www.w3.org/2000/svg">
<path d="M0.5 8C0.5 3.85786 3.85786 0.5 8 0.5H586.5V359.5H0.5V8Z" fill="#222222"/>
<path d="M193.921 123.936H188.769V132H184.673V108.608H193.921C198.625 108.608 201.665 111.68 201.665 116.256C201.665 120.768 198.593 123.936 193.921 123.936ZM193.121 112.256H188.769V120.288H193.057C195.873 120.288 197.377 118.784 197.377 116.224C197.377 113.664 195.841 112.256 193.121 112.256ZM210.186 132.416C205.482 132.416 202.186 128.992 202.186 124.096C202.186 119.136 205.418 115.712 210.058 115.712C214.794 115.712 217.802 118.88 217.802 123.808V124.992L205.898 125.024C206.186 127.808 207.658 129.216 210.25 129.216C212.394 129.216 213.802 128.384 214.25 126.88H217.866C217.194 130.336 214.314 132.416 210.186 132.416ZM210.09 118.912C207.786 118.912 206.378 120.16 205.994 122.528H213.93C213.93 120.352 212.426 118.912 210.09 118.912ZM230.206 116.128V119.744H228.766C225.95 119.744 224.19 121.248 224.19 124.32V132H220.286V116.224H223.966L224.19 118.528C224.862 116.96 226.366 115.904 228.478 115.904C229.022 115.904 229.566 115.968 230.206 116.128ZM236.113 132H232.209V116.192H235.793L236.113 118.048C236.913 116.736 238.513 115.712 240.785 115.712C243.185 115.712 244.849 116.896 245.681 118.72C246.481 116.896 248.337 115.712 250.737 115.712C254.577 115.712 256.689 118.016 256.689 121.664V132H252.817V122.688C252.817 120.416 251.601 119.232 249.745 119.232C247.857 119.232 246.417 120.448 246.417 123.04V132H242.513V122.656C242.513 120.448 241.329 119.264 239.473 119.264C237.617 119.264 236.113 120.48 236.113 123.04V132ZM261.833 113.024C260.489 113.024 259.433 111.968 259.433 110.656C259.433 109.344 260.489 108.32 261.833 108.32C263.113 108.32 264.169 109.344 264.169 110.656C264.169 111.968 263.113 113.024 261.833 113.024ZM259.881 132V116.192H263.785V132H259.881ZM265.963 127.2H269.675C269.707 128.576 270.731 129.44 272.523 129.44C274.347 129.44 275.339 128.704 275.339 127.552C275.339 126.752 274.923 126.176 273.515 125.856L270.667 125.184C267.819 124.544 266.443 123.2 266.443 120.672C266.443 117.568 269.067 115.712 272.715 115.712C276.267 115.712 278.667 117.76 278.699 120.832H274.987C274.955 119.488 274.059 118.624 272.555 118.624C271.019 118.624 270.123 119.328 270.123 120.512C270.123 121.408 270.827 121.984 272.171 122.304L275.019 122.976C277.675 123.584 279.019 124.8 279.019 127.232C279.019 130.432 276.299 132.416 272.395 132.416C268.459 132.416 265.963 130.304 265.963 127.2ZM280.135 127.2H283.847C283.879 128.576 284.903 129.44 286.695 129.44C288.519 129.44 289.511 128.704 289.511 127.552C289.511 126.752 289.095 126.176 287.687 125.856L284.839 125.184C281.991 124.544 280.615 123.2 280.615 120.672C280.615 117.568 283.239 115.712 286.887 115.712C290.439 115.712 292.839 117.76 292.871 120.832H289.159C289.127 119.488 288.231 118.624 286.727 118.624C285.191 118.624 284.295 119.328 284.295 120.512C284.295 121.408 284.999 121.984 286.343 122.304L289.191 122.976C291.847 123.584 293.191 124.8 293.191 127.232C293.191 130.432 290.471 132.416 286.567 132.416C282.631 132.416 280.135 130.304 280.135 127.2ZM297.476 113.024C296.132 113.024 295.076 111.968 295.076 110.656C295.076 109.344 296.132 108.32 297.476 108.32C298.756 108.32 299.812 109.344 299.812 110.656C299.812 111.968 298.756 113.024 297.476 113.024ZM295.524 132V116.192H299.428V132H295.524ZM301.893 124.064C301.893 119.136 305.445 115.744 310.341 115.744C315.237 115.744 318.789 119.136 318.789 124.064C318.789 128.992 315.237 132.384 310.341 132.384C305.445 132.384 301.893 128.992 301.893 124.064ZM305.797 124.064C305.797 126.944 307.653 128.896 310.341 128.896C313.029 128.896 314.885 126.944 314.885 124.064C314.885 121.184 313.029 119.232 310.341 119.232C307.653 119.232 305.797 121.184 305.797 124.064ZM325.148 132H321.244V116.192H324.86L325.18 118.24C326.172 116.64 328.092 115.712 330.236 115.712C334.204 115.712 336.252 118.176 336.252 122.272V132H332.348V123.2C332.348 120.544 331.036 119.264 329.02 119.264C326.62 119.264 325.148 120.928 325.148 123.488V132ZM343.383 132H339.511V108.192H343.383V132ZM353.911 132.416C349.207 132.416 345.911 128.992 345.911 124.096C345.911 119.136 349.143 115.712 353.783 115.712C358.519 115.712 361.527 118.88 361.527 123.808V124.992L349.623 125.024C349.911 127.808 351.383 129.216 353.975 129.216C356.119 129.216 357.527 128.384 357.975 126.88H361.591C360.919 130.336 358.039 132.416 353.911 132.416ZM353.815 118.912C351.511 118.912 350.103 120.16 349.719 122.528H357.655C357.655 120.352 356.151 118.912 353.815 118.912ZM362.795 127.2H366.507C366.539 128.576 367.563 129.44 369.355 129.44C371.179 129.44 372.171 128.704 372.171 127.552C372.171 126.752 371.755 126.176 370.347 125.856L367.499 125.184C364.651 124.544 363.275 123.2 363.275 120.672C363.275 117.568 365.899 115.712 369.547 115.712C373.099 115.712 375.499 117.76 375.531 120.832H371.819C371.787 119.488 370.891 118.624 369.387 118.624C367.851 118.624 366.955 119.328 366.955 120.512C366.955 121.408 367.659 121.984 369.003 122.304L371.851 122.976C374.507 123.584 375.851 124.8 375.851 127.232C375.851 130.432 373.131 132.416 369.227 132.416C365.291 132.416 362.795 130.304 362.795 127.2ZM376.967 127.2H380.679C380.711 128.576 381.735 129.44 383.527 129.44C385.351 129.44 386.343 128.704 386.343 127.552C386.343 126.752 385.927 126.176 384.519 125.856L381.671 125.184C378.823 124.544 377.447 123.2 377.447 120.672C377.447 117.568 380.071 115.712 383.719 115.712C387.271 115.712 389.671 117.76 389.703 120.832H385.991C385.959 119.488 385.063 118.624 383.559 118.624C382.023 118.624 381.127 119.328 381.127 120.512C381.127 121.408 381.831 121.984 383.175 122.304L386.023 122.976C388.679 123.584 390.023 124.8 390.023 127.232C390.023 130.432 387.303 132.416 383.399 132.416C379.463 132.416 376.967 130.304 376.967 127.2ZM394.886 132.384C393.478 132.384 392.294 131.232 392.294 129.856C392.294 128.448 393.478 127.296 394.886 127.296C396.294 127.296 397.478 128.448 397.478 129.856C397.478 131.232 396.294 132.384 394.886 132.384ZM197.765 172.384C190.949 172.384 186.533 167.648 186.533 160.32C186.533 153.056 191.109 148.224 197.957 148.224C203.493 148.224 207.621 151.456 208.421 156.48H204.101C203.301 153.76 200.965 152.16 197.861 152.16C193.541 152.16 190.821 155.296 190.821 160.288C190.821 165.248 193.573 168.448 197.861 168.448C201.029 168.448 203.461 166.784 204.229 164.192H208.485C207.589 169.12 203.301 172.384 197.765 172.384ZM221.662 156.192H225.566V172H221.95L221.662 169.888C220.702 171.392 218.654 172.416 216.542 172.416C212.894 172.416 210.75 169.952 210.75 166.08V156.192H214.654V164.704C214.654 167.712 215.838 168.928 218.014 168.928C220.478 168.928 221.662 167.488 221.662 164.48V156.192ZM227.43 167.2H231.142C231.174 168.576 232.198 169.44 233.99 169.44C235.814 169.44 236.806 168.704 236.806 167.552C236.806 166.752 236.39 166.176 234.982 165.856L232.134 165.184C229.286 164.544 227.91 163.2 227.91 160.672C227.91 157.568 230.534 155.712 234.182 155.712C237.734 155.712 240.134 157.76 240.166 160.832H236.454C236.422 159.488 235.526 158.624 234.022 158.624C232.486 158.624 231.59 159.328 231.59 160.512C231.59 161.408 232.294 161.984 233.638 162.304L236.486 162.976C239.142 163.584 240.486 164.8 240.486 167.232C240.486 170.432 237.766 172.416 233.862 172.416C229.926 172.416 227.43 170.304 227.43 167.2ZM248.195 172H244.291V159.456H241.251V156.192H244.291V151.264H248.195V156.192H251.267V159.456H248.195V172ZM251.969 164.064C251.969 159.136 255.521 155.744 260.417 155.744C265.313 155.744 268.865 159.136 268.865 164.064C268.865 168.992 265.313 172.384 260.417 172.384C255.521 172.384 251.969 168.992 251.969 164.064ZM255.873 164.064C255.873 166.944 257.729 168.896 260.417 168.896C263.105 168.896 264.961 166.944 264.961 164.064C264.961 161.184 263.105 159.232 260.417 159.232C257.729 159.232 255.873 161.184 255.873 164.064ZM275.224 172H271.32V156.192H274.904L275.224 158.048C276.024 156.736 277.624 155.712 279.896 155.712C282.296 155.712 283.96 156.896 284.792 158.72C285.592 156.896 287.448 155.712 289.848 155.712C293.688 155.712 295.8 158.016 295.8 161.664V172H291.928V162.688C291.928 160.416 290.712 159.232 288.856 159.232C286.968 159.232 285.528 160.448 285.528 163.04V172H281.624V162.656C281.624 160.448 280.44 159.264 278.584 159.264C276.728 159.264 275.224 160.48 275.224 163.04V172ZM300.944 153.024C299.6 153.024 298.544 151.968 298.544 150.656C298.544 149.344 299.6 148.32 300.944 148.32C302.224 148.32 303.28 149.344 303.28 150.656C303.28 151.968 302.224 153.024 300.944 153.024ZM298.992 172V156.192H302.896V172H298.992ZM318.226 172H305.458V168.8L313.33 159.456H305.458V156.192H318.226V159.424L310.226 168.736H318.226V172ZM325.479 172.416C322.119 172.416 320.071 170.464 320.071 167.488C320.071 164.576 322.183 162.752 325.927 162.464L330.663 162.112V161.76C330.663 159.616 329.383 158.752 327.399 158.752C325.095 158.752 323.815 159.712 323.815 161.376H320.487C320.487 157.952 323.303 155.712 327.591 155.712C331.847 155.712 334.471 158.016 334.471 162.4V172H331.047L330.759 169.664C330.087 171.296 327.943 172.416 325.479 172.416ZM326.759 169.472C329.159 169.472 330.695 168.032 330.695 165.6V164.768L327.399 165.024C324.967 165.248 324.039 166.048 324.039 167.328C324.039 168.768 324.999 169.472 326.759 169.472ZM341.282 172H337.666V148.192H341.57V158.496C342.594 156.736 344.706 155.68 347.106 155.68C351.618 155.68 354.37 159.2 354.37 164.192C354.37 169.056 351.394 172.416 346.85 172.416C344.482 172.416 342.466 171.36 341.538 169.536L341.282 172ZM341.602 164.032C341.602 166.88 343.362 168.832 346.05 168.832C348.802 168.832 350.434 166.848 350.434 164.032C350.434 161.216 348.802 159.2 346.05 159.2C343.362 159.2 341.602 161.184 341.602 164.032ZM360.775 172H356.903V148.192H360.775V172ZM371.302 172.416C366.598 172.416 363.302 168.992 363.302 164.096C363.302 159.136 366.534 155.712 371.174 155.712C375.91 155.712 378.918 158.88 378.918 163.808V164.992L367.014 165.024C367.302 167.808 368.774 169.216 371.366 169.216C373.51 169.216 374.918 168.384 375.366 166.88H378.982C378.31 170.336 375.43 172.416 371.302 172.416ZM371.206 158.912C368.902 158.912 367.494 160.16 367.11 162.528H375.046C375.046 160.352 373.542 158.912 371.206 158.912ZM383.058 172.384C381.65 172.384 380.466 171.232 380.466 169.856C380.466 168.448 381.65 167.296 383.058 167.296C384.466 167.296 385.65 168.448 385.65 169.856C385.65 171.232 384.466 172.384 383.058 172.384ZM179.382 203.936H174.23V212H170.134V188.608H179.382C184.086 188.608 187.126 191.68 187.126 196.256C187.126 200.768 184.054 203.936 179.382 203.936ZM178.582 192.256H174.23V200.288H178.518C181.334 200.288 182.838 198.784 182.838 196.224C182.838 193.664 181.302 192.256 178.582 192.256ZM195.646 212.416C190.942 212.416 187.646 208.992 187.646 204.096C187.646 199.136 190.878 195.712 195.518 195.712C200.254 195.712 203.262 198.88 203.262 203.808V204.992L191.358 205.024C191.646 207.808 193.118 209.216 195.71 209.216C197.854 209.216 199.262 208.384 199.71 206.88H203.326C202.654 210.336 199.774 212.416 195.646 212.416ZM195.55 198.912C193.246 198.912 191.838 200.16 191.454 202.528H199.39C199.39 200.352 197.886 198.912 195.55 198.912ZM215.667 196.128V199.744H214.227C211.411 199.744 209.651 201.248 209.651 204.32V212H205.747V196.224H209.427L209.651 198.528C210.323 196.96 211.827 195.904 213.939 195.904C214.483 195.904 215.027 195.968 215.667 196.128ZM216.726 196.192H218.998V194.272C218.998 189.984 221.27 188.192 224.694 188.192C225.302 188.192 226.038 188.224 226.71 188.352V191.68H225.334C223.35 191.68 222.87 192.704 222.87 194.272V196.192H226.646V199.456H222.87V212H218.998V199.456H216.726V196.192ZM235.101 212.416C230.397 212.416 227.101 208.992 227.101 204.096C227.101 199.136 230.333 195.712 234.973 195.712C239.709 195.712 242.717 198.88 242.717 203.808V204.992L230.813 205.024C231.101 207.808 232.573 209.216 235.165 209.216C237.309 209.216 238.717 208.384 239.165 206.88H242.781C242.109 210.336 239.229 212.416 235.101 212.416ZM235.005 198.912C232.701 198.912 231.293 200.16 230.909 202.528H238.845C238.845 200.352 237.341 198.912 235.005 198.912ZM244.274 204.064C244.274 199.168 247.506 195.712 252.178 195.712C256.498 195.712 259.442 198.112 259.858 201.92H255.954C255.506 200.128 254.194 199.2 252.338 199.2C249.842 199.2 248.178 201.088 248.178 204.064C248.178 207.04 249.714 208.896 252.21 208.896C254.162 208.896 255.538 207.936 255.954 206.208H259.89C259.41 209.888 256.338 212.416 252.21 212.416C247.41 212.416 244.274 209.088 244.274 204.064ZM267.531 212H263.627V199.456H260.587V196.192H263.627V191.264H267.531V196.192H270.603V199.456H267.531V212ZM278.807 196.192H281.079V194.272C281.079 189.984 283.351 188.192 286.775 188.192C287.383 188.192 288.119 188.224 288.791 188.352V191.68H287.415C285.431 191.68 284.951 192.704 284.951 194.272V196.192H288.727V199.456H284.951V212H281.079V199.456H278.807V196.192ZM289.182 204.064C289.182 199.136 292.734 195.744 297.63 195.744C302.526 195.744 306.078 199.136 306.078 204.064C306.078 208.992 302.526 212.384 297.63 212.384C292.734 212.384 289.182 208.992 289.182 204.064ZM293.086 204.064C293.086 206.944 294.942 208.896 297.63 208.896C300.318 208.896 302.174 206.944 302.174 204.064C302.174 201.184 300.318 199.232 297.63 199.232C294.942 199.232 293.086 201.184 293.086 204.064ZM318.453 196.128V199.744H317.013C314.197 199.744 312.437 201.248 312.437 204.32V212H308.533V196.224H312.213L312.437 198.528C313.109 196.96 314.613 195.904 316.725 195.904C317.269 195.904 317.813 195.968 318.453 196.128ZM331.928 212L326.808 196.192H330.872L332.952 202.976C333.304 204.224 333.624 205.6 333.912 207.072C334.2 205.536 334.488 204.544 335 202.976L337.176 196.192H341.144L343.256 202.976C343.448 203.616 344.088 205.984 344.28 207.04C344.536 205.856 345.048 203.968 345.336 202.976L347.448 196.192H351.576L346.104 212H342.456L340.28 205.152C339.64 203.072 339.288 201.568 339.16 200.768C339 201.504 338.712 202.624 337.912 205.216L335.736 212H331.928ZM359.591 212.416C354.887 212.416 351.591 208.992 351.591 204.096C351.591 199.136 354.823 195.712 359.463 195.712C364.199 195.712 367.207 198.88 367.207 203.808V204.992L355.303 205.024C355.591 207.808 357.063 209.216 359.655 209.216C361.799 209.216 363.207 208.384 363.655 206.88H367.271C366.599 210.336 363.719 212.416 359.591 212.416ZM359.495 198.912C357.191 198.912 355.783 200.16 355.399 202.528H363.335C363.335 200.352 361.831 198.912 359.495 198.912ZM373.308 212H369.692V188.192H373.596V198.496C374.62 196.736 376.732 195.68 379.132 195.68C383.644 195.68 386.396 199.2 386.396 204.192C386.396 209.056 383.42 212.416 378.876 212.416C376.508 212.416 374.492 211.36 373.564 209.536L373.308 212ZM373.628 204.032C373.628 206.88 375.388 208.832 378.076 208.832C380.828 208.832 382.46 206.848 382.46 204.032C382.46 201.216 380.828 199.2 378.076 199.2C375.388 199.2 373.628 201.184 373.628 204.032ZM395.136 200.416H392.288V197.76L398.304 192.224H388.576V188.608H403.424V191.872L397.728 197.12C401.312 197.824 404.096 200.448 404.096 204.576C404.096 209.376 400.352 212.416 395.616 212.416C391.04 212.416 387.488 209.6 387.488 204.544H391.52C391.52 207.232 393.184 208.768 395.68 208.768C398.24 208.768 399.936 207.104 399.936 204.512C399.936 202.144 398.4 200.416 395.136 200.416ZM408.786 212.384C407.378 212.384 406.194 211.232 406.194 209.856C406.194 208.448 407.378 207.296 408.786 207.296C410.194 207.296 411.378 208.448 411.378 209.856C411.378 211.232 410.194 212.384 408.786 212.384Z" fill="white"/>
<path d="M0.5 8C0.5 3.85786 3.85786 0.5 8 0.5H586.5V359.5H0.5V8Z" stroke="#D5D5D5"/>
</svg>
