<svg width="384" height="200" viewBox="0 0 384 200" fill="none" xmlns="http://www.w3.org/2000/svg">
<rect width="383.333" height="200" rx="6" fill="#F8F8F8"/>
<rect x="121.964" y="34.525" width="140.655" height="129.982" fill="white" stroke="#C7C7C7" stroke-width="0.760417"/>
<rect x="127.972" y="40.6534" width="128.648" height="117.975" fill="white" stroke="#D9D9D9" stroke-width="0.760417"/>
<path d="M177.197 68.3568C173.302 68.673 165.975 66.7756 164.502 68.6421C162.859 70.7246 163.345 76.648 163.245 76.9102L162.535 65.5107L168.189 66.2897L177.197 68.3645V68.3568Z" fill="#231F20"/>
<path d="M205.248 82.0473C205.896 82.1244 206.528 82.2555 207.153 82.3943C207.377 82.4483 207.616 82.4561 207.832 82.5178C208.619 82.726 209.351 83.0499 210.107 83.2659C210.439 83.3816 210.786 83.4047 211.118 83.5127C211.549 83.613 211.974 83.7132 212.39 83.9678C212.521 84.0449 212.498 84.0989 212.359 84.1991C212.228 84.284 211.974 84.5231 211.704 84.5925C211.465 84.6233 211.226 84.6465 210.986 84.6619C210.871 84.6619 210.747 84.685 210.632 84.6773L210.292 84.6156C209.837 84.5308 209.39 84.4074 208.958 84.2454C208.433 84.0526 207.87 84.0295 207.338 83.8983C206.752 83.7672 206.166 83.6515 205.58 83.5744C205.217 83.5358 204.847 83.4819 204.485 83.4819C203.929 83.4587 203.366 83.451 202.811 83.5436C202.379 83.5898 201.986 83.8058 201.569 83.9061C201.477 83.9292 201.392 83.9678 201.299 83.9832C200.952 84.0449 200.821 83.96 200.667 83.6207C200.628 83.5436 200.59 83.4664 200.566 83.3893C200.474 83.1271 200.566 82.8725 200.813 82.7029C201.523 82.1475 202.41 82.055 203.281 81.9624C203.937 81.9239 204.6 81.9393 205.256 82.001V82.0396L205.248 82.0473Z" fill="#231F20"/>
<path d="M200.575 72.8304C200.652 73.6248 200.714 74.4192 200.752 75.2059C200.768 75.4913 200.814 75.7767 200.822 76.0698C200.845 77.0879 200.822 78.0982 200.783 79.1086C200.768 79.556 200.783 80.0033 200.806 80.4429C200.768 81.0137 200.829 81.5844 200.559 82.1475C200.49 82.3248 200.451 82.3017 200.336 82.1475C200.243 82.0395 200.151 81.9238 200.081 81.8389C199.958 81.7078 199.873 81.5613 199.85 81.3993L199.696 80.5432C199.665 80.2578 199.68 79.9724 199.672 79.6871C199.672 79.1163 199.688 78.5456 199.726 77.9671C199.773 77.273 199.649 76.5634 199.595 75.8692C199.526 75.098 199.456 74.3344 199.348 73.5631C199.287 73.0926 199.21 72.6222 199.133 72.1517C199.001 71.4421 198.886 70.7248 198.685 70.0307C198.531 69.4908 198.292 68.9894 198.091 68.4727C198.045 68.357 197.983 68.249 197.945 68.1333C197.821 67.6937 197.945 67.5086 198.199 67.3312C198.261 67.2926 198.323 67.2386 198.384 67.2078C198.585 67.0998 198.839 67.2232 199.079 67.5009C199.649 68.3801 199.919 69.4136 200.174 70.4549C200.359 71.2261 200.49 72.0206 200.613 72.815H200.583L200.575 72.8304Z" fill="#231F20"/>
<path d="M161.965 95.4673C161.942 95.6755 161.95 95.8838 161.942 96.1075C161.942 96.1846 161.988 96.2463 161.988 96.3311C161.981 96.6165 161.973 96.9173 162.035 97.195C162.066 97.3184 162.127 97.4263 162.158 97.542C162.22 97.6886 162.297 97.8197 162.266 98.0357C162.251 98.1051 162.096 98.2053 161.904 98.2902C161.711 98.375 161.441 98.4522 161.317 98.4059C161.132 98.3133 160.916 98.2208 160.801 98.0665C160.716 97.8968 160.662 97.7117 160.662 97.5035C160.662 97.2567 160.484 97.087 160.407 96.871C160.322 96.6319 160.284 96.3851 160.253 96.1306C160.238 95.9764 160.214 95.8221 160.199 95.6755C160.168 95.4442 160.168 95.2128 160.099 94.9968C160.045 94.8271 159.875 94.6806 159.813 94.5032C159.798 94.4646 159.767 94.4338 159.759 94.3875C159.729 94.241 159.898 94.1793 160.33 94.1176L160.631 94.079C160.963 94.0404 161.256 94.079 161.418 94.1484C161.603 94.2641 161.78 94.3721 161.857 94.4878C161.927 94.6112 161.95 94.7346 161.973 94.8657C162.004 95.0585 161.988 95.2591 162.012 95.4596L161.965 95.475V95.4673Z" fill="#231F20"/>
<path d="M178.732 121.328C171.351 120.634 163.252 119.315 160.553 116.454C157.09 112.775 157.56 102.47 157.56 102.47L156.773 108.07C156.773 108.07 157.784 118.729 160.56 119.67C163.329 120.611 173.942 121.891 173.942 121.891L178.739 121.336L178.732 121.328Z" fill="#231F20"/>
<path d="M180.9 121.606C183.445 121.707 185.998 121.761 188.551 121.761C189.484 121.761 190.418 121.691 191.351 121.691C194.644 121.691 197.937 121.645 201.231 121.606C202.696 121.583 204.162 121.498 205.612 121.413C207.478 121.321 209.345 121.02 211.234 121.452C211.821 121.606 211.743 121.73 211.265 122.069C210.779 122.432 209.908 123.025 208.843 123.149C205.056 123.426 201.254 123.712 197.405 123.619C195.099 123.565 192.708 123.774 190.356 123.812C187.764 123.858 185.173 123.858 182.574 123.812C180.977 123.789 179.381 123.735 177.784 123.666C175.362 123.565 172.933 123.373 170.526 123.118C168.652 122.917 166.801 122.779 164.904 122.285C164.487 122.192 164.071 122.046 163.654 121.892C163.268 121.737 162.952 121.529 162.698 121.383C162.443 121.213 162.258 121.005 162.127 120.835C161.996 120.673 161.926 120.496 161.903 120.318C161.88 120.141 161.903 119.987 161.965 119.825C162.019 119.678 162.058 119.524 162.142 119.416C162.281 119.238 162.536 119.208 162.806 119.254C163.053 119.308 163.415 119.393 163.808 119.586C165.089 120.095 166.662 120.388 168.266 120.627C169.878 120.858 171.56 121.028 173.257 121.167C175.779 121.359 178.339 121.498 180.908 121.56V121.614L180.9 121.606Z" fill="#231F20"/>
<path d="M204.895 136.422C204.895 136.422 209.491 136.97 211.651 134.695C213.224 133.037 214.335 127.383 214.335 127.383L214.705 133.199L212.322 137.695H207.116L204.895 136.422Z" fill="#231F20"/>
<path d="M164.1 124.892C164.192 125.779 164.285 126.666 164.347 127.561C164.37 127.884 164.432 128.208 164.447 128.532C164.478 129.689 164.462 130.846 164.424 132.003C164.401 132.512 164.447 133.029 164.439 133.53C164.416 134.178 164.563 134.841 164.162 135.474C164.061 135.674 163.892 135.636 163.637 135.451C163.506 135.358 163.352 135.235 163.19 135.088C163.113 135.011 163.02 134.934 162.966 134.849C162.928 134.764 162.897 134.679 162.889 134.587C162.735 133.307 162.758 132.057 162.866 130.754C162.935 129.975 162.758 129.18 162.681 128.394L162.426 125.771C162.372 125.231 162.311 124.691 162.233 124.151C162.118 123.334 162.033 122.509 161.886 121.699C161.771 121.066 161.57 120.465 161.424 119.848C161.385 119.709 161.354 119.578 161.339 119.439C161.316 119.177 161.308 119.007 161.377 118.876C161.478 118.737 161.586 118.652 161.732 118.575C161.794 118.537 161.855 118.498 161.909 118.475C162.002 118.436 162.095 118.459 162.226 118.537C162.349 118.614 162.55 118.729 162.611 118.914C163.143 119.963 163.413 121.105 163.699 122.27C163.884 123.133 163.992 124.02 164.131 124.907H164.084L164.1 124.892Z" fill="#231F20"/>
<path d="M174.976 120.596C180.776 121.074 186.614 121.305 192.453 121.336C194.582 121.352 196.71 121.267 198.839 121.228C202.588 121.151 206.336 120.997 210.046 120.627C211.889 120.426 213.748 120.195 215.499 119.755C215.931 119.647 216.363 119.516 216.756 119.369C217.142 119.223 217.535 119.03 217.72 118.853C217.905 118.629 218.136 118.297 218.298 117.889C218.491 117.511 218.63 117.071 218.784 116.647C219.772 113.554 220.265 110.207 220.651 106.952C220.882 104.854 221.036 102.725 221.029 100.651C221.029 100.134 221.006 99.617 220.952 99.1619C220.921 98.7609 220.736 98.275 220.566 97.8353C220.196 96.9484 219.617 96.1385 218.954 95.3441C218.106 94.3723 218.352 94.2952 219.448 94.7965C219.98 95.0587 220.767 95.4675 221.515 96.2774C221.885 96.6784 222.255 97.172 222.533 97.7582C222.602 97.9048 222.656 98.059 222.726 98.2133C222.772 98.3907 222.818 98.5835 222.864 98.7686L222.926 99.054L222.949 99.3008C222.965 99.4705 222.98 99.6324 222.996 99.8021C223.096 102.131 222.903 104.306 222.695 106.512C222.463 108.71 222.147 110.901 221.715 113.084C221.492 114.179 221.26 115.266 220.936 116.361C220.597 117.472 220.319 118.529 219.509 119.763C219.363 120.04 218.931 120.457 218.63 120.634C218.306 120.843 218.005 120.989 217.705 121.113C217.111 121.352 216.54 121.521 215.977 121.66C214.843 121.938 213.732 122.107 212.622 122.254C207.315 122.886 201.847 123.234 196.448 123.349C190.517 123.45 184.594 123.318 178.678 122.987C175.037 122.778 171.397 122.47 167.764 122.023C166.384 121.853 165.011 121.652 163.63 121.375C162.944 121.236 162.25 121.082 161.563 120.889C160.877 120.688 160.183 120.48 159.481 120.087C159.303 119.994 159.126 119.863 158.949 119.724C158.856 119.639 158.763 119.562 158.686 119.477L158.493 119.207C158.208 118.837 158.085 118.49 157.93 118.143C157.653 117.449 157.452 116.763 157.283 116.076C156.951 114.703 156.689 113.338 156.496 111.965C156.187 109.836 155.971 107.715 155.856 105.587C155.771 103.45 155.717 101.329 156.141 99.0925C156.326 98.1053 156.689 97.0718 157.252 96.2079C158.308 94.5883 159.326 93.8324 160.051 93.3773C160.792 92.93 161.324 92.8529 161.802 92.9069C162.018 92.93 162.28 92.9377 162.427 92.9994C162.674 93.1074 162.527 93.4005 162.126 93.8864C161.733 94.3723 161.039 94.9893 160.283 95.8609C159.72 96.501 159.242 97.1952 158.902 97.9279C158.563 98.6529 158.401 99.3933 158.301 100.288C158.092 102.039 158.116 103.928 158.208 105.818C158.308 107.708 158.509 109.62 158.794 111.518C159.087 113.392 159.458 115.328 160.044 116.948C160.09 117.11 160.159 117.218 160.213 117.341C160.267 117.449 160.329 117.626 160.375 117.68C160.399 117.703 160.414 117.734 160.437 117.757L160.46 117.804V117.827C160.46 117.827 160.568 117.765 160.291 118.027C160.599 117.757 160.46 117.881 160.499 117.858L160.591 117.919C160.923 118.12 161.571 118.382 162.188 118.575C163.476 118.976 164.887 119.269 166.307 119.524C169.153 120.04 172.076 120.318 174.999 120.542V120.596H174.976Z" fill="#231F20"/>
<path d="M177.327 66.3052C179.364 66.3052 181.423 66.1895 183.482 66.0044C184.238 65.9427 184.978 65.8193 185.734 65.7498C188.395 65.5185 191.072 65.2331 193.771 65.0171C194.974 64.94 196.177 64.7703 197.388 64.778C198.167 64.778 198.962 64.778 199.756 64.9091C200.543 65.0557 201.33 65.395 201.993 65.8732C202.402 66.1895 202.24 66.2589 201.792 66.2743C201.353 66.2512 200.589 66.4363 199.802 66.5288C199.108 66.5134 198.383 66.5288 197.651 66.5982C196.918 66.6754 196.177 66.7371 195.422 66.7756C193.894 66.899 192.367 67.0224 190.825 67.1459C188.958 67.2693 187.053 67.678 185.14 67.9094C183.043 68.1717 180.922 68.3182 178.793 68.403C177.482 68.457 176.17 68.4493 174.859 68.4185C172.869 68.3645 170.872 68.1562 168.913 67.8477C167.393 67.6009 165.874 67.3849 164.37 66.953C164.038 66.8605 163.714 66.7602 163.39 66.6445C162.781 66.4363 162.419 66.2049 162.203 65.9581C161.987 65.7267 161.925 65.4722 161.933 65.1714C161.933 65.0325 161.917 64.9014 161.933 64.7857C161.994 64.4309 162.65 64.2458 163.483 64.4541C165.951 65.1328 168.527 65.719 171.227 65.9889C173.224 66.2049 175.268 66.2897 177.32 66.2435V66.2974L177.327 66.3052Z" fill="#231F20"/>
<path d="M214.019 73.3395C214.76 74.1571 215.454 75.0055 216.125 75.8925C216.464 76.3321 216.788 76.8026 217.105 77.2885L217.344 77.6896L217.459 77.8901C217.498 77.9672 217.552 78.0829 217.591 78.1755C217.799 78.6228 217.791 78.8388 217.876 79.155C218.038 80.0034 218.169 80.8055 218.215 81.6154C218.339 84.446 218.154 87.1917 217.992 89.9452C217.93 91.1638 217.876 92.3901 217.814 93.601C217.737 95.1513 217.799 96.7247 217.236 98.2364C217.058 98.7069 216.912 98.6298 216.634 98.1979C216.349 97.7659 215.84 96.9792 215.809 96.0923C215.84 94.5189 215.871 92.9454 215.932 91.3798C216.025 89.8141 216.14 88.2406 216.264 86.6672C216.418 84.7853 216.264 82.8108 216.063 80.9598C216.04 80.6975 216.002 80.4584 215.963 80.2116C215.932 79.9571 215.886 79.718 215.824 79.4943L215.786 79.317L215.763 79.2321V79.1858L215.747 79.1627C215.84 79.1318 215.547 79.2244 215.948 79.101H215.925L215.817 79.1318C215.716 79.155 215.739 79.1473 215.739 79.1473L215.724 79.1164L215.701 79.0701L215.662 78.9776C215.531 78.7771 215.431 78.5842 215.277 78.3837C214.706 77.5584 214.012 76.7563 213.325 75.9696C212.461 75.0055 211.567 74.0645 210.626 73.1699C209.191 71.8278 207.687 70.5321 206.052 69.4677C204.795 68.6193 203.414 68.0563 202.057 67.5164C201.756 67.4161 201.448 67.3313 201.147 67.2156C200.599 66.9842 200.229 66.8839 200.005 66.668C199.782 66.4597 199.689 66.2129 199.651 65.8813C199.635 65.727 199.589 65.5728 199.597 65.4262C199.597 64.9634 200.214 64.6858 201.201 64.8478C204.101 65.4262 206.754 67.0305 209.137 68.8276C210.911 70.185 212.531 71.7044 214.073 73.3087L214.035 73.355L214.019 73.3395Z" fill="#231F20"/>
<path d="M188.936 134.672C192.06 134.772 195.184 134.949 198.292 135.173C199.426 135.25 200.567 135.281 201.701 135.381C203.405 135.536 205.102 135.705 206.799 135.89L209.336 136.176L210.601 136.315L211.141 136.369C211.226 136.369 211.342 136.423 211.404 136.338C211.519 136.261 211.565 136.191 211.743 135.975C211.882 135.759 212.028 135.551 212.152 135.304C212.907 133.847 213.347 132.111 213.679 130.43C214.095 128.247 214.219 126.033 214.674 123.828C214.851 123.133 214.967 123.218 215.291 123.82C215.445 124.121 215.73 124.56 215.854 125.092C215.993 125.625 216.101 126.257 216.077 126.928C216.016 128.802 215.684 130.638 215.252 132.481C215.021 133.399 214.759 134.317 214.381 135.235C214.288 135.466 214.188 135.69 214.064 135.921C213.949 136.153 213.841 136.376 213.686 136.608C213.54 136.839 213.417 137.063 213.208 137.302C213.116 137.402 212.977 137.618 212.823 137.734L212.337 138.143C211.92 138.258 211.504 138.397 211.033 138.328C210.702 138.297 210.501 138.266 210.239 138.235L208.75 138.035C205.997 137.649 203.112 137.526 200.282 137.34C197.173 137.124 194.057 136.955 190.941 136.854C189.021 136.793 187.108 136.754 185.188 136.762C182.288 136.77 179.365 136.824 176.495 137.07C174.266 137.256 172.091 137.618 169.924 138.011C169.446 138.104 168.983 138.197 168.497 138.289C167.603 138.436 167.016 138.513 166.577 138.466C166.137 138.397 165.867 138.22 165.62 137.981C165.512 137.873 165.374 137.78 165.304 137.687C165.188 137.526 165.304 137.34 165.59 137.078C165.883 136.808 166.369 136.538 167.032 136.376C170.95 135.366 175.192 134.919 179.434 134.726C182.589 134.579 185.758 134.579 188.913 134.633V134.687L188.936 134.672Z" fill="#231F20"/>
<path d="M174.751 74.404C175.815 74.4194 176.887 74.404 177.983 74.3886C178.376 74.3809 178.777 74.3192 179.178 74.3192C180.59 74.3423 182.024 74.3577 183.451 74.5891C184.084 74.6585 184.716 74.7742 185.341 74.8513C185.742 74.9439 186.151 74.9825 186.536 75.1059C186.922 75.2601 187.269 75.5378 187.601 75.7923C187.801 75.962 187.763 75.9697 187.516 76.0622C187.392 76.1085 187.215 76.1779 186.999 76.2859C186.783 76.4016 186.552 76.4942 186.336 76.4942C186.243 76.4942 186.135 76.5173 186.043 76.525L185.757 76.4942L185.202 76.4325C184.832 76.3862 184.446 76.3862 184.076 76.3476C183.706 76.3013 183.312 76.3168 182.934 76.2782C182.556 76.2474 182.163 76.1934 181.77 76.1394C180.829 76.0005 179.841 76.1625 178.862 76.2088L175.592 76.3553C174.913 76.3785 174.234 76.3939 173.548 76.3939C172.514 76.4016 171.465 76.3091 170.432 76.2628C170.031 76.2242 169.622 76.2088 169.221 76.2088C168.812 76.1934 168.403 76.1471 167.995 76.1085C167.81 76.0931 167.632 76.0854 167.455 76.0314C166.791 75.854 166.629 75.6535 166.683 75.1136C166.699 74.9902 166.699 74.8668 166.722 74.7434C166.815 74.3423 167.177 74.1032 167.617 74.1186C168.936 74.1649 170.224 74.3192 171.612 74.35C172.121 74.3731 172.645 74.3654 173.162 74.3809C173.687 74.3654 174.211 74.3809 174.751 74.3654V74.4117V74.404Z" fill="#231F20"/>
<path d="M176.366 81.1678C177.152 81.1909 177.947 81.2064 178.749 81.1986C179.042 81.1986 179.328 81.1447 179.621 81.1524C180.662 81.2064 181.711 81.2603 182.744 81.322C183.207 81.3452 183.67 81.3452 184.133 81.3375C184.726 81.3143 185.32 81.3683 185.899 81.5611C186.076 81.6228 186.03 81.8388 185.86 82.0702C185.691 82.3016 185.39 82.5715 185.066 82.6178C184.487 82.7258 183.917 82.6872 183.33 82.7104C182.752 82.7104 182.166 82.7026 181.572 82.6564C180.862 82.5947 180.13 82.7566 179.397 82.7798C178.595 82.8029 177.785 82.8183 176.967 82.826H175.463C174.7 82.826 173.936 82.7643 173.173 82.7643C172.579 82.7489 171.993 82.8415 171.391 82.8183C171.26 82.8183 171.129 82.826 170.998 82.8106C170.512 82.7412 170.373 82.6024 170.358 82.1627C170.358 82.0625 170.342 81.9622 170.35 81.8619C170.373 81.5303 170.612 81.2912 170.951 81.2295C171.97 81.0367 172.972 81.0752 174.013 81.0984C174.785 81.1138 175.571 81.1447 176.358 81.1369V81.1755L176.366 81.1678Z" fill="#231F20"/>
<path d="M202.196 78.1216C202.118 78.97 202.018 79.8184 201.902 80.6514L201.856 80.9676V81.0448L201.841 81.0602V81.0911L201.787 81.2145C201.764 81.307 201.725 81.415 201.71 81.5307C201.702 81.577 201.733 81.577 201.756 81.5615L201.833 81.5384C201.887 81.523 201.941 81.4998 201.987 81.4921C202.026 81.4844 202.064 81.4767 202.103 81.4767C202.134 81.4767 202.172 81.4767 202.196 81.4767L202.62 81.4227C202.897 81.3841 203.183 81.3533 203.46 81.3379C204.023 81.2839 204.579 81.2762 205.134 81.2607C206.245 81.2607 207.355 81.3147 208.451 81.4844C209.422 81.6155 210.394 81.7544 211.351 81.9395C212.562 82.2094 213.811 82.6182 214.752 83.5283C215.045 83.8137 214.968 83.8214 214.59 83.8831C214.397 83.9139 214.127 83.9833 213.826 84.0451C213.672 84.0836 213.51 84.1145 213.341 84.1453C213.256 84.1607 213.179 84.1607 213.086 84.1916L212.839 84.1762C212.261 84.1068 211.675 84.0836 211.096 84.0451C210.533 83.9448 209.962 83.8754 209.384 83.806C208.227 83.6903 207.07 83.5669 205.898 83.4512C205.219 83.3895 204.525 83.4126 203.838 83.4974C203.491 83.536 203.152 83.59 202.813 83.6594C202.705 83.6748 202.327 83.7442 202.041 83.8291L201.139 84.0528L200.83 84.1145C200.576 84.099 200.368 84.0373 200.136 84.0065L199.797 83.9525C199.673 83.8908 199.643 83.7674 199.589 83.6748C199.496 83.4743 199.427 83.2352 199.404 82.9421C199.38 82.649 199.411 82.3097 199.458 81.9703L199.828 79.0703C199.936 78.0676 200.028 77.0573 200.059 76.0469C200.113 74.5198 200.121 72.9772 199.936 71.4655C199.797 70.2931 199.465 69.1748 199.172 68.0487C199.118 67.8019 199.049 67.5628 199.002 67.3083C198.918 66.8378 198.887 66.5216 198.948 66.2825C199.026 66.0357 199.149 65.8737 199.35 65.7118C199.442 65.6423 199.527 65.5498 199.612 65.5035C199.758 65.4187 199.928 65.4495 200.121 65.5806C200.314 65.7195 200.553 65.9508 200.707 66.2902C200.954 66.7915 201.193 67.3083 201.401 67.8405C201.571 68.3804 201.71 68.9357 201.825 69.4987C202.057 70.6248 202.196 71.7817 202.28 72.9463C202.396 74.674 202.35 76.4094 202.242 78.1293H202.188L202.196 78.1216Z" fill="#231F20"/>
<path d="M163.385 78.0214C163.254 79.7413 163.115 81.4459 163.038 83.1504C163.007 83.7751 163.038 84.3922 163.015 85.0169C162.915 87.2073 162.899 89.39 162.992 91.5882C163.031 92.56 163.123 93.5318 163.27 94.4882C163.47 95.7145 163.64 96.9409 163.447 98.2366C163.385 98.6377 163.277 98.6068 162.984 98.3214C162.791 98.1286 162.583 97.9204 162.39 97.7276C162.167 97.473 161.974 97.1645 161.835 96.8175C161.735 96.5089 161.557 96.2004 161.519 95.8842L161.372 94.9201C161.287 94.2799 161.179 93.6321 161.133 92.9842C161.079 92.3363 161.025 91.6885 161.01 91.0329C161.01 90.3773 161.033 89.7217 161.056 89.0661C161.141 87.5004 161.017 85.8807 161.056 84.2919C161.118 82.5488 161.21 80.8057 161.334 79.0703C161.403 78.006 161.48 76.9416 161.534 75.8772C161.627 74.2653 161.704 72.661 161.665 71.0645C161.627 69.8304 161.426 68.6272 161.272 67.424C161.241 67.1618 161.21 66.8995 161.179 66.6296C161.141 66.136 161.141 65.8043 161.226 65.5575C161.318 65.3184 161.465 65.1642 161.673 65.0331C161.766 64.9714 161.858 64.8942 161.951 64.8557C162.105 64.7862 162.259 64.8557 162.429 65.0176C162.591 65.1873 162.776 65.4573 162.876 65.8275C163.038 66.3751 163.2 66.9304 163.316 67.5011C163.401 68.0719 163.493 68.6504 163.532 69.2365C163.64 70.4089 163.663 71.5889 163.655 72.7767C163.632 74.5275 163.532 76.286 163.439 78.0137H163.393L163.385 78.0214Z" fill="#231F20"/>
<path d="M182.92 98.1053C185.967 98.4215 189.005 98.7378 192.044 98.9923C193.155 99.0848 194.265 99.1157 195.376 99.2005C199.286 99.509 203.197 99.7636 207.107 99.779C208.843 99.7867 210.586 99.725 212.298 99.5862C213.401 99.5013 214.496 99.3625 215.591 99.2391C216.687 99.1388 217.782 99.0463 218.916 99.1003C219.286 99.2005 219.448 99.2545 219.448 99.3085C219.448 99.3625 219.293 99.4319 219.039 99.6787C218.784 99.9255 218.406 100.18 217.936 100.489C217.466 100.766 216.887 100.998 216.247 101.167C213.956 101.553 211.642 101.738 209.336 101.831C207.03 101.923 204.724 101.8 202.418 101.63C199.664 101.414 196.795 101.391 193.988 101.19C190.903 100.974 187.825 100.681 184.748 100.388C182.858 100.203 180.969 100.026 179.079 99.8407C176.218 99.5785 173.348 99.2931 170.502 99.162C168.297 99.0617 166.122 99.1234 163.977 99.2622C163.507 99.2854 163.052 99.3625 162.574 99.3856C160.838 99.5476 160.345 99.5013 159.843 99.0463C159.728 98.9383 159.589 98.8457 159.504 98.7378C159.365 98.5527 159.442 98.3367 159.751 98.0976C160.059 97.8508 160.576 97.6271 161.27 97.4652C163.299 97.0718 165.366 96.9792 167.44 96.9792C169.515 96.9792 171.598 97.1026 173.68 97.2415C176.765 97.4574 179.85 97.7737 182.928 98.0436V98.0976L182.92 98.1053Z" fill="#231F20"/>
<path d="M215.106 62.0321C215.222 62.1555 215.098 62.3252 214.844 62.518C214.767 62.5797 214.497 62.6568 214.443 62.626C214.342 62.5643 214.242 62.5103 214.157 62.4409C214.111 62.4023 213.679 61.6465 213.509 61.3997C213.347 61.1606 213.232 60.906 213.131 60.6438L212.576 59.0395C212.538 58.9238 212.514 58.7927 212.507 58.6693C212.491 58.2297 212.368 57.8132 212.206 57.4121C212.175 57.3427 212.167 57.2733 212.082 57.227C211.951 57.1499 211.589 56.0316 211.589 55.8773C211.597 55.4839 211.566 55.106 211.55 54.7204C211.55 54.6664 211.504 54.6201 211.573 54.5507C211.72 54.3964 211.658 54.2885 211.635 54.1805C211.604 54.0185 211.589 53.8565 211.612 53.6869C211.62 53.602 211.705 53.5018 211.774 53.4015C211.828 53.3167 212.113 53.2781 212.144 53.2935C212.252 53.3398 212.36 53.2472 212.468 53.2164C212.507 53.201 212.553 53.1855 212.584 53.1855C212.661 53.1701 213.401 53.926 213.409 54.0262C213.409 54.0339 213.532 54.3579 213.664 54.6895C213.795 55.0212 213.926 55.376 213.964 55.4454C214.003 55.5148 213.98 55.6074 213.972 55.6922C213.972 55.7308 214.381 56.7257 214.381 56.772C214.419 56.9957 214.535 57.1885 214.443 57.443C214.427 57.497 214.443 57.5355 214.458 57.5741C214.574 57.9366 214.612 58.3223 214.674 58.7002C214.705 58.893 214.774 59.0781 214.82 59.2632C214.828 59.2941 214.82 59.3403 214.82 59.3712C214.82 59.4175 214.813 59.4637 214.82 59.51C214.959 59.9497 214.975 60.4278 215.121 60.8675C215.152 60.9677 215.114 61.5076 215.16 61.6233C215.183 61.685 215.036 61.9704 215.083 62.0167L215.106 62.0321Z" fill="#231F20"/>
<path d="M222.41 66.4209C222.333 66.5752 222.109 66.552 221.855 66.498C221.77 66.4826 221.608 66.3361 221.616 66.2744C221.616 66.151 221.615 66.0276 221.631 65.9042C221.615 65.8193 222.047 64.9092 222.202 64.5853C222.356 64.2845 222.564 64.0299 222.78 63.7909C223.212 63.2895 223.721 62.8576 224.246 62.4488C224.361 62.3563 224.492 62.2869 224.631 62.2329C225.117 62.0555 225.541 61.7932 225.95 61.5002C226.02 61.4539 226.097 61.423 226.135 61.315C226.181 61.1222 227.408 60.4821 227.601 60.4666C228.063 60.4126 228.503 60.3355 228.95 60.3047C229.012 60.3047 229.066 60.2507 229.151 60.3201C229.344 60.4898 229.459 60.4127 229.591 60.3818C229.768 60.3432 229.961 60.3278 230.154 60.3509C230.254 60.3587 230.37 60.4589 230.477 60.5361C230.578 60.6055 230.616 60.9371 230.601 60.9757C230.547 61.0991 230.655 61.2302 230.693 61.3613C230.709 61.4076 230.724 61.4616 230.732 61.5002C230.732 61.585 229.976 62.3794 229.884 62.4103C229.853 62.4103 228.626 63.0273 228.511 63.1276C228.449 63.1815 228.349 63.1661 228.264 63.1661C228.218 63.1584 227.308 63.7754 227.277 63.7909C227.061 63.868 226.906 64.0454 226.621 63.9991C226.567 63.9914 226.529 64.0222 226.49 64.0454C226.166 64.269 225.804 64.4156 225.449 64.6007C225.271 64.6932 225.125 64.8321 224.955 64.9478C224.924 64.9709 224.878 64.9709 224.847 64.9786C224.801 64.994 224.755 65.0095 224.716 65.0326C224.338 65.3257 223.883 65.5339 223.559 65.8887C223.474 65.9581 222.927 66.1664 222.842 66.2667C222.788 66.3206 222.448 66.3284 222.425 66.3978L222.41 66.4209Z" fill="#231F20"/>
<path d="M202.91 131.941C202.47 131.895 202.031 131.818 201.591 131.741C201.429 131.718 201.267 131.718 201.113 131.687C200.55 131.571 199.995 131.456 199.447 131.317C199.2 131.255 198.953 131.209 198.714 131.162C198.398 131.108 198.09 131.054 197.789 130.931C197.696 130.892 197.719 130.815 197.82 130.731C197.92 130.646 198.09 130.545 198.267 130.538C198.915 130.53 199.555 130.445 200.18 130.623C200.558 130.715 200.959 130.677 201.344 130.7C201.769 130.723 202.2 130.754 202.632 130.777C202.895 130.792 203.165 130.815 203.427 130.815C203.828 130.823 204.237 130.846 204.63 130.8C204.939 130.769 205.239 130.653 205.532 130.569C205.602 130.553 205.664 130.522 205.725 130.507C205.972 130.461 206.057 130.538 206.149 130.877C206.173 130.954 206.196 131.031 206.211 131.108C206.265 131.378 206.18 131.602 205.995 131.695C205.455 131.965 204.854 132.019 204.252 132.026C203.805 132.026 203.357 131.995 202.91 131.972V131.941Z" fill="#231F20"/>
<rect x="0.5" y="0.5" width="382.333" height="199" rx="5.5" stroke="black" stroke-opacity="0.1"/>
</svg>
