<svg width="384" height="200" viewBox="0 0 384 200" fill="none" xmlns="http://www.w3.org/2000/svg">
<rect x="0.666016" width="383.333" height="200" rx="6" fill="#F8F8F8"/>
<rect x="125.25" y="33.25" width="133.182" height="133.517" fill="white" stroke="#C7C7C7" stroke-width="0.5"/>
<rect x="130.363" y="49.6611" width="122.951" height="111.636" fill="white" stroke="#D9D9D9" stroke-width="0.5"/>
<path d="M222.432 98.6086C221.361 93.6942 219.239 89.07 216.211 85.0542C213.22 81.0222 209.266 77.8047 204.71 75.6964C203.055 74.9392 201.329 74.3497 199.556 73.9368C197.777 73.5069 195.964 73.231 194.138 73.1122C187.626 72.704 181.133 74.1624 175.422 77.3162C169.62 80.3639 164.854 85.0661 161.728 90.8264C159.157 96.0448 157.877 101.804 157.995 107.62C158.078 111.314 158.769 114.968 160.042 118.436C161.306 121.883 163.168 125.081 165.542 127.882C167.014 129.605 166.491 129.789 164.754 128.655C164.224 128.324 163.731 127.94 163.281 127.507L162.457 126.704L162.015 126.255L161.603 125.754C160.977 125.022 160.411 124.242 159.909 123.42C159.644 122.979 159.379 122.522 159.107 122.044C158.834 121.565 158.643 121.05 158.415 120.527C157.636 118.673 157.023 116.753 156.581 114.791C156.397 113.805 156.191 112.818 156.073 111.846C155.956 110.875 155.816 109.859 155.816 108.857C155.648 104.857 156.093 100.855 157.134 96.9889C157.673 95.0668 158.352 93.1868 159.166 91.3639C159.993 89.5229 161.015 87.7755 162.214 86.1512C164.586 82.9008 167.506 80.088 170.843 77.8389C174.847 75.0864 179.321 73.0902 184.044 71.9489C188.834 70.8089 193.812 70.711 198.643 71.6618C203.948 72.7059 208.888 75.1197 212.971 78.6635C217.028 82.1884 220.215 86.6029 222.285 91.5627C223.573 94.5835 224.464 97.7587 224.935 101.009C226.114 109.253 224.379 117.65 220.032 124.753C217.457 129.003 213.987 132.641 209.864 135.414C203.488 139.721 195.765 141.444 188.226 141.113C187.386 141.068 186.569 141.002 185.737 140.943C184.905 140.884 184.095 140.759 183.263 140.619C181.083 140.292 178.942 139.745 176.872 138.985C176.324 138.771 175.788 138.525 175.267 138.249C174.916 138.039 174.587 137.792 174.288 137.512C174.041 137.314 173.812 137.095 173.604 136.857C173.405 136.563 173.927 136.548 175.002 136.783L179.884 137.947C186.223 139.331 193.041 139.618 199.483 137.88C206.004 136.182 211.79 132.394 215.953 127.094C219.056 123.125 221.25 118.523 222.38 113.613C223.503 108.682 223.503 103.562 222.38 98.6307L222.432 98.6086Z" fill="#221F1F"/>
<path d="M175.421 128.773C172.675 131.527 169.906 134.273 167.028 136.923C165.975 137.895 164.944 138.882 163.84 139.802C161.908 141.499 159.797 142.981 157.545 144.22C156.344 144.898 154.992 145.263 153.613 145.28C152.866 145.278 152.132 145.08 151.485 144.706C151.147 144.496 150.854 144.222 150.623 143.898C150.391 143.575 150.226 143.208 150.138 142.821C149.919 141.616 149.995 140.375 150.359 139.206C150.665 138.104 151.059 137.028 151.537 135.988C152.679 133.311 154.296 130.862 156.308 128.758C157 128.133 157.199 128.574 157.044 129.399C156.743 130.618 156.224 131.773 155.513 132.808C154.745 133.966 154.049 135.171 153.429 136.415C152.803 137.615 152.309 138.879 151.956 140.185C151.655 141.429 151.677 142.718 152.258 143.13C152.665 143.429 153.159 143.587 153.665 143.579C154.275 143.606 154.884 143.516 155.461 143.314C157.04 142.722 158.516 141.885 159.834 140.833C161.241 139.795 162.588 138.624 163.913 137.468C166.814 134.899 169.604 132.16 172.373 129.369L177.453 124.216C180.015 121.609 182.607 119.018 185.242 116.5C187.23 114.494 189.347 112.622 191.582 110.897C192.093 110.517 192.627 110.168 193.179 109.851C195.322 108.673 196.537 108.909 196.949 109.461C197.054 109.577 197.136 109.712 197.192 109.859C197.192 110.065 197.008 110.153 196.676 110.242C196.157 110.375 195.65 110.553 195.16 110.772C194.109 111.284 193.12 111.917 192.215 112.656C191.236 113.393 190.286 114.217 189.336 115.071C187.429 116.779 185.566 118.605 183.704 120.439C180.95 123.185 178.204 125.968 175.458 128.803L175.421 128.773Z" fill="#221F1F"/>
<path d="M193.997 102.165L194.313 102.54L194.571 102.813L194.924 103.166C194.934 103.413 194.92 103.659 194.88 103.902C194.836 104.02 194.785 104.145 194.733 104.263L194.512 104.595C194.302 104.856 194.073 105.102 193.827 105.331C193.763 105.381 193.704 105.438 193.651 105.5C193.607 105.5 193.651 105.581 193.651 105.596C193.692 105.624 193.741 105.637 193.791 105.633C193.898 105.647 194.007 105.647 194.115 105.633C194.231 105.628 194.347 105.614 194.461 105.589C194.967 105.492 195.461 105.339 195.933 105.132C196.912 104.687 197.853 104.163 198.746 103.564C199.857 102.828 200.954 101.996 201.963 101.156C203.818 99.6838 205.593 98.0861 207.308 96.4295C209.036 94.8042 210.629 93.0412 212.072 91.1579C212.383 90.8221 212.581 90.398 212.641 89.9443C212.7 89.4906 212.617 89.0297 212.403 88.6252C212.057 87.889 210.931 88.2203 210.069 88.6252C208.892 89.2318 207.779 89.9571 206.749 90.7898C205.688 91.6071 204.658 92.4685 203.627 93.3299C202.361 94.4343 203.053 92.0709 205.563 90.0683C206.674 89.1638 207.867 88.3652 209.127 87.6828C209.835 87.2905 210.613 87.0403 211.417 86.9466C211.947 86.919 212.47 87.0837 212.889 87.4104C213.268 87.7417 213.542 88.1768 213.677 88.662C213.793 89.095 213.82 89.5468 213.758 89.9907C213.696 90.4346 213.546 90.8616 213.316 91.2463C212.956 91.8902 212.539 92.5012 212.072 93.0722C211.115 94.1545 210.135 95.1632 209.127 96.1497C206.702 98.5846 204.136 100.873 201.44 103.004C200.209 103.96 198.907 104.821 197.546 105.581C196.845 105.974 196.104 106.293 195.337 106.531C194.935 106.656 194.52 106.735 194.1 106.767C193.987 106.781 193.874 106.781 193.761 106.767C193.62 106.765 193.48 106.75 193.342 106.722C193.068 106.642 192.804 106.533 192.554 106.398C192.354 106.274 192.211 106.075 192.156 105.846C192.143 105.611 192.214 105.379 192.355 105.191C192.502 104.981 192.673 104.788 192.863 104.617L193.253 104.241C193.401 104.133 193.538 104.012 193.665 103.88C193.717 103.799 193.791 103.674 193.717 103.593L193.533 103.394L193.209 103.019C192.994 102.761 192.797 102.488 192.62 102.202C192.415 101.888 192.266 101.542 192.178 101.178C192.121 100.955 192.126 100.721 192.192 100.5C192.258 100.28 192.383 100.082 192.554 99.9267C192.752 99.8524 192.961 99.8078 193.172 99.7942C193.349 99.7798 193.526 99.7798 193.702 99.7942C194.014 99.8132 194.324 99.855 194.63 99.9194C194.858 99.9709 195.079 100.03 195.307 100.096L195.602 100.184L195.771 100.251C195.83 100.295 195.86 100.199 195.904 100.177L196.058 100.03L196.53 99.5586L198.054 98.0861L197.317 97.7253L196.169 97.1142C195.41 96.6977 194.673 96.2431 193.96 95.7522C193.507 95.4374 193.088 95.0772 192.708 94.6772C192.483 94.4722 192.305 94.2211 192.186 93.941C192.122 93.7738 192.107 93.5924 192.14 93.4169C192.174 93.2414 192.256 93.0787 192.377 92.947C192.714 92.5975 193.123 92.3256 193.576 92.1501C194.028 91.9746 194.514 91.8999 194.998 91.931C195.856 91.9403 196.712 92.0067 197.56 92.1298C198.149 92.2034 198.724 92.2771 199.313 92.3654C201.521 92.6967 202.154 92.8661 202.574 93.2489C202.674 93.3276 202.767 93.4137 202.854 93.5066C203.031 93.779 202.118 93.8526 200.505 93.6759C199.18 93.5287 197.84 93.3373 196.522 93.1974C195.887 93.1237 195.246 93.104 194.608 93.1385C194.341 93.1552 194.078 93.2123 193.827 93.3078C193.721 93.3525 193.619 93.4094 193.526 93.4771L193.386 93.5802L193.327 93.6465L193.408 93.7496C193.475 93.8335 193.549 93.9123 193.629 93.9852C194.004 94.3305 194.408 94.6433 194.836 94.9202C195.758 95.5012 196.709 96.0345 197.685 96.5179L198.672 97.0112L200.019 97.6443L196.61 101.075L196.301 101.385C196.191 101.48 196.102 101.642 195.955 101.532L195.138 101.252C194.896 101.171 194.65 101.102 194.402 101.046C194.16 100.99 193.913 100.953 193.665 100.935H193.378C193.378 100.935 193.378 101.053 193.452 101.127C193.624 101.477 193.837 101.805 194.085 102.106L193.997 102.165Z" fill="#221F1F"/>
<path d="M207.138 104.992C207.264 104.542 207.346 104.081 207.381 103.615C207.433 103.122 207.455 102.614 207.47 102.143C207.47 101.775 207.47 101.406 207.47 101.031C207.47 100.39 207.469 99.6837 207.411 99.1094C207.421 98.9697 207.421 98.8294 207.411 98.6897C207.403 98.6076 207.388 98.5263 207.366 98.4468C207.366 98.4468 207.322 98.3584 207.285 98.3658C207.26 98.3867 207.237 98.4115 207.219 98.4394C207.146 98.5351 207.072 98.6603 206.991 98.7781C206.952 98.8477 206.908 98.9141 206.858 98.9769C206.761 99.1064 206.655 99.2294 206.542 99.345C206.399 99.5026 206.241 99.6456 206.071 99.772C205.922 99.8955 205.767 100.011 205.607 100.118C205.291 100.347 204.947 100.535 204.583 100.678C204.48 100.678 204.348 100.678 204.37 100.552C204.341 100.537 204.318 100.514 204.303 100.485C204.289 100.455 204.284 100.423 204.289 100.39C204.278 100.312 204.278 100.233 204.289 100.155C204.304 99.9649 204.36 99.7804 204.452 99.614C204.545 99.4475 204.673 99.303 204.826 99.1904C205.112 99.0037 205.387 98.8022 205.651 98.5866C205.767 98.4845 205.873 98.371 205.968 98.248C206.181 97.9903 206.402 97.6222 206.608 97.3129C206.692 97.1577 206.796 97.0142 206.917 96.8859C207.003 96.8372 207.094 96.8 207.19 96.7755C207.352 96.7755 207.47 96.6061 207.712 96.7755C207.81 96.8149 207.898 96.8747 207.97 96.9509C208.043 97.0271 208.098 97.1179 208.132 97.2172C208.241 97.5141 208.313 97.8232 208.346 98.1375C208.456 99.0873 208.449 99.3892 208.493 99.9119C208.537 100.435 208.559 100.876 208.559 101.384C208.57 102.466 208.499 103.546 208.346 104.617C208.297 104.978 208.195 105.33 208.044 105.662C207.961 105.881 207.812 106.069 207.619 106.201C207.425 106.332 207.196 106.401 206.961 106.398C206.64 106.347 206.342 106.198 206.107 105.971C205.911 105.792 205.731 105.594 205.57 105.382C205.272 104.974 205.001 104.546 204.76 104.101C204.37 103.436 204.038 102.739 203.766 102.018C203.702 101.852 203.651 101.682 203.612 101.51C203.457 100.854 203.656 100.427 204.016 100.42C204.091 100.416 204.165 100.434 204.23 100.471C204.377 100.685 204.51 100.678 204.583 101.009C204.96 102.189 205.498 103.311 206.181 104.344C206.304 104.53 206.439 104.707 206.586 104.874C206.693 104.993 206.812 105.102 206.939 105.198C206.939 105.198 207.006 105.132 207.057 104.97L207.138 104.992Z" fill="#221F1F"/>
<path d="M195.814 104.882C195.661 105.07 195.48 105.234 195.277 105.368C195.14 105.452 194.991 105.517 194.835 105.559C194.532 105.633 194.219 105.657 193.907 105.633C193.701 105.633 193.414 105.331 193.539 105.117L194.172 104.116L194.224 104.05V103.991C194.259 103.939 194.291 103.885 194.32 103.829C194.341 103.797 194.355 103.761 194.358 103.723C194.362 103.685 194.357 103.647 194.342 103.612C194.327 103.577 194.304 103.546 194.275 103.522C194.245 103.498 194.21 103.482 194.172 103.475C194.172 103.475 194.128 103.475 194.106 103.439H194.069L193.93 103.343C193.738 103.21 193.539 103.078 193.333 102.923C193.212 102.835 193.096 102.739 192.987 102.636C192.911 102.565 192.839 102.489 192.774 102.408C192.722 102.346 192.675 102.279 192.634 102.209C192.599 102.166 192.57 102.119 192.545 102.069C192.545 101.981 192.472 101.892 192.442 101.804V101.672C192.431 101.561 192.431 101.45 192.442 101.34C192.449 101.081 192.523 100.827 192.656 100.604C192.806 100.351 193.026 100.147 193.289 100.015C193.403 99.9556 193.524 99.9111 193.65 99.8825H193.819H193.893C194.025 99.8679 194.158 99.8679 194.29 99.8825C194.385 99.8944 194.479 99.9141 194.57 99.9414C194.671 99.9531 194.769 99.9857 194.857 100.037C195.127 100.177 195.411 100.288 195.704 100.368L195.895 100.42H195.947L196.492 99.9046C196.889 99.507 197.279 99.0873 197.64 98.6603L198.148 98.0271L197.92 97.9241L197.545 97.7694L197.176 97.6222L196.779 97.4381L196.101 97.0995C195.596 96.8463 195.104 96.5661 194.629 96.2601C194.26 96.0214 193.934 95.7228 193.664 95.3766C193.572 95.2604 193.488 95.1373 193.414 95.0085C193.374 94.9451 193.34 94.8787 193.311 94.8097C193.272 94.7218 193.24 94.6306 193.215 94.5373C193.175 94.4161 193.152 94.2896 193.149 94.1618C193.134 94.0149 193.134 93.8669 193.149 93.72C193.194 93.4721 193.29 93.236 193.429 93.0259C193.568 92.8158 193.748 92.6362 193.959 92.4979C194.139 92.3792 194.334 92.2874 194.541 92.2255C194.904 92.1208 195.281 92.0712 195.66 92.0782C195.954 92.0782 196.219 92.0782 196.477 92.1224C196.992 92.1666 197.486 92.2255 197.949 92.2844C198.267 92.3505 198.592 92.3654 198.914 92.3285C200.217 92.3821 201.512 92.5471 202.787 92.8218H202.823C202.903 92.8 202.98 92.7678 203.052 92.7261C203.212 92.6338 203.366 92.533 203.516 92.4242C203.759 92.2623 204.112 91.9678 204.429 91.688L205.422 90.9076C206.101 90.3801 206.806 89.8886 207.535 89.4351C207.733 89.2756 207.961 89.1579 208.205 89.089C208.784 88.9767 209.342 88.7781 209.862 88.5C210.63 88.1359 211.485 87.9956 212.328 88.0951C212.781 88.1802 213.191 88.4164 213.492 88.7651C213.764 89.0375 213.367 89.2215 213.264 89.2142C212.932 89.17 213.079 89.4498 213.013 89.5823C212.992 89.6322 212.965 89.6792 212.932 89.7222C212.886 89.7329 212.838 89.7329 212.792 89.7222H212.66H212.476C212.132 89.75 211.798 89.8504 211.497 90.0167C210.915 90.3686 210.361 90.7649 209.84 91.2021C209.84 91.2021 209.538 91.4229 209.104 91.7469C208.669 92.0708 208.147 92.542 207.631 93.0501C207.116 93.5581 206.549 94.1103 206.092 94.5815C205.702 94.983 205.267 95.3387 204.797 95.6417C204.286 95.9506 203.7 96.1113 203.103 96.1055C202.83 96.1256 202.555 96.1083 202.286 96.054C202.014 96.0098 200.968 95.8552 199.937 95.7447C198.907 95.6343 197.935 95.5533 197.854 95.5533C197.397 95.5533 196.941 95.5533 196.514 95.5533H195.873C195.797 95.5616 195.721 95.5616 195.645 95.5533H195.579C195.579 95.5533 195.579 95.5975 195.579 95.4797C195.551 95.32 195.511 95.1625 195.461 95.0085C195.461 94.8981 195.395 94.795 195.365 94.6919C195.333 94.5982 195.294 94.5071 195.247 94.4195C195.224 94.349 195.186 94.2839 195.137 94.2281C195.085 94.1692 195.093 94.1471 195.049 94.1176C194.99 94.1176 195.004 94.0882 195.049 94.1176C195.098 94.1135 195.146 94.0984 195.189 94.0735L195.571 93.8599L195.638 93.8231C195.853 93.6767 196.048 93.5035 196.219 93.3077C196.219 93.3077 196.219 93.3077 196.286 93.3077L196.609 93.4918C196.882 93.6317 197.221 93.7789 197.603 93.9336L198.244 94.2281L198.767 94.4784L199.378 94.7876L199.731 94.9717C199.908 95.0674 200.063 95.1705 200.232 95.2735C200.863 95.6507 201.374 96.1998 201.704 96.8565C201.845 97.1864 201.908 97.544 201.888 97.902C201.887 98.0787 201.852 98.2536 201.785 98.4173C201.736 98.5939 201.667 98.7643 201.579 98.9254C201.454 99.1715 201.293 99.3974 201.101 99.5954C200.991 99.7347 200.873 99.8674 200.747 99.9929L200.453 100.31C199.721 101.05 198.927 101.727 198.082 102.334L197.736 102.577C197.692 102.621 197.574 102.673 197.486 102.739L197.206 102.916C197.012 103.005 196.813 103.082 196.609 103.144C196.395 103.181 196.176 103.181 195.962 103.144C194.938 102.982 194.592 102.739 194.084 102.673H193.922C193.922 102.673 193.863 102.673 193.841 102.673L193.893 102.467C194.013 102.112 194.058 101.736 194.025 101.362C194.049 101.368 194.075 101.368 194.099 101.362L194.357 101.23C194.481 101.153 194.599 101.067 194.71 100.972L194.931 100.795C194.99 100.737 195.093 100.633 195.063 100.67L195.137 100.759C195.262 100.891 195.461 101.06 195.66 101.237L195.822 101.384C195.901 101.452 195.975 101.526 196.043 101.605C196.197 101.745 196.315 101.892 196.433 102.018C196.542 102.169 196.638 102.329 196.72 102.496C196.781 102.604 196.833 102.718 196.875 102.835C196.91 103.037 196.905 103.244 196.86 103.443C196.814 103.643 196.729 103.832 196.609 103.998C196.379 104.322 196.113 104.619 195.814 104.882Z" fill="#221F1F"/>
<path d="M177.659 70.4692C178.333 69.7349 179.159 69.1567 180.08 68.7752C181.001 68.3937 181.994 68.218 182.989 68.2604C183.829 68.3046 184.859 67.0677 183.63 67.0088C182.245 66.9289 180.86 67.151 179.57 67.6595C178.279 68.168 177.115 68.9508 176.157 69.9538C175.362 70.7416 177.114 70.9772 177.629 70.4397L177.659 70.4692Z" fill="#221F1F"/>
<path d="M227.289 93.6908C228.178 94.4715 228.819 95.4962 229.13 96.6376C229.442 97.779 229.411 98.9868 229.042 100.111C228.74 100.913 230.234 100.899 230.463 100.28C230.912 99.029 230.98 97.6726 230.657 96.3829C230.335 95.0932 229.637 93.9282 228.652 93.0355C228.166 92.5717 226.759 93.1901 227.289 93.6908Z" fill="#221F1F"/>
<path d="M230.935 91.0474C231.608 91.4406 232.158 92.0147 232.521 92.7045C232.884 93.3942 233.046 94.1721 232.989 94.9495C232.989 95.6048 234.462 95.325 234.462 94.7802C234.53 93.8832 234.344 92.9852 233.925 92.1894C233.505 91.3936 232.87 90.7323 232.091 90.2817C231.642 89.9945 230.28 90.6277 230.906 91.0179L230.935 91.0474Z" fill="#221F1F"/>
<path d="M175.582 88.8756C175.729 90.8414 171.982 90.9666 172.32 88.6547C172.549 87.035 175.059 86.9319 175.516 88.5222C175.551 88.6372 175.573 88.7557 175.582 88.8756Z" fill="#221F1F"/>
<path d="M168.176 95.9212C168.264 97.0919 166.019 97.1729 166.218 95.7814C166.268 95.5698 166.385 95.3805 166.553 95.2424C166.721 95.1043 166.929 95.025 167.147 95.0166C167.364 95.0083 167.578 95.0713 167.756 95.1961C167.934 95.321 168.066 95.5007 168.132 95.7077C168.154 95.7773 168.168 95.8488 168.176 95.9212Z" fill="#221F1F"/>
<path d="M204.546 131.622C204.634 132.8 202.381 132.874 202.588 131.483C202.638 131.271 202.755 131.082 202.923 130.944C203.091 130.805 203.3 130.726 203.517 130.718C203.734 130.709 203.948 130.772 204.126 130.897C204.304 131.022 204.436 131.202 204.502 131.409C204.523 131.479 204.538 131.55 204.546 131.622Z" fill="#221F1F"/>
<rect x="130.363" y="38.0347" width="122.951" height="5.31194" fill="white" stroke="#D9D9D9" stroke-width="0.5"/>
<rect x="1.16602" y="0.5" width="382.333" height="199" rx="5.5" stroke="black" stroke-opacity="0.1"/>
</svg>
