<svg width="384" height="200" viewBox="0 0 384 200" fill="none" xmlns="http://www.w3.org/2000/svg">
<rect x="0.333984" width="383.333" height="200" rx="6" fill="#F8F8F8"/>
<rect x="119.38" y="32.8897" width="145.24" height="134.221" fill="white" stroke="#C7C7C7" stroke-width="0.760417"/>
<rect x="125.583" y="39.2169" width="132.843" height="121.824" fill="#FFEAEB" stroke="#D9D9D9" stroke-width="0.760417"/>
<path d="M197.894 91.4917L194.863 91.4393H193.757L189.83 91.3346C189.254 91.3346 188.671 91.3346 188.102 91.3346C187.354 91.3574 186.605 91.2959 185.87 91.1513C185.641 91.099 185.713 90.968 185.922 90.8568C186.052 90.7953 186.188 90.7492 186.328 90.7193C186.514 90.6698 186.706 90.6477 186.898 90.6539C188.37 90.6539 189.863 90.6539 191.368 90.7128C192.271 90.7586 193.214 90.7128 194.13 90.7128H197.181H199.053C200.002 90.7128 200.951 90.7128 201.893 90.667C202.626 90.667 203.34 90.5688 204.066 90.5229C204.223 90.5229 204.387 90.5229 204.551 90.5229C205.146 90.5229 205.369 90.6015 205.467 90.8633C205.467 90.9222 205.519 90.9811 205.533 91.04C205.533 91.2429 205.317 91.3804 204.878 91.4197C203.552 91.5604 202.219 91.6303 200.885 91.6291H197.894V91.4917Z" fill="#231F20"/>
<path d="M181.824 124.566C182.387 124.566 177.308 126.091 176.378 124.867C175.449 123.643 175.868 117.667 175.868 117.667C175.868 117.667 177.7 117.248 177.936 117.85C178.172 118.452 176.804 120.691 176.804 121.777C176.777 124.749 181.51 124.566 181.824 124.566Z" fill="#221F1F"/>
<path d="M194.752 124.566C195.322 124.566 190.242 126.091 189.306 124.867C188.37 123.643 188.796 117.667 188.796 117.667C188.796 117.667 189.64 116.737 189.876 117.346C190.111 117.955 189.738 120.691 189.738 121.804C189.738 124.749 194.464 124.566 194.752 124.566Z" fill="#221F1F"/>
<path d="M207.686 124.225C208.255 124.225 203.176 125.75 202.24 124.526C201.304 123.302 201.729 117.326 201.729 117.326C201.729 117.326 202.574 116.397 202.809 116.999C203.045 117.601 202.672 120.35 202.672 121.463C202.672 124.389 207.398 124.225 207.686 124.225Z" fill="#221F1F"/>
<path d="M180.83 106.867C181.393 106.867 176.313 108.392 175.384 107.168C174.454 105.944 175.318 99.6865 175.318 99.6865C175.318 99.6865 178.205 99.248 178.447 99.8567C178.689 100.465 176.484 103.012 176.484 104.118C176.497 107.044 180.516 106.867 180.83 106.867Z" fill="#221F1F"/>
<path d="M213.656 59.1833C213.656 59.1375 213.656 59.0851 213.715 59.0262C213.774 58.9673 213.807 59.0262 213.82 59.0262L213.892 59.1047C213.892 59.1047 213.997 59.4124 214.029 59.5105C214.062 59.6045 214.089 59.7008 214.108 59.7985C214.147 59.9949 214.193 60.1913 214.232 60.3876C214.235 60.4334 214.235 60.4793 214.232 60.5251C214.246 60.6776 214.272 60.8287 214.311 60.9767C214.304 61.0003 214.304 61.0252 214.311 61.0487C214.362 61.2132 214.4 61.3818 214.422 61.5527C214.422 61.6836 214.422 61.8211 214.422 61.9585C214.429 61.9754 214.429 61.9941 214.422 62.0109C214.406 62.0531 214.406 62.0997 214.422 62.1418V62.312C214.425 62.3425 214.425 62.3732 214.422 62.4036C214.422 62.4036 214.363 62.4036 214.357 62.4036C214.35 62.4036 214.324 62.4036 214.304 62.4036C214.243 62.2934 214.189 62.1797 214.141 62.0633C214.141 62.0633 214.023 61.5855 214.003 61.5331C214 61.5048 214 61.4763 214.003 61.448C214.003 61.448 213.898 61.0553 213.892 61.0422C213.879 60.9642 213.879 60.8846 213.892 60.8065C213.892 60.8065 213.892 60.7738 213.892 60.7542C213.861 60.6202 213.837 60.4848 213.82 60.3484L213.781 60.1455C213.778 60.1325 213.778 60.1191 213.781 60.1062V60.0735C213.741 59.9098 213.722 59.7396 213.676 59.5825C213.676 59.5433 213.676 59.36 213.676 59.3142C213.676 59.2684 213.669 59.2029 213.656 59.1833Z" fill="#221F1F"/>
<path d="M212.55 61.1403C212.504 61.173 212.445 61.1403 212.392 61.0748C212.34 61.0094 212.392 60.9832 212.392 60.9701L212.458 60.8981L212.877 60.7607C212.975 60.7276 213.076 60.7013 213.178 60.6821L213.793 60.5512H213.931C214.09 60.5389 214.247 60.5126 214.402 60.4727H214.48C214.649 60.4217 214.822 60.3845 214.998 60.3614H215.416C215.427 60.3567 215.438 60.3542 215.449 60.3542C215.46 60.3542 215.472 60.3567 215.482 60.3614C215.525 60.3745 215.57 60.3745 215.613 60.3614C215.672 60.3582 215.731 60.3582 215.79 60.3614C215.82 60.3583 215.851 60.3583 215.881 60.3614C215.881 60.3614 215.881 60.4138 215.881 60.4203C215.881 60.4268 215.881 60.4596 215.881 60.4792C215.881 60.4792 215.554 60.6363 215.521 60.6428L214.971 60.7868H214.88L214.461 60.8981C214.38 60.9195 214.296 60.9305 214.212 60.9308C214.205 60.9278 214.197 60.9262 214.189 60.9262C214.181 60.9262 214.173 60.9278 214.166 60.9308C214.029 60.9308 213.885 60.9832 213.741 61.0028L213.531 61.0487H213.44C213.27 61.0879 213.099 61.1076 212.929 61.1534C212.929 61.1534 212.7 61.1534 212.654 61.1861C212.608 61.2188 212.589 61.1272 212.55 61.1403Z" fill="#221F1F"/>
<path d="M212.844 59.9229C212.792 59.9229 212.779 59.8575 212.792 59.7724C212.8 59.7377 212.821 59.7074 212.851 59.6873C212.885 59.6807 212.921 59.6807 212.955 59.6873L213.309 59.8575C213.392 59.8954 213.471 59.9415 213.545 59.9949L214.016 60.3026C214.052 60.3247 214.085 60.351 214.114 60.3811C214.22 60.477 214.336 60.5605 214.461 60.6298L214.526 60.6626C214.667 60.7359 214.8 60.8213 214.926 60.9178L215.207 61.1666C215.207 61.1666 215.207 61.1666 215.207 61.2058C215.207 61.2451 215.259 61.2647 215.286 61.2909L215.41 61.3957C215.43 61.416 215.446 61.4406 215.456 61.4677C215.456 61.4677 215.456 61.52 215.423 61.52C215.39 61.52 215.423 61.52 215.423 61.5658C215.308 61.5416 215.196 61.5043 215.089 61.4546L214.644 61.1993C214.644 61.1993 214.605 61.1666 214.585 61.1535C214.566 61.1404 214.265 60.9702 214.251 60.9571C214.184 60.923 214.124 60.8763 214.075 60.8197C214.064 60.8169 214.053 60.8169 214.042 60.8197C213.931 60.7542 213.833 60.6757 213.728 60.6037L213.564 60.4924C213.433 60.4138 213.315 60.3157 213.178 60.2371C213.178 60.2371 213.027 60.0997 212.988 60.08C212.949 60.0604 212.87 59.9229 212.844 59.9229Z" fill="#221F1F"/>
<path d="M213.413 61.9389C213.413 61.9913 213.348 61.9978 213.263 61.9782C213.178 61.9586 213.178 61.9324 213.184 61.9127C213.181 61.8801 213.181 61.8472 213.184 61.8146C213.237 61.7025 213.296 61.5933 213.361 61.4873C213.403 61.4114 213.451 61.3391 213.505 61.2713L213.819 60.8458C213.842 60.8143 213.868 60.7857 213.898 60.7607C213.995 60.669 214.081 60.5657 214.153 60.4531C214.153 60.4531 214.153 60.4138 214.153 60.3942C214.228 60.266 214.316 60.1454 214.415 60.0342L214.67 59.7855C214.67 59.7855 214.67 59.7855 214.709 59.7855C214.745 59.7727 214.776 59.7471 214.794 59.7135L214.938 59.5891H215.017C215.017 59.5891 215.069 59.5891 215.063 59.5891C215.056 59.5891 215.063 59.5891 215.109 59.6284C215.082 59.7373 215.042 59.8428 214.991 59.9426C214.991 59.9426 214.749 60.3026 214.729 60.3418L214.677 60.3942C214.677 60.3942 214.487 60.6887 214.474 60.7018C214.461 60.7149 214.402 60.8197 214.336 60.8589C214.336 60.8589 214.186 61.0487 214.107 61.1404C214.029 61.232 214.035 61.2386 213.996 61.2909C213.911 61.4087 213.813 61.5135 213.734 61.6378C213.734 61.6378 213.597 61.7753 213.577 61.808C213.557 61.8407 213.42 61.9193 213.413 61.9389Z" fill="#221F1F"/>
<path d="M225.502 70.5789C225.502 70.5462 225.502 70.5134 225.541 70.4807C225.564 70.4716 225.59 70.4716 225.613 70.4807L225.659 70.5331C225.659 70.5331 225.724 70.7164 225.751 70.7753C225.77 70.8353 225.785 70.8965 225.796 70.9585C225.796 71.0764 225.849 71.2007 225.868 71.3185C225.872 71.3468 225.872 71.3753 225.868 71.4036C225.874 71.4988 225.89 71.5931 225.914 71.6851C225.911 71.7002 225.911 71.7158 225.914 71.7309C225.947 71.8313 225.971 71.9342 225.986 72.0385C225.986 72.1171 225.986 72.2022 225.986 72.2873C225.986 72.3724 225.986 72.2873 225.986 72.32C225.986 72.3527 225.986 72.3724 225.986 72.3985C225.989 72.4334 225.989 72.4684 225.986 72.5033C225.986 72.5033 225.986 72.5425 225.986 72.5622C225.986 72.5818 225.947 72.5622 225.94 72.5622C225.902 72.4944 225.867 72.4244 225.836 72.3527C225.836 72.3527 225.757 72.0582 225.751 72.0254C225.748 72.0081 225.748 71.9904 225.751 71.9731C225.751 71.9731 225.685 71.7309 225.685 71.7244C225.676 71.6746 225.676 71.6235 225.685 71.5738C225.685 71.4887 225.685 71.4102 225.646 71.3251C225.607 71.24 225.646 71.24 225.646 71.1942C225.649 71.1835 225.649 71.1721 225.646 71.1614C225.646 71.0633 225.646 70.9585 225.587 70.8604C225.59 70.8058 225.59 70.7512 225.587 70.6967C225.587 70.6967 225.508 70.592 225.502 70.5789Z" fill="#221F1F"/>
<path d="M224.828 71.7832C224.828 71.7832 224.762 71.7832 224.729 71.7439C224.72 71.7208 224.72 71.6951 224.729 71.6719L224.782 71.6261L225.037 71.5345L225.22 71.4886L225.6 71.4101H225.685C225.785 71.4044 225.883 71.3891 225.98 71.3643C225.98 71.3643 225.98 71.3643 226.025 71.3643C226.131 71.3343 226.238 71.3124 226.346 71.2988H226.601H226.641C226.667 71.3052 226.694 71.3052 226.719 71.2988H226.831H226.889V71.3381C226.889 71.3381 226.889 71.3381 226.889 71.3774L226.667 71.4821L226.333 71.5737H226.274L226.019 71.6392C225.969 71.6456 225.918 71.6456 225.868 71.6392C225.782 71.6613 225.695 71.6767 225.607 71.685L225.476 71.7177H225.423C225.319 71.7177 225.214 71.7505 225.109 71.7832C225.052 71.78 224.996 71.78 224.939 71.7832C224.939 71.7832 224.841 71.7766 224.828 71.7832Z" fill="#221F1F"/>
<path d="M225.023 71.037C225.023 71.037 224.984 70.9912 225.023 70.9388C225.063 70.8864 225.023 70.8799 225.069 70.8799H225.128L225.351 70.9846C225.403 71.0079 225.454 71.0364 225.501 71.0697L225.789 71.253L225.848 71.3053C225.914 71.3613 225.984 71.4117 226.057 71.4559H226.097C226.183 71.5035 226.266 71.556 226.345 71.613L226.516 71.7701C226.518 71.7827 226.524 71.7946 226.532 71.8048C226.54 71.815 226.55 71.8233 226.561 71.829C226.589 71.8472 226.613 71.8693 226.633 71.8944C226.633 71.8944 226.633 71.8944 226.633 71.9402C226.633 71.9861 226.633 71.973 226.633 71.973C226.633 71.973 226.633 71.973 226.633 72.0057C226.562 71.9911 226.491 71.9691 226.424 71.9402L226.156 71.7897C226.156 71.7897 226.156 71.7897 226.116 71.757L225.907 71.6392C225.868 71.6165 225.832 71.5878 225.802 71.5541C225.734 71.5142 225.669 71.4705 225.606 71.4232L225.508 71.3577C225.429 71.3053 225.357 71.2464 225.272 71.2006C225.187 71.1548 225.18 71.1155 225.154 71.1024C225.128 71.0893 225.023 71.037 225.023 71.037Z" fill="#221F1F"/>
<path d="M225.366 72.2743C225.366 72.307 225.32 72.307 225.268 72.2743C225.246 72.2643 225.228 72.2484 225.215 72.2285C225.212 72.2068 225.212 72.1847 225.215 72.163C225.215 72.163 225.294 72.0125 225.32 71.9601C225.347 71.9139 225.378 71.8701 225.412 71.8292L225.602 71.5674L225.654 71.515C225.712 71.4564 225.764 71.3929 225.811 71.3252C225.811 71.3252 225.811 71.3252 225.811 71.2859C225.858 71.2062 225.912 71.1316 225.975 71.0634L226.132 70.9128C226.153 70.9053 226.171 70.8916 226.184 70.8736L226.25 70.8081H226.295C226.279 70.874 226.255 70.9377 226.223 70.9979C226.223 70.9979 226.079 71.2205 226.066 71.2467C226.069 71.2574 226.069 71.2686 226.066 71.2794L225.942 71.4692C225.921 71.5056 225.892 71.5369 225.857 71.5608C225.811 71.6263 225.759 71.6787 225.713 71.7376C225.687 71.7653 225.665 71.7961 225.647 71.8292C225.595 71.9077 225.53 71.9732 225.484 72.0452C225.438 72.1172 225.399 72.1303 225.386 72.1499C225.372 72.1696 225.366 72.2612 225.366 72.2743Z" fill="#221F1F"/>
<path d="M160.041 69.8981C160.041 69.8588 160.041 69.813 160.1 69.7672C160.159 69.7214 160.185 69.7672 160.192 69.7672C160.217 69.7856 160.239 69.8076 160.257 69.8326C160.257 69.8326 160.342 70.0814 160.375 70.1599C160.401 70.2368 160.42 70.3156 160.434 70.3956C160.434 70.5592 160.506 70.7163 160.538 70.8799C160.538 70.9126 160.538 70.9519 160.538 70.9846C160.541 71.1111 160.561 71.2366 160.597 71.3577C160.591 71.3768 160.591 71.3975 160.597 71.4166C160.636 71.5523 160.666 71.69 160.689 71.829C160.689 71.9403 160.689 72.045 160.689 72.1563C160.692 72.1736 160.692 72.1913 160.689 72.2086C160.689 72.2086 160.689 72.2741 160.689 72.3068C160.692 72.3548 160.692 72.4029 160.689 72.4508C160.692 72.4747 160.692 72.4989 160.689 72.5228C160.689 72.5228 160.643 72.5228 160.637 72.5228C160.63 72.5228 160.637 72.5228 160.584 72.5228C160.527 72.4351 160.481 72.3406 160.447 72.2414C160.447 72.2414 160.342 71.8552 160.329 71.8094C160.326 71.7877 160.326 71.7656 160.329 71.7439C160.329 71.7439 160.237 71.4232 160.237 71.4166C160.228 71.3516 160.228 71.2854 160.237 71.2203C160.237 71.2203 160.237 71.2203 160.237 71.181C160.237 71.0697 160.198 70.9585 160.178 70.8472C160.171 70.7899 160.16 70.7331 160.146 70.677C160.149 70.6619 160.149 70.6462 160.146 70.6312C160.146 70.5003 160.1 70.3694 160.061 70.2385C160.021 70.1076 160.061 70.0552 160.061 70.0159C160.061 69.9766 160.054 69.9112 160.041 69.8981Z" fill="#221F1F"/>
<path d="M159.151 71.5019C159.112 71.5019 159.066 71.5019 159.02 71.443C158.975 71.3841 159.02 71.3579 159.02 71.3514C159.039 71.3264 159.061 71.3043 159.086 71.2859L159.426 71.1681C159.507 71.1394 159.59 71.1175 159.675 71.1026L160.172 70.9979H160.29C160.421 70.989 160.55 70.9671 160.676 70.9325C160.696 70.9381 160.716 70.9381 160.735 70.9325C160.875 70.8912 161.017 70.8606 161.161 70.8408H161.501C161.501 70.8408 161.534 70.8408 161.553 70.8408C161.587 70.854 161.625 70.854 161.658 70.8408H161.809H161.881C161.881 70.8408 161.881 70.8866 161.881 70.8932C161.881 70.8997 161.881 70.9259 161.881 70.939C161.789 70.9948 161.693 71.043 161.593 71.083L161.141 71.2008H161.069L160.729 71.2925C160.661 71.3024 160.593 71.3024 160.526 71.2925C160.526 71.2925 160.526 71.2925 160.487 71.2925C160.372 71.3206 160.256 71.3424 160.14 71.3579L159.963 71.3906H159.891C159.753 71.4234 159.616 71.4365 159.479 71.4757H159.256C159.256 71.4757 159.171 71.4888 159.151 71.5019Z" fill="#221F1F"/>
<path d="M159.387 70.5003C159.341 70.5003 159.335 70.4479 159.348 70.3759C159.361 70.3039 159.387 70.2974 159.4 70.2974H159.485L159.78 70.4348L159.97 70.5461L160.356 70.7948L160.434 70.8603C160.521 70.9373 160.615 71.0053 160.716 71.0632C160.716 71.0632 160.748 71.0632 160.768 71.0632C160.884 71.1212 160.994 71.1914 161.095 71.2726C161.167 71.3446 161.246 71.4101 161.324 71.4755C161.403 71.541 161.324 71.4755 161.324 71.5083C161.337 71.5391 161.36 71.5646 161.39 71.5803C161.426 71.6051 161.459 71.6336 161.488 71.6654C161.505 71.6847 161.518 71.7068 161.527 71.7308C161.527 71.7308 161.527 71.7766 161.495 71.7766C161.462 71.7766 161.495 71.7766 161.495 71.8159C161.399 71.7948 161.305 71.7663 161.213 71.7308C161.213 71.7308 160.879 71.5803 160.879 71.5672C160.861 71.5554 160.845 71.5398 160.834 71.5214L160.526 71.3708C160.473 71.3386 160.424 71.2989 160.382 71.253C160.293 71.1979 160.207 71.1366 160.127 71.0697L159.996 70.9846C159.996 70.9846 159.793 70.8406 159.682 70.7817C159.57 70.7228 159.557 70.6639 159.524 70.6508C159.492 70.6377 159.407 70.5068 159.387 70.5003Z" fill="#221F1F"/>
<path d="M159.858 72.1497C159.858 72.1889 159.806 72.1955 159.734 72.1497C159.704 72.1395 159.678 72.1185 159.662 72.0908V72.0253C159.662 72.0253 159.773 71.8224 159.806 71.7569C159.838 71.6932 159.877 71.6338 159.924 71.5802L160.179 71.2333C160.197 71.2063 160.22 71.182 160.245 71.1613C160.323 71.0839 160.394 70.9983 160.454 70.906C160.46 70.8912 160.46 70.875 160.454 70.8602C160.516 70.7549 160.588 70.6562 160.67 70.5657L160.88 70.3627C160.89 70.3602 160.902 70.3602 160.912 70.3627C160.952 70.3627 160.965 70.33 160.984 70.3104L161.069 70.2188H161.135C161.135 70.2188 161.181 70.2188 161.181 70.2515C161.181 70.2842 161.181 70.2515 161.213 70.2842C161.187 70.3738 161.154 70.4613 161.115 70.546C161.115 70.546 160.925 70.834 160.906 70.8733L160.86 70.9126L160.703 71.1678C160.669 71.214 160.629 71.2557 160.585 71.2922C160.528 71.3717 160.467 71.4482 160.402 71.5213C160.369 71.554 160.343 71.5998 160.31 71.6391C160.245 71.7373 160.16 71.8224 160.101 71.9271C160.042 72.0318 159.983 72.0384 159.97 72.0646C159.957 72.0907 159.865 72.13 159.858 72.1497Z" fill="#221F1F"/>
<path d="M176.929 108.589H176.334H176.026H175.856C175.77 108.58 175.684 108.564 175.601 108.543C175.433 108.524 175.272 108.463 175.133 108.366C174.995 108.269 174.883 108.138 174.809 107.986C174.715 107.865 174.644 107.727 174.599 107.581C174.559 107.474 174.527 107.364 174.501 107.253C174.416 106.961 174.348 106.663 174.298 106.363C174.238 105.857 174.203 105.348 174.193 104.838C174.193 104.334 174.193 103.83 174.246 103.333C174.298 102.835 174.246 102.442 174.246 102.023C174.221 101.451 174.292 100.878 174.455 100.328C174.521 100.151 174.71 100.21 174.894 100.381C175.121 100.573 175.268 100.844 175.306 101.14C175.358 102.239 175.358 103.346 175.306 104.465C175.29 105.139 175.347 105.813 175.476 106.474C175.476 106.658 175.542 106.828 175.581 106.998C175.599 107.073 175.621 107.148 175.646 107.221C175.656 107.259 175.67 107.296 175.686 107.332C175.717 107.365 175.758 107.388 175.803 107.395C175.848 107.402 175.895 107.393 175.934 107.371C176.099 107.394 176.265 107.408 176.432 107.41C176.897 107.41 177.368 107.45 177.839 107.45C178.553 107.45 179.273 107.41 179.98 107.338C180.529 107.286 181.06 107.155 181.596 107.05L181.95 106.972C182.395 106.9 182.545 106.972 182.67 107.286C182.706 107.353 182.736 107.423 182.761 107.495C182.827 107.725 182.663 107.947 182.342 108.065C181.351 108.342 180.328 108.494 179.299 108.517C178.52 108.556 177.741 108.517 176.949 108.608L176.929 108.589Z" fill="#231F20"/>
<path d="M190.045 108.713C189.81 108.713 189.574 108.713 189.325 108.713H188.919C188.717 108.68 188.518 108.629 188.324 108.562C188.223 108.476 188.127 108.384 188.036 108.287L187.813 107.947C187.762 107.849 187.72 107.746 187.689 107.639C187.658 107.554 187.631 107.466 187.61 107.377C187.528 107.087 187.462 106.792 187.414 106.494C187.351 105.988 187.314 105.479 187.303 104.969C187.303 104.458 187.303 103.961 187.355 103.457C187.407 102.953 187.355 102.573 187.355 102.148C187.327 101.575 187.398 101.001 187.565 100.452C187.623 100.282 187.813 100.335 188.003 100.511C188.227 100.707 188.374 100.976 188.415 101.271C188.468 102.37 188.468 103.47 188.415 104.596C188.398 105.269 188.452 105.943 188.579 106.605C188.611 106.826 188.657 107.045 188.717 107.26C188.756 107.364 188.762 107.423 188.782 107.456C188.798 107.501 188.825 107.542 188.861 107.574C188.925 107.601 188.994 107.614 189.063 107.613C189.194 107.613 189.338 107.613 189.482 107.613C189.941 107.613 190.412 107.652 190.883 107.613C191.597 107.613 192.317 107.613 193.023 107.508C193.573 107.449 194.11 107.325 194.647 107.214C194.765 107.214 194.876 107.155 195 107.142C195.439 107.07 195.589 107.142 195.72 107.456C195.752 107.522 195.781 107.59 195.805 107.659C195.877 107.895 195.714 108.117 195.386 108.235C194.395 108.51 193.372 108.66 192.343 108.68C191.564 108.719 190.785 108.68 189.999 108.778L190.045 108.713Z" fill="#231F20"/>
<path d="M202.922 108.523H202.326H202.018H201.842C201.757 108.519 201.674 108.506 201.593 108.484C201.42 108.457 201.257 108.387 201.119 108.279C200.982 108.171 200.874 108.03 200.807 107.868C200.713 107.747 200.642 107.609 200.598 107.463C200.559 107.355 200.526 107.246 200.5 107.135C200.415 106.843 200.347 106.546 200.297 106.245C200.235 105.75 200.198 105.252 200.186 104.753C200.186 104.249 200.186 103.745 200.231 103.247C200.277 102.75 200.231 102.357 200.231 101.938C200.203 101.34 200.283 100.741 200.467 100.171C200.526 99.9942 200.716 100.053 200.906 100.223C201.131 100.418 201.277 100.688 201.318 100.983C201.37 102.082 201.37 103.188 201.318 104.308C201.302 104.982 201.359 105.655 201.488 106.317C201.51 106.491 201.542 106.664 201.586 106.834C201.586 106.919 201.639 106.991 201.658 107.063C201.669 107.101 201.682 107.138 201.698 107.175C201.714 107.21 201.74 107.239 201.772 107.26C201.804 107.281 201.842 107.292 201.881 107.292C201.966 107.292 202.215 107.292 202.385 107.332C202.843 107.332 203.321 107.371 203.792 107.371C204.506 107.371 205.226 107.332 205.932 107.26C206.482 107.207 207.012 107.076 207.549 106.972C207.667 106.972 207.785 106.913 207.903 106.893C208.348 106.821 208.492 106.893 208.623 107.207C208.657 107.272 208.685 107.34 208.708 107.41C208.78 107.646 208.616 107.868 208.295 107.986C207.301 108.26 206.277 108.412 205.245 108.438C204.473 108.438 203.694 108.438 202.902 108.529L202.922 108.523Z" fill="#231F20"/>
<path d="M203.615 126.078H203.019H202.718H202.541C202.455 126.074 202.37 126.061 202.286 126.038C202.119 126.016 201.96 125.954 201.822 125.857C201.684 125.76 201.572 125.632 201.494 125.482C201.4 125.358 201.33 125.218 201.285 125.07C201.244 124.963 201.211 124.854 201.187 124.742C201.102 124.452 201.034 124.157 200.984 123.859C200.923 123.352 200.888 122.843 200.879 122.334C200.879 121.823 200.879 121.326 200.931 120.822C200.984 120.318 200.931 119.938 200.931 119.513C200.9 118.94 200.971 118.366 201.141 117.817C201.2 117.647 201.389 117.699 201.579 117.876C201.803 118.071 201.948 118.341 201.985 118.635C202.037 119.735 202.037 120.835 201.985 121.961C201.969 122.635 202.026 123.308 202.155 123.97C202.155 124.153 202.221 124.317 202.26 124.487C202.276 124.563 202.298 124.637 202.325 124.71C202.336 124.75 202.349 124.789 202.365 124.827C202.383 124.863 202.41 124.892 202.443 124.913C202.477 124.934 202.515 124.945 202.555 124.945C202.64 124.945 202.882 124.978 203.052 124.985C203.517 124.985 203.988 125.024 204.459 124.985C205.173 124.985 205.893 124.985 206.6 124.88C207.149 124.821 207.68 124.697 208.216 124.585C208.341 124.585 208.452 124.526 208.57 124.513C209.015 124.441 209.165 124.513 209.296 124.827C209.329 124.893 209.357 124.961 209.381 125.03C209.447 125.266 209.29 125.489 208.963 125.606C207.971 125.882 206.948 126.031 205.919 126.051C205.14 126.091 204.361 126.051 203.576 126.15L203.615 126.078Z" fill="#231F20"/>
<path d="M190.334 126.49H189.614H189.208C189.005 126.462 188.806 126.414 188.613 126.346C188.51 126.259 188.414 126.165 188.325 126.065L188.102 125.731C188.05 125.631 188.009 125.525 187.978 125.417C187.946 125.333 187.92 125.248 187.899 125.161C187.821 124.854 187.742 124.566 187.696 124.271C187.631 123.754 187.611 123.25 187.591 122.746C187.572 122.242 187.591 121.738 187.644 121.241C187.696 120.743 187.644 120.351 187.644 119.932C187.616 119.359 187.687 118.785 187.853 118.236C187.912 118.06 188.102 118.119 188.292 118.289C188.515 118.485 188.661 118.754 188.704 119.048C188.757 120.148 188.757 121.254 188.704 122.373C188.691 123.047 188.748 123.72 188.874 124.383C188.907 124.603 188.953 124.822 189.012 125.037C189.028 125.104 189.05 125.17 189.077 125.233C189.092 125.278 189.119 125.316 189.156 125.345C189.221 125.371 189.289 125.386 189.359 125.391H189.771C190.236 125.391 190.707 125.43 191.178 125.43C191.892 125.43 192.612 125.391 193.319 125.319C193.869 125.266 194.405 125.135 194.942 125.031C195.06 125.031 195.171 124.972 195.295 124.952C195.734 124.88 195.885 124.952 196.015 125.266C196.015 125.338 196.081 125.404 196.101 125.476C196.173 125.705 196.009 125.927 195.682 126.045C194.69 126.323 193.667 126.475 192.638 126.497C191.859 126.536 191.08 126.497 190.295 126.588L190.334 126.49Z" fill="#231F20"/>
<path d="M177.197 126.477H176.601H176.3H176.123C176.037 126.473 175.951 126.46 175.868 126.438C175.701 126.416 175.542 126.353 175.404 126.257C175.266 126.16 175.153 126.031 175.076 125.881C174.982 125.758 174.911 125.618 174.866 125.469C174.826 125.363 174.793 125.253 174.768 125.142C174.683 124.851 174.616 124.556 174.565 124.258C174.5 123.741 174.48 123.237 174.461 122.727C174.441 122.216 174.461 121.719 174.513 121.221C174.565 120.724 174.513 120.331 174.513 119.912C174.482 119.339 174.553 118.765 174.722 118.217C174.781 118.047 174.971 118.099 175.161 118.269C175.384 118.467 175.528 118.739 175.567 119.035C175.626 120.128 175.619 121.234 175.567 122.353C175.551 123.03 175.608 123.706 175.737 124.369C175.737 124.553 175.802 124.716 175.842 124.887C175.858 124.962 175.88 125.037 175.907 125.109C175.917 125.15 175.933 125.19 175.953 125.227C175.969 125.262 175.995 125.292 176.027 125.313C176.06 125.333 176.098 125.345 176.136 125.345C176.221 125.345 176.47 125.345 176.634 125.377C177.098 125.377 177.57 125.417 178.041 125.417C178.754 125.417 179.474 125.417 180.181 125.312C180.731 125.253 181.261 125.129 181.805 125.017C181.922 125.017 182.034 124.959 182.152 124.945C182.597 124.873 182.747 124.945 182.878 125.253C182.878 125.325 182.944 125.391 182.963 125.463C183.029 125.698 182.872 125.921 182.544 126.039C181.552 126.311 180.529 126.46 179.501 126.484C178.722 126.523 177.943 126.484 177.157 126.582L177.197 126.477Z" fill="#231F20"/>
<path d="M215.926 108.254C215.926 105.741 215.926 103.221 215.828 100.701C215.828 99.7846 215.73 98.8682 215.704 97.9453C215.616 94.7075 215.498 91.4675 215.35 88.2253C215.278 86.7853 215.154 85.3453 215.029 83.9249L214.794 81.1889C214.737 80.261 214.766 79.3299 214.879 78.4071C214.931 77.818 215.121 77.9031 215.409 78.4071C215.546 78.6427 215.736 78.97 215.946 79.3693C216.155 79.8145 216.305 80.2855 216.391 80.77C216.81 84.5106 217.028 88.2709 217.045 92.0347C217.045 94.306 217.261 96.6558 217.346 98.9664C217.432 101.513 217.484 104.065 217.51 106.611V111.318C217.51 112.509 217.471 113.7 217.458 114.891L217.36 118.446C217.274 120.285 217.307 122.091 217.15 123.918C217.15 124.317 217.15 124.716 217.072 125.122C216.836 126.627 216.653 127.086 216.175 127.315C216.078 127.377 215.975 127.427 215.867 127.465C215.54 127.537 215.357 126.876 215.448 125.822C215.658 122.661 215.815 119.277 215.861 115.899C215.906 113.379 215.933 110.84 215.893 108.307L215.926 108.254Z" fill="#231F20"/>
<path d="M167.32 114.388C166.875 106.671 166.737 98.9536 166.816 91.2366C166.849 88.422 166.868 85.6075 167.012 82.7929C167.102 80.2895 167.32 77.7924 167.667 75.3115C167.719 74.9973 167.798 74.6569 167.857 74.3558C167.936 74.0197 168.039 73.6894 168.164 73.3675C168.412 72.7309 168.74 72.1282 169.139 71.574C169.966 70.4736 171.084 69.6259 172.366 69.126C173.579 68.66 174.85 68.3627 176.143 68.2424C177.406 68.0984 178.65 68.046 179.874 67.9675C182.361 67.7973 184.849 67.7776 187.323 67.7515C191.721 67.7515 196.139 67.7515 200.505 67.9086C203.328 67.9635 206.147 68.1645 208.949 68.5107C210.423 68.6861 211.835 69.2039 213.073 70.0227C213.697 70.4589 214.223 71.0208 214.617 71.6722C215.006 72.3182 215.264 73.0343 215.377 73.7798C215.413 74.1105 215.413 74.4441 215.377 74.7747C215.377 74.9842 215.318 75.0693 215.265 75.0627C215.213 75.0562 215.062 74.598 214.814 73.9107C214.498 73.011 213.954 72.2083 213.236 71.5806C212.204 70.7861 210.988 70.2639 209.702 70.062C206.925 69.6681 204.127 69.4495 201.323 69.4075C198.483 69.3027 195.635 69.2569 192.782 69.2373C187.09 69.1239 181.396 69.3161 175.724 69.8133C174.124 69.9571 172.593 70.5316 171.293 71.4758C170.709 71.9842 170.225 72.5968 169.866 73.2824C169.701 73.6409 169.561 74.0106 169.447 74.3886C169.389 74.5819 169.343 74.7786 169.31 74.9776C169.277 75.1871 169.225 75.3835 169.198 75.5995C168.792 79.0761 168.574 82.5721 168.544 86.0722C168.347 93.7893 168.446 101.539 168.786 109.263C169.015 114.021 169.31 118.78 169.925 123.473C170.14 125.238 170.468 126.987 170.907 128.709C171.004 129.084 171.144 129.447 171.326 129.789C171.558 130.08 171.848 130.321 172.177 130.496C172.933 130.897 173.735 131.204 174.566 131.413C178.041 132.204 181.587 132.642 185.15 132.722C190.64 132.911 196.138 132.769 201.611 132.296C202.816 132.198 203.987 132.067 205.192 131.943C209.669 131.465 211.004 131.288 212.038 131.452C212.274 131.491 212.582 131.452 212.752 131.498C212.922 131.543 212.922 131.602 212.791 131.773C212.567 132.017 212.295 132.213 211.993 132.349C210.795 132.866 209.534 133.221 208.242 133.402C203.214 134.178 198.137 134.592 193.05 134.639C190.432 134.685 187.859 134.639 185.235 134.541C182.59 134.436 179.953 134.19 177.334 133.802C176.336 133.648 175.347 133.445 174.369 133.193C173.321 132.954 172.308 132.585 171.352 132.093C170.754 131.776 170.235 131.329 169.833 130.784C169.713 130.61 169.613 130.423 169.532 130.228C169.467 130.064 169.441 129.959 169.395 129.829C169.31 129.573 169.211 129.311 169.153 129.063C168.884 128.086 168.665 127.097 168.498 126.098C167.843 122.17 167.549 118.282 167.281 114.388H167.32Z" fill="#231F20"/>
<path d="M192.395 135.582C190.183 135.582 187.97 135.615 185.752 135.582C184.946 135.582 184.135 135.582 183.323 135.536C180.467 135.406 177.623 135.074 174.814 134.541C173.56 134.303 172.319 133.999 171.096 133.631C169.49 133.22 167.994 132.457 166.717 131.399C166.331 131.046 166.534 130.922 167.032 130.948C167.341 130.965 167.648 131.013 167.948 131.092C168.342 131.182 168.725 131.311 169.093 131.478C172.046 132.666 175.146 133.448 178.309 133.802C180.293 134.034 182.289 134.141 184.285 134.122C186.485 134.162 188.697 134.122 190.909 134.122C192.271 134.096 193.634 134.059 195 134.011L201.199 133.782C202.802 133.716 204.367 133.572 205.984 133.566C206.337 133.546 206.691 133.546 207.044 133.566C207.524 133.587 207.998 133.677 208.451 133.834C208.697 133.939 208.893 134.133 209.001 134.378C209.051 134.476 209.09 134.579 209.119 134.685C209.165 135.006 208.615 135.15 207.705 135.17C204.989 135.215 202.043 135.333 199.078 135.438L192.415 135.647L192.395 135.582Z" fill="#231F20"/>
<path d="M172.707 133.258L171.502 132.859C171.358 132.813 171.208 132.806 171.057 132.754C170.547 132.571 170.036 132.381 169.532 132.152C169.31 132.06 169.081 131.988 168.878 131.916C168.561 131.855 168.266 131.713 168.02 131.504C167.948 131.432 168.06 131.249 168.23 131.078C168.4 130.908 168.603 130.751 168.753 130.777C169.328 130.86 169.889 131.019 170.422 131.249C170.768 131.382 171.128 131.47 171.496 131.51L172.694 131.798C172.942 131.857 173.185 131.916 173.433 131.962C173.807 132.053 174.185 132.125 174.566 132.178C174.87 132.182 175.174 132.167 175.476 132.132C175.543 132.129 175.611 132.129 175.678 132.132C175.927 132.132 175.986 132.263 175.966 132.662C175.973 132.752 175.973 132.841 175.966 132.931C175.969 133.053 175.937 133.174 175.875 133.279C175.813 133.384 175.722 133.47 175.613 133.526C175.076 133.675 174.511 133.698 173.964 133.592C173.551 133.521 173.142 133.427 172.74 133.31L172.707 133.258Z" fill="#231F20"/>
<path d="M192.154 74.1854C194.362 74.1854 196.57 74.2029 198.778 74.2378C199.59 74.2378 200.395 74.2378 201.2 74.2378C202.627 74.3032 204.054 74.3883 205.494 74.5585C206.235 74.6372 206.968 74.7885 207.68 75.0101L207.974 75.1345C208.09 75.1785 208.198 75.2403 208.295 75.3178C208.487 75.4599 208.648 75.6404 208.766 75.848C208.878 76.0247 208.95 76.2014 209.048 76.3781L209.244 76.9214C209.614 78.1671 209.834 79.4526 209.899 80.7505C210.034 82.3927 209.866 84.0459 209.401 85.6269C209.179 86.1047 209.074 85.9803 208.963 85.5221C208.812 84.83 208.742 84.1228 208.753 83.4145C208.753 82.6225 208.753 81.8305 208.681 81.0451C208.648 80.2638 208.565 79.4855 208.433 78.7149C208.328 77.9952 208.121 77.2943 207.817 76.6334C207.785 76.5702 207.745 76.5109 207.699 76.4567L207.641 76.3716L207.837 76.1883L207.778 76.2276C207.719 76.28 207.621 76.3847 207.641 76.3585C207.66 76.3323 207.47 76.28 207.359 76.2341C207 76.1323 206.635 76.0515 206.266 75.992C204.299 75.7216 202.314 75.6013 200.329 75.632C198.123 75.5861 195.911 75.5796 193.692 75.5927L189.601 75.6385C187.533 75.6778 185.458 75.704 183.409 75.7956C181.812 75.8611 180.254 76.0181 178.67 76.1098C178.323 76.1098 178.016 76.1687 177.63 76.1752C176.321 76.2211 175.882 76.0443 175.62 75.6712C175.555 75.5907 175.501 75.5028 175.457 75.4094C175.371 75.1214 175.875 74.9316 176.811 74.8138C179.587 74.5454 182.565 74.3818 185.543 74.2836C187.762 74.2116 189.987 74.1723 192.213 74.1331L192.154 74.1854Z" fill="#231F20"/>
<path d="M173.682 84.5926L173.82 82.5308C173.82 82.2821 173.82 82.0268 173.82 81.7781C173.918 80.9075 174.009 80.0304 174.108 79.1599C174.147 78.7737 174.167 78.3875 174.186 77.9948C174.186 77.4838 174.266 76.9759 174.422 76.4893C174.513 76.2733 174.618 76.4239 174.743 76.5613C174.909 76.7418 175.012 76.9715 175.037 77.2159C175.064 78.2201 175.009 79.2249 174.873 80.2203C174.788 80.829 174.821 81.4573 174.795 82.0792L174.743 84.1213C174.743 84.5403 174.743 84.9592 174.743 85.3715C174.743 86.0261 174.743 86.6413 174.841 87.2697C174.908 87.7475 175.008 88.2199 175.142 88.6835C175.142 88.7883 175.207 88.8864 175.227 88.9912C175.299 89.3773 175.227 89.5148 174.945 89.6457C174.883 89.6816 174.817 89.7123 174.749 89.7373C174.527 89.8159 174.304 89.6915 174.173 89.4035C173.84 88.533 173.656 87.6124 173.63 86.6806C173.597 85.9803 173.63 85.2799 173.63 84.5861L173.682 84.5926Z" fill="#231F20"/>
<path d="M195.386 91.0073L190.556 91.0924C189.967 91.0924 189.384 91.1447 188.789 91.1382C186.746 91.0793 184.704 91.256 182.616 91.3607C181.693 91.4066 180.764 91.4524 179.841 91.4458C178.642 91.4619 177.451 91.2394 176.339 90.7913C175.999 90.6538 176.071 90.608 176.392 90.5884C176.555 90.5884 176.778 90.5884 177.046 90.5884C177.349 90.5645 177.653 90.5645 177.956 90.5884C178.531 90.631 179.108 90.6441 179.684 90.6276C180.266 90.6276 180.849 90.6277 181.432 90.5884L184.999 90.3593L187.205 90.2022C187.578 90.2022 187.951 90.1564 188.33 90.1433L189.43 90.1106L194.261 89.8291L197.265 89.6982C198.77 89.6327 200.289 89.5935 201.788 89.5084C202.953 89.4429 204.092 89.2989 205.25 89.2269C205.499 89.2269 205.754 89.1746 206.01 89.1746C206.965 89.1746 207.273 89.3317 207.469 89.6393C207.517 89.7022 207.56 89.7677 207.6 89.8357C207.685 90.0189 207.293 90.2938 206.612 90.4117C204.501 90.6754 202.377 90.824 200.25 90.8567L195.393 91.0073H195.386Z" fill="#231F20"/>
<path d="M174.625 106.527C174.406 105.293 174.318 104.041 174.363 102.789C174.363 102.338 174.363 101.886 174.402 101.434C174.441 100.983 174.494 100.636 174.572 100.23L174.644 99.9157C174.683 99.7607 174.735 99.6095 174.801 99.464C174.878 99.3285 174.982 99.2106 175.107 99.1181C175.233 99.0257 175.376 98.9606 175.528 98.9273C175.942 98.8242 176.365 98.7628 176.791 98.7441C177.184 98.7441 177.577 98.6982 177.969 98.6851L180.044 98.6262C180.943 98.5566 181.848 98.6362 182.721 98.8619C183.055 99.0059 182.872 99.1499 182.623 99.2939C182.28 99.5091 181.889 99.6351 181.484 99.6604C179.769 99.7324 177.969 99.7717 176.307 99.9419C176.189 99.9419 176.071 99.9811 175.96 100.001C175.919 100.006 175.879 100.017 175.842 100.034C175.77 100.092 175.783 100.125 175.711 100.426C175.631 100.947 175.579 101.471 175.554 101.997C175.477 103.171 175.501 104.349 175.626 105.519C175.669 105.866 175.73 106.211 175.809 106.553C175.921 106.9 175.953 107.096 176.169 107.109C176.281 107.116 176.392 107.116 176.503 107.109H177.766C178.323 107.109 178.886 107.109 179.436 107.037C180.3 106.972 181.144 106.828 181.988 106.703C182.172 106.703 182.355 106.638 182.545 106.618C183.238 106.527 183.468 106.618 183.651 106.893C183.694 106.959 183.733 107.026 183.769 107.096C183.867 107.332 183.598 107.567 183.114 107.698C181.539 108.019 179.937 108.192 178.329 108.215C177.714 108.215 177.112 108.215 176.464 108.215H176.209L175.777 108.137C175.64 108.101 175.512 108.039 175.4 107.953C175.288 107.868 175.193 107.761 175.122 107.639C174.99 107.45 174.887 107.243 174.814 107.024C174.754 106.859 174.704 106.691 174.664 106.52L174.625 106.527Z" fill="#231F20"/>
<path d="M184.162 102.278C184.162 102.612 184.109 102.933 184.103 103.3C184.103 103.424 184.103 103.542 184.103 103.666C184.103 104.105 184.057 104.556 184.031 104.975C184.015 105.171 184.015 105.368 184.031 105.564C184.071 105.822 184.055 106.085 183.985 106.337C183.985 106.422 183.795 106.389 183.638 106.337C183.481 106.284 183.298 106.166 183.272 106.029C183.146 105.542 183.115 105.035 183.18 104.537C183.198 104.222 183.182 103.906 183.134 103.594C183.134 103.254 183.134 102.94 183.134 102.56C183.134 102.344 183.134 102.134 183.134 101.905C183.134 101.585 183.134 101.251 183.134 100.937C183.134 100.622 183.049 100.433 183.023 100.164C183.013 100.104 183.013 100.042 183.023 99.981C183.025 99.9338 183.037 99.8877 183.06 99.8462C183.083 99.8047 183.114 99.769 183.153 99.7417C183.192 99.7145 183.236 99.6966 183.283 99.6893C183.329 99.6819 183.377 99.6855 183.422 99.6996H183.579C183.73 99.748 183.861 99.8446 183.952 99.9745C184.059 100.155 184.118 100.36 184.123 100.57C184.149 100.787 184.162 101.006 184.162 101.225C184.162 101.565 184.162 101.879 184.162 102.239V102.278Z" fill="#231F20"/>
<path d="M187.716 106.33C187.494 105.097 187.406 103.844 187.454 102.593C187.454 102.141 187.454 101.689 187.493 101.238C187.493 100.95 187.552 100.655 187.605 100.361C187.605 100.217 187.657 100.066 187.69 99.9157L187.749 99.6735C187.781 99.5622 187.814 99.4509 187.853 99.3397C187.941 99.165 188.069 99.0141 188.227 98.9001C188.386 98.7861 188.57 98.7123 188.763 98.6851C189.024 98.6276 189.289 98.5883 189.555 98.5673C190.066 98.5149 190.563 98.4953 191.061 98.4822L193.129 98.4233C194.03 98.3533 194.937 98.4329 195.813 98.6589C196.146 98.8029 195.957 98.9469 195.714 99.0909C195.371 99.3062 194.98 99.4322 194.575 99.4575C192.861 99.5295 191.061 99.5622 189.398 99.7389C189.005 99.8175 188.933 99.7782 188.881 99.896L188.848 100.001C188.848 100.079 188.848 100.151 188.802 100.236C188.757 100.321 188.75 100.57 188.73 100.74C188.691 101.087 188.665 101.441 188.645 101.794C188.564 102.968 188.589 104.146 188.717 105.316C188.754 105.633 188.809 105.947 188.881 106.258C188.917 106.414 188.965 106.568 189.025 106.716C189.052 106.802 189.107 106.876 189.182 106.926C189.215 106.929 189.248 106.929 189.28 106.926C189.391 106.933 189.503 106.933 189.614 106.926H190.864C191.421 106.926 191.977 106.926 192.533 106.847C193.397 106.788 194.235 106.644 195.079 106.52L195.636 106.428C196.336 106.343 196.559 106.428 196.742 106.71C196.789 106.774 196.831 106.842 196.866 106.913C196.958 107.148 196.696 107.384 196.212 107.515C194.636 107.833 193.034 108.006 191.427 108.032C191.028 108.032 190.629 108.032 190.216 108.032H189.562H189.398C189.326 108.039 189.254 108.039 189.182 108.032C188.991 108.007 188.803 107.965 188.619 107.908C188.452 107.805 188.307 107.669 188.194 107.508C188.128 107.431 188.073 107.345 188.03 107.253C187.993 107.191 187.962 107.125 187.938 107.057C187.847 106.822 187.772 106.582 187.716 106.337V106.33Z" fill="#231F20"/>
<path d="M197.241 102.082C197.241 102.416 197.188 102.737 197.175 103.097C197.175 103.221 197.175 103.345 197.175 103.47C197.175 103.908 197.123 104.36 197.103 104.779C197.09 104.975 197.09 105.172 197.103 105.368C197.145 105.625 197.132 105.889 197.064 106.14C197.064 106.225 196.874 106.193 196.71 106.14C196.547 106.088 196.377 105.97 196.35 105.833C196.225 105.346 196.194 104.839 196.259 104.34C196.285 104.029 196.285 103.716 196.259 103.404C196.259 103.057 196.259 102.711 196.259 102.37C196.259 102.154 196.259 101.938 196.259 101.716C196.259 101.395 196.259 101.061 196.259 100.747C196.259 100.433 196.174 100.243 196.141 99.9745C196.138 99.9135 196.138 99.8523 196.141 99.7912C196.143 99.7433 196.155 99.6963 196.178 99.6542C196.201 99.612 196.234 99.5759 196.273 99.5485C196.313 99.5211 196.358 99.5034 196.405 99.4967C196.453 99.49 196.501 99.4945 196.547 99.5098H196.704C196.851 99.5586 196.979 99.6525 197.07 99.7782C197.175 99.9624 197.236 100.169 197.247 100.38C197.247 100.596 197.247 100.812 197.286 101.035C197.286 101.369 197.286 101.689 197.286 102.043L197.241 102.082Z" fill="#231F20"/>
<path d="M200.695 106.134C200.475 104.901 200.39 103.648 200.44 102.396C200.44 101.945 200.44 101.493 200.44 101.041C200.44 100.753 200.505 100.459 200.551 100.164C200.551 100.02 200.603 99.8698 200.636 99.7193L200.695 99.4836C200.734 99.3658 200.76 99.2546 200.8 99.1433C200.887 98.9678 201.017 98.8164 201.177 98.7023C201.336 98.5882 201.521 98.5149 201.716 98.4887C201.975 98.4318 202.237 98.3925 202.501 98.3709C203.012 98.3186 203.509 98.2989 204.007 98.2858L206.115 98.2073C207.014 98.1376 207.918 98.2172 208.792 98.4429C209.132 98.5869 208.942 98.7309 208.7 98.8749C208.354 99.09 207.961 99.2159 207.555 99.2415C205.84 99.3135 204.046 99.3527 202.377 99.5229C201.984 99.6015 201.912 99.5622 201.86 99.68C201.808 99.7978 201.86 99.7193 201.86 99.7847C201.86 99.8502 201.86 99.9418 201.808 100.02C201.755 100.099 201.755 100.354 201.736 100.524C201.696 100.871 201.677 101.225 201.651 101.578C201.576 102.752 201.6 103.93 201.723 105.1C201.765 105.447 201.827 105.793 201.906 106.134C202.017 106.481 202.056 106.677 202.272 106.69C202.383 106.697 202.495 106.697 202.606 106.69H203.85C204.413 106.69 204.969 106.657 205.525 106.618C206.383 106.553 207.227 106.409 208.072 106.284L208.628 106.193C209.322 106.108 209.551 106.193 209.734 106.474C209.773 106.546 209.826 106.612 209.859 106.677C209.95 106.913 209.682 107.148 209.171 107.279C207.596 107.6 205.994 107.773 204.387 107.796C203.771 107.796 203.169 107.796 202.521 107.796H202.266L201.834 107.718C201.559 107.644 201.324 107.466 201.179 107.22C201.048 107.031 200.944 106.824 200.872 106.605C200.813 106.428 200.76 106.265 200.721 106.101L200.695 106.134Z" fill="#231F20"/>
<path d="M210.219 101.886C210.219 102.22 210.173 102.541 210.16 102.907C210.16 103.031 210.16 103.149 210.16 103.274C210.16 103.712 210.108 104.164 210.082 104.583C210.069 104.779 210.069 104.976 210.082 105.172C210.125 105.429 210.109 105.693 210.036 105.944C210.036 106.029 209.853 105.997 209.689 105.944C209.525 105.892 209.355 105.774 209.322 105.637C209.199 105.149 209.17 104.642 209.237 104.144C209.254 103.832 209.24 103.518 209.198 103.208C209.198 102.868 209.198 102.554 209.198 102.174C209.198 101.958 209.198 101.742 209.198 101.519C209.198 101.199 209.198 100.865 209.198 100.551C209.198 100.237 209.12 100.047 209.087 99.7783C209.08 99.7174 209.08 99.656 209.087 99.5951C209.089 99.5479 209.101 99.5017 209.124 99.4602C209.147 99.4187 209.178 99.383 209.217 99.3558C209.256 99.3285 209.3 99.3106 209.347 99.3033C209.393 99.296 209.441 99.2995 209.486 99.3136H209.643C209.793 99.3603 209.924 99.4545 210.016 99.582C210.121 99.7662 210.182 99.9724 210.193 100.184C210.193 100.4 210.193 100.616 210.226 100.839C210.226 101.179 210.226 101.493 210.226 101.853L210.219 101.886Z" fill="#231F20"/>
<path d="M174.945 124.166C174.726 122.931 174.639 121.676 174.683 120.422C174.683 119.977 174.683 119.526 174.722 119.074C174.722 118.786 174.788 118.492 174.834 118.197C174.834 118.053 174.886 117.902 174.919 117.752L174.978 117.51C175.01 117.398 175.043 117.287 175.082 117.176C175.171 117.003 175.3 116.853 175.459 116.739C175.617 116.625 175.8 116.551 175.992 116.521C176.254 116.47 176.518 116.433 176.784 116.41C177.295 116.358 177.792 116.338 178.29 116.325L180.365 116.266C181.264 116.196 182.168 116.276 183.042 116.502C183.376 116.646 183.192 116.79 182.944 116.934C182.6 117.149 182.209 117.275 181.805 117.3C180.09 117.372 178.29 117.405 176.627 117.582C176.234 117.66 176.162 117.621 176.11 117.739C176.058 117.857 176.11 117.739 176.11 117.837C176.11 117.935 176.071 117.994 176.058 118.079C176.045 118.164 176.005 118.413 175.986 118.583C175.946 118.93 175.92 119.284 175.901 119.63C175.823 120.806 175.847 121.987 175.973 123.158C176.012 123.479 176.071 123.813 176.136 124.101C176.167 124.244 176.211 124.385 176.267 124.52C176.291 124.605 176.345 124.679 176.418 124.729C176.45 124.732 176.483 124.732 176.516 124.729C176.562 124.729 176.719 124.729 176.85 124.729H178.1C178.656 124.729 179.219 124.729 179.769 124.651C180.633 124.592 181.477 124.448 182.322 124.324L182.878 124.232C183.572 124.14 183.801 124.232 183.984 124.513C184.027 124.579 184.066 124.647 184.102 124.716C184.2 124.945 183.932 125.188 183.448 125.318C181.872 125.636 180.27 125.809 178.663 125.836C178.257 125.836 177.858 125.836 177.445 125.836H176.824H176.66C176.588 125.843 176.516 125.843 176.444 125.836C176.256 125.808 176.07 125.766 175.888 125.711C175.718 125.608 175.571 125.473 175.456 125.312C175.392 125.233 175.337 125.147 175.292 125.057C175.246 124.972 175.226 124.919 175.2 124.86C175.104 124.634 175.028 124.399 174.971 124.16L174.945 124.166Z" fill="#231F20"/>
<path d="M184.444 119.918C184.444 120.252 184.391 120.573 184.385 120.933C184.385 121.057 184.385 121.182 184.385 121.306C184.385 121.745 184.339 122.196 184.313 122.615C184.296 122.811 184.296 123.008 184.313 123.204C184.352 123.462 184.337 123.725 184.267 123.977C184.267 124.062 184.077 124.029 183.92 123.977C183.763 123.924 183.58 123.806 183.554 123.669C183.428 123.182 183.397 122.675 183.462 122.177C183.48 121.864 183.469 121.551 183.429 121.241V119.558C183.429 119.238 183.429 118.904 183.429 118.59C183.429 118.276 183.344 118.086 183.318 117.817C183.308 117.757 183.308 117.695 183.318 117.634C183.318 117.586 183.33 117.539 183.352 117.497C183.375 117.455 183.406 117.419 183.445 117.391C183.484 117.364 183.529 117.346 183.577 117.339C183.624 117.332 183.672 117.337 183.717 117.353H183.874C184.023 117.399 184.151 117.494 184.241 117.621C184.352 117.803 184.413 118.01 184.418 118.223C184.444 118.44 184.457 118.659 184.457 118.878C184.457 119.212 184.457 119.532 184.457 119.886L184.444 119.918Z" fill="#231F20"/>
<path d="M188.022 123.97C187.801 122.735 187.713 121.48 187.761 120.226C187.761 119.781 187.761 119.33 187.8 118.878C187.8 118.59 187.859 118.295 187.911 118.001C187.911 117.857 187.964 117.706 187.996 117.556L188.055 117.314L188.153 116.98C188.245 116.807 188.375 116.658 188.534 116.544C188.693 116.43 188.877 116.355 189.07 116.325C189.345 116.266 189.6 116.24 189.862 116.207C190.372 116.162 190.87 116.142 191.367 116.129L193.436 116.063C194.337 115.999 195.244 116.081 196.119 116.306C196.453 116.443 196.263 116.594 196.021 116.738C195.678 116.953 195.286 117.079 194.882 117.104C193.167 117.176 191.367 117.209 189.705 117.386C189.312 117.464 189.24 117.386 189.188 117.543C189.186 117.575 189.186 117.608 189.188 117.641C189.188 117.719 189.155 117.798 189.142 117.883C189.129 117.968 189.089 118.217 189.07 118.387C189.03 118.734 189.004 119.087 188.985 119.434C188.904 120.61 188.928 121.791 189.057 122.962C189.094 123.279 189.148 123.594 189.22 123.905C189.252 124.047 189.294 124.187 189.345 124.324C189.37 124.409 189.426 124.481 189.502 124.527C189.534 124.533 189.567 124.533 189.6 124.527C189.711 124.533 189.823 124.533 189.934 124.527H190.346H191.184C191.74 124.527 192.297 124.494 192.853 124.448C193.717 124.389 194.555 124.245 195.399 124.121L195.956 124.029C196.656 123.938 196.878 124.029 197.062 124.311C197.11 124.374 197.152 124.442 197.186 124.514C197.278 124.743 197.016 124.978 196.532 125.109C194.956 125.432 193.355 125.608 191.747 125.633C191.348 125.633 190.948 125.633 190.536 125.633H189.881L189.678 125.698C189.607 125.706 189.534 125.706 189.462 125.698C189.272 125.67 189.084 125.628 188.9 125.574C188.732 125.471 188.587 125.335 188.474 125.175C188.41 125.096 188.355 125.01 188.31 124.919C188.274 124.854 188.241 124.786 188.212 124.716C188.121 124.49 188.045 124.259 187.983 124.023L188.022 123.97Z" fill="#231F20"/>
<path d="M197.533 119.722C197.533 120.056 197.481 120.377 197.468 120.737C197.468 120.861 197.468 120.986 197.468 121.11L197.396 122.419C197.383 122.615 197.383 122.812 197.396 123.008C197.438 123.265 197.424 123.529 197.357 123.78C197.357 123.866 197.167 123.833 197.003 123.78C196.84 123.728 196.669 123.61 196.643 123.473C196.516 122.984 196.485 122.475 196.552 121.974C196.567 121.664 196.556 121.353 196.519 121.044C196.519 120.698 196.519 120.351 196.519 120.01C196.519 119.794 196.519 119.578 196.519 119.356C196.519 119.028 196.519 118.701 196.519 118.38C196.519 118.06 196.434 117.883 196.401 117.615C196.398 117.554 196.398 117.492 196.401 117.431C196.403 117.383 196.415 117.336 196.438 117.294C196.461 117.252 196.494 117.216 196.533 117.189C196.573 117.161 196.618 117.144 196.665 117.137C196.713 117.13 196.761 117.135 196.807 117.15H196.964C197.112 117.196 197.241 117.291 197.33 117.418C197.435 117.603 197.496 117.809 197.507 118.02C197.507 118.236 197.507 118.452 197.546 118.675C197.546 119.009 197.546 119.33 197.546 119.683L197.533 119.722Z" fill="#231F20"/>
<path d="M201.004 123.774C200.784 122.539 200.698 121.284 200.748 120.03C200.748 119.585 200.748 119.133 200.748 118.682C200.748 118.394 200.814 118.099 200.86 117.805C200.86 117.661 200.912 117.51 200.945 117.359L201.004 117.117C201.043 117.006 201.069 116.895 201.108 116.783C201.198 116.609 201.328 116.459 201.487 116.345C201.647 116.231 201.831 116.157 202.025 116.129C202.284 116.077 202.546 116.04 202.81 116.018C203.321 115.965 203.818 115.946 204.316 115.933L206.423 115.88C207.322 115.81 208.227 115.89 209.1 116.116C209.434 116.26 209.251 116.404 209.009 116.548C208.663 116.763 208.269 116.889 207.863 116.914C206.148 116.986 204.355 117.019 202.686 117.196C202.293 117.274 202.221 117.196 202.169 117.353C202.116 117.51 202.169 117.386 202.169 117.451C202.169 117.517 202.136 117.608 202.116 117.693C202.097 117.778 202.064 118.027 202.044 118.197C202.005 118.544 201.985 118.898 201.959 119.245C201.885 120.42 201.909 121.601 202.031 122.773C202.071 123.093 202.129 123.427 202.195 123.715C202.226 123.858 202.27 123.999 202.326 124.134C202.35 124.219 202.403 124.293 202.476 124.343C202.511 124.347 202.546 124.347 202.581 124.343C202.692 124.35 202.804 124.35 202.915 124.343H203.327H204.159C204.721 124.343 205.278 124.343 205.834 124.265C206.692 124.206 207.536 124.062 208.38 123.938L208.937 123.846C209.631 123.754 209.86 123.846 210.043 124.127C210.082 124.199 210.135 124.265 210.167 124.33C210.259 124.559 209.991 124.795 209.48 124.933C207.904 125.25 206.303 125.423 204.695 125.45C204.296 125.45 203.89 125.45 203.484 125.45H202.83H202.666C202.597 125.457 202.526 125.457 202.457 125.45C202.266 125.422 202.078 125.38 201.894 125.325C201.726 125.221 201.579 125.085 201.462 124.926C201.402 124.844 201.347 124.759 201.298 124.671C201.259 124.586 201.233 124.533 201.207 124.468C201.112 124.243 201.036 124.011 200.977 123.774H201.004Z" fill="#231F20"/>
<path d="M210.528 119.526C210.528 119.86 210.482 120.18 210.469 120.54C210.469 120.665 210.469 120.789 210.469 120.913C210.469 121.352 210.417 121.804 210.39 122.223C210.377 122.419 210.377 122.616 210.39 122.812C210.433 123.069 210.418 123.333 210.345 123.584C210.345 123.669 210.161 123.636 209.998 123.584C209.834 123.532 209.664 123.414 209.631 123.276C209.508 122.789 209.479 122.282 209.546 121.784C209.562 121.471 209.549 121.158 209.507 120.848C209.507 120.501 209.507 120.154 209.507 119.814C209.507 119.598 209.507 119.382 209.507 119.159C209.507 118.839 209.507 118.505 209.507 118.191C209.507 117.876 209.428 117.687 209.396 117.418C209.389 117.357 209.389 117.296 209.396 117.235C209.396 117.187 209.408 117.14 209.43 117.098C209.452 117.056 209.484 117.019 209.523 116.992C209.562 116.965 209.607 116.947 209.654 116.94C209.702 116.933 209.75 116.938 209.795 116.953H209.952C210.102 117 210.233 117.094 210.325 117.222C210.43 117.406 210.491 117.612 210.502 117.824C210.502 118.04 210.502 118.256 210.534 118.479C210.534 118.812 210.534 119.133 210.534 119.487L210.528 119.526Z" fill="#231F20"/>
<path d="M178.734 83.5259C178.793 83.4473 178.832 83.3491 178.937 83.3099C179.007 83.24 179.1 83.1981 179.199 83.192C179.416 83.1651 179.636 83.1651 179.853 83.192L180.573 83.2444C181.051 83.2444 181.523 83.3099 181.981 83.323C182.138 83.323 182.288 83.323 182.432 83.323H182.648C182.679 83.298 182.7 83.2633 182.707 83.2248C182.707 83.2248 182.707 83.1462 182.707 83.0808V82.8713C182.724 82.5814 182.724 82.2907 182.707 82.0008C182.707 81.4 182.63 80.8017 182.478 80.2204C182.46 80.151 182.431 80.0848 182.393 80.024C182.379 79.9973 182.357 79.9755 182.33 79.9615C182.303 79.9475 182.273 79.9419 182.243 79.9455H181.889H181.457C180.768 80.0164 180.074 80.0318 179.382 79.9913C178.944 79.939 179.454 78.9768 180.266 78.9375C180.606 78.9375 180.92 78.9375 181.293 78.9375H182.085H182.498C182.669 78.9658 182.83 79.0379 182.966 79.1469C183.101 79.2558 183.206 79.3979 183.27 79.5593C183.33 79.6831 183.379 79.8125 183.414 79.9455C183.414 80.0568 183.473 80.155 183.493 80.2531C183.571 80.6434 183.615 81.0399 183.624 81.4379C183.624 81.8306 183.624 82.2299 183.624 82.6422C183.628 82.8611 183.615 83.08 183.584 83.2968C183.582 83.4538 183.541 83.6077 183.464 83.7448C183.388 83.8818 183.278 83.9978 183.146 84.0822C182.985 84.1414 182.818 84.181 182.648 84.2C182.141 84.2332 181.631 84.2332 181.123 84.2L179.729 84.1019C179.662 84.092 179.593 84.092 179.526 84.1019C179.487 84.1588 179.46 84.2235 179.448 84.2917C179.423 84.4084 179.406 84.5264 179.395 84.6451C179.395 84.7826 179.395 84.9266 179.395 85.064C179.372 85.4904 179.392 85.918 179.454 86.3404C179.526 86.7397 179.683 87.1717 179.912 87.224H180.024C180.626 87.224 181.254 87.139 181.869 87.0997H182.315C182.871 87.0997 183.028 87.0997 183.165 87.3811C183.198 87.44 183.237 87.4924 183.264 87.5448C183.375 87.7346 183.093 87.9506 182.681 88.0095C181.792 88.1339 180.895 88.2038 179.997 88.219C179.811 88.212 179.628 88.1652 179.461 88.0817C179.294 87.9981 179.146 87.8798 179.029 87.7346C178.852 87.5137 178.721 87.2601 178.643 86.9884C178.49 86.4633 178.417 85.9183 178.427 85.3717C178.427 85.1099 178.44 84.848 178.466 84.5862C178.466 84.4357 178.466 84.3571 178.518 84.1477C178.549 83.9206 178.615 83.6998 178.715 83.4931L178.734 83.5259Z" fill="#231F20"/>
<path d="M187.322 87.008C187.735 87.008 188.147 87.008 188.559 86.9491L189.109 86.8836C189.149 86.8836 189.207 86.8836 189.207 86.8313V86.7331C189.207 86.7331 189.207 86.6676 189.207 86.5825L189.26 86.1571C189.306 85.7513 189.306 85.3389 189.325 84.9331C189.398 83.4794 189.312 82.0221 189.07 80.5869C189.036 80.4115 188.991 80.2387 188.933 80.0698C188.926 80.0433 188.913 80.0192 188.893 80.0006C188.873 79.9819 188.848 79.9696 188.821 79.9651L188.625 79.9258C188.423 79.8973 188.22 79.882 188.016 79.88C187.616 79.8712 187.215 79.8952 186.818 79.952L186.255 80.0436C186.119 80.0727 185.985 80.1143 185.856 80.168C185.8 80.1372 185.737 80.1215 185.673 80.1222C185.581 80.1222 185.45 80.0371 185.457 79.8211C185.519 79.5762 185.656 79.3567 185.848 79.1926C186.04 79.0285 186.279 78.928 186.53 78.9047C187.02 78.8364 187.516 78.8167 188.01 78.8458C188.262 78.8568 188.513 78.883 188.762 78.9244C188.838 78.9368 188.912 78.9543 188.985 78.9767L189.306 79.0749C189.396 79.1307 189.481 79.1942 189.561 79.2647C189.6 79.2647 189.613 79.3564 189.679 79.3629L189.77 79.4938C189.876 79.7553 189.952 80.0275 189.999 80.3054C190.045 80.5214 190.078 80.7309 190.104 80.96C190.157 81.3789 190.183 81.7978 190.202 82.2167C190.235 83.2771 190.327 84.3702 190.268 85.4894C190.268 85.7774 190.229 86.0589 190.196 86.3404L190.143 86.7724L190.058 87.3222C190.006 87.4204 189.999 87.5447 189.914 87.6167C189.846 87.6743 189.766 87.7147 189.679 87.7345C189.562 87.7669 189.444 87.7932 189.325 87.8131L189.07 87.8524C188.756 87.8916 188.415 87.9178 188.141 87.9374C187.866 87.9571 187.421 87.9767 187.061 87.9374C186.875 87.9471 186.69 87.9471 186.504 87.9374C186.274 87.9221 186.05 87.855 185.85 87.7411L185.751 87.6887C185.633 87.5373 185.546 87.3637 185.496 87.1782C185.457 87.0384 185.426 86.8963 185.405 86.7527C185.352 86.4713 185.319 86.1964 185.287 85.9214C185.228 85.3716 185.189 84.8284 185.149 84.2851C185.097 83.4407 185.012 82.616 184.992 81.7716C184.992 81.5884 184.992 81.4051 184.992 81.2153C184.992 80.5149 185.123 80.2924 185.398 80.1811C185.459 80.1514 185.523 80.1273 185.588 80.1091C185.797 80.1091 185.915 80.3644 185.935 80.8487C186.007 82.2887 186.072 83.8334 186.21 85.3454C186.21 85.6924 186.288 86 186.334 86.3665C186.367 86.5236 186.393 86.7004 186.432 86.8313V86.936H186.668C186.864 86.936 187.074 86.936 187.283 86.936L187.322 87.008Z" fill="#231F20"/>
<path d="M198.018 82.9695L197.075 84.0561C196.957 84.187 196.866 84.3375 196.748 84.4684L195.511 85.8626C195.331 86.0719 195.163 86.2904 195.007 86.5172C194.821 86.8197 194.586 87.0895 194.313 87.3157C194.221 87.3812 194.103 87.2633 194.031 87.0866C193.988 86.9934 193.965 86.8917 193.965 86.7888C193.965 86.6858 193.988 86.5842 194.031 86.491C194.44 85.9017 194.9 85.3498 195.406 84.8415C195.714 84.5339 195.949 84.187 196.237 83.8139L197.18 82.6946L197.769 82.0401C198.063 81.6997 198.378 81.3855 198.659 81.0124C198.94 80.6393 199.071 80.443 199.314 80.1615C199.352 80.0951 199.398 80.0336 199.451 79.9782C199.641 79.7622 199.772 79.7557 199.955 79.8473L200.079 79.9128C200.138 79.9722 200.175 80.0497 200.185 80.1328C200.194 80.2159 200.176 80.2998 200.132 80.371C199.82 80.924 199.447 81.44 199.019 81.9092L198.083 83.0088L198.018 82.9695Z" fill="#231F20"/>
<path d="M196.361 80.9467C196.36 81.1484 196.297 81.3448 196.18 81.5089C196.063 81.673 195.897 81.7968 195.707 81.8631C195.605 81.9056 195.5 81.9385 195.393 81.9613C195.246 81.9841 195.096 81.9747 194.954 81.9337C194.811 81.8928 194.679 81.8212 194.567 81.724C194.455 81.6268 194.365 81.5063 194.304 81.3709C194.243 81.2356 194.213 81.0886 194.214 80.9402C194.206 80.825 194.231 80.7099 194.287 80.6088C194.343 80.5077 194.427 80.425 194.529 80.3707C194.588 80.3707 194.679 80.482 194.758 80.626C194.82 80.7221 194.874 80.8228 194.921 80.9271C194.91 80.9761 194.909 81.0269 194.918 81.0764C194.927 81.1259 194.946 81.1731 194.974 81.2151C195.033 81.3067 195.15 81.2805 195.281 81.2151C195.412 81.1496 195.537 81.1169 195.569 81.0384C195.584 81.0111 195.591 80.9808 195.591 80.95C195.591 80.9192 195.584 80.8889 195.569 80.8616C195.517 80.7635 195.458 80.7307 195.373 80.7896C195.288 80.8485 195.275 80.9729 195.242 81.0907C195.209 81.2085 195.242 81.1496 195.242 81.1758C195.242 81.202 195.15 81.2871 194.934 81.2413H194.79C194.633 81.202 194.522 81.1038 194.522 80.9795C194.514 80.7729 194.571 80.569 194.686 80.3969C194.771 80.2632 194.889 80.1542 195.029 80.0807C195.169 80.0072 195.326 79.9717 195.484 79.978C195.611 79.9879 195.735 80.0237 195.848 80.0834C195.96 80.1431 196.059 80.2253 196.139 80.3249C196.29 80.5094 196.371 80.7411 196.368 80.9795L196.361 80.9467Z" fill="#231F20"/>
<path d="M200.419 85.5482C200.392 85.7839 200.278 86.0009 200.099 86.1569C199.965 86.2811 199.8 86.367 199.621 86.4057C199.51 86.4459 199.392 86.4658 199.274 86.4646C199.149 86.4603 199.026 86.4302 198.914 86.3761C198.801 86.3221 198.701 86.2452 198.619 86.1504C198.487 85.9815 198.424 85.7685 198.443 85.5547C198.448 85.3943 198.476 85.2355 198.528 85.0835C198.549 84.98 198.599 84.8847 198.672 84.8083C198.745 84.7319 198.838 84.6776 198.94 84.6515C199.006 84.6515 199.078 84.8151 199.143 84.9918C199.209 85.1686 199.307 85.3257 199.307 85.3453C199.307 85.3649 199.307 85.5155 199.202 85.5547C199.097 85.594 199.202 85.5547 199.241 85.5547L199.457 85.5155C199.464 85.5058 199.467 85.4944 199.467 85.4827C199.467 85.4711 199.464 85.4597 199.457 85.45C199.442 85.4084 199.413 85.3736 199.375 85.352C199.336 85.3303 199.291 85.3233 199.248 85.3322C199.156 85.3322 199.084 85.4304 199.006 85.5024L198.96 85.5482C198.888 85.6006 198.829 85.5482 198.678 85.3649L198.574 85.234C198.518 85.1828 198.479 85.1163 198.462 85.0428C198.444 84.9694 198.449 84.8924 198.475 84.8217C198.599 84.6214 198.793 84.4739 199.019 84.4075C199.244 84.341 199.487 84.3603 199.699 84.4617C199.926 84.5387 200.121 84.6879 200.255 84.8866C200.389 85.0853 200.453 85.3223 200.439 85.5613L200.419 85.5482Z" fill="#231F20"/>
<path d="M165.828 111.907C165.675 109.236 165.548 106.564 165.448 103.889C165.409 102.913 165.304 101.925 165.284 100.969C165.193 97.5265 165.14 94.0836 165.193 90.6407C165.193 89.1156 165.193 87.5774 165.193 86.0589C165.193 85.0836 165.193 84.0952 165.245 83.1265C165.319 82.1452 165.459 81.1699 165.664 80.2072C165.788 79.6051 166.03 79.7229 166.286 80.2596C166.65 81.0866 166.857 81.9747 166.894 82.8778C166.816 86.8051 166.934 90.7323 166.894 94.6989C166.855 97.088 167.091 99.5556 167.215 101.991C167.355 104.652 167.51 107.319 167.68 109.989C167.804 111.639 167.902 113.262 168.046 114.931C168.262 117.418 168.465 119.925 168.78 122.386C169.028 124.297 169.434 126.156 169.781 128.022C169.866 128.428 169.971 128.827 170.043 129.239C170.17 129.77 170.219 130.317 170.187 130.863C170.173 131.013 170.126 131.158 170.049 131.288C169.967 131.418 169.872 131.541 169.768 131.655C169.663 131.766 169.578 131.916 169.48 132.015C169.382 132.113 169.107 132.152 168.825 131.877C168.668 131.708 168.538 131.516 168.439 131.308C168.323 131.066 168.225 130.817 168.145 130.561C167.26 127.092 166.678 123.553 166.404 119.984C166.135 117.3 165.952 114.604 165.749 111.907H165.828Z" fill="#231F20"/>
<rect x="0.833984" y="0.5" width="382.333" height="199" rx="5.5" stroke="black" stroke-opacity="0.1"/>
</svg>
