<svg width="586" height="240" viewBox="0 0 586 240" fill="none" xmlns="http://www.w3.org/2000/svg">
<rect x="0.5" y="0.5" width="584.5" height="239" rx="3.5" fill="white"/>
<rect x="141.385" y="72.4479" width="109.424" height="109.424" rx="54.7118" fill="white"/>
<path d="M204.698 123.549C204.473 137.796 186.816 137.395 185.728 126.677C184.852 118.043 194.8 114.908 198.423 116.942C198.423 116.942 197.134 114.214 193.217 115.083C189.3 115.953 184.564 117.555 182.887 121.722C181.21 125.889 182.218 129.668 182.887 131.92C183.557 134.173 186.059 136.807 188.631 138.015C191.202 139.222 195.57 139.723 198.204 138.478C200.838 137.232 203.516 134.874 204.617 132.784C205.718 130.694 206.294 127.628 206.012 125.976C205.731 124.325 204.698 123.561 204.698 123.561V123.549Z" fill="#231F20"/>
<path d="M173.196 114.564C170.493 116.172 168.416 115.315 167.878 113.144C167.34 110.973 169.674 109.408 171.451 109.784C171.451 109.784 168.26 107.75 166.283 110.015C164.906 111.592 165.5 113.938 165.845 114.564C166.189 115.19 168.135 117.373 170.306 116.823C172.471 116.272 173.203 114.564 173.203 114.564H173.196Z" fill="#231F20"/>
<path d="M191.997 102.225C193.53 102.895 196.008 103.101 196.909 100.755C197.772 98.521 196.508 97.0819 194.694 95.9369C194.694 95.9369 196.89 95.2799 197.935 96.4249C198.98 97.57 199.13 98.5773 199.274 99.8099C199.418 101.043 198.742 102.619 197.972 103.333C197.203 104.04 194.137 104.09 193.211 103.745C192.285 103.401 191.997 102.219 191.997 102.219V102.225Z" fill="#231F20"/>
<path d="M221.786 114.364C221.649 112.512 220.372 111.129 218.201 111.479C216.33 111.78 215.135 114.289 216.193 115.984C216.193 115.984 214.735 115.408 214.635 113.65C214.535 111.892 214.703 110.347 216.993 109.414C219.29 108.482 221.123 109.54 221.592 109.965C222.061 110.391 222.731 112.881 222.731 112.881L221.786 114.357V114.364Z" fill="#231F20"/>
<path d="M221.079 141.13C219.477 144.321 217.375 144.008 216.38 143.589C214.904 142.969 213.665 141.261 214.879 138.865C214.879 138.865 212.801 140.11 212.933 142.569C213.058 145.028 215.354 145.841 216.274 145.972C217.194 146.104 219.258 145.61 219.922 144.709C220.585 143.808 221.079 141.136 221.079 141.136V141.13Z" fill="#231F20"/>
<path d="M197.421 157.53C194.938 158.425 193.029 157.455 192.441 155.772C191.772 153.858 192.954 151.912 194.487 151.367C194.487 151.367 192.122 150.729 190.307 153.219C188.487 155.71 190.157 157.768 190.652 158.231C191.146 158.694 192.091 159.676 193.386 159.72C194.681 159.764 196.439 159.439 196.646 159.013C196.852 158.588 197.428 157.53 197.428 157.53H197.421Z" fill="#231F20"/>
<path d="M173.17 143.52C173.652 141.58 172.213 139.184 169.666 139.503C168.077 139.703 166.181 141.224 166.532 143.839C166.532 143.839 164.961 142.275 165.568 139.979C166.175 137.682 168.634 136.906 170.004 137.357C171.375 137.807 172.832 137.876 173.227 138.702C173.621 139.522 173.984 142.056 173.984 142.056L173.158 143.526L173.17 143.52Z" fill="#231F20"/>
<path d="M193.642 111.158C193.724 110.564 193.786 109.957 193.824 109.344C193.836 109.119 193.793 108.9 193.811 108.674C193.861 107.88 193.943 107.079 194.024 106.278C194.055 105.921 194.037 105.565 194.024 105.214C194.012 104.989 194.018 104.764 194.03 104.539C194.037 104.426 194.055 104.313 194.074 104.201C194.087 104.088 194.187 103.969 194.237 103.857C194.324 103.713 194.387 103.732 194.569 103.844C194.706 103.926 194.838 104.007 194.95 104.069C195.082 104.163 195.169 104.276 195.213 104.401C195.282 104.626 195.369 104.845 195.426 105.071C195.463 105.296 195.501 105.521 195.526 105.74C195.576 106.19 195.601 106.641 195.563 107.104C195.488 107.661 195.626 108.224 195.651 108.793C195.676 109.419 195.676 110.051 195.663 110.683C195.663 111.071 195.632 111.465 195.607 111.853C195.57 112.441 195.495 113.035 195.488 113.617C195.488 114.074 195.57 114.525 195.582 114.981C195.582 115.081 195.601 115.182 195.595 115.282C195.576 115.469 195.532 115.588 195.407 115.657C195.319 115.688 195.238 115.713 195.144 115.732C195.075 115.751 194.988 115.763 194.894 115.77C194.806 115.776 194.725 115.788 194.644 115.788C194.512 115.788 194.393 115.745 194.274 115.663C194.193 115.607 194.112 115.557 194.043 115.513C193.93 115.451 193.937 115.394 193.899 115.325C193.749 114.925 193.649 114.525 193.58 114.124C193.524 113.73 193.542 113.336 193.536 112.935C193.555 112.341 193.574 111.747 193.592 111.152H193.642V111.158Z" fill="#231F20"/>
<path d="M195.563 144.102C195.481 144.697 195.406 145.297 195.362 145.904C195.344 146.123 195.387 146.342 195.362 146.568C195.3 147.35 195.212 148.151 195.125 148.945C195.093 149.296 195.106 149.652 195.125 149.996C195.137 150.222 195.131 150.447 195.118 150.666C195.112 150.778 195.093 150.891 195.075 151.004C195.062 151.116 194.962 151.235 194.912 151.348C194.824 151.492 194.762 151.473 194.58 151.367C194.443 151.285 194.305 151.204 194.199 151.141C194.067 151.047 193.98 150.935 193.93 150.81C193.861 150.591 193.773 150.365 193.717 150.147C193.679 149.921 193.648 149.702 193.617 149.477C193.567 149.027 193.548 148.576 193.592 148.113C193.673 147.562 193.542 146.999 193.523 146.43C193.504 145.811 193.517 145.185 193.535 144.553C193.535 144.165 193.579 143.777 193.598 143.395C193.636 142.807 193.711 142.225 193.717 141.643C193.711 141.193 193.629 140.742 193.617 140.292C193.617 140.192 193.598 140.092 193.604 139.998C193.623 139.816 193.661 139.698 193.786 139.622C193.873 139.591 193.955 139.566 194.049 139.547C194.117 139.529 194.205 139.516 194.299 139.504C194.386 139.497 194.468 139.479 194.543 139.479C194.674 139.479 194.793 139.516 194.912 139.597C194.993 139.654 195.075 139.698 195.15 139.748C195.262 139.81 195.256 139.866 195.3 139.935C195.456 140.336 195.556 140.736 195.632 141.13C195.688 141.525 195.675 141.925 195.675 142.319C195.657 142.907 195.632 143.502 195.613 144.096H195.563V144.102Z" fill="#231F20"/>
<path d="M207.608 118.112C208.246 117.837 208.89 117.53 209.522 117.211C209.754 117.092 209.954 116.923 210.186 116.811C211.005 116.398 211.85 115.997 212.701 115.609C213.07 115.428 213.427 115.215 213.771 115.003C213.996 114.865 214.227 114.746 214.465 114.627C214.584 114.571 214.709 114.521 214.834 114.477C214.953 114.427 215.122 114.452 215.266 114.433C215.454 114.433 215.466 114.502 215.435 114.721C215.416 114.884 215.391 115.046 215.379 115.184C215.341 115.353 215.266 115.491 215.16 115.597C214.966 115.785 214.784 115.979 214.584 116.154C214.378 116.31 214.171 116.473 213.952 116.623C213.527 116.923 213.082 117.205 212.601 117.436C212.006 117.693 211.506 118.137 210.949 118.494C210.336 118.876 209.704 119.238 209.072 119.601C208.678 119.82 208.277 120.027 207.871 120.227C207.264 120.54 206.619 120.803 206.019 121.128C205.549 121.378 205.111 121.697 204.623 121.929C204.517 121.979 204.417 122.054 204.304 122.092C204.091 122.16 203.941 122.179 203.81 122.098C203.735 122.029 203.678 121.966 203.616 121.891C203.566 121.835 203.516 121.76 203.472 121.679C203.428 121.604 203.378 121.535 203.347 121.466C203.291 121.347 203.291 121.222 203.322 121.072C203.341 121.009 203.359 120.903 203.384 120.79C203.403 120.659 203.466 120.64 203.516 120.571C203.86 120.258 204.217 119.97 204.579 119.714C204.955 119.47 205.349 119.263 205.749 119.051C206.356 118.725 206.963 118.4 207.564 118.075L207.589 118.118L207.608 118.112Z" fill="#231F20"/>
<path d="M207.464 136.224C208.021 136.594 208.578 136.963 209.147 137.319C209.354 137.451 209.585 137.526 209.786 137.657C210.511 138.12 211.218 138.615 211.932 139.103C212.251 139.309 212.589 139.478 212.927 139.641C213.145 139.747 213.358 139.86 213.565 139.985C213.671 140.047 213.771 140.116 213.865 140.191C213.965 140.254 214.034 140.404 214.115 140.504C214.209 140.654 214.165 140.704 213.978 140.811C213.84 140.892 213.696 140.973 213.583 141.036C213.433 141.105 213.283 141.124 213.139 141.105C212.889 141.055 212.639 141.017 212.395 140.955C212.163 140.873 211.932 140.786 211.7 140.692C211.243 140.504 210.805 140.285 210.386 140.004C209.898 139.647 209.304 139.466 208.759 139.19C208.165 138.89 207.577 138.565 206.989 138.245L205.913 137.645C205.368 137.344 204.83 137.025 204.261 136.781C203.817 136.6 203.341 136.506 202.891 136.35C202.79 136.318 202.684 136.3 202.59 136.256C202.415 136.174 202.309 136.093 202.277 135.949C202.277 135.849 202.277 135.768 202.284 135.674C202.284 135.599 202.302 135.511 202.321 135.417C202.34 135.33 202.352 135.248 202.371 135.173C202.409 135.048 202.49 134.948 202.609 134.86C202.69 134.798 202.765 134.748 202.834 134.692C202.934 134.61 202.991 134.635 203.078 134.623C203.547 134.623 203.998 134.685 204.436 134.785C204.868 134.898 205.281 135.079 205.687 135.261C206.294 135.536 206.889 135.849 207.477 136.162L207.458 136.206L207.464 136.224Z" fill="#231F20"/>
<path d="M179.527 118.961C178.983 118.642 178.432 118.323 177.869 118.029C177.663 117.923 177.437 117.866 177.231 117.754C176.505 117.366 175.779 116.946 175.06 116.533C174.735 116.352 174.397 116.221 174.059 116.083C173.84 115.995 173.627 115.902 173.421 115.789C173.314 115.733 173.214 115.67 173.114 115.607C173.014 115.551 172.945 115.407 172.857 115.313C172.757 115.17 172.801 115.119 172.976 115.001C173.108 114.913 173.239 114.819 173.345 114.75C173.489 114.669 173.633 114.638 173.771 114.65C174.009 114.681 174.259 114.694 174.49 114.738C174.716 114.8 174.947 114.863 175.172 114.932C175.623 115.076 176.061 115.251 176.48 115.482C176.974 115.789 177.563 115.908 178.107 116.127C178.701 116.371 179.296 116.64 179.89 116.909C180.253 117.072 180.61 117.259 180.973 117.434C181.517 117.704 182.049 118.004 182.606 118.235C183.044 118.404 183.507 118.504 183.945 118.667C184.045 118.698 184.145 118.723 184.239 118.767C184.408 118.855 184.508 118.936 184.533 119.08C184.533 119.174 184.533 119.261 184.508 119.355C184.501 119.43 184.483 119.512 184.458 119.606C184.433 119.687 184.42 119.775 184.389 119.843C184.345 119.969 184.264 120.062 184.139 120.144C184.057 120.2 183.982 120.256 183.907 120.306C183.807 120.388 183.751 120.356 183.669 120.369C183.225 120.356 182.8 120.3 182.387 120.206C181.98 120.106 181.598 119.931 181.21 119.775C180.641 119.531 180.072 119.261 179.502 118.999L179.521 118.949L179.527 118.961Z" fill="#231F20"/>
<path d="M180.81 137.72C180.228 137.977 179.633 138.246 179.045 138.528C178.833 138.628 178.645 138.778 178.426 138.878C177.656 139.228 176.849 139.529 176.048 139.804C175.692 139.923 175.36 140.098 175.022 140.248C174.809 140.348 174.59 140.442 174.359 140.511C174.246 140.549 174.127 140.58 174.009 140.605C173.896 140.636 173.746 140.586 173.614 140.586C173.445 140.555 173.439 140.492 173.483 140.279C173.514 140.123 173.539 139.967 173.564 139.835C173.608 139.673 173.683 139.554 173.79 139.46C173.977 139.31 174.152 139.141 174.34 139.003L174.935 138.646C175.335 138.421 175.748 138.202 176.186 138.04C176.73 137.858 177.187 137.483 177.681 137.189L179.358 136.231C179.702 136.031 180.065 135.85 180.422 135.662C180.96 135.374 181.523 135.118 182.049 134.798C182.449 134.548 182.812 134.235 183.219 133.979C183.306 133.923 183.388 133.854 183.481 133.81C183.657 133.729 183.788 133.697 183.919 133.766C183.994 133.829 184.057 133.885 184.12 133.954C184.176 134.004 184.226 134.073 184.282 134.148C184.332 134.217 184.389 134.279 184.426 134.348C184.495 134.461 184.514 134.586 184.508 134.73C184.501 134.792 184.495 134.899 184.489 135.011C184.489 135.143 184.439 135.168 184.395 135.236C184.113 135.574 183.813 135.881 183.494 136.15C183.175 136.413 182.812 136.613 182.462 136.832C181.93 137.145 181.379 137.445 180.828 137.764L180.803 137.72H180.81Z" fill="#231F20"/>
<path d="M197.534 97.6253C197.178 97.2124 196.708 96.8933 196.183 96.643C195.645 96.4303 195.069 96.3302 194.494 96.3552C194.287 96.3865 194.087 96.4365 193.887 96.4866C193.705 96.5804 193.511 96.6493 193.324 96.7369C192.053 97.3876 191.09 99.0832 191.509 100.616C191.678 101.292 192.066 101.943 192.623 102.381C192.804 102.518 192.986 102.65 193.192 102.75C193.38 102.881 193.593 102.962 193.793 103.075L194.45 103.325C194.675 103.432 194.906 103.532 195.163 103.607C195.482 103.732 195.457 103.763 195.176 103.957C195.038 104.045 194.825 104.239 194.544 104.358C194.406 104.42 194.243 104.508 194.068 104.545C193.899 104.57 193.718 104.558 193.536 104.545C193.205 104.514 192.892 104.408 192.566 104.308C192.254 104.183 191.966 104.007 191.697 103.801C191.152 103.4 190.683 102.887 190.352 102.293C190.007 101.705 189.813 101.029 189.77 100.347C189.726 100.009 189.77 99.6713 189.795 99.3335C189.87 99.0081 189.914 98.6702 190.051 98.3699C190.176 97.9945 190.364 97.6504 190.539 97.3062C190.764 96.9934 190.952 96.6493 191.215 96.3552C191.497 96.0736 191.741 95.7545 192.091 95.5481C192.26 95.4354 192.416 95.3103 192.591 95.2164L193.142 94.9787C193.962 94.6909 194.844 94.572 195.676 94.7284C196.508 94.8598 197.315 95.1476 197.991 95.6357C198.842 96.2113 199.524 97.0434 199.899 98.0195L200.081 98.5826C200.137 98.7703 200.137 98.9706 200.169 99.1645C200.244 99.5524 200.187 99.9404 200.162 100.322C200.093 101.092 199.824 101.805 199.474 102.481C198.917 103.513 197.991 104.452 196.79 104.852C196.527 104.933 196.27 105.027 195.995 105.052C194.982 105.09 194.694 104.833 194.562 104.389C194.531 104.283 194.494 104.183 194.481 104.082C194.45 103.738 194.838 103.526 195.357 103.35C195.745 103.219 196.083 103.081 196.389 102.925C196.696 102.768 196.94 102.556 197.165 102.324C197.39 102.093 197.572 101.817 197.735 101.511C197.904 101.211 198.047 100.873 198.141 100.529C198.223 100.272 198.216 100.015 198.254 99.7589C198.285 99.6275 198.241 99.5086 198.241 99.3835C198.223 99.2646 198.254 99.127 198.198 99.0144C198.11 98.5201 197.841 98.0758 197.503 97.6629L197.534 97.6316V97.6253Z" fill="#231F20"/>
<path d="M191.646 157.586C192.003 157.993 192.479 158.318 192.998 158.562C193.536 158.768 194.112 158.875 194.687 158.843C194.894 158.812 195.094 158.762 195.294 158.712C195.476 158.618 195.67 158.549 195.851 158.462C197.121 157.811 198.072 156.109 197.653 154.57C197.484 153.894 197.09 153.244 196.533 152.812C196.352 152.674 196.17 152.543 195.964 152.449C195.776 152.318 195.563 152.243 195.363 152.13L194.706 151.88C194.481 151.773 194.243 151.679 193.993 151.598C193.674 151.473 193.699 151.448 193.974 151.248C194.112 151.16 194.318 150.966 194.6 150.847C194.737 150.785 194.9 150.697 195.075 150.653C195.244 150.628 195.426 150.634 195.607 150.653C195.939 150.685 196.251 150.791 196.577 150.885C196.89 151.01 197.184 151.185 197.453 151.392C197.997 151.792 198.473 152.299 198.804 152.893C199.155 153.481 199.349 154.157 199.392 154.833C199.436 155.171 199.392 155.509 199.374 155.846C199.299 156.172 199.255 156.51 199.123 156.81C198.998 157.185 198.817 157.53 198.642 157.874C198.416 158.187 198.229 158.531 197.972 158.831C197.691 159.113 197.447 159.432 197.102 159.638C196.94 159.751 196.777 159.876 196.602 159.97L196.051 160.207C195.232 160.495 194.356 160.62 193.517 160.47C192.685 160.339 191.878 160.057 191.196 159.569C190.345 158.994 189.657 158.168 189.281 157.198L189.1 156.635C189.044 156.447 189.044 156.247 189.012 156.053C188.937 155.665 188.987 155.277 189.012 154.895C189.081 154.126 189.344 153.413 189.688 152.737C190.239 151.704 191.158 150.76 192.366 150.353C192.629 150.272 192.885 150.171 193.154 150.146C194.168 150.103 194.456 150.359 194.587 150.803C194.618 150.91 194.656 151.01 194.669 151.11C194.7 151.454 194.312 151.667 193.793 151.842C193.405 151.973 193.067 152.111 192.76 152.268C192.454 152.424 192.21 152.643 191.984 152.874C191.765 153.112 191.578 153.388 191.415 153.694C191.246 153.994 191.102 154.332 191.015 154.683C190.939 154.939 190.946 155.196 190.908 155.452C190.877 155.584 190.921 155.703 190.921 155.828C190.939 155.947 190.914 156.084 190.964 156.197C191.052 156.691 191.327 157.135 191.665 157.542L191.634 157.573L191.646 157.586Z" fill="#231F20"/>
<path d="M166.87 111.398C166.645 111.817 166.538 112.318 166.488 112.818C166.488 113.312 166.526 113.844 166.739 114.301C166.795 114.482 166.901 114.633 167.014 114.776C167.07 114.852 167.114 114.927 167.177 114.995C167.245 115.058 167.308 115.121 167.37 115.189C167.564 115.452 167.859 115.621 168.121 115.815C168.265 115.878 168.403 115.972 168.553 116.022C168.709 116.059 168.86 116.128 169.022 116.153C169.673 116.278 170.399 116.172 171.062 115.884C171.65 115.621 172.195 115.214 172.589 114.714C172.701 114.545 172.839 114.389 172.914 114.207C172.958 114.119 173.02 114.038 173.07 113.957L173.196 113.694C173.296 113.519 173.314 113.337 173.408 113.156C173.477 112.974 173.565 112.768 173.59 112.549C173.659 112.261 173.684 112.255 173.928 112.461C174.047 112.568 174.266 112.724 174.416 112.987C174.491 113.112 174.616 113.275 174.641 113.437C174.666 113.6 174.678 113.775 174.666 113.957C174.578 114.57 174.378 115.189 173.996 115.64C173.652 116.128 173.227 116.528 172.764 116.873C171.813 117.529 170.643 117.892 169.46 117.817C168.753 117.742 168.04 117.592 167.389 117.267C167.076 117.098 166.782 116.898 166.495 116.697C166.244 116.447 165.956 116.222 165.762 115.928C165.287 115.308 164.999 114.589 164.836 113.857C164.718 113.118 164.686 112.361 164.874 111.636C165.074 110.747 165.5 109.896 166.144 109.22C166.657 108.745 167.258 108.319 167.94 108.144C168.109 108.094 168.271 108.032 168.44 108L168.953 107.944C169.298 107.881 169.629 107.919 169.961 107.931L170.349 107.95C170.486 107.975 170.63 107.988 170.768 108.025C171.043 108.082 171.3 108.182 171.556 108.288C172.063 108.513 172.526 108.832 172.92 109.264C173.089 109.458 173.258 109.652 173.383 109.89C173.59 110.347 173.602 110.703 173.54 110.941C173.477 111.179 173.327 111.31 173.102 111.404C173.002 111.442 172.902 111.492 172.801 111.504C172.464 111.548 172.207 111.254 171.95 110.966C171.738 110.753 171.544 110.566 171.312 110.397C171.087 110.234 170.831 110.096 170.574 110.015C170.449 109.971 170.324 109.94 170.205 109.921C170.149 109.909 170.092 109.915 170.036 109.902C169.955 109.902 169.873 109.909 169.798 109.902C169.642 109.902 169.479 109.871 169.323 109.871C169.179 109.89 169.029 109.902 168.878 109.915C168.759 109.909 168.678 109.971 168.572 109.99C168.478 110.021 168.359 110.028 168.271 110.078C168.096 110.178 167.89 110.234 167.733 110.384C167.377 110.616 167.114 110.997 166.901 111.41L166.857 111.392L166.87 111.398Z" fill="#231F20"/>
<path d="M220.466 110.621C219.684 110.133 218.596 109.864 217.626 110.152C217.263 110.233 216.963 110.446 216.668 110.646L216.287 110.934L215.961 111.297C215.755 111.547 215.599 111.829 215.486 112.129C215.267 112.73 215.254 113.437 215.48 114.106C215.674 114.694 216.043 115.251 216.512 115.652C216.675 115.764 216.819 115.908 216.994 115.983C217.075 116.033 217.15 116.096 217.238 116.146L217.488 116.277C217.657 116.378 217.839 116.409 218.014 116.509C218.195 116.59 218.389 116.684 218.608 116.728C218.89 116.816 218.89 116.847 218.671 117.072C218.558 117.178 218.389 117.385 218.133 117.523C218.007 117.591 217.845 117.704 217.688 117.729C217.532 117.748 217.357 117.754 217.182 117.735C216.581 117.629 215.974 117.416 215.536 117.016C215.292 116.841 215.104 116.615 214.892 116.415C214.716 116.184 214.516 115.965 214.372 115.708C213.778 114.713 213.509 113.468 213.797 112.298C214.103 110.903 214.948 109.658 216.168 108.963C217.501 108.194 219.102 108.144 220.479 108.619C221.33 108.926 222.106 109.445 222.694 110.152C222.888 110.44 223.119 110.709 223.238 111.04L223.445 111.522L223.557 112.029C223.657 112.367 223.639 112.705 223.651 113.043C223.682 113.387 223.595 113.7 223.564 114.031C223.432 115.095 222.869 116.127 221.968 116.816C221.762 116.966 221.555 117.116 221.311 117.216C220.842 117.379 220.491 117.36 220.266 117.279C220.035 117.191 219.922 117.035 219.853 116.803C219.822 116.697 219.784 116.597 219.778 116.496C219.766 116.159 220.078 115.927 220.379 115.696C220.61 115.508 220.811 115.326 220.992 115.12C221.173 114.913 221.33 114.676 221.436 114.432C221.486 114.313 221.536 114.188 221.561 114.075C221.599 113.962 221.599 113.862 221.618 113.687C221.636 113.531 221.668 113.374 221.699 113.224C221.699 113.074 221.693 112.93 221.699 112.786C221.712 112.673 221.693 112.573 221.668 112.473C221.649 112.373 221.63 112.273 221.618 112.167L221.505 111.885C221.474 111.785 221.436 111.691 221.374 111.61C221.317 111.522 221.261 111.435 221.211 111.341L220.986 111.103L220.873 110.978L220.735 110.878L220.46 110.671L220.479 110.628L220.466 110.621Z" fill="#231F20"/>
<path d="M215.379 144.54C216.174 145.016 217.282 145.091 218.226 144.765C218.57 144.64 218.865 144.421 219.14 144.196C219.615 143.796 220.035 143.257 220.229 142.619C220.429 141.994 220.423 141.287 220.21 140.623C220.016 140.041 219.653 139.497 219.177 139.109C219.021 138.996 218.865 138.871 218.689 138.79C218.608 138.746 218.527 138.684 218.445 138.634L218.189 138.508C218.02 138.415 217.832 138.377 217.651 138.283C217.463 138.202 217.269 138.102 217.044 138.045C216.769 137.945 216.775 137.914 217 137.701C217.113 137.595 217.288 137.401 217.538 137.263C217.663 137.195 217.813 137.088 217.97 137.057C218.126 137.032 218.295 137.026 218.464 137.044C218.752 137.101 219.071 137.151 219.346 137.263C219.64 137.363 219.878 137.545 220.122 137.72C220.591 138.083 221.011 138.515 221.311 139.015C221.943 140.01 222.137 141.261 221.912 142.394C221.755 143.07 221.536 143.727 221.167 144.321C221.023 144.64 220.76 144.884 220.554 145.159C220.322 145.422 220.035 145.623 219.772 145.835C218.495 146.636 216.937 146.911 215.523 146.53C214.647 146.323 213.815 145.86 213.196 145.185C212.933 144.953 212.777 144.634 212.576 144.352C212.407 144.052 212.301 143.72 212.182 143.401C212.126 143.07 212.038 142.738 212.007 142.406C212.007 142.075 211.988 141.756 211.988 141.418C212.107 140.304 212.514 139.347 213.252 138.521C213.415 138.34 213.584 138.158 213.803 138.014C214.222 137.77 214.566 137.708 214.81 137.745C215.054 137.783 215.204 137.914 215.317 138.133C215.367 138.227 215.423 138.327 215.442 138.421C215.505 138.752 215.261 139.028 215.023 139.322C214.841 139.553 214.666 139.766 214.51 140.023C214.353 140.273 214.216 140.554 214.122 140.836C214.022 141.111 213.972 141.399 213.965 141.593C213.959 141.712 213.965 141.893 213.965 142.044V142.281C213.965 142.356 213.984 142.425 213.997 142.5C214.109 143.351 214.535 144.096 215.373 144.503L215.354 144.546L215.379 144.54Z" fill="#231F20"/>
<path d="M166.607 140.599C166.426 141.087 166.407 141.644 166.457 142.201C166.551 142.752 166.745 143.302 167.058 143.784C167.177 143.953 167.327 144.097 167.465 144.253C167.627 144.379 167.79 144.491 167.946 144.629C168.528 145.042 169.254 145.236 170.017 145.198C170.787 145.198 171.507 144.904 172.101 144.385C172.633 143.928 173.008 143.284 173.202 142.608C173.271 142.395 173.302 142.164 173.334 141.945C173.371 141.719 173.402 141.5 173.415 141.269C173.44 141.037 173.415 140.812 173.44 140.574C173.459 140.33 173.484 140.08 173.484 139.817C173.502 139.486 173.54 139.498 173.809 139.692C173.94 139.792 174.172 139.93 174.385 140.149C174.485 140.255 174.629 140.374 174.716 140.524C174.785 140.674 174.854 140.837 174.898 141.006C175.223 142.264 174.804 143.603 174.103 144.679C173.371 145.749 172.17 146.543 170.862 146.731C170.48 146.775 170.105 146.775 169.723 146.806C169.342 146.756 168.948 146.769 168.572 146.662C168.197 146.556 167.809 146.468 167.471 146.268C167.108 146.112 166.801 145.868 166.501 145.624C165.237 144.497 164.568 142.839 164.674 141.194C164.73 140.186 165.1 139.185 165.738 138.384C166.251 137.803 166.833 137.327 167.546 137.002C168.253 136.708 168.998 136.564 169.748 136.564C170.9 136.576 172.101 136.883 173.052 137.621C173.271 137.771 173.465 137.94 173.646 138.128C174.247 138.898 174.216 139.267 173.94 139.642C173.872 139.73 173.815 139.824 173.74 139.886C173.484 140.111 173.077 139.949 172.633 139.63L172.389 139.461C172.301 139.411 172.22 139.367 172.145 139.31C171.995 139.192 171.832 139.117 171.682 139.023C171.363 138.86 171.05 138.722 170.718 138.66C170.393 138.585 170.061 138.541 169.723 138.553C169.385 138.547 169.048 138.578 168.722 138.666C168.472 138.722 168.272 138.81 168.072 138.923C167.878 139.079 167.615 139.173 167.465 139.367C167.07 139.673 166.845 140.13 166.67 140.606L166.626 140.593L166.607 140.599Z" fill="#231F20"/>
<path d="M204.698 128.035C204.848 126.215 204.529 124.35 203.884 122.642C203.221 120.94 202.101 119.439 200.656 118.312C199.617 117.461 198.341 116.948 197.058 116.542C194.774 115.828 192.247 115.878 189.944 116.623C188.799 117.023 187.717 117.593 186.747 118.325C185.802 119.076 184.989 119.995 184.344 121.04C183.8 121.985 183.387 123.011 183.124 124.081C182.905 125.157 182.749 126.259 182.818 127.353C182.861 128.761 183.181 130.144 183.6 131.483L183.969 132.472C184.107 132.797 184.288 133.097 184.407 133.435C184.701 134.08 185.045 134.705 185.427 135.325C185.777 136.207 185.796 136.057 185.07 135.644C184.87 135.556 184.676 135.4 184.426 135.237C184.207 135.056 183.956 134.843 183.687 134.593C183.406 134.355 183.143 134.061 182.893 133.729C182.774 133.56 182.649 133.385 182.53 133.197C182.423 133.003 182.323 132.803 182.23 132.597C180.797 129.656 180.647 126.177 181.548 123.024C182.004 121.441 182.768 119.927 183.825 118.631C184.882 117.33 186.24 116.279 187.729 115.584C191.258 113.864 195.625 113.582 199.329 115.19C201.357 116.047 203.152 117.486 204.429 119.288C205.718 121.084 206.475 123.193 206.781 125.332C207.107 127.967 206.806 130.713 205.661 133.135C205.255 134.067 204.679 134.912 204.06 135.713C203.39 136.476 202.658 137.189 201.826 137.759C201.413 138.046 200.994 138.334 200.543 138.553L199.88 138.91L199.154 139.204C198.184 139.536 197.208 139.711 196.226 139.817C194.699 139.967 193.166 139.93 191.659 139.667C190.151 139.398 188.662 138.904 187.316 138.09C187.003 137.94 186.741 137.721 186.453 137.533C186.171 137.333 185.877 137.152 185.633 136.901C184.676 136.019 184.238 135.275 183.95 134.762C183.844 134.48 183.781 134.242 183.756 134.036C183.737 133.823 183.756 133.635 183.781 133.466C183.806 133.31 183.8 133.135 183.838 133.041C183.894 132.878 184.107 132.972 184.507 133.216C184.72 133.329 184.92 133.51 185.151 133.735C185.383 133.954 185.677 134.18 185.965 134.468C187.723 136.088 189.888 137.195 192.291 137.583C193.486 137.771 194.724 137.809 195.945 137.677C196.551 137.621 197.152 137.502 197.728 137.358C198.003 137.277 198.291 137.195 198.541 137.095L198.91 136.945L199.298 136.732C202.458 135.112 204.51 131.74 204.667 128.042H204.723L204.698 128.035Z" fill="#231F20"/>
<path d="M187.986 112.749C188.08 112.812 187.986 112.949 187.811 113.118C187.754 113.175 187.56 113.268 187.517 113.262C187.429 113.243 187.341 113.231 187.266 113.206C187.241 113.2 187.122 113.106 186.979 112.999C186.847 112.893 186.728 112.755 186.653 112.693C186.516 112.568 186.422 112.424 186.334 112.274L185.783 111.366C185.746 111.298 185.715 111.222 185.702 111.141C185.658 110.86 185.527 110.628 185.377 110.403C185.352 110.365 185.339 110.321 185.27 110.309C185.164 110.284 184.82 109.646 184.814 109.539C184.795 109.289 184.739 109.051 184.701 108.807C184.701 108.77 184.663 108.751 184.701 108.695C184.795 108.563 184.739 108.513 184.72 108.444C184.689 108.351 184.663 108.25 184.657 108.138C184.657 108.081 184.707 108 184.745 107.925C184.776 107.856 184.983 107.781 185.008 107.781C185.089 107.787 185.164 107.712 185.245 107.662C185.27 107.65 185.308 107.625 185.327 107.618C185.377 107.6 185.971 107.938 185.996 108C185.996 108 186.121 108.182 186.253 108.369C186.384 108.557 186.522 108.751 186.553 108.782C186.591 108.82 186.584 108.882 186.584 108.932C186.584 108.957 186.997 109.502 187.004 109.533C187.054 109.664 187.16 109.765 187.11 109.946C187.097 109.984 187.116 110.002 187.135 110.027C187.254 110.234 187.316 110.472 187.391 110.703C187.429 110.822 187.498 110.922 187.548 111.035C187.554 111.054 187.548 111.085 187.548 111.104C187.548 111.135 187.548 111.166 187.56 111.191C187.698 111.448 187.767 111.735 187.936 111.98C187.967 112.036 188.005 112.38 188.036 112.449C188.055 112.486 187.936 112.705 187.98 112.73L187.986 112.749Z" fill="#231F20"/>
<path d="M202.984 113.957C202.959 114.051 202.809 114.038 202.627 113.982C202.571 113.963 202.44 113.857 202.433 113.819C202.421 113.744 202.408 113.669 202.402 113.594C202.39 113.544 202.558 113.019 202.608 112.837C202.652 112.649 202.727 112.493 202.84 112.368L203.459 111.529C203.509 111.467 203.566 111.417 203.635 111.373C203.866 111.223 204.041 111.023 204.185 110.804C204.21 110.766 204.248 110.735 204.235 110.672C204.223 110.566 204.68 110.015 204.767 109.965C204.992 109.859 205.186 109.727 205.399 109.609C205.43 109.59 205.437 109.552 205.499 109.571C205.643 109.609 205.674 109.546 205.731 109.502C205.806 109.44 205.893 109.383 205.993 109.34C206.044 109.321 206.131 109.34 206.206 109.34C206.275 109.346 206.406 109.502 206.413 109.527C206.425 109.602 206.519 109.64 206.582 109.696C206.6 109.715 206.632 109.74 206.644 109.759C206.675 109.796 206.544 110.441 206.507 110.478C206.507 110.478 206.381 110.653 206.256 110.829C206.137 111.004 206.018 111.192 205.981 111.235C205.956 111.279 205.9 111.292 205.856 111.317C205.831 111.329 205.474 111.874 205.455 111.886C205.355 111.974 205.299 112.105 205.124 112.13C205.092 112.13 205.074 112.161 205.061 112.18C204.917 112.362 204.736 112.505 204.561 112.662C204.473 112.743 204.404 112.837 204.329 112.925C204.317 112.943 204.285 112.943 204.267 112.956C204.242 112.968 204.21 112.981 204.198 113C204.016 113.213 203.81 113.406 203.628 113.619C203.585 113.669 203.272 113.813 203.234 113.876C203.209 113.913 202.984 113.907 202.978 113.951L202.984 113.957Z" fill="#231F20"/>
<path d="M177.795 127.56C177.92 127.541 177.989 127.685 178.001 127.892C178.001 127.96 177.939 128.129 177.907 128.148C177.832 128.186 177.763 128.23 177.713 128.255C177.676 128.255 177.163 128.373 176.988 128.474C176.819 128.561 176.65 128.586 176.468 128.611C176.099 128.668 175.724 128.743 175.348 128.811C175.267 128.83 175.179 128.811 175.098 128.799C174.804 128.73 174.516 128.755 174.228 128.818C174.178 128.83 174.128 128.824 174.091 128.887C174.022 128.98 173.246 129.087 173.14 129.062C172.877 128.993 172.614 128.968 172.351 128.912C172.314 128.905 172.276 128.93 172.239 128.868C172.145 128.724 172.07 128.761 171.988 128.755C171.876 128.755 171.763 128.736 171.65 128.699C171.594 128.68 171.532 128.599 171.469 128.542C171.413 128.486 171.413 128.261 171.425 128.236C171.469 128.161 171.413 128.061 171.4 127.967C171.4 127.935 171.388 127.898 171.388 127.873C171.388 127.817 171.97 127.347 172.038 127.341C172.038 127.341 172.101 127.322 172.189 127.304C172.276 127.285 172.395 127.253 172.52 127.228C172.764 127.172 173.021 127.116 173.071 127.097C173.127 127.078 173.183 127.11 173.24 127.122C173.265 127.122 174.003 126.947 174.034 126.953C174.191 126.953 174.341 126.891 174.51 127.009C174.541 127.034 174.572 127.022 174.604 127.016C174.873 126.978 175.142 127.003 175.411 127.041C175.549 127.059 175.686 127.041 175.824 127.041C175.849 127.041 175.874 127.059 175.899 127.066C175.93 127.078 175.961 127.091 175.993 127.091C176.318 127.091 176.643 127.135 177 127.147C177.081 127.147 177.463 127.347 177.557 127.36C177.613 127.366 177.751 127.56 177.801 127.554L177.795 127.56Z" fill="#231F20"/>
<path d="M205.937 146.548C206.037 146.592 205.981 146.729 205.85 146.911C205.806 146.967 205.637 147.086 205.593 147.08C205.512 147.073 205.437 147.061 205.368 147.042C205.33 147.03 204.905 146.698 204.742 146.592C204.592 146.492 204.467 146.366 204.348 146.241C204.116 145.979 203.847 145.734 203.641 145.44C203.591 145.378 203.56 145.309 203.535 145.228C203.453 144.959 203.303 144.733 203.128 144.521C203.097 144.483 203.078 144.439 203.015 144.433C202.903 144.421 202.49 143.789 202.471 143.689C202.415 143.401 202.371 143.182 202.321 142.938C202.321 142.9 202.277 142.881 202.321 142.825C202.415 142.694 202.358 142.637 202.34 142.569C202.308 142.468 202.283 142.362 202.283 142.249C202.283 142.193 202.333 142.112 202.377 142.043C202.415 141.98 202.615 141.918 202.646 141.924C202.727 141.937 202.803 141.868 202.884 141.824C202.909 141.811 202.946 141.793 202.971 141.786C203.022 141.774 203.578 142.106 203.603 142.156C203.603 142.156 203.722 142.325 203.847 142.493C203.979 142.662 204.11 142.838 204.141 142.869C204.179 142.9 204.173 142.963 204.179 143.013C204.179 143.038 204.598 143.532 204.611 143.557C204.667 143.682 204.78 143.764 204.748 143.945C204.748 143.983 204.761 144.001 204.78 144.02C204.917 144.208 205.005 144.427 205.111 144.64C205.168 144.746 205.236 144.84 205.299 144.946C205.312 144.965 205.305 144.996 205.312 145.015C205.312 145.046 205.318 145.078 205.33 145.103C205.48 145.347 205.581 145.622 205.762 145.847C205.8 145.897 205.875 146.235 205.925 146.291C205.95 146.323 205.9 146.529 205.943 146.548H205.937Z" fill="#231F20"/>
<path d="M222.223 105.591C222.279 105.673 222.167 105.766 221.979 105.854C221.916 105.885 221.735 105.904 221.704 105.879C221.641 105.835 221.572 105.791 221.522 105.748C221.497 105.723 221.234 105.235 221.116 105.072C221.009 104.909 220.928 104.747 220.89 104.578C220.846 104.234 220.79 103.889 220.759 103.545C220.753 103.47 220.759 103.389 220.784 103.314C220.872 103.045 220.859 102.788 220.821 102.519C220.815 102.475 220.821 102.432 220.765 102.388C220.671 102.319 220.653 101.599 220.696 101.506C220.803 101.28 220.872 101.049 220.984 100.83C220.997 100.799 220.984 100.761 221.053 100.736C221.216 100.68 221.197 100.605 221.216 100.536C221.241 100.442 221.278 100.342 221.335 100.254C221.366 100.21 221.453 100.167 221.528 100.129C221.597 100.091 221.816 100.135 221.841 100.154C221.91 100.204 222.017 100.179 222.11 100.185C222.142 100.185 222.185 100.185 222.21 100.192C222.261 100.204 222.63 100.767 222.636 100.824C222.648 100.842 222.724 101.618 222.742 101.706C222.755 101.75 222.717 101.8 222.692 101.843C222.68 101.868 222.774 102.482 222.767 102.507C222.742 102.632 222.799 102.763 222.661 102.888C222.636 102.913 222.642 102.938 222.642 102.963C222.661 103.182 222.605 103.408 222.58 103.627C222.561 103.739 222.58 103.852 222.58 103.964C222.58 103.983 222.561 104.008 222.555 104.027C222.542 104.052 222.53 104.077 222.53 104.108C222.542 104.24 222.53 104.377 222.53 104.515C222.505 104.653 222.486 104.79 222.492 104.922C222.492 104.984 222.342 105.297 222.354 105.366C222.354 105.404 222.198 105.554 222.229 105.591H222.223Z" fill="#231F20"/>
<path d="M224.784 106.761C224.771 106.843 224.665 106.78 224.496 106.636C224.446 106.593 224.321 106.43 224.314 106.392C224.308 106.323 224.302 106.261 224.302 106.205C224.302 106.173 224.502 105.86 224.565 105.748C224.627 105.635 224.708 105.554 224.796 105.479C224.971 105.329 225.146 105.166 225.334 105.022C225.378 104.991 225.422 104.966 225.478 104.959C225.666 104.928 225.81 104.828 225.954 104.722C225.979 104.703 226.01 104.697 226.01 104.64C226.01 104.547 226.435 104.309 226.51 104.315C226.686 104.321 226.848 104.302 227.017 104.302C227.042 104.302 227.055 104.277 227.099 104.321C227.192 104.421 227.23 104.384 227.274 104.371C227.336 104.359 227.405 104.353 227.48 104.371C227.518 104.378 227.574 104.44 227.63 104.484C227.674 104.521 227.737 104.715 227.737 104.74C227.737 104.809 227.793 104.891 227.824 104.966C227.837 104.991 227.849 105.028 227.856 105.047C227.868 105.097 227.68 105.541 227.649 105.554C227.649 105.554 227.543 105.629 227.424 105.704C227.311 105.785 227.199 105.867 227.18 105.892C227.161 105.917 227.117 105.898 227.086 105.892C227.067 105.892 226.761 106.155 226.742 106.161C226.661 106.186 226.611 106.267 226.479 106.198C226.454 106.186 226.442 106.198 226.429 106.205C226.31 106.28 226.154 106.298 226.016 106.342C225.941 106.361 225.885 106.411 225.816 106.442C225.803 106.442 225.785 106.442 225.766 106.442C225.747 106.442 225.722 106.442 225.71 106.442C225.559 106.53 225.378 106.574 225.253 106.699C225.222 106.724 224.996 106.736 224.965 106.774C224.946 106.793 224.79 106.724 224.784 106.755V106.761Z" fill="#231F20"/>
<rect x="141.385" y="72.4479" width="109.424" height="109.424" rx="54.7118" stroke="#E5E5E5" stroke-width="1.04213"/>
<rect x="334.219" y="74.4074" width="109.391" height="101.336" fill="white" stroke="#E5E5E5" stroke-width="0.792453"/>
<rect x="339.417" y="79.618" width="97.9567" height="90.915" fill="#EDEDED" stroke="#E5E5E5" stroke-width="0.792453"/>
<path d="M367.489 119.091C367.679 118.196 367.879 117.3 368.21 116.388C368.296 116.16 368.383 115.932 368.507 115.693C368.561 115.579 368.632 115.454 368.713 115.329C368.778 115.21 368.903 115.074 369.022 114.949C369.433 114.624 369.823 114.314 370.251 114.097C370.403 114.01 370.554 113.918 370.711 113.836L371.177 113.619L371.642 113.402L372.119 113.228C373.245 112.827 374.393 112.561 375.536 112.338C376.684 112.11 377.832 111.958 378.985 111.812C380.008 111.692 381.032 111.562 382.044 111.464C383.344 111.345 384.66 111.149 385.981 111.345C386.392 111.432 386.333 111.594 385.992 111.85C385.824 111.985 385.586 112.11 385.299 112.24C385.012 112.376 384.676 112.468 384.308 112.496C383.003 112.599 381.698 112.724 380.393 112.87C379.088 113 377.783 113.152 376.472 113.332C374.913 113.554 373.321 114.021 371.881 114.629L371.291 114.89C371.096 114.982 370.922 115.096 370.738 115.194L370.462 115.351L370.218 115.536L369.975 115.72L369.856 115.812C369.856 115.812 369.812 115.861 369.791 115.883C369.59 116.111 369.417 116.534 369.276 116.925C369.135 117.327 369.011 117.751 368.903 118.179C368.626 119.233 368.432 120.324 368.264 121.415C368.009 123.071 367.798 124.743 367.657 126.404C367.544 127.696 367.554 128.972 367.468 130.247C367.451 130.53 367.441 130.806 367.424 131.089C367.338 132.136 367.164 132.462 366.953 132.679C366.905 132.728 366.856 132.793 366.807 132.826C366.672 132.924 366.509 132.484 366.406 131.697C366.336 131.116 366.336 130.53 366.309 129.938C366.287 129.346 366.282 128.744 366.32 128.146C366.379 126.947 366.471 125.731 366.607 124.509C366.813 122.701 367.083 120.894 367.441 119.081H367.473L367.489 119.091Z" fill="#231F20"/>
<path d="M385.634 158.224C383.056 146.541 390.68 147.6 390.919 147.475C390.919 147.475 387.924 145.401 385.39 147.437C382.726 149.581 382.764 150.835 382.601 153.343C382.439 155.851 382.601 158.131 382.601 158.131L385.628 158.224H385.634Z" fill="#231F20"/>
<path d="M374.691 120.671C374.61 120.834 373.17 125.003 373.814 125.893C374.101 126.29 381.157 126.219 381.72 125.855C382.283 125.492 382.851 127.392 381.032 127.554C379.213 127.717 372.498 127.424 372.347 126.946C372.195 126.469 371.724 121.268 372.347 121.002C372.97 120.736 374.686 120.676 374.686 120.676L374.691 120.671Z" fill="#231F20"/>
<path d="M375.232 135.823C375.151 135.986 373.711 140.155 374.355 141.045C374.642 141.442 381.698 141.371 382.261 141.007C382.824 140.644 383.392 142.544 381.573 142.707C379.754 142.869 373.039 142.576 372.888 142.099C372.736 141.621 372.265 136.42 372.888 136.154C373.511 135.888 375.227 135.829 375.227 135.829L375.232 135.823Z" fill="#231F20"/>
<path d="M396.155 135.823C396.074 135.986 394.634 140.155 395.278 141.045C395.565 141.442 402.621 141.371 403.184 141.007C403.747 140.644 404.315 142.544 402.496 142.707C400.682 142.869 393.962 142.576 393.811 142.099C393.659 141.621 393.188 136.42 393.811 136.154C394.433 135.888 396.15 135.829 396.15 135.829L396.155 135.823Z" fill="#231F20"/>
<path d="M396.155 120.671C396.074 120.834 395.159 124.922 395.803 125.812C396.09 126.208 402.621 126.219 403.184 125.85C403.747 125.481 404.315 127.386 402.496 127.549C400.677 127.712 393.962 127.419 393.811 126.941C393.659 126.463 393.188 121.263 393.811 120.997C394.433 120.731 396.15 120.671 396.15 120.671H396.155Z" fill="#231F20"/>
<path d="M366.429 126.078C366.565 123.929 366.711 121.784 366.938 119.635C366.987 119.097 367.057 118.56 367.122 118.022C367.187 117.485 367.247 116.947 367.339 116.41L367.463 115.601L367.496 115.4L367.512 115.297L367.555 115.123C367.61 114.89 367.723 114.694 367.832 114.515C368.314 113.837 368.882 113.544 369.413 113.272C370.198 112.892 370.978 112.648 371.757 112.425C372.537 112.208 373.317 112.04 374.102 111.91C376.863 111.443 379.625 111.231 382.386 111.095C385.148 110.965 387.904 110.932 390.66 110.97C393.108 111.008 395.566 111.052 397.992 111.204C399.551 111.307 401.111 111.426 402.67 111.638C403.45 111.736 404.224 111.872 404.993 112.056C405.762 112.23 406.525 112.447 407.262 112.773C407.722 112.968 407.895 113.115 407.863 113.153C407.825 113.202 407.581 113.164 407.164 113.142C406.325 113.093 404.82 113.142 403.065 112.99C399.957 112.664 396.806 112.588 393.66 112.452C390.509 112.355 387.341 112.338 384.163 112.404C382.262 112.442 380.329 112.572 378.396 112.789C376.468 113.012 374.53 113.299 372.678 113.744C371.671 113.989 370.653 114.293 369.824 114.754C369.413 114.971 369.077 115.286 369.023 115.492C369.012 115.509 368.985 115.661 368.969 115.796L368.909 116.193L368.79 116.98C368.508 119.092 368.303 121.231 368.151 123.375C367.972 126.013 367.826 128.662 367.761 131.306C367.647 135.318 367.61 139.351 367.729 143.331C367.826 146.425 368.054 149.454 368.335 152.494C368.406 153.162 368.471 153.819 368.536 154.492C368.595 155.116 368.633 155.637 368.644 156.072C368.665 156.506 368.676 156.859 368.66 157.152C368.622 157.738 368.525 158.086 368.362 158.379C368.286 158.509 368.221 158.683 368.151 158.764C368.027 158.9 367.88 158.721 367.712 158.276C367.545 157.83 367.339 157.125 367.187 156.207C366.391 150.741 366.142 144.927 366.093 139.102C366.066 134.775 366.158 130.427 366.386 126.089H366.424L366.429 126.078Z" fill="#231F20"/>
<path d="M408.94 141.543C409.032 139.306 409.081 137.059 409.081 134.817C409.081 133.997 409.021 133.183 409.032 132.363C409.032 129.475 408.999 126.587 408.837 123.704C408.766 122.423 408.637 121.142 408.48 119.882C408.366 119.079 408.258 118.27 408.144 117.461L407.992 116.256C407.954 116.061 407.965 115.854 407.971 115.648C407.971 115.447 407.981 115.241 407.971 115.045C407.954 114.6 407.998 114.551 408.366 114.915C408.539 115.1 408.783 115.366 409.048 115.708C409.281 116.055 409.427 116.484 409.53 116.956C409.709 117.792 409.817 118.634 409.914 119.47C410.012 120.311 410.093 121.147 410.158 121.989C410.288 123.672 410.364 125.36 410.375 127.054C410.391 129.084 410.57 131.185 410.613 133.253C410.64 135.533 410.613 137.813 410.548 140.088C410.51 141.488 410.445 142.889 410.38 144.29C410.277 146.412 410.109 148.535 409.952 150.641C409.839 152.275 409.757 153.882 409.617 155.505C409.579 155.863 409.557 156.211 409.514 156.569C409.454 157.237 409.286 157.66 409.173 157.953C409.108 158.1 409.043 158.214 408.961 158.301C408.869 158.388 408.766 158.453 408.68 158.513C408.599 158.567 408.523 158.637 408.474 158.67C408.35 158.779 408.003 158.171 408.052 157.204C408.165 154.333 408.42 151.336 408.588 148.307C408.718 146.059 408.842 143.801 408.902 141.543H408.94Z" fill="#231F20"/>
<path d="M374.567 127.75L373.56 127.696L372.866 127.652C372.704 127.652 372.585 127.598 372.455 127.56C372.325 127.517 372.2 127.479 372.076 127.43C372 127.31 371.946 127.175 371.886 127.05C371.838 126.914 371.816 126.74 371.778 126.588C371.751 126.442 371.751 126.219 371.746 126.111L371.735 125.823L371.719 124.683C371.719 124.162 371.681 123.641 371.686 123.119L371.724 121.61L371.746 121.322C371.762 121.236 371.789 121.149 371.811 121.067C371.821 120.975 371.881 120.921 371.951 120.861C372.016 120.801 372.087 120.752 372.163 120.704C372.293 120.584 372.487 120.546 372.661 120.486C372.861 120.41 372.942 120.41 373.067 120.378C374.009 120.182 374.93 120.079 375.861 120.036C376.684 119.998 377.512 119.954 378.335 119.965C378.861 119.987 379.391 120.014 379.922 120.09C380.447 120.188 380.962 120.372 381.433 120.638C381.73 120.801 381.665 120.845 381.362 120.937C381.059 121.018 380.512 121.284 379.949 121.322C379.695 121.339 379.451 121.312 379.202 121.312H378.449C377.946 121.328 377.447 121.317 376.944 121.339C375.937 121.382 374.919 121.447 373.912 121.55C373.765 121.572 373.608 121.588 373.462 121.616L373.126 121.686C373.078 121.697 373.024 121.708 372.986 121.74C372.964 121.784 372.969 121.838 372.969 121.892L372.959 122.256V122.739C372.959 123.065 372.959 123.385 372.959 123.711V125.307L372.975 126.094C372.98 126.192 372.959 126.328 373.007 126.415C373.17 126.442 373.213 126.453 373.652 126.463C374.518 126.485 375.395 126.496 376.272 126.496C377.599 126.496 378.931 126.512 380.247 126.458C380.501 126.447 380.756 126.431 381.005 126.409L381.2 126.382L381.292 126.366C381.324 126.366 381.351 126.355 381.357 126.311C381.378 126.246 381.384 126.181 381.389 126.121V126.029L381.395 125.991L381.406 125.904C381.433 125.665 381.449 125.421 381.465 125.177C381.476 124.96 381.487 124.748 381.492 124.531C381.525 124.129 381.552 123.869 381.628 123.684C381.714 123.499 381.828 123.396 381.996 123.304C382.072 123.266 382.147 123.212 382.223 123.185C382.348 123.141 382.461 123.206 382.57 123.364C382.673 123.521 382.77 123.771 382.792 124.091C382.83 124.569 382.851 125.047 382.819 125.541C382.803 125.801 382.786 126.002 382.738 126.317C382.7 126.545 382.651 126.762 382.581 126.968C382.521 127.191 382.375 127.321 382.245 127.473C381.958 127.696 381.449 127.745 381.027 127.755L380.306 127.788C379.83 127.799 379.348 127.815 378.866 127.826C377.437 127.853 376.002 127.831 374.567 127.788V127.755V127.75Z" fill="#231F20"/>
<path d="M396.249 127.702L394.966 127.664L394.235 127.642C393.823 127.658 393.52 127.522 393.206 127.419C393.081 127.202 392.978 126.99 392.935 126.697C392.897 126.567 392.892 126.415 392.886 126.263L392.876 125.954L392.854 124.949C392.848 124.39 392.811 123.836 392.816 123.283L392.843 121.725C392.876 121.312 392.876 120.905 393.233 120.71C393.531 120.514 394.034 120.411 394.218 120.373C395.22 120.183 396.195 120.074 397.186 120.026C398.063 119.982 398.94 119.939 399.812 119.944C400.37 119.96 400.938 119.982 401.496 120.058C402.054 120.156 402.606 120.34 403.115 120.612C403.429 120.786 403.364 120.824 403.044 120.91C402.887 120.954 402.66 121.024 402.4 121.117C402.14 121.198 401.853 121.263 401.545 121.29C401.008 121.29 400.478 121.269 399.942 121.29C399.406 121.296 398.87 121.29 398.328 121.318C397.251 121.366 396.157 121.437 395.074 121.54C394.911 121.556 394.749 121.578 394.592 121.605L394.24 121.67C394.191 121.681 394.126 121.687 394.094 121.73C394.083 121.784 394.083 121.839 394.083 121.893L394.072 122.333V122.848C394.072 123.196 394.072 123.538 394.072 123.885V125.378L394.094 126.078C394.099 126.171 394.078 126.29 394.126 126.372C394.235 126.393 394.31 126.393 394.467 126.404L395.236 126.415C396.168 126.415 397.099 126.404 398.03 126.382L400.153 126.344L401.209 126.312L401.734 126.29L402.162 126.263C402.259 126.258 402.33 126.247 402.4 126.241C402.433 126.23 402.481 126.241 402.498 126.209C402.514 126.171 402.514 126.133 402.519 126.095C402.525 126.019 402.525 125.948 402.525 125.867V125.557C402.519 125.025 402.492 124.493 402.476 123.956C402.465 123.717 402.449 123.489 402.449 123.25C402.438 122.365 402.563 122.088 402.904 121.893C402.979 121.85 403.055 121.79 403.131 121.763C403.256 121.719 403.369 121.79 403.478 121.947C403.58 122.11 403.689 122.365 403.727 122.696C403.862 123.674 403.916 124.672 403.895 125.715C403.862 125.975 403.905 126.659 403.662 126.974C403.608 127.066 403.548 127.137 403.483 127.224L403.461 127.256V127.262C403.516 127.322 403.472 127.278 403.488 127.294H403.483L403.467 127.311L403.413 127.354C403.38 127.387 403.337 127.414 403.277 127.425C403.066 127.495 402.844 127.566 402.622 127.566L401.61 127.626L400.841 127.658C399.319 127.718 397.792 127.729 396.26 127.718V127.685L396.249 127.702Z" fill="#231F20"/>
<path d="M375.001 142.782L373.994 142.728L373.301 142.685C373.139 142.685 373.019 142.63 372.89 142.592C372.76 142.549 372.635 142.511 372.511 142.462C372.435 142.343 372.381 142.207 372.321 142.082C372.272 141.946 372.251 141.773 372.213 141.621C372.186 141.474 372.186 141.251 372.18 141.143L372.169 140.855L372.153 139.715C372.153 139.194 372.115 138.673 372.121 138.152L372.159 136.643L372.18 136.355C372.196 136.268 372.224 136.181 372.245 136.1C372.256 136.007 372.316 135.953 372.386 135.893C372.451 135.834 372.521 135.785 372.597 135.736C372.727 135.617 372.922 135.579 373.095 135.519C373.296 135.443 373.377 135.443 373.501 135.41C374.444 135.215 375.364 135.112 376.295 135.068C377.118 135.03 377.947 134.987 378.77 134.998C379.295 135.019 379.826 135.047 380.356 135.123C380.882 135.22 381.396 135.405 381.867 135.671C382.165 135.834 382.1 135.877 381.797 135.969C381.494 136.051 380.947 136.317 380.384 136.355C380.129 136.371 379.885 136.344 379.636 136.344H378.884C378.38 136.36 377.882 136.349 377.378 136.371C376.371 136.415 375.353 136.48 374.346 136.583C374.2 136.605 374.043 136.621 373.897 136.648L373.561 136.719C373.512 136.729 373.458 136.74 373.42 136.773C373.399 136.816 373.404 136.871 373.404 136.925L373.393 137.289V137.772C373.393 138.097 373.393 138.418 373.393 138.743V140.339L373.409 141.127C373.415 141.224 373.393 141.36 373.442 141.447C373.604 141.474 373.648 141.485 374.086 141.496C374.953 141.517 375.83 141.528 376.707 141.528C378.034 141.528 379.366 141.545 380.681 141.49C380.936 141.479 381.19 141.463 381.439 141.441L381.634 141.414L381.726 141.398C381.759 141.398 381.786 141.387 381.791 141.344C381.813 141.279 381.818 141.213 381.824 141.154V141.061L381.829 141.023L381.84 140.937C381.867 140.698 381.883 140.453 381.9 140.209C381.911 139.992 381.921 139.78 381.927 139.563C381.959 139.161 381.986 138.901 382.062 138.716C382.149 138.532 382.262 138.429 382.43 138.336C382.506 138.298 382.582 138.244 382.658 138.217C382.782 138.173 382.896 138.239 383.004 138.396C383.107 138.553 383.205 138.803 383.226 139.123C383.264 139.601 383.286 140.079 383.253 140.573C383.237 140.833 383.221 141.034 383.172 141.349C383.134 141.577 383.086 141.794 383.015 142.001C382.956 142.223 382.809 142.353 382.679 142.505C382.392 142.728 381.883 142.777 381.461 142.788L380.741 142.82C380.264 142.831 379.783 142.847 379.301 142.858C377.871 142.885 376.436 142.864 375.001 142.82V142.788V142.782Z" fill="#231F20"/>
<path d="M396.68 142.739L395.396 142.701L394.665 142.679C394.254 142.696 393.951 142.56 393.636 142.457C393.512 142.24 393.409 142.028 393.366 141.735C393.328 141.604 393.322 141.452 393.317 141.3L393.306 140.991L393.285 139.987C393.279 139.428 393.241 138.874 393.247 138.32L393.274 136.762C393.306 136.349 393.306 135.942 393.664 135.747C393.961 135.551 394.465 135.448 394.649 135.41C395.651 135.22 396.625 135.112 397.616 135.063C398.494 135.019 399.371 134.976 400.242 134.981C400.8 134.998 401.369 135.019 401.926 135.095C402.484 135.193 403.037 135.378 403.545 135.649C403.86 135.823 403.795 135.861 403.475 135.948C403.318 135.991 403.091 136.062 402.831 136.154C402.571 136.235 402.284 136.301 401.975 136.328C401.439 136.328 400.909 136.306 400.372 136.328C399.836 136.333 399.3 136.328 398.759 136.355C397.681 136.404 396.588 136.474 395.505 136.577C395.342 136.594 395.18 136.615 395.023 136.643L394.671 136.708C394.622 136.719 394.557 136.724 394.525 136.767C394.514 136.822 394.514 136.876 394.514 136.93L394.503 137.37V137.886C394.503 138.233 394.503 138.575 394.503 138.923V140.416L394.525 141.116C394.53 141.208 394.508 141.328 394.557 141.409C394.665 141.431 394.741 141.431 394.898 141.442L395.667 141.452C396.598 141.452 397.53 141.442 398.461 141.42L400.584 141.382L401.639 141.349L402.165 141.328L402.592 141.3C402.69 141.295 402.76 141.284 402.831 141.279C402.863 141.268 402.912 141.279 402.928 141.246C402.944 141.208 402.944 141.17 402.95 141.132C402.955 141.056 402.955 140.986 402.955 140.904V140.595C402.95 140.063 402.923 139.531 402.907 138.993C402.896 138.754 402.879 138.526 402.879 138.288C402.869 137.403 402.993 137.126 403.334 136.93C403.41 136.887 403.486 136.827 403.562 136.8C403.686 136.757 403.8 136.827 403.908 136.985C404.011 137.148 404.119 137.403 404.157 137.734C404.293 138.711 404.347 139.71 404.325 140.752C404.293 141.013 404.336 141.697 404.092 142.012C404.038 142.104 403.979 142.174 403.914 142.261L403.892 142.294V142.299C403.946 142.359 403.903 142.316 403.919 142.332H403.914L403.897 142.348L403.843 142.392C403.811 142.424 403.767 142.451 403.708 142.462C403.497 142.533 403.275 142.603 403.053 142.603L402.04 142.663L401.271 142.696C399.75 142.755 398.223 142.766 396.69 142.755V142.723L396.68 142.739Z" fill="#231F20"/>
<path d="M412.773 157.367C413.109 157.416 413.45 157.454 413.796 157.481C413.921 157.492 414.045 157.46 414.175 157.471C414.625 157.519 415.08 157.536 415.534 157.585C415.735 157.601 415.935 157.585 416.136 157.574C416.39 157.563 416.65 157.585 416.915 157.671C416.996 157.699 416.996 157.802 416.942 157.937C416.888 158.068 416.785 158.269 416.644 158.355C416.52 158.421 416.401 158.497 416.276 158.551C416.152 158.583 416.022 158.611 415.892 158.632C415.637 158.67 415.377 158.708 415.107 158.649C414.787 158.594 414.468 158.687 414.143 158.703C413.786 158.719 413.428 158.714 413.065 158.703C412.843 158.703 412.621 158.681 412.394 158.67C412.053 158.654 411.717 158.605 411.376 158.6C411.111 158.589 410.834 158.649 410.564 158.616C410.504 158.605 410.445 158.616 410.385 158.583C410.174 158.48 410.131 158.366 410.158 158.111C410.163 158.051 410.168 157.997 410.179 157.943C410.212 157.764 410.342 157.623 410.504 157.536C410.748 157.395 410.954 157.329 411.165 157.302C411.376 157.264 411.582 157.275 411.798 157.286C412.123 157.302 412.453 157.324 412.784 157.34V157.373L412.773 157.367Z" fill="#231F20"/>
<path d="M391.597 148.42L391.202 148.149L390.763 147.948C390.482 147.785 390.135 147.753 389.821 147.65C389.491 147.584 389.144 147.574 388.803 147.53H388.284C388.11 147.541 387.948 147.568 387.775 147.579C387.287 147.655 386.827 147.818 386.399 148.019C386.026 148.209 385.674 148.448 385.36 148.735C385.051 149.034 384.78 149.381 384.536 149.761C384.065 150.532 383.751 151.428 383.54 152.356C383.351 153.181 383.297 154.045 383.253 154.897C383.226 155.445 383.237 155.999 383.232 156.553C383.232 157.106 383.226 157.665 383.069 158.235C382.939 158.594 382.815 158.529 382.566 158.235C382.436 158.089 382.295 157.883 382.143 157.633C382.013 157.383 381.937 157.085 381.916 156.759C381.77 154.463 381.927 151.976 383.102 149.729C383.459 149.066 383.881 148.41 384.434 147.834C384.986 147.264 385.684 146.808 386.432 146.548C387.255 146.26 388.11 146.173 388.933 146.206C389.756 146.265 390.601 146.379 391.381 146.732C392.339 147.134 393.2 147.807 393.796 148.648C394.722 149.913 395.128 151.417 395.393 152.861C395.577 153.99 395.74 155.114 395.756 156.243C395.767 156.493 395.772 156.737 395.75 156.987C395.729 157.22 395.713 157.41 395.675 157.568C395.631 157.725 395.561 157.85 395.507 157.953C395.388 158.154 395.269 158.263 395.117 158.344C395.052 158.382 394.987 158.431 394.933 158.453C394.765 158.518 394.575 158.121 394.424 157.459C394.294 156.487 394.288 155.521 394.164 154.555C394.045 153.594 393.893 152.639 393.65 151.727C393.438 151.07 393.222 150.407 392.864 149.854C392.713 149.55 392.491 149.327 392.296 149.061C392.188 148.942 392.063 148.844 391.949 148.735L391.776 148.572C391.711 148.524 391.641 148.486 391.576 148.442L391.592 148.41L391.597 148.42Z" fill="#231F20"/>
<path d="M387.994 158.994L380.744 158.842L378.102 158.831C374.994 158.76 371.891 158.684 368.783 158.668C367.407 158.668 366.021 158.711 364.657 158.76C362.902 158.804 361.159 158.956 359.399 158.809C358.841 158.755 358.912 158.777 359.35 158.57C359.783 158.331 360.617 157.87 361.635 157.696C365.242 157.257 368.842 157.305 372.465 157.403C374.631 157.479 376.889 157.392 379.103 157.398C381.54 157.398 383.977 157.441 386.413 157.474C387.913 157.495 389.413 157.512 390.907 157.533C393.176 157.555 395.456 157.599 397.708 157.566C399.457 157.544 401.174 157.425 402.907 157.343C403.286 157.327 403.659 157.295 404.044 157.284C405.468 157.246 405.923 157.338 406.231 157.767C406.302 157.859 406.394 157.951 406.437 158.038C406.578 158.326 405.998 158.652 404.953 158.739C401.856 159.043 398.591 159.086 395.315 159.091C392.878 159.091 390.436 159.053 387.994 159.032V158.994Z" fill="#231F20"/>
<path d="M382.727 104.654C385.695 102.705 389.393 102.575 392.306 104.697C392.653 104.947 393.178 104.752 393.378 104.415C393.616 104.019 393.438 103.585 393.097 103.34C389.766 100.908 385.321 101.066 381.931 103.297C381.092 103.851 381.877 105.213 382.722 104.654H382.727Z" fill="#231F20"/>
<path d="M375.243 100.893C378.838 98.5096 383.019 97.0548 387.345 96.9679C391.671 96.881 396.171 98.3305 399.804 101.001C400.719 101.675 401.597 100.144 400.692 99.4759C394.677 95.0462 386.841 94.069 379.846 96.5987C377.912 97.299 376.066 98.2273 374.355 99.3619C373.413 99.9862 374.295 101.512 375.243 100.887V100.893Z" fill="#231F20"/>
<path d="M366.758 97.5213C376.288 91.186 388.374 88.9657 399.285 92.8472C402.512 93.9981 405.528 95.6701 408.284 97.7058C409.194 98.379 410.076 96.8481 409.172 96.1804C404.18 92.4835 398.342 90.1329 392.175 89.3837C386.008 88.6346 380.311 89.4652 374.783 91.4792C371.642 92.6246 368.648 94.1392 365.865 95.9904C364.923 96.6147 365.805 98.1456 366.753 97.5158L366.758 97.5213Z" fill="#231F20"/>
<path d="M387.785 106.012H387.699C387.552 106.006 387.412 106.039 387.287 106.104C387.157 106.148 387.038 106.224 386.941 106.327C386.838 106.424 386.762 106.538 386.719 106.674C386.654 106.804 386.621 106.94 386.627 107.087L386.664 107.374C386.713 107.554 386.805 107.716 386.941 107.847L387.157 108.015C387.325 108.113 387.504 108.162 387.699 108.162H387.785C387.932 108.167 388.072 108.134 388.197 108.069C388.327 108.026 388.446 107.95 388.543 107.847C388.646 107.749 388.722 107.635 388.765 107.499C388.83 107.369 388.863 107.233 388.857 107.087L388.82 106.799C388.771 106.62 388.679 106.457 388.543 106.327L388.327 106.158C388.159 106.061 387.98 106.012 387.785 106.012Z" fill="#231F20"/>
<path d="M387.849 65.6741V49H194.012" stroke="#C7C7C7" stroke-width="1.04213" stroke-dasharray="2.08 2.08"/>
<path d="M197.14 187.603V202.193L387.849 202.193" stroke="#C7C7C7" stroke-width="1.04213" stroke-dasharray="2.08 2.08"/>
<rect x="0.5" y="0.5" width="584.5" height="239" rx="3.5" stroke="#E5E5E5"/>
</svg>
