<svg width="586" height="210" viewBox="0 0 586 210" fill="none" xmlns="http://www.w3.org/2000/svg">
<rect x="0.5" y="0.693115" width="584.5" height="208.193" rx="3.5" fill="white"/>
<rect x="147.5" y="56.5" width="105" height="105" rx="52.5" fill="white"/>
<path d="M208.254 105.535C208.038 119.206 191.095 118.822 190.05 108.537C189.21 100.252 198.756 97.2436 202.232 99.1949C202.232 99.1949 200.995 96.5772 197.237 97.4117C193.479 98.2463 188.934 99.7833 187.325 103.782C185.715 107.78 186.682 111.407 187.325 113.568C187.967 115.73 190.369 118.257 192.836 119.416C195.304 120.575 199.494 121.055 202.022 119.86C204.55 118.666 207.119 116.402 208.176 114.397C209.233 112.391 209.785 109.45 209.515 107.865C209.245 106.279 208.254 105.547 208.254 105.547V105.535Z" fill="#231F20"/>
<path d="M178.025 96.9134C175.432 98.4564 173.438 97.6339 172.922 95.5505C172.406 93.4672 174.645 91.9662 176.35 92.3264C176.35 92.3264 173.288 90.3752 171.391 92.5486C170.07 94.0616 170.641 96.313 170.971 96.9134C171.301 97.5138 173.168 99.6092 175.252 99.0808C177.329 98.5525 178.031 96.9134 178.031 96.9134H178.025Z" fill="#231F20"/>
<path d="M196.066 85.0733C197.537 85.7158 199.915 85.9139 200.779 83.6624C201.608 81.519 200.395 80.1381 198.654 79.0394C198.654 79.0394 200.761 78.409 201.764 79.5077C202.767 80.6064 202.911 81.5731 203.049 82.7558C203.187 83.9386 202.539 85.4516 201.8 86.136C201.062 86.8145 198.12 86.8625 197.231 86.5323C196.343 86.2021 196.066 85.0673 196.066 85.0673V85.0733Z" fill="#231F20"/>
<path d="M224.651 96.7212C224.518 94.944 223.294 93.6171 221.21 93.9534C219.415 94.2416 218.268 96.6491 219.283 98.2762C219.283 98.2762 217.884 97.7238 217.788 96.0367C217.692 94.3496 217.854 92.8667 220.052 91.9721C222.255 91.0775 224.014 92.0922 224.464 92.5004C224.915 92.9087 225.557 95.2982 225.557 95.2982L224.651 96.7152V96.7212Z" fill="#231F20"/>
<path d="M223.972 122.405C222.435 125.467 220.418 125.167 219.463 124.765C218.046 124.17 216.858 122.531 218.022 120.232C218.022 120.232 216.029 121.426 216.155 123.786C216.275 126.146 218.479 126.926 219.361 127.052C220.244 127.178 222.225 126.704 222.862 125.839C223.498 124.975 223.972 122.411 223.972 122.411V122.405Z" fill="#231F20"/>
<path d="M201.271 138.143C198.888 139.001 197.056 138.071 196.492 136.456C195.85 134.619 196.984 132.751 198.455 132.229C198.455 132.229 196.186 131.617 194.445 134.006C192.698 136.396 194.301 138.371 194.775 138.815C195.249 139.26 196.156 140.202 197.399 140.244C198.642 140.286 200.329 139.974 200.527 139.566C200.725 139.157 201.277 138.143 201.277 138.143H201.271Z" fill="#231F20"/>
<path d="M178.001 124.699C178.463 122.838 177.082 120.538 174.639 120.844C173.114 121.036 171.294 122.495 171.631 125.005C171.631 125.005 170.124 123.504 170.706 121.301C171.288 119.097 173.648 118.353 174.963 118.785C176.278 119.217 177.677 119.283 178.055 120.076C178.433 120.862 178.781 123.294 178.781 123.294L177.989 124.705L178.001 124.699Z" fill="#231F20"/>
<path d="M197.645 93.6456C197.723 93.0752 197.783 92.4928 197.819 91.9044C197.831 91.6883 197.789 91.4782 197.807 91.262C197.855 90.4995 197.933 89.731 198.011 88.9625C198.041 88.6203 198.023 88.2781 198.011 87.9419C197.999 87.7257 198.005 87.5096 198.017 87.2934C198.023 87.1854 198.041 87.0773 198.059 86.9692C198.071 86.8612 198.167 86.7471 198.215 86.639C198.299 86.5009 198.359 86.5189 198.534 86.627C198.666 86.7051 198.792 86.7831 198.9 86.8431C199.026 86.9332 199.11 87.0413 199.152 87.1613C199.218 87.3775 199.302 87.5876 199.356 87.8038C199.392 88.0199 199.428 88.236 199.452 88.4462C199.5 88.8785 199.524 89.3107 199.488 89.755C199.416 90.2894 199.548 90.8297 199.572 91.3761C199.596 91.9765 199.596 92.5829 199.584 93.1893C199.584 93.5615 199.554 93.9398 199.53 94.312C199.494 94.8764 199.422 95.4467 199.416 96.0051C199.416 96.4434 199.494 96.8757 199.506 97.314C199.506 97.41 199.524 97.5061 199.518 97.6021C199.5 97.7823 199.458 97.8963 199.338 97.9624C199.254 97.9924 199.176 98.0164 199.086 98.0344C199.02 98.0524 198.936 98.0644 198.846 98.0704C198.762 98.0764 198.684 98.0885 198.606 98.0885C198.48 98.0885 198.366 98.0464 198.251 97.9684C198.173 97.9143 198.095 97.8663 198.029 97.8243C197.921 97.7642 197.927 97.7102 197.891 97.6442C197.747 97.2599 197.651 96.8757 197.585 96.4914C197.531 96.1132 197.549 95.7349 197.543 95.3507C197.561 94.7803 197.579 94.2099 197.597 93.6396H197.645V93.6456Z" fill="#231F20"/>
<path d="M199.488 125.258C199.41 125.828 199.338 126.404 199.296 126.987C199.278 127.197 199.32 127.407 199.296 127.623C199.236 128.374 199.151 129.142 199.067 129.905C199.037 130.241 199.049 130.583 199.067 130.913C199.079 131.13 199.073 131.346 199.061 131.556C199.055 131.664 199.037 131.772 199.019 131.88C199.007 131.988 198.911 132.102 198.863 132.21C198.779 132.348 198.719 132.33 198.545 132.228C198.413 132.15 198.281 132.072 198.179 132.012C198.053 131.922 197.969 131.814 197.921 131.694C197.855 131.484 197.771 131.268 197.717 131.057C197.68 130.841 197.65 130.631 197.62 130.415C197.572 129.983 197.554 129.55 197.596 129.106C197.674 128.578 197.548 128.037 197.53 127.491C197.512 126.897 197.524 126.296 197.542 125.69C197.542 125.318 197.584 124.945 197.602 124.579C197.638 124.015 197.711 123.457 197.717 122.898C197.711 122.466 197.632 122.034 197.62 121.601C197.62 121.505 197.602 121.409 197.608 121.319C197.626 121.145 197.662 121.031 197.783 120.959C197.867 120.929 197.945 120.905 198.035 120.887C198.101 120.869 198.185 120.857 198.275 120.845C198.359 120.839 198.437 120.821 198.509 120.821C198.635 120.821 198.749 120.857 198.863 120.935C198.941 120.989 199.019 121.031 199.091 121.079C199.199 121.139 199.193 121.193 199.236 121.259C199.386 121.643 199.482 122.028 199.554 122.406C199.608 122.784 199.596 123.168 199.596 123.547C199.578 124.111 199.554 124.681 199.536 125.252H199.488V125.258Z" fill="#231F20"/>
<path d="M211.046 100.318C211.658 100.054 212.277 99.7598 212.883 99.4536C213.105 99.3396 213.297 99.1775 213.52 99.0694C214.306 98.6731 215.117 98.2889 215.933 97.9166C216.287 97.7425 216.63 97.5384 216.96 97.3343C217.176 97.2022 217.398 97.0881 217.626 96.974C217.74 96.92 217.86 96.872 217.98 96.8299C218.095 96.7819 218.257 96.8059 218.395 96.7879C218.575 96.7879 218.587 96.8539 218.557 97.0641C218.539 97.2202 218.515 97.3763 218.503 97.5084C218.467 97.6705 218.395 97.8026 218.293 97.9046C218.107 98.0847 217.932 98.2709 217.74 98.439C217.542 98.5891 217.344 98.7452 217.134 98.8893C216.726 99.1775 216.299 99.4476 215.837 99.6698C215.267 99.9159 214.786 100.342 214.252 100.684C213.664 101.051 213.057 101.399 212.451 101.747C212.073 101.957 211.688 102.155 211.298 102.348C210.716 102.648 210.097 102.9 209.521 103.212C209.071 103.452 208.65 103.758 208.182 103.981C208.08 104.029 207.984 104.101 207.876 104.137C207.672 104.203 207.528 104.221 207.402 104.143C207.33 104.077 207.275 104.017 207.215 103.945C207.167 103.891 207.119 103.818 207.077 103.74C207.035 103.668 206.987 103.602 206.957 103.536C206.903 103.422 206.903 103.302 206.933 103.158C206.951 103.098 206.969 102.996 206.993 102.888C207.011 102.762 207.071 102.744 207.119 102.678C207.45 102.378 207.792 102.101 208.14 101.855C208.5 101.621 208.879 101.423 209.263 101.219C209.845 100.907 210.428 100.594 211.004 100.282L211.028 100.324L211.046 100.318Z" fill="#231F20"/>
<path d="M210.908 117.698C211.442 118.052 211.977 118.407 212.523 118.749C212.721 118.875 212.943 118.947 213.135 119.073C213.832 119.517 214.51 119.992 215.195 120.46C215.501 120.658 215.825 120.82 216.149 120.976C216.359 121.078 216.564 121.187 216.762 121.307C216.864 121.367 216.96 121.433 217.05 121.505C217.146 121.565 217.212 121.709 217.29 121.805C217.38 121.949 217.338 121.997 217.158 122.099C217.026 122.177 216.888 122.255 216.78 122.315C216.636 122.381 216.492 122.399 216.353 122.381C216.113 122.333 215.873 122.297 215.639 122.237C215.417 122.159 215.195 122.075 214.973 121.985C214.534 121.805 214.114 121.595 213.712 121.325C213.243 120.982 212.673 120.808 212.151 120.544C211.58 120.256 211.016 119.944 210.452 119.638L209.419 119.061C208.897 118.773 208.38 118.467 207.834 118.233C207.408 118.058 206.951 117.968 206.519 117.818C206.423 117.788 206.321 117.77 206.231 117.728C206.063 117.65 205.961 117.572 205.931 117.434C205.931 117.338 205.931 117.26 205.937 117.17C205.937 117.098 205.955 117.014 205.973 116.924C205.991 116.84 206.003 116.762 206.021 116.69C206.057 116.57 206.135 116.473 206.249 116.389C206.327 116.329 206.399 116.281 206.465 116.227C206.561 116.149 206.615 116.173 206.699 116.161C207.149 116.161 207.582 116.221 208.002 116.317C208.416 116.425 208.813 116.6 209.203 116.774C209.785 117.038 210.356 117.338 210.92 117.638L210.902 117.68L210.908 117.698Z" fill="#231F20"/>
<path d="M184.1 101.133C183.578 100.827 183.05 100.52 182.509 100.238C182.311 100.136 182.095 100.082 181.897 99.9741C181.2 99.6018 180.504 99.1996 179.813 98.8033C179.501 98.6292 179.177 98.5031 178.853 98.371C178.643 98.287 178.439 98.1969 178.24 98.0889C178.138 98.0348 178.042 97.9748 177.946 97.9147C177.85 97.8607 177.784 97.7226 177.7 97.6326C177.604 97.4945 177.646 97.4464 177.814 97.3324C177.94 97.2483 178.066 97.1583 178.168 97.0922C178.306 97.0142 178.445 96.9841 178.577 96.9961C178.805 97.0262 179.045 97.0382 179.267 97.0802C179.483 97.1402 179.705 97.2003 179.921 97.2663C180.354 97.4044 180.774 97.5725 181.176 97.7947C181.651 98.0889 182.215 98.2029 182.737 98.4131C183.308 98.6472 183.878 98.9054 184.448 99.1636C184.797 99.3197 185.139 99.4998 185.487 99.6679C186.009 99.9261 186.52 100.214 187.054 100.436C187.474 100.598 187.919 100.695 188.339 100.851C188.435 100.881 188.531 100.905 188.621 100.947C188.783 101.031 188.879 101.109 188.903 101.247C188.903 101.337 188.903 101.421 188.879 101.511C188.873 101.583 188.855 101.661 188.831 101.751C188.807 101.829 188.795 101.913 188.765 101.979C188.723 102.099 188.645 102.19 188.525 102.268C188.447 102.322 188.375 102.376 188.303 102.424C188.207 102.502 188.153 102.472 188.075 102.484C187.649 102.472 187.24 102.418 186.844 102.328C186.454 102.232 186.088 102.063 185.715 101.913C185.169 101.679 184.623 101.421 184.076 101.169L184.094 101.121L184.1 101.133Z" fill="#231F20"/>
<path d="M185.331 119.134C184.773 119.38 184.202 119.638 183.638 119.908C183.434 120.004 183.254 120.148 183.043 120.244C182.305 120.581 181.53 120.869 180.762 121.133C180.42 121.247 180.102 121.415 179.777 121.559C179.573 121.655 179.363 121.745 179.141 121.811C179.033 121.848 178.919 121.878 178.805 121.902C178.697 121.932 178.553 121.884 178.426 121.884C178.264 121.854 178.258 121.793 178.3 121.589C178.33 121.439 178.354 121.289 178.378 121.163C178.42 121.007 178.492 120.893 178.595 120.803C178.775 120.659 178.943 120.497 179.123 120.365L179.693 120.022C180.078 119.806 180.474 119.596 180.894 119.44C181.416 119.266 181.855 118.906 182.329 118.623L183.938 117.705C184.268 117.513 184.616 117.339 184.959 117.158C185.475 116.882 186.015 116.636 186.52 116.33C186.904 116.09 187.252 115.79 187.642 115.543C187.727 115.489 187.805 115.423 187.895 115.381C188.063 115.303 188.189 115.273 188.315 115.339C188.387 115.399 188.447 115.453 188.507 115.519C188.561 115.567 188.609 115.633 188.663 115.706C188.711 115.772 188.765 115.832 188.801 115.898C188.867 116.006 188.885 116.126 188.879 116.264C188.873 116.324 188.867 116.426 188.861 116.534C188.861 116.66 188.813 116.684 188.771 116.75C188.501 117.074 188.213 117.369 187.907 117.627C187.6 117.879 187.252 118.071 186.916 118.281C186.406 118.581 185.877 118.87 185.349 119.176L185.325 119.134H185.331Z" fill="#231F20"/>
<path d="M201.38 80.6596C201.038 80.2633 200.587 79.9571 200.083 79.7169C199.567 79.5128 199.014 79.4168 198.462 79.4408C198.264 79.4708 198.072 79.5188 197.88 79.5668C197.705 79.6569 197.519 79.723 197.339 79.807C196.12 80.4314 195.196 82.0585 195.598 83.5294C195.76 84.1779 196.132 84.8023 196.667 85.2225C196.841 85.3546 197.015 85.4807 197.213 85.5768C197.393 85.7028 197.597 85.7809 197.79 85.889L198.42 86.1291C198.636 86.2312 198.858 86.3272 199.104 86.3993C199.411 86.5194 199.387 86.5494 199.116 86.7355C198.984 86.8196 198.78 87.0057 198.51 87.1198C198.378 87.1798 198.222 87.2639 198.054 87.2999C197.892 87.3239 197.717 87.3119 197.543 87.2999C197.225 87.2699 196.925 87.1678 196.613 87.0717C196.313 86.9517 196.036 86.7835 195.778 86.5854C195.256 86.2012 194.806 85.7088 194.487 85.1385C194.157 84.5741 193.971 83.9257 193.929 83.2713C193.887 82.947 193.929 82.6228 193.953 82.2986C194.025 81.9864 194.067 81.6622 194.199 81.374C194.319 81.0138 194.499 80.6836 194.668 80.3534C194.884 80.0532 195.064 79.723 195.316 79.4408C195.586 79.1706 195.82 78.8644 196.156 78.6663C196.319 78.5582 196.469 78.4381 196.637 78.3481L197.165 78.1199C197.952 77.8437 198.798 77.7297 199.597 77.8798C200.395 78.0058 201.17 78.282 201.818 78.7503C202.635 79.3027 203.289 80.1012 203.649 81.0378L203.823 81.5782C203.878 81.7583 203.878 81.9504 203.908 82.1365C203.98 82.5088 203.926 82.881 203.902 83.2472C203.835 83.9857 203.577 84.6702 203.241 85.3186C202.707 86.3092 201.818 87.2098 200.665 87.5941C200.413 87.6721 200.167 87.7622 199.903 87.7862C198.93 87.8222 198.654 87.5761 198.528 87.1498C198.498 87.0477 198.462 86.9517 198.45 86.8556C198.42 86.5254 198.792 86.3212 199.291 86.1531C199.663 86.0271 199.987 85.895 200.281 85.7449C200.575 85.5948 200.81 85.3906 201.026 85.1685C201.242 84.9464 201.416 84.6822 201.572 84.388C201.734 84.0998 201.872 83.7756 201.962 83.4454C202.04 83.1992 202.034 82.9531 202.07 82.7069C202.1 82.5808 202.058 82.4667 202.058 82.3467C202.04 82.2326 202.07 82.1005 202.016 81.9924C201.932 81.5181 201.674 81.0918 201.35 80.6956L201.38 80.6656V80.6596Z" fill="#231F20"/>
<path d="M195.73 138.196C196.072 138.586 196.528 138.899 197.027 139.133C197.543 139.331 198.095 139.433 198.648 139.403C198.846 139.373 199.038 139.325 199.23 139.277C199.404 139.187 199.59 139.121 199.764 139.037C200.983 138.412 201.896 136.779 201.494 135.302C201.331 134.654 200.953 134.029 200.419 133.615C200.245 133.483 200.071 133.357 199.872 133.267C199.692 133.141 199.488 133.069 199.296 132.961L198.666 132.721C198.45 132.618 198.221 132.528 197.981 132.45C197.675 132.33 197.699 132.306 197.963 132.114C198.095 132.03 198.293 131.844 198.564 131.73C198.696 131.67 198.852 131.586 199.02 131.544C199.182 131.52 199.356 131.526 199.53 131.544C199.848 131.574 200.149 131.676 200.461 131.766C200.761 131.886 201.043 132.054 201.301 132.252C201.824 132.636 202.28 133.123 202.598 133.693C202.934 134.258 203.121 134.906 203.163 135.554C203.205 135.879 203.163 136.203 203.145 136.527C203.073 136.839 203.031 137.163 202.904 137.452C202.784 137.812 202.61 138.142 202.442 138.472C202.226 138.772 202.046 139.103 201.8 139.391C201.53 139.661 201.295 139.967 200.965 140.165C200.809 140.273 200.653 140.394 200.485 140.484L199.957 140.712C199.17 140.988 198.329 141.108 197.525 140.964C196.726 140.838 195.952 140.568 195.297 140.099C194.481 139.547 193.821 138.754 193.46 137.824L193.286 137.283C193.232 137.103 193.232 136.911 193.202 136.725C193.13 136.353 193.178 135.981 193.202 135.614C193.268 134.876 193.52 134.191 193.851 133.543C194.379 132.552 195.261 131.646 196.42 131.256C196.672 131.178 196.919 131.081 197.177 131.057C198.149 131.015 198.426 131.262 198.552 131.688C198.582 131.79 198.618 131.886 198.63 131.982C198.66 132.312 198.287 132.516 197.789 132.684C197.417 132.811 197.093 132.943 196.798 133.093C196.504 133.243 196.27 133.453 196.054 133.675C195.844 133.903 195.664 134.167 195.508 134.462C195.346 134.75 195.207 135.074 195.123 135.41C195.051 135.656 195.057 135.903 195.021 136.149C194.991 136.275 195.033 136.389 195.033 136.509C195.051 136.623 195.027 136.755 195.075 136.863C195.159 137.338 195.424 137.764 195.748 138.154L195.718 138.184L195.73 138.196Z" fill="#231F20"/>
<path d="M171.955 93.8752C171.739 94.2775 171.637 94.7578 171.588 95.2381C171.588 95.7124 171.625 96.2227 171.829 96.661C171.883 96.8351 171.985 96.9792 172.093 97.1173C172.147 97.1894 172.189 97.2614 172.249 97.3275C172.315 97.3875 172.375 97.4475 172.435 97.5136C172.621 97.7657 172.903 97.9278 173.156 98.114C173.294 98.174 173.426 98.2641 173.57 98.3121C173.72 98.3481 173.864 98.4142 174.02 98.4382C174.644 98.5583 175.341 98.4562 175.977 98.18C176.542 97.9278 177.064 97.5376 177.442 97.0573C177.55 96.8952 177.682 96.7451 177.754 96.571C177.797 96.4869 177.857 96.4089 177.905 96.3308L178.025 96.0786C178.121 95.9105 178.139 95.7364 178.229 95.5623C178.295 95.3882 178.379 95.1901 178.403 94.9799C178.469 94.7038 178.493 94.6977 178.727 94.8959C178.841 94.9979 179.051 95.148 179.195 95.4002C179.267 95.5203 179.388 95.6764 179.412 95.8325C179.436 95.9886 179.448 96.1567 179.436 96.3308C179.352 96.9192 179.159 97.5136 178.793 97.9459C178.463 98.4142 178.055 98.7984 177.61 99.1286C176.698 99.759 175.575 100.107 174.44 100.035C173.762 99.9632 173.077 99.8191 172.453 99.5069C172.153 99.3448 171.871 99.1526 171.594 98.9605C171.354 98.7204 171.078 98.5042 170.892 98.222C170.436 97.6277 170.16 96.9372 170.003 96.2347C169.889 95.5263 169.859 94.7998 170.039 94.1034C170.232 93.2508 170.64 92.4343 171.258 91.7859C171.751 91.3296 172.327 90.9213 172.981 90.7532C173.143 90.7052 173.3 90.6451 173.462 90.6151L173.954 90.5611C174.284 90.501 174.602 90.537 174.921 90.549L175.293 90.5671C175.425 90.5911 175.563 90.6031 175.695 90.6391C175.959 90.6931 176.205 90.7892 176.452 90.8913C176.938 91.1074 177.382 91.4136 177.76 91.8279C177.923 92.014 178.085 92.2001 178.205 92.4283C178.403 92.8666 178.415 93.2088 178.355 93.4369C178.295 93.6651 178.151 93.7912 177.935 93.8812C177.839 93.9172 177.742 93.9653 177.646 93.9773C177.322 94.0193 177.076 93.7371 176.83 93.4609C176.626 93.2568 176.44 93.0767 176.217 92.9146C176.001 92.7585 175.755 92.6264 175.509 92.5483C175.389 92.5063 175.269 92.4763 175.155 92.4583C175.101 92.4463 175.047 92.4523 174.993 92.4403C174.915 92.4403 174.837 92.4463 174.765 92.4403C174.614 92.4403 174.458 92.4103 174.308 92.4103C174.17 92.4283 174.026 92.4403 173.882 92.4523C173.768 92.4463 173.69 92.5063 173.588 92.5243C173.498 92.5544 173.384 92.5604 173.3 92.6084C173.131 92.7045 172.933 92.7585 172.783 92.9026C172.441 93.1247 172.189 93.491 171.985 93.8872L171.943 93.8692L171.955 93.8752Z" fill="#231F20"/>
<path d="M223.384 93.1301C222.634 92.6618 221.589 92.4036 220.659 92.6798C220.31 92.7578 220.022 92.962 219.74 93.1541L219.374 93.4303L219.062 93.7785C218.864 94.0187 218.713 94.2888 218.605 94.577C218.395 95.1534 218.383 95.8318 218.599 96.4743C218.785 97.0386 219.14 97.573 219.59 97.9572C219.746 98.0653 219.884 98.2034 220.052 98.2754C220.13 98.3235 220.202 98.3835 220.286 98.4315L220.527 98.5576C220.689 98.6537 220.863 98.6837 221.031 98.7798C221.205 98.8578 221.391 98.9479 221.601 98.9899C221.871 99.074 221.871 99.104 221.661 99.3201C221.553 99.4222 221.391 99.6203 221.145 99.7524C221.025 99.8184 220.869 99.9265 220.719 99.9505C220.569 99.9685 220.401 99.9745 220.232 99.9565C219.656 99.8545 219.074 99.6503 218.653 99.2661C218.419 99.098 218.239 98.8818 218.035 98.6897C217.867 98.4676 217.675 98.2574 217.537 98.0113C216.966 97.0566 216.708 95.8619 216.984 94.7391C217.278 93.4003 218.089 92.2055 219.26 91.5391C220.539 90.8006 222.076 90.7525 223.396 91.2088C224.213 91.503 224.957 92.0014 225.522 92.6798C225.708 92.956 225.93 93.2141 226.044 93.5323L226.242 93.9946L226.35 94.481C226.446 94.8052 226.428 95.1294 226.44 95.4536C226.47 95.7838 226.386 96.084 226.356 96.4022C226.23 97.4229 225.69 98.4135 224.825 99.074C224.627 99.218 224.429 99.3621 224.195 99.4582C223.745 99.6143 223.408 99.5963 223.192 99.5182C222.97 99.4342 222.862 99.2841 222.796 99.0619C222.766 98.9599 222.73 98.8638 222.724 98.7678C222.712 98.4435 223.012 98.2214 223.3 97.9993C223.523 97.8191 223.715 97.645 223.889 97.4469C224.063 97.2488 224.213 97.0206 224.315 96.7865C224.363 96.6724 224.411 96.5523 224.435 96.4442C224.471 96.3362 224.471 96.2401 224.489 96.072C224.507 95.9219 224.537 95.7718 224.567 95.6277C224.567 95.4836 224.561 95.3455 224.567 95.2074C224.579 95.0994 224.561 95.0033 224.537 94.9072C224.519 94.8112 224.501 94.7151 224.489 94.6131L224.381 94.3429C224.351 94.2468 224.315 94.1568 224.255 94.0787C224.201 93.9946 224.147 93.9106 224.099 93.8205L223.883 93.5924L223.775 93.4723L223.643 93.3762L223.378 93.1781L223.396 93.1361L223.384 93.1301Z" fill="#231F20"/>
<path d="M218.503 125.678C219.266 126.134 220.328 126.206 221.235 125.894C221.565 125.774 221.847 125.564 222.111 125.347C222.568 124.963 222.97 124.447 223.156 123.834C223.348 123.234 223.342 122.556 223.138 121.919C222.952 121.361 222.604 120.839 222.148 120.466C221.997 120.358 221.847 120.238 221.679 120.16C221.601 120.118 221.523 120.058 221.445 120.01L221.199 119.89C221.037 119.8 220.857 119.764 220.683 119.674C220.502 119.596 220.316 119.5 220.1 119.446C219.836 119.35 219.842 119.32 220.058 119.115C220.166 119.013 220.334 118.827 220.574 118.695C220.695 118.629 220.839 118.527 220.989 118.497C221.139 118.473 221.301 118.467 221.463 118.485C221.739 118.539 222.045 118.587 222.31 118.695C222.592 118.791 222.82 118.965 223.054 119.133C223.504 119.482 223.907 119.896 224.195 120.376C224.801 121.331 224.987 122.532 224.771 123.618C224.621 124.267 224.411 124.897 224.057 125.468C223.919 125.774 223.666 126.008 223.468 126.272C223.246 126.524 222.97 126.716 222.718 126.92C221.493 127.689 219.998 127.953 218.641 127.587C217.801 127.389 217.002 126.944 216.408 126.296C216.156 126.074 216.006 125.768 215.813 125.498C215.651 125.209 215.549 124.891 215.435 124.585C215.381 124.267 215.297 123.949 215.267 123.63C215.267 123.312 215.249 123.006 215.249 122.682C215.363 121.613 215.753 120.694 216.462 119.902C216.618 119.728 216.78 119.554 216.99 119.416C217.392 119.181 217.723 119.121 217.957 119.157C218.191 119.193 218.335 119.32 218.443 119.53C218.491 119.62 218.545 119.716 218.563 119.806C218.623 120.124 218.389 120.388 218.161 120.67C217.987 120.893 217.819 121.097 217.669 121.343C217.518 121.583 217.386 121.853 217.296 122.123C217.2 122.388 217.152 122.664 217.146 122.85C217.14 122.964 217.146 123.138 217.146 123.282V123.51C217.146 123.582 217.164 123.648 217.176 123.72C217.284 124.537 217.693 125.251 218.497 125.642L218.479 125.684L218.503 125.678Z" fill="#231F20"/>
<path d="M171.703 121.896C171.529 122.365 171.511 122.899 171.559 123.433C171.649 123.962 171.835 124.49 172.135 124.952C172.249 125.114 172.393 125.253 172.525 125.403C172.681 125.523 172.837 125.631 172.988 125.763C173.546 126.159 174.242 126.345 174.975 126.309C175.713 126.309 176.404 126.027 176.974 125.529C177.484 125.09 177.845 124.472 178.031 123.824C178.097 123.619 178.127 123.397 178.157 123.187C178.193 122.971 178.223 122.761 178.235 122.539C178.259 122.317 178.235 122.1 178.259 121.872C178.277 121.638 178.301 121.398 178.301 121.146C178.319 120.828 178.355 120.84 178.613 121.026C178.739 121.122 178.961 121.254 179.166 121.464C179.262 121.566 179.4 121.68 179.484 121.824C179.55 121.968 179.616 122.124 179.658 122.287C179.97 123.493 179.568 124.778 178.895 125.811C178.193 126.838 177.04 127.6 175.785 127.78C175.419 127.822 175.059 127.822 174.693 127.852C174.326 127.804 173.948 127.816 173.588 127.714C173.228 127.612 172.855 127.528 172.531 127.336C172.183 127.186 171.889 126.952 171.601 126.717C170.388 125.637 169.745 124.046 169.847 122.467C169.902 121.5 170.256 120.539 170.868 119.771C171.36 119.213 171.919 118.756 172.603 118.444C173.282 118.162 173.996 118.024 174.717 118.024C175.821 118.036 176.974 118.33 177.887 119.038C178.097 119.183 178.283 119.345 178.457 119.525C179.033 120.263 179.003 120.617 178.739 120.978C178.673 121.062 178.619 121.152 178.547 121.212C178.301 121.428 177.911 121.272 177.484 120.966L177.25 120.804C177.166 120.756 177.088 120.714 177.016 120.66C176.872 120.545 176.716 120.473 176.572 120.383C176.266 120.227 175.965 120.095 175.647 120.035C175.335 119.963 175.017 119.921 174.693 119.933C174.368 119.927 174.044 119.957 173.732 120.041C173.492 120.095 173.3 120.179 173.108 120.287C172.921 120.437 172.669 120.527 172.525 120.714C172.147 121.008 171.931 121.446 171.763 121.902L171.721 121.89L171.703 121.896Z" fill="#231F20"/>
<path d="M208.254 109.84C208.398 108.093 208.092 106.304 207.473 104.665C206.837 103.032 205.762 101.591 204.375 100.51C203.379 99.6937 202.154 99.2014 200.923 98.8111C198.732 98.1267 196.306 98.1747 194.097 98.8892C192.998 99.2734 191.959 99.8198 191.029 100.522C190.122 101.243 189.342 102.125 188.723 103.128C188.201 104.035 187.805 105.019 187.552 106.046C187.342 107.079 187.192 108.135 187.258 109.186C187.3 110.537 187.606 111.864 188.009 113.148L188.363 114.097C188.495 114.409 188.669 114.697 188.783 115.022C189.065 115.64 189.396 116.24 189.762 116.835C190.098 117.681 190.116 117.537 189.42 117.141C189.228 117.057 189.041 116.907 188.801 116.751C188.591 116.577 188.351 116.373 188.093 116.132C187.823 115.904 187.57 115.622 187.33 115.304C187.216 115.142 187.096 114.974 186.982 114.794C186.88 114.607 186.784 114.415 186.694 114.217C185.319 111.395 185.175 108.057 186.039 105.031C186.478 103.512 187.21 102.059 188.225 100.816C189.24 99.5676 190.542 98.559 191.971 97.8925C195.357 96.2415 199.548 95.9713 203.103 97.5143C205.048 98.3368 206.771 99.7177 207.996 101.447C209.233 103.17 209.959 105.193 210.253 107.247C210.565 109.774 210.277 112.41 209.178 114.733C208.788 115.628 208.236 116.439 207.641 117.207C206.999 117.94 206.297 118.624 205.498 119.17C205.102 119.447 204.7 119.723 204.267 119.933L203.631 120.275L202.934 120.557C202.004 120.875 201.067 121.044 200.125 121.146C198.66 121.29 197.189 121.254 195.742 121.002C194.295 120.743 192.866 120.269 191.575 119.489C191.275 119.344 191.023 119.134 190.746 118.954C190.476 118.762 190.194 118.588 189.96 118.348C189.041 117.501 188.621 116.787 188.345 116.295C188.243 116.024 188.183 115.796 188.159 115.598C188.141 115.394 188.159 115.214 188.183 115.052C188.207 114.902 188.201 114.733 188.237 114.643C188.291 114.487 188.495 114.577 188.879 114.812C189.083 114.92 189.276 115.094 189.498 115.31C189.72 115.52 190.002 115.736 190.278 116.012C191.965 117.567 194.043 118.63 196.348 119.002C197.495 119.182 198.684 119.218 199.854 119.092C200.437 119.038 201.013 118.924 201.566 118.786C201.83 118.708 202.106 118.63 202.346 118.534L202.7 118.39L203.073 118.186C206.104 116.631 208.074 113.395 208.224 109.846H208.278L208.254 109.84Z" fill="#231F20"/>
<path d="M192.218 95.1719C192.308 95.232 192.218 95.3641 192.049 95.5262C191.995 95.5802 191.809 95.6703 191.767 95.6643C191.683 95.6463 191.599 95.6342 191.527 95.6102C191.503 95.6042 191.389 95.5142 191.251 95.4121C191.125 95.31 191.011 95.1779 190.939 95.1179C190.807 94.9978 190.717 94.8597 190.632 94.7156L190.104 93.8451C190.068 93.779 190.038 93.707 190.026 93.6289C189.984 93.3588 189.858 93.1366 189.714 92.9205C189.69 92.8845 189.678 92.8424 189.612 92.8304C189.51 92.8064 189.18 92.194 189.174 92.0919C189.156 91.8518 189.101 91.6236 189.065 91.3895C189.065 91.3535 189.029 91.3354 189.065 91.2814C189.156 91.1553 189.101 91.1073 189.083 91.0413C189.053 90.9512 189.029 90.8551 189.023 90.7471C189.023 90.693 189.071 90.615 189.107 90.5429C189.138 90.4769 189.336 90.4048 189.36 90.4048C189.438 90.4108 189.51 90.3388 189.588 90.2908C189.612 90.2788 189.648 90.2547 189.666 90.2487C189.714 90.2307 190.284 90.5549 190.308 90.615C190.308 90.615 190.428 90.7891 190.554 90.9692C190.681 91.1493 190.813 91.3354 190.843 91.3655C190.879 91.4015 190.873 91.4615 190.873 91.5096C190.873 91.5336 191.269 92.0559 191.275 92.0859C191.323 92.212 191.425 92.3081 191.377 92.4822C191.365 92.5182 191.383 92.5362 191.401 92.5602C191.515 92.7584 191.575 92.9865 191.647 93.2087C191.683 93.3227 191.749 93.4188 191.797 93.5269C191.803 93.5449 191.797 93.5749 191.797 93.5929C191.797 93.6229 191.797 93.653 191.809 93.677C191.941 93.9231 192.007 94.1993 192.169 94.4335C192.2 94.4875 192.236 94.8177 192.266 94.8838C192.284 94.9198 192.169 95.1299 192.212 95.1539L192.218 95.1719Z" fill="#231F20"/>
<path d="M206.609 96.3311C206.585 96.4211 206.441 96.4091 206.267 96.3551C206.213 96.3371 206.086 96.235 206.08 96.199C206.068 96.1269 206.056 96.0549 206.05 95.9828C206.038 95.9348 206.201 95.4305 206.249 95.2564C206.291 95.0763 206.363 94.9262 206.471 94.8061L207.065 94.0016C207.113 93.9415 207.167 93.8935 207.233 93.8515C207.455 93.7074 207.623 93.5152 207.762 93.3051C207.786 93.2691 207.822 93.2391 207.81 93.179C207.798 93.077 208.236 92.5486 208.32 92.5006C208.536 92.3985 208.722 92.2724 208.926 92.1584C208.956 92.1403 208.962 92.1043 209.022 92.1223C209.16 92.1584 209.19 92.0983 209.245 92.0563C209.317 91.9962 209.401 91.9422 209.497 91.9002C209.545 91.8822 209.629 91.9002 209.701 91.9002C209.767 91.9062 209.893 92.0563 209.899 92.0803C209.911 92.1524 210.001 92.1884 210.061 92.2424C210.079 92.2604 210.109 92.2844 210.121 92.3024C210.151 92.3385 210.025 92.9569 209.989 92.9929C209.989 92.9929 209.869 93.161 209.749 93.3291C209.635 93.4972 209.521 93.6773 209.485 93.7194C209.461 93.7614 209.407 93.7734 209.365 93.7974C209.341 93.8094 208.998 94.3318 208.98 94.3438C208.884 94.4278 208.83 94.5539 208.662 94.5779C208.632 94.5779 208.614 94.6079 208.602 94.626C208.464 94.8001 208.29 94.9382 208.122 95.0883C208.038 95.1663 207.972 95.2564 207.9 95.3404C207.888 95.3584 207.858 95.3584 207.84 95.3704C207.816 95.3825 207.786 95.3945 207.774 95.4125C207.599 95.6166 207.401 95.8027 207.227 96.0069C207.185 96.0549 206.885 96.193 206.849 96.253C206.825 96.289 206.609 96.283 206.603 96.3251L206.609 96.3311Z" fill="#231F20"/>
<path d="M182.438 109.384C182.558 109.366 182.624 109.504 182.636 109.702C182.636 109.768 182.576 109.93 182.546 109.948C182.474 109.985 182.408 110.027 182.36 110.051C182.324 110.051 181.832 110.165 181.664 110.261C181.501 110.345 181.339 110.369 181.165 110.393C180.811 110.447 180.451 110.519 180.091 110.585C180.012 110.603 179.928 110.585 179.85 110.573C179.568 110.507 179.292 110.531 179.016 110.591C178.968 110.603 178.92 110.597 178.884 110.657C178.818 110.747 178.073 110.849 177.971 110.825C177.719 110.759 177.467 110.735 177.215 110.681C177.179 110.675 177.143 110.699 177.107 110.639C177.017 110.501 176.944 110.537 176.866 110.531C176.758 110.531 176.65 110.513 176.542 110.477C176.488 110.459 176.428 110.381 176.368 110.327C176.314 110.273 176.314 110.057 176.326 110.033C176.368 109.96 176.314 109.864 176.302 109.774C176.302 109.744 176.29 109.708 176.29 109.684C176.29 109.63 176.848 109.18 176.914 109.174C176.914 109.174 176.974 109.156 177.059 109.138C177.143 109.12 177.257 109.09 177.377 109.066C177.611 109.012 177.857 108.958 177.905 108.94C177.959 108.922 178.013 108.952 178.067 108.964C178.091 108.964 178.8 108.796 178.83 108.802C178.98 108.802 179.124 108.742 179.286 108.856C179.316 108.88 179.346 108.868 179.376 108.862C179.634 108.826 179.892 108.85 180.151 108.886C180.283 108.904 180.415 108.886 180.547 108.886C180.571 108.886 180.595 108.904 180.619 108.91C180.649 108.922 180.679 108.934 180.709 108.934C181.021 108.934 181.333 108.976 181.676 108.988C181.754 108.988 182.12 109.18 182.21 109.192C182.264 109.198 182.396 109.384 182.444 109.378L182.438 109.384Z" fill="#231F20"/>
<path d="M209.443 127.604C209.539 127.646 209.485 127.778 209.359 127.953C209.317 128.007 209.155 128.121 209.113 128.115C209.035 128.109 208.962 128.097 208.896 128.079C208.86 128.067 208.452 127.748 208.296 127.646C208.152 127.55 208.032 127.43 207.918 127.31C207.696 127.058 207.437 126.824 207.239 126.542C207.191 126.482 207.161 126.416 207.137 126.338C207.059 126.079 206.915 125.863 206.747 125.659C206.717 125.623 206.699 125.581 206.639 125.575C206.531 125.563 206.135 124.957 206.117 124.861C206.063 124.584 206.021 124.374 205.973 124.14C205.973 124.104 205.931 124.086 205.973 124.032C206.063 123.906 206.009 123.852 205.991 123.786C205.961 123.69 205.937 123.588 205.937 123.48C205.937 123.426 205.985 123.348 206.027 123.282C206.063 123.221 206.255 123.161 206.285 123.167C206.363 123.179 206.435 123.113 206.513 123.071C206.537 123.059 206.573 123.041 206.597 123.035C206.645 123.023 207.179 123.342 207.203 123.39C207.203 123.39 207.317 123.552 207.438 123.714C207.564 123.876 207.69 124.044 207.72 124.074C207.756 124.104 207.75 124.164 207.756 124.212C207.756 124.236 208.158 124.71 208.17 124.734C208.224 124.855 208.332 124.933 208.302 125.107C208.302 125.143 208.314 125.161 208.332 125.179C208.464 125.359 208.548 125.569 208.65 125.773C208.704 125.875 208.77 125.965 208.83 126.067C208.842 126.085 208.836 126.115 208.842 126.133C208.842 126.163 208.848 126.193 208.86 126.217C209.005 126.452 209.101 126.716 209.275 126.932C209.311 126.98 209.383 127.304 209.431 127.358C209.455 127.388 209.407 127.586 209.449 127.604H209.443Z" fill="#231F20"/>
<path d="M225.071 88.3035C225.125 88.3815 225.016 88.4716 224.836 88.5556C224.776 88.5857 224.602 88.6037 224.572 88.5796C224.512 88.5376 224.446 88.4956 224.398 88.4536C224.374 88.4295 224.122 87.9612 224.008 87.8051C223.906 87.649 223.828 87.4929 223.792 87.3308C223.75 87.0006 223.696 86.6704 223.666 86.3402C223.66 86.2681 223.666 86.1901 223.69 86.118C223.774 85.8599 223.762 85.6137 223.726 85.3555C223.72 85.3135 223.726 85.2715 223.672 85.2295C223.582 85.1634 223.564 84.473 223.606 84.3829C223.708 84.1668 223.774 83.9446 223.882 83.7345C223.894 83.7045 223.882 83.6685 223.948 83.6444C224.104 83.5904 224.086 83.5184 224.104 83.4523C224.128 83.3623 224.164 83.2662 224.218 83.1821C224.248 83.1401 224.332 83.0981 224.404 83.0621C224.47 83.026 224.68 83.0681 224.704 83.0861C224.77 83.1341 224.872 83.1101 224.962 83.1161C224.992 83.1161 225.034 83.1161 225.059 83.1221C225.107 83.1341 225.461 83.6745 225.467 83.7285C225.479 83.7465 225.551 84.491 225.569 84.575C225.581 84.6171 225.545 84.6651 225.521 84.7071C225.509 84.7311 225.599 85.3195 225.593 85.3435C225.569 85.4636 225.623 85.5897 225.491 85.7098C225.467 85.7338 225.473 85.7578 225.473 85.7818C225.491 85.992 225.437 86.2081 225.413 86.4182C225.395 86.5263 225.413 86.6344 225.413 86.7425C225.413 86.7605 225.395 86.7845 225.389 86.8025C225.377 86.8265 225.365 86.8505 225.365 86.8805C225.377 87.0066 225.365 87.1387 225.365 87.2708C225.341 87.4029 225.323 87.535 225.329 87.661C225.329 87.7211 225.185 88.0213 225.197 88.0873C225.197 88.1233 225.046 88.2674 225.077 88.3035H225.071Z" fill="#231F20"/>
<path d="M227.527 89.4263C227.515 89.5044 227.413 89.4443 227.251 89.3063C227.203 89.2642 227.082 89.1081 227.076 89.0721C227.07 89.0061 227.064 88.946 227.064 88.892C227.064 88.862 227.257 88.5618 227.317 88.4537C227.377 88.3456 227.455 88.2676 227.539 88.1955C227.707 88.0514 227.875 87.8953 228.055 87.7572C228.097 87.7272 228.139 87.7032 228.193 87.6972C228.373 87.6672 228.511 87.5711 228.649 87.4691C228.673 87.451 228.704 87.445 228.704 87.391C228.704 87.3009 229.112 87.0728 229.184 87.0788C229.352 87.0848 229.508 87.0668 229.67 87.0668C229.694 87.0668 229.706 87.0428 229.748 87.0848C229.838 87.1809 229.874 87.1448 229.916 87.1328C229.976 87.1208 230.042 87.1148 230.114 87.1328C230.15 87.1388 230.204 87.1989 230.259 87.2409C230.301 87.2769 230.361 87.4631 230.361 87.4871C230.361 87.5531 230.415 87.6312 230.445 87.7032C230.457 87.7272 230.469 87.7633 230.475 87.7813C230.487 87.8293 230.307 88.2556 230.277 88.2676C230.277 88.2676 230.174 88.3396 230.06 88.4117C229.952 88.4897 229.844 88.5678 229.826 88.5918C229.808 88.6158 229.766 88.5978 229.736 88.5918C229.718 88.5918 229.424 88.844 229.406 88.85C229.328 88.874 229.28 88.952 229.154 88.886C229.13 88.874 229.118 88.886 229.106 88.892C228.992 88.964 228.842 88.982 228.71 89.0241C228.637 89.0421 228.583 89.0901 228.517 89.1201C228.505 89.1201 228.487 89.1201 228.469 89.1201C228.451 89.1201 228.427 89.1201 228.415 89.1201C228.271 89.2042 228.097 89.2462 227.977 89.3663C227.947 89.3903 227.731 89.4023 227.701 89.4383C227.683 89.4564 227.533 89.3903 227.527 89.4203V89.4263Z" fill="#231F20"/>
<rect x="147.5" y="56.5" width="105" height="105" rx="52.5" stroke="#E5E5E5"/>
<rect x="333.38" y="58.3802" width="105.24" height="97.2396" fill="white" stroke="#E5E5E5" stroke-width="0.760417"/>
<rect x="338.38" y="63.3802" width="94.2396" height="87.2396" fill="#EDEDED" stroke="#E5E5E5" stroke-width="0.760417"/>
<path d="M365.387 101.258C365.57 100.398 365.762 99.5388 366.08 98.6636C366.163 98.4448 366.247 98.226 366.367 97.9968C366.419 97.8875 366.486 97.7676 366.565 97.6478C366.627 97.5332 366.747 97.403 366.861 97.2832C367.257 96.9706 367.632 96.6737 368.044 96.4653C368.19 96.382 368.336 96.2934 368.487 96.2153L368.935 96.0069L369.383 95.7986L369.841 95.6319C370.925 95.2464 372.029 94.9911 373.128 94.7776C374.232 94.5588 375.337 94.4129 376.446 94.2723C377.431 94.1577 378.415 94.0327 379.39 93.9389C380.64 93.8243 381.906 93.6368 383.177 93.8243C383.573 93.9076 383.515 94.0639 383.187 94.3087C383.026 94.439 382.796 94.5588 382.52 94.6838C382.244 94.814 381.921 94.9026 381.567 94.9286C380.312 95.0276 379.056 95.1474 377.801 95.2881C376.545 95.4131 375.29 95.5589 374.029 95.7309C372.529 95.9444 370.998 96.3924 369.612 96.9758L369.044 97.2259C368.857 97.3144 368.69 97.4238 368.513 97.5176L368.247 97.6687L368.013 97.8458L367.778 98.0229L367.664 98.1114C367.664 98.1114 367.622 98.1583 367.601 98.1792C367.408 98.3979 367.242 98.8043 367.106 99.1793C366.971 99.5648 366.851 99.9711 366.747 100.383C366.481 101.393 366.294 102.44 366.132 103.487C365.887 105.076 365.684 106.681 365.549 108.275C365.439 109.514 365.45 110.738 365.366 111.963C365.351 112.234 365.34 112.499 365.325 112.77C365.241 113.775 365.075 114.088 364.872 114.296C364.825 114.343 364.778 114.406 364.731 114.437C364.601 114.531 364.444 114.109 364.345 113.354C364.278 112.796 364.278 112.234 364.252 111.666C364.231 111.098 364.226 110.52 364.262 109.947C364.319 108.795 364.408 107.629 364.538 106.457C364.736 104.722 364.997 102.987 365.34 101.247H365.372L365.387 101.258Z" fill="#231F20"/>
<path d="M382.844 138.808C380.364 127.598 387.699 128.614 387.928 128.494C387.928 128.494 385.047 126.504 382.61 128.457C380.047 130.515 380.083 131.718 379.927 134.125C379.771 136.532 379.927 138.72 379.927 138.72L382.839 138.808H382.844Z" fill="#231F20"/>
<path d="M372.316 102.773C372.238 102.93 370.852 106.93 371.472 107.785C371.748 108.165 378.536 108.097 379.078 107.748C379.619 107.399 380.166 109.222 378.416 109.379C376.666 109.535 370.206 109.254 370.061 108.795C369.915 108.337 369.461 103.346 370.061 103.091C370.66 102.836 372.311 102.779 372.311 102.779L372.316 102.773Z" fill="#231F20"/>
<path d="M372.837 117.313C372.758 117.469 371.373 121.47 371.993 122.324C372.269 122.705 379.056 122.637 379.598 122.288C380.14 121.939 380.687 123.762 378.937 123.918C377.186 124.075 370.727 123.793 370.581 123.335C370.435 122.876 369.982 117.886 370.581 117.631C371.18 117.376 372.831 117.318 372.831 117.318L372.837 117.313Z" fill="#231F20"/>
<path d="M392.965 117.313C392.887 117.469 391.502 121.47 392.122 122.324C392.398 122.705 399.185 122.637 399.727 122.288C400.269 121.939 400.816 123.762 399.065 123.918C397.32 124.075 390.856 123.793 390.71 123.335C390.564 122.876 390.111 117.886 390.71 117.631C391.309 117.376 392.96 117.318 392.96 117.318L392.965 117.313Z" fill="#231F20"/>
<path d="M392.965 102.773C392.887 102.93 392.007 106.852 392.627 107.707C392.903 108.087 399.185 108.097 399.727 107.743C400.269 107.389 400.816 109.217 399.065 109.373C397.315 109.53 390.856 109.248 390.71 108.79C390.564 108.332 390.111 103.341 390.71 103.086C391.309 102.831 392.96 102.773 392.96 102.773H392.965Z" fill="#231F20"/>
<path d="M364.367 107.962C364.498 105.899 364.638 103.842 364.857 101.779C364.904 101.263 364.972 100.748 365.034 100.232C365.097 99.7161 365.154 99.2004 365.243 98.6847L365.362 97.9085L365.394 97.7158L365.409 97.6168L365.451 97.4501C365.503 97.2261 365.612 97.0386 365.717 96.8667C366.18 96.2155 366.727 95.9342 367.238 95.6738C367.993 95.3091 368.743 95.0747 369.493 94.8611C370.243 94.6528 370.994 94.4913 371.749 94.3663C374.406 93.9183 377.062 93.7151 379.719 93.5849C382.376 93.4599 385.027 93.4286 387.679 93.4651C390.033 93.5016 392.398 93.5432 394.732 93.6891C396.232 93.7881 397.732 93.9027 399.232 94.1058C399.983 94.1996 400.727 94.3298 401.467 94.5069C402.207 94.6736 402.941 94.882 403.65 95.1945C404.093 95.3821 404.259 95.5227 404.228 95.5592C404.192 95.6061 403.957 95.5696 403.556 95.5488C402.749 95.5019 401.301 95.5488 399.613 95.4029C396.623 95.0904 393.591 95.0174 390.564 94.8872C387.533 94.7934 384.485 94.7778 381.427 94.8403C379.599 94.8768 377.739 95.0018 375.88 95.2102C374.025 95.4237 372.16 95.6998 370.379 96.127C369.41 96.3614 368.431 96.6531 367.634 97.0959C367.238 97.3043 366.915 97.6064 366.863 97.8043C366.852 97.82 366.826 97.9658 366.811 98.096L366.753 98.4763L366.639 99.2317C366.368 101.258 366.17 103.31 366.024 105.368C365.852 107.9 365.711 110.442 365.649 112.979C365.539 116.828 365.503 120.699 365.618 124.517C365.711 127.486 365.93 130.393 366.201 133.31C366.269 133.951 366.331 134.581 366.394 135.227C366.451 135.826 366.488 136.326 366.498 136.743C366.519 137.16 366.529 137.498 366.514 137.78C366.477 138.342 366.383 138.676 366.227 138.957C366.154 139.082 366.092 139.249 366.024 139.327C365.904 139.457 365.763 139.285 365.602 138.858C365.441 138.431 365.243 137.754 365.097 136.873C364.331 131.628 364.091 126.049 364.044 120.459C364.018 116.307 364.107 112.135 364.326 107.973H364.362L364.367 107.962Z" fill="#231F20"/>
<path d="M405.264 122.801C405.353 120.655 405.4 118.499 405.4 116.347C405.4 115.561 405.342 114.779 405.353 113.993C405.353 111.221 405.321 108.45 405.165 105.684C405.097 104.455 404.972 103.225 404.821 102.017C404.712 101.246 404.608 100.47 404.498 99.6935L404.352 98.5371C404.316 98.3495 404.326 98.1516 404.332 97.9536C404.332 97.7609 404.342 97.563 404.332 97.3754C404.316 96.9483 404.358 96.9014 404.712 97.2504C404.879 97.4275 405.113 97.6828 405.368 98.0109C405.592 98.3443 405.733 98.7559 405.832 99.2091C406.004 100.011 406.108 100.819 406.202 101.621C406.295 102.428 406.374 103.231 406.436 104.038C406.561 105.653 406.634 107.273 406.645 108.898C406.66 110.846 406.832 112.862 406.874 114.847C406.9 117.035 406.874 119.223 406.811 121.405C406.775 122.749 406.712 124.093 406.65 125.437C406.551 127.474 406.389 129.511 406.238 131.532C406.129 133.1 406.051 134.642 405.915 136.199C405.879 136.543 405.858 136.877 405.816 137.22C405.759 137.861 405.597 138.267 405.488 138.549C405.426 138.689 405.363 138.799 405.285 138.882C405.196 138.965 405.097 139.028 405.014 139.085C404.936 139.137 404.863 139.205 404.816 139.236C404.696 139.341 404.363 138.757 404.41 137.83C404.519 135.074 404.764 132.199 404.925 129.292C405.051 127.135 405.17 124.968 405.228 122.801H405.264Z" fill="#231F20"/>
<path d="M372.197 109.566L371.228 109.514L370.561 109.473C370.405 109.473 370.29 109.42 370.165 109.384C370.04 109.342 369.92 109.306 369.8 109.259C369.727 109.144 369.675 109.014 369.618 108.894C369.571 108.764 369.55 108.597 369.514 108.452C369.488 108.311 369.488 108.097 369.483 107.993L369.472 107.717L369.457 106.623C369.457 106.123 369.42 105.623 369.425 105.123L369.462 103.675L369.483 103.399C369.498 103.315 369.524 103.232 369.545 103.154C369.556 103.065 369.613 103.013 369.681 102.956C369.743 102.899 369.811 102.852 369.884 102.805C370.009 102.69 370.196 102.654 370.363 102.596C370.556 102.524 370.634 102.524 370.754 102.492C371.66 102.305 372.546 102.206 373.442 102.164C374.233 102.128 375.03 102.086 375.822 102.096C376.327 102.117 376.838 102.143 377.348 102.216C377.854 102.31 378.349 102.487 378.802 102.742C379.088 102.899 379.026 102.94 378.734 103.029C378.442 103.107 377.916 103.362 377.375 103.399C377.13 103.414 376.895 103.388 376.656 103.388H375.932C375.447 103.404 374.968 103.393 374.483 103.414C373.515 103.456 372.535 103.518 371.566 103.617C371.426 103.638 371.275 103.654 371.134 103.68L370.811 103.748C370.764 103.758 370.712 103.769 370.676 103.8C370.655 103.841 370.66 103.894 370.66 103.946L370.649 104.295V104.758C370.649 105.071 370.649 105.378 370.649 105.691V107.222L370.665 107.978C370.67 108.071 370.649 108.202 370.696 108.285C370.853 108.311 370.894 108.321 371.316 108.332C372.15 108.353 372.994 108.363 373.837 108.363C375.114 108.363 376.395 108.379 377.661 108.327C377.906 108.316 378.151 108.301 378.39 108.28L378.578 108.254L378.666 108.238C378.698 108.238 378.724 108.228 378.729 108.186C378.75 108.123 378.755 108.061 378.76 108.004V107.915L378.765 107.879L378.776 107.795C378.802 107.566 378.817 107.332 378.833 107.097C378.844 106.889 378.854 106.686 378.859 106.477C378.89 106.092 378.916 105.842 378.989 105.665C379.073 105.488 379.182 105.389 379.344 105.3C379.417 105.264 379.489 105.211 379.562 105.185C379.682 105.144 379.792 105.206 379.896 105.357C379.995 105.508 380.089 105.748 380.109 106.055C380.146 106.514 380.167 106.972 380.135 107.446C380.12 107.696 380.104 107.889 380.057 108.191C380.021 108.41 379.974 108.618 379.906 108.816C379.849 109.03 379.708 109.155 379.583 109.301C379.307 109.514 378.817 109.561 378.411 109.572L377.718 109.603C377.26 109.613 376.796 109.629 376.333 109.639C374.957 109.665 373.577 109.644 372.197 109.603V109.572V109.566Z" fill="#231F20"/>
<path d="M393.055 109.52L391.821 109.483L391.117 109.463C390.721 109.478 390.43 109.348 390.128 109.249C390.008 109.041 389.909 108.838 389.867 108.556C389.831 108.431 389.825 108.285 389.82 108.14L389.81 107.843L389.789 106.879C389.784 106.342 389.747 105.811 389.752 105.28L389.779 103.785C389.81 103.389 389.81 102.998 390.154 102.811C390.44 102.623 390.925 102.524 391.102 102.488C392.065 102.305 393.003 102.201 393.956 102.154C394.8 102.112 395.644 102.071 396.483 102.076C397.019 102.092 397.566 102.113 398.103 102.185C398.639 102.279 399.171 102.456 399.66 102.717C399.962 102.883 399.9 102.92 399.593 103.003C399.442 103.045 399.223 103.113 398.973 103.201C398.723 103.279 398.447 103.342 398.15 103.368C397.634 103.368 397.123 103.347 396.608 103.368C396.092 103.373 395.576 103.368 395.055 103.394C394.019 103.441 392.967 103.509 391.925 103.608C391.768 103.623 391.612 103.644 391.461 103.67L391.122 103.733C391.076 103.743 391.013 103.748 390.982 103.79C390.971 103.842 390.971 103.894 390.971 103.946L390.961 104.368V104.863C390.961 105.196 390.961 105.525 390.961 105.858V107.29L390.982 107.962C390.987 108.051 390.966 108.166 391.013 108.244C391.117 108.265 391.19 108.265 391.341 108.275L392.081 108.285C392.977 108.285 393.873 108.275 394.769 108.254L396.811 108.218L397.827 108.186L398.332 108.166L398.744 108.14C398.837 108.134 398.905 108.124 398.973 108.119C399.004 108.108 399.051 108.119 399.066 108.087C399.082 108.051 399.082 108.014 399.087 107.978C399.093 107.905 399.093 107.837 399.093 107.759V107.462C399.087 106.952 399.061 106.441 399.046 105.926C399.035 105.696 399.02 105.478 399.02 105.248C399.009 104.399 399.129 104.134 399.457 103.946C399.53 103.904 399.603 103.847 399.676 103.821C399.796 103.779 399.905 103.847 400.009 103.998C400.108 104.154 400.212 104.399 400.249 104.717C400.379 105.655 400.431 106.613 400.41 107.613C400.379 107.863 400.421 108.52 400.186 108.822C400.134 108.91 400.077 108.978 400.015 109.062L399.994 109.093V109.098C400.046 109.155 400.004 109.114 400.02 109.129H400.015L399.999 109.145L399.947 109.187C399.916 109.218 399.874 109.244 399.817 109.254C399.613 109.322 399.4 109.39 399.186 109.39L398.212 109.447L397.472 109.478C396.009 109.536 394.54 109.546 393.065 109.536V109.504L393.055 109.52Z" fill="#231F20"/>
<path d="M372.614 123.991L371.645 123.939L370.978 123.897C370.822 123.897 370.707 123.845 370.582 123.809C370.457 123.767 370.337 123.731 370.217 123.684C370.144 123.569 370.092 123.439 370.035 123.319C369.988 123.189 369.967 123.022 369.931 122.876C369.905 122.736 369.905 122.522 369.9 122.418L369.889 122.142L369.874 121.048C369.874 120.548 369.837 120.048 369.842 119.548L369.879 118.099L369.9 117.823C369.915 117.74 369.941 117.657 369.962 117.578C369.973 117.49 370.03 117.438 370.098 117.381C370.16 117.323 370.228 117.276 370.301 117.229C370.426 117.115 370.613 117.078 370.78 117.021C370.973 116.948 371.051 116.948 371.171 116.917C372.077 116.729 372.963 116.63 373.859 116.589C374.65 116.552 375.447 116.511 376.239 116.521C376.744 116.542 377.255 116.568 377.765 116.641C378.271 116.735 378.766 116.912 379.219 117.167C379.505 117.323 379.443 117.365 379.151 117.453C378.859 117.532 378.333 117.787 377.792 117.823C377.547 117.839 377.312 117.813 377.073 117.813H376.349C375.864 117.829 375.385 117.818 374.9 117.839C373.932 117.881 372.952 117.943 371.983 118.042C371.843 118.063 371.692 118.079 371.551 118.105L371.228 118.172C371.181 118.183 371.129 118.193 371.093 118.224C371.072 118.266 371.077 118.318 371.077 118.37L371.066 118.719V119.183C371.066 119.495 371.066 119.803 371.066 120.115V121.647L371.082 122.402C371.087 122.496 371.066 122.626 371.113 122.71C371.27 122.736 371.311 122.746 371.733 122.756C372.567 122.777 373.411 122.788 374.254 122.788C375.531 122.788 376.812 122.803 378.078 122.751C378.323 122.741 378.568 122.725 378.807 122.704L378.995 122.678L379.083 122.663C379.115 122.663 379.141 122.652 379.146 122.611C379.167 122.548 379.172 122.486 379.177 122.428V122.34L379.182 122.303L379.193 122.22C379.219 121.991 379.234 121.756 379.25 121.522C379.261 121.313 379.271 121.11 379.276 120.902C379.307 120.516 379.333 120.266 379.406 120.089C379.49 119.912 379.599 119.813 379.761 119.725C379.834 119.688 379.906 119.636 379.979 119.61C380.099 119.568 380.209 119.631 380.313 119.782C380.412 119.933 380.505 120.173 380.526 120.48C380.563 120.938 380.584 121.397 380.552 121.871C380.537 122.121 380.521 122.314 380.474 122.616C380.438 122.835 380.391 123.043 380.323 123.241C380.266 123.454 380.125 123.579 380 123.725C379.724 123.939 379.234 123.986 378.828 123.996L378.135 124.027C377.677 124.038 377.213 124.054 376.75 124.064C375.374 124.09 373.994 124.069 372.614 124.027V123.996V123.991Z" fill="#231F20"/>
<path d="M393.47 123.949L392.236 123.913L391.532 123.892C391.136 123.908 390.845 123.778 390.543 123.679C390.423 123.47 390.324 123.267 390.282 122.986C390.246 122.861 390.24 122.715 390.235 122.569L390.225 122.272L390.204 121.308C390.199 120.772 390.162 120.24 390.167 119.709L390.194 118.214C390.225 117.818 390.225 117.428 390.569 117.24C390.855 117.052 391.34 116.953 391.517 116.917C392.48 116.735 393.418 116.631 394.371 116.584C395.215 116.542 396.059 116.5 396.898 116.506C397.434 116.521 397.981 116.542 398.518 116.615C399.054 116.709 399.586 116.886 400.075 117.146C400.377 117.313 400.315 117.349 400.008 117.433C399.857 117.474 399.638 117.542 399.388 117.631C399.138 117.709 398.862 117.771 398.565 117.797C398.049 117.797 397.538 117.777 397.023 117.797C396.507 117.803 395.991 117.797 395.47 117.823C394.434 117.87 393.382 117.938 392.34 118.037C392.183 118.053 392.027 118.073 391.876 118.1L391.538 118.162C391.491 118.172 391.428 118.178 391.397 118.219C391.386 118.271 391.386 118.324 391.386 118.376L391.376 118.798V119.292C391.376 119.626 391.376 119.954 391.376 120.287V121.72L391.397 122.392C391.402 122.48 391.381 122.595 391.428 122.673C391.532 122.694 391.605 122.694 391.756 122.704L392.496 122.715C393.392 122.715 394.288 122.704 395.184 122.684L397.226 122.647L398.242 122.616L398.747 122.595L399.159 122.569C399.252 122.564 399.32 122.553 399.388 122.548C399.419 122.538 399.466 122.548 399.482 122.517C399.497 122.48 399.497 122.444 399.502 122.408C399.508 122.335 399.508 122.267 399.508 122.189V121.892C399.502 121.381 399.476 120.871 399.461 120.355C399.45 120.126 399.435 119.907 399.435 119.678C399.424 118.829 399.544 118.563 399.872 118.376C399.945 118.334 400.018 118.277 400.091 118.251C400.211 118.209 400.32 118.277 400.424 118.428C400.523 118.584 400.628 118.829 400.664 119.147C400.794 120.084 400.846 121.043 400.825 122.043C400.794 122.293 400.836 122.949 400.601 123.251C400.549 123.34 400.492 123.408 400.43 123.491L400.409 123.522V123.527C400.461 123.585 400.419 123.543 400.435 123.559H400.43L400.414 123.574L400.362 123.616C400.331 123.647 400.289 123.673 400.232 123.684C400.028 123.751 399.815 123.819 399.601 123.819L398.627 123.876L397.888 123.908C396.424 123.965 394.955 123.975 393.481 123.965V123.934L393.47 123.949Z" fill="#231F20"/>
<path d="M408.953 137.986C409.276 138.033 409.604 138.07 409.937 138.096C410.057 138.106 410.177 138.075 410.302 138.085C410.734 138.132 411.172 138.148 411.609 138.195C411.802 138.21 411.995 138.195 412.188 138.184C412.432 138.174 412.682 138.195 412.938 138.278C413.016 138.304 413.016 138.403 412.964 138.533C412.912 138.658 412.813 138.851 412.677 138.935C412.557 138.997 412.443 139.07 412.323 139.122C412.203 139.153 412.078 139.179 411.953 139.2C411.708 139.237 411.458 139.273 411.198 139.216C410.89 139.164 410.583 139.252 410.271 139.268C409.927 139.284 409.583 139.278 409.234 139.268C409.02 139.268 408.807 139.247 408.588 139.237C408.26 139.221 407.937 139.174 407.609 139.169C407.353 139.159 407.088 139.216 406.827 139.185C406.77 139.174 406.713 139.185 406.655 139.153C406.452 139.054 406.411 138.945 406.437 138.7C406.442 138.643 406.447 138.591 406.457 138.539C406.489 138.367 406.614 138.231 406.77 138.148C407.004 138.013 407.202 137.95 407.406 137.924C407.609 137.887 407.807 137.898 408.015 137.908C408.328 137.924 408.645 137.945 408.963 137.96V137.992L408.953 137.986Z" fill="#231F20"/>
<path d="M388.58 129.401L388.199 129.141L387.777 128.948C387.507 128.792 387.173 128.76 386.871 128.662C386.553 128.599 386.22 128.589 385.892 128.547H385.392C385.225 128.557 385.069 128.583 384.902 128.594C384.433 128.667 383.99 128.823 383.579 129.016C383.219 129.198 382.881 129.427 382.579 129.703C382.282 129.99 382.021 130.323 381.787 130.688C381.334 131.428 381.031 132.287 380.828 133.178C380.646 133.97 380.594 134.798 380.552 135.616C380.526 136.142 380.537 136.673 380.531 137.205C380.531 137.736 380.526 138.272 380.375 138.819C380.25 139.163 380.13 139.101 379.891 138.819C379.766 138.679 379.63 138.481 379.484 138.241C379.359 138.002 379.286 137.715 379.266 137.403C379.125 135.199 379.276 132.813 380.406 130.657C380.75 130.021 381.157 129.391 381.688 128.839C382.219 128.292 382.891 127.854 383.61 127.604C384.402 127.328 385.225 127.245 386.017 127.276C386.808 127.333 387.621 127.443 388.371 127.781C389.293 128.167 390.122 128.813 390.695 129.62C391.585 130.834 391.976 132.277 392.231 133.662C392.408 134.746 392.565 135.824 392.58 136.908C392.591 137.147 392.596 137.382 392.575 137.621C392.554 137.845 392.539 138.028 392.502 138.179C392.46 138.33 392.393 138.45 392.341 138.549C392.226 138.741 392.111 138.845 391.966 138.924C391.903 138.96 391.841 139.007 391.788 139.028C391.627 139.09 391.445 138.71 391.299 138.074C391.174 137.142 391.169 136.215 391.049 135.288C390.934 134.366 390.788 133.449 390.554 132.574C390.351 131.943 390.142 131.308 389.799 130.776C389.653 130.485 389.439 130.271 389.252 130.016C389.147 129.901 389.028 129.808 388.918 129.703L388.751 129.547C388.689 129.5 388.621 129.464 388.559 129.422L388.574 129.391L388.58 129.401Z" fill="#231F20"/>
<path d="M385.114 139.547L378.139 139.401L375.597 139.391C372.607 139.323 369.622 139.25 366.632 139.234C365.309 139.234 363.975 139.276 362.663 139.323C360.975 139.365 359.298 139.51 357.605 139.37C357.068 139.318 357.136 139.338 357.558 139.141C357.974 138.911 358.777 138.469 359.756 138.302C363.225 137.88 366.689 137.927 370.174 138.021C372.258 138.093 374.43 138.01 376.561 138.015C378.905 138.015 381.249 138.057 383.593 138.088C385.036 138.109 386.479 138.125 387.917 138.146C390.099 138.166 392.293 138.208 394.46 138.177C396.142 138.156 397.793 138.041 399.46 137.963C399.825 137.948 400.184 137.916 400.554 137.906C401.924 137.869 402.362 137.958 402.659 138.37C402.727 138.458 402.815 138.547 402.857 138.63C402.992 138.906 402.435 139.219 401.429 139.302C398.45 139.594 395.309 139.635 392.157 139.641C389.813 139.641 387.464 139.604 385.114 139.583V139.547Z" fill="#231F20"/>
<path d="M380.048 87.4041C382.902 85.534 386.46 85.409 389.263 87.4458C389.596 87.6854 390.101 87.4979 390.294 87.1749C390.523 86.7946 390.351 86.3779 390.023 86.1435C386.82 83.8098 382.543 83.9608 379.282 86.1018C378.475 86.6332 379.23 87.9407 380.042 87.4041H380.048Z" fill="#231F20"/>
<path d="M372.848 83.7949C376.307 81.5081 380.329 80.112 384.491 80.0287C388.653 79.9453 392.982 81.3362 396.477 83.8991C397.357 84.545 398.201 83.076 397.331 82.4353C391.544 78.1846 384.006 77.247 377.276 79.6744C375.416 80.3464 373.64 81.2372 371.994 82.3259C371.088 82.925 371.937 84.3888 372.848 83.7897V83.7949Z" fill="#231F20"/>
<path d="M364.684 80.5597C373.852 74.4806 385.479 72.35 395.975 76.0746C399.08 77.1789 401.981 78.7834 404.633 80.7368C405.508 81.3827 406.357 79.9138 405.487 79.273C400.684 75.7256 395.069 73.47 389.135 72.7511C383.202 72.0323 377.722 72.8293 372.404 74.7619C369.382 75.861 366.502 77.3144 363.824 79.0907C362.918 79.6898 363.767 81.1587 364.678 80.5545L364.684 80.5597Z" fill="#231F20"/>
<path d="M384.912 88.707H384.829C384.688 88.7018 384.553 88.7331 384.433 88.7956C384.308 88.8373 384.193 88.9102 384.1 89.0092C384.001 89.1029 383.928 89.2123 383.886 89.3426C383.823 89.4676 383.792 89.5978 383.797 89.7385L383.834 90.0145C383.881 90.1864 383.969 90.3427 384.1 90.4677L384.308 90.6292C384.469 90.723 384.641 90.7699 384.829 90.7699H384.912C385.053 90.7751 385.188 90.7438 385.308 90.6813C385.433 90.6396 385.548 90.5667 385.641 90.4677C385.74 90.374 385.813 90.2646 385.855 90.1344C385.918 90.0093 385.949 89.8791 385.944 89.7385L385.907 89.4624C385.86 89.2905 385.772 89.1342 385.641 89.0092L385.433 88.8477C385.272 88.7539 385.1 88.707 384.912 88.707Z" fill="#231F20"/>
<path d="M384 50V34H198" stroke="#C7C7C7" stroke-dasharray="2 2"/>
<path d="M201 167V181L384 181" stroke="#C7C7C7" stroke-dasharray="2 2"/>
<rect x="0.5" y="0.693115" width="584.5" height="208.193" rx="3.5" stroke="#E5E5E5"/>
</svg>
