<svg width="56" height="57" viewBox="0 0 56 57" fill="none" xmlns="http://www.w3.org/2000/svg">
<rect y="0.193115" width="56" height="56" rx="8" fill="#F4F4F4"/>
<path d="M18 36.1931V35.1931C18 31.3271 21.134 28.1931 25 28.1931V28.1931" stroke="black" stroke-width="1.5" stroke-linecap="round" stroke-linejoin="round"/>
<path d="M31.8038 28.5066C32.4456 27.8019 33.5544 27.8019 34.1962 28.5066V28.5066C34.5206 28.8628 34.9868 29.0559 35.468 29.0334V29.0334C36.4201 28.9889 37.2042 29.773 37.1597 30.7251V30.7251C37.1372 31.2063 37.3303 31.6725 37.6865 31.9969V31.9969C38.3912 32.6387 38.3912 33.7475 37.6865 34.3893V34.3893C37.3303 34.7137 37.1372 35.1799 37.1597 35.6611V35.6611C37.2042 36.6132 36.4201 37.3973 35.468 37.3528V37.3528C34.9868 37.3303 34.5206 37.5234 34.1962 37.8796V37.8796C33.5544 38.5843 32.4456 38.5843 31.8038 37.8796V37.8796C31.4794 37.5234 31.0132 37.3303 30.532 37.3528V37.3528C29.5799 37.3973 28.7958 36.6132 28.8403 35.6611V35.6611C28.8628 35.1799 28.6697 34.7137 28.3135 34.3893V34.3893C27.6088 33.7475 27.6088 32.6387 28.3135 31.9969V31.9969C28.6697 31.6725 28.8628 31.2063 28.8403 30.7251V30.7251C28.7958 29.773 29.5799 28.9889 30.532 29.0334V29.0334C31.0132 29.0559 31.4794 28.8628 31.8038 28.5066V28.5066Z" stroke="black" stroke-width="1.5"/>
<path d="M31.3633 33.1931L32.4542 34.284L34.636 32.1022" stroke="black" stroke-width="1.5" stroke-linecap="round" stroke-linejoin="round"/>
<path d="M25 28.1931C27.2091 28.1931 29 26.4023 29 24.1931C29 21.984 27.2091 20.1931 25 20.1931C22.7909 20.1931 21 21.984 21 24.1931C21 26.4023 22.7909 28.1931 25 28.1931Z" stroke="black" stroke-width="1.5" stroke-linecap="round" stroke-linejoin="round"/>
</svg>
