<svg width="25" height="24" viewBox="0 0 25 24" fill="none" xmlns="http://www.w3.org/2000/svg">
<path d="M16.8054 20H4.43301C4.10164 20 3.83301 19.7314 3.83301 19.4V9.6C3.83301 9.26863 4.10164 9 4.43301 9H7.20063C7.90315 9 8.55417 8.6314 8.91561 8.02899L11.626 3.51161C12.2109 2.53688 13.5884 2.44422 14.2985 3.33186C14.6332 3.75025 14.7411 4.30635 14.5871 4.81956L13.5647 8.22759C13.4492 8.61256 13.7375 9 14.1394 9H18.7145C20.0333 9 20.991 10.254 20.644 11.5262L18.7349 18.5262C18.4976 19.3964 17.7073 20 16.8054 20Z" stroke="black" stroke-width="1.5" stroke-linecap="round"/>
<path d="M7.33301 20L7.33301 9" stroke="black" stroke-width="1.5" stroke-linecap="round" stroke-linejoin="round"/>
</svg>
