<svg width="57" height="57" viewBox="0 0 57 57" fill="none" xmlns="http://www.w3.org/2000/svg">
<rect x="0.333008" y="0.193115" width="56" height="56" rx="8" fill="#F4F4F4"/>
<path d="M32.8054 36.1931H20.433C20.1016 36.1931 19.833 35.9245 19.833 35.5931V25.7931C19.833 25.4617 20.1016 25.1931 20.433 25.1931H23.2006C23.9032 25.1931 24.5542 24.8245 24.9156 24.2221L27.626 19.7047C28.2109 18.73 29.5884 18.6373 30.2985 19.525C30.6332 19.9434 30.7411 20.4995 30.5871 21.0127L29.5647 24.4207C29.4492 24.8057 29.7375 25.1931 30.1394 25.1931H34.7145C36.0333 25.1931 36.991 26.4471 36.644 27.7193L34.7349 34.7194C34.4976 35.5895 33.7073 36.1931 32.8054 36.1931Z" stroke="black" stroke-width="1.5" stroke-linecap="round"/>
<path d="M23.333 36.1931V25.1931" stroke="black" stroke-width="1.5" stroke-linecap="round" stroke-linejoin="round"/>
</svg>
