<svg width="18" height="18" viewBox="0 0 18 18" fill="none" xmlns="http://www.w3.org/2000/svg">
<g id="twitter">
<path id="Vector" d="M17.25 2.25754C17.25 2.25754 15.7366 3.15162 14.895 3.40504C14.4433 2.88567 13.843 2.51756 13.1753 2.35049C12.5076 2.18341 11.8046 2.22544 11.1616 2.47088C10.5185 2.71633 9.96633 3.15334 9.57974 3.72283C9.19314 4.29232 8.99077 4.96679 9 5.65504V6.40504C7.68198 6.43922 6.37596 6.1469 5.19826 5.55413C4.02056 4.96135 3.00774 4.08652 2.25 3.00754C2.25 3.00754 -0.75 9.75754 6 12.7575C4.4554 13.806 2.61537 14.3317 0.75 14.2575C7.5 18.0075 15.75 14.2575 15.75 5.63254C15.7493 5.42363 15.7292 5.21524 15.69 5.01004C16.4555 4.25516 17.25 2.25754 17.25 2.25754Z" stroke="white" stroke-width="1.125" stroke-linecap="round" stroke-linejoin="round"/>
</g>
</svg>
