<svg xmlns="http://www.w3.org/2000/svg" width="20" height="20" viewBox="0 0 20 20" fill="none">
  <path d="M19.1654 2.50008C18.3674 3.06298 17.4838 3.4935 16.5487 3.77508C16.0468 3.198 15.3798 2.78899 14.6379 2.60335C13.896 2.41771 13.1149 2.46441 12.4004 2.73712C11.6859 3.00984 11.0724 3.49541 10.6428 4.12818C10.2133 4.76094 9.98845 5.51036 9.9987 6.27508V7.10841C8.53423 7.14639 7.08309 6.82159 5.77454 6.16295C4.46598 5.50431 3.34063 4.53228 2.4987 3.33341C2.4987 3.33341 -0.834635 10.8334 6.66536 14.1667C4.94914 15.3317 2.90466 15.9159 0.832031 15.8334C8.33203 20.0001 17.4987 15.8334 17.4987 6.25008C17.4979 6.01796 17.4756 5.78641 17.432 5.55841C18.2825 4.71966 18.8827 3.66067 19.1654 2.50008V2.50008Z" stroke="black" stroke-width="1.66667" stroke-linecap="round" stroke-linejoin="round"/>
</svg>


<svg width="25" height="25" viewBox="0 0 20 20" fill="none" xmlns="http://www.w3.org/2000/svg">
<path d="M17.5 6.66667V13.3333C17.5 15.6345 15.6345 17.5 13.3333 17.5H6.66667C4.36548 17.5 2.5 15.6345 2.5 13.3333V6.66667C2.5 4.36548 4.36548 2.5 6.66667 2.5H13.3333C15.6345 2.5 17.5 4.36548 17.5 6.66667Z" stroke="black" stroke-width="1.67" stroke-linecap="round" stroke-linejoin="round"/>
<path d="M5.83398 14.166V11.2493V8.33268" stroke="black" stroke-width="1.67" stroke-linecap="round" stroke-linejoin="round"/>
<path d="M9.16602 14.166V11.4577M9.16602 8.33268V11.4577M9.16602 11.4577C9.16602 8.33268 14.166 7.37434 14.166 10.4993V14.166" stroke="black" stroke-width="1.67" stroke-linecap="round" stroke-linejoin="round"/>
<path d="M5.83398 5.84273L5.84273 5.83301" stroke="black" stroke-width="1.67" stroke-linecap="round" stroke-linejoin="round"/>
</svg>

<svg width="20" height="20" viewBox="0 0 20 20" fill="none" xmlns="http://www.w3.org/2000/svg">
<path d="M14.1667 1.66602H11.6667C10.5616 1.66602 9.50179 2.105 8.72039 2.8864C7.93899 3.66781 7.5 4.72761 7.5 5.83268V8.33268H5V11.666H7.5V18.3327H10.8333V11.666H13.3333L14.1667 8.33268H10.8333V5.83268C10.8333 5.61167 10.9211 5.39971 11.0774 5.24343C11.2337 5.08715 11.4457 4.99935 11.6667 4.99935H14.1667V1.66602Z" stroke="black" stroke-width="1.67" stroke-linecap="round" stroke-linejoin="round"/>
</svg>

