<svg xmlns="http://www.w3.org/2000/svg" width="20" height="20" viewBox="0 0 20 20" fill="none">
  <path d="M19.1654 2.50008C18.3674 3.06298 17.4838 3.4935 16.5487 3.77508C16.0468 3.198 15.3798 2.78899 14.6379 2.60335C13.896 2.41771 13.1149 2.46441 12.4004 2.73712C11.6859 3.00984 11.0724 3.49541 10.6428 4.12818C10.2133 4.76094 9.98845 5.51036 9.9987 6.27508V7.10841C8.53423 7.14639 7.08309 6.82159 5.77454 6.16295C4.46598 5.50431 3.34063 4.53228 2.4987 3.33341C2.4987 3.33341 -0.834635 10.8334 6.66536 14.1667C4.94914 15.3317 2.90466 15.9159 0.832031 15.8334C8.33203 20.0001 17.4987 15.8334 17.4987 6.25008C17.4979 6.01796 17.4756 5.78641 17.432 5.55841C18.2825 4.71966 18.8827 3.66067 19.1654 2.50008V2.50008Z" stroke="black" stroke-width="1.66667" stroke-linecap="round" stroke-linejoin="round"/>
</svg>
