<svg width="20" height="19" viewBox="0 0 20 19" fill="none" xmlns="http://www.w3.org/2000/svg">
<g id="twitter" clip-path="url(#clip0_812_3955)">
<path id="Vector" d="M18.2604 2.35571C18.2604 2.35571 16.6811 3.28866 15.803 3.5531C15.3316 3.01115 14.7052 2.62703 14.0085 2.45269C13.3117 2.27836 12.5782 2.32221 11.9072 2.57832C11.2362 2.83444 10.66 3.29046 10.2566 3.8847C9.8532 4.47895 9.64204 5.18275 9.65166 5.90093V6.68354C8.27633 6.7192 6.91353 6.41417 5.68463 5.79562C4.45572 5.17708 3.39887 4.26421 2.60819 3.13832C2.60819 3.13832 -0.522249 10.1818 6.52123 13.3122C4.90947 14.4063 2.98944 14.9549 1.04297 14.8774C8.08645 18.7905 16.6951 14.8774 16.6951 5.87745C16.6944 5.65946 16.6735 5.442 16.6325 5.22788C17.4313 4.44018 18.2604 2.35571 18.2604 2.35571Z" stroke="black" stroke-width="1.125" stroke-linecap="round" stroke-linejoin="round"/>
</g>
<defs>
<clipPath id="clip0_812_3955">
<rect width="18.7826" height="18.7826" fill="white" transform="translate(0.261719)"/>
</clipPath>
</defs>
</svg>
