<svg width="385" height="207" viewBox="0 0 385 207" fill="none" xmlns="http://www.w3.org/2000/svg">
<rect x="0.666992" width="383.667" height="207" rx="4" fill="white"/>
<rect x="107.38" y="68.3802" width="105.24" height="97.2396" fill="white" stroke="#C7C7C7" stroke-width="0.760417"/>
<rect x="111.883" y="72.974" width="96.2396" height="88.2396" fill="#FFEAEB" stroke="#D9D9D9" stroke-width="0.760417"/>
<path d="M155.279 139.09L139.258 96.6562L147.152 96.6562L156.44 121.095C157.369 123.649 158.182 126.145 159.11 129.57C160.155 125.855 161.026 123.243 161.839 121.095L171.01 96.6562L178.731 96.6562L162.942 139.09L155.279 139.09Z" fill="black"/>
<rect x="171.38" y="41.3802" width="105.24" height="97.2396" fill="white" stroke="#C7C7C7" stroke-width="0.760417"/>
<rect x="175.778" y="45.8688" width="96.45" height="88.45" fill="#EDEDED" stroke="#D9D9D9" stroke-width="0.55"/>
<path d="M211.136 74.1724L212.153 73.7623C212.487 73.6201 212.815 73.4506 213.143 73.2974C213.816 72.9966 214.45 72.6302 215.09 72.2693C215.566 72.0177 215.987 71.6841 216.446 71.3998C218.048 70.3791 219.564 69.2305 220.98 67.9654C221.603 67.3912 222.221 66.806 222.785 66.1881C223.162 65.7998 223.512 65.3896 223.878 64.9849C224.245 64.5802 224.628 64.2029 225.021 63.8256C225.268 63.5904 225.339 63.7107 225.278 64.0279C225.164 64.522 224.946 64.9861 224.639 65.3896C223.224 67.1479 221.598 68.7256 219.799 70.0873C219.531 70.2896 219.252 70.5029 218.989 70.7162L218.158 71.3506C217.611 71.7826 217.032 72.1709 216.457 72.5537C215.883 72.9365 215.145 73.3357 214.494 73.724C213.843 74.1123 213.138 74.424 212.443 74.7357C211.579 75.1021 210.715 75.4795 209.824 75.7638C209.485 75.8732 209.157 75.999 208.812 76.1029L207.784 76.3763C207.439 76.4638 207.106 76.5732 206.756 76.6443L205.722 76.874L204.924 77.0545C204.656 77.1146 204.377 77.1474 204.12 77.1966C203.573 77.2896 203.026 77.3881 202.518 77.4646C202.277 77.4646 202.047 77.5138 201.801 77.5248C200.91 77.5795 200.62 77.5248 200.428 77.2185C200.38 77.1595 200.338 77.0953 200.303 77.0271C200.221 76.8138 200.576 76.617 201.205 76.4802L202.616 76.3271C203.092 76.2341 203.562 76.1521 204.043 76.0865C204.528 76.0089 205.008 75.9067 205.482 75.7802C205.963 75.6763 206.45 75.6107 206.925 75.4795C208.359 75.1348 209.767 74.687 211.136 74.1396V74.1724Z" fill="#221F1F"/>
<path d="M213.241 111.06C212.341 109.886 211.533 108.645 210.823 107.347C210.102 106.084 209.445 104.788 208.816 103.486C208.357 102.534 207.881 101.588 207.455 100.631L203.08 90.4431C202.434 88.9337 201.767 87.4243 201.144 85.9149C200.744 84.947 200.318 83.9845 199.946 82.9946C199.76 82.5024 199.585 82.0103 199.399 81.5126C199.213 81.0149 199.115 80.4954 198.989 79.9868C198.841 79.347 199.027 79.3798 199.416 79.8282C199.612 80.0524 199.864 80.3751 200.148 80.7743C200.443 81.2319 200.692 81.7173 200.892 82.2235C201.68 84.1923 202.533 86.1392 203.353 88.097L205.819 94.0251C206.798 96.4095 207.919 98.8431 209.019 101.217C210.198 103.837 211.546 106.378 213.055 108.824C213.993 110.284 215.169 111.578 216.533 112.652C218.623 114.322 220.921 115.715 223.369 116.797C225.236 117.617 227.17 118.278 229.149 118.771L230.44 119.088C232.08 119.471 232.556 119.635 232.879 119.985C232.95 120.062 233.048 120.138 233.092 120.199C233.136 120.259 233.016 120.379 232.698 120.423C232.216 120.495 231.726 120.495 231.244 120.423C229.335 120.179 227.463 119.709 225.666 119.023C223.809 118.347 222.01 117.524 220.284 116.562C217.642 115.147 215.255 113.298 213.224 111.093L213.241 111.06Z" fill="#231F20"/>
<path d="M247.137 95.6705C246.951 97.9345 246.797 100.199 246.694 102.468C246.694 102.884 246.694 103.277 246.633 103.742C246.592 104.19 246.51 104.633 246.387 105.066C245.518 108.046 243.784 110.535 241.958 112.837C241.143 113.87 240.284 114.871 239.404 115.828C238.284 117.085 237.019 118.205 235.636 119.164C235.193 119.449 235.122 119.219 235.329 118.765C235.67 118.104 236.119 117.505 236.658 116.993C239.042 114.673 241.204 112.135 243.117 109.413C243.39 108.992 243.664 108.571 243.904 108.128C244.025 107.904 244.151 107.685 244.265 107.456L244.583 106.767C244.807 106.307 244.938 105.82 245.129 105.35C245.267 104.88 245.375 104.401 245.452 103.917C245.503 103.654 245.529 103.387 245.529 103.119L245.562 102.255L245.638 100.532C245.7 99.3837 245.768 98.2353 245.84 97.0869C245.933 95.6759 246.048 94.2595 246.163 92.8541C246.349 90.7158 246.601 88.5775 246.858 86.4611C247.093 84.8205 247.257 83.1798 247.634 81.572C247.7 81.2026 247.788 80.8373 247.897 80.4783C248.356 79.1767 248.744 78.8376 249.045 78.6626C249.114 78.625 249.185 78.5921 249.258 78.5642C249.461 78.5642 249.34 79.1111 249.127 79.997C248.542 82.7642 248.181 85.783 247.815 88.8181C247.563 91.0822 247.344 93.3626 247.18 95.6431L247.137 95.6705Z" fill="#221F1F"/>
<path d="M239.574 68.2183C239.027 67.9941 238.447 67.759 237.906 67.491C237.364 67.223 236.812 66.9441 236.298 66.6652C235.904 66.4683 235.521 66.2605 235.144 66.0308C233.837 65.2102 232.59 64.2964 231.414 63.2965C230.867 62.8699 230.364 62.4215 229.845 61.9949L228.86 61.1472C228.545 60.8477 228.25 60.526 227.98 60.1847C227.646 59.7636 228.778 59.6379 229.5 60.2394C230.796 61.3332 232.125 62.4269 233.465 63.5207C233.87 63.8566 234.304 64.1567 234.761 64.4176C235.21 64.7019 235.685 64.9644 236.145 65.2051C236.604 65.4457 237.173 65.7519 237.687 66.0144C238.201 66.2769 238.742 66.5066 239.278 66.7199L240.285 67.1027C240.618 67.223 240.963 67.3215 241.307 67.4254C241.821 67.6004 242.357 67.6988 242.882 67.8301C243.407 67.9613 243.976 68.0105 244.479 68.0816C244.895 68.0816 245.31 68.0816 245.721 68.0816C246.131 68.0816 246.541 68.0215 246.946 68.0051C247.126 68.0051 247.301 67.9668 247.492 67.9449C248.16 67.8793 248.378 67.9449 248.586 68.2894C248.633 68.363 248.676 68.4397 248.712 68.5191C248.81 68.7761 248.553 69.0222 248.034 69.148C247.246 69.342 246.439 69.4448 245.628 69.4543C245.217 69.4543 244.807 69.416 244.392 69.3886C243.976 69.3613 243.566 69.2738 243.156 69.2082C242.549 69.1043 241.947 68.9402 241.351 68.7871C240.755 68.634 240.121 68.4863 239.574 68.2511V68.2183Z" fill="#221F1F"/>
<path d="M210.77 72.631C212.31 71.8744 213.789 71.0005 215.194 70.0169C215.708 69.6505 216.19 69.2458 216.687 68.863C218.47 67.5202 220.142 66.0351 221.686 64.4224C222.371 63.7062 223.014 62.9502 223.611 62.1583C223.993 61.6552 224.354 61.1356 224.704 60.6216C225.054 60.1075 225.481 59.6263 225.853 59.1286C226.088 58.8224 226.263 58.9481 226.34 59.3802C226.379 59.6559 226.379 59.9357 226.34 60.2114C226.31 60.5723 226.203 60.9228 226.028 61.2396C225.317 62.3867 224.528 63.4831 223.665 64.5208C222.795 65.5437 221.844 66.4947 220.822 67.3646C219.602 68.4146 218.415 69.5903 217.119 70.6021C215.695 71.7069 214.193 72.7067 212.624 73.5935C211.65 74.1403 210.661 74.6435 209.643 75.0919C208.1 75.7677 206.51 76.3324 204.886 76.7817C203.647 77.1683 202.387 77.4841 201.112 77.7278C200.828 77.7716 200.565 77.8317 200.265 77.8646C199.878 77.9306 199.481 77.9063 199.105 77.7935C198.992 77.7563 198.887 77.695 198.8 77.6138C198.712 77.5326 198.643 77.4335 198.597 77.3231C198.536 77.2211 198.487 77.1129 198.449 77.0005C198.35 76.645 198.766 76.3169 199.488 76.1638C200.035 76.0653 200.582 75.9177 201.129 75.8192C201.675 75.7208 202.222 75.5786 202.769 75.4419C203.863 75.2013 204.957 74.895 206.05 74.5505C207.675 74.0274 209.255 73.3745 210.775 72.5981L210.77 72.631Z" fill="#221F1F"/>
<path d="M217.845 85.6254C217.491 87.0551 217.434 88.5425 217.679 89.9951C217.923 91.4477 218.464 92.8344 219.267 94.0691C219.853 94.9838 220.551 95.8216 221.345 96.5629C222.731 97.8955 224.42 98.8698 226.267 99.4011C228.124 99.9295 230.099 99.8645 231.916 99.2152C233.518 98.5802 234.941 97.5647 236.062 96.2566C237.433 94.5399 238.3 92.4763 238.566 90.2957C238.632 89.623 238.878 89.6832 239.146 90.2957C239.312 90.726 239.408 91.1802 239.431 91.641C239.475 92.2876 239.382 92.9363 239.157 93.5441C238.738 94.7311 238.125 95.84 237.341 96.8254C236.95 97.3251 236.513 97.7866 236.034 98.2035L235.318 98.816L234.542 99.3629C233.472 100.049 232.288 100.54 231.047 100.812C229.806 101.091 228.524 101.134 227.268 100.938C224.252 100.41 221.508 98.8665 219.491 96.5629C218.371 95.3313 217.504 93.8907 216.941 92.3235C216.378 90.7563 216.129 89.0934 216.21 87.43C216.353 85.3816 217.056 83.4119 218.245 81.7371C219.204 80.5317 220.401 79.5359 221.761 78.8113C222.42 78.4377 223.108 78.1159 223.817 77.8488C224.519 77.5737 225.239 77.3489 225.972 77.1761C227.108 76.893 228.274 76.7534 229.445 76.7605C230.647 76.7598 231.836 77.0055 232.939 77.4824C233.185 77.5918 233.415 77.7285 233.656 77.8543C233.89 77.996 234.115 78.1531 234.328 78.3246C234.903 78.7703 235.352 79.3585 235.63 80.0308C235.703 80.2057 235.753 80.3896 235.777 80.5777C235.777 80.7213 235.761 80.8644 235.728 81.0043C235.71 81.1093 235.686 81.2134 235.657 81.316C235.608 81.4363 235.466 81.316 235.214 81.0918C234.963 80.8675 234.667 80.4629 234.241 80.0308C233.61 79.3852 232.847 78.8834 232.004 78.5597C231.127 78.2439 230.202 78.0793 229.27 78.073C227.278 78.0729 225.311 78.5078 223.506 79.3472C222.157 79.9507 220.93 80.7959 219.885 81.841C219.644 82.0996 219.418 82.3717 219.207 82.6558C219.109 82.8035 219.027 82.9511 218.928 83.0933L218.688 83.58L218.441 84.0668L218.245 84.5808C218.111 84.9227 218.001 85.2735 217.916 85.6308L217.845 85.6254Z" fill="#221F1F"/>
<path d="M235.455 86.6258C234.703 87.7517 234.031 88.9285 233.443 90.1477C233.218 90.5961 233.054 91.0719 232.841 91.5313L232.294 92.7508C232.084 93.4017 231.758 94.0094 231.332 94.5446C231.248 94.6399 231.14 94.7115 231.02 94.7524H230.921H230.883H230.823C230.76 94.7454 230.698 94.7326 230.637 94.7141C230.363 94.6183 230.11 94.4697 229.893 94.2766C229.639 94.0532 229.402 93.8119 229.182 93.5547L228.882 93.1883L228.635 92.9203C228.133 92.3033 227.6 91.7119 227.039 91.1485C226.683 90.793 226.311 90.4594 225.945 90.1203L225.682 89.8742L225.551 89.7594L225.485 89.6992C225.472 89.6701 225.456 89.6425 225.436 89.6172C225.378 89.5156 225.3 89.4264 225.207 89.3547C225.125 89.2869 225.039 89.2248 224.95 89.1688C224.786 89.0703 224.709 88.8789 225.07 88.7094C225.31 88.6261 225.567 88.5999 225.819 88.6328C225.99 88.6194 226.162 88.6194 226.333 88.6328C226.487 88.6827 226.632 88.7546 226.765 88.8461C227.655 89.4783 228.468 90.2124 229.188 91.0336L229.729 91.6406L229.986 91.936L230.112 92.0836C230.15 92.1274 230.112 92.1164 230.145 92.1383C230.185 92.2754 230.248 92.4048 230.331 92.5211C230.375 92.5867 230.407 92.5211 230.435 92.5211C230.462 92.4933 230.486 92.462 230.506 92.4282C230.559 92.3359 230.603 92.2389 230.637 92.1383C230.856 91.5313 231.064 90.9024 231.321 90.2953C231.879 88.9526 232.543 87.6561 233.306 86.418C233.777 85.6526 234.286 84.9115 234.832 84.1977C235.673 83.1123 236.632 82.1237 237.692 81.25C238.482 80.5392 239.352 79.9226 240.284 79.4125C240.489 79.2973 240.701 79.195 240.918 79.1063C241.21 78.9755 241.529 78.9174 241.848 78.9367C241.943 78.9443 242.035 78.9704 242.119 79.0136C242.204 79.0567 242.279 79.1161 242.34 79.1883C242.404 79.2485 242.463 79.3144 242.515 79.3852C242.657 79.6094 242.384 79.9321 241.903 80.2492C240.445 81.1691 239.11 82.2718 237.932 83.5305C237.031 84.4962 236.217 85.5393 235.499 86.6477L235.455 86.6258Z" fill="#221F1F"/>
<path d="M231.113 120.171C224.25 118.148 216.123 115.184 213.012 110.563C210.113 106.275 208.013 101.37 205.902 96.6502C203.501 91.34 201.035 85.9861 199.17 80.4736L198.202 82.3439C200.062 87.8674 202.533 93.2268 204.934 98.5314C207.072 103.251 209.172 108.156 212.071 112.449C214.762 116.436 226.804 121.533 229.073 120.899L231.113 120.171Z" fill="#231F20"/>
<path d="M240.733 70.1433C239.749 69.8825 238.783 69.5592 237.84 69.1753C237.496 69.0441 237.146 68.9074 236.812 68.7543C235.635 68.1878 234.516 67.5083 233.471 66.7253C233.236 66.5613 233.022 66.3644 232.793 66.1785C232.563 65.9925 232.328 65.8339 232.12 65.6316C231.912 65.4293 231.573 65.1558 231.294 64.8988C231.039 64.6321 230.8 64.3509 230.578 64.0566C230.31 63.6902 231.239 63.6519 231.808 64.2043C232.875 65.1704 234.008 66.0604 235.199 66.8675C235.56 67.1191 235.942 67.3387 236.342 67.5238L236.949 67.8082L237.567 68.0597C238.473 68.4368 239.401 68.76 240.345 69.0277C240.936 69.1699 241.521 69.3285 242.122 69.4269C243.024 69.6078 243.938 69.7266 244.857 69.7824C245.568 69.7824 246.262 69.7824 246.962 69.7222L247.421 69.6894C248.001 69.6621 248.182 69.7277 248.324 69.9957C248.357 70.0536 248.387 70.1139 248.411 70.1761C248.482 70.3839 248.247 70.5644 247.815 70.6464C247.16 70.7653 246.496 70.8311 245.83 70.8433C245.145 70.8485 244.46 70.8102 243.779 70.7285C242.759 70.6117 241.747 70.429 240.75 70.1816L240.733 70.1433Z" fill="#221F1F"/>
<rect x="1.16699" y="0.5" width="382.667" height="206" rx="3.5" stroke="black" stroke-opacity="0.1"/>
</svg>
