<svg width="18" height="18" viewBox="0 0 18 18" fill="none" xmlns="http://www.w3.org/2000/svg">
<g id="youtube">
<path id="Vector" d="M10.5 9L7.875 10.5V7.5L10.5 9Z" fill="white" stroke="white" stroke-width="1.125" stroke-linecap="round" stroke-linejoin="round"/>
<path id="Vector_2" d="M1.5 9.53052V8.46917C1.5 6.29767 1.5 5.21192 2.17912 4.51332C2.85824 3.81472 3.92742 3.78448 6.06577 3.724C7.07905 3.69534 8.11412 3.6748 9 3.6748C9.88588 3.6748 10.9209 3.69534 11.9342 3.724C14.0726 3.78448 15.1418 3.81472 15.8209 4.51332C16.5 5.21192 16.5 6.29767 16.5 8.46917V9.53052C16.5 11.702 16.5 12.7877 15.8209 13.4863C15.1418 14.1849 14.0726 14.2152 11.9343 14.2757C10.921 14.3043 9.88591 14.3249 9 14.3249C8.11409 14.3249 7.079 14.3043 6.0657 14.2757C3.92738 14.2152 2.85823 14.1849 2.17911 13.4863C1.5 12.7877 1.5 11.702 1.5 9.53052Z" stroke="white" stroke-width="1.125"/>
</g>
</svg>
