<svg width="32" height="32" viewBox="0 0 32 32" fill="none" xmlns="http://www.w3.org/2000/svg">
<g id="youtube">
<path id="Vector" d="M18.6667 15.9998L14 18.6665V13.3332L18.6667 15.9998Z" fill="black" stroke="black" stroke-width="1.5" stroke-linecap="round" stroke-linejoin="round"/>
<path id="Vector_2" d="M2.66797 18.9742V13.0257C2.66797 10.1355 2.66797 8.69048 3.56708 7.76026C4.46619 6.83004 5.89551 6.78141 8.75415 6.68415C11.1415 6.60292 13.8247 6.5332 16.0013 6.5332C18.1779 6.5332 20.8611 6.60292 23.2485 6.68415C26.1071 6.78141 27.5364 6.83004 28.4355 7.76026C29.3346 8.69048 29.3346 10.1355 29.3346 13.0257V18.9742C29.3346 21.8643 29.3346 23.3093 28.4355 24.2395C27.5364 25.1697 26.1071 25.2184 23.2486 25.3157C20.8611 25.3969 18.1779 25.4667 16.0013 25.4667C13.8247 25.4667 11.1415 25.3969 8.75405 25.3157C5.89546 25.2184 4.46616 25.1697 3.56707 24.2395C2.66797 23.3093 2.66797 21.8643 2.66797 18.9742Z" stroke="black" stroke-width="1.5"/>
</g>
</svg>
