<?xml version="1.0" encoding="utf-8"?>
<!-- Generator: Adobe Illustrator 26.5.0, SVG Export Plug-In . SVG Version: 6.00 Build 0)  -->
<svg version="1.1" id="Layer_1" class="landing-svg" xmlns="http://www.w3.org/2000/svg" xmlns:xlink="http://www.w3.org/1999/xlink" x="0px" y="0px"
	 viewBox="0 0 207.4 396.4" style="enable-background:new 0 0 207.4 396.4;" xml:space="preserve">
<style type="text/css">
	.st0{fill:#C74249;}
</style>
<g id="CIRCLE">
	<circle class="st0" cx="104.7" cy="102.4" r="102.4"/>
</g>
<g id="DRAW">
	<g id="focta4">
		<path d="M74.4,365.3c-0.1-0.8,0.4-1.7,0.1-2.6c0-0.2,0-0.3,0.1-0.5c0.5-0.8,0.8-1.7,1-2.6c0.1-0.3,0.3-0.6,0.5-0.9
			c0.1-0.2,0.3-0.5,0.2-0.6c-0.4-0.6,0-1,0.4-1.4c0.2-0.2,0.3-0.5,0.4-0.7c0.7-1.5,1.2-3.2,2-4.7c0.1-0.2,0.1-0.4,0.1-0.7
			c0-0.7,0-1.3-0.1-2c-0.3-1.5-0.1-3-0.3-4.5c0-0.3-0.1-0.7-0.2-1c-0.3-0.9-0.4-1.9-0.3-2.8c0.1-0.7,0-0.8-0.8-0.9
			c-0.6,0-1.1-0.4-1.2-0.9c-0.1-0.3,0-0.7,0.3-0.8c0,0,0,0,0,0c1.4-0.2,2.7-0.2,4.1-0.1c0.2,0,0.5,0.2,0.6,0.1
			c0.8-0.5,1.6,0.1,2.4,0c0.2,0,0.5,0.1,0.6,0c0.8-0.4,1.8-0.4,2.6,0c0.3,0.1,0.4-0.1,0.4-0.3s-0.1-0.3-0.1-0.5
			c-0.1-0.4-0.3-0.7,0.1-1.1c0.3,0.2,0.6,0.4,0.9,0.7c0.2,0.2,0.3,0.5,0.4,0.7c0,0,0.1,0,0.1,0s0.1-0.1,0.1-0.1c0-0.2,0-0.3,0-0.5
			c-0.2-0.9-0.3-1.8-0.3-2.8c-0.1-0.8,0-1.7-0.2-2.5c-0.2-0.8-0.3-1.5-0.4-2.3c0-0.8-0.4-1.5-0.5-2.3s0.3-1.4-0.2-2.1
			c-0.1-0.2-0.1-0.3-0.1-0.5c0-1.3-0.5-2.5-0.4-3.8c0-0.5-0.1-1-0.2-1.4c0.5-0.8-0.5-1.4-0.3-2.2c0.1-0.8,0-1.5-0.1-2.3
			c0-0.2,0-0.3-0.1-0.5c-0.4-0.7-0.2-1.5-0.4-2.2c-0.1-0.8-0.2-1.5-0.2-2.3c-0.1-1.5-0.3-3-0.5-4.5c0-0.3,0-0.7-0.1-1
			c-0.2-0.4-0.2-0.9-0.2-1.3c0-0.9-0.1-1.8-0.3-2.6c-0.3-1.1-0.4-2.3-0.5-3.4c-0.1-1.8-0.4-3.6-0.8-5.4c0-0.1,0-0.1,0-0.2
			c0.1-0.7,0.1-1.5-0.1-2.2c-0.1-0.8-0.4-1.5-0.4-2.3c-0.2-1.8-0.4-3.6-0.6-5.4c0-1.2-0.2-2.3-0.5-3.4c-0.1-0.6-0.2-1.2-0.2-1.8
			c-0.2-1.3-0.4-2.5-0.6-3.8c0-0.5,0-1.1,0-1.7c0-0.3,0.1-0.6,0-0.8s-0.5-0.1-0.7-0.2s-0.3-0.3-0.2-0.4c0.2-0.6-0.1-1.3,0.1-2
			c0.1-0.5,0.1-1,0-1.5c-0.1-0.4-0.1-0.8,0-1.1c0-0.1,0-0.3-0.1-0.4c-0.5-0.3-0.7-0.6-0.4-1.2c-0.5-0.4-0.7-1-0.7-1.6
			c0-0.1-0.2-0.2-0.3-0.3s-0.3-0.3-0.4-0.5c-0.3-0.8-0.4-1.7-0.3-2.6c0.1-0.8-0.6-1.3-0.3-2.1c-0.3-0.5-0.7-0.9-1.1-1.3
			c-0.3-0.2-0.5-0.6-0.2-1c0,0,0,0,0,0c0.1-0.1,0.1-0.3,0-0.5c-0.4-0.7,0.1-1.5-0.4-2.2c0.3-0.6-0.2-1-0.3-1.6
			c-0.1-0.6-0.4-1-0.8-1.4c-0.2-0.2-0.3-0.5-0.3-0.7c0-1-0.4-1.9-0.9-2.8c-0.4-0.7-0.7-1.5-0.8-2.3c0-0.7-0.2-1.4-0.6-2
			c-0.1-0.2-0.3-0.6-0.2-0.8c0.3-0.7-0.1-1.1-0.5-1.6c-0.4-0.6-0.8-1.2-1-1.9c-0.1-0.2-0.2-0.3-0.4-0.4c-0.3-0.1-0.5-0.3-0.5-0.6
			c0-0.3-0.1-0.6-0.3-0.9c-0.3-0.5-0.8-0.8-0.6-1.5c0-0.1-0.1-0.2-0.2-0.3c-0.6-0.2-0.7-0.5-0.6-1.1c0-0.4-0.1-0.7-0.4-1
			c-0.5-0.5-0.8-1-1.1-1.6c-0.4-0.8-0.6-1.7-1.6-2c-0.2-0.1-0.3-0.4-0.4-0.7c-0.2-0.7-0.6-1.2-1.1-1.6c-0.6-0.4-1.1-1.1-1.3-1.9
			c-0.1-0.5-0.4-0.9-0.8-1.2c-0.4-0.3-0.7-0.7-1-1.1c-0.7-1.2-1.6-2.4-2.6-3.4c-0.1-0.1-0.1-0.2-0.2-0.3c-0.1-0.9-1.1-1.4-1.1-2.3
			c0-0.1-0.2-0.2-0.4-0.3c-0.3-0.1-0.5-0.3-0.5-0.6c-0.2-0.6-0.6-1.2-1.2-1.5c-0.3-0.2-0.5-0.5-0.6-0.8c-0.2-0.7-0.5-1.4-1.1-2
			c-0.2-0.3-0.4-0.5-0.5-0.8c-0.1-0.4-0.4-0.7-0.7-0.9c-0.4-0.1-0.6-0.5-0.6-0.9c0-0.3-0.2-0.5-0.5-0.6s-0.3-0.3-0.3-0.4
			c0.2-0.9-0.5-1.3-0.9-1.8c-0.2-0.2-0.3-0.3-0.5-0.5c-1.1-1.6-2.2-3.2-3.4-4.7c-0.3-0.4-0.8-0.6-1-1c-0.2-0.4-0.3-0.8-0.4-1.2
			c-0.1-0.4-0.6-0.6-0.6-1.2c0-0.2-0.2-0.4-0.4-0.5c-0.4-0.3-0.8-0.5-1.2-0.9c-0.2-0.2-0.4-0.4-0.5-0.6c-0.3-0.5-0.6-0.9-0.9-1.4
			c-0.2-0.3-0.4-0.6-0.5-1c-0.1-0.8-0.8-1.2-1.2-1.8c-0.1-0.1-0.3,0-0.5-0.1c-0.1,0-0.3-0.1-0.4-0.2c-0.1-0.1-0.1-0.2-0.1-0.3
			c-0.3-1.3-1.1-2.4-2.2-3.2c-0.4-0.3-0.7-0.8-0.9-1.3c-0.1-0.4-0.3-0.8-0.6-1.2c-0.4-0.6-1-0.9-1.2-1.5c-0.3-0.6-0.6-1.2-1-1.7
			c-0.2-0.3-0.6-0.5-0.8-0.9s0-0.8-0.6-0.8c-0.1-0.8-0.6-1.5-1.3-2c-0.1-0.1-0.1-0.2-0.1-0.3c0.1-0.8-0.5-1.3-0.9-1.9
			c-0.3-0.4-0.6-0.9-0.9-1.4c-0.2-0.4-0.5-0.7-0.9-0.9c-0.3-0.1-0.3-0.3-0.2-0.5c0.1-0.2,0-0.4-0.2-0.5c0,0,0,0,0,0
			c-0.3-0.1-0.5-0.3-0.2-0.6c0-0.1,0-0.2-0.1-0.3c-0.8-0.5-0.8-1.4-1.2-2.1c-0.2-0.4-0.3-0.8-0.7-1.1c-0.2-0.2-0.4-0.4-0.5-0.7
			c-0.3-0.7-0.6-1.4-0.9-2.1c-0.1-0.4-0.4-0.8-0.8-1c-0.4-0.2-0.1-0.7-0.4-1c-0.3-0.4-0.5-0.8-0.7-1.3c-0.2-0.5-0.2-1.1-0.8-1.4
			c-0.1-0.1-0.2-0.2-0.3-0.4c-0.3-0.8-0.6-1.7-0.9-2.5c-0.1-0.5-0.4-1-0.7-1.5c-0.5-0.6-0.9-1.3-1.1-2c-0.3-1-0.8-2-1.4-2.8
			c-0.2-0.2-0.3-0.3-0.3-0.6c-0.2-0.9-0.5-1.7-1-2.5c-0.4-0.9-0.7-1.7-1-2.6c-0.2-0.7-0.3-1.4-1-1.9c0,0-0.1-0.1-0.1-0.1
			c-0.2-1.2-0.7-2.3-1.4-3.4c0.1-1.9-1.1-3.3-1.5-5.1c-0.1-0.3-0.2-0.6-0.4-0.9c-0.1-0.2-0.3-0.4-0.3-0.6c0-1.1-0.7-1.9-1-2.9
			c-0.2-0.8-0.5-1.5-0.9-2.1c0,0-0.1-0.1-0.1-0.1c-0.2-0.7-0.1-1.6-0.6-2.2c0.1-0.7-0.5-1.3-0.5-2c0-1.2-0.7-2.3-1-3.5
			c-0.1-0.2-0.2-0.5-0.2-0.8c0.1-0.8-0.1-1.6-0.4-2.3c-0.3-0.8-0.5-1.6-0.5-2.4c0-0.1,0-0.1,0-0.2c-0.2-0.8-0.4-1.6-0.7-2.4
			c0.1-0.8,0.1-1.6-0.1-2.3c-0.2-0.8-0.4-1-1.1-0.7c-0.5,0.2-0.5-0.2-0.7-0.4c-0.2-0.2-0.1-0.4,0-0.6c0,0,0.1-0.1,0.2-0.1
			c1.1-0.6,1.9-1.8,3.2-2c1.5-1.4,3.6-1.6,5.2-2.9c0.1-0.1,0.2-0.1,0.3-0.1c0.6,0.5,1-0.1,1.5-0.4c0.3-0.2,0.6-0.3,0.9-0.4
			c0.5-0.1,0.9-0.4,1.3-0.6c0.7-0.5,1.5-0.8,2.3-0.9c0.2,0,0.5,0,0.6-0.1c0.8-0.5,1.7-0.9,2.6-1c0.3-0.1,0.6-0.2,0.9-0.1
			c0.2,0,0.3,0,0.5-0.1c0.5-0.1,0.6-0.8,1.2-0.7s0.9-0.4,1.3-0.6c0.5-0.4,1.1-0.6,1.7-0.5c0.3,0.1,0.6,0,0.8-0.1
			c0.7-0.4,1.4-0.6,2.2-0.5c0.7,0,1.3-0.2,1.9-0.6c0.4-0.5,1-0.7,1.6-0.6c0.9,0,1.8-0.2,2.6-0.5c0.4-0.1,0.9-0.2,1.3-0.3
			c0.3,0,0.5-0.1,0.8-0.2c0.4-0.3,0.8-0.5,1.3-0.7c0.4,0,0.9,0,1.3,0c0.9,0,1.9-0.3,2.7-0.8c0.4-0.2,0.7-0.5,1.1-0.3
			c0.5,0.1,1,0,1.4-0.2c0.4-0.2,0.9-0.6,1.4-0.2c0.6-0.2,1.2-0.4,1.9-0.6s1.2,0.3,1.8-0.1c0.1-0.1,0.3-0.2,0.5-0.2
			c1,0.3,1.8-0.4,2.7-0.6c0.4-0.1,0.9-0.2,1.3-0.2c0.3,0.1,0.7-0.1,0.7-0.4c0-0.1,0-0.2,0-0.2c0-0.1,0.3-0.2,0.4-0.2
			c1.3,0.7,2.5,0.3,3.8-0.2c0.9-0.4,1.9-0.4,2.8-0.2c0.5,0.2,1-0.2,1.6-0.1c0.5,0,1-0.2,1.3-0.6c0.2-0.2,0.5-0.2,0.8-0.1
			c0.4,0,0.9,0.1,1.1-0.1c0.6-0.5,1.3-0.6,2-0.4c0.7,0.1,1.3,0.1,2,0.1c0.7,0.1,1.4-0.1,2-0.5c0.2-0.2,0.4-0.3,0.6-0.3
			c1.1,0.3,2.1-0.6,3.2,0c0.4-0.2,0.8-0.3,1.2-0.5c0.4-0.3,1-0.3,1.4,0c0.5,0.3,1.1,0.3,1.6,0c0.5-0.2,0.9-0.3,1.4-0.4
			c0.5-0.2,0.9,0.2,1.3,0c0.4-0.1,0.8-0.1,1.1,0.2c0.3,0.2,0.7,0.2,1,0.1c0.8-0.3,1.7,0,2.4-0.4s1.5,0,2.3-0.2
			c0.6-0.1,1.2,0.1,1.7-0.4c0.5,0.2,1-0.2,1.6,0c0.4,0.2,0.8,0.2,1.1,0c0.6-0.3,1.3-0.3,1.9-0.2c0.6,0,1.1-0.1,1.6-0.4
			c0.4-0.1,0.7-0.3,1.1,0c0.2,0.2,0.5,0.2,0.8,0.1c0.3-0.2,0.7-0.1,0.9,0.1c0.1,0.1,0.2,0.1,0.3,0c0.5-0.9,1.1-0.4,1.6,0
			c0.5,0.3,1.1,0.3,1.6,0.1c1-0.2,2-0.3,3.1-0.4c0.1,0,0.2,0,0.3,0.1c0.3,0.3,0.7,0.3,1,0.1c0.1,0,0.1-0.1,0.1-0.2
			c0.2-0.3,0.5-0.2,0.6,0.1c0.1,0.1,0.2,0.1,0.3,0.1c0.4-0.4,0.7,0.2,1,0.1c0.3-0.1,0.6-0.3,0.9-0.5c0.2,0,0.3,0,0.5,0
			c0.6,0.2,1.2,0.6,1.8,0.1c0.5,0.1,0.9,0.2,1.4,0.2c0.5-0.1,0.9-0.3,1.4-0.6c0.2,0,0.4,0,0.6,0.1c0.7,0.2,1.5,0.3,2.2,0.2
			c0.2,0,0.4,0,0.7,0c0.9,0.3,1.9,0.3,2.8,0c0.6,0.3,1.4-0.1,2,0.5c0.2,0.1,0.4,0.2,0.6,0.2c0.8-0.1,1.6,0.3,2.3-0.2
			c0.7-0.1,1.4,0,2.1,0.2c0.4,0.3,0.9,0.2,1.2-0.1c0.1-0.1,0.4,0,0.6,0.1c0.5,0.2,1.1,0.3,1.6,0.2c0.4-0.1,0.8-0.1,1.1,0.1
			c0.1,0.1,0.2,0.1,0.3,0.1c0.6,0.1,1.3-0.6,1.9,0.1c0.7,0.1,1.3,0.2,2,0.3s1.1,0.4,1.8,0c0.2-0.2,0.7,0.1,1.1,0.1s0.8-0.4,1.4-0.1
			c0.4,0.2,1,0,1.4,0c0.4,0,0.9,0.2,1.3,0.3c0.8,0.4,1.6,0.5,2.4,0.4c0.8-0.1,1.6,0.5,2.4,0.1c0.8,0.5,1.9,0.5,2.7,0
			c0.3-0.1,0.6,0,0.8,0.2c0.4,0.5,1,0.6,1.5,0.3c0.1-0.1,0.4,0,0.5,0c0.5,0.7,1.4,0.3,2,0.7c0.4,0.2,0.7,0.1,0.9-0.3
			c0-0.1,0.3-0.2,0.4-0.1c0.4,0.2,0.9,0.2,1.3,0.1c0.3,0,0.7,0.1,1,0.3c0.5,0.4,1.2,0.5,1.9,0.3c0.3-0.1,0.7,0.3,1,0.3
			c0.4-0.1,0.9,0,1.3,0.1c0.5,0.1,1.1,0.2,1.6,0.2c0.5,0.1,0.9,0.3,1.5,0.2c0.2,0,0.5,0,0.6,0.1c0.5,0.4,1.1,0.5,1.7,0.4
			c0.5-0.1,1,0.1,1.3,0.5c0.8,0.1,1.5,0.8,2.5,0.5c0.6-0.1,1.2-0.1,1.8,0c0.1,0,0.3,0,0.3,0.1c0.2,0.5,0.7,0.7,1.2,0.5
			c0,0,0.1,0,0.1,0c0.2,0,0.3,0,0.5,0.1c0.8,0.4,1.7,0.7,2.6,0.9c0.3,0.1,0.5,0.2,0.8,0.1c0.7-0.1,1.3-0.2,1.8,0.5
			c0.1,0.1,0.3,0,0.5,0s0.5,0,0.6,0.2c0.6,1.1,1.6,0.6,2.5,0.6c0.3-0.4,0.7-0.3,1,0c0.6,0.4,1.1,0.8,1.7,1.1
			c0.2,0.1,0.5,0.2,0.8,0.2c0.8-0.2,1.7,0,2.3,0.6c0.2,0.2,0.8-0.2,0.8,0.5l1,0.2c0.8,0,1.5,0.3,2.2,0.7c0.1,0.1,0.4,0.1,0.6,0.1
			s0.3-0.1,0.3-0.1c0.6,0.9,1.8,0.2,2.6,0.9c0.5,0.4,1.1,0.7,1.8,0.9c0.3,0.2,0.7,0.3,1,0.3c0.8,0,1.5,0.5,1.8,1.3
			c0.1,0.3,0.3,0.6,0.5,0.9c0,0.2,0,0.3-0.1,0.5c-0.4,0.3-0.8,0.9-1.4,0.6c-1.8,0.1-3.5-0.5-4.9-1.5c-0.3-0.2-0.6-0.4-1-0.5
			c-0.7-0.1-1.4-0.3-2.1-0.4c-0.3-0.1-0.6-0.2-0.9-0.4c-0.4-0.2-0.8-0.3-1.2-0.4c-0.4-0.1-0.6-0.5-1.2-0.5c-0.4,0.1-0.9,0-1.3-0.1
			c-0.4-0.1-0.8-0.5-1.2-0.6c-0.3-0.1-0.7-0.1-1,0c-0.5,0.1-0.8,0.2-1.2-0.2c-0.2-0.2-0.5-0.2-0.8-0.3c-0.3-0.1-0.5-0.1-0.8-0.2
			c-0.4-0.2-0.6-0.8-1.2-0.8s-1-0.1-1.5,0c-0.5,0.1-1-0.1-1.4-0.4c-0.3-0.2-0.7-0.4-1.1-0.4c-0.8,0.1-1.5-0.2-2.2-0.7
			c-0.6-0.4-1.4-0.5-2.1-0.3c-0.2,0-0.4,0.2-0.4,0.1c-0.8-0.9-2.1,0-3-0.8c-0.1-0.1-0.6,0.1-0.8,0c-0.4-0.4-1,0.1-1.4-0.3
			s-1,0-1.5-0.2c-0.5-0.3-1.2-0.4-1.8-0.4c-0.4-0.5-0.8-0.3-1.3-0.1c-0.2,0.1-0.4,0-0.6-0.1c-0.4-0.5-1-0.7-1.6-0.6
			c-0.5,0-1-0.1-1.4-0.3c-0.4-0.3-0.9-0.4-1.4-0.3c-0.7,0.3-1.6,0.2-2.2-0.2c-0.3-0.1-0.6,0-0.7,0.2c-0.1,0.1-0.1,0.2,0,0.3
			c0.1,0.9,0.1,1.8,0,2.6c-0.1,0.8-0.1,1.6-0.1,2.5s0,1.7,0,2.5c0.1,1.7,0,3.4-0.2,5.1c-0.1,0.7-0.1,1.3-0.1,2c0,1,0.3,2-0.3,2.9
			c-0.2,0.4,0.2,1-0.2,1.4c0.3,0.8-0.4,1.7,0.1,2.6c0,0.5-0.1,1.1-0.2,1.6c-0.2,0.5-0.2,1.1-0.2,1.6c0.2,0.6,0,1.3-0.3,1.8
			c-0.1,0.1-0.2,0.3-0.2,0.5c0.1,0.8,0.1,1.5,0,2.3c0,0.2,0,0.4,0,0.7c-0.4,0.9-0.5,1.9-0.3,2.9c0.1,0.6-0.1,1.2-0.6,1.7
			c-0.3,0.3-0.4,0.7-0.2,1.1c0.1,0.2,0.2,0.5,0,0.8c-0.2,0.6-0.3,1.2-0.4,1.8c-0.1,0.4-0.1,0.9-0.3,1.3c-0.3,0.7-0.3,1.5,0,2.2
			c0.1,0.3,0.1,0.5,0,0.8c-0.1,0.5-0.2,0.9-0.3,1.4c0.1,0.3-0.1,0.6-0.3,0.8c-0.3,0.3,0,0.8-0.4,1.2c-0.2,0.3-0.4,0.6-0.5,1
			c0,0.1,0,0.2,0,0.3c0.2,0.8,0,1.7-0.5,2.3c-0.1,0.1-0.1,0.3-0.2,0.5c0.1,0.4,0.2,0.7,0.2,1.1c0,0.4-0.6,0.6-0.4,1
			c0.2,0.3,0.1,0.7-0.2,1c-0.4,0.5-0.6,1.2-0.5,1.9c0,0.3,0,0.7-0.1,1c-0.1,0.6-0.9,1-0.5,1.8c-0.5,0.3-0.3,0.9-0.5,1.3
			c-0.3,0.5-0.4,1.2-0.3,1.8c0,0.5,0,1-0.5,1.3c-0.1,0.1-0.2,0.3-0.1,0.5c0.1,0.3,0,0.5-0.2,0.7c-0.2,0.1-0.3,0.3-0.3,0.6
			c0,0.8-0.2,1.6-0.4,2.4c-0.1,0.7-0.3,1.3-0.6,1.9c-0.2,0.3-0.2,0.7,0,0.9c0,0.1,0,0.2,0,0.3c-0.4,0.9-0.6,1.8-0.9,2.6
			c-0.3,0.9-0.6,1.9-0.7,2.9c-0.1,0.5-0.3,1.1-0.5,1.5c-0.1,0.2-0.3,0.4-0.3,0.6c0.3,1.4-0.7,2.4-1.1,3.5c-0.2,0.5,0.2,1.1-0.3,1.6
			c-0.4,0.3-0.6,0.8-0.8,1.2c-0.1,0.9-0.4,1.7-0.8,2.4c-0.2,0.5-0.3,1.1-0.4,1.6c-0.1,0.9-0.2,1.7-0.4,2.6c-0.2,0.6-0.6,1.1-0.8,1.7
			c-0.3,0.6-0.5,1.3-0.6,2c-0.1,0.4,0,1-0.2,1.2c-0.3,0.3-0.4,0.8-0.4,1.2c0,0.4-0.1,0.7-0.4,1c-0.1,0.2-0.2,0.4-0.2,0.6
			c0,0.7-0.2,1.4-0.7,1.9c-0.2,0.2-0.3,0.4-0.3,0.6c0,1.6-0.8,3.1-1.1,4.6c0,0.2,0,0.4-0.2,0.5c-0.6,0.6-0.8,1.5-0.5,2.3
			c0,0.2,0,0.4,0,0.4c-0.8,0.2-0.4,0.8-0.5,1.3c-0.2,0.9-0.6,1.7-0.9,2.5c-0.4,1-0.7,2-0.9,3c0,0.2,0,0.4,0,0.5
			c0.5,0.5,0.1,0.6-0.2,0.8c-0.3,0.1-0.4,0.4-0.3,0.7c0.1,0.4,0,0.8-0.2,1.1c-0.2,0.2-0.2,0.5-0.2,0.8c0,0.3,0.3,0.6,0.2,0.9
			s-0.4,0.5-0.5,0.8c-0.2,0.5-0.4,0.9-0.6,1.4c0.5,0.7,0.1,1.4,0,2s-0.4,1.4-0.6,2.1c-0.1,0.2-0.2,0.5-0.1,0.6
			c0.4,0.6,0,1.2-0.2,1.7c-0.2,0.7-0.7,1.4-0.4,2.2c-0.4,0.7-0.5,1.6-0.2,2.4c0,0.1-0.1,0.3-0.2,0.4c-0.2,0.1-0.3,0.3-0.2,0.6
			c0.1,0.7,0,1.5-0.4,2.1c-0.1,0.1-0.1,0.2-0.1,0.3c0,0.4,0,0.9,0,1.3c-0.1,0.4-0.2,0.8-0.3,1.3c-0.2,0.6-0.3,1.3-0.3,2
			c0.1,0.7-0.4,1.2-0.5,1.7c-0.2,0.7-0.3,1.4-0.4,2.1c-0.1,0.9-0.2,1.8-0.2,2.8c0,0.3-0.1,0.7-0.2,0.9c-0.3,0.5-0.5,1-0.5,1.6
			c-0.1,0.7-0.2,1.3-0.4,2c-0.1,0.6-0.6,1.2-0.4,1.9c0.1,0.3-0.2,0.7-0.3,1.1c-0.1,0.3-0.2,0.5-0.2,0.8c0,0.3,0.2,0.5,0.5,0.6h1.5
			c0.7,0,1.4-0.2,2.1,0.2c0.2,0.1,0.3,0.1,0.5,0c0.6-0.6,1.2-0.2,1.9-0.2c0.8-0.2,1.7-0.3,2.5-0.3c0.9,0.2,1.7,0.3,2.6,0.3
			c0.4,0,0.9,0.2,1.1,0.1c0.5-0.4,0.9-0.1,1.3,0c0.7,0.2,1.4,0.3,2.1,0.2c0.8,0,1.5,0.1,2.2,0.3c0.3,0,0.5,0.2,0.8,0.2
			c0.3,0.1,0.7,0,0.9-0.3c0.3-0.6,0.9-1,0.7-1.8c0-0.2,0.1-0.4,0.2-0.6c0.1-0.3,0.3-0.6,0.3-0.9c0-0.6-0.1-1.2,0.6-1.5
			c0.1-0.8,0.8-1.4,0.8-2.3c0-0.4-0.1-1.1,0.6-1.3c0.2-0.6,0.4-1.3,0.5-1.9c0.1-0.4,0.2-0.7,0.3-1.1c0.6-0.8,1-1.6,1.3-2.5
			c0-0.2,0.3-0.4,0.3-0.5c0.1-1.1,0.7-2.1,1.5-2.9c0.3-0.3,0.6-0.8,0.1-1.3c0,0,0-0.3,0-0.3c0.6-0.2,0.6-0.9,0.9-1.3
			c0.3-0.5,0.6-0.9,0.8-1.4c0.8-1.2,1.2-2.6,2.3-3.6c0.3-0.3,0.5-0.7,0.7-1.2c0.3-0.8,0.6-1.5,1-2.3c0.1-0.3,0.3-0.6,0.5-0.8
			c0.8-0.7,1.3-1.5,1.5-2.5c0-0.1,0-0.2,0.1-0.3c0.3-0.4,0.8-0.7,0.9-1.2c0.1-0.5,0.3-0.9,0.5-1.3c0.2-0.6,0.6-1.1,1.1-1.5
			c0.1-0.1,0.3-0.3,0.3-0.4c-0.3-0.8,0.5-0.9,0.8-1.3c0.2-0.4,0.5-0.8,0.7-1.1c0.4-0.5,0.4-1.1,0.6-1.7c0.7-0.2,0.8-0.8,1.1-1.4
			c0.1-0.2,0.4-0.3,0.6-0.5s-0.5-0.5,0-0.6c0.3,0,0.5-0.2,0.6-0.4c0.2-0.5,0.4-1,0.7-1.5c0.2-0.3,0.4-0.6,0.7-0.9
			c0.6-0.4,0.9-1,1-1.7c0.1-0.8,0.5-1.6,1.2-2.2c1-1,1.8-2.2,2.2-3.5c0-0.2,0.1-0.3,0.2-0.5c0.3-0.4,0.6-0.8,0.9-1.1
			c0.1-0.2,0.3-0.3,0.4-0.5c0.4-0.7,0.1-1.6,1-2.2c0.6-0.6,1-1.3,1.2-2.1c0.1-0.2,0.2-0.4,0.4-0.5c0.4-0.3,0.6-0.7,0.6-1.1
			c0-0.2,0-0.3,0.1-0.5c0.4-0.4,0.7-1,0.7-1.6c0.1-0.5,0.7-0.9,0.5-1.5c0.5-0.3,0.6-1,1-1.3c0.6-0.4,1-0.9,1.1-1.6
			c0.2-0.6,0.5-1.1,1.1-1.4c0.3-0.2,0.5-0.5,0.3-0.9c-0.2-0.3-0.1-0.8,0.2-1c0.4-0.4,0.7-0.9,0.7-1.5c0-0.4,0.2-0.8,0.6-1
			c0.4-0.2,0.7-0.6,0.5-1.1c-0.1-0.3,0-0.6,0.2-0.7c0,0,0,0,0,0c0.5-0.2,0.9-0.7,0.9-1.3c0-0.5,0.2-0.9,0.5-1.2
			c0.7-0.7,1.2-1.6,1.3-2.6c0-0.4,0.3-0.9,0.6-1.1c0.2-0.2,0.3-0.4,0.3-0.7c0-0.9,0.6-1.5,0.8-2.4c0.1-0.3,0.2-0.5,0.4-0.7
			c0.6-0.5,1-1.3,1.1-2.2c0.7-0.8,0.5-2.1,1.5-2.7c0.3-0.6,0.4-1.3,0.3-2c-0.1-0.3,0-0.7,0.2-0.9c0.7-0.9,1.2-1.9,1.3-3
			c0-0.1,0-0.3,0.1-0.3c0.5-0.3,0.7-0.9,0.4-1.3c0-0.1-0.1-0.2-0.2-0.2c-0.1-0.1,0-0.3,0.1-0.5c0.2-0.4,0.5-0.8,0.7-1.1
			c0.6-0.6,0.9-1.4,0.8-2.3c0.1-1.8,0.7-3.6,0.9-5.4c0-0.1,0-0.2,0-0.3c0.8-1.1,0.7-2.5,1.2-3.8l0.5-1.2c0.1-0.2,0.2-0.4,0.2-0.6
			c-0.1-0.9,0.1-1.9,0.5-2.8c0.2-0.5,0.3-1.1,0.3-1.6c0-1.2,0.4-2.3,1.1-3.3c0.6-0.8,0.8-1.8,0.8-2.8c-0.1-0.7,0.1-1.3,0.5-1.9
			c0.2-0.2,0.1-0.5,0.2-0.8s0-0.4,0.2-0.5c0.8-0.5,0.7-1.3,0.7-2.1c-0.1-0.3,0-0.7,0.1-1c0.4-0.8,0.6-1.7,0.6-2.6
			c0.6-1.1,0.4-2.4,0.7-3.5c0.2-0.9,0.4-1.7,0.6-2.6c0.3-0.7,0.3-1.5,0-2.2c-0.1-0.2-0.1-0.3,0-0.5c0.1-0.7-0.1-1.4-0.6-1.8
			c-0.5-0.4-0.6-0.8-0.2-1.3c0.1-0.2,0-0.4,0-0.6c0-0.1,0.2-0.3,0.3-0.3c1-0.1,2,0.3,2.8,1c0.3,0.3,0.3,0.9,0,1.2
			c-0.2,0.2-0.4,0.2-0.5,0.4c-0.1,0.2-0.2,0.4-0.1,0.6c0.3,1.4,0.3,2.8,0.1,4.2c0,0.2-0.2,0.3-0.2,0.5c0.4,1.3-0.2,2.5-0.5,3.7
			c0,0.4,0,0.8,0,1.1c0.1,0.7,0,1.4-0.4,2.1c-0.1,0.2-0.1,0.4-0.2,0.6c-0.2,0.4,0.3,0.8-0.1,1.1c-0.3,0.2-0.4,0.5-0.5,0.8
			c-0.1,0.3-0.4,0.5-0.5,0.8c-0.1,0.3-0.1,0.7,0,1c0.1,0.8,0,1.6-0.4,2.3c-0.6,1.3-0.8,2.6-0.8,4c0,1-0.3,2-0.8,2.9
			c-0.3,0.4-0.5,0.9-0.4,1.4c0.1,0.8,0,1.6-0.4,2.2c-0.2,0.3-0.2,0.6-0.2,0.9c0.2,0.5,0.3,0.8-0.3,1.1c-0.1,0.1-0.2,0.2-0.2,0.3
			c0,1.3-1,2.3-0.7,3.7c0.1,0.4-0.2,0.7-0.3,1.1c-0.2,0.6-0.6,1.2-0.4,1.9c0,0.2,0,0.3-0.1,0.4c-0.6,0.6-0.4,1.5-0.9,2.1
			c0.1,0.7-0.6,1.3-0.4,2c0,0.2-0.1,0.4-0.2,0.6c-0.1,0.2-0.2,0.4-0.2,0.6c0.1,0.5,0,1.1-0.1,1.6c-0.2,0.4-0.7,0.7-0.8,1.2
			c-0.3,0.7-0.5,1.4-0.5,2.1c0,0.5-0.4,1-0.3,1.5c0,0.2-0.3,0.4-0.5,0.6c-0.6,0.4-0.9,1.1-0.8,1.7c0.1,0.3,0,0.7-0.2,0.9
			c-0.3,0.6-0.5,1.2-0.8,1.8c-0.1,0.2-0.2,0.4-0.3,0.5c-0.5,0.3-0.7,0.9-0.6,1.5c0,0.2-0.2,0.4-0.3,0.6c-0.2,0.5-0.3,1-0.5,1.6
			c0.8,0.9-0.6,0.6-0.6,1.1c0,0.2-0.1,0.4-0.2,0.6c0,0.2,0,0.3-0.1,0.5c-0.2,0.5-0.9,0.7-0.9,1.4c-0.1,0.5-0.3,1-0.6,1.3
			c-0.2,0.4-0.1,1.1-0.6,1.4c-0.2,0.8-1,1.2-1.3,1.9c-0.3,0.7-0.4,1.5-0.5,2.3c-0.9,0.7-0.9,2-2,2.5c-0.2,0.1-0.3,0.4-0.4,0.7
			c-0.1,0.3-0.2,0.6-0.3,1c-0.4,0.4-0.6,1.1-0.3,1.7c0,0.1-0.2,0.4-0.2,0.4c-0.5-0.1-0.8,0.1-0.7,0.6c0.2,0.5-0.1,1-0.6,1.2
			c-0.1,0.1-0.2,0.1-0.2,0.3c0.1,0.7-0.7,1-0.8,1.6c-0.2,0.9-0.7,1.6-1.4,2.2c-0.2,0.2-0.4,0.4-0.4,0.7c-0.1,0.4-0.3,0.7-0.5,1
			c-0.2,0.2-0.4,0.4-0.5,0.7c-0.3,1-0.8,1.9-1.6,2.7c-0.2,0.2-0.3,0.4-0.3,0.6c0.1,0.7-0.2,1.5-0.8,1.9c-0.5,0.7-0.8,1.4-1.2,2.2
			c0.1,0.5-0.2,0.7-0.6,0.8c-0.2,0.1-0.4,0.2-0.4,0.5c0,0.8-0.6,1.3-0.9,2c-0.2,0.4-0.7,0.8-0.5,1.4c0,0-0.2,0.1-0.4,0.2
			s-0.4,0.1-0.4,0.2c-0.1,0.8-0.4,1.5-1.1,2c-0.3,0.3-0.6,0.7-0.7,1.1c0,0.5-0.5,0.6-0.6,0.9c-0.2,0.4-0.5,0.7-0.7,1.1
			c-0.4,0.4-0.6,1-0.5,1.5c0.1,0.2-0.1,0.4-0.3,0.5c0,0-0.1,0-0.1,0c-0.7,0.2-0.7,0.9-1.2,1.3c0.2,0.9-0.6,1.4-0.7,2.1
			c0,0.2-0.1,0.4-0.3,0.6c-0.4,0.3-0.9,0.5-0.7,1.2c0,0.1-0.3,0.3-0.4,0.4s-0.8,0.5-0.8,0.8c-0.2,1.2-1.1,1.9-1.5,2.9
			c-0.1,0.3-0.3,0.6-0.5,0.8c-0.3,0.5-0.8,0.8-0.7,1.5c-0.1,0.4-0.3,0.7-0.6,1c-0.2,0.2-0.4,0.5-0.4,0.9c0,0.1-0.1,0.4-0.2,0.4
			c-0.9,0.2-1,1-1.2,1.6c-0.1,0.7-0.5,1.4-1,1.9c-0.1,0.1-0.1,0.4-0.2,0.6c-0.3,0.7-0.5,1.4-0.8,2.1c-0.1,0.1-0.5,0-0.6,0.2
			c-0.2,0.2-0.3,0.4-0.4,0.7c-0.1,0.7-0.3,1.3-0.7,1.8c-0.1,0.2-0.1,0.5-0.1,0.8c0,0.2-0.1,0.4-0.2,0.6c-1.1,1.1-1.9,2.5-2.1,4.1
			c0,0.5-0.8,0.9-0.3,1.5c0,0.1,0,0.1-0.1,0.2c-1,0.4-0.6,1.8-1.5,2.2c-0.2,0.1-0.3,0.6-0.2,0.9c0.1,0.5-0.5,0.6-0.5,1
			s-0.3,0.7-0.2,1c0.3,0.6,0.1,1.3-0.5,1.6c-0.4,0.3-0.6,0.8-0.5,1.3c0,0.1-0.1,0.3-0.1,0.5c-0.3,0.7-0.6,1.3-0.9,2
			c-0.1,0.2-0.3,0.3-0.4,0.5s-0.4,0.5-0.4,0.7c0.2,0.8-0.4,1.3-0.8,1.9c-0.5,0.6-0.8,1.3-0.8,2c0,0.6-0.4,1.2-1,1.4
			c-0.4,0.2-0.7,0.5-1.1,0.8c-0.1,0-0.3,0-0.4-0.1c-0.2-0.4-0.3-0.8-0.4-1.3c-0.1-0.5,0-1-0.1-1.5c0-0.2,0.1-0.3,0.2-0.3
			c0.4-0.1,0.7-0.4,0.7-0.8c0-0.1,0-0.2-0.1-0.3c-0.1-0.1-0.2-0.1-0.3-0.1c-0.3,0.1-0.6,0.3-0.9,0.5c-0.2,0.1-0.3,0.3-0.3,0.5
			c0,1.7,0,3.3,0.1,5c0,0.8,0.1,0.9,0.9,1.2c0.4,0.1,0.8,0.2,1.1,0.3c0.6,0.2,0.7,0.3,0.5,0.4c-0.2,0.1-0.5,0.2-0.8,0.1
			c-0.5-0.2-0.9,0.5-1.4,0.1c0,0-0.3,0.1-0.4,0.2c-0.2,0.4-0.3,0.7-0.3,1.1c-0.1,0.8-0.2,1.7-0.2,2.5c0.1,1.3-0.2,2.6-0.1,4
			c0,0.3,0,0.7-0.1,1c-0.1,0.8-0.1,1.5-0.2,2.3s-0.1,1.4-0.1,2.1c0,0.5,0,1.1,0,1.6s-0.1,1.1-0.2,1.6c-0.3,1.6-0.5,3.3-0.4,4.9
			c0.1,0.2,0.1,0.3,0,0.5c-0.4,0.6-0.1,1.3-0.1,2c0.1,1,0,2-0.2,3c-0.1,0.2-0.1,0.4-0.1,0.7c0.1,1.5,0,3.1-0.3,4.6
			c0,0.5-0.1,1.1-0.1,1.7c-0.2,0.9,0.2,1.8,1,2.3c0.1,0.1,0.2,0.2,0.4,0.3c1,0.8,1.4,0.8,2.2-0.1c0.5-0.5,1-0.9,1.6-1.2
			c0.6-0.3,1.1-0.8,1.5-1.3c0.2-0.3,0.6-0.5,1-0.5c1.2-0.1,2.4,0,3.6,0.2c0.8,0.2,1.6,0.3,2.5,0.4c0.6,0,1.2,0.3,1.6,0.7
			c0.5,0.6,1.2,1.1,2,1.4c0.1,0,0.2,0.1,0.2,0.2c0.2,0.9,1.1,1.3,1.4,2c0.5,1,0.9,2,1.2,3.1c0.2,0.6,0.2,1.2,0.3,1.8
			c0,0.2,0,0.4-0.1,0.6c-0.3,0.5-0.5,1.1-0.7,1.7c-0.7,1.6-1.3,3.3-1.8,5c0,0.1-0.1,0.2-0.1,0.3c-0.7,0.5-0.9,1.4-1.3,2.1
			s-0.5,1.5-1.2,1.9c-0.1,0.1-0.2,0.3-0.3,0.4c-0.4,0.9-0.9,1.8-1.5,2.5c-0.1,0.1-0.2,0.3-0.3,0.4c-0.4,0.4-0.8,1-1.4,0.8
			s-0.5-1-0.5-1.6c0-1,0-2,0-3c0-0.3-0.2-0.4-0.5-0.3c-0.1,0-0.2,0-0.3,0c-1,0.6-2.3,0.8-3.2,1.7c-0.1,0.2-0.3,0.3-0.5,0.3
			c-0.9,0.1-1.7,0.5-2.4,0.9c-0.1,0.1-0.3,0.2-0.5,0.2c-1-0.1-1,0.6-1.1,1.2c-0.2,0.7-0.3,1.4-0.3,2.1c0,0.8-0.1,1.7-0.2,2.5
			s-0.1,1.4-0.1,2.1c0,0.2,0.1,0.4,0.3,0.4c0,0,0.1,0,0.1,0c0.7,0,1.4,0.1,2.2,0.2c0.6,0.2,1.2,0.4,1.7,0.7c0.2,0.1,0.2,0.5,0,0.5
			c-0.7,0.2-0.8,0.7-0.9,1.2c-0.1,1.1-0.2,2.2-0.4,3.3c0,0.4-0.2,0.8-0.3,1.1c-0.2,0.3-0.4,0.5-0.6,0.7c-0.2-0.2-0.4-0.4-0.5-0.6
			s-0.3-0.3-0.5,0c-0.4,0.6-0.9,1-1.5,1.2c-0.3,0.1-0.4-0.1-0.6-0.2c-0.1-0.1-0.2-0.2-0.2-0.3c-0.4-0.9-0.5-1.9-0.5-2.9
			c0.2-1.4-0.1-2.9-0.7-4.1c-0.3-0.6-0.6-1.2-0.9-1.8c0-0.1-0.2-0.2-0.2-0.2s-0.3,0.2-0.3,0.3c0.1,1-0.3,1.9-0.2,2.9
			c0,1.1,0,2.2-0.2,3.3c-0.1,1.1-0.2,2.2-0.3,3.3c-0.1,0.3,0.1,0.7,0.5,0.8c0.7,0.4,1.5,0.6,2.4,0.7c0.4,0,0.9,0.1,1.3,0.2
			c0.3,0,0.5,0,0.8,0c0.7,0,1.4-0.2,2.1-0.5c0.7-0.5,1.4-1.1,1.9-1.8c0.2-0.3,0.4-0.6,0.6-1c0.2-0.5,0.4-1,0.6-1.5
			c0.2-0.4,0.2-0.9,0.1-1.3c0-0.4-0.3-0.7-0.7-0.9c-0.4-0.2-1.1-0.2-1-0.7c0.1-0.7,0.8-0.3,1.3-0.4c0.3,0,0.6,0,0.8,0
			c0.3,0,0.5,0.1,0.6,0.5c0.1,1.1,0.3,2.2,0.4,3.3c0,0.6-0.1,1.1-0.3,1.6c-0.6,0.9-0.9,1.9-1,3c0,0.3-0.2,0.5-0.4,0.7
			c-0.6,0.5-1.1,0.9-1.8,1.2c-0.5,0.4-1.2,0.4-1.7,0.1c-0.3-0.3-0.6,0-0.9,0.1c-0.1,0-0.2,0.2-0.2,0.4c0,0.2,0.1,0.3,0.2,0.5
			c0.3,0.5,0.4,1.1,0.2,1.6c-0.2,0.5-0.1,1.1,0.1,1.6c0.2,0.5,0.3,1.1,0.2,1.6c-0.2,0.8,0,1.6,0.4,2.2c0.1,0.1,0.1,0.3,0,0.5
			c-0.1,0.3,0,0.5,0.2,0.5c0.4,0,0.9,0.1,1.2,0.4c0.7,0.5,0.9,0.9,0.6,1.6c-0.1,0.1-0.2,0.2-0.4,0.3c-0.2,0.1-0.5,0.1-0.7,0.2
			c-0.4,0.1-0.6,0.5-0.5,0.9c0,0,0,0,0,0c0,0.1,0,0.2,0.1,0.3c0.6,1.6,0.8,3.4,0.5,5.1c0,0.7,0.1,1.3,0.2,2c0.1,0.7-0.5,1.2-0.2,2
			c0.1,0.3,0,0.7-0.1,1c-0.3,1-0.6,2-0.8,3c-0.1,0.3-0.2,0.6-0.4,0.9c-0.1,0.2-0.2,0.5-0.2,0.8c0.1,0.5-0.1,1-0.5,1.3
			c-0.6,0.7-1.1,1.5-1.9,2c-0.1,0,0,0.3-0.1,0.5s-0.2,0.3-0.3,0.3c-0.8-0.2-1.6,0.2-2.3-0.3c-0.1,0-0.3,0.1-0.4,0.2
			c-0.3,1.4-0.4,2.7-0.4,4.1c0,0.5-0.2,1.1-0.4,1.6c-0.2,0.5-0.3,1-0.2,1.6c0,0.8-0.2,1.6-0.8,2.2c-0.2,0.2-0.3,0.5-0.3,0.8
			c0.2,1,0,2.1-0.5,3c-0.1,0.2-0.1,0.4-0.2,0.6c-0.2,0.7,0,1.4-0.5,2c-0.3,0.6-0.5,1.2-0.7,1.9c-0.1,0.2-0.1,0.4-0.1,0.6
			c0,0.3,0.1,0.5-0.1,0.8c-0.3,0.5-0.4,1.1-0.3,1.6c0.1,0.5-0.1,0.9-0.5,1.2c-0.3,0.1-0.5,0.5-0.4,0.9c0,0,0,0.1,0.1,0.1
			c0,0.1,0,0.2,0,0.3c-0.5,0.7-0.6,1.7-1.2,2.3c-0.3,0.4-0.5,0.5-0.8,0.1c-0.4-0.4-1-0.6-1.5-0.2c-0.3,0.2-0.6,0.5-0.9,0.6
			s-0.7-0.2-1.1-0.2c-1,0.1-2,0-2.9-0.2c-0.6,0.2-1.3,0.1-1.9-0.2c-0.5-0.1-1-0.1-1.5,0c-1.6,0.2-3.2,0.1-4.7-0.3
			c-0.6-0.2-1.3-0.1-1.9,0.3c-0.3,0.3-0.6,0.2-0.8-0.2c-0.1-0.4-0.6-0.6-0.9-0.4c0,0,0,0-0.1,0c-0.9,0.5-1.9-0.1-2.8,0.2
			c-0.1,0-0.3,0-0.5-0.1c-1.3-0.7-2.9-0.7-4.3-0.1c-0.3,0.1-0.5,0.1-0.8,0c-0.7-0.2-1.4-0.3-2.1-0.2l-1.7,0.2
			c-0.2,0.1-0.4,0.1-0.7,0c-0.6-0.3-1.3-0.4-1.9-0.3c-0.6,0.1-1.2,0-1.8-0.1c-0.7-0.1-1.4,0.2-2.1-0.3c-0.6,0.1-1.2,0.1-1.8,0.2
			c-0.5,0.1-1,0-1.5-0.2c-0.3-0.1-0.6-0.4-0.6-0.7c-0.1-0.7-0.8-1.3-0.6-2.1c-0.3-0.7-0.6-1.4-1-2.1c-0.6-1-0.9-2-0.9-3.1
			c-0.2-1.1-0.6-2.2-1.4-3.1c-0.1-0.1-0.2-0.3-0.2-0.4c0.4-1-0.2-1.8-0.2-2.8c0-0.2,0-0.4-0.1-0.5c-0.8-0.5-0.5-1.4-0.8-2.1
			c-0.4-1.3-0.8-2.7-1.1-4c-0.1-0.2-0.1-0.4-0.1-0.7c-0.1-1.3-0.5-2.6-0.9-3.8c-0.1-0.2-0.1-0.4-0.1-0.6c0-0.5-0.3-0.8-0.6-1.1
			s-0.5-0.2-0.5,0.1c-0.3,0.7-0.8,1.2-1.4,1.7c-0.2,0.2-0.5,0.3-0.6,0.6c-0.3,0.6-0.8,1.1-1.5,1.2c-0.6,0.8-1.4,0.4-2.1,0.2
			c-0.3-0.1-0.5-0.2-0.8-0.3c-0.1-0.1-0.2-0.2-0.3-0.4C74.2,369,73.9,367.1,74.4,365.3z M89.4,205.3c-0.3,0.4-0.3,1,0,1.3
			c0.2,0.3,0.3,0.5,0.5,0.8c0.4,0.5,0.8,1.2,0.9,1.9c0.1,1.2,0.6,2.3,1.4,3.2c0.1,0.1,0.1,0.2,0.1,0.3c0.2,0.8,0.5,1.5,0.8,2.2
			c0.2,0.5,0.4,1,0.6,1.5s0.1,1.3,0.8,1.8c0.1,0.1,0.1,0.4,0.1,0.6c0.1,0.5,0.2,1,0.4,1.4c0.1,0.3,0.1,0.5,0.2,0.8
			c0,0.5-0.1,1,0.5,1.3s-0.1,0.8,0.1,1.1c0.3,0.4,0.4,0.9,0.3,1.4c0,0.3,0,0.5,0.2,0.8c0.3,0.8,0.7,1.5,0.4,2.4
			c-0.1,0.2,0.1,0.4,0.2,0.6c0.1,0.3,0.2,0.5,0.2,0.8c0,0.7,0.2,1.3,0.5,1.9c0.1,0.4,0.4,0.8,0.3,1.1c-0.2,0.7,0.1,1.2,0.2,1.8
			c0.1,0.5,0.3,1.1,0.4,1.6c0.1,1.6,0.3,3.2,0.6,4.8c0,0.2,0,0.3,0,0.5c0.2,1.4,0.1,2.7,0.3,4.1c0.2,0.9,0.3,1.8,0.1,2.6
			c0,0.2,0,0.3,0,0.5c0,0.1,0.1,0.3,0.3,0.3c0.6,0.2,1.2,0.3,1.8,0.1c0.6-0.3,1.4,0,2.1-0.4c1,0.2,1.9,0.3,2.9,0.1
			c0.5,0,1,0.1,1.4-0.3c0.4,0,0.9,0,1.3,0.2c0.9,0.3,1.9,0.4,2.9,0.3c0.2,0,0.4-0.2,0.5-0.3c0.2-0.4,0.5-0.6,1-0.3
			c0.2,0.1,0.4,0.2,0.6,0.2c1.6-0.3,3.2,0.2,4.8-0.3c0.1,0,0.1,0,0.2,0c0.7,0.4,1.4,0.1,2.1,0.2c1.2,0.2,1.8-0.5,1.8-1.8
			c-0.1-0.4,0-0.8,0.1-1.1c0.3-0.6,0.4-1.3,0.2-1.9c-0.1-0.6,0-1.2,0.3-1.7c0.4-0.7,0.6-1.4,0.6-2.2c0-1,0.1-2,0.5-2.9
			c0.1-0.2,0.1-0.4,0.1-0.7c0-1.2,0.5-2.4,0.5-3.7c0-0.3,0.4-0.7,0-1.1c0.2-0.4,0.3-0.8,0.5-1.2c0.3-0.7,0.4-1.5,0.4-2.2
			c-0.1-0.6,0-1.2,0.2-1.7c-0.2-0.5,0.2-0.9,0.2-1.4s0-1,0.1-1.5c0.7-0.4,0.1-0.8,0.1-1.3c0-0.1,0.1-0.2,0.1-0.3
			c0.2-1,0.8-1.8,0.6-2.9c0-0.1,0.2-0.3,0.2-0.4c0.3-0.7,0.5-1.5,0.5-2.2c0-0.7,0.1-1.5,0.4-2.2c0.3-0.9,0.9-1.8,0.5-2.9
			c0-0.2,0-0.3,0-0.5l0.8-3.5c0-0.1,0.1-0.2,0.1-0.3c0.4-0.5,0.6-1.2,0.6-1.9c0.2-0.7,0.3-1.4,0.2-2.1c-0.1-0.5,0.3-1.1,0.5-1.6
			c0.3-0.7,0-1.6,0.8-2.1c0.2-0.1,0.1-0.5,0.2-0.8c0-0.3,0.1-0.5,0.1-0.8c0.7-1.5,0.9-3.2,1.5-4.8c0.1-0.4,0.2-0.8,0.3-1.3
			c0.4-0.7,0.4-1.6,0.9-2.3s0.4-1.7,0.7-2.5c0.1-0.2,0.1-0.5,0.2-0.6c0.8-1.1,0.7-2.5,1.5-3.6c0.2-0.2-0.3-0.5,0-0.9
			s0.2-1.1,0.6-1.5c0.3-0.4,0.5-0.9,0.6-1.4c0.2-0.5-0.3-1.1,0.3-1.5c0-1.1,0.8-2,0.8-3.1c0-0.2,0-0.4,0.2-0.6
			c0.5-1,0.8-2.2,0.8-3.3c0-0.2,0-0.4,0.1-0.5c0.9-0.5,0.9-1.5,1.1-2.3c0.2-0.5,0.3-1.1,0.4-1.6c0.3-1.4,1.1-2.6,1-4.1
			c0-0.3,0.1-0.7,0.3-1c0.1-0.2,0.4-0.5,0.4-0.7c0.1-0.8,0.4-1.6,0.7-2.4c0.1-0.8,0.4-1.6,0.7-2.3c0.3-0.7,0.6-1.4,0.6-2.2
			c0-0.9,0.7-1.7,0.5-2.6c-0.2-1,0.6-1.6,0.7-2.5c0-0.4,0.5-0.8,0.5-1.2c-0.1-1.3,1.1-2.4,0.5-3.7c0.2-0.4,0.3-0.8,0.5-1.2
			c0.3-0.7,0.4-1.4,0.3-2.2c0-0.1,0.1-0.2,0.1-0.2c0.4,0,0.5-0.2,0.2-0.5c0.5-0.8,0.1-1.8,0.9-2.4c0.3-0.3,0.4-0.7,0.2-1.1
			c-0.2-0.5-0.1-1.1,0.1-1.6c0.3-0.9,0.5-1.8,0.6-2.7c0-0.6,0.4-1.3,0.4-1.9c0-1.2,0.1-2.4,0.3-3.6c0.2-0.6,0.2-1.2,0.1-1.8
			c0-0.3,0-0.6,0.1-0.8c0.1-0.6,0.3-1.2,0.6-1.7c0.4-0.6-0.1-1.3,0.3-1.9c-0.2-1,0.7-2,0.2-3.1c0-0.1,0-0.2,0.1-0.3
			c0.2-0.6,0.2-1.2,0.2-1.8c0.1-0.6,0.3-1.3,0.6-1.9c0-0.1,0-0.2,0-0.3c0.1-1.4-0.1-2.9,0.5-4.2c0-0.1-0.1-0.3-0.1-0.5
			c-0.1-0.2-0.1-0.4-0.2-0.6c0.2-1.4,0.2-2.9,0-4.3c-0.5-2.3-0.5-4.7,0-7c0.1-0.4,0.1-0.8,0-1.1c-0.3-1,0.3-1.7,0.9-2.4
			c0.1-0.2,0.4-0.2,0.5-0.1c0,0,0,0,0.1,0.1c0.1,0.1,0.1,0.2,0.2,0.3s0.2,0.2,0.3,0.4c0.1-0.2,0.3-0.4,0.3-0.5c0-0.8-0.3-1.1-1-1.3
			c-1-0.2-2.1-0.2-3.2,0c-0.3,0.1-0.7,0.1-1,0c-0.4-0.1-0.8-0.4-1.2-0.5s-0.8,0.2-1.3,0c-0.2,0-0.3,0-0.5,0.1
			c-0.2,0.1-0.4,0.2-0.6,0c-0.5-0.6-1.3-0.8-2-0.5c-0.8,0.1-1.6,0-2.4-0.1c-0.7,0-1.3-0.2-2-0.2c-0.8,0-1.5-0.1-2.2-0.5
			c-0.2-0.2-0.5-0.2-0.8-0.2c-0.9,0.1-1.9,0-2.8-0.1c-0.9-0.1-1.8-0.1-2.7,0.2c-0.3,0.1-0.6,0.1-0.9-0.1c-0.5-0.4-1.2-0.4-1.8-0.2
			c-0.5,0.3-0.9,0.3-1.3-0.1c-0.1-0.1-0.3-0.1-0.5-0.1c-0.7,0.1-1.4,0-2.1-0.2c-1.5-0.3-3-0.6-4.3,0.5c-0.1,0.1-0.3,0.1-0.5,0
			c-0.5-0.5-1-0.4-1.6-0.3c-0.9,0.1-1.8,0-2.6-0.1c-0.4-0.1-0.9,0-1.2,0.3c-0.3,0.2-0.7,0.2-0.9,0c-0.4-0.2-0.8-0.4-1.2-0.6
			c-0.1-0.1-0.4-0.1-0.5-0.1c-0.5,0.4-0.8,0-1.2,0s-1-0.3-1.4,0.2c-0.1,0.3-0.4,0.4-0.7,0.2c0,0-0.1-0.1-0.1-0.1
			c-0.3-0.2-0.6-0.3-0.9-0.4c-0.3-0.1-0.6,0-0.7,0.2c-0.1,0.1-0.3,0.4-0.3,0.3c-0.6-0.3-1.2,0.5-1.9,0c-0.5-0.2-1-0.3-1.5-0.3
			c-0.8-0.2-1.6,0-2.2,0.4c-0.2,0.1-0.4,0.2-0.6,0.1c-0.5-0.3-1-0.7-1.6-0.1c-0.1,0.1-0.4,0-0.6,0c-0.4-0.1-0.8-0.1-1.1-0.2
			c-0.9,0-1.8,0.2-2.6,0.2s-1.8,0.3-2.8,0.3c-1.5,0-3,0.1-4.5,0.1c-0.4,0-0.8,0.1-1.1,0.2c-0.3,0.2-0.6,0.2-0.9,0
			C86.4,88,86.2,88,85.9,88c-0.9,0.2-1.8-0.2-2.6,0.3c-0.2,0.1-0.4,0.1-0.6,0c-0.6-0.2-1.2,0-1.7,0.4c-0.1,0.1-0.2,0.1-0.3,0
			c-0.6-0.5-1.2-0.1-1.7,0c-0.9,0.1-1.7,0.3-2.6,0.6c-0.2,0.1-0.4,0.1-0.6,0.1c-0.8,0-0.8,0-0.9,0.5c-0.2,0.8-0.4,1.7-0.5,2.6
			c0,1.8-0.6,3.5-0.3,5.3c-0.2,1.5-0.1,3,0.1,4.5c0.1,0.3,0.1,0.5,0,0.8c-0.4,0.9-0.5,2-0.2,2.9c0.1,0.4,0.2,0.9,0.1,1.3
			c0,0.3-0.1,0.7-0.1,1c0,0.7,0.1,1.3,0,2c-0.1,1-0.1,2,0,3c0.1,1,0,2,0.1,3c0,0.2,0,0.3-0.1,0.5c-0.2,0.6-0.2,1.2,0,1.8
			c0.3,0.7,0.2,1.5-0.1,2.1c-0.1,0.3-0.1,0.5,0,0.8c0.3,1.1,0.3,2.2,0,3.3c-0.1,0.5-0.1,1.1,0.1,1.6c0.1,0.3,0.2,0.6,0.1,1
			c-0.1,1.1-0.1,2.2,0,3.3c0,0.5,0,1.1,0.1,1.6c0.1,0.5,0.2,1,0.1,1.5c0,0.4,0,0.9,0,1.3c0.1,0.6,0.1,1.2,0,1.8c0,0.2,0,0.4,0,0.7
			c0,0.6,0.1,1.2,0.2,1.8s0,1.1,0,1.6c0.5,0.5,0.1,1.2,0.2,1.8c0.2,1,0.2,2.1,0.1,3.1c-0.1,1.1,0,2.3,0.2,3.4
			c0.1,0.6,0.1,1.2,0.1,1.8c0.1,1,0.1,2.1,0.2,3.1c0,0.9,0.1,1.8,0.3,2.6c0.2,0.9,0.3,1.9,0.2,2.8c0,0.2,0,0.3,0.1,0.5
			c0.4,0.8,0.5,1.8,0.4,2.7c-0.1,0.7-0.1,1.4,0.2,2c0.3,0.6,0.4,1.3,0.5,1.9c0.1,1.2,0.4,2.3,1,3.3c0.2,0.3,0.2,0.6,0.1,1
			c0,0.2,0,0.4,0.1,0.6c0.2,0.3,0.3,0.6,0.2,1c-0.1,0.5,0.1,1,0.5,1.3c0.5,0.4-0.3,0.9,0,1.4c0,0,0,0.1,0.1,0.1
			c0.6,0.6,0.9,1.5,0.8,2.3c0,1.2,0.7,2.3,0.7,3.5c0,0.2,0.1,0.4,0.3,0.6c0.6,0.8,0.9,1.8,0.8,2.8c-0.1,0.6,0.1,1.1,0.5,1.5
			c0.5,0.4,0.7,1,0.6,1.6c0,0.2,0,0.4,0.1,0.7c0.1,0.5,0.3,0.9,0.9,0.8c0.2,0,0.2,0.2,0.1,0.3c-0.3,0.3-0.3,0.7-0.1,1.1
			c0.3,0.7,0.7,1.4,1,2.1s0,1.6,0.9,2c0,0,0,0.2,0,0.3c-0.1,0.2-0.1,0.6,0.1,0.8c0.2,0.3,0.5,0.6,0.3,1c0,0.1,0,0.2,0.1,0.3
			c0.6,0.2,0.5,0.7,0.6,1.2c0.3,1.3,0.9,2.5,1.6,3.6c0.1,0.1,0.2,0.3,0.2,0.4c-0.2,1,0.4,1.6,1,2.2
			C89.4,204.8,89.4,205.1,89.4,205.3L89.4,205.3z M72.5,93.8L72.5,93.8c0.1-1.2,0.2-2.3,0.2-3.5c0-0.2,0-0.3,0-0.5
			c0-0.2-0.1-0.3-0.2-0.4c-0.3-0.2-0.4,0.1-0.5,0.2s-0.4,0.3-0.6,0.1c-0.4-0.6-1.2-0.7-1.8-0.3c-0.1,0.1-0.3,0.1-0.5,0.1
			c-1.1,0-2.3,0.2-3.4,0.5c-0.3,0.1-0.7,0.3-0.9,0.2c-1.2-0.6-2.4,0.3-3.6-0.2c-0.1-0.1-0.4,0.1-0.6,0.2c-0.2,0.1-0.4,0.2-0.5,0.4
			C60,91.2,59.5,91,59.1,91c-0.2,0-0.4,0.1-0.5,0c-0.7-0.3-1.5-0.2-2.1,0.3c-0.6,0.3-1.1,0.8-1.9,0.4c-0.2,0-0.3,0-0.5,0.1
			c-0.4,0.3-0.8,0.3-1.3,0.2c-0.4-0.1-0.9,0-1.2,0.3c-0.4,0.4-1,0.5-1.5,0.3c-0.8-0.2-1.7-0.1-2.5,0.2c-0.8,0.4-1.7,0.6-2.7,0.5
			c-0.2,0-0.4,0-0.6,0.1c-0.7,0.3-1.3,0.5-2,0.6c-0.5,0.1-1.2,0-1.6,0.3c-0.8,0.5-1.9,0.2-2.6,0.9c-0.2,0.1-0.5,0.2-0.8,0.2
			c-0.7,0.1-1.3,0.2-2,0.2c-0.4,0-0.8,0.1-1,0.3c-0.5,0.5-1.4,0.4-1.9,1c-0.5-0.2-0.8,0.1-1.2,0.3c-0.4,0.1-0.9,0.2-1.3,0.1
			c-0.7,0-1.4,0.1-2.1,0.4c-0.7,0.2-1.4,0.5-2,0.8c-0.5,0.3-1,0.5-1.5,0.6c-0.4,0-0.8,0.3-1.3,0.3s-0.9,0.6-1.4,0.1
			c0,0-0.4,0.2-0.5,0.3c-0.6,0.3-1.1,0.8-1.8,0.7c-1,0-2,0.4-2.7,1.1c-0.2,0.2-0.4,0.3-0.7,0.4c-0.5,0.2-1.1,0.3-1.6,0.4
			c-1.6,0.2-3.2,0.8-4.6,1.7c-0.3,0.2-0.6,0.3-0.9,0.4c-0.7,0.2-1.5,0.1-2,1c-0.1,0.1-0.4,0.2-0.6,0.2c-0.9,0.1-1.7,0.5-2.5,0.9
			c-0.5,0.2-0.7,0.8-0.5,1.3c0.3,1.1,0.6,2.2,0.7,3.3c0.1,0.5,0.3,1.1,0.5,1.6c0.1,0.4,0.2,0.7,0.2,1.1c-0.1,0.9,0.1,1.8,0.5,2.6
			c0.1,0.2,0.3,0.5,0.3,0.8c0.3,1.4,0.2,2.9,1,4.1c0,1.1,0.7,2.1,1,3.1c0.1,0.3,0.5,0.4,0.4,0.8s0.4,0.6,0.5,1
			c0.2,1.2,0.6,2.5,0.8,3.7c0.1,0.5,0.2,0.9,0.7,1c0.2,0.1,0.4,0.3,0.3,0.5c-0.1,0.3,0,0.6,0.1,0.8c0.4,0.9,0.8,1.8,1,2.8
			c0.3,0.8,0.7,1.5,1,2.2c0.4,0.7,0.6,1.4,0.6,2.2c0,0.4,0.2,0.8,0.5,1c0.3,0.3,0.5,0.6,0.5,1c0.1,0.5,0.2,1.2,0.6,1.5
			s0.3,1.1,0.6,1.6c0.4,0.6,0.8,1.2,1,1.9c0.2,0.7,0.8,1.3,0.7,2.2c0,0.2,0.1,0.4,0.3,0.6c0.5,0.5,0.4,1.6,1.4,1.8
			c0,0,0.1,0.1,0,0.1c-0.2,0.7,0.5,1,0.7,1.6s0.6,1.2,0.8,1.8c0.1,0.4,0.2,0.8,0.6,1.1s0,0.8,0.3,1.2c0.8,0.8,1,2.1,2,2.8
			c0.2,0.1,0.2,0.5,0.2,0.8c0.1,0.8,0.4,1.5,1,2c0.2,0.1,0.3,0.3,0.4,0.5c0.2,0.8,0.9,1.5,1,2.4c0.1,0.4,0.3,0.8,0.6,1.1
			c0.4,0.3,0.4,0.8,0.6,1.1s0.7,0.7,0.8,1.2c0.1,0.2,0.2,0.4,0.4,0.5c0.8,0.7,1.3,1.6,1.6,2.6c0.4,1.1,1.2,2.1,2.2,2.9
			c0.2,0.1,0.5,0.4,0.5,0.6c0.1,0.7,0.5,1.3,1.1,1.8c0.2,0.2,0.4,0.5,0.5,0.9c0,0.6,0.4,1.2,0.9,1.4c0.3,0.2,0.5,0.6,0.5,1
			c0.1,0.4,0.4,0.7,0.8,0.8c0.5,0.1,0.9,0.5,1,1c0,0.2,0.2,0.5,0.4,0.5c0.6,0.2,0.7,0.6,0.8,1.1c0.1,0.4,0.4,0.7,0.6,1
			c0.2,0.2,0.6,0.3,0.8,0.6c0.2,0.3,0.4,0.7,0.5,1c0.8,1.2,1.7,2.4,2.7,3.5c0.3,0.4,0.5,0.9,0.8,1.2c0.5,0.4,0.8,1.1,0.9,1.7
			c0,0.2,0.3,0.5,0.4,0.7c0.9,0.8,1.6,1.7,2.2,2.7c0.1,0.2,0.2,0.3,0.3,0.4c0.7,0.3,1.1,0.9,1.3,1.6c0.2,0.8,1.2,1,1.4,1.9
			c0.7,0.1,0.6,0.5,0.4,1c0,0.2,0,0.4,0.2,0.6c0.4,0.6,0.9,1.1,1.5,1.5c0.5,0.3,0.9,0.8,1,1.4c0.1,0.5,0.3,1,0.7,1.3
			c0.3,0.2,0.5,0.5,0.6,0.8c0.2,0.8,0.9,1.1,1.4,1.6c0.4,0.2,0.7,0.6,0.9,0.9c0.2,0.4,0.5,0.7,0.5,1.2c0,0.2,0.1,0.4,0.2,0.6
			c0.8,0.9,1.5,1.7,2.3,2.6c0.6,0,0.6,0.3,0.6,0.8c0,0.2,0.1,0.3,0.1,0.5c0.4,0.5,0.9,1,1.2,1.5c0.5,0.5,0.9,1.1,1.1,1.8
			c0.1,0.6,1.3,0.5,1,1.5c0.1,0.1,0.2,0.1,0.3,0.2c0.4,0,0.6,0.2,0.5,0.7c-0.1,0.3,0.1,0.4,0.3,0.5c0.6,0.7,1.1,1.4,1.5,2.2
			c0.4,0.8,0.9,1.7,1.4,2.4c0.3,0.4,0.6,0.9,0.9,1.4c0.3,0.5,0.4,1.2,1.1,1.3c0.1,0,0.2,0.1,0.2,0.2c0.1,0.7,0.5,1.4,1.1,1.8
			c0.1,0.8,0.7,1.4,1,2.1c0.2,0.6,0.4,1.3,0.7,1.9c0.3,0.6,0.5,1.3,0.6,2c0.2,0.5,0.4,0.9,0.8,1.3c0.2,0.3,0.3,0.5,0.4,0.9
			c0.2,1,0.4,2,1.5,2.4c0.1,0.1,0.2,0.3,0.2,0.4c0,0.2-0.1,0.5-0.1,0.6c0.1,0.4,0.4,0.7,0.5,1s-0.2,0.8-0.1,1.1
			c0.1,0.6,0.5,1.1,0.9,1.5c0.4,0.2,0.5,0.7,0.4,1.2c-0.1,0.3-0.1,0.6,0,1c0.2,0.4,0.6,0.8,0.4,1.2s0.5,0.8,0.4,1.3s0.4,0.8,0.8,0.6
			c0.6-0.4,1.4-0.5,2-0.2c0.4,0.2,0.9,0.2,1.3-0.1c0.2-0.2,0.4-0.2,0.6-0.1c0.8,0.2,1.7,0.3,2.6,0.1c0.9,0.1,1.9,0.1,2.8,0
			c0.3-0.1,0.6-0.2,0.9-0.3c0.5-0.2,1.2,0.2,1.5-0.6c0.1,0,0.3,0,0.5,0c1.1,0.6,2.5,0.4,3.4-0.4c0.3-0.2,0.5-0.1,0.7,0
			c0.8,0.3,1.5-0.2,1.3-1c-0.4-1.8-0.6-3.6-0.6-5.4c0-0.3-0.1-0.5-0.2-0.8c0-0.2-0.2-0.3-0.1-0.5c0.4-1.2-0.2-2.3-0.3-3.4
			s-0.4-2.4-0.5-3.6c0-0.4-0.1-0.7-0.4-1c-0.2-0.2-0.3-0.6-0.2-0.9c0.1-0.4,0.2-0.7,0.2-1.1c-0.2-0.9-0.4-1.8-0.7-2.7
			c-0.1-0.5-0.4-0.9-0.5-1.3c-0.1-0.5-0.1-1-0.1-1.5c0-0.3-0.1-0.5-0.1-0.8c-0.1-0.2-0.4-0.4-0.4-0.7s0-0.7-0.1-1
			c-0.1-0.6-0.3-1.1-0.6-1.5c-0.1-0.2-0.2-0.5-0.2-0.8c-0.2-1-0.5-2-0.9-3c0-0.1-0.2-0.4-0.3-0.4c-0.6-0.1-0.6-0.6-0.6-1
			c0-0.9-0.4-1.7-0.9-2.4c-0.1-0.2-0.2-0.4-0.2-0.6c0-0.3,0-0.6-0.2-0.8c-0.9-1-0.6-2.5-1.6-3.4c-0.2-0.2-0.1-0.8-0.3-1.1
			c-0.5-1-1-2-1.6-2.9c-0.1-0.1-0.2-0.3-0.2-0.4c0.2-0.9-0.4-1.5-0.8-2.1c-0.4-0.5-0.5-1.1-0.5-1.7c0-0.3,0-0.6-0.1-0.8
			c-0.4-0.9-0.7-1.9-1.1-2.8c-0.1-0.2-0.4-0.4-0.6-0.6s-0.1-0.2-0.1-0.3c0.3-0.5-0.1-0.8-0.4-1.1c-0.3-0.3-0.4-0.6-0.4-1
			c0-1.4-0.3-2.7-1-4c-0.2-0.5-0.4-1-0.6-1.5c-0.2-1.1-0.5-2.2-0.9-3.2c-0.6-1-0.5-2.2-0.9-3.3c0-0.1,0-0.1-0.1-0.1
			c-0.5-0.4-0.2-1.1-0.7-1.5s0-1.1-0.3-1.6c-0.1-0.2-0.1-0.3-0.2-0.4c-0.5-0.5-0.7-1.2-0.7-2c-0.2-0.8-0.4-1.6-0.7-2.4
			c-0.2-0.8,0.1-1.7-0.5-2.4c-0.1-0.1-0.1-0.3-0.1-0.5c0-1-0.2-2-0.5-2.9c-0.2-0.5-0.2-1.1-0.1-1.6c0.2-0.4,0.1-0.9-0.2-1.2
			c-0.2-0.2-0.3-0.3-0.3-0.5c0-0.2,0.1-0.5,0-0.7c-0.2-1.2-0.5-2.4-0.7-3.6c-0.1-0.7,0.3-1.5-0.4-2.2c0,0,0-0.1,0-0.2
			c0.5-0.7,0.1-1.4,0-2.1c-0.1-0.4-0.2-0.9-0.1-1.3c0.2-0.6,0.2-1.2-0.1-1.8c-0.4-0.7,0.2-1.3-0.1-1.9c0-0.1-0.1-0.2-0.1-0.3
			c-0.2-0.3-0.3-0.6,0-0.9c-0.1-1,0.6-1.9-0.1-2.9c-0.1-0.2-0.1-0.3,0-0.5c0.2-0.5,0.2-1.1,0-1.6c-0.2-0.9-0.2-1.9-0.1-2.8
			c0-0.6,0-1.1-0.1-1.7c-0.1-1-0.5-1.9,0-2.9c-0.1-0.8-0.2-1.5-0.3-2.3c0-0.2-0.1-0.3-0.1-0.5c0.3-1.1,0.4-2.3,0.2-3.4
			c-0.2-1.2-0.2-2.4,0-3.6c0-0.2,0-0.4,0-0.5c-0.6-0.5-0.1-1.1-0.1-1.7s0.4-1.1,0-1.7c0.2-1.3,0.2-2.6,0-3.9c0-0.4,0-0.8,0.1-1.1
			c0.1-0.7,0-1.4-0.2-2.1c0-0.1-0.2-0.4-0.1-0.4c0.5-0.4,0.2-1,0.2-1.4c0.1-1.2-0.1-2.5,0.1-3.7c0.1-0.3,0.1-0.5,0-0.8
			c-0.3-1-0.4-2.1-0.3-3.1c-0.1-1.1-0.5-2.2,0-3.3c0-0.2,0-0.3,0-0.5c-0.1-1,0-2.1,0.1-3.1c0.1-1,0.3-2,0.4-2.9
			C72.3,96.3,72.4,95,72.5,93.8L72.5,93.8z M101.5,337.7c0.4,0.1,0.7,0.2,1.1,0.2c0.3,0.1,0.7,0,1-0.1c0.3-0.2,0.7-0.3,1.1-0.1
			c0.3,0.1,0.6-0.3,1-0.2c0.4,0.1,0.8,0.1,1.2,0.1c0.2,0,0.3-0.1,0.4-0.2c0.4-0.7,0.6-1.5,0.5-2.3c-0.4-0.9-0.3-1.9-0.6-2.8
			c-0.1-0.3,0-0.7,0.2-0.9c0.6-0.8,0.9-1.8,0.7-2.7c0-0.8,0.1-1.6,0-2.5c0-0.6,0.3-1.2,0.2-1.8s-0.3-1.2,0.2-1.7
			c-0.4-1.2,0.1-2.3,0.1-3.4s0.2-2.3,0.1-3.5c0-1,0.1-2.1,0.3-3.1c0.1-0.3,0.1-0.7,0-1c-0.2-0.3-0.1-0.8,0.2-1.1
			c0.2-0.2,0.1-0.5,0.1-0.8c-0.1-1-0.2-2.1-0.2-3.2s0-1.9,0.1-2.8s0.6-2,0.1-3c0-0.1,0.1-0.2,0.1-0.3c0-0.3,0-0.5,0-0.8
			c-0.2-0.8-0.1-1.5,0.1-2.3c0.1-0.4,0.1-0.8,0-1.1c-0.1-0.2-0.1-0.4,0-0.6c0.2-0.3,0.2-0.7,0-1c-0.1-0.2-0.1-0.4-0.1-0.6
			c0.3-1.5,0.3-2.9,0.3-4.4c-0.1-0.8-0.1-1.6,0.1-2.5c0.2-0.8-0.3-1.7,0.3-2.4c-0.1-0.9,0-1.8,0.2-2.6c0-0.4,0-0.9-0.1-1.3
			c-0.1-1.4,0-2.7,0.2-4.1c0-0.1,0-0.3-0.1-0.4c-0.5,0-0.9-0.6-1.4,0c-0.1,0.1-0.3,0.1-0.4,0.1c-0.4-0.2-0.8-0.1-1.1,0
			c-0.3,0.1-0.7,0.1-1,0c-0.7-0.4-1.6-0.5-2.4-0.3c-0.2,0-0.3,0-0.5-0.1c-0.5-0.5-1.1-0.9-1.8-1.2c0.1-0.6-0.9-0.4-0.8-1
			c0.1-1.7-0.5-3.3-0.4-5.1c-0.1-1-0.1-2.1,0.1-3.1c0-0.1,0-0.2,0-0.3c0-0.7,0-1.3-0.1-2c-0.1-0.3,0-0.7,0.2-0.9
			c0.2-0.2,0.3-0.5,0.4-0.7c0.1-0.3-0.3-0.9-0.6-0.8c-0.8,0.3-1.6,0.3-2.4,0c-0.5,0.4-1-0.1-1.5-0.1c-0.8-0.2-1.6-0.2-2.4,0
			c-0.5,0.2-1,0.2-1.5,0.1c-0.8-0.1-1.5-0.1-2.3,0.1c-0.5,0.2-1.1,0.3-1.6,0.3c-0.4,0-0.9,0-1.3,0.1c-0.6,0.1-1.2,0.1-1.8,0
			c-0.7-0.1-1.3-0.4-1.6-1c-0.1-0.2-0.2-0.4-0.2-0.6c0.2-0.9,1-1.6,1.9-1.8c1.1-0.1,2.3-0.1,3.5-0.3c0.9-0.2,1.9-0.2,2.8-0.1
			c0.9,0.1,1.9-0.1,2.7-0.6c0.2-0.2,0.5-0.2,0.7,0c0,0,0,0,0,0.1c0.2,0.2,0.5,0.3,0.8,0.2c0.6-0.3,1.3,0.2,1.9-0.3
			c0.1-0.1,0.3,0,0.5,0c0.6,0.1,0.8,0,0.7-0.6c-0.3-1.3-0.6-2.6-0.9-3.9c0-0.2-0.5-0.3-0.5-0.2c-0.4,0.6-0.8,0.4-1.4,0.2
			c-0.9-0.2-1.9-0.2-2.8,0c-0.2,0-0.4,0.2-0.5,0.4c-0.1,0.3-0.4,0.4-0.7,0.2c-0.1,0-0.1-0.1-0.1-0.1c-0.7-0.5-1.6-0.6-2.4-0.3
			c-0.6,0.2-1.4,0.1-2,0.3c-0.7,0.2-1.4,0.2-2.1,0.1c-0.2,0-0.4,0.1-0.7,0.1c-0.2,0.1-0.4,0.1-0.6,0c-0.9-0.5-1.9-0.1-2.8-0.2
			c-0.1,0-0.4,0.2-0.5,0.4s0.1,0.4,0,0.5c-0.3,0.5-0.3,1.1,0,1.5c0.3,0.4,0.4,0.9,0.5,1.4c-0.2,1.2,0.4,2.3,0.4,3.5
			c0,0.4,0.2,0.4,0.5,0.4c0.1,0,0.3,0.2,0.2,0.3c-0.3,1.4-0.3,2.7-0.2,4.1c0,0.6-0.1,1.2-0.3,1.8c-0.1,0.3-0.1,0.5-0.1,0.8
			c0,0.7,0.2,1.3,0.3,1.9c0.1,0.7,0.3,1.4,0.5,2c0.2,0.5,0.2,1,0.2,1.5c0,1.2,0.1,2.4,0.4,3.6c0.1,0.3,0.2,0.7,0.2,1
			c-0.2,0.9-0.1,1.8,0.3,2.6c-0.2,0.7,0.2,1.4,0.2,2.1c-0.1,0.7,0.1,1.5,0.4,2.1c0.1,0.2,0.1,0.3,0,0.5c-0.2,1.3-0.1,2.6,0.2,3.9
			c0.1,0.7,0.1,1.3,0.3,2c0.2,0.7,0.2,1.3,0.1,2c0,0.2,0,0.3,0,0.5c0.3,1.5,0.5,2.9,0.5,4.4c0.2,0.8,0.3,1.6,0.3,2.4
			c-0.1,0.5-0.1,1.1,0.1,1.6c0.1,0.5,0.2,1.1,0.3,1.6c0,1,0.2,2,0.5,3c0.1,0.2,0.1,0.4,0.1,0.7c-0.2,2.3,0.6,4.4,0.7,6.7
			s0.6,4.3,0.6,6.5c0,0.3,0.1,0.5,0.1,0.8c0.2,1.3,0.5,2.5,0.6,3.8c0.2,1.3,0.4,2.7,0.4,4c0,0.2,0,0.4,0.1,0.6
			c0.3,0.7,0.4,1.5,0.2,2.3c0,0.2,0,0.4,0,0.6c0.4,1.8,0.6,3.6,0.6,5.4c0,0.3,0.2,0.5,0.5,0.5c0.2,0,0.4,0,0.7,0
			c1.2-0.1,2.3-0.1,3.5-0.3c0.8-0.1,1.8,0.5,2.5-0.4c0,0,0.1,0,0.1,0C98.9,337.8,100.2,337.3,101.5,337.7L101.5,337.7z M108,356
			c0.1-0.5,0.2-0.7,0.2-0.8s0-0.2-0.1-0.3c-0.1,0-0.2,0-0.3,0.1c-0.2,0.2-0.5,0.4-0.5,0.6c-0.1,0.7-0.7,1.1-1.1,1.6
			c-0.2,0.2-0.3,0.4-0.5,0.7c-0.1,0.4-0.3,0.7-0.5,1c-0.3,0.3-0.7,0.5-1.1,0.7c-0.3,0.2-0.6,0.5-0.9,0.7c-0.2,0.2-0.3,0.4-0.7,0.4
			c-0.3,0-0.5,0.1-0.8,0.2c-0.8,0.4-1.7,0.8-2.6,1c-0.7,0.2-1.5,0.5-2.1,0.9c-0.2,0.1-0.5,0.1-0.8,0c-0.2-0.1-0.5-0.2-0.8-0.1
			c-1.2,0.1-2.5,0.4-3.6-0.6c-0.7,0.2-1.1-0.7-1.8-0.6c-0.2,0-0.4-0.2-0.6-0.3c-0.9-0.5-1.7-1.2-2.3-2.1c-0.3-0.5-0.8-1-1.1-1.4
			c-0.1-0.2-0.3-0.2-0.5-0.1c0,0-0.1,0-0.1,0.1c-0.1,0.2-0.2,0.4-0.3,0.6c-0.4,1.6-0.8,3.1-1.3,4.6c0,0.2,0,0.3,0,0.5
			c0.2,0.5,0.4,1,0.6,1.5c0.1,0.2,0.3,0.4,0.3,0.6c0.2,1.1,0.4,2.2,0.7,3.2c0.1,0.7,0.4,1.3,0.5,1.9c0,0.7,0.3,1.3,0.6,1.8
			c0,0.1,0,0.2,0,0.3c-0.1,0.3,0,0.6,0.2,0.8c0.8,0.6,0.6,1.5,0.7,2.2c0,0.9,0.2,1.8,0.5,2.7c0.3,0.5,0.4,1,0.3,1.6
			c-0.1,0.4,0.1,0.9,0.3,1.2c0.4,0.4,0.6,1,0.5,1.5c0,1.2,0,2.4,1,3.4c0.1,0.1,0,0.3,0.1,0.5c0.5,1,0.1,2.2,0.9,3.2
			c0,0.1,0,0.2,0,0.3c0,0.3,0.1,0.7,0.1,1c0.1,0.5,0.3,1,0.7,1.3c0.3,0.4,0.7,0.1,1.1,0.2c0.4,0.1,0.8,0,1.1-0.3
			c0.1-0.1,0.3-0.2,0.5-0.2c0.9,0.1,1.8,0,2.6-0.2c0.8,0.3,1.8,0.2,2.6-0.2c0.2-0.1,0.4-0.1,0.6,0c0.8,0.3,1.8,0.3,2.6-0.2
			c0.1-0.1,0.3-0.1,0.5-0.1c0.9,0.2,1.7-0.3,2.6,0.1c0.4,0.1,0.9,0.1,1.3-0.1c0.5-0.2,1.1,0.1,1.6-0.3s1.2,0.1,1.8-0.2
			c0.3-0.2,0.6,0,0.9,0.1c1,0.3,2.2,0.4,3.2,0.2c1-0.4,2.1-0.3,3.1,0.1c0.7,0.2,1.4,0.3,2.1,0.2c0.3-0.3,0.7-0.2,1.1,0
			c0.6,0.3,1.2,0.6,1.9,0.6c0.7,0,1.4,0.1,2.1,0.4c0.4,0.1,0.8,0.1,1.1,0.1c0.4,0,0.9,0,1.3-0.2c0.4-0.2,0.9-0.1,1.2,0.2
			c0.3,0.3,0.8,0.3,1.1,0c0.4-0.3,0.8-0.5,0.5-1c0-0.1,0.1-0.3,0.2-0.4c0.3-0.4,0.5-0.9,0.4-1.4c0-0.6,0.1-1.2,0.2-1.8
			c0.5-0.2,0.5-0.6,0.4-1c0-0.4,0-0.8,0.2-1.1c0.5-1.3,0.9-2.6,1.3-4c0.1-0.7,0.3-1.4,0.7-2c0.2-0.3,0.3-0.7,0.3-1.1
			c-0.2-1,0.1-2.1,0.8-2.9c0.1-0.2,0.2-0.4,0.1-0.6c-0.1-0.5,0-1.1,0.2-1.6c0.3-1,1.1-1.9,1-3.1c0-0.1,0.2-0.3,0.2-0.4
			c0.2-0.4,0.4-0.8,0.6-1.2c0.4-0.6,0.3-1.3-0.2-1.8c-0.1-0.1-0.1-0.4-0.2-0.6c-0.3-0.7-0.5-1.5-0.5-2.2c-0.5-0.6-0.6-1.5-0.3-2.2
			c0.1-0.3,0-0.6-0.1-0.8c-0.2-0.5-0.3-1-0.3-1.6c-0.1-0.5,0.1-1-0.3-1.4c-0.3-0.2-0.3-0.5-0.2-0.8c0,0,0.1-0.1,0.1-0.1
			c0.3-0.3,0.1-0.8,0.2-1.1s0.2-0.5-0.2-0.5c-0.2,0-0.4,0-0.6,0.1c-0.2,0.2-0.4,0.4-0.6,0.6c-0.6,0.8-0.6,0.8-1.9,1.3
			c-0.2,0.1-0.4,0.2-0.5,0.4c-0.4,0.4-1,0.7-1.6,0.8c-0.3,0-0.7,0.1-0.9,0.4s-0.4,0.6-0.8,0.3c-0.8,0.5-1.7,0.3-2.6,0.4
			c-0.9,0.1-1.8,0-2.6-0.3c-0.2-0.1-0.4,0-0.7,0c-0.2,0-0.4-0.1-0.6-0.2c-0.6-0.3-1.2-0.7-1.9-1.1c-0.3-0.2-0.6-0.1-0.8,0.2
			c-0.1,0.1-0.1,0.2-0.1,0.4c0.1,0.5,0,1.1-0.3,1.6c-0.1,0.3-0.2,0.5-0.1,0.8c0,0.3-0.1,0.7-0.3,0.9c-0.2,0.2-0.4,0.4-0.5,0.7
			c-0.3,0.8-0.8,1.6-1.5,2.1c-0.5,0.5-0.9,1.2-1.7,1.3c-0.6,0.1-1.2,0.3-1.8,0.4c-0.2,0-0.4,0-0.6-0.1c-0.5-0.4-1-0.7-1.6-0.8
			c-0.3-0.1-0.6-0.3-0.7-0.7c-0.2-0.7-0.7-1.2-1.3-1.4c-0.1-0.1-0.2-0.2-0.2-0.4c0.2-0.7-0.5-1.5,0-2.2c0.1-0.1,0-0.4-0.1-0.6
			c-0.3-1-0.3-2,0-3c0.2-0.4,0.2-0.9,0.2-1.3C108.1,356.3,108.1,356.2,108,356z M141,256.3c0-0.6,0.1-1.5,0.2-2.4
			c0-0.4-0.1-0.5-0.5-0.4s-0.5,0-0.8,0.1s-0.8,0.1-0.9,0.3c-0.4,0.7-0.9,0.5-1.4,0.5c-0.2,0-0.5-0.1-0.6,0c-0.5,0.6-1.1,0.4-1.7,0.3
			c-0.4,0-0.8,0.1-1.1,0.2c-1.1,0.3-2.1,0.7-3.1,1.2c-0.2,0.2-0.6,0.1-1,0.1s-0.8-0.1-1.1,0.1c-0.6,0.4-1.3,0.1-2,0.5
			c-0.7,0.3-1.4,0.4-2.1,0.5c-0.1,0-0.2,0.1-0.2,0.2c0.1,0.1,0.1,0.2,0.2,0.2c0.5,0.2,0.9,0.4,1.4,0.6c0.1,0.1,0.1,0.2,0.1,0.3
			c0,0.1-0.1,0.3-0.2,0.4c-0.2,0.1-0.4,0.1-0.7,0.1c-0.8-0.1-1.5-0.1-2.3,0c-0.5,0-1,0-1.5,0l-2-0.1c-0.4,0-0.4,0.2-0.2,0.5
			c0.2,0.2,0.3,0.6,0.3,0.9c0,0.5,0.1,1,0.2,1.5c0.1,0.4-0.1,0.8-0.5,0.9c0,0,0,0,0,0c-0.4,0.1-0.7,0.5-0.7,1c0,0.5-0.3,1-0.3,1.4
			c0,0.7-0.4,1.4-0.4,2.1s-0.5,1.5-0.7,2.2c-0.2,0.4-0.3,1-0.2,1.4c0,0.5-0.1,1-0.2,1.5c0.5,0.6-0.2,0.9-0.4,1.3
			c-0.1,0.2-0.1,0.5,0.1,0.6c0.4,0.1,0.7,0.6,0.6,1c0,0,0,0,0,0c0,0.3-0.2,0.5-0.4,0.7c-0.3,0.2-0.5-0.2-0.6-0.4
			c0-0.2-0.1-0.3-0.2-0.4c-1.1-0.9-2.7-0.7-3.6,0.3c-0.2,0.3-0.4,0.6-0.7,1c-0.3,0.4-0.4,0.9-0.3,1.4c0.1,0.5,0.5,0.8,0.2,1.4
			s0,1.1-0.3,1.6c-0.1,0.3-0.1,0.5-0.1,0.8c0,0.4,0.1,0.9,0.2,1.3c0.2,0.5-0.5,1,0,1.4c0,0.4-0.1,0.8-0.1,1.3
			c-0.1,0.8-0.1,1.5,0,2.3c0.2,0.9-0.4,1.6-0.3,2.4c0,0.4-0.1,0.8-0.2,1.2c-0.1,0.3,0,0.7,0.1,1c0.3,0.4,0.3,0.9,0.1,1.3
			c0.2,1,0.1,2-0.2,2.9c-0.1,0.3-0.1,0.7,0,1c0.2,1.3,0.1,2.6-0.3,3.8c0,0.2,0,0.4,0,0.6c0.1,0.3,0.1,0.7,0.1,1c0,0.7-0.1,1.3-0.1,2
			s-0.2,1.2,0.2,1.8s-0.4,1.2-0.4,1.9c0,0.1,0,0.1,0,0.2c0,0.4-0.1,0.8,0,1.1c0.2,0.5-0.2,0.8-0.1,1.3s-0.1,0.7-0.1,1.1
			c0,0.2,0,0.4,0.1,0.7c0.3,0.8,0.3,1.7,0.1,2.6c0,0.7-0.4,1.3-0.2,2c0.2,0.7,0.2,1.4,0.1,2.1c0,0.1,0,0.1,0,0.2
			c0.3,0.6,0.3,1.4,0,2c-0.1,0.4-0.1,0.8-0.1,1.2c0,0.2,0.1,0.5,0,0.6c-0.3,0.3-0.4,0.8-0.3,1.2c0.2,0.7,0.5,1.3,0.1,2
			c0.3,0.9-0.1,1.8-0.1,2.6s-0.5,1.6,0.2,2.4c0,0.1,0,0.2,0,0.3c-0.4,0.8-0.1,1.7-0.2,2.5c-0.1,0.5-0.3,1.2,0.4,1.6
			c0.1,0,0,0.3,0,0.4s-0.1,0.5,0,0.8c0,0.1,0.1,0.2,0.2,0.2c0.7,0.1,1.4-0.3,1.7-1c0.1-0.5-0.1-1.1,0.4-1.5c0.5-0.4,0.8-1.1,0.7-1.8
			c0-0.5,0.2-0.9,0.4-1.4c0.2-0.4,0.4-0.8,0.5-1.2c0.1-0.6,0.4-1.2,0.8-1.6c0.5-0.6,0.8-1.4,1.3-2.1c0.3-0.3,0.5-0.8,0.3-1.2
			c0-0.1,0.1-0.2,0.2-0.4c0.2-0.4,0.6-0.6,0.9-0.8s0.5-0.4,0.5-0.6c-0.1-0.6,0.3-0.9,0.6-1.2c0.4-0.5,0.8-1,1.1-1.5
			c0.6-0.9,1.5-1.5,2.1-2.3c0.7-0.9,1.6-1.7,2.5-2.4c0.2-0.2,0.4-0.3,0.6-0.5c0.5-0.8,1.2-1.4,2.1-1.8c0.3-0.2,0.7-0.4,0.9-0.7
			c0.2-0.2,0.5-0.3,0.4-0.6s-0.2-0.9-0.3-1.3c0-0.1-0.2-0.1-0.3-0.1c-0.3,0-0.7,0.1-1,0.2c-1.2,0.5-2.5,0.6-3.8,0.5
			c-1,0-2-0.3-2.8-0.9c-0.6-0.3-0.8-1-0.5-1.5c0,0,0,0,0,0c0.1-0.3,0.2-0.5,0.4-0.7c0.6-0.9,1.3-1.7,2.1-2.4
			c0.3-0.3,0.5-0.6,0.7-0.9c0,0,0-0.2-0.1-0.2c-0.3-0.1-0.7-0.1-1-0.2c-1-0.3-1.9-1-2.3-2c-0.4-1.1-0.1-2.3,0.6-3.1
			c0.7-0.8,1.5-1.5,2.4-2c0.6-0.4,0.5-0.4,0.5-1c-0.1-0.9-0.2-1.7-0.1-2.6c0-1.4,0.8-2.7,2-3.5c0.4-0.2,0.8-0.3,1.2-0.5
			s0.8-0.7,1.2-0.7c0.6,0,1.1,0.1,1.6,0.2c0.2,0,0.4,0.1,0.7,0.1c0.5-0.1,1-0.1,1.5-0.1c0.5,0.1,0.9,0.5,1.3,0.7
			c0.5,0.2,1,0.5,1.4,0.9c0.9,0.8,1.8,1.5,2.7,2.3c0.2,0.2,0.5,0.4,0.8,0.6c0.1,0,0.3-0.1,0.4-0.2c0.1-0.1,0.1-0.2,0.1-0.3
			c-0.1-1.6,0.4-3.2,0.1-4.8c0-0.2,0-0.4,0.1-0.7c0.3-0.6,0.3-1.3,0.1-2c0-0.3,0.1-0.7,0-1c-0.1-0.7,0.4-1.3,0.3-1.9
			c0-0.7,0-1.3,0.2-2c0.2-0.9,0.2-1.9,0.1-2.8c-0.1-0.8-0.1-1.6,0.1-2.5c0.1-0.4,0.1-0.9,0.1-1.3c0-0.3,0-0.7,0-1
			c0.1-0.7,0.2-1.3,0.2-2c0-2.1,0.4-4.3,0.4-6.4c0-1.7,0.2-3.3,0.3-5c0-0.4-0.2-0.6-0.6-0.6c-0.5,0-1.1,0-1.7,0
			c-2.4-0.4-4.9-0.7-7.3-0.8c-0.8-0.1-1.6-0.3-2.4-0.5c-0.3-0.1-0.5-0.4-0.4-0.7c0-0.3,0.2-0.4,0.6-0.4l3.6,0.5
			c0.9,0.1,1.9,0.2,2.8,0.3c0.8,0.1,1.5,0.2,2.3,0.1c0.8,0,1.5,0.1,2.2,0.4h0.2c0.3,0.1,0.6-0.1,0.7-0.4
			C140.7,258.2,140.8,257.4,141,256.3L141,256.3z M94.9,341L94.9,341c-0.6-0.1-1.2-0.3-1.8-0.3c-0.4,0-0.9,0-1.3,0.1
			c-0.5,0.1-0.9,0.6-0.8,1.1c0,0.6,0.1,1.1,0.1,1.7c0.2,1-0.1,2,0.3,2.9c0.2,0.5-0.1,1-0.4,1.4c0,0-0.2,0-0.3,0
			c-0.2-0.3-0.4-0.6-0.5-0.9c-0.6-1.7-1.1-3.4-1.7-5c-0.1-0.4-0.3-0.8-0.5-1.2c-0.2-0.4-0.8,0-1.2-0.1c-0.4-0.1-0.9-0.1-1.3,0
			c-0.3,0.1-0.6,0-0.8-0.2c-0.5-0.4-1.2-0.6-1.8-0.5c-0.5-0.1-1.1-0.2-1.6-0.3c-0.4,0-0.8,0-1.1,0.1c-0.1,0.1-0.2,0.2-0.2,0.3
			c-0.1,0.3,0,0.7,0.2,1c0.3,0.4,0.5,0.9,0.3,1.4c-0.2,0.8-0.1,1.7,0.1,2.5c0.1,0.4,0.2,0.7,0.3,1.1c0.2,1.2,0.4,2.3,0.6,3.5
			c0.1,0.3,0.3,0.3,0.5,0.2c1.5-0.3,3-0.5,4.6-0.6c1.2,0,2.3,0,3.5,0c0.6,0.1,1.1,0,1.6-0.2c0.4-0.2,0.9-0.2,1.3,0
			c0.5,0.3,1.2,0.4,1.8,0.2c0.7-0.1,1.3-0.1,2,0c0.7,0.1,1.5-0.3,2.1,0.2c0.1,0,0.2,0,0.3,0c0.5-0.1,1-0.2,1.5-0.1
			c0.5,0,1-0.2,1.4-0.2c1.3,0,2.5,0,3.8,0c0.4-0.1,0.9-0.1,1.3,0c0.5,0.2,1.1,0.1,1.5-0.3c0.6-0.5,1.5-0.5,2.1,0
			c0.5,0.4,1.1,0.6,1.7,0.6c2.4-0.1,4.8,0.3,7.1-0.1c0.4-0.1,0.8-0.1,1.2,0c0.8,0.1,1.5,0,2.2-0.2c0.8-0.2,1.7-0.3,2.6-0.2
			c0.4,0.1,0.9,0.1,1.3-0.1c0.7-0.3,1.3-0.6,2-0.1c0.1,0,0.3-0.1,0.4-0.1s0.3-0.2,0.4-0.2c0.5,0.3,1,0.1,1.5,0.1s1,0,1.5,0
			c0.5-0.5,0.9,0.1,1.3,0.1c0.3,0,0.5-0.1,0.8-0.2c0.4-0.3,0.9-0.4,1.4-0.3c0.8,0.1,1.6,0,2.4-0.2c0.5-0.2,1.1-0.3,1.6-0.1
			c0.3,0.1,0.4-0.1,0.3-0.4c-0.1-0.5-0.1-1,0-1.4c0.2-1.1,0.7-2.2,0.3-3.4c-0.1-0.3,0.2-0.5,0.3-0.7s-0.2-0.9-0.5-0.8
			c-0.5,0.1-1,0.2-1.4,0.4c-0.4,0.2-0.9,0.2-1.3,0.1c-0.3-0.1-0.7-0.1-1-0.2c-0.7-0.3-1.4-0.2-2.1,0.2c-0.6,0.2-1.2,0.4-1.8,0.5
			c-0.8-0.7-1.6-0.3-2.5-0.1c-0.2,0-0.4,0-0.6-0.2c-0.9-0.6-1.9,0.4-2.7-0.3c-0.1-0.1-0.3,0-0.5,0c-0.4,0.2-0.8,0.5-1.2,0.4
			c-0.4-0.1-0.8-0.3-1.2-0.4c-0.4-0.1-0.9,0-1.3,0.2c-0.2,0.1-0.4,0.2-0.6,0.1c-0.5-0.2-1,0.3-1.4-0.2s-0.9,0.2-1.4-0.2
			c-0.5-0.3-1.1-0.3-1.6-0.2c-0.5,0.1-1,0.2-1.5,0.2c-0.5-0.1-1.1,0-1.6,0.2c-0.1,0.1-0.3,0.1-0.5,0c-0.3-0.1-0.5-0.2-0.8-0.3
			c-1.2-0.1-2.5-0.5-3.8,0c-0.2,0.1-0.6,0.1-0.8-0.1c-0.3-0.2-0.7-0.2-0.9,0c-0.4,0.2-0.6,0.5-1.1,0.1c-0.3-0.2-0.8,0.3-1.2-0.2
			c-0.3-0.2-0.7-0.2-1-0.1c-0.7,0.1-1.3,0.1-2,0c-0.7,0.1-1.3,0.2-1.9,0.5c-0.2,0-0.5-0.2-0.8-0.1c-0.8,0-1.5,0-2.3-0.2L94.9,341z
			 M133,338.3l0.7,0.1c0.3,0.1,0.7-0.2,0.7-0.5c0,0,0-0.1,0-0.1c0-0.1-0.1-0.2-0.1-0.3c0.4-0.8,0.1-1.2-0.5-1.7
			c-0.4-0.2-0.8-0.5-1-0.9c-0.2-0.5-0.6-0.9-1.1-1.2c-0.8-0.5-1.4-1.2-1.7-2c-0.2-0.4-0.5-0.8-0.8-1.2c-0.3-0.4-0.7-0.7-0.7-1.3
			c0-0.5-0.4-0.9-0.5-1.4c-0.1-0.4-0.2-0.9-0.4-1.3c-0.1-0.1-0.1-0.3-0.1-0.5c0.1-0.2,0.2-0.4,0.3-0.5c0.1-0.1,0.3-0.1,0.5,0
			c0.5,0.2,0.8,0.6,1,1.1c0.4,0.9,0.9,1.7,1.5,2.4c0.6,0.6,1.1,1.3,1.6,2.1c0.4,0.2,0.8,0.6,1,1c0.8,0,0.7,0.8,1.1,1.1
			c0.2,0.2,0.4,0.4,0.6,0.6s0.5,0,0.6-0.2s0.2-0.3,0.1-0.5c-0.1-1-0.1-2,0-3c0.1-1,0.1-2,0.1-3c0-1.1,0.1-2.1,0.2-3.1
			c0.2-1,0-2.1,0.3-3.1c0.1-0.5,0-1-0.1-1.5c-0.3-1-0.2-2.3-1.8-2.4c0,0,0-0.3,0-0.3c0.4-0.2,0.8-0.4,1.2-0.6
			c0.4-0.1,0.3-0.4,0.2-0.6c-0.1-0.4-0.2-0.7-0.4-1.1c-0.5-0.7-1-1.3-1.5-1.9c-0.5,0.2-1.1,0.5-1.6,0.8c-0.3,0.2-0.7,0.5-1,0.8
			c-0.4,0.3-0.8,0.6-1.2,0.8c-0.5,0.1-1,0.5-1.2,1c-0.3,0.5-0.5,1-1.2,1c-0.2,0.1-0.4,0.2-0.5,0.3c-0.8,0.5-1.5,1.2-2,2
			c-0.3,0.4-0.6,0.8-1.1,1c-0.2,0.1-0.4,0.4-0.4,0.7c0.2,0.6-0.2,0.8-0.6,1.1s-0.8,0.5-1,0.8c-0.3,0.5-0.6,1-1,1.5
			c-0.6,0.9-1.1,1.9-1.6,2.9c-0.6,0.9-1.1,1.9-1.4,2.9c0,0.3-0.2,0.6-0.4,0.8c-0.8,0.8-1.4,1.8-1.6,2.9c-0.1,0.5-0.6,0.8-0.9,1.2
			s-0.1,1-0.5,1.5c-0.8,0.9-0.7,0.9,0.4,1.1c1.2,0.4,2.4,0.4,3.6,0.2c0.1,0,0.2,0.2,0.4,0.2c0.2,0.1,0.5,0.2,0.8,0.2
			c0.4-0.1,0.8-0.2,1.1-0.3c0.5,0,1.1,0,1.6,0.1c0.1,0,0.2,0,0.3,0.1c0.8,0.2,1.6,0.2,2.4,0c0.2,0,0.5,0,0.6,0.1
			c0.6,0.7,1.3,0.5,2,0.2c0.3-0.1,0.6-0.1,0.9-0.1c0.4,0,0.8,0,1.1,0c0.2,0,0.5-0.1,0.6,0c0.6,0.2,1.2,0.2,1.8,0
			C132.6,338.2,132.8,338.3,133,338.3L133,338.3z M137.9,300.3c0.2-0.9,0.3-1.8,0.1-2.8c0-0.3-0.2-0.7-0.5-0.8
			c-0.3-0.1-0.3-0.6-0.6-0.7c-0.3-0.2-0.6-0.4-0.8-0.8c-0.6-1.1-1.7-1.9-3-2.1c-0.2,0-0.4-0.1-0.6-0.2c-0.6-0.3-1.2-0.5-1.9-0.5
			c-0.7-0.2-1.2,0.4-1.9,0.2c-1.4,0.3-2.6,1.3-3.1,2.7c-0.1,0.3-0.1,0.6-0.2,0.9c-0.1,0.3-0.1,0.6,0.1,0.8c0.2,0.3,0.5,0.1,0.7,0
			c0.2-0.1,0.4-0.1,0.6-0.1c0.7,0.1,1.3,0.2,2,0.3c0.6,0.1,1,0.7,0.9,1.3c0,0.2-0.1,0.4-0.3,0.5c-0.3,0.5-0.9,0.7-1.4,0.7
			c-0.3,0-0.6,0-0.8,0c-0.4,0.2-0.9,0-1.2-0.3c-0.6-0.6-1.5-0.7-2.2-0.2c-0.6,0.3-1.1,0.7-1.7,1.1c-0.8,0.9-1.1,2.1-0.9,3.2
			c0.5,1.3,2,2,3.3,1.5c0.2-0.1,0.4-0.2,0.6-0.3c0.7-0.6,1.5-1,2.3-1.2c0.3-0.1,0.8-0.4,1,0.1s-0.2,0.7-0.5,1
			c-0.2,0.2-0.4,0.3-0.6,0.3c-0.6,0.2-1.1,0.4-1.7,0.7c-0.7,0.2-1.4,0.5-1.9,1c-0.7,0.7-1.4,1.3-2,2c-0.5,0.5-0.8,1.1-0.9,1.8
			c-0.1,0.3,0.1,0.7,0.4,0.8c1.2,0.6,2.6,0.9,3.9,0.7c1.4-0.3,2.7-0.7,4-1.2c0.4-0.2,0.7-0.5,1-0.8c0.7-0.9,1.7-1.5,2.5-2.4
			c0.1-0.1,0.3-0.1,0.5-0.2c0.3-0.1,0.6,0,0.7,0.2c0.1,0.2,0.2,0.4,0.3,0.6c0.2,0.3,0,0.7-0.3,0.9c-0.3,0.2-0.5,0.4-0.8,0.6
			c-0.9,0.5-1.7,1.1-2.4,1.8c-0.1,0.1-0.1,0.3-0.1,0.4c0.2,0,0.3,0.1,0.5,0.1c0.2,0,0.3-0.1,0.5-0.2c1.5-0.8,3-1.5,4.5-2.1l0.3-0.1
			c0.7-0.2,1.2-0.9,1.1-1.7c0-0.2,0-0.4,0-0.7c0-1.3,0.1-2.7,0.4-4c0-0.3,0-0.6,0-0.8C137.9,301.5,137.9,300.9,137.9,300.3
			L137.9,300.3z M138.9,301.5c0,0.3,0,0.9,0,1.5c-0.1,1.4-0.2,2.9-0.2,4.3c0,0.4,0,0.9,0.1,1.3c0,0.2,0.2,0.3,0.4,0.3
			c0,0,0.1,0,0.1,0c0.3-0.2,0.6-0.5,1-0.7c0.2-0.1,0.4-0.2,0.6-0.2c0,0.3,0.1,0.6,0,0.8c-0.2,0.5-0.5,0.9-0.9,1.1
			c-0.5,0.2-0.9,0.6-1.3,1c-0.2,0.3-0.1,0.7-0.2,1.1c-0.4,1.2,0.1,2.4,0.1,3.6c0,0.1,0.1,0.2,0.2,0.3c0.5,0.6,0.9,1.2,1.5,1.8
			s0.8,0.6,1.5,0c0.4-0.4,0.7-0.8,1.1-1.2c0.2-0.2,0.3-0.4,0.4-0.5c0.8-0.4,1.7-0.8,2.5-1.2c0.7-0.2,1.3-0.4,2-0.7
			c0.6-0.3,1.5-0.2,1.8-1c0.5-0.1,1-0.2,1.5-0.2c0.2,0,0.4,0.3,0.6,0.5c0.1,0.2,0.2,0.4,0.2,0.6c0,0.9,0,1.9,0.1,2.8
			c0,0.2,0,0.4,0.1,0.7c0,0.1,0.1,0.2,0.1,0.2c0.1,0,0.2,0,0.3-0.1c0.1-0.2,0.3-0.5,0.4-0.7c0.5-1.1,0.8-2.2,1.4-3.2
			c0.8-1.5,1.2-3.1,2.1-4.5c0.1-0.2,0.1-0.4,0.2-0.6c0.1-0.2,0.1-0.5,0.2-0.6c0.8-0.6,0.7-1.6,0.9-2.4c0.2-0.7-0.1-0.9-0.7-1
			c-0.9,0.1-1.9-0.1-2.7-0.4c-0.2-0.1-0.4,0-0.6,0c-1.4,0.1-2.7,0.4-4,1c-1.2,0.4-1.9,1.6-1.5,2.8c0,0.1,0.1,0.2,0.1,0.3
			c0.1,0.2,0.2,0.5,0.1,0.6c-0.2,0.6-0.5,1.2-0.8,1.8c-0.4,0.5-1.1,0.8-1.8,0.8c-1.2,0-2.3,0.3-3.3,0.9c0,0-0.2,0-0.2-0.1
			c0-0.1,0-0.1,0-0.2c1.2-1,2.7-1.7,4.3-2c1-0.2,1.1-0.6,0.4-1.4c-0.7-0.6-0.9-1.6-0.3-2.4c0,0,0.1-0.1,0.1-0.1
			c0.2-0.4,0.5-0.7,0.8-1c0.1-0.2,0.1-0.4-0.1-0.5c0,0,0,0-0.1,0c-0.4-0.1-0.8-0.2-1.2-0.2c-0.7,0-1.4-0.3-1.9-0.8
			c-0.1-0.2-0.3-0.3-0.5-0.4c-1.4-0.1-2.6,0.8-2.9,2.2c0,1,0.4,1.3,1.3,1c0.4-0.1,0.7-0.4,1-0.5c0.2-0.1,0.5-0.2,0.8-0.3
			c0.2,0,0.4,0.1,0.5,0.3c0.1,0.1,0,0.4-0.1,0.5c-0.8,0.6-1.7,1.1-2.6,1.4c-0.1,0-0.1,0-0.2,0c-0.9-0.2-1.7-0.8-2-1.7
			c-0.2-0.7-0.1-1.4,0.3-1.9c0.3-0.4,0.5-0.9,0.7-1.3c0.1-0.1,0.2-0.2,0.3-0.3c0.2-0.1,0.4-0.2,0.5-0.4s-0.1-0.5-0.3-0.7
			c-0.2-0.3-0.4-0.7-0.4-1.1c0-0.3-0.1-0.6-0.2-0.8c-0.2-0.6-1.1-1.4-1.2-1.2c-0.2,0.5-0.3,0.9-0.3,1.4c0,0.1,0,0.2,0.1,0.3
			C139.3,300.5,139.2,301.1,138.9,301.5L138.9,301.5z M94.6,350.6c-0.5-0.1-1-0.1-1.5,0c-1,0.2-2.1,0.3-3.1,0.1
			c-0.8,0-1.5,0-2.3,0.1c-0.9,0.1-1.2,0.4-1.2,1.2c-0.1,1-0.1,2-0.1,3c0,0.2,0,0.4,0.2,0.6c0.7,1.2,1.5,2.3,2.5,3.3
			c0.3,0.3,0.7,0.6,1.1,0.7c0.6,0.2,1.1,0.5,1.7,0.7c0.8,0.3,1.6,0.5,2.3,0.7c0.3,0.1,0.6,0.1,0.8,0c0.8-0.3,1.6-0.4,2.4-0.5
			c1.2-0.2,2.2-0.6,3.2-1.3c0.3-0.3,0.7-0.6,1.1-0.9c0.9-0.5,1.7-1.3,2.5-1.9s1.2-1.8,2-2.6c-0.3-0.7,0.4-0.8,0.6-1.2
			c0.3-0.4,0.5-0.8,0.8-1.2c0.1-0.2-0.1-0.5-0.3-0.5s-0.7,0.1-1,0c-1.1-0.3-2.3-0.3-3.5,0c-0.2,0.1-0.4-0.1-0.6-0.1
			c-1-0.2-2.1-0.2-3.1-0.2C97.5,351,96.1,350.9,94.6,350.6L94.6,350.6z M116.2,255.6c0.7,0.2,1.5,0.2,2.2-0.2
			c0.5-0.2,1.1-0.3,1.6-0.4c0.5-0.1,1.1-0.2,1.6-0.4c0.1-0.1,0.2-0.2,0.3-0.4c0-0.3,0.1-0.7,0.1-1c0.2-0.7,0.2-1.4-0.1-2.1
			c-0.1-0.3-0.4-0.5-0.7-0.4c-0.1,0-0.2,0.1-0.2,0.1c-0.4,0.3-0.6,0.5-1.1,0.2c-0.4-0.1-0.9-0.1-1.3,0.1c-0.9,0.3-1.8,0.2-2.6-0.1
			c-0.3-0.1-0.5-0.1-0.8,0c-0.4,0.3-1,0.3-1.4,0.2c-0.5-0.2-1,0.2-1.5,0.2s-1-0.3-1.5-0.2c-0.5,0.1-1.1,0.2-1.6,0.4
			c-0.2,0.1-0.4,0.2-0.6,0.2c-0.5-0.1-1.1,0-1.6,0.1c-0.5,0.1-1.1,0.1-1.6,0c-0.5-0.1-1.1-0.3-1.6,0.1c-0.2,0.1-0.3,0.1-0.5,0
			c-0.5-0.3-1.1-0.3-1.6,0c-0.3,0.2-0.5,0-0.8-0.1c-0.2-0.1-0.4-0.1-0.6,0c-0.3,0-0.5,0.3-0.4,0.6c0.2,0.6,0.2,1.2,0,1.8
			c-0.1,0.9,0,1.8,0.3,2.6c0.1,0.3,0.3,0.4,0.6,0.3c0.6-0.2,1.2-0.3,1.8-0.3c1.3,0.2,2.7,0.1,3.9-0.3c0.3-0.1,0.5-0.1,0.8,0
			c0.8,0.4,1.8,0.3,2.5-0.2c0.3-0.2,0.7-0.2,0.8-0.7s0.5-0.5,0.8-0.4c0.3,0,0.5,0.3,0.5,0.5c0,0,0,0,0,0c0,0.5,0.3,0.5,0.6,0.5
			s0.7-0.2,1-0.1c0.5,0.3,1.1,0.2,1.4-0.3c0,0,0-0.1,0.1-0.1c0.2-0.3,0.7-0.4,1-0.2C116,255.7,116.1,255.7,116.2,255.6L116.2,255.6z
			 M105.8,273.4c0.5,0.1,1,0.2,1.4,0.2c0.6-0.1,1.3-0.3,1.9-0.6c0.6-0.2,1-0.5,0.8-1.3c0-0.7,0-1.3,0.1-2c0.1-0.4,0.1-0.9,0.1-1.3
			c-0.1-1.1-0.1-2.3,0-3.4c0-1.4,0.1-2.8,0.2-4.1c0-1,0-1.1-0.9-0.8c-0.2,0.1-0.4,0.1-0.6,0.2c-0.9,0.4-2,0.5-3,0.3
			c-0.7,0-1.3,0.1-1.9,0.3c-0.3,0.2-0.6,0.5-0.8,0.8c-0.2,0.4-0.3,0.8-0.3,1.3c0.1,1-0.1,1.9-0.1,2.9c-0.1,0.7-0.1,1.4,0.2,2.1
			c0.1,0.2,0,0.4-0.1,0.6c-0.4,1.2,0.3,2.4,0.3,3.5c0,0.1,0.2,0.2,0.4,0.3s0.5,0.2,0.5,0.4c0.2,0.4,0.5,0.6,0.9,0.6L105.8,273.4z
			 M123.1,351.6v-0.1c-0.6,0-1.2-0.1-1.8-0.1H118c-0.4,0-0.2,0.1-0.2,0.4c0.3,0.7,0.4,1.5,0.5,2.2c0.1,0.8,0.5,1.5,1.2,2
			c0.7,0.5,1.2,1.2,2.2,1.2c0.2,0,0.3,0.2,0.5,0.2c1.1,0.6,2.3,0.7,3.4,0.3c0.2,0,0.4,0,0.7,0c0.3,0,0.7-0.1,1-0.2
			c0.4-0.1,0.8-0.2,1.3-0.4c0.2-0.1,0.4-0.1,0.6-0.3c0.3-0.3,0.6-0.6,0.9-0.9c0.5,0.2,0.8-0.4,1.2-0.5c0.3-0.1,0.6-0.4,0.6-0.7
			c0-0.4,0.3-0.6,0.7-0.5s0.6,0.2,0.9-0.2c0.2-0.2,0.4-0.4,0.7-0.5c1-0.7,1.8-1.6,2.5-2.6c0.1-0.2-0.1-0.3-0.2-0.3
			c-0.4-0.1-0.9-0.1-1.3,0c-1.1,0.2-2.3,0.5-3.4,0.8c-0.2,0.1-0.4,0.1-0.6,0c-0.5-0.3-1.1,0-1.6,0c-0.7,0-1.4,0.1-2.1,0.2
			c-0.2,0.1-0.4,0.1-0.6,0c-0.5-0.2-1-0.2-1.5-0.2H123.1z M85.2,353.2c0-0.5,0-1.1,0-1.7s-0.3-0.7-0.8-0.6c-0.8,0.1-1.7,0.2-2.6,0.2
			c-0.3,0-0.5,0.2-0.4,0.6c0.1,0.6-0.1,1.2-0.5,1.7c-0.4,0.4-0.6,0.8-0.8,1.2c-0.3,0.9-0.7,1.9-1.1,2.8c-0.2,0.5-0.3,1-0.4,1.4
			l-0.5,2.1c-0.1,0.2-0.1,0.4-0.1,0.6c0,0.8-0.3,1.6-0.8,2.3c-0.1,0.2-0.4,0.5-0.4,0.7c0,1.3,0,2.5,0,3.8c0,0.5,0.5,0.7,1,0.5
			c0.2-0.1,0.4-0.2,0.6-0.3c0.3-0.2,0.6-0.5,0.8-0.9c0.4-0.7,0.9-1.4,1.5-2c0.7-0.8,1.2-1.7,1.5-2.8c0.2-0.9,0.5-1.7,1-2.4
			c0.4-0.7,0.6-1.4,0.9-2.1c0.1-0.3,0.1-0.5,0.2-0.8C84.7,356.2,84.6,354.6,85.2,353.2L85.2,353.2z M150.4,296.9L150.4,296.9
			c-0.4-0.1-0.8-0.1-1.3-0.2c-0.5,0-1,0.1-1.5,0.1c-1.7-0.1-2.5,1.2-3.7,2c-0.1,0.1-0.1,0.2-0.2,0.3c0,0.6-0.5,1-0.7,1.5
			c-0.2,0.3-0.1,0.4,0.2,0.6c0.8,0.3,1.6,0.8,2.2,1.4c0.3,0.3,0.6,0.6,1,0.8c0.4,0.2,0.8,0.4,1.2,0.5c0.4,0.2,0.9,0.1,1.2-0.2
			c0.5-0.7,1.4-1.2,2.3-1.2c0.1,0,0.2-0.1,0.3-0.1c0.4-0.3,0.9-0.3,1.3-0.1c0.4,0.1,0.9,0.3,1.3,0.2c0.4-0.1,0.9-0.1,1.2,0.2
			c0.3,0.2,0.7,0.4,1,0.5c0.2,0.1,0.5,0.2,0.8,0.2c0.2,0,0.2-0.5-0.1-0.9c-0.2-0.5-0.5-1-0.9-1.4c-0.4-0.3-0.7-0.5-0.7-1
			c-0.6-0.1-0.8-0.6-1-1c-0.4-0.7-1-1.2-1.8-1.5C151.8,297.3,151.1,297.1,150.4,296.9L150.4,296.9z M143,358.3
			c0.1-0.2,0.1-0.4,0.2-0.6c0-1.3-0.1-2.6-0.3-4c0-0.4-0.2-0.8-0.4-1.1c-0.7-0.9-1.6-1.6-2.5-2.1c-0.5-0.2-0.8-0.1-1.1,0.5
			c-0.5,0.9-0.7,1.9-0.5,2.9c0.2,0.7,0,1.4,0.4,2c-0.3,0.7,0.1,1.4,0,2.1c0,0.5,0,1,0,1.5c-0.1,0.6,0.1,1.1,0.5,1.5
			c0,0-0.1,0.2-0.1,0.4s-0.2,0.3-0.2,0.4c0.1,0.4,0.2,0.8,0.3,1.3s0.5,0.9,0.2,1.4c0,0,0.1,0.2,0.2,0.2c0.5,0.2,0.4,0.6,0.2,1
			c-0.1,0.2-0.1,0.7,0.1,0.8s0.5-0.1,0.7-0.3c0.3-0.3,0.6-0.6,0.9-1c0.8-0.9,1.3-2.1,1.4-3.3c0-0.3,0-0.7,0.2-1
			c0.5-0.6,0.2-1.3,0.2-1.9C143,358.7,142.9,358.4,143,358.3L143,358.3z M111.3,355.4h-0.2c-0.1,0.8-0.1,1.6,0,2.4
			c0.3,1.6,0.3,3.2,0.5,4.9c0.1,0.6,0.1,1.1,1,1.1c0.1,0,0.3,0.4,0.5,0.6c0.2,0.2,0.5,0.3,0.7,0.2c1.3-1.2,2.1-2.9,2.2-4.6
			c0-0.3-0.1-0.7,0.2-0.9s0.4-0.8,0.3-1.2c-0.1-0.5-0.2-1.1-0.1-1.6c0-0.3,0-0.6-0.1-0.8c-0.4-1.4-0.8-2.8-2.2-3.5
			c-0.1-0.1-0.3-0.2-0.4-0.3c-0.4-0.6-0.9-0.5-1.5-0.3s-0.3,0.5-0.4,0.8c0,0.2-0.1,0.3-0.2,0.5c-0.5,0.7-0.6,1.6-0.4,2.4
			C111.2,355,111.2,355.2,111.3,355.4L111.3,355.4z M112.5,266.3c-0.2,1.8-0.2,3.5-0.1,5.3c0,0.3,0.3,0.5,0.5,0.6
			c0.6,0.2,1.2,0.2,1.8-0.2c0.2-0.1,0.4-0.4,0.3-0.5c-0.2-0.6,0.2-1.2,0.2-1.8c0-0.7,0-1.3,0.1-2c0.1-0.4,0-0.8-0.2-1.1
			c-0.3-0.3-0.1-0.6,0.1-0.9c0.1-0.1,0.2-0.2,0.3-0.4c0.1-0.6,0.2-1.2,0.2-1.8c-0.1-0.8,0-1.6,0.3-2.3c0.2-0.5,0.5-1,0.7-1.5
			c0.1-0.2,0-0.4-0.1-0.5c0,0-0.1,0-0.1,0c-0.6-0.1-1.2-0.2-1.8-0.2c-0.2,0-0.3,0.1-0.4,0.2c-0.1,0.6-0.5,0.6-1,0.5
			s-0.8,0.2-0.8,0.7c0,0.9,0,1.8,0.1,2.7c0,0.5,0.3,1,0.1,1.5S112.8,265.8,112.5,266.3L112.5,266.3z M126.5,253.7
			c0.2,0,0.5-0.1,0.8-0.1s0.6,0.3,0.8-0.3c0.1-0.4,0.5,0,0.7-0.1c0.5-0.2,1-0.3,1.5-0.6c0.5-0.2,1.1,0.2,1.5-0.4
			c0.1-0.1,0.4-0.1,0.6-0.1c0.3,0,0.5,0,0.8,0c0.6-0.2,1.2-0.3,1.8-0.2c0.2,0,0.4-0.2,0.5-0.3s-0.1-0.6-0.3-0.7
			c-0.4-0.1-0.7-0.2-1.1-0.2c-0.5,0-1.2,0.3-1.6,0.2c-1-0.4-1.9,0.4-2.9-0.1c-0.2-0.1-0.5,0.3-0.7,0c-0.3-0.3-0.7-0.4-1.1-0.3
			c-0.7,0.1-1.3,0.1-2,0.1c-0.7,0-1.3,0.4-1.5,1c-0.2,0.6-0.4,1.3-0.5,1.9c0,0.2,0.1,0.4,0.2,0.5c0.1,0.1,0.3,0,0.5,0
			c0.2-0.1,0.3-0.2,0.4-0.3c0.1-0.4,0.6-0.6,0.9-0.5c0,0,0.1,0,0.1,0.1L126.5,253.7z M140.3,321.9L140.3,321.9
			c0.1-0.7,0.2-1.4,0.3-2.1c0-0.2-0.1-0.4-0.3-0.5c-0.6-0.4-1.1-0.7-1.7-1c-0.1,0-0.3,0.1-0.3,0.1c-0.1,0.9-0.1,1.7,0.1,2.6
			c0.3,1.1,0.7,2.1,1.2,3.1c0,0.1,0.1,0.2,0.2,0.2c0-0.1,0.1-0.2,0.1-0.2C140.1,323.3,140.2,322.6,140.3,321.9L140.3,321.9z
			 M137.2,312.9c-0.1-0.7-0.1-1.5,0-2.2c0-0.1-0.1-0.2-0.1-0.3c-0.2-0.6-0.5-0.7-1-0.4l-1.2,0.6c-0.4,0.2-0.5,0.6-0.1,0.8
			c0.5,0.3,0.9,0.7,1.2,1.2c0.2,0.3,0.4,0.5,0.7,0.7C136.7,313.5,137.1,313.3,137.2,312.9L137.2,312.9z"/>
		<path d="M153.4,308.8c-0.1-0.6,0.3-1.2,0.8-1.5c0.3-0.2,0.7-0.3,1-0.5s0.5-0.2,0.7,0.1c0.2,0.2,0.1,0.6-0.1,0.8
			c-0.5,0.5-1,1-1.6,1.5c-0.2,0.1-0.5,0.2-0.8,0.1C153.5,309.2,153.5,308.8,153.4,308.8z"/>
	</g>
</g>
</svg>
