<?xml version="1.0" encoding="utf-8"?>
<!-- Generator: Adobe Illustrator 26.5.0, SVG Export Plug-In . SVG Version: 6.00 Build 0)  -->
<svg version="1.1" id="Layer_1" class="landing-svg" xmlns="http://www.w3.org/2000/svg" xmlns:xlink="http://www.w3.org/1999/xlink" x="0px" y="0px"
	 viewBox="0 0 326.1 319" style="enable-background:new 0 0 326.1 319;" xml:space="preserve">
<style type="text/css">
	.st0{fill:#c74249;}
</style>
<g id="CIRCLE">
	<ellipse transform="matrix(0.1602 -0.9871 0.9871 0.1602 87.5568 187.6507)" class="st0" cx="154.1" cy="42.4" rx="41" ry="41"/>
</g>
<g id="DRAW">
	<g id="MsZ0wH">
		<path d="M149.8,307.9c0.3-1.2,0-2.6,0.2-3.9c0.1-0.7-0.2-1.5,0.1-2.2c0,0,0-0.1,0-0.2c-0.8-1,0-2-0.1-3.1c0.4-0.6-0.1-1.3,0.2-2
			c0.1-0.2-0.3-0.6-0.6-0.5c-0.7,0.2-1.5,0.2-2.2,0c-0.5-0.1-1-0.5-1.3,0.3c0,0-0.2,0.1-0.3,0c-0.5-0.5-1.2-0.1-1.7-0.3
			c-0.3-0.2-0.5,0-0.7,0.2s-0.5,0.7-0.8,1c-0.1,0.1-0.1,0.4,0,0.4c0.6,0.7,0.1,1.4,0.2,2.1c0,1.3-0.2,2.6-0.1,3.9
			c0,0.4-0.1,0.7-0.3,1.1c-0.5,0.9-0.9,1.8-1.2,2.8c-0.4,0.9-0.8,1.9-1,2.8c-0.2,0.7-0.7,1.2-1.3,1.5c-0.4,0.2-0.9,0.3-1.3,0.2
			c-0.8-0.2-1.6-0.2-2.3,0c-0.2,0.1-0.4-0.1-0.6-0.1s-0.4-0.1-0.5,0c-0.6,0.7-1.4,0.4-2.1,0.4c-0.7,0.1-1.4,0.1-2.1,0
			c-0.7-0.1-1.4-0.2-2.1-0.1c-0.7,0.1-1.4,0.1-2.1,0c-0.3-0.1-0.6,0-0.8,0.3c-0.2,0.1-0.4,0.1-0.6,0.1c-0.6-0.2-1.3-0.3-2-0.1
			c-0.3,0-0.6,0-0.9-0.1c-0.5-0.2-1-0.3-1.6-0.3l-3.2,0.3c-0.1,0-0.2,0.1-0.3,0.1c-1,0-1.9,0-2.9-0.1c-0.9,0.1-1.8,0.1-2.7,0
			c-1.3-0.4-2.6-0.8-3.9-1.4c-0.7-0.4-1.2-0.9-1.6-1.5c-0.4-0.5-0.8-1-1.3-1.4c-0.6-0.4-1.1-0.9-1.6-1.3c-0.3-0.5-0.7-1.1-1.1-1.5
			c-0.3-0.2,0-0.6-0.1-0.7c-0.5-0.8-0.9-1.7-1.1-2.6c-0.4-0.9-0.9-1.7-1.4-2.5c-0.3-0.4-0.5-0.8-0.5-1.3c0-0.6-0.5-0.9-0.9-1.2
			s-0.6-0.4-0.3-0.9s-0.1-0.6-0.3-0.9c-0.5-0.7-1-1.4-1.4-2.1c-0.1-0.3-0.1-0.6-0.3-0.9c-0.2-0.5-0.4-0.6-1.1-0.5
			c-0.5,0.1-0.9,0.1-1.2-0.4c-0.1-0.1-0.2-0.4-0.2-0.4c-0.9,0-1.6-0.9-2.6-0.6c-0.2,0-0.5-0.1-0.7-0.2c-0.6-0.4-1.3-0.5-2-0.4
			c-0.4,0.1-0.8-0.1-1.1-0.5c-0.3-0.3-0.7-0.4-1.1-0.4c-0.4,0-0.8,0.1-1.1-0.4c-0.1-0.1-0.3-0.1-0.4-0.1c-0.5,0.2-0.8-0.1-1.1-0.4
			c-0.1-0.1-0.4-0.3-0.5-0.3c-0.6,0.2-0.8-0.1-1.2-0.5s-0.9-1.1-1.8-0.6c-0.1,0-0.3-0.1-0.4-0.2c-0.4-0.6-1.1-0.7-1.7-0.4
			c0,0,0,0,0,0c-0.3,0.2-0.5-0.1-0.6-0.5c-0.2-0.7-0.6-1-1.2-0.8c-0.4,0.1-0.6,0.2-0.9-0.1c-0.3-0.5-0.9-0.8-1.5-0.7
			c-0.8-0.4-1.7-0.3-2.5-0.9c-0.6-0.6-1.3-0.9-2.1-1c-0.7-0.5-1.5-0.9-2.3-1.1l-1.8-0.7c-0.3-0.1-0.7-0.1-0.9-0.3
			c-0.6-0.5-1.3-0.7-2.1-0.6c-0.4,0.1-0.8-0.2-1-0.6c-0.1-0.3-0.4-0.6-0.8-0.6c-0.8-0.2-1.5-0.5-2.2-0.9c-0.5-0.2-1-0.3-1.5-0.4
			c-0.6-0.2-1.2,0.6-1.7-0.2c-0.6-0.1-1.1-0.3-1.7-0.4c-0.4-0.1-0.9-0.1-1.1-0.5c-0.1-0.1-0.3-0.2-0.4-0.2c-1,0-2-0.3-2.9-0.8
			c-1-0.5-2.2-0.6-3.3-0.3c-0.5,0.1-0.9,0.1-1.4-0.1c-0.7-0.1-1.4-0.3-2-0.4c-0.2,0-0.4,0-0.5,0c-0.4-0.4-1-0.4-1.4,0
			c-0.1,0.1-0.1,0.1-0.1,0.2c-0.2,0.2-0.4,0.3-0.7,0.1c0,0,0,0,0,0c-0.5-0.5-1.2-0.4-1.8-0.6c-0.3-0.1-0.6,0-0.8,0.3
			c-0.4,0.5-0.5,0.5-1,0c-0.3-0.3-0.5-0.5-1-0.3c-0.1,0.1-0.4,0.1-0.5,0.1c-0.6-0.3-1.3-0.3-1.8,0.2c-0.3,0.2-0.6,0.2-0.9,0.1
			c-0.2-0.1-0.5-0.1-0.8,0.1c-0.3,0.3-0.8,0.3-1.2,0.1c-0.3-0.1-0.6-0.1-0.9,0c-0.2,0.1-0.5,0.1-0.7-0.1c-0.2-0.2-0.5-0.3-0.7-0.2
			c-0.1,0-0.2,0.1-0.3,0.1c-0.5,0-0.9-0.7-1.5-0.3s-1.1,0-1.7,0s-1.1-0.1-1.6-0.1c-1,0.1-2.1,0.1-3.1,0.1c-0.3,0-0.5,0.1-0.8,0.2
			c-0.3,0.3-0.8,0.3-1,0c0,0-0.1-0.1-0.1-0.1c-0.2-0.2-0.5-0.3-0.9-0.3c-0.5,0-1.1-0.1-1.6-0.1c-0.3,0-0.6,0-0.9-0.2
			c-0.4-0.2-0.8-0.3-1.2-0.3c-0.7-0.1-1.3-0.3-2-0.5c-0.7-0.1-1.4,0.3-2-0.2c-0.7,0.1-1.5-0.1-2.2-0.4c-0.4-0.2-0.8-0.2-1.2-0.1
			c-0.6,0.1-1.2,0-1.6-0.4c-0.5-0.3-0.8-0.9-0.6-1.5c0.1-0.3,0.1-0.5,0.2-0.8c0-0.3,0-0.6-0.1-0.9c-0.1-0.4-0.2-0.7-0.3-1
			c-0.7-1.2-0.6-2.7-0.9-4c0-0.1-0.1-0.2,0-0.3c0.6-0.7,0.1-1.4,0-2.1c0-0.4-0.1-0.7-0.1-1.1c0-0.7-0.1-1.4-0.4-2
			c-0.2-0.7-0.3-1.5-0.2-2.2c0.1-0.6,0.1-1.3,0-1.9c-0.2-0.6,0-1.2-0.1-1.9c0-0.7,0-1.3,0.1-2c0-0.3-0.1-0.6-0.2-0.9
			c-0.1-0.2-0.3-0.5-0.3-0.5c0.5-0.3,0-0.8,0.3-1.2c0.2-0.2,0.4-0.5,0.4-0.9c0-1,0-1.9,0-2.8c0-0.3-0.2-0.5-0.4-0.6
			c-0.5-0.1-0.8-0.5-0.9-1c-0.1-0.3-0.2-0.5-0.3-0.7c-0.1-0.5,0.2-1.1,0.7-1.2c0.5-0.1,1.1-0.2,1.5,0.3c0.3,0.3,0.6,0,0.9,0.2
			s0.5,0.4,0.7,0.6c0.1,0.1,0.2,0.1,0.3,0c0.3-0.3,0.8-0.3,1.2-0.1c0.9,0.3,2,0.3,2.9,0c0.9-0.2,1.9-0.3,2.8-0.1
			c0.2,0,0.4,0,0.6-0.1c0.5-0.3,0.9-0.5,1.5-0.6c0.4,0,0.6-0.4,0.7-0.8c0.1-0.3,0.4-0.5,0.7-0.4c0,0,0.1,0,0.1,0
			c0.2,0,0.4,0,0.6-0.2c0.4-0.4,0.9-0.7,1.5-0.9c0.7-0.2,1.2-0.8,1.4-1.4c0.1-0.4,0.4-0.7,0.8-0.9c0.9-0.4,1.6-1.2,1.8-2.2
			c0-0.2,0.2-0.4,0.4-0.4c0,0,0,0,0,0c0.6,0.1,1.1-0.3,1.2-0.9c0,0,0-0.1,0-0.1c0.6-0.6,1.2-1.3,1.7-2c0.2-0.3,0.7-0.5,1-0.8
			s0.6-0.4,0.6-0.7c0.1-0.5,0.2-0.8,0.8-0.9c0.3,0,0.3-0.4,0.2-0.7s-0.2-0.6,0.2-0.7s0.9-0.2,1.1-0.7c0.1-0.4,0.4-0.8,0.1-1.2
			c0-0.1,0.1-0.3,0.2-0.4c0.2-0.2,0.5-0.4,0.8-0.4c0.4,0,0.8-0.3,1-0.8c0.2-0.4,0.4-0.8,0.6-1.1c0.2-0.3,0-0.5-0.1-0.7
			s-0.1-0.4,0.1-0.4c0.8-0.1,1.2-0.4,1.2-1.1c0-0.8,0.3-1.6,0.8-2.2c0.1-0.2,0.2-0.4,0.2-0.6c0.1-0.8,0.4-1.6,0.8-2.4
			c0.2-0.3,0.2-0.6,0.2-0.9c-0.2-0.6,0-1.2,0.4-1.6c0.4-0.4,0.5-1,0.4-1.5c-0.1-0.1,0.1-0.4,0.2-0.6s0.3-0.7,0.2-0.9
			c-0.2-0.5,0.4-0.9,0.3-1.3c-0.1-0.4,0-0.9,0.3-1.2c0.1-0.1,0.1-0.4,0.1-0.5c-0.6-0.6,0.1-1.3-0.1-2c0.3-0.6-0.2-1.3,0.3-1.8
			c-0.2-1.3,0.5-2.6,0.1-3.9c0-0.2,0-0.4,0.1-0.6c0.4-0.7,0.2-1.5,0.5-2.2c0-0.1,0-0.2,0-0.3c-0.2-1.2-0.1-2.5,0.3-3.7
			c0.1-0.4,0.3-0.8-0.1-1.2c-0.2-0.2-0.1-0.4,0-0.5c0.7-0.6,0.5-1.4,0.7-2.2c-0.4-0.4-0.1-0.6,0.1-0.9c0.2-0.4,0.3-0.8,0.1-1.2
			c-0.2-0.4-0.1-1,0.3-1.3c0.3-0.2,0.1-0.5-0.1-0.7c0.8-0.8,0.2-1.8,0.6-2.7c0.1-0.4,0.1-0.8,0-1.2c-0.2-1-0.1-2.1,0.4-3.1
			c0.1-0.3,0.2-0.6,0-0.9c0-0.1,0-0.3,0.1-0.4c0.3-0.1,0.4-0.4,0.4-0.8c0-0.7,0.1-1.4,0.5-2c0.3-0.6,0.4-1.3,0.3-2
			c-0.1-0.5,0-1.1,0.3-1.5c0.3-0.4,0.4-1,0.5-1.5c0-0.3,0.1-0.6,0.3-0.9c0.1-0.2,0.2-0.5,0.3-0.7c0.1-1,0.5-1.9,1.3-2.5
			c0.3-0.3,0.4-0.6,0.3-1c-0.1-0.6,0.6-1.2,0.3-1.8c0-0.1,0.1-0.2,0.1-0.3c0.7-0.7,1.1-1.5,1.3-2.5c0.1-0.5,0.4-1,0.6-1.5
			c0.4-0.4,0.6-0.9,0.6-1.4c0-0.2,0.1-0.3,0.2-0.4c0.6-0.6,1.1-1.3,1.2-2.2c0-0.1,0.2-0.3,0.3-0.3c0.4-0.2,0.4-0.4,0.2-0.8
			s-0.2-0.5,0.3-0.7c0.1-0.1,0.3-0.1,0.4-0.2c0.4-0.7,0.8-1.5,1.2-2.3c0.1-0.4,0.4-0.8,0.8-0.9c0.3-0.1,0.5-0.4,0.6-0.7
			c0.1-0.7,0.5-1.3,1-1.8c0.7-0.8,1.6-1.5,1.6-2.6c0.5-0.6,0.6-1.6,1.5-2c0.3-0.2,0.4-0.5,0.4-0.8c0-0.3,0.2-0.6,0.5-0.8
			c1-0.6,1.7-1.5,2.2-2.5c0.1-0.2,0.2-0.5,0.4-0.7c0.4-0.3,0.8-0.5,1.2-0.8s0.4-0.8,0.8-1.1c1-0.6,1.7-1.6,2-2.8
			c0-0.1,0.2-0.2,0.4-0.2s0.5,0.1,0.6,0c0.4-0.7,1.2-0.9,1.6-1.5c0.8-0.9,1.5-1.8,2.2-2.8c0.1-0.3,0.4-0.5,0.7-0.6
			c0.4-0.1,0.5-0.3,0.2-0.7c0-0.1,0.2-0.4,0.4-0.5c0.5-0.3,1.1-0.5,1.6-0.7c0.4-0.2,0.6-0.4,0.5-0.9c0-0.1,0-0.2,0.1-0.3
			c0.1-0.1,0.3-0.1,0.4-0.2c0.4-0.5,1.1-0.3,1.6-0.7c0.4-0.4,0.8-0.7,1.2-1.1c0.5-0.3,0.9-0.7,1.1-1.3c0.2-0.5,0.5-0.6,0.9-0.8
			c0.6-0.3,1.1-0.6,1.6-1.1c0.1-0.1,0.2-0.4,0.2-0.5c0.1-0.7,0.1-0.7,0.7-0.5c0.1,0,0.2,0,0.3,0.1c0-0.1,0-0.3,0-0.4
			s-0.1-0.1-0.1-0.1s-0.3-0.4,0-0.5s0.3-0.2,0.6-0.1s0.5,0.3,0.5-0.1c0-0.3,0.3-0.6,0.7-0.5c0,0,0,0,0.1,0c1.1,0.3,1.6-0.7,2.4-0.9
			c0.2-0.4,0.4-0.8,0.5-1.1c0-0.1-0.1-0.2-0.2-0.3c-0.7-0.3-0.8-1.1-1.4-1.5c-0.5-0.4-1-1-1.2-1.7c-0.2-0.6-1-0.2-1.2-0.7
			s-0.2-1-0.6-1.1c-0.9-0.1-0.9-1.1-1.5-1.4c-0.4-0.2-0.6-0.7-1.1-1c-0.3-0.2-0.6-0.5-0.9-0.9c-0.4-0.4-0.6-1.1-1.3-1.3
			c-0.2-0.6-0.9-0.7-1.1-1.3c-0.2-0.4-0.5-0.8-0.9-1.1c-0.9,0-1.1-0.9-1.5-1.4c-0.2-0.2-0.4-0.5-0.7-0.7c-1.2-1-2.3-2-3.3-3.2
			c-0.2-0.2-0.4-0.5-0.5-0.8c-0.1-0.2-0.2-0.4-0.3-0.5c-0.4-0.4-0.9-0.6-1.2-1s-0.4-0.8-0.7-1.2c-0.6-0.6-1.1-1.3-1.6-2
			c-0.4-0.8-1-1.5-1.6-2.1c-0.4-0.4-0.4-1,0-1.4c0.1-0.1,0.2-0.1,0.3-0.2c0.6-0.2,1.2-0.4,1.8-0.5c0.8-0.2,1.5-0.5,1.6-1.5
			c0-0.4,0.3-0.5,0.6-0.6c0.9-0.2,1.9-0.4,2.8-0.6c0.2,0,0.4-0.1,0.6-0.3c0.2-0.4,0.6-0.4,1-0.3c0.6,0.1,1.3,0,1.8-0.5
			c0.3-0.4,0.9-0.5,1.3-0.2c0.6,0.3,1.2,0,1.7,0.2c0.1,0,0.3-0.1,0.4-0.2c0.2-0.3,0.6-0.4,0.9-0.3c0,0,0.1,0,0.1,0
			c0.7,0.4,1.5,0.5,2.3,0.2c0.5-0.1,1-0.5,1.4,0.1c1.2-0.1,2.4,0.6,3.6,0.3c0.2,0,0.4-0.1,0.5,0c0.5,0.4,1.1,0.2,1.7,0.2
			s1.1,0.2,1.3,0.8c0.1,0.3,0.4,0.5,0.7,0.6c0.3,0.1,0.5,0.2,0.7,0.4c0.3,0.3,0.7,0.4,1,0.2c0.5-0.1,0.9-0.1,1,0.5
			c0,0.1,0.2,0.1,0.4,0.1s0.5,0,0.5,0.3c0.1,0.9,1,1.1,1.5,1.6c0.1,0,0.2,0,0.3,0c0.6-0.4,0.9,0,1.3,0.4c0.6,0.6,1.1,1.5,1.9,1.9
			c0.3,0.2,0.6,0.2,0.9,0c0.2-0.1,0.4-0.1,0.6-0.1c0.4,0.2,0.7,0.5,1,0.7c0,0,0.1,0.1,0.1,0.1c0.3,0.5,0.2,1.1,1,1.3
			c0.5,0.1,0.8,0.7,1.1,1.2s0.9,0.5,1.3,0.9c0.1,0,0.3-0.1,0.4-0.1c0.3,0,0.5,0.1,0.6,0.4c0,0,0,0,0,0c0,0.2,0,0.3,0,0.5
			c-0.2,0.3-0.1,0.7,0.2,0.9c0.5,0.3,0.8,0.9,0.8,1.5c0,0.5,0.5,0.7,0.8,0.9s0.8,0.6,0.7,1.3c0,0.2,0.1,0.4,0.2,0.6
			c0.6,0.6,0.8,1.4,0.8,2.2c0,0.8,0.3,1.5,0.7,2.1c0.1,0.1,0.4,0.2,0.5,0.3s0.1,0.2,0.1,0.2c-0.6,1,0.2,2.1-0.1,3.1
			c-0.1,0.3,0.2,0.6,0.4,0.8c0.1,0.1,0.1,0.3,0,0.4c-0.7,0.7-0.4,1.5-0.2,2.2c0.2,0.4,0.2,0.9-0.1,1.4c-0.1,0.2-0.2,0.5-0.1,0.8
			c0.2,1.1,0.2,2.2-0.1,3.3c-0.2,1.4-0.4,2.8-0.6,4.3c0,0.4-0.1,0.7-0.2,1.1c0,0.1-0.1,0.2-0.2,0.2c0,0-0.2-0.1-0.2-0.2
			c-0.1-0.7-0.3-1.4-0.4-2c-0.2-1.4-0.4-2.8-0.7-4.2c-0.1-0.3-0.1-0.6-0.1-0.9c0.1-0.2,0.1-0.4,0-0.6c-0.3-0.6-0.4-1.3-0.3-2
			c0-0.6,0-1.3-0.2-1.9c-0.1-0.7-0.3-1.4-0.4-2c0-0.2-0.3-0.3-0.4-0.4c-0.4-0.3-0.5-0.3-0.2-0.7c0.3-0.3,0.3-0.7,0.1-1
			c-0.5-1-1-2-1.3-3.1c-0.2-0.4-0.3-0.6-0.8-0.6c-0.2,0-0.4-0.2-0.4-0.4c-0.2-0.6-0.3-1.2-0.4-1.9c0-0.4-0.2-0.7-0.7-0.7
			c-0.1,0-0.4-0.2-0.5-0.4c-0.1-0.2-0.1-0.4-0.2-0.6c0-0.3-0.3-0.6-0.6-0.7c-0.5-0.1-1-0.5-1.1-1c-0.1-0.2-0.3-0.5-0.4-0.7
			c-0.2-0.5-0.6-0.6-1-0.4c-0.1,0-0.2,0.1-0.3,0c-0.4,0.1-0.7,0-0.7-0.4c0-0.4-0.3-0.7-0.7-0.8c-0.7-0.3-1.3-0.7-1.7-1.4
			c-0.2-0.3-0.5-0.5-0.9-0.7c-0.2-0.2-0.5-0.1-0.7,0.1c0,0,0,0,0,0c-0.2,0.2-0.4,0.1-0.5-0.1c-0.3-0.4-0.5-0.9-0.9-1.3
			s-0.7-1-1.5-0.7c-0.2,0-0.4-0.1-0.6-0.2c-0.3-0.2-0.5-0.4-0.8-0.6c-0.5-0.5-1.1-0.7-1.8-0.7c-0.6,0-1.3-0.2-1.8-0.6
			c-0.4-0.2-0.7-0.6-1.3-0.5c-0.2,0-0.5-0.2-0.6-0.4c-0.3-0.4-0.6-0.6-1.1-0.1c-0.2,0.2-0.5,0.2-0.7,0c0,0,0,0,0,0
			c-0.3-0.3-0.6-0.2-0.9-0.1c-0.9,0.3-1.8,0.3-2.6,0c-0.8,0.1-1.6-0.1-2.3,0.4c-0.2,0.2-0.6,0.2-0.9,0c-0.1-0.1-0.3-0.2-0.4-0.2
			c-0.5,0.3-0.9-0.3-1.4-0.2c-0.3,0-0.5,0.2-0.7,0.3c-0.3,0.4-0.7,0.5-1.1,0.3s-0.9,0.2-1.4,0.2c-0.4-0.1-0.9,0.1-1.1,0.5
			c0,0.1-0.3,0.1-0.4,0.1c-0.2-0.1-0.5-0.2-0.7-0.3c-0.3,0-0.5,0-0.8,0.1c-0.2,0.1-0.3,0.3-0.5,0.4c-0.9,0.7-0.9,0.9-0.1,1.7
			c0.5,0.6,0.9,1.1,1.4,1.8c0.3,0.4,0.7,0.8,1.2,1c0.4,0.3,0.6,0.9,1.2,1c0.4,0.6,0.9,1.1,1.5,1.6c0.7,0.8,1.5,1.5,2.4,2.1
			c0.6,0.4,1,1.1,1.8,1.2c0.1,0,0.2,0.2,0.3,0.3c0.4,0.9,1.1,1.6,2,2c0.3,0.1,0.5,0.4,0.7,0.7s0.2,0.9,0.9,0.7
			c0.1,0,0.2,0.2,0.3,0.4c0.5,0.9,1.2,1.7,2.1,2.4c0.6,0.4,1,1.2,1.6,1.8s0.6,1.1,1.4,1.2c0.1,0,0.2,0.1,0.2,0.2
			c0.4,1,1.2,1.9,2.2,2.4c0.1,0.1,0.2,0.2,0.3,0.4c0.1,0.4,0.3,0.5,0.7,0.6c0.8,0.2,1.2,1,1.9,1.4c0.1,0.1,0.2,0.5,0.2,0.7
			c-0.1,0.4,0.1,0.9,0.4,1.2c0.4,0.5,0.8,1,1,1.6c0.1,0.2,0.2,0.4,0.4,0.4c0.7,0.2,0.9,0.7,1.2,1.2c0.2,0.4,0.4,0.7,0.7,1.1
			c0.2,0.3,0.4,0.6,0.8,0.8c0.1,0,0.3,0.2,0.2,0.3c-0.2,0.5,0.1,0.8,0.4,1.2c0.3,0.5,0.7,1.1,1,1.6c0.2,0.3,0.1,0.7-0.3,0.9
			c-0.3,0.2-0.7,0.2-1-0.1c0,0,0,0,0,0c-0.8-0.9-1.9-1.5-2.5-2.5c-0.1-0.1-0.1-0.2-0.2-0.2c-0.8-0.4-1.5-1.1-1.8-2
			c-0.5-0.9-1.4-1.3-1.9-2.1c-0.2-0.2-0.5-0.3-0.7-0.2c-0.5,0-1.1,0.2-1.5,0.5c-0.3,0.4-1,0.3-1.4,0.8c-0.7,0.1-1,0.7-1.3,1.3
			c-0.1,0.3-0.4,0.5-0.7,0.5c-0.4,0-0.7,0.2-1,0.4c-0.4,0.4-0.8,0.9-1.4,0.9c-0.1,0-0.2,0.2-0.3,0.3s-0.5,0.6-0.8,0.7
			c-1.2,0.5-2.2,1.3-3,2.2c-0.3,0.2,0,0.4,0,0.5c0.1,0.2,0.1,0.4-0.1,0.5c0,0-0.1,0-0.1,0c0,0-0.1,0-0.1,0c-0.5,0.1-1,0.3-1.5,0.6
			c-0.3,0.3-0.6,0.7-0.8,1.2c-0.2,0.4-0.5,0.7-0.9,0.8c-1,0.4-1.5,1.4-2.3,1.9c-0.1,0.1-0.1,0.2-0.1,0.3c0,0.4-0.2,0.5-0.5,0.6
			c-0.5,0.1-1,0.5-0.8,1.1c0,0.2-0.1,0.4-0.3,0.4c0,0-0.1,0-0.1,0c-0.6-0.1-0.8,0.5-1.2,0.7c-0.4,0.1-0.7,0.5-0.9,0.9
			c-0.1,0.2-0.2,0.4-0.4,0.5c-0.6,0.3-1,0.8-1.2,1.5c-0.2,0.7-0.9,1-1.2,1.6c-0.7,0.1-1.2,0.7-1.2,1.4c0,0.2-0.2,0.3-0.5,0.3
			s-0.6,0.1-0.6,0.5c0,0.3-0.2,0.6-0.5,0.8c-0.4,0.3-0.8,0.6-1.1,0.9c-0.4,0.3-0.7,0.8-0.7,1.4c0,0.4-0.2,0.5-0.5,0.7
			c-0.8,0.5-1.5,1.2-1.8,2.1c-0.3,0.6-0.6,1.1-0.9,1.7c-0.1,0.2-0.3,0.3-0.5,0.4c-0.8,0.3-0.9,0.4-0.7,1.1c0.1,0.3,0.1,0.5-0.1,0.8
			c-0.6,0.6-1.1,1.3-1.6,2c-0.1,0.2-0.2,0.4-0.2,0.6c0,0.6-0.4,1.1-0.9,1.4c-0.2,0.1-0.3,0.3-0.4,0.5c-0.3,0.8-0.5,1.7-0.9,2.6
			c-0.2,0.4-0.4,0.7-0.7,1.1c-0.5,0.4-0.7,1-0.8,1.7c0,0.5-0.6,0.8-0.6,1.5c0,0.4-0.3,0.8-0.6,1.2s-0.6,0.7-0.2,1.1
			c0,0-0.1,0.2-0.1,0.3c-0.6,0.2-0.5,0.7-0.7,1.1s-0.3,0.7-0.4,1c-0.1,0.3-0.1,0.6,0,0.9c0,0.4-0.1,0.7-0.4,1
			c-0.3,0.3-0.5,0.7-0.3,1.1c0.1,0.1,0,0.3-0.1,0.4c-0.3,0.5-0.4,1-0.3,1.5c0.1,0.6-0.7,0.8-0.8,1.3c-0.1,0.2-0.1,0.4-0.2,0.6
			c-0.3,0.6,0,1.3-0.2,1.9c-0.2,0.5-0.4,1.1-0.5,1.6c-0.1,0.9-0.4,1.9-0.5,2.8c0,0.2-0.1,0.4-0.1,0.6c0.1,0.3,0.1,0.6-0.2,0.9
			c-0.4,0.4-0.6,1-0.6,1.6c0,0.3,0,0.5-0.1,0.8c-0.3,0.9-0.3,1.8,0.1,2.6c0.1,0.1,0.1,0.3,0,0.5c-0.4,0.4-0.6,1-0.5,1.5
			c-0.6,0.4-0.3,1-0.4,1.5c0.1,0.7-0.1,1.5-0.5,2.2c-0.1,0.1-0.1,0.3-0.1,0.5c0.1,1.2-0.2,2.4-0.8,3.5c-0.1,0.2-0.1,0.5-0.1,0.8
			c0.2,0.6,0.3,1.2,0.3,1.9c-0.1,0.6-0.1,1.3,0,1.9c-0.7,0.6-0.1,1.4-0.2,2c0,0.5-0.1,1.1-0.2,1.6c-0.3,0.6-0.3,1.3,0.2,1.8
			c0.3,0.3,0.1,0.8-0.2,1.2c-0.4,0.4-0.4,1.1,0,1.5c0,0,0,0,0.1,0.1c0.2,0.3,0.2,0.7,0,1c-0.1,0.1-0.3,0.2-0.3,0.3
			c-0.3,0.9-0.9,1.7-0.7,2.7c0.1,0.5,0.1,1.1-0.1,1.5c-0.3,0.5-0.2,1.1-0.5,1.5s0.2,0.9-0.2,1.2s-0.4,0.7-0.6,1.1s-0.3,0.5-0.3,0.7
			c0.1,0.7-0.3,1.3-0.8,1.7c-0.1,0.1-0.2,0.4-0.3,0.6c-0.4,1-0.7,2-1.1,3c-0.2,0.4-0.1,1.1-0.8,1.2c-0.3,0.4-0.5,0.9-0.7,1.4
			c-0.1,0.3,0.2,0.7,0.3,1c0,0.2,0,0.4-0.2,0.6c-0.3,0.3-0.7,0.6-1.1,0.9c-0.6,0.3-1,0.8-1.3,1.3c-0.1,0.2-0.2,0.3-0.3,0.4
			c-0.7,0.2-0.9,0.9-1.1,1.5s-0.2,1.4-1.1,1.6c-0.1,0.6-0.9,0.9-1,1.6c0,0.2-0.2,0.3-0.5,0.3s-0.5-0.1-0.6,0
			c-0.2,0.2-0.4,0.5-0.4,0.8c0,0.4-0.1,0.8-0.5,1.1c-0.5,0.5-1.3,0.9-1.6,1.7c-0.1,0.3-0.6,0.4-1,0.5s-0.3,0.4-0.2,0.7
			c0,0.1-0.2,0.3-0.2,0.3c-0.7-0.3-1,0.3-1.3,0.6c-1,0.8-1.1,1-0.5,2.3c0.1,0.2,0.1,0.4,0,0.6c-0.3,0.6-0.3,1.4,0,2
			c0.1,0.4,0.1,0.7,0,1.1c-0.2,0.5-0.2,1.1,0.1,1.7c0.1,0.1,0,0.4,0,0.6c-0.1,0.5-0.1,1.1,0,1.6c0.1,0.4,0.3,0.8-0.1,1.1
			c0,0.3,0.1,0.7,0.2,1c0.1,0.2,0.2,0.5,0.2,0.7c-0.2,1.2-0.4,2.4-0.5,3.6c0,0.3,0.1,0.5,0.1,0.8c0,0.3,0.1,0.6,0,0.8
			c-0.3,0.7,0.1,1.3-0.2,2c-0.2,0.7-0.3,1.3-0.2,2c0,0.2,0,0.4,0.1,0.6c0.2,0.8,0.2,1.6,0,2.4c-0.3,0.7-0.3,1.5,0,2.2
			c0.1,0.2,0,0.4,0,0.6c-0.1,0.5-0.2,0.9-0.3,1.4c-0.2,1-0.2,1.1,0.7,1.3c0.5,0.2,1,0.3,1.6,0.3c0.6,0,1.2,0.1,1.8,0.1
			c0.3,0.1,0.5,0.1,0.8,0c0.4-0.1,0.7-0.5,1.1-0.6s0.5,0.5,1,0.2c0.2-0.1,0.4-0.1,0.6-0.1c0.4,0.2,0.8,0.2,1.2,0.1
			c0.4,0,0.8,0.1,1.2,0.3c0.3,0.1,0.4-0.1,0.5-0.3c0.1-0.4,0.4-0.5,0.8-0.2c0.3,0.3,0.7,0.3,1,0.1c0.2-0.1,0.5-0.2,0.8-0.3
			c0.3-0.1,0.5,0,0.7,0.3c0.2,0.2,0.3,0.2,0.5,0c0.2-0.3,0.6-0.5,1-0.3c0,0,0.1,0.1,0.1,0.1c0.2,0.2,0.4,0.5,0.8,0.4
			c0.2-0.1,0.4-0.3,0.6-0.5c0.3-0.2,0.4-0.2,0.6,0.1s0.5,0.5,0.9,0.2s0.5-0.1,0.7,0s0.5,0.4,0.8,0.6s0.4,0.3,0.6,0.3
			c0.7-0.1,1.3-0.1,2,0c0.9-0.1,1.9-0.2,2.8-0.2c0.2,0,0.4-0.1,0.6-0.2s0.5,0,0.6,0.1c0.7,0.7,1.7,0.5,2.5,0.8
			c0.3,0.1,0.6,0.2,0.9,0.3c0.2,0.1,0.5,0.2,0.6,0.1c0.7-0.4,1.2-0.1,1.8,0.2c0.4,0.1,0.7,0.2,1.1,0.3c0.3,0,0.5,0.1,0.7,0.2
			c0.2,0.2,0.6,0.2,0.9,0.1c0.3-0.1,0.7-0.2,1.1-0.2c0.1,0,0.3,0.2,0.3,0.3s0.2,0.5,0.5,0.4c0.8,0.4,1.7,0.7,2.7,0.8
			c0.3,0.1,0.5,0.2,0.7,0.3c0.5,0.3,1,0.5,1.6,0.7c0.5,0.3,1,0.5,1.6,0.6c0.2,0,0.4,0.1,0.6,0.3c0.3,0.2,0.5,0.1,0.7-0.1
			c0.1-0.1,0.3-0.2,0.4-0.1c0.1,0,0.1,0.1,0.1,0.2c0.1,0.3,0.4,0.6,0.7,0.7c0.6,0.2,1.2,0.5,1.7,0.9c0.2,0.3,0.5,0,0.7,0.1
			s0.5,0.3,0.7,0.3c0.8,0.1,1.6,0.4,2.2,0.9c0.6,0.6,1.5,0.9,2.3,0.8c0.4,0,0.7,0,1.1,0.1c0.6,0,1,0.3,1.2,0.9
			c0.1,0.4,0.3,0.6,0.6,0.5c0.6-0.1,1.2,0.1,1.6,0.5c0.5,0.3,1,0.6,1.6,0.7c0,0,0.1,0,0.1,0c0.4-0.1,0.9-0.7,1.3-0.2
			c0.3,0.3,0.7,0.5,1.1,0.3c0.2,0,0.3,0.1,0.4,0.2c0.5,0.6,1.2,1,2,1.2c0.1,0,0.2,0,0.3,0.1c0.6,0.5,1.3,0.7,2.1,0.5
			c0.2,0,0.4,0,0.6,0.1c0.6,0.8,1.6,0.5,2.3,1c0.3-0.3,0.7-0.3,1,0c0.1,0.1,0.1,0.1,0.2,0.2c0,0.1,0.3,0,0.4,0
			c0.7-0.2,0.7-0.2,0.9,0.4c0.1,0.3,0.2,0.6,0.6,0.7l2,0.7c0.3,0.2,0.8,0.1,1.1-0.1c0.6-0.4,1.5-0.3,2,0.3c0.2,0.3,0.6,0.3,0.8,0.1
			c0,0,0,0,0,0c0.3-0.2,0.6-0.2,0.8,0.1c0,0,0,0,0,0c0.6,0.6,1.4,1,2.2,1.1c0.5,0.1,1,0.2,1.5,0.4c0.5,0.2,1.1,0,1.4,0.6
			c-0.4,0.3-0.9,0.6-1.3,0.8c-0.5,0.2-1,0.3-1.5,0.4c-0.4,0.1-0.7,0.5-0.5,0.8c0.2,0.9,0.6,1.8,1.1,2.6c0.4,0.6,0.8,1.1,1.1,1.8
			c0.2,0.3,0.4,0.7,0.6,0.9c0.4,0.3,0.6,0.8,0.5,1.2c0,0.4,0,0.8,0.4,1c0.7,0.3,0.5,0.8,0.5,1.3c-0.1,0.5,0.1,1,0.4,1.3
			c0.1,0.1,0.1,0.4,0.2,0.6c0,0.3,0.1,0.6,0.3,0.9c0.3,0.4,0.5,0.9,0.6,1.4c0,0.4,0.2,0.7,0.5,1c0.6,0.6,1,1.2,1.3,2
			c0.2,0.7,0.8,1.1,1.6,1.2c0.5,0.1,1,0.3,1.5,0.5c0.5,0.2,1,0.3,1.5,0.3c0.8,0.1,1.6-0.1,2.3-0.4c0,0,0.1,0,0.2,0l4-0.5
			c0.2-0.1,0.4-0.1,0.6,0c0.3,0.2,0.6,0.5,0.9,0.3c0.6-0.3,1.3,0.1,1.9-0.3c0.6-0.3,1.2-0.4,1.8-0.2c0.8,0.2,1.7,0.3,2.5,0.3
			c0.3,0,0.6-0.1,0.8-0.5c0-0.1,0.1-0.2,0.2-0.2c0.3-0.1,0.6,0.5,1,0c0.2-0.3,0.6-0.1,0.8,0.2c0.1,0.1,0.2,0.2,0.2,0.2
			c0.9-0.4,1.7,0.3,2.6-0.1c0.9-0.3,1.8-0.3,2.7,0.2c0.8,0.3,1.7,0.3,2.5,0c0.4-0.5,0.9-0.3,1.4-0.2c0.7,0.1,1.4-0.2,1.7-0.9
			c0.3-0.7,0.4-1.6,0.3-2.3c-0.2-0.9-0.2-1.9-0.1-2.8c0.1-0.9,0.2-1.8,0.2-2.7c0-0.3-0.1-0.7-0.4-0.8c-0.6-0.3-0.3-0.5,0-0.8
			c0.1-0.1,0.2-0.2,0.2-0.4c-0.1-0.6-0.5-1.2-1-1.5c-0.7-0.3-1.6-0.4-2.3-0.3c-0.4,0.1-0.9,0-1.1-0.3c-0.5-0.4-1.2-0.5-1.8-0.2
			c-0.3,0.1-0.6,0.1-0.9,0c-0.4-0.2-0.8-0.3-1.2-0.4c-1-0.2-2-0.3-3-0.5c-0.1,0-0.4-0.1-0.5,0c-0.5,0.4-0.8,0.3-1.2-0.1
			c-0.4-0.3-0.9-0.5-1.4-0.7c-0.1-0.1-0.4,0.1-0.6,0.1s-0.5,0-0.4-0.2c0.2-0.3,0.2-0.7,0-1c0,0,0-0.2,0.1-0.3
			c0.3-1.7,0.7-1.8,2.1-1.5c1,0.2,2.1,0.5,3.1,0.6c0.6,0.2,1.2,0.2,1.7,0c0.5-0.3,1.1-0.2,1.5,0.2c0.4,0.3,0.9,0.4,1.4,0.3
			c0.2,0,0.4,0,0.6,0.1c0.4,0.3,1,0.3,1.4,0c0.4-0.3,0.8-0.2,1.2-0.4c0.3-0.2,0.7-0.1,1,0.1c0.6,0.5,1.5,0.4,2-0.2
			c0.1-0.2,0.4-0.2,0.6-0.2c0.5,0.1,1.1,0,1.5,0.4s0.6,0.2,0.8-0.1c0.2-0.2,0.5-0.4,0.8-0.4c0.7-0.1,1.5-0.3,2.2-0.4
			c0.6,0,1.3,0,1.8,0.2c0.2,0,0.3,0.2,0.4,0.1c0.7-0.3,1.5,0.2,2.2-0.1c0.3-0.1,0.6-0.3,0.8-0.5c0.1-0.1,0.3-0.1,0.4,0
			c0.4,0.4,1.1,0.5,1.6,0c0,0,0.1-0.1,0.1-0.1c0.3-0.3,0.4-0.5,0.9-0.3c0.4,0.1,0.8,0.2,1.2,0.3c0.3,0.1,0.5,0,0.7-0.2
			c0.5-0.3,1-0.5,1.6-0.5c0.4,0,0.8,0.1,1.2,0.4c0.4,0.3,0.9,0.3,1.4,0.1c0.4-0.3,0.9-0.3,1.4-0.2c0.2,0,0.3,0,0.4-0.1
			c0.4-0.5,0.8-0.5,1.2,0c0.2,0.1,0.4,0.1,0.6,0.1c1-0.5,2-0.7,3.1-0.5c0.3,0,0.6-0.1,0.8-0.3c0.4-0.5,1.1-0.5,1.6-0.1c0,0,0,0,0,0
			c0.1,0.1,0.3,0,0.5,0c0.6,0,1.1-0.3,1.7-0.2c0.5,0.1,1.1,0.1,1.6,0c0.3,0,0.5-0.1,0.8-0.2c0.1,0,0.3,0,0.5,0
			c0.7,0.2,1.5,0.3,2.2,0.3c0.1,0,0.2,0.1,0.2,0.1c0,0.1,0,0.2-0.1,0.3c-0.7,0.6-1.3,1.2-2,1.8c-0.3,0.2-0.5,0.3-0.8,0.4
			c-0.2,0.1-0.5,0.2-0.8,0.3c-0.6,0.4-1.3,0.8-2,1.1c-0.7,0.1-1.3,0.1-2,0.1c-0.5,0-0.9,0.2-1.2,0.6c-0.4,0.5-1,0.6-1.6,0.4
			c-0.9-0.4-1.8,0-2.7-0.2c-0.1,0.1-0.1,0.2-0.2,0.3c-0.1,0.4-0.3,0.5-0.5,0.4c-0.1-0.1-0.3-0.1-0.4-0.2c-0.3-0.3-0.8-0.3-1.2,0
			c-0.3,0.3-0.6,0.4-1,0.3c-0.3,0-0.5,0.1-0.7,0.2c-0.4,0.3-1.1,0.3-1.4-0.2c0,0,0,0,0,0c-0.2-0.2-0.4-0.2-0.6,0c0,0,0,0,0,0
			c0,0-0.1,0.1-0.1,0.1c-0.6,0.9-1.8,1.3-2.7,0.7c0,0,0,0-0.1,0c-0.4-0.1-0.8,0.1-1,0.4c-0.2,0.9-0.5,1.9,0.2,2.7
			c0.2,0.2,0.2,0.5,0.1,0.8c-0.2,0.7-0.4,1.3-0.6,2c-0.2,0.4-0.2,1,0.1,1.4c0.3,0.4,0.3,0.9,0,1.3c-0.2,0.2-0.3,0.5-0.2,0.8
			c0.2,0.7-0.2,1.5,0,2.2c0,0.1,0.2,0.4,0.3,0.3c0.5-0.1,0.8,0.4,1.2,0.4c0.7-0.1,1.1,0.5,1.7,0.4c0.6,0,1.2,0,1.7,0.1
			c0.6,0.1,1.2-0.1,1.6-0.6c0.3-0.4,0.5-0.3,0.8,0c0.4,0.3,0.9,0.4,1.3,0.3c0.6-0.3,1.2,0.2,1.7-0.2c0,0,0.2,0,0.3,0.1
			c0.3,0.3,0.6,0.2,0.8-0.1c0.3-0.4,0.8-0.5,1.1-0.2c0.5,0.4,1.3,0.3,1.8-0.1c0.1-0.1,0.2-0.1,0.3-0.1c0.6,0.3,1.4,0.3,2,0
			c1.7-0.4,3.5-0.4,5.2-0.1c0.3,0,0.6,0,0.9-0.1c0.6-0.2,1.2-0.4,1.7,0.2c0,0,0.1,0.1,0.1,0.1c0.1,0,0.2,0.1,0.3,0
			c0.7-0.5,1.4,0.3,2-0.1c0.8-0.3,1.7-0.4,2.6-0.3c0.6,0,1,0.1,1.5-0.4c0.3-0.3,0.8-0.3,1.1-0.1c0,0,0,0,0.1,0.1
			c0.3,0.2,0.6,0.2,0.9,0.2c1.1-0.1,2.1-0.2,3.2-0.3c0.2,0,0.4-0.1,0.6-0.1c0.4-0.1,0.7-0.4,0.8-0.8c0-0.2,0.1-0.3,0.1-0.5
			c0.3-0.6,0-1.4,0.4-2c0.3-0.6,0.6-1.2,0.8-1.8c0.1-0.2,0.2-0.5,0.4-0.7c0.6-0.7,1-1.6,1.2-2.6c0-0.2,0.3-0.3,0.4-0.5
			s0.3-0.3,0.2-0.4c-0.3-0.6,0.1-0.9,0.5-1.2c0.4-0.4,0.7-0.8,0.8-1.4c0.1-0.3,0.4-0.6,0.3-0.9s-0.5-0.4-0.7-0.5
			c-0.4-0.2-0.6-0.6-0.4-1c0-0.1,0.1-0.1,0.1-0.2c0.5-0.8,1.2-1.4,2.1-1.6c0.2-0.1,0.5-0.2,0.7-0.4c0.3-0.2,0.6-0.6,0.9-0.6
			c1,0,1.5-0.7,2.3-1c1.1-0.4,2.2-0.8,3.3-1.3c0.3-0.1,0.6-0.3,0.8-0.5c0.4-0.4,0.8-0.7,1.3-1c0.4-0.2,0.8-0.3,1.2-0.5
			s1.1-0.5,1.1-1.2c0-0.1,0.2-0.3,0.3-0.3c0.9,0.2,1.3-0.7,2-0.8c0.2,0,0.3-0.3,0.4-0.4c0.5-0.4,0.7-1.4,1.6-1.3
			c0,0,0.1-0.1,0.1-0.1c-0.2-0.9,0.4-0.8,1-0.8c1,0,2-0.7,2.4-1.6c0.2-0.3,0.2-0.6,0.6-0.7c0.5-0.1,0.9-0.4,1.2-0.8
			c0.4-0.6,1-0.9,1.7-1.1c0.5,0,0.9-0.4,0.9-0.9c0,0,0,0,0-0.1c0-0.2,0.2-0.3,0.5-0.3s0.5,0.1,0.5-0.2c0-0.6,0-1.1,0.9-0.9
			c0,0,0.1,0,0.2,0c0.5-0.5,1.1-1,1.7-1.4c0.4-0.4,0.8-0.8,1.2-1.3c0.2-0.2,0.2-0.5,0.2-0.7c0-0.9,0.5-1.6,1.3-2
			c0.2-0.1,0.3,0.1,0.2,0.3s-0.1,0.5,0.2,0.4c0.6-0.1,1-0.6,1.2-1.1c0.1-1,1-1.8,2-1.7c0.3,0,0.4-0.2,0.6-0.5
			c0.4-0.6,0.8-1.1,1.3-1.7c0.2-0.2,0.4-0.3,0.7-0.3c0.6-0.1,0.8-0.5,0.9-1.1c0-0.8,0-0.8,0.7-1.1c0.1,0,0.2,0,0.3-0.1
			c0.2-0.1,0.4-0.2,0.3-0.6c-0.1-0.5,0.1-1,0.6-1.2c0.6-0.4,1.1-0.9,1.4-1.5c0.3-0.4,0.6-0.8,1-1.2c0.5-0.3,0.8-0.8,1.1-1.3
			c0.4-0.7,0.8-1.3,1.3-1.8c0.7-0.8,1.3-1.6,1.9-2.3c0.3-0.4,0.6-0.8,1-1.2c0.3-0.3,0.7-0.5,1.2-0.4c0.3,0.1,0.4-0.1,0.2-0.3
			s-0.3-0.3-0.2-0.5s0.2-0.7,0.4-1c1.1-2,2.2-4,3.5-6c0.2-0.2,0.3-0.4,0.4-0.7c0.4-1.2,1-2.4,1.6-3.5c0.5-0.9,0.9-1.8,1.2-2.8
			c0.2-0.6,0.4-1.2,0.8-1.7c0.5-0.8,0.9-1.6,1.2-2.4c0.8-1.7,1.7-3.5,2.5-5.2c0.2-1.6,1.3-2.8,1.6-4.3c0.2-0.4,0.3-0.9,0.3-1.4
			c0-0.2,0-0.3,0.1-0.5c0.8-2.3,1.3-4.7,2.1-7c0.1-0.3,0.2-0.6,0.2-0.9c0.1-1.5,0.5-3.1,1.1-4.5c0.8-2,1.2-4.2,1.1-6.4
			c0-0.4,0.1-0.7,0.4-1c0.2-0.2,0.6-0.1,0.5-0.5c0-0.2-0.3-0.3-0.4-0.5c-0.2-0.2-0.2-0.4,0-0.6c0,0,0.1,0,0.1-0.1
			c0.2-0.1,0.4-0.2,0.5-0.3c0.3-0.2,0.6-0.5,0.6-0.9c0-0.1,0-0.1,0-0.2c0-0.6,0-1.2-0.1-1.7c0-0.5,0.5-1,0.6-1.5
			c0.2-0.7,0.1-1.4-0.2-2c-0.2-0.2-0.2-0.6,0-0.9c0.5-0.5,0.5-1.2,0.2-1.8c-0.2-0.6-0.2-1.1-0.2-1.7c0.1-0.9,0.1-1.8,0-2.7
			c-0.1-0.2-0.1-0.3,0-0.5c0.7-0.9,0.2-1.7-0.2-2.5c-0.2-0.4-0.2-0.8-0.2-1.2c0-0.4-0.2-0.9-0.2-1.4s0.3-0.9,0.1-1.4
			c-0.1-0.3-0.3-0.6-0.4-0.9s-0.1-0.6-0.2-0.9s-0.2-0.4-0.2-0.6c0-1.6-0.5-3.2-1.2-4.6c-0.1-0.2-0.1-0.5,0-0.8
			c0.1-0.2,0.1-0.5-0.1-0.7c-0.3-0.6-0.2-0.6,0.5-0.9c0.4-0.1,0.5-0.3,0.3-0.6c-0.2-0.2-0.3-0.4-0.3-0.7c-0.2-1.1-0.5-2.2-0.8-3.2
			c-0.1-0.4-0.4-0.8,0-1.2c0.1-0.1,0-0.3,0-0.4c0-0.2-0.1-0.4-0.3-0.6c-0.9-0.7-0.8-1.8-0.7-2.7c0.1-0.6,0-1.3-0.2-1.8
			c-0.3-0.4-0.3-1-0.1-1.5c0.2-0.4,0.2-0.8-0.1-1.2c-0.4-0.7-0.8-1.4-1.3-2c-0.3-0.3-0.3-0.7,0-0.9c0,0,0,0,0.1-0.1
			c0.5-0.3,0.5-0.5,0.2-0.9c-0.3-0.4-0.5-0.8-0.9-1.2c-0.2-0.1-0.4-0.2-0.5-0.2c-0.2,0-0.5,0-0.5-0.1c-0.1-0.3-0.1-0.5,0-0.8
			c0.1-0.3,0.7-0.5,0.5-0.9s-0.3-0.7-0.5-1s-0.6-0.8-0.4-1.3c0-0.1-0.2-0.4-0.3-0.5c-0.3-0.3-0.5-0.7-0.3-1.1
			c0.1-0.6-0.1-1.2-0.5-1.6c-0.8-0.9-1.4-1.9-1.9-2.9c-0.1-0.2-0.3-0.2-0.5-0.3c-0.4-0.1-0.5-0.4-0.3-0.7c0.1-0.1,0.1-0.2,0.2-0.3
			c0.3-0.6,0.2-1.3-0.3-1.7c-0.3-0.3-0.6-0.5-0.9-0.6c-0.3-0.1-0.5-0.4-0.5-0.8c0-0.8-0.3-1.6-0.8-2.2c-0.1-0.2-0.2-0.4-0.2-0.6
			c-0.3-0.9-0.7-1.7-1.3-2.3c-0.3-0.3-0.6-0.5-0.6-0.9c0-0.4-0.3-0.7-0.7-0.7c0,0-0.1,0-0.1,0c-0.2,0-0.3-0.2-0.4-0.4
			c-0.2-0.9-0.2-0.9-1-0.9c-0.5,0-0.9-0.1-1-0.5s-0.2-0.8-0.1-1.1c0.4-0.5,0.1-0.6-0.3-0.8c-0.1,0-0.2-0.1-0.2-0.2
			c0-0.6-0.4-1.1-1-1.1c0,0,0,0,0,0c-0.2-0.9-1.1-1.3-1.5-2c-0.1-0.2,0-0.5-0.1-0.8c-0.2-0.5-0.6-1-1.1-1.3c-0.7-0.5-1.5-1-2.2-1.6
			c-0.6-0.6-1.4-0.9-2-1.5c-0.3-0.3-0.9-0.4-1.3-0.5c-0.5,0.5-0.9,0.1-0.9-0.3c0-0.5-0.3-1-0.8-1.3c-0.2-0.3-0.4-0.6-0.6-0.9
			c-0.7-0.8-1.4-1.5-2.3-2.1c-0.9-0.6-1.7-1.2-2.5-2c-0.2-0.1-0.4-0.2-0.6-0.2c-0.5,0.1-0.8,0.1-0.9-0.5c0-0.2-0.2-0.4-0.4-0.5
			c-0.3,0-0.5-0.1-0.8-0.1c-0.3,0-0.2-0.5-0.5-0.5c-0.4,0.1-0.7-0.1-0.9-0.4c0,0,0,0,0,0c-0.1-0.3-0.5-0.5-0.6-0.8
			c-0.2-0.5-0.7-0.9-1.2-0.9c-1-0.1-1.8-0.7-2.2-1.7c-0.1-0.2-0.3-0.3-0.5-0.2c0,0,0,0,0,0c-0.5,0.1-1,0-1.3-0.3
			c-0.8-0.5-1.7-0.9-2.6-1.1c-0.4-0.1-0.7-0.2-1-0.4c-0.5-0.3-0.6-1.2-1.5-1c-0.7,0.1-1.1-0.7-1.8-0.5c-0.6-0.4-1.2-0.7-1.8-1.1
			c-0.5-0.5-1.2-0.7-1.9-0.6c-0.2,0-0.3,0-0.4-0.1c-0.5-0.6-1.3-0.8-2-0.6c-0.3,0.1-0.6-0.1-0.7-0.3c-0.2-0.3-0.6-0.6-1-0.7
			c-0.7-0.2-1.4-0.5-2.1-0.9c-0.2-0.1-0.4-0.2-0.6-0.2c-0.9-0.1-1.8-0.2-2.7-0.2c-0.6,0-0.9-0.7-1.6-0.6c-0.8-0.5-1.7-0.9-2.7-1
			c-0.6-0.2-1.3-0.2-1.8-0.4c-0.6-0.2-1.3-0.4-2-0.4c-0.5,0-1-0.2-1.5-0.4c-0.5-0.3-1.3-0.2-1.8-0.6c-0.5-0.3-1.2-0.5-1.8-0.3
			c-0.5,0-1,0-1.4-0.2c-1.4-0.6-2.9-0.9-4.4-0.9c-0.4,0-0.9-0.1-1.3-0.2c-0.7-0.2-1.4-0.1-2,0.3c-0.1,0-0.3,0-0.4-0.1
			c-0.6-0.9-1.5-0.6-2.3-0.5c-0.6,0.1-1.3,0.1-1.9,0c-0.5,0-1-0.5-1.5,0c-0.5-0.1-1.1,0-1.6,0.2c-0.9,0.2-1.8,0.2-2.7-0.1
			c-0.6-0.3-1.3-0.3-1.9,0c-0.9,0.4-1.9,0.5-2.8,0.2c-1-0.2-2-0.1-3,0.1c-1.2,0.1-2.3,0.5-3.4,0.7c-0.2,0.1-0.3,0.1-0.5,0.1
			c-0.7-0.2-1.4,0-2,0.4c-0.5,0.3-1.1,0.4-1.7,0.2c-0.4,0-0.7-0.2-1,0.1c-0.1,0.1-0.2,0.1-0.3,0c-0.8-0.6-1.5-0.1-2.2,0.2
			c-0.4,0.2-0.7,0.5-1.2,0.1c-0.1-0.1-0.2-0.1-0.3,0c-0.5,0.7-1.3,0.2-1.9,0.4c-0.6-0.2-1.2-0.2-1.7,0.1c-0.3,0.1-0.6,0.2-0.9,0.2
			c-0.9,0.1-1.7,0.3-2.5,0.4c-0.2,0-0.3,0.1-0.5,0.1c-0.7-0.1-1.4,0-2.1,0c-0.6,0.2-1.3,0.5-1.9,0.6c-0.6,0.2-1.2,0.3-1.9,0.3
			c-0.3,0-0.6,0-0.9,0.2c-0.6,0.3-1.3,0.5-2,0.6c-1,0.2-2,0.5-2.9,0.9c-0.3,0.1-0.6,0.1-0.9,0.1c-0.5,0.1-1,0.2-1.6,0.3
			s-1.1,0.7-1.8,0.3c-0.1,0-0.3,0-0.5,0.1c-0.5,0.2-1.1,0.4-1.6,0.5c-0.5,0.2-1.1,0.3-1.7,0.5c-1.6,0.3-3.1,0.7-4.6,1.2
			c-2.2,1-4.6,1.3-6.8,2.3c-0.2,0.1-0.3,0-0.4-0.2c0,0,0-0.1,0-0.1c0-0.8,0.2-1.2,0.9-1.3c0.9-0.1,1.9-0.4,2.7-0.9
			c1.2-0.6,2.4-1.1,3.7-1.3c0.7-0.1,1.3-0.4,2-0.6c1.8-0.4,3.5-1.1,5.1-1.7c0.2-0.1,0.4-0.2,0.6-0.2c1-0.1,2-0.4,2.9-0.9
			c1.1-0.4,2.2-0.8,3.3-1c0.1-0.1,0.3-0.1,0.4-0.3c0.2-0.2,0.4-0.3,0.7-0.3c0.9,0,1.7-0.1,2.5-0.5c0.4-0.8,1.1-0.6,1.8-0.6
			c0.8-0.1,1.7-0.2,2.5-0.4c1.2-0.3,2.5-0.4,3.8-0.7c0.3,0,0.6,0,0.8-0.2c0.3-0.3,0.8-0.4,1.2-0.2c0.4,0.1,0.8,0,1.2-0.1
			c0.9-0.4,1.8-0.6,2.8-0.7c0.3,0,0.3-0.2,0.4-0.4s0.3-0.2,0.3-0.2c0.4,0.2,0.9,0.1,1.2-0.2c0.1-0.1,0.3-0.1,0.4,0
			c0.4,0.2,1,0.2,1.4,0c1.1-0.4,2.4-0.6,3.6-0.5c0.2,0,0.2-0.2,0.2-0.3s0.2-0.4,0.5-0.3c1.1,0.3,2.3,0.3,3.5,0
			c0.2-0.1,0.5-0.1,0.8,0c0.6,0.2,1.2,0.2,1.7,0.2c0.5,0,1,0,1-0.7c0.1,0,0.3-0.1,0.4,0c0.3,0.2,0.5,0.3,0.8,0
			c0.1-0.1,0.2-0.2,0.4-0.2c0.6,0.2,1.3,0.2,1.9,0c0.3,0,0.3,0.6,0.8,0.3c0.2-0.1,0.5-0.1,0.8-0.2s0.8-0.5,1.1-0.5s0.8,0.3,1.2,0.4
			c0.6,0,1.2,0,1.8-0.1c0.4-0.1,0.8-0.1,1.2,0.1c0.4,0.1,0.8,0.2,1.2,0.1c0.2,0,0.4-0.1,0.5-0.3c0.1-0.2,0.4-0.2,0.6-0.1
			c0.4,0.2,0.8,0.3,1.2,0.4c0.7-0.5,1.4,0,2-0.1c0.5-0.1,1.1,0,1.5,0.2c0.4,0.2,0.8,0,1.1-0.2s0.6-0.1,0.8,0.1s0.8-0.1,1,0.2
			c0.4,0.5,1-0.1,1.3,0.2c0.4,0.3,0.9,0.4,1.4,0.2c0.3,0,0.7,0,1,0.1c0.5,0.1,1,0.3,1.5,0.3c0.2,0,0.4,0,0.5,0.2
			c0.4,0.8,1.2,0.6,1.8,0.8c0.1,0,0.2-0.1,0.3-0.2s0.4-0.3,0.5,0c0.3,0.4,0.9,0.7,1.4,0.6c0.3,0,0.5,0.1,0.8,0.2
			c0.8,0.4,1.6,0.6,2.5,0.6c0.5,0.1,1.2-0.1,1.7,0.4c0.2,0.2,0.6,0.1,0.9,0.1c0.5-0.1,1,0,1.4,0.3c0.2,0.1,0.5,0.2,0.8,0
			c0.3-0.1,0.7,0,0.8,0.3c0.1,0.1,0.2,0.1,0.3,0.1c0.9,0.1,1.8,0.4,2.4,1.1c0.3,0.2,0.7,0.3,1.1,0.2c0.9-0.3,1.8-0.1,2.5,0.5
			c0.2,0.3,0.6,0.3,0.9,0.1c0,0,0.1-0.1,0.1-0.1c0.1-0.1,0.3-0.2,0.4-0.1c0,0,0.1,0.1,0.1,0.1c0.2,0.4,0.6,0.7,1,0.7
			c0.2,0,0.4,0.1,0.6,0.2c0.6,0.5,1.3,0.7,2.1,0.6c1,0,1.9,0.4,2.5,1.1c0.7,0.6,1.6,1.1,2.5,1.4c0.3,0.1,0.7,0,1-0.2
			c0.3-0.3,0.6-0.3,0.8,0c0.5,0.6,1.1,1.1,1.7,1.6c0.2,0.2,0.5,0.1,0.7,0c0.6-0.2,0.8-0.1,1,0.4s0.4,0.5,0.7,0.8s0.8,0.2,1.2,0.5
			c0.3,0.2,0.6,0.4,0.9,0.6c0.4,0.2,0.8,0.3,1.2,0.2c0.4,0,0.6,0,0.8,0.3c0.2,0.3,0.5,0.6,0.8,0.7c0.2,0.1,0.3,0.5,0.5,0.8
			c0.2,0.2,0.4,0.3,0.7,0.4c0.8,0.2,1.4,0.6,2.2,0.9c0.8,0.3,1.5,0.8,2,1.5c0.5,0.7,1,1.1,1.8,0.7c0.3-0.1,0.5,0.1,0.5,0.5
			c-0.1,0.3,0,0.7,0.3,0.8c0,0,0.1,0,0.1,0c0.9,0.4,1.8,1,2.4,1.8c0.3,0.4,0.7,0.7,1.1,0.9c0.5,0.1,1,0.5,1.2,0.9
			c0.3,0.4,0.5,0.8,1.1,0.8c0.1,0,0.2,0.2,0.3,0.3c0.2,0.3,0.4,0.6,0.6,0.9c0.2,0.6,0.7,1,1.3,1c0.7,0.1,0.9,0.5,1.1,1
			c0,0.1,0,0.1,0,0.2c0,0.8,0.7,1.5,1.5,1.6c0.6,0.1,1.1,0.6,1.1,1.2c0,0.7,0.5,1,0.9,1.5c0.1,0.2,0.3,0.2,0.5,0.3
			c0.5,0,0.9,0.3,1.1,0.8c0.1,0.2,0.3,0.4,0.5,0.6c0.2,0.2,0.6,0.4,0.6,0.7c0.2,0.8,0.9,1.2,1.1,1.9c0.2,1.1,0.9,2.1,1.8,2.7
			c0.4,0.2,0.4,0.6,0.5,1c0.1,0.7,0.7,1.1,1.4,1.1c0.6,0,0.7,0.2,0.6,0.9c0,0.2,0,0.4,0.1,0.6c0.3,0.4,0.6,0.7,1,1
			c0.4,0.2,0.5,0.7,0.3,1.1c-0.3,0.6-0.1,1.4,0.6,1.7c0.1,0,0.1,0.1,0.2,0.1c0.2,0.1,0.4,0.1,0.6,0.1s0.4,0.5,0.2,0.7
			c-0.4,0.4-0.4,0.7,0.1,1c0.2,0.1,0.1,0.5,0.2,0.8s0,0.4,0,0.5c0.7,0.4,0.5,1,0.5,1.6s0.1,0.7,0.7,0.9c0.8,0.2,1.3,1,1.2,1.8
			c-0.1,0.3,0.1,0.5,0.3,0.6c0.2,0.1,0.3,0.1,0.4,0.2s0.2,0.5,0.1,0.5c-0.4,0.4-0.3,0.7,0,1.1c0.2,0.5,0.4,1.1,0.6,1.7
			c0.2,0.6,0.2,0.6,0.9,0.6c0.1,0,0.2,0,0.3,0c0.2,0.1,0.3,0.3,0.2,0.5c-0.1,0.2-0.2,0.4-0.4,0.5c-0.2,0.1-0.3,0.4-0.2,0.7
			c0,0.1,0.1,0.1,0.1,0.1c0.3,0.4,0.4,1,0.1,1.5c-0.1,0.5,0,1.1,0.4,1.5c0.1,0.2,0.5,0.2,0.7,0.3c0.5,0.2,0.7,0.4,0.3,0.9
			c-0.2,0.2-0.3,0.4-0.2,0.7c0.1,0.4,0.2,0.7,0.2,1.1c0,0.8,0.3,1.5,0.9,1.9c0.4,0.3,0.5,0.8,0.4,1.3c-0.1,0.5-0.1,1-0.1,1.4
			s0.2,0.7,0.5,0.6s0.5,0.2,0.7,0.5c0.2,0.5,0,1,0.4,1.5c0.3,0.3,0,0.8-0.2,1.2s0.1,0.4,0.3,0.5s0.5,0.1,0.5,0.2
			c0.1,0.2,0.1,0.5,0.1,0.8c-0.2,0.5-0.4,1-0.6,1.5c-0.1,0.2-0.1,0.5,0.1,0.7c0.5,0.6,0.7,1.5,0.4,2.2c0,0.2,0,0.4,0.2,0.5
			c0.4,0.3,0.3,0.6,0,1c-0.1,0.1-0.1,0.3,0,0.4c0.4,0.5,0.5,1.2,0.5,1.8c0,0.5,0.4,1,0.4,1.5c0.1,0.5,0.3,0.9,0.7,1.2
			c0.2,0.2,0.2,0.5,0,0.7s-0.5,0.5-0.5,0.6c0.2,0.5-0.4,1-0.1,1.6c0.2,0.3,0.2,0.7,0,1c-0.3,0.4-0.4,0.9-0.2,1.3
			c0.2,0.6,0.3,1.3,0.2,2c-0.2,0.6,0,1.3,0.4,1.8c0.4,0.4,0.5,1,0.2,1.5c-0.1,0.2-0.1,0.4-0.1,0.6c0,0.7,0,1.4-0.3,2.1
			c-0.2,0.4,0,0.8,0.3,0.9c0,0,0,0,0,0c0.5,0.3,0.5,0.7,0,1c-0.3,0.2-0.4,0.3-0.4,0.6c0.2,0.6,0.2,1.3,0,1.9
			c0.2,0.9,0.1,1.8-0.4,2.6c-0.1,0.3,0,0.8-0.1,1.1s0.1,0.8,0,1.2c-0.1,0.4-0.3,0.8-0.4,1.2c0,0,0,0.1,0.1,0.1s0.2,0.1,0.3,0
			c0.1-0.1,0.2-0.3,0.2-0.4c0.1-0.5,0.4-0.9,0.9-1.1c0.5-0.2,0.9-0.6,1-1.2c0.1-0.2,0.2-0.5,0.3-0.7c0.1-0.3,0.4-0.6,0.7-0.6
			c0.4,0,0.8-0.2,1.1-0.6c0.2-0.4,0.6-0.8,1.1-0.9c0.4-0.1,0.3-0.5,0.5-0.8s0.5-0.9,1.1-0.7c0.2,0,0.3-0.1,0.4-0.2
			c0.4-0.7,1.3-0.6,1.7-1.3c0.1-0.2,0.6-0.2,0.9-0.3c0.5-0.2,1-0.5,1.5-0.8c0.7,0.2,1.1-0.1,1.5-0.7c0.1-0.1,0.2-0.2,0.4-0.2
			c0.5,0.1,1,0,1.4-0.2c0.3-0.1,0.6-0.1,0.9,0c0.5,0.2,1.1,0.2,1.5-0.1c0.2-0.1,0.6-0.2,0.8-0.1c0.8,0.9,2,0.6,3,0.8
			c0.3,0.1,0.5,0.2,0.6,0.5c0.5,0.7,0.9,1.4,1.9,1.6c0.2,0,0.4,0.3,0.5,0.5c0.2,0.3,0.4,0.5,0.6,0.8c0.8,0.7,1.9,0.6,2.6-0.2
			c0,0,0.1-0.1,0.1-0.1c0.2-0.3,0.6-0.6,1-0.7c1.1-0.2,2.2-0.3,3.3-0.3c1.1,0.1,2.1-0.1,3.1-0.5c0.4-0.3,0.8-0.3,1.2,0
			c0.6,0.4,1.3,0.4,1.8,0c0.4-0.2,0.8-0.2,1.2-0.1c0.8,0.1,1.6,0.2,2.4,0.1c1,0,1.9,0.1,2.8,0.4c0.5,0.1,0.9,0.4,1.2,0.8
			c0.3,0.4,0.7,0.7,1.2,0.7c0.5,0,0.9,0.3,1.2,0.7c0.3,0.3,0.7,0.7,1,1c0.1,0.1,0.3,0.3,0.3,0.5c0,0.3,0.2,0.6,0.5,0.8
			c0.6,0.4,1.2,0.9,1.7,1.4c0.3,0.3,0.9,0.7,0.4,1.3c-0.1,0.1,0,0.4,0.1,0.6c0.4,0.6,0.5,1.3,0.4,2c0,0.2,0,0.3,0.1,0.4
			c0.2,0.3,0.3,0.7,0.2,1.1c0,0.5,0,1,0.2,1.4c0.2,0.4,0.6,0.8,0.1,1.2c-0.1,0.1,0,0.3,0,0.5c-0.1,0.8-0.2,1.6-0.3,2.4
			c0,1.1-0.1,2.1-0.4,3.2c0,0.2,0,0.3,0,0.5c0.4,1.2-0.2,2.3-0.7,3.4c-0.1,0.2-0.3,0.5-0.4,0.7c-0.1,0.7-0.4,1.3-0.7,1.9
			c-0.3,0.6-0.5,1.3-0.6,2c-0.1,0.5-0.3,0.9-0.6,1.3c-0.4,0.6-0.7,1.2-0.9,1.9c0,0.2-0.2,0.4-0.3,0.5c-0.5,0.6-0.8,1.3-1.1,2.1
			c-0.2,0.4-0.5,0.8-0.7,1.2c-0.7,0.8-1.2,1.6-1.6,2.6c-0.4,0.8-0.9,1.5-1.4,2.1c-0.2,0.2-0.4,0.5-0.6,0.8c-0.7,1.5-2,2.6-2.8,4
			c0,0.1-0.2,0.1-0.3,0.2h-0.1c0-0.1-0.1-0.2-0.1-0.3c0.1-0.2,0.1-0.4,0.3-0.6c0.6-0.9,1.2-1.8,1.6-2.8c0.2-0.6,0.8-1.1,1-1.8
			s0.8-1.4,1-2.2c0.1-0.5,0.5-0.8,0.6-1.2c0.1-0.2,0.4-0.4,0.4-0.7c0.1-1.4,1.3-2.4,1.4-3.7c0-0.1,0.1-0.2,0.1-0.3
			c1.1-1.2,1.3-2.9,2.1-4.3c0.2-0.4,0.2-0.8,0.3-1.2s0.4-0.7,0.5-1c0.1-0.2,0.2-0.5,0.2-0.8c0.1-0.8,0.1-1.7,0.2-2.5
			c0-0.3,0.1-0.6,0.3-0.9c0.4-0.7,0.6-1.6,0.6-2.4c0.1-1.4,0-2.7-0.1-4.1c0-0.3,0-0.5,0-0.8c0.1-0.6,0.3-1.2-0.2-1.8
			c0.3-0.9-0.3-1.6-0.5-2.5c-0.1-0.6-0.4-1.1-0.9-1.5c-0.4-0.3-0.8-0.7-1-1.2c-0.1-0.2-0.3-0.4-0.4-0.4c-0.4,0-0.6,0-0.8-0.4
			c-0.2-0.6-0.7-1.1-1.4-1.2c-0.3-0.1-0.7-0.3-1-0.5c-0.3-0.2-0.6-0.2-0.9,0c-0.2,0.1-0.5,0.1-0.8,0c-0.2,0-0.4,0-0.6,0.1
			c-0.2,0.2-0.3,0.2-0.6,0.2s-0.2-0.1-0.3-0.1c-0.6-0.3-1.2-0.5-1.8-0.6c-0.6,0.1-1.2,0.2-1.8,0.3c-0.7,0.1-1.5,0.1-2.2,0.1
			c-0.3,0-0.5,0.1-0.7,0.2c-0.4,0.6-1.2,0.8-1.9,0.5c-0.4-0.1-0.7-0.1-1.1-0.1c-0.5,0-0.9,0.3-1,0.7c-0.3,0.7-0.3,0.7-1.2,0.5
			c-0.1,0-0.2,0-0.3,0c-0.1,0-0.4,0.2-0.4,0.3c-0.2,0.8-0.1,1.6,0.2,2.3c0.2,0.4,0.3,0.8,0.3,1.2c0,0.9,0.1,1.8,0.4,2.7
			c0.2,0.8,0.3,1.7,0.3,2.5c0,0.8,0.5,1.6,0,2.3c0,0.1,0,0.2,0,0.3c0.5,0.7,0.1,1.2-0.2,1.8l-0.4,0.7c-0.2,0.3-0.2,0.7,0,1.1
			c0.2,0.3,0.3,0.6,0.4,0.9c0.1,0.2,0.1,0.5-0.2,0.6c0,0-0.1,0-0.1,0c-0.8,0.2-1.2,1-1.1,1.7c0.1,0.6-0.3,1.3-0.8,1.6
			c-0.4,0.3-0.7,0.7-0.8,1.1c-0.3,0.6-0.6,1.1-1,1.6c-0.3,0.3-0.6,0.8-0.7,1.2c0,0.2-0.1,0.3-0.2,0.4c-1,0.6-1.5,1.8-2.5,2.5
			c-0.1,0.1-0.2,0.2-0.2,0.2c-0.4,0.3-0.2,1-0.8,1.1c-0.4,0.1-0.8,0.3-1.2,0.5c-0.2,0-0.4,0-0.6,0c-0.2-0.1-0.5,0-0.6,0.3
			c0,0,0,0,0,0.1c-0.1,0.4-0.3,0.5-0.7,0.5c-1.1,0-2.2,0.2-3.2,0.6c-0.2,0.1-0.4,0.3-0.6,0.4c-0.1,0-0.3,0.1-0.3,0.1
			c-0.3-0.5-0.9-0.3-1.3-0.5s-0.6-0.6-1.1-0.3c-0.1,0.1-0.4-0.1-0.5-0.2c-0.6-0.4-1.1-1-1.9-1.2c-0.1,0-0.3-0.3-0.3-0.5
			c0-0.4-0.2-0.8-0.5-1.1c-0.8-0.5-1.3-1.4-1.5-2.4c0-0.1-0.2-0.2-0.3-0.4s-0.3-0.4-0.2-0.6c0.3-0.7,0-1.4,0-2
			c-0.1-0.4-0.1-0.7,0-1.1c0.1-0.3,0-0.6-0.3-0.9c-0.5-0.4-0.6-1.1-0.2-1.6c0.1-0.2,0.2-0.4,0.2-0.6c-0.1-0.6,0-1.3,0.3-1.8
			c0.1-0.2,0.2-0.5,0.2-0.8c0-0.8,0.1-1.7,0.4-2.5c0.3-0.9,0.6-1.8,1.1-2.7c0.4-0.5,0.6-1.1,0.7-1.8c0-0.2,0.3-0.5,0.6-0.7
			s0.4-0.3,0.3-0.6c0-0.3,0.1-0.6,0.4-0.6c0.8-0.3,1.3-1,1.4-1.8c0-0.3,0.3-0.4,0.5-0.4c0,0,0.1,0,0.1,0c0.5,0.1,1-0.2,1.2-0.7
			c0.5-1,1.4-1.5,1.9-2.5c0-0.1,0.3-0.1,0.4-0.1s0.3,0,0.3,0c0.5-0.4,1-0.8,1.6-1.1c0.6-0.4,1.2-0.9,1.8-1.3
			c0.2-0.2,0.6-0.1,0.9-0.2c0.3-0.1,0.5-0.4,0.4-0.7c-0.1-0.8-0.7-1.2-1.2-1.6c-0.7-0.8-1.8-1.1-2.8-0.8c-0.7,0.2-1.5,0.2-2.2,0.1
			c-0.4,0-0.8,0.1-1.2,0.4c-0.5,0.5-1.1,0.8-1.8,1.1c-1.3,0.4-2.3,1.2-3.5,1.7c-0.6,0.3-1.2,0.7-1.6,1.3c-0.4,0.8-1.1,1.4-1.8,1.7
			c-0.3,0.1-0.5,0.4-0.7,0.6c-0.1,0.2-0.2,0.4-0.2,0.6c0.1,0.4,0.1,0.8-0.4,0.9s-0.7,0.7-1.1,1c-0.4,0.3-0.7,0.8-0.6,1.4
			c0,0.2-0.1,0.4-0.3,0.5c-0.3,0.2-0.7,0.4-0.2,0.9c-0.1,0.4-0.2,0.8-0.5,1.1c-0.4,0.3-0.7,0.8-0.8,1.3c-0.1,1-0.3,2.1-0.6,3.1
			c-0.1,0.6-0.2,1.1-0.4,1.7c-0.2,0.5,0.2,1.1-0.5,1.4c0.3,0.5-0.4,1,0,1.5c0.2,0.5,0.1,1-0.2,1.3c-0.2,0.3-0.3,0.7-0.2,1
			c0,0.1,0,0.4-0.1,0.4c-0.7,0.4-0.7,1.3-1.1,1.9c-0.2,0.3-0.2,0.6-0.1,0.9c0.1,0.3,0.1,0.7-0.1,1c-0.4,0.6-0.7,1.3-1,2
			c-0.2,0.5-0.5,0.9-0.8,1.4c-0.4,0.5-0.6,1.1-0.5,1.8c0,0.2,0,0.4-0.1,0.6c-0.4,0.7-0.6,1.5-0.9,2.2c-0.5,1.3-1.1,2.6-1.9,3.8
			c-0.3,0.3-0.5,0.7-0.5,1.1c0,0.2-0.2,0.4-0.3,0.5c-0.5,0.3-0.6,0.9-0.4,1.4c0.3,0.5,0.3,0.8-0.1,1c-1,0.6-1.7,1.6-2,2.8
			c-0.1,0.2-0.2,0.5-0.1,0.6c0.4,0.7,0,1-0.5,1.3c-0.2,0.2-0.3,0.4-0.5,0.7c0,0.1,0,0.2-0.1,0.3c-1.2,0.7-1.3,2.2-2.2,3.1
			c-0.4,0.4-0.6,1.1-0.4,1.6c0,0.3-0.1,0.6-0.3,0.8c-0.8,1.1-1.6,2.2-2.4,3.3c0,0.1-0.1,0.2-0.2,0.3c-0.9,0.7-1.6,1.7-2,2.8
			c-0.1,0.2-0.3,0.4-0.6,0.5c-0.4,0.2-0.6,0.7-0.4,1.1c0.1,0.3-0.1,0.7-0.5,0.7c0,0,0,0,0,0c-0.7,0.3-1.3,0.8-1.6,1.5
			c-0.2,0.3-0.4,0.6-0.7,0.8c-0.2,0.1-0.2,0.3-0.2,0.5c0,0.2,0.2,0.4,0,0.6c-0.2,0.1-0.4,0.2-0.6,0.2c-0.5-0.1-0.8,0.1-1,0.5
			c-0.3,0.7-0.7,1.3-1.1,1.9c-0.5,0.5-1.1,0.9-1.7,1.2c-0.5,0.3-0.8,0.9-1.4,1c-0.3,0.1-0.4,0.4-0.4,0.7c0.1,0.4-0.2,0.9-0.6,1
			c-0.3,0.2-0.5,0.4-0.7,0.7c-0.1,0.2-0.2,0.4-0.2,0.6c0,1-0.2,1.3-1,1.3c-0.6,0-0.7,0.4-1,0.6c-0.1,0.1-0.1,0.2-0.1,0.3
			c0.2,0.8-0.5,1.1-1,1.2c-0.9,0.3-1.6,0.8-2.2,1.6c-0.3,0.4-0.6,0.7-1.1,0.9c-0.3,0.1-0.4,0.4-0.5,0.8c-0.2,0.6-0.2,0.6-1,0.5
			c-0.4-0.1-0.6,0-0.5,0.4c0,0.2-0.1,0.4-0.2,0.5c-0.3,0.2-0.6,0.4-1,0.5c-0.7,0.2-1.3,0.7-1.7,1.4c-0.1,0.3-0.4,0.5-0.5,0.8
			c-0.1,0.3-0.5,0.6-0.8,0.6c-0.7,0.1-1.3,0.5-1.7,1.1c-0.5,0.6-1.1,1.1-1.8,1.6c-0.4,0.2-0.7,0.6-1,1c-0.2,0.5-0.7,0.8-1.3,0.7
			c-0.7-0.2-1.4,0.3-1.6,1c0,0,0,0,0,0c-0.1,0.2-0.2,0.4-0.3,0.6c-0.1,0.2-0.3,0.3-0.5,0.3c-0.6-0.1-1.2,0.3-1.3,0.9
			c-0.1,0.3-0.4,0.5-0.7,0.5c-0.1,0-0.1,0-0.2-0.1c-0.2-0.1-0.4,0.1-0.6,0.2c-0.7,0.3-1.1,1-1.9,1c-0.2,0-0.4,0.3-0.5,0.5
			c-0.4,0.5-0.9,0.9-1.6,0.9c-0.5,0-0.9,0.7-1.6,0.5c-0.1,0-0.2,0.1-0.2,0.2c-0.5,0.7-1.2,1.2-2.1,1.3c-0.2,0-0.4,0.2-0.4,0.4
			c0,0.3-0.2,0.5-0.5,0.5c-0.4-0.1-0.9,0-1.2,0.3c-0.1,0.1-0.3,0.2-0.4,0.2c-0.8-0.1-1.6,0.2-2.1,0.9c-0.4,0.3-0.7,0.6-1,1
			c-0.1,0.2-0.3,0.3-0.4,0.5c-0.6,0.4-1.1,1.1-1.2,1.8c-0.1,0.5-0.4,0.9-0.8,1.2c-0.3,0.1-0.5,0.5-0.5,0.8c0.1,0.2-0.1,0.4-0.3,0.5
			c-0.2,0.1-0.4,0.4-0.4,0.7c-0.1,0.7-0.4,1.4-0.8,2.1c-0.3,0.4-0.4,0.9-0.2,1.4c0.1,0.4,0.1,0.9-0.2,1.2c-0.3,0.5-0.7,1-1,1.5
			c-0.2,0.2-0.3,0.4-0.2,0.7c0,0.1-0.1,0.3-0.2,0.3c-0.7,0.1-0.8,0.7-0.9,1.2c-0.1,0.9-0.7,1.6-1.5,2c-0.2,0.1-0.5,0.2-0.6,0.3
			c-0.4,0.6-0.9,0.5-1.4,0.2c-0.3-0.1-0.6-0.3-0.9-0.1c-0.3,0.1-0.6,0.1-0.9-0.1c-0.7-0.4-1.6-0.4-2.3-0.2c-0.2,0.1-0.4,0.1-0.6,0.1
			c-0.6-0.4-1.2,0-1.9,0c-0.5,0.1-1,0.1-1.5-0.1c-0.9-0.3-2,0-2.9-0.1c-0.5,0-0.9,0.5-1.4,0.6s-1.1-0.2-1.5-0.1
			c-0.9,0.2-1.8,0.2-2.7,0c-0.2,0-0.3,0-0.4,0.1c-0.3,0.5-1,0.6-1.4,0.2c-0.6-0.3-1.3-0.4-2-0.2c-0.3,0.1-0.6,0-0.9-0.1
			c-0.2-0.1-0.5-0.1-0.6,0c-0.5,0.5-1.1,0.3-1.7,0.3c-0.2,0-0.5,0-0.6,0.1c-0.3,0.3-0.5,0.2-0.6,0s-0.4-0.4-0.7-0.3
			c-0.6,0.2-1.3,0.2-2,0.1c-0.4,0-0.7,0-1.1,0.2c-0.2,0-0.4,0.1-0.6,0.1c-0.6,0.1-1.3-0.2-1.8,0.2c-1-0.2-2-0.2-3,0.1
			c-0.2,0-0.3,0-0.5-0.1c-0.6-0.3-1.3-0.3-2-0.1c-0.9,0.3-1.2-0.1-1.5-0.7C150.1,309.8,149.8,308.9,149.8,307.9z M283.6,223.5
			c0.9,0.1,1.9-0.1,2.7-0.5c0.6-0.3,1.1-0.7,1.6-1.1c0.3-0.3,0.6-0.5,1-0.7c0.4-0.2,0.6-0.3,0.5-0.8c0-0.1,0.2-0.3,0.3-0.3
			c0.7-0.1,1.3-0.6,1.6-1.2c0.2-0.5,0.6-0.9,1.2-1c0.4-0.1,0.7-0.4,0.7-0.8c0.1-0.2,0.2-0.5,0.2-0.8c0.1-0.7,0.4-1.4,0.8-2.1
			c0.4-0.6,0.6-1.3,0.5-2c-0.1-0.4,0.1-0.9,0.3-1.2c0.1-0.1,0.1-0.3,0.1-0.4c-0.2-0.8,0.2-1.7-0.3-2.5c-0.1-0.2-0.1-0.5,0-0.8
			c0.4-0.9,0.1-1.8,0.1-2.7c0-0.1-0.1-0.2-0.2-0.2c-0.4-0.2-0.3-0.5-0.1-0.8s0.2-0.5,0.1-0.9c0-0.9-0.5-1.7-0.6-2.6
			c0-0.8-0.7-1.4-1.4-1.3c-0.2,0-0.4,0.1-0.6,0.1c-0.5,0.2-1.1,0-1.3,0.7c-0.5,0.2-1,0.3-1.3,0.8c-0.2,0.4-0.6,0.5-0.9,0.4
			c0,0,0,0-0.1,0c-0.3-0.1-0.7-0.1-0.9,0.2c-0.4,0.4-0.7,0.8-1.1,1.2c-0.2,0.3-0.6,0.5-1,0.4c-0.6,0-0.6,0-0.9,0.6
			c-0.1,0.3-0.3,0.6-0.5,0.8c-0.9,0.8-1.7,1.7-2.4,2.7c-0.5,0.5-0.8,1.1-1,1.8c-0.1,0.4-0.4,0.7-0.7,0.8c-0.6,0.2-0.9,0.8-0.8,1.4
			c0,0.5,0.3,1.2-0.3,1.6c-0.1,0.1-0.1,0.3-0.1,0.4c0.2,0.4,0.1,1-0.2,1.3c-0.1,0.1-0.1,0.3,0,0.4c0.5,0.4,0.3,0.8,0.1,1.3
			c-0.4,0.6-0.5,1.3-0.2,2c0.1,0.2,0,0.5-0.1,0.8s-0.1,0.6,0.3,0.7c0.2,0.1,0.3,0.3,0.3,0.5c0.1,0.3,0,0.7,0,1
			c0.1,0.6,0.3,1.2,1,1.4s0.8,0.4,0.8,1c0,0.2,0.2,0.2,0.3,0.3c0.3,0.1,0.7,0,0.9,0.2c0.2,0.2,0.6,0.3,0.9,0.2
			C283.2,223.5,283.4,223.4,283.6,223.5z M15.3,244.3L15.3,244.3c-0.1-0.6-0.1-1.3-0.1-1.9c0-0.4-0.2-0.4-0.5-0.4
			c-0.4-0.1-0.8,0-1.2,0.3c-0.4,0.3-0.8,0.9-1.5,0.7c-0.1,0-0.2,0.2-0.3,0.3s-0.2,0.3-0.3,0.3c-0.9-0.1-1.6,0.5-2.5,0.4
			s-1.6,0-2.4,0c-1.1-0.4-2.3-0.5-3.4-0.1c-1.2,0.3-1.2,0.3-1,1.4c0,0.3,0.1,0.6,0.4,0.8l0.2,2.2c-0.4,0.6-0.4,1.5,0,2.1
			c0,0,0,0.1,0,0.2c-0.4,0.8,0,1.5-0.1,2.3c-0.1,0.3-0.1,0.6,0.2,0.8c0.1,0.1,0.2,0.4,0.4,0.5c0.2,0.1,0.4,0.2,0.6,0.1
			c0.2-0.1,0.3-0.3,0.3-0.5c0-0.5,0-0.9,0.1-1.4c0-0.5,0-1,0-1.6c0.1-0.9,0.1-1.8,0-2.7c0-0.1,0.1-0.3,0.2-0.4
			c0.5-0.4,1.2-0.3,1.6,0.2c0.1,0.1,0.1,0.2,0.1,0.2c0.1,0.2,0.2,0.5,0.3,0.8c0.2,0.8,0.4,1.7,0.6,2.5c0.1,0.3,0.2,0.6,0.4,0.8
			c0.3,0.3,0.2,0.4,0,0.8s-0.1,0.9-0.3,1.4c-0.3,0.6-0.6,1.3-1,1.8c-0.1,0.2-0.3,0.2-0.5,0.2c-0.5-0.1-1-0.3-1.2-0.9
			c0-0.2-0.2-0.4-0.3-0.5C4,255.1,3.8,255,3.6,255c-0.3,0-0.5,0.3-0.4,0.6c0,0.3,0.1,0.6,0.2,0.9c0.2,0.5,0.6,0.8,0.1,1.3
			c-0.1,0-0.1,0.2,0,0.3c0.2,0.7,0.3,1.5,0.3,2.2c0.1,0.8-0.3,1.6,0.5,2.2c0,0,0,0.1,0,0.2c-0.4,0.7,0.3,1.6-0.3,2.3
			c-0.3,0.4-0.3,0.9,0,1.2c0.1,0.2,0.2,0.4,0.3,0.6c0.1,0.2,0.1,0.5-0.1,0.7c-0.1,0.2-0.3,0.3-0.4,0.5c-0.1,0.2,0.1,0.7,0.3,0.6
			c0.7-0.2,1.5,0.5,2.2,0c0.7,0.6,1.7-0.4,2.3,0.5c0,0.1,0.3,0,0.5,0c0.9-0.2,1.9-0.1,2.8,0.3c0.4,0.3,1,0.2,1.4-0.1
			c0.3-0.3,0.5-0.3,0.7,0c0.1,0.2,0.2,0.4,0.5,0.4s0.6,0.1,0.8-0.1c0.2-0.2,0.4-0.5,0.5-0.8c0-0.1,0-0.2,0-0.3
			c-0.2-1.4-0.2-2.8-0.5-4.3c-0.3-1-0.3-2-0.1-2.9c0.2-0.8,0.2-1.6-0.2-2.3c-0.1-0.2-0.2-0.4-0.1-0.6c0.2-0.7-0.3-1.4,0.1-2
			c0.1-0.2,0.1-0.4,0-0.6c-0.3-0.7-0.4-1.5-0.1-2.2c0.1-0.1-0.1-0.3-0.1-0.5c-0.1-0.6-0.1-1.1,0-1.7c0.1-0.5,0.5-0.8,0.6-1.3
			s-0.5-0.9-0.5-1.5c0-0.6,0.1-1.3,0.2-1.9c0.2-0.5,0.2-0.9,0.1-1.4C15.2,245.1,15.2,244.7,15.3,244.3z"/>
		<path d="M191.1,101.6c-0.3,0-0.5,0-0.8,0c-0.7-0.3-1.4-0.1-2,0.3c-0.1,0.1-0.3,0.2-0.4,0.2c-0.4-0.1-0.8-0.2-1.2-0.2
			c-0.3,0-0.7,0.4-1,0.1s-1,0.2-1.3-0.4c-0.1-0.1-0.2-0.1-0.3-0.1c-0.6,0.5-1.2,0.2-1.8,0c-0.6-0.1-1.1-0.3-1.6-0.6
			c-0.3-0.2-0.7-0.2-1,0c-0.2,0.2-0.6,0.2-0.9,0.1c-0.3-0.2-0.7-0.3-1.1-0.4c-0.2,0-0.5-0.1-0.6,0c-0.5,0.4-1,0-1.5,0
			c-0.6-0.5-1.4-0.7-2.2-0.5c-0.4,0-0.9-0.5-1.3,0.1c-0.3-0.1-0.6-0.1-0.9-0.2s-0.7-0.1-1,0.2c-0.1,0.1-0.4,0.1-0.6,0
			c-0.6-0.3-1.2-0.3-1.8-0.1c-1.1,0.2-2.2,0.2-3.3,0c-0.4-0.1-0.8-0.1-1.2,0c-0.6,0.3-1.4,0-2,0.3c-0.1,0-0.3-0.1-0.4-0.1
			s-0.5-0.1-0.6,0c-0.3,0.4-0.9,0.5-1.3,0.2c-0.3-0.1-0.5,0-0.8,0.1c-0.3,0.4-0.9,0.4-1.2,0.1c-0.1-0.1-0.2-0.2-0.2-0.3
			c-0.1-0.2-0.4-0.2-0.6-0.1c0,0-0.1,0.1-0.1,0.1c-0.3,0.4-0.8,0.5-1.3,0.3c-0.4,0-0.8,0-1.2,0.1c-0.3,0-0.5,0.1-0.8,0.1
			c-0.4,0-0.8,0.1-1.2,0c-0.8-0.1-1.6-0.2-2.1,0.7c-0.1,0.1-0.3,0.1-0.4,0.1c-0.8-0.5-1.5,0.1-2.3,0.3c-0.4,0.1-0.7,0.3-1.2,0.1
			c-0.3-0.1-0.7-0.2-1-0.1c-0.1,0-0.3,0-0.4,0.1c-0.1,0.1-0.2,0.3-0.3,0.3c-0.7,0-1.2,0.5-1.8,0.5c-0.3,0-0.6,0.1-0.8,0.5
			c-0.1,0.1-0.3,0.2-0.4,0.1c0,0-0.1-0.1-0.1-0.1c-0.4-0.6-1-0.4-1.5-0.3c-0.3,0.1-0.5,0.2-0.9,0.3c-0.7,0.2-1.5,0.3-2.3,0.3
			c-0.3,0-0.6,0-0.7,0.2c-0.3,0.7-0.9,0.8-1.5,1c-0.4,0.1-0.7,0.2-1,0.5c-0.4,0.3-0.9,0.4-1.3,0.3c-0.5-0.1-1,0.2-1.5,0.1
			c-0.2,0-0.5,0.1-0.7,0.3c-0.6,0.6-1.3,0.9-2.2,0.9c-0.2,0-0.5,0.2-0.7,0.4c-0.6,0.5-1.4,0.9-2.2,0.9c-0.3,0.1-0.5,0-0.7-0.2
			c-0.2-0.3-0.6-0.4-0.9-0.3c-0.9,0.1-1.8-0.3-2.4-0.9c-0.7-0.5-0.7-1.3-1-2c0-0.1,0-0.3,0.1-0.5c0.1-0.1,0.1-0.2,0.2-0.2
			c0.4-0.6,0.8-1.1,1.3-1.6c0.5-0.3,1.1-0.6,1.7-0.9c1.2-0.7,2.3-1.4,3.5-2c0.6-0.4,1.2-0.6,1.9-0.7c0.6-0.1,1.1-0.3,1.7-0.5
			c0.6-0.1,1.1-0.3,1.6-0.6c0.4-0.3,1-0.4,1.5-0.3c0.7,0,1.4-0.1,2-0.4c0.3-0.1,0.6-0.2,0.9-0.3c0.3-0.1,0.6-0.1,0.9,0
			c0.4,0.2,1,0.2,1.4-0.1c0.3-0.3,0.7-0.5,1.2-0.4c0.2,0,0.3-0.1,0.4-0.2c0.4-0.5,1.2-0.6,1.8-0.4c0.2,0.1,0.5,0.1,0.8,0
			c1.2-0.4,2.4-0.7,3.6-0.8c0.3,0,0.6,0,0.9,0c0.4,0.1,0.7,0,1.1-0.1c0.5-0.2,1.1-0.4,1.6-0.6c0.1,0,0.2,0,0.3,0
			c0.3,0.1,0.7,0.3,1.1,0.3c0.3,0,0.5-0.4,0.9-0.2s0.8-0.3,1.2-0.3c0.4,0.1,0.9,0,1.2-0.3c0.1-0.1,0.3-0.2,0.4-0.2
			c1.1-0.2,2.3-0.4,3.4-0.6c0.3,0,0.5,0.1,0.7,0.3c0.4,0.3,0.9,0.3,1.3,0c0.3-0.2,0.6-0.3,1-0.3c0.8,0.2,1.7,0.1,2.5-0.2
			c0.2-0.1,0.4-0.1,0.6-0.1c0.8,0.1,1.7,0,2.5-0.3c0.2-0.1,0.5-0.2,0.8-0.1c0.7,0.3,1.6,0.2,2.2-0.2c0.2-0.1,0.4,0,0.6,0.1
			c0.4,0.4,0.9,0.1,1.3,0.4c0.2,0.1,0.6-0.1,0.9-0.2c0.2-0.1,0.5-0.2,0.7-0.3c0.2,0,0.5,0,0.6,0.1c0.3,0.4,0.8,0.6,1.2,0.5
			c1.1,0,2.2,0,3.3,0.1c0.4,0,0.7,0,0.9-0.4c0.2-0.1,0.4-0.1,0.6-0.1c2.3,1.1,2.3,1,4.7,0.6c0.4-0.1,0.8-0.1,1.2,0.2
			c0.5,0.4,1.2,0.2,1.8,0.6c0,0,0.2-0.1,0.3-0.1s0.4-0.2,0.4-0.2c0.5,0.7,1.2,0.2,1.8,0.2c0.3,0,0.6,0.1,0.9,0.3
			c0.2,0.2,0.3,0,0.5-0.1c0.5-0.4,0.7-0.4,1.2,0.1c0.3,0.4,0.5,0.6,1,0.3c0.3-0.2,0.7,0,1,0.2c1,0.5,1,0.5,1.3,1.3
			c0.1,0.2,0.1,0.5,0.2,0.8c0.1,0.2,0.1,0.4,0.1,0.6c-0.3,0.9-0.5,1.9-1.4,2.4c-0.3,0.1-0.5,0.4-0.5,0.8c0,0.1-0.2,0.3-0.3,0.3
			c-0.4,0.1-0.7,0.1-1.1,0.2c-0.1,0-0.4,0.1-0.4,0.2C191.9,101.9,191.4,101.5,191.1,101.6z"/>
		<path d="M72.1,208.4c-0.1,0.8-0.2,1.4-0.4,2c-0.1,0.2-0.2,0.4-0.4,0.4c-0.3,0.1-0.6,0.2-0.9,0.3c-2,0.8-1.5,0.5-2.5-0.8
			c-0.2-0.2-0.2-0.5-0.5-0.6c-0.8-0.4-0.7-1.3-1-2c-0.1-0.2,0.1-0.5,0.1-0.8s0.2-0.4,0.2-0.6c-0.1-0.6,0.3-0.9,0.7-1.2
			s0.6-0.2,0.8-0.5c0.8-0.8,1.5-0.3,2.1,0c0.2,0.1,0.2,0.3,0.4,0.5s0.4,0.5,0.6,0.7c0.1,0.1,0.2,0.1,0.3,0.2
			C71.9,207,72,207.8,72.1,208.4z"/>
		<path d="M12.3,247.5c0,0.1-0.1,0.3-0.1,0.4c-0.1,0.3-0.1,0.5-0.1,0.8c0.5,1.3,0,2.6,0.2,3.9c0,0.3,0.1,0.6,0.2,0.9
			c0,0.2,0,0.4,0,0.4c-0.8,0.5-0.2,1.6-0.9,2.2c0,0.1,0,0.2,0,0.3c0.2,0.8,0.1,1.6-0.2,2.4c-0.2,1.4-0.5,2.7-0.7,4.1
			c0,0.1-0.1,0.2-0.1,0.3l-0.2-0.2c-0.3-0.4-0.2-0.9-0.2-1.4c0-0.6-0.1-1.2-0.4-1.7c-0.2-0.3-0.2-0.8-0.2-1.2c0-0.4-0.1-0.9-0.3-1.2
			c-0.4-0.5-0.4-1.1-0.1-1.7c-0.1-1.2,0.2-2.4-0.2-3.6c-0.1-0.2,0-0.4,0.1-0.6c0.5-0.6,0.7-1.4,0.4-2.1c0-0.2,0-0.4,0.2-0.5
			c0.4-0.2,0.5-0.6,0.4-0.9c-0.1-0.7,0.1-1.4,0.6-1.9c0.4-0.4,0.4-0.3,0.9-0.2C12.2,246.1,12.2,246.7,12.3,247.5z"/>
	</g>
</g>
</svg>
